<svg width="676" height="1201" viewBox="0 0 676 1201" fill="none" xmlns="http://www.w3.org/2000/svg">
<g clip-path="url(#clip0_3024_13888)">
<rect width="675" height="1200" transform="translate(0.75 0.375)" fill="#F5F0EE"/>
<rect x="0.75" y="0.375" width="337.5" height="343.75" fill="url(#paint0_linear_3024_13888)"/>
<path d="M57.791 47.0547H60.4961C60.9941 47.0547 61.4141 47.1328 61.7559 47.2891C62.1009 47.4453 62.3581 47.6618 62.5273 47.9385C62.6999 48.2152 62.7878 48.5326 62.791 48.8906C62.7878 49.3008 62.6722 49.6328 62.4443 49.8867C62.2197 50.1374 61.9219 50.3066 61.5508 50.3945V50.4629C61.8079 50.4759 62.0521 50.554 62.2832 50.6973C62.5176 50.8405 62.7064 51.0423 62.8496 51.3027C62.9928 51.5599 63.0645 51.8594 63.0645 52.2012C63.0645 52.5755 62.9733 52.9076 62.791 53.1973C62.612 53.487 62.3418 53.7148 61.9805 53.8809C61.6191 54.0436 61.1764 54.125 60.6523 54.125H57.791V47.0547ZM60.457 53.0605C60.903 53.0605 61.2334 52.9759 61.4482 52.8066C61.6631 52.6341 61.7721 52.3997 61.7754 52.1035C61.7721 51.8919 61.7184 51.7015 61.6143 51.5322C61.5101 51.363 61.3604 51.2295 61.165 51.1318C60.9697 51.0309 60.7435 50.9805 60.4863 50.9805H59.0605V53.0605H60.457ZM60.3398 50.0625C60.5645 50.0625 60.7646 50.0218 60.9404 49.9404C61.1195 49.8558 61.2611 49.737 61.3652 49.584C61.4694 49.431 61.5215 49.252 61.5215 49.0469C61.5182 48.7669 61.4173 48.5407 61.2188 48.3682C61.0202 48.1956 60.737 48.1094 60.3691 48.1094H59.0605V50.0625H60.3398ZM66.0996 47.0547H70.6992V48.1191H67.3691V50.0527H70.4551V51.1172H67.3691V53.0508H70.7188V54.125H66.0996V47.0547ZM77.7676 48.998C77.735 48.6986 77.5999 48.4642 77.3623 48.2949C77.1279 48.1257 76.8219 48.041 76.4443 48.041C76.1774 48.041 75.9447 48.0801 75.7461 48.1582C75.5508 48.2363 75.401 48.3454 75.2969 48.4854C75.1927 48.6253 75.1406 48.7848 75.1406 48.9639C75.1406 49.2308 75.2529 49.4391 75.4775 49.5889C75.7021 49.7354 75.9935 49.8509 76.3516 49.9355L77.0156 50.1113C77.6243 50.2513 78.1208 50.484 78.5049 50.8096C78.8923 51.1318 79.0859 51.5762 79.0859 52.1426C79.0859 52.556 78.9801 52.9206 78.7686 53.2363C78.557 53.5521 78.2493 53.7979 77.8457 53.9736C77.4453 54.1462 76.9668 54.2324 76.4102 54.2324C75.8633 54.2324 75.3864 54.1478 74.9795 53.9785C74.5758 53.806 74.2601 53.5553 74.0322 53.2266C73.8044 52.8978 73.6823 52.5039 73.666 52.0449H74.916C74.9453 52.3997 75.0951 52.6715 75.3652 52.8604C75.6354 53.0492 75.9805 53.1452 76.4004 53.1484C76.6771 53.1484 76.9212 53.1061 77.1328 53.0215C77.3477 52.9336 77.5153 52.8132 77.6357 52.6602C77.7562 52.5072 77.8164 52.3314 77.8164 52.1328C77.8132 51.8724 77.7057 51.6706 77.4941 51.5273C77.2826 51.3809 76.9635 51.2539 76.5371 51.1465L75.7363 50.9414C74.4798 50.6126 73.8516 49.9779 73.8516 49.0371C73.8516 48.627 73.9639 48.2656 74.1885 47.9531C74.4131 47.6374 74.7223 47.3932 75.1162 47.2207C75.5101 47.0449 75.9544 46.957 76.4492 46.957C76.9408 46.957 77.377 47.0433 77.7578 47.2158C78.1419 47.3883 78.4414 47.6309 78.6562 47.9434C78.8711 48.2526 78.9818 48.6042 78.9883 48.998H77.7676ZM81.8281 47.0547H87.4629V48.1191H85.2852V54.125H84.0156V48.1191H81.8281V47.0547ZM94.832 47.0547H97.5371C98.0352 47.0547 98.4551 47.1328 98.7969 47.2891C99.1419 47.4453 99.3991 47.6618 99.5684 47.9385C99.7409 48.2152 99.8288 48.5326 99.832 48.8906C99.8288 49.3008 99.7132 49.6328 99.4854 49.8867C99.2607 50.1374 98.9629 50.3066 98.5918 50.3945V50.4629C98.849 50.4759 99.0931 50.554 99.3242 50.6973C99.5586 50.8405 99.7474 51.0423 99.8906 51.3027C100.034 51.5599 100.105 51.8594 100.105 52.2012C100.105 52.5755 100.014 52.9076 99.832 53.1973C99.653 53.487 99.3828 53.7148 99.0215 53.8809C98.6602 54.0436 98.2174 54.125 97.6934 54.125H94.832V47.0547ZM97.498 53.0605C97.944 53.0605 98.2744 52.9759 98.4893 52.8066C98.7041 52.6341 98.8132 52.3997 98.8164 52.1035C98.8132 51.8919 98.7594 51.7015 98.6553 51.5322C98.5511 51.363 98.4014 51.2295 98.2061 51.1318C98.0107 51.0309 97.7845 50.9805 97.5273 50.9805H96.1016V53.0605H97.498ZM97.3809 50.0625C97.6055 50.0625 97.8057 50.0218 97.9814 49.9404C98.1605 49.8558 98.3021 49.737 98.4062 49.584C98.5104 49.431 98.5625 49.252 98.5625 49.0469C98.5592 48.7669 98.4583 48.5407 98.2598 48.3682C98.0612 48.1956 97.778 48.1094 97.4102 48.1094H96.1016V50.0625H97.3809ZM109.449 50.5898C109.449 51.3353 109.309 51.9814 109.029 52.5283C108.753 53.0752 108.367 53.4951 107.872 53.7881C107.381 54.0778 106.826 54.2227 106.207 54.2227C105.585 54.2227 105.029 54.0778 104.537 53.7881C104.046 53.4951 103.66 53.0752 103.38 52.5283C103.103 51.9782 102.965 51.332 102.965 50.5898C102.965 49.8444 103.103 49.1982 103.38 48.6514C103.66 48.1012 104.046 47.6813 104.537 47.3916C105.029 47.1019 105.585 46.957 106.207 46.957C106.826 46.957 107.381 47.1035 107.872 47.3965C108.367 47.6862 108.753 48.1045 109.029 48.6514C109.309 49.1982 109.449 49.8444 109.449 50.5898ZM104.244 50.5898C104.244 51.1172 104.326 51.568 104.488 51.9424C104.654 52.3167 104.885 52.5999 105.182 52.792C105.478 52.984 105.82 53.0801 106.207 53.0801C106.598 53.0801 106.939 52.984 107.232 52.792C107.529 52.5999 107.758 52.3167 107.921 51.9424C108.087 51.568 108.17 51.1172 108.17 50.5898C108.17 50.0625 108.087 49.6117 107.921 49.2373C107.758 48.863 107.529 48.5798 107.232 48.3877C106.939 48.1956 106.598 48.0996 106.207 48.0996C105.82 48.0996 105.478 48.1956 105.182 48.3877C104.885 48.5798 104.654 48.863 104.488 49.2373C104.326 49.6117 104.244 50.0625 104.244 50.5898ZM118.891 50.5898C118.891 51.3353 118.751 51.9814 118.471 52.5283C118.194 53.0752 117.808 53.4951 117.313 53.7881C116.822 54.0778 116.267 54.2227 115.648 54.2227C115.027 54.2227 114.47 54.0778 113.979 53.7881C113.487 53.4951 113.101 53.0752 112.821 52.5283C112.545 51.9782 112.406 51.332 112.406 50.5898C112.406 49.8444 112.545 49.1982 112.821 48.6514C113.101 48.1012 113.487 47.6813 113.979 47.3916C114.47 47.1019 115.027 46.957 115.648 46.957C116.267 46.957 116.822 47.1035 117.313 47.3965C117.808 47.6862 118.194 48.1045 118.471 48.6514C118.751 49.1982 118.891 49.8444 118.891 50.5898ZM113.686 50.5898C113.686 51.1172 113.767 51.568 113.93 51.9424C114.096 52.3167 114.327 52.5999 114.623 52.792C114.919 52.984 115.261 53.0801 115.648 53.0801C116.039 53.0801 116.381 52.984 116.674 52.792C116.97 52.5999 117.2 52.3167 117.362 51.9424C117.528 51.568 117.611 51.1172 117.611 50.5898C117.611 50.0625 117.528 49.6117 117.362 49.2373C117.2 48.863 116.97 48.5798 116.674 48.3877C116.381 48.1956 116.039 48.0996 115.648 48.0996C115.261 48.0996 114.919 48.1956 114.623 48.3877C114.327 48.5798 114.096 48.863 113.93 49.2373C113.767 49.6117 113.686 50.0625 113.686 50.5898ZM122.023 47.0547H123.293V50.3066H123.391L126.154 47.0547H127.707L124.973 50.2285L127.736 54.125H126.203L124.084 51.0879L123.293 52.0156V54.125H122.023V47.0547Z" fill="#ADB5BD"/>
<path d="M80.067 90.6238H77.0909V77.6807H74.2272V89.3323H71.3634V65.7202H74.2272V75.1819H77.0909V65.2429H80.067V90.6238ZM59.0099 68.2471H68.4996V70.7739H62.1544V82.0605C63.6237 82.0418 64.9527 81.9857 66.1412 81.8921C67.3298 81.7985 68.5371 81.6394 69.7631 81.4148L69.9877 83.9697C68.5745 84.2505 67.1847 84.4377 65.8184 84.5312C64.4613 84.6248 62.7627 84.681 60.7225 84.6997H59.0099V68.2471ZM106.15 78.5229H96.1547V80.376H103.314V86.3281H88.8829V88.0688H104.016V90.3992H85.8226V84.1943H100.254V82.6221H85.7946V80.376H93.0663V78.5229H83.1273V76.2207H106.15V78.5229ZM84.1381 73.0481C85.7758 72.9639 87.1984 72.772 88.4056 72.4725C89.6223 72.1637 90.5956 71.7706 91.3256 71.2933C92.0555 70.8067 92.5282 70.2592 92.7434 69.6509H85.3453V67.3206H93.0663V65.1868H96.1547V67.3206H103.932V69.6509H96.4775C96.6834 70.2592 97.1467 70.8067 97.8673 71.2933C98.5973 71.7706 99.5706 72.1637 100.787 72.4725C102.013 72.772 103.454 72.9639 105.111 73.0481L104.184 75.3784C101.892 75.238 99.9215 74.8637 98.2744 74.2554C96.6273 73.6471 95.406 72.8328 94.6105 71.8127C93.815 72.8328 92.5937 73.6471 90.9465 74.2554C89.2994 74.8637 87.32 75.238 85.0084 75.3784L84.1381 73.0481ZM111.653 73.6096H115.836V67.6294H118.672V74.6204H121.62V65.7202H124.596V89.4446H121.62V77.2034H118.672V84.4751H108.705V67.6294H111.653V73.6096ZM115.836 81.9202V76.1084H111.653V81.9202H115.836ZM126.814 65.2429H129.818V90.6238H126.814V65.2429ZM145.878 68.7244C145.878 70.0252 146.271 71.2933 147.057 72.5287C147.852 73.764 148.947 74.8309 150.342 75.7294C151.736 76.6184 153.299 77.2127 155.03 77.5122L153.627 80.1233C151.512 79.6834 149.626 78.8552 147.969 77.6385C146.313 76.4219 145.068 74.9573 144.235 73.2446C143.683 74.3677 142.939 75.3971 142.003 76.333C141.067 77.2595 139.991 78.0503 138.774 78.7054C137.558 79.3512 136.247 79.8238 134.844 80.1233L133.468 77.5122C135.171 77.2034 136.715 76.6044 138.1 75.7153C139.495 74.8169 140.585 73.75 141.371 72.5146C142.167 71.2793 142.565 70.0159 142.565 68.7244V66.8433H145.878V68.7244ZM132.766 84.812H155.957V87.395H132.766V84.812ZM178.249 81.0217H160.449V67.2363H178.025V69.7632H163.622V72.8235H177.435V75.2661H163.622V78.551H178.249V81.0217ZM157.613 84.9805H180.804V87.5354H157.613V84.9805Z" fill="white"/>
<g filter="url(#filter0_d_3024_13888)">
<rect width="675" height="100" transform="translate(0.75 1100.38)" fill="white"/>
<g clip-path="url(#clip1_3024_13888)">
<path d="M57 1147.62C58.375 1147.62 59.5 1146.5 59.5 1145.12H54.5C54.5 1146.5 55.625 1147.62 57 1147.62ZM64.5 1140.12V1133.88C64.5 1130.04 62.4625 1126.82 58.875 1125.97V1125.12C58.875 1124.09 58.0375 1123.25 57 1123.25C55.9625 1123.25 55.125 1124.09 55.125 1125.12V1125.97C51.55 1126.82 49.5 1130.03 49.5 1133.88V1140.12L47 1142.62V1143.88H67V1142.62L64.5 1140.12ZM62 1141.38H52V1133.88C52 1130.78 53.8875 1128.25 57 1128.25C60.1125 1128.25 62 1130.78 62 1133.88V1141.38Z" fill="#ADB5BD"/>
</g>
<path d="M39.1008 1163.52C39.9781 1163.52 40.739 1163.61 41.3835 1163.79C42.0326 1163.97 42.5316 1164.23 42.8807 1164.58C43.2343 1164.92 43.4111 1165.33 43.4111 1165.8C43.4111 1166.27 43.2343 1166.67 42.8807 1167C42.5316 1167.34 42.0326 1167.6 41.3835 1167.78C40.739 1167.96 39.9781 1168.06 39.1008 1168.06C38.2325 1168.06 37.4738 1167.96 36.8248 1167.78C36.1803 1167.6 35.6812 1167.34 35.3276 1167C34.9785 1166.67 34.804 1166.27 34.804 1165.8C34.804 1165.33 34.9785 1164.92 35.3276 1164.58C35.6812 1164.23 36.1803 1163.97 36.8248 1163.79C37.4738 1163.61 38.2325 1163.52 39.1008 1163.52ZM33.6626 1161.44H37.9326V1159.23H39.4097V1161.44H44.6733V1162.65H33.6626V1161.44ZM34.9248 1156.51H43.3306V1157.52V1157.87C43.3306 1158.4 43.3082 1158.88 43.2634 1159.33C43.2231 1159.78 43.1336 1160.25 42.9949 1160.74L41.5178 1160.6C41.6521 1160.08 41.7394 1159.59 41.7797 1159.16C41.8199 1158.73 41.8401 1158.24 41.8401 1157.69H34.9248V1156.51ZM36.3079 1165.8C36.3034 1166.15 36.5451 1166.43 37.033 1166.62C37.5253 1166.81 38.2146 1166.9 39.1008 1166.9C39.9871 1166.9 40.6786 1166.81 41.1754 1166.62C41.6767 1166.43 41.9296 1166.15 41.9341 1165.8C41.9296 1165.43 41.6767 1165.15 41.1754 1164.95C40.6786 1164.75 39.9871 1164.65 39.1008 1164.65C38.2191 1164.65 37.532 1164.75 37.0397 1164.95C36.5473 1165.15 36.3034 1165.43 36.3079 1165.8ZM50.0981 1159.38C50.0981 1160.05 50.2235 1160.71 50.4741 1161.36C50.7292 1162.01 51.0918 1162.6 51.5618 1163.12C52.0362 1163.63 52.5912 1164.02 53.2268 1164.28L52.4077 1165.47C51.705 1165.16 51.094 1164.71 50.5748 1164.12C50.0556 1163.52 49.6528 1162.82 49.3663 1162.03C49.0799 1162.88 48.6748 1163.63 48.1511 1164.28C47.6274 1164.94 47.0187 1165.43 46.325 1165.76L45.4656 1164.59C46.0877 1164.31 46.6338 1163.89 47.1038 1163.33C47.5737 1162.78 47.9363 1162.15 48.1914 1161.46C48.4465 1160.76 48.5763 1160.07 48.5808 1159.38V1158.36H45.9087V1157.13H52.7568V1158.36H50.0981V1159.38ZM54.113 1155.93H55.6169V1168.07H54.113V1155.93ZM61.74 1158.85C61.7355 1159.57 61.8497 1160.29 62.0824 1160.98C62.3196 1161.67 62.6598 1162.3 63.1029 1162.85C63.5505 1163.39 64.0809 1163.81 64.6941 1164.11L63.781 1165.3C63.1365 1164.98 62.577 1164.51 62.1025 1163.91C61.6326 1163.3 61.2655 1162.6 61.0015 1161.81C60.7284 1162.66 60.3435 1163.41 59.8467 1164.06C59.3543 1164.7 58.768 1165.19 58.0876 1165.53L57.1746 1164.34C57.8057 1164.04 58.3517 1163.6 58.8127 1163.03C59.2782 1162.45 59.6318 1161.8 59.8735 1161.07C60.1197 1160.34 60.245 1159.6 60.2495 1158.85V1156.91H61.74V1158.85ZM65.4192 1155.93H66.9097V1160.68H68.7761V1161.96H66.9097V1168.07H65.4192V1155.93ZM78.8604 1159.13H80.5522V1160.38H78.8604V1163.68H77.3699V1155.93H78.8604V1159.13ZM69.2998 1157.17H72.1599V1155.85H73.6504V1157.17H76.4971V1158.33H69.2998V1157.17ZM69.9175 1160.99C69.9175 1160.56 70.0428 1160.19 70.2935 1159.86C70.5441 1159.53 70.8932 1159.28 71.3408 1159.09C71.7929 1158.91 72.3121 1158.82 72.8984 1158.82C73.4758 1158.82 73.9883 1158.91 74.4359 1159.09C74.888 1159.28 75.2393 1159.53 75.49 1159.86C75.7406 1160.19 75.866 1160.56 75.866 1160.99C75.866 1161.42 75.7406 1161.8 75.49 1162.13C75.2393 1162.46 74.888 1162.71 74.4359 1162.89C73.9883 1163.07 73.4758 1163.16 72.8984 1163.16C72.3121 1163.16 71.7929 1163.07 71.3408 1162.89C70.8932 1162.71 70.5441 1162.46 70.2935 1162.13C70.0428 1161.8 69.9175 1161.42 69.9175 1160.99ZM70.8843 1165.92C70.8798 1165.47 71.0387 1165.09 71.361 1164.77C71.6877 1164.45 72.1554 1164.21 72.7642 1164.04C73.3774 1163.87 74.1025 1163.79 74.9395 1163.79C75.7675 1163.79 76.4859 1163.87 77.0946 1164.04C77.7033 1164.21 78.1711 1164.45 78.4978 1164.77C78.829 1165.1 78.9946 1165.48 78.9946 1165.92C78.9946 1166.36 78.829 1166.75 78.4978 1167.06C78.1711 1167.39 77.7033 1167.63 77.0946 1167.8C76.4859 1167.97 75.7675 1168.06 74.9395 1168.06C74.1025 1168.06 73.3774 1167.97 72.7642 1167.8C72.1554 1167.63 71.6877 1167.39 71.361 1167.06C71.0387 1166.75 70.8798 1166.36 70.8843 1165.92ZM71.3677 1160.99C71.3632 1161.32 71.4975 1161.57 71.7705 1161.75C72.0435 1161.94 72.4106 1162.03 72.8716 1162.03C73.3505 1162.03 73.731 1161.94 74.0129 1161.76C74.2994 1161.58 74.4426 1161.32 74.4426 1160.99C74.4426 1160.66 74.3016 1160.4 74.0197 1160.21C73.7377 1160.02 73.3639 1159.92 72.8984 1159.92C72.4329 1159.92 72.0592 1160.02 71.7772 1160.21C71.4997 1160.4 71.3632 1160.66 71.3677 1160.99ZM72.3613 1165.92C72.3569 1166.24 72.5784 1166.49 73.026 1166.67C73.4736 1166.84 74.1114 1166.93 74.9395 1166.93C75.7585 1166.93 76.3896 1166.84 76.8328 1166.67C77.2759 1166.49 77.4997 1166.24 77.5042 1165.92C77.4997 1165.59 77.2781 1165.35 76.8395 1165.18C76.4008 1165.01 75.7675 1164.93 74.9395 1164.93C74.1025 1164.93 73.4624 1165.01 73.0193 1165.18C72.5762 1165.35 72.3569 1165.59 72.3613 1165.92Z" fill="#ADB5BD"/>
<path d="M49.9626 1179.62H49.4377L47.0452 1176.18H47.0024V1179.62H46.4531V1175.21H46.9841L49.3767 1178.65H49.4194V1175.21H49.9626V1179.62ZM54.6746 1177.42C54.6746 1177.87 54.5911 1178.27 54.4243 1178.62C54.2575 1178.96 54.0256 1179.22 53.7285 1179.41C53.4335 1179.59 53.0978 1179.69 52.7214 1179.69C52.343 1179.69 52.0053 1179.59 51.7083 1179.41C51.4132 1179.22 51.1823 1178.96 51.0155 1178.62C50.8507 1178.27 50.7683 1177.87 50.7683 1177.42C50.7683 1176.96 50.8507 1176.56 51.0155 1176.22C51.1823 1175.87 51.4132 1175.61 51.7083 1175.42C52.0053 1175.24 52.343 1175.15 52.7214 1175.15C53.0978 1175.15 53.4335 1175.24 53.7285 1175.42C54.0256 1175.61 54.2575 1175.87 54.4243 1176.22C54.5911 1176.56 54.6746 1176.96 54.6746 1177.42ZM51.2993 1177.42C51.2993 1177.78 51.3614 1178.1 51.4855 1178.36C51.6096 1178.63 51.7784 1178.83 51.9921 1178.97C52.2077 1179.1 52.4508 1179.17 52.7214 1179.17C52.992 1179.17 53.2341 1179.1 53.4478 1178.97C53.6634 1178.83 53.8333 1178.63 53.9574 1178.36C54.0815 1178.1 54.1436 1177.78 54.1436 1177.42C54.1436 1177.05 54.0815 1176.73 53.9574 1176.46C53.8333 1176.2 53.6634 1176 53.4478 1175.86C53.2341 1175.73 52.992 1175.66 52.7214 1175.66C52.4508 1175.66 52.2077 1175.73 51.9921 1175.86C51.7784 1176 51.6096 1176.2 51.4855 1176.46C51.3614 1176.73 51.2993 1177.05 51.2993 1177.42ZM55.053 1175.21H58.3855V1175.69H57V1179.62H56.4446V1175.69H55.053V1175.21ZM59.6672 1179.62H59.1179V1175.21H59.6672V1179.62ZM63.6589 1176.6C63.6182 1176.4 63.5379 1176.23 63.4178 1176.09C63.2978 1175.95 63.1513 1175.84 62.9784 1175.77C62.8075 1175.69 62.6234 1175.66 62.426 1175.66C62.1554 1175.66 61.9123 1175.73 61.6967 1175.86C61.483 1176 61.3142 1176.2 61.1901 1176.46C61.066 1176.73 61.0039 1177.05 61.0039 1177.42C61.0039 1177.78 61.066 1178.1 61.1901 1178.36C61.3142 1178.63 61.483 1178.83 61.6967 1178.97C61.9123 1179.1 62.1554 1179.17 62.426 1179.17C62.6234 1179.17 62.8075 1179.13 62.9784 1179.06C63.1493 1178.99 63.2948 1178.88 63.4148 1178.74C63.5348 1178.6 63.6162 1178.43 63.6589 1178.24H64.2083C64.1554 1178.53 64.0455 1178.79 63.8787 1179.01C63.7118 1179.23 63.5023 1179.4 63.25 1179.51C62.9998 1179.63 62.7251 1179.69 62.426 1179.69C62.0476 1179.69 61.7099 1179.59 61.4128 1179.41C61.1178 1179.22 60.8869 1178.96 60.7201 1178.62C60.5553 1178.27 60.4729 1177.87 60.4729 1177.42C60.4729 1176.96 60.5553 1176.56 60.7201 1176.22C60.8869 1175.87 61.1178 1175.61 61.4128 1175.42C61.7099 1175.24 62.0476 1175.15 62.426 1175.15C62.7251 1175.15 62.9998 1175.2 63.25 1175.32C63.5002 1175.43 63.7088 1175.6 63.8756 1175.82C64.0445 1176.04 64.1554 1176.3 64.2083 1176.6H63.6589ZM64.9773 1175.21H67.6567V1175.69H65.5266V1177.17H67.5164V1177.65H65.5266V1179.14H67.6873V1179.62H64.9773V1175.21Z" fill="#ADB5BD"/>
<g clip-path="url(#clip2_3024_13888)">
<path d="M163.743 1134.02H161.441V1142.11H163.743V1134.02ZM170.651 1134.02H168.349V1142.11H170.651V1134.02ZM180.438 1144.42H158.562V1146.73H180.438V1144.42ZM177.559 1134.02H175.257V1142.11H177.559V1134.02ZM169.5 1126.22L175.498 1129.39H163.502L169.5 1126.22ZM169.5 1123.61L158.562 1129.39V1131.7H180.438V1129.39L169.5 1123.61Z" fill="#ADB5BD"/>
</g>
<path d="M156.139 1168.04H154.864V1155.99H156.139V1168.04ZM146.592 1161.1C146.592 1160.26 146.724 1159.52 146.988 1158.89C147.252 1158.25 147.62 1157.75 148.089 1157.41C148.564 1157.06 149.103 1156.88 149.708 1156.88C150.303 1156.88 150.835 1157.06 151.305 1157.41C151.775 1157.75 152.142 1158.25 152.406 1158.89C152.675 1159.52 152.809 1160.26 152.809 1161.1C152.809 1161.95 152.675 1162.7 152.406 1163.34C152.142 1163.98 151.775 1164.47 151.305 1164.81C150.835 1165.16 150.303 1165.33 149.708 1165.33C149.103 1165.33 148.564 1165.16 148.089 1164.81C147.62 1164.47 147.252 1163.98 146.988 1163.34C146.724 1162.7 146.592 1161.95 146.592 1161.1ZM147.828 1161.1C147.828 1161.73 147.906 1162.27 148.063 1162.74C148.219 1163.2 148.439 1163.56 148.721 1163.81C149.007 1164.06 149.336 1164.19 149.708 1164.19C150.075 1164.19 150.399 1164.06 150.681 1163.81C150.963 1163.56 151.182 1163.2 151.339 1162.74C151.496 1162.27 151.574 1161.73 151.574 1161.1C151.574 1160.48 151.496 1159.94 151.339 1159.48C151.182 1159.02 150.963 1158.66 150.681 1158.41C150.399 1158.15 150.075 1158.03 149.708 1158.03C149.336 1158.03 149.007 1158.15 148.721 1158.41C148.439 1158.66 148.219 1159.02 148.063 1159.48C147.906 1159.94 147.828 1160.48 147.828 1161.1ZM169.03 1162.89H158.06V1161.85H160.691V1160.23C160.217 1160.04 159.854 1159.8 159.604 1159.5C159.358 1159.2 159.237 1158.85 159.241 1158.46C159.241 1157.99 159.414 1157.58 159.758 1157.24C160.107 1156.9 160.604 1156.64 161.249 1156.47C161.898 1156.29 162.661 1156.2 163.538 1156.2C164.415 1156.2 165.176 1156.29 165.821 1156.47C166.465 1156.64 166.962 1156.9 167.311 1157.24C167.66 1157.58 167.835 1157.99 167.835 1158.46C167.83 1158.85 167.703 1159.2 167.452 1159.5C167.202 1159.8 166.841 1160.05 166.371 1160.24V1161.85H169.03V1162.89ZM159.362 1165.84C159.362 1165.38 159.528 1165 159.859 1164.68C160.19 1164.36 160.667 1164.12 161.289 1163.95C161.916 1163.79 162.665 1163.71 163.538 1163.71C164.397 1163.71 165.138 1163.79 165.76 1163.95C166.383 1164.12 166.859 1164.36 167.19 1164.69C167.522 1165 167.687 1165.39 167.687 1165.84C167.687 1166.3 167.522 1166.69 167.19 1167.01C166.859 1167.33 166.383 1167.58 165.76 1167.74C165.143 1167.91 164.402 1167.99 163.538 1167.99C162.665 1167.99 161.916 1167.91 161.289 1167.74C160.667 1167.58 160.19 1167.33 159.859 1167.01C159.528 1166.69 159.362 1166.3 159.362 1165.84ZM160.557 1158.46C160.553 1158.85 160.812 1159.16 161.336 1159.38C161.86 1159.6 162.594 1159.71 163.538 1159.72C164.478 1159.71 165.21 1159.6 165.734 1159.38C166.262 1159.16 166.524 1158.85 166.519 1158.46C166.519 1158.19 166.4 1157.96 166.163 1157.77C165.926 1157.58 165.584 1157.43 165.136 1157.33C164.688 1157.23 164.156 1157.18 163.538 1157.18C162.598 1157.18 161.864 1157.3 161.336 1157.52C160.812 1157.74 160.553 1158.05 160.557 1158.46ZM160.651 1165.84C160.647 1166.22 160.897 1166.51 161.403 1166.71C161.909 1166.92 162.621 1167.01 163.538 1167.01C164.447 1167.02 165.152 1166.92 165.653 1166.71C166.159 1166.51 166.412 1166.22 166.412 1165.84C166.412 1165.47 166.159 1165.19 165.653 1164.99C165.152 1164.79 164.447 1164.69 163.538 1164.69C162.616 1164.69 161.902 1164.79 161.396 1164.99C160.895 1165.19 160.647 1165.47 160.651 1165.84ZM165.109 1161.85V1160.57C164.626 1160.65 164.102 1160.68 163.538 1160.68C163.001 1160.68 162.482 1160.65 161.98 1160.58V1161.85H165.109ZM179.396 1159.57H181.142V1160.64H179.396V1164.82H178.121V1155.97H179.396V1159.57ZM170.131 1159.8C170.127 1159.23 170.263 1158.71 170.541 1158.26C170.823 1157.8 171.208 1157.45 171.695 1157.19C172.183 1156.93 172.727 1156.8 173.327 1156.8C173.927 1156.8 174.47 1156.93 174.958 1157.19C175.446 1157.45 175.829 1157.8 176.106 1158.26C176.388 1158.71 176.532 1159.23 176.536 1159.8C176.532 1160.37 176.388 1160.89 176.106 1161.34C175.829 1161.8 175.446 1162.16 174.958 1162.41C174.47 1162.67 173.927 1162.79 173.327 1162.79C172.727 1162.79 172.183 1162.67 171.695 1162.41C171.208 1162.16 170.823 1161.8 170.541 1161.34C170.263 1160.89 170.127 1160.37 170.131 1159.8ZM171.38 1159.8C171.375 1160.17 171.458 1160.49 171.628 1160.78C171.798 1161.06 172.031 1161.28 172.327 1161.44C172.626 1161.6 172.96 1161.68 173.327 1161.68C173.694 1161.68 174.025 1161.6 174.321 1161.44C174.62 1161.28 174.855 1161.06 175.026 1160.78C175.2 1160.49 175.287 1160.17 175.287 1159.8C175.287 1159.43 175.2 1159.11 175.026 1158.83C174.855 1158.54 174.62 1158.32 174.321 1158.16C174.025 1158 173.694 1157.92 173.327 1157.92C172.96 1157.92 172.626 1158 172.327 1158.16C172.031 1158.32 171.798 1158.54 171.628 1158.83C171.458 1159.11 171.375 1159.43 171.38 1159.8ZM171.769 1163.89H173.045V1166.73H179.906V1167.76H171.769V1163.89ZM192.126 1168.02H190.904V1161.85H189.36V1167.4H188.165V1156.23H189.36V1160.81H190.904V1155.99H192.126V1168.02ZM182.391 1157.41H183.666V1163.83C184.951 1163.82 186.182 1163.7 187.359 1163.46L187.493 1164.58C186.71 1164.72 185.967 1164.82 185.264 1164.87C184.561 1164.93 183.863 1164.96 183.169 1164.95H182.391V1157.41Z" fill="#ADB5BD"/>
<path d="M150.011 1179.62H149.462V1175.21H150.011V1179.62ZM154.498 1179.62H153.973L151.58 1176.18H151.537V1179.62H150.988V1175.21H151.519L153.912 1178.65H153.954V1175.21H154.498V1179.62ZM155.474 1175.21H158.135V1175.69H156.023V1177.17H157.934V1177.65H156.023V1179.62H155.474V1175.21ZM162.688 1177.42C162.688 1177.87 162.605 1178.27 162.438 1178.62C162.271 1178.96 162.039 1179.22 161.742 1179.41C161.447 1179.59 161.112 1179.69 160.735 1179.69C160.357 1179.69 160.019 1179.59 159.722 1179.41C159.427 1179.22 159.196 1178.96 159.029 1178.62C158.865 1178.27 158.782 1177.87 158.782 1177.42C158.782 1176.96 158.865 1176.56 159.029 1176.22C159.196 1175.87 159.427 1175.61 159.722 1175.42C160.019 1175.24 160.357 1175.15 160.735 1175.15C161.112 1175.15 161.447 1175.24 161.742 1175.42C162.039 1175.61 162.271 1175.87 162.438 1176.22C162.605 1176.56 162.688 1176.96 162.688 1177.42ZM159.313 1177.42C159.313 1177.78 159.375 1178.1 159.499 1178.36C159.623 1178.63 159.792 1178.83 160.006 1178.97C160.222 1179.1 160.465 1179.17 160.735 1179.17C161.006 1179.17 161.248 1179.1 161.462 1178.97C161.677 1178.83 161.847 1178.63 161.971 1178.36C162.095 1178.1 162.157 1177.78 162.157 1177.42C162.157 1177.05 162.095 1176.73 161.971 1176.46C161.847 1176.2 161.677 1176 161.462 1175.86C161.248 1175.73 161.006 1175.66 160.735 1175.66C160.465 1175.66 160.222 1175.73 160.006 1175.86C159.792 1176 159.623 1176.2 159.499 1176.46C159.375 1176.73 159.313 1177.05 159.313 1177.42ZM163.494 1175.21H164.996C165.331 1175.21 165.611 1175.26 165.835 1175.38C166.061 1175.49 166.229 1175.65 166.338 1175.86C166.448 1176.06 166.503 1176.3 166.503 1176.57C166.503 1176.87 166.434 1177.13 166.296 1177.34C166.159 1177.56 165.954 1177.71 165.679 1177.81L166.674 1179.62H166.033L165.109 1177.91C165.086 1177.91 165.051 1177.91 165.002 1177.91H164.043V1179.62H163.494V1175.21ZM164.977 1177.41C165.319 1177.41 165.567 1177.34 165.722 1177.19C165.879 1177.05 165.958 1176.84 165.96 1176.57C165.956 1175.99 165.626 1175.69 164.971 1175.69H164.043V1177.41H164.977ZM167.956 1175.21L169.445 1178.84H169.5L170.989 1175.21H171.648V1179.62H171.13V1176.29H171.087L169.714 1179.62H169.225L167.852 1176.29H167.815V1179.62H167.297V1175.21H167.956ZM172.247 1179.62L173.864 1175.21H174.444L176.061 1179.62H175.481L175.039 1178.38H173.263L172.82 1179.62H172.247ZM174.871 1177.9L174.169 1175.92H174.133L173.431 1177.9H174.871ZM175.896 1175.21H179.229V1175.69H177.844V1179.62H177.288V1175.69H175.896V1175.21ZM180.511 1179.62H179.961V1175.21H180.511V1179.62ZM185.223 1177.42C185.223 1177.87 185.139 1178.27 184.972 1178.62C184.806 1178.96 184.574 1179.22 184.277 1179.41C183.982 1179.59 183.646 1179.69 183.27 1179.69C182.891 1179.69 182.553 1179.59 182.256 1179.41C181.961 1179.22 181.73 1178.96 181.564 1178.62C181.399 1178.27 181.316 1177.87 181.316 1177.42C181.316 1176.96 181.399 1176.56 181.564 1176.22C181.73 1175.87 181.961 1175.61 182.256 1175.42C182.553 1175.24 182.891 1175.15 183.27 1175.15C183.646 1175.15 183.982 1175.24 184.277 1175.42C184.574 1175.61 184.806 1175.87 184.972 1176.22C185.139 1176.56 185.223 1176.96 185.223 1177.42ZM181.847 1177.42C181.847 1177.78 181.909 1178.1 182.034 1178.36C182.158 1178.63 182.327 1178.83 182.54 1178.97C182.756 1179.1 182.999 1179.17 183.27 1179.17C183.54 1179.17 183.782 1179.1 183.996 1178.97C184.212 1178.83 184.381 1178.63 184.505 1178.36C184.63 1178.1 184.692 1177.78 184.692 1177.42C184.692 1177.05 184.63 1176.73 184.505 1176.46C184.381 1176.2 184.212 1176 183.996 1175.86C183.782 1175.73 183.54 1175.66 183.27 1175.66C182.999 1175.66 182.756 1175.73 182.54 1175.86C182.327 1176 182.158 1176.2 182.034 1176.46C181.909 1176.73 181.847 1177.05 181.847 1177.42ZM189.538 1179.62H189.013L186.62 1176.18H186.578V1179.62H186.028V1175.21H186.559L188.952 1178.65H188.995V1175.21H189.538V1179.62Z" fill="#ADB5BD"/>
<g clip-path="url(#clip3_3024_13888)">
<path d="M282 1122.62C277.163 1122.62 273.25 1126.54 273.25 1131.38C273.25 1137.94 282 1147.62 282 1147.62C282 1147.62 290.75 1137.94 290.75 1131.38C290.75 1126.54 286.837 1122.62 282 1122.62ZM275.75 1131.38C275.75 1127.93 278.55 1125.12 282 1125.12C285.45 1125.12 288.25 1127.93 288.25 1131.38C288.25 1134.98 284.65 1140.36 282 1143.72C279.4 1140.39 275.75 1134.94 275.75 1131.38Z" fill="#ADB5BD"/>
<path d="M282 1134.5C283.726 1134.5 285.125 1133.1 285.125 1131.38C285.125 1129.65 283.726 1128.25 282 1128.25C280.274 1128.25 278.875 1129.65 278.875 1131.38C278.875 1133.1 280.274 1134.5 282 1134.5Z" fill="#ADB5BD"/>
</g>
<path d="M263.094 1159.05C263.089 1159.77 263.221 1160.49 263.49 1161.19C263.763 1161.89 264.141 1162.52 264.625 1163.06C265.112 1163.6 265.663 1164.01 266.276 1164.28L265.511 1165.29C264.826 1164.96 264.219 1164.48 263.691 1163.84C263.163 1163.2 262.756 1162.47 262.469 1161.64C262.187 1162.53 261.776 1163.32 261.234 1164.01C260.697 1164.69 260.073 1165.21 259.361 1165.56L258.582 1164.48C259.204 1164.21 259.759 1163.79 260.247 1163.23C260.735 1162.66 261.115 1162.01 261.388 1161.28C261.666 1160.55 261.805 1159.8 261.805 1159.05V1156.99H263.094V1159.05ZM267.364 1155.99H268.639V1168.04H267.364V1155.99ZM280.59 1162.18H279.314V1159.09H276.777V1158.05H279.314V1155.99H280.59V1162.18ZM270.519 1161.21C271.137 1161.01 271.672 1160.73 272.124 1160.35C272.576 1159.97 272.923 1159.53 273.165 1159.03C273.406 1158.52 273.527 1157.99 273.527 1157.42V1156.37H274.789V1157.42C274.789 1157.93 274.906 1158.42 275.138 1158.89C275.376 1159.36 275.714 1159.77 276.152 1160.13C276.591 1160.49 277.108 1160.77 277.703 1160.95L277.032 1161.95C276.378 1161.72 275.805 1161.39 275.313 1160.95C274.825 1160.52 274.447 1160.01 274.178 1159.44C273.914 1160.09 273.527 1160.66 273.017 1161.15C272.511 1161.63 271.907 1161.99 271.204 1162.23L270.519 1161.21ZM272.721 1162.74H280.59V1165.73H273.997V1166.85H281.006V1167.87H272.748V1164.77H279.328V1163.75H272.721V1162.74ZM291.896 1159.57H293.642V1160.64H291.896V1164.82H290.621V1155.97H291.896V1159.57ZM282.631 1159.8C282.627 1159.23 282.763 1158.71 283.041 1158.26C283.323 1157.8 283.708 1157.45 284.195 1157.19C284.683 1156.93 285.227 1156.8 285.827 1156.8C286.427 1156.8 286.97 1156.93 287.458 1157.19C287.946 1157.45 288.329 1157.8 288.606 1158.26C288.888 1158.71 289.032 1159.23 289.036 1159.8C289.032 1160.37 288.888 1160.89 288.606 1161.34C288.329 1161.8 287.946 1162.16 287.458 1162.41C286.97 1162.67 286.427 1162.79 285.827 1162.79C285.227 1162.79 284.683 1162.67 284.195 1162.41C283.708 1162.16 283.323 1161.8 283.041 1161.34C282.763 1160.89 282.627 1160.37 282.631 1159.8ZM283.88 1159.8C283.875 1160.17 283.958 1160.49 284.128 1160.78C284.298 1161.06 284.531 1161.28 284.827 1161.44C285.126 1161.6 285.46 1161.68 285.827 1161.68C286.194 1161.68 286.525 1161.6 286.821 1161.44C287.12 1161.28 287.355 1161.06 287.526 1160.78C287.7 1160.49 287.787 1160.17 287.787 1159.8C287.787 1159.43 287.7 1159.11 287.526 1158.83C287.355 1158.54 287.12 1158.32 286.821 1158.16C286.525 1158 286.194 1157.92 285.827 1157.92C285.46 1157.92 285.126 1158 284.827 1158.16C284.531 1158.32 284.298 1158.54 284.128 1158.83C283.958 1159.11 283.875 1159.43 283.88 1159.8ZM284.269 1163.89H285.545V1166.73H292.406V1167.76H284.269V1163.89ZM304.626 1168.02H303.404V1161.85H301.86V1167.4H300.665V1156.23H301.86V1160.81H303.404V1155.99H304.626V1168.02ZM294.891 1157.41H296.166V1163.83C297.451 1163.82 298.682 1163.7 299.859 1163.46L299.993 1164.58C299.21 1164.72 298.467 1164.82 297.764 1164.87C297.061 1164.93 296.363 1164.96 295.669 1164.95H294.891V1157.41Z" fill="#ADB5BD"/>
<path d="M269.863 1175.21H272.524V1175.69H270.412V1177.17H272.323V1177.65H270.412V1179.62H269.863V1175.21ZM272.408 1179.62L274.026 1175.21H274.606L276.223 1179.62H275.643L275.201 1178.38H273.425L272.982 1179.62H272.408ZM275.033 1177.9L274.331 1175.92H274.294L273.592 1177.9H275.033ZM279.629 1176.6C279.588 1176.4 279.508 1176.23 279.388 1176.09C279.268 1175.95 279.121 1175.84 278.948 1175.77C278.777 1175.69 278.593 1175.66 278.396 1175.66C278.125 1175.66 277.882 1175.73 277.667 1175.86C277.453 1176 277.284 1176.2 277.16 1176.46C277.036 1176.73 276.974 1177.05 276.974 1177.42C276.974 1177.78 277.036 1178.1 277.16 1178.36C277.284 1178.63 277.453 1178.83 277.667 1178.97C277.882 1179.1 278.125 1179.17 278.396 1179.17C278.593 1179.17 278.777 1179.13 278.948 1179.06C279.119 1178.99 279.265 1178.88 279.385 1178.74C279.505 1178.6 279.586 1178.43 279.629 1178.24H280.178C280.125 1178.53 280.015 1178.79 279.849 1179.01C279.682 1179.23 279.472 1179.4 279.22 1179.51C278.97 1179.63 278.695 1179.69 278.396 1179.69C278.017 1179.69 277.68 1179.59 277.383 1179.41C277.088 1179.22 276.857 1178.96 276.69 1178.62C276.525 1178.27 276.443 1177.87 276.443 1177.42C276.443 1176.96 276.525 1176.56 276.69 1176.22C276.857 1175.87 277.088 1175.61 277.383 1175.42C277.68 1175.24 278.017 1175.15 278.396 1175.15C278.695 1175.15 278.97 1175.2 279.22 1175.32C279.47 1175.43 279.679 1175.6 279.845 1175.82C280.014 1176.04 280.125 1176.3 280.178 1176.6H279.629ZM281.496 1179.62H280.947V1175.21H281.496V1179.62ZM282.473 1175.21H283.022V1179.14H285.073V1179.62H282.473V1175.21ZM286.355 1179.62H285.806V1175.21H286.355V1179.62ZM287.087 1175.21H290.42V1175.69H289.034V1179.62H288.479V1175.69H287.087V1175.21ZM291.402 1175.21L292.617 1177.26H292.672L293.887 1175.21H294.521L292.922 1177.81V1179.62H292.367V1177.81L290.774 1175.21H291.402Z" fill="#ADB5BD"/>
<path d="M405.963 1122.7C405.067 1122.55 404.16 1122.47 403.251 1122.46C400.149 1122.46 397.112 1123.35 394.501 1125.03C391.884 1123.37 388.847 1122.51 385.751 1122.53C384.842 1122.53 383.934 1122.61 383.038 1122.76C382.745 1122.82 382.479 1122.97 382.289 1123.2C382.099 1123.43 381.997 1123.72 382.001 1124.01V1139.01C381.998 1139.2 382.036 1139.38 382.112 1139.55C382.187 1139.72 382.299 1139.86 382.439 1139.98C382.578 1140.1 382.743 1140.19 382.92 1140.24C383.097 1140.29 383.282 1140.3 383.463 1140.26C385.255 1139.95 387.09 1140.01 388.861 1140.42C390.632 1140.83 392.303 1141.59 393.776 1142.65L393.926 1142.74H394.063C394.202 1142.8 394.351 1142.83 394.501 1142.83C394.651 1142.83 394.8 1142.8 394.938 1142.74H395.076L395.226 1142.65C396.688 1141.56 398.355 1140.78 400.126 1140.34C401.898 1139.91 403.738 1139.84 405.538 1140.13C405.719 1140.16 405.905 1140.15 406.082 1140.1C406.259 1140.05 406.424 1139.97 406.563 1139.85C406.703 1139.73 406.814 1139.58 406.89 1139.41C406.966 1139.24 407.004 1139.06 407.001 1138.88V1123.88C406.988 1123.59 406.878 1123.32 406.689 1123.11C406.501 1122.89 406.244 1122.75 405.963 1122.7ZM393.251 1139.31C390.938 1138.1 388.364 1137.46 385.751 1137.46C385.338 1137.46 384.926 1137.46 384.501 1137.46V1124.96C384.917 1124.94 385.335 1124.94 385.751 1124.96C388.418 1124.96 391.026 1125.74 393.251 1127.21V1139.31ZM404.501 1137.51C404.076 1137.51 403.663 1137.51 403.251 1137.51C400.638 1137.51 398.064 1138.15 395.751 1139.36V1127.21C397.976 1125.74 400.584 1124.96 403.251 1124.96C403.667 1124.94 404.085 1124.94 404.501 1124.96V1137.51ZM405.963 1142.7C405.067 1142.55 404.16 1142.47 403.251 1142.46C400.149 1142.46 397.112 1143.35 394.501 1145.03C391.89 1143.35 388.853 1142.46 385.751 1142.46C384.842 1142.47 383.934 1142.55 383.038 1142.7C382.876 1142.73 382.72 1142.79 382.579 1142.87C382.439 1142.96 382.317 1143.07 382.221 1143.21C382.124 1143.34 382.055 1143.49 382.018 1143.65C381.98 1143.81 381.974 1143.98 382.001 1144.14C382.064 1144.46 382.254 1144.75 382.528 1144.94C382.802 1145.12 383.139 1145.19 383.463 1145.13C385.255 1144.82 387.09 1144.87 388.861 1145.28C390.632 1145.69 392.303 1146.45 393.776 1147.51C393.988 1147.67 394.241 1147.75 394.501 1147.75C394.761 1147.75 395.014 1147.67 395.226 1147.51C396.699 1146.45 398.37 1145.69 400.141 1145.28C401.912 1144.87 403.747 1144.82 405.538 1145.13C405.863 1145.19 406.2 1145.12 406.474 1144.94C406.748 1144.75 406.937 1144.46 407.001 1144.14C407.028 1143.98 407.022 1143.81 406.984 1143.65C406.947 1143.49 406.878 1143.34 406.781 1143.21C406.685 1143.07 406.563 1142.96 406.423 1142.87C406.282 1142.79 406.126 1142.73 405.963 1142.7Z" fill="#ADB5BD"/>
<path d="M381.247 1164.81H379.743V1155.94H381.247V1164.81ZM371.149 1161.95C371.785 1161.72 372.326 1161.4 372.774 1160.97C373.222 1160.54 373.557 1160.06 373.781 1159.51C374.009 1158.96 374.121 1158.39 374.117 1157.8V1156.62H375.661V1157.8C375.656 1158.37 375.764 1158.92 375.983 1159.44C376.207 1159.96 376.538 1160.42 376.977 1160.82C377.415 1161.22 377.948 1161.52 378.575 1161.73L377.809 1162.91C377.129 1162.68 376.543 1162.33 376.05 1161.87C375.558 1161.4 375.175 1160.85 374.902 1160.22C374.629 1160.9 374.24 1161.49 373.734 1161.99C373.228 1162.5 372.626 1162.87 371.928 1163.13L371.149 1161.95ZM373.217 1163.96H374.721V1166.62H381.583V1167.83H373.217V1163.96ZM387.383 1158.56C387.379 1159.02 387.486 1159.45 387.706 1159.87C387.929 1160.29 388.258 1160.67 388.693 1161C389.131 1161.33 389.662 1161.58 390.284 1161.75L389.585 1162.94C388.905 1162.74 388.317 1162.45 387.82 1162.05C387.323 1161.65 386.933 1161.18 386.651 1160.64C386.378 1161.23 385.991 1161.75 385.49 1162.18C384.989 1162.61 384.389 1162.93 383.691 1163.14L382.966 1161.97C383.588 1161.79 384.118 1161.53 384.557 1161.18C384.995 1160.83 385.327 1160.43 385.55 1159.98C385.779 1159.53 385.893 1159.06 385.893 1158.56V1158.47H383.355V1157.29H385.893V1155.89H387.397V1157.29H389.921V1158.47H387.383V1158.56ZM384.51 1163.91H392.593V1168.08H391.103V1165.1H384.51V1163.91ZM391.103 1155.93H392.593V1159.01H394.285V1160.27H392.593V1163.36H391.103V1155.93ZM404.759 1162.63H401.16V1165.41H405.994V1166.63H394.903V1165.41H399.683V1162.63H396.246V1156.83H404.665V1158.03H397.736V1161.45H404.759V1162.63ZM411.271 1158.85C411.267 1159.61 411.383 1160.34 411.62 1161.05C411.858 1161.75 412.202 1162.38 412.654 1162.93C413.111 1163.48 413.652 1163.89 414.279 1164.16L413.379 1165.36C412.708 1165.03 412.131 1164.56 411.647 1163.95C411.164 1163.33 410.79 1162.62 410.526 1161.81C410.253 1162.67 409.868 1163.43 409.371 1164.09C408.874 1164.74 408.286 1165.24 407.605 1165.59L406.666 1164.38C407.306 1164.08 407.858 1163.64 408.324 1163.06C408.789 1162.48 409.143 1161.83 409.385 1161.09C409.626 1160.36 409.749 1159.61 409.754 1158.85V1156.91H411.271V1158.85ZM412.936 1159.85H415.488V1155.93H416.965V1168.08H415.488V1161.06H412.936V1159.85Z" fill="#ADB5BD"/>
<path d="M365.755 1179.62H365.231L362.838 1176.18H362.795V1179.62H362.246V1175.21H362.777L365.17 1178.65H365.212V1175.21H365.755V1179.62ZM366.732 1175.21H369.411V1175.69H367.281V1177.17H369.271V1177.65H367.281V1179.14H369.442V1179.62H366.732V1175.21ZM369.888 1175.21H370.443L371.365 1178.78H371.407L372.341 1175.21H372.958L373.898 1178.78H373.934L374.856 1175.21H375.411L374.203 1179.62H373.635L372.671 1176.13H372.634L371.664 1179.62H371.096L369.888 1175.21ZM377.187 1179.62L378.805 1175.21H379.385L381.002 1179.62H380.422L379.98 1178.38H378.204L377.761 1179.62H377.187ZM379.812 1177.9L379.11 1175.92H379.073L378.371 1177.9H379.812ZM381.6 1175.21H383.102C383.437 1175.21 383.717 1175.26 383.941 1175.38C384.167 1175.49 384.335 1175.65 384.444 1175.86C384.554 1176.06 384.609 1176.3 384.609 1176.57C384.609 1176.87 384.54 1177.13 384.402 1177.34C384.265 1177.56 384.06 1177.71 383.785 1177.81L384.78 1179.62H384.139L383.215 1177.91C383.192 1177.91 383.157 1177.91 383.108 1177.91H382.15V1179.62H381.6V1175.21ZM383.083 1177.41C383.425 1177.41 383.673 1177.34 383.828 1177.19C383.985 1177.05 384.064 1176.84 384.066 1176.57C384.062 1175.99 383.732 1175.69 383.077 1175.69H382.15V1177.41H383.083ZM385.403 1175.21H386.904C387.24 1175.21 387.52 1175.26 387.743 1175.38C387.969 1175.49 388.137 1175.65 388.247 1175.86C388.357 1176.06 388.412 1176.3 388.412 1176.57C388.412 1176.87 388.343 1177.13 388.204 1177.34C388.068 1177.56 387.862 1177.71 387.588 1177.81L388.583 1179.62H387.942L387.017 1177.91C386.995 1177.91 386.959 1177.91 386.91 1177.91H385.952V1179.62H385.403V1175.21ZM386.886 1177.41C387.228 1177.41 387.476 1177.34 387.63 1177.19C387.787 1177.05 387.866 1176.84 387.869 1176.57C387.864 1175.99 387.535 1175.69 386.88 1175.69H385.952V1177.41H386.886ZM389.755 1179.62H389.205V1175.21H389.755V1179.62ZM392.233 1178.91H392.281L393.588 1175.21H394.167L392.55 1179.62H391.97L390.353 1175.21H390.932L392.233 1178.91ZM393.996 1179.62L395.614 1175.21H396.194L397.811 1179.62H397.231L396.789 1178.38H395.013L394.57 1179.62H393.996ZM396.621 1177.9L395.919 1175.92H395.882L395.181 1177.9H396.621ZM398.409 1175.21H398.959V1179.14H401.009V1179.62H398.409V1175.21ZM404.153 1176.32C404.138 1176.17 404.088 1176.05 404 1175.95C403.913 1175.85 403.798 1175.77 403.655 1175.72C403.513 1175.66 403.353 1175.63 403.176 1175.63C402.985 1175.63 402.816 1175.66 402.67 1175.73C402.523 1175.79 402.409 1175.87 402.328 1175.98C402.246 1176.09 402.206 1176.22 402.206 1176.36C402.208 1176.57 402.292 1176.72 402.459 1176.83C402.626 1176.94 402.826 1177.02 403.06 1177.08L403.5 1177.2C403.841 1177.29 404.135 1177.42 404.382 1177.6C404.628 1177.79 404.751 1178.06 404.751 1178.42C404.751 1178.66 404.688 1178.88 404.562 1179.08C404.436 1179.27 404.251 1179.42 404.009 1179.54C403.767 1179.65 403.479 1179.7 403.146 1179.7C402.832 1179.7 402.559 1179.65 402.325 1179.55C402.093 1179.45 401.911 1179.3 401.778 1179.12C401.646 1178.94 401.571 1178.72 401.553 1178.48H402.114C402.128 1178.64 402.183 1178.77 402.279 1178.88C402.375 1178.99 402.498 1179.07 402.648 1179.13C402.801 1179.18 402.967 1179.21 403.146 1179.2C403.349 1179.2 403.531 1179.17 403.692 1179.11C403.855 1179.04 403.982 1178.95 404.073 1178.83C404.167 1178.71 404.214 1178.57 404.214 1178.41C404.214 1178.27 404.175 1178.16 404.098 1178.07C404.023 1177.98 403.923 1177.9 403.799 1177.85C403.675 1177.79 403.522 1177.73 403.341 1177.68L402.798 1177.54C402.436 1177.43 402.157 1177.29 401.962 1177.1C401.768 1176.91 401.673 1176.67 401.675 1176.38C401.675 1176.14 401.741 1175.92 401.873 1175.74C402.005 1175.55 402.187 1175.4 402.419 1175.3C402.651 1175.2 402.91 1175.15 403.194 1175.15C403.475 1175.15 403.727 1175.2 403.951 1175.3C404.177 1175.4 404.355 1175.54 404.485 1175.72C404.616 1175.9 404.684 1176.1 404.69 1176.32H404.153ZM407.107 1175.21H408.657C408.956 1175.21 409.207 1175.26 409.411 1175.36C409.616 1175.46 409.769 1175.6 409.869 1175.78C409.97 1175.96 410.02 1176.16 410.018 1176.38C410.02 1176.64 409.955 1176.85 409.823 1176.99C409.691 1177.14 409.516 1177.24 409.298 1177.31V1177.35C409.442 1177.36 409.583 1177.41 409.719 1177.49C409.857 1177.58 409.971 1177.71 410.061 1177.88C410.15 1178.04 410.195 1178.23 410.195 1178.45C410.193 1178.68 410.139 1178.88 410.033 1179.06C409.93 1179.24 409.767 1179.37 409.545 1179.48C409.325 1179.58 409.048 1179.62 408.712 1179.62H407.107V1175.21ZM408.706 1179.14C409.033 1179.14 409.276 1179.07 409.432 1178.95C409.589 1178.82 409.666 1178.65 409.664 1178.45C409.666 1178.3 409.629 1178.16 409.551 1178.03C409.474 1177.91 409.364 1177.81 409.222 1177.73C409.081 1177.65 408.92 1177.62 408.736 1177.62H407.656V1179.14H408.706ZM408.639 1177.14C408.797 1177.14 408.942 1177.11 409.072 1177.05C409.202 1176.99 409.305 1176.9 409.38 1176.78C409.456 1176.67 409.493 1176.53 409.493 1176.38C409.493 1176.25 409.463 1176.13 409.402 1176.03C409.341 1175.93 409.247 1175.84 409.121 1175.79C408.997 1175.72 408.842 1175.69 408.657 1175.69H407.656V1177.14H408.639ZM414.712 1177.42C414.712 1177.87 414.628 1178.27 414.462 1178.62C414.295 1178.96 414.063 1179.22 413.766 1179.41C413.471 1179.59 413.135 1179.69 412.759 1179.69C412.38 1179.69 412.043 1179.59 411.745 1179.41C411.45 1179.22 411.22 1178.96 411.053 1178.62C410.888 1178.27 410.806 1177.87 410.806 1177.42C410.806 1176.96 410.888 1176.56 411.053 1176.22C411.22 1175.87 411.45 1175.61 411.745 1175.42C412.043 1175.24 412.38 1175.15 412.759 1175.15C413.135 1175.15 413.471 1175.24 413.766 1175.42C414.063 1175.61 414.295 1175.87 414.462 1176.22C414.628 1176.56 414.712 1176.96 414.712 1177.42ZM411.337 1177.42C411.337 1177.78 411.399 1178.1 411.523 1178.36C411.647 1178.63 411.816 1178.83 412.029 1178.97C412.245 1179.1 412.488 1179.17 412.759 1179.17C413.029 1179.17 413.271 1179.1 413.485 1178.97C413.701 1178.83 413.871 1178.63 413.995 1178.36C414.119 1178.1 414.181 1177.78 414.181 1177.42C414.181 1177.05 414.119 1176.73 413.995 1176.46C413.871 1176.2 413.701 1176 413.485 1175.86C413.271 1175.73 413.029 1175.66 412.759 1175.66C412.488 1175.66 412.245 1175.73 412.029 1175.86C411.816 1176 411.647 1176.2 411.523 1176.46C411.399 1176.73 411.337 1177.05 411.337 1177.42ZM419.253 1177.42C419.253 1177.87 419.169 1178.27 419.003 1178.62C418.836 1178.96 418.604 1179.22 418.307 1179.41C418.012 1179.59 417.676 1179.69 417.3 1179.69C416.921 1179.69 416.584 1179.59 416.286 1179.41C415.991 1179.22 415.761 1178.96 415.594 1178.62C415.429 1178.27 415.347 1177.87 415.347 1177.42C415.347 1176.96 415.429 1176.56 415.594 1176.22C415.761 1175.87 415.991 1175.61 416.286 1175.42C416.584 1175.24 416.921 1175.15 417.3 1175.15C417.676 1175.15 418.012 1175.24 418.307 1175.42C418.604 1175.61 418.836 1175.87 419.003 1176.22C419.169 1176.56 419.253 1176.96 419.253 1177.42ZM415.878 1177.42C415.878 1177.78 415.94 1178.1 416.064 1178.36C416.188 1178.63 416.357 1178.83 416.57 1178.97C416.786 1179.1 417.029 1179.17 417.3 1179.17C417.57 1179.17 417.812 1179.1 418.026 1178.97C418.242 1178.83 418.412 1178.63 418.536 1178.36C418.66 1178.1 418.722 1177.78 418.722 1177.42C418.722 1177.05 418.66 1176.73 418.536 1176.46C418.412 1176.2 418.242 1176 418.026 1175.86C417.812 1175.73 417.57 1175.66 417.3 1175.66C417.029 1175.66 416.786 1175.73 416.57 1175.86C416.357 1176 416.188 1176.2 416.064 1176.46C415.94 1176.73 415.878 1177.05 415.878 1177.42ZM420.058 1175.21H420.608V1177.39H420.663L422.628 1175.21H423.348L421.499 1177.2L423.348 1179.62H422.677L421.157 1177.58L420.608 1178.2V1179.62H420.058V1175.21ZM426.345 1176.32C426.331 1176.17 426.28 1176.05 426.193 1175.95C426.105 1175.85 425.99 1175.77 425.848 1175.72C425.705 1175.66 425.546 1175.63 425.369 1175.63C425.177 1175.63 425.008 1175.66 424.862 1175.73C424.715 1175.79 424.602 1175.87 424.52 1175.98C424.439 1176.09 424.398 1176.22 424.398 1176.36C424.4 1176.57 424.485 1176.72 424.651 1176.83C424.818 1176.94 425.019 1177.02 425.253 1177.08L425.692 1177.2C426.034 1177.29 426.328 1177.42 426.574 1177.6C426.82 1177.79 426.943 1178.06 426.943 1178.42C426.943 1178.66 426.88 1178.88 426.754 1179.08C426.628 1179.27 426.444 1179.42 426.202 1179.54C425.96 1179.65 425.672 1179.7 425.338 1179.7C425.025 1179.7 424.751 1179.65 424.517 1179.55C424.285 1179.45 424.103 1179.3 423.971 1179.12C423.839 1178.94 423.763 1178.72 423.745 1178.48H424.307C424.321 1178.64 424.376 1178.77 424.471 1178.88C424.567 1178.99 424.69 1179.07 424.841 1179.13C424.993 1179.18 425.159 1179.21 425.338 1179.2C425.541 1179.2 425.724 1179.17 425.884 1179.11C426.047 1179.04 426.174 1178.95 426.266 1178.83C426.359 1178.71 426.406 1178.57 426.406 1178.41C426.406 1178.27 426.367 1178.16 426.29 1178.07C426.215 1177.98 426.115 1177.9 425.991 1177.85C425.867 1177.79 425.714 1177.73 425.533 1177.68L424.99 1177.54C424.628 1177.43 424.349 1177.29 424.154 1177.1C423.961 1176.91 423.865 1176.67 423.867 1176.38C423.867 1176.14 423.933 1175.92 424.065 1175.74C424.198 1175.55 424.38 1175.4 424.612 1175.3C424.844 1175.2 425.102 1175.15 425.387 1175.15C425.668 1175.15 425.92 1175.2 426.144 1175.3C426.37 1175.4 426.548 1175.54 426.678 1175.72C426.808 1175.9 426.876 1176.1 426.882 1176.32H426.345Z" fill="#ADB5BD"/>
<path d="M518.25 1120.75H514.5V1119.5C514.5 1119.17 514.368 1118.85 514.134 1118.62C513.899 1118.38 513.582 1118.25 513.25 1118.25H500.75C500.418 1118.25 500.101 1118.38 499.866 1118.62C499.632 1118.85 499.5 1119.17 499.5 1119.5V1120.75H495.75C495.418 1120.75 495.101 1120.88 494.866 1121.12C494.632 1121.35 494.5 1121.67 494.5 1122V1125.75C494.5 1127.08 495.027 1128.35 495.964 1129.29C496.902 1130.22 498.174 1130.75 499.5 1130.75H501.425C502.556 1132.01 504.08 1132.85 505.75 1133.14V1135.75H504.5C503.505 1135.75 502.552 1136.15 501.848 1136.85C501.145 1137.55 500.75 1138.51 500.75 1139.5V1142C500.75 1142.33 500.882 1142.65 501.116 1142.88C501.351 1143.12 501.668 1143.25 502 1143.25H512C512.332 1143.25 512.649 1143.12 512.884 1142.88C513.118 1142.65 513.25 1142.33 513.25 1142V1139.5C513.25 1138.51 512.855 1137.55 512.152 1136.85C511.448 1136.15 510.495 1135.75 509.5 1135.75H508.25V1133.14C509.92 1132.85 511.444 1132.01 512.575 1130.75H514.5C515.826 1130.75 517.098 1130.22 518.036 1129.29C518.973 1128.35 519.5 1127.08 519.5 1125.75V1122C519.5 1121.67 519.368 1121.35 519.134 1121.12C518.899 1120.88 518.582 1120.75 518.25 1120.75ZM499.5 1128.25C498.837 1128.25 498.201 1127.99 497.732 1127.52C497.263 1127.05 497 1126.41 497 1125.75V1123.25H499.5V1125.75C499.503 1126.6 499.651 1127.45 499.938 1128.25H499.5ZM509.5 1138.25C509.832 1138.25 510.149 1138.38 510.384 1138.62C510.618 1138.85 510.75 1139.17 510.75 1139.5V1140.75H503.25V1139.5C503.25 1139.17 503.382 1138.85 503.616 1138.62C503.851 1138.38 504.168 1138.25 504.5 1138.25H509.5ZM512 1125.75C512 1127.08 511.473 1128.35 510.536 1129.29C509.598 1130.22 508.326 1130.75 507 1130.75C505.674 1130.75 504.402 1130.22 503.464 1129.29C502.527 1128.35 502 1127.08 502 1125.75V1120.75H512V1125.75ZM517 1125.75C517 1126.41 516.737 1127.05 516.268 1127.52C515.799 1127.99 515.163 1128.25 514.5 1128.25H514.062C514.349 1127.45 514.497 1126.6 514.5 1125.75V1123.25H517V1125.75Z" fill="#191F28"/>
<path d="M488.141 1163.7H486.717V1157.5H485.348V1163.08H483.978V1151.78H485.348V1156.31H486.717V1151.56H488.141V1163.7ZM478.07 1152.99H482.609V1154.2H479.574V1159.6C480.277 1159.59 480.912 1159.56 481.481 1159.52C482.049 1159.47 482.626 1159.4 483.213 1159.29L483.32 1160.51C482.644 1160.65 481.98 1160.74 481.326 1160.78C480.677 1160.83 479.865 1160.85 478.889 1160.86H478.07V1152.99ZM500.615 1157.91H495.835V1158.79H499.259V1161.64H492.357V1162.47H499.595V1163.59H490.893V1160.62H497.795V1159.87H490.88V1158.79H494.358V1157.91H489.604V1156.81H500.615V1157.91ZM490.088 1155.29C490.871 1155.25 491.551 1155.16 492.129 1155.01C492.711 1154.87 493.176 1154.68 493.525 1154.45C493.874 1154.22 494.1 1153.96 494.203 1153.66H490.665V1152.55H494.358V1151.53H495.835V1152.55H499.554V1153.66H495.989C496.088 1153.96 496.309 1154.22 496.654 1154.45C497.003 1154.68 497.469 1154.87 498.05 1155.01C498.637 1155.16 499.326 1155.25 500.118 1155.29L499.675 1156.4C498.579 1156.34 497.636 1156.16 496.849 1155.87C496.061 1155.58 495.477 1155.19 495.096 1154.7C494.716 1155.19 494.132 1155.58 493.344 1155.87C492.556 1156.16 491.61 1156.34 490.504 1156.4L490.088 1155.29ZM503.247 1155.56H505.248V1152.7H506.604V1156.04H508.014V1151.78H509.437V1163.13H508.014V1157.28H506.604V1160.75H501.837V1152.7H503.247V1155.56ZM505.248 1159.53V1156.75H503.247V1159.53H505.248ZM510.498 1151.56H511.935V1163.7H510.498V1151.56ZM519.615 1153.22C519.615 1153.84 519.803 1154.45 520.179 1155.04C520.56 1155.63 521.083 1156.14 521.75 1156.57C522.417 1157 523.165 1157.28 523.993 1157.42L523.321 1158.67C522.31 1158.46 521.408 1158.07 520.616 1157.48C519.823 1156.9 519.228 1156.2 518.83 1155.38C518.566 1155.92 518.21 1156.41 517.762 1156.86C517.315 1157.3 516.8 1157.68 516.218 1157.99C515.636 1158.3 515.01 1158.53 514.338 1158.67L513.68 1157.42C514.495 1157.28 515.233 1156.99 515.896 1156.56C516.563 1156.14 517.084 1155.62 517.46 1155.03C517.841 1154.44 518.031 1153.84 518.031 1153.22V1152.32H519.615V1153.22ZM513.345 1160.92H524.436V1162.15H513.345V1160.92ZM535.098 1159.1H526.584V1152.51H534.99V1153.72H528.102V1155.18H534.708V1156.35H528.102V1157.92H535.098V1159.1ZM525.228 1161H536.319V1162.22H525.228V1161Z" fill="#191F28"/>
<path d="M478.735 1170.83H480.285C480.584 1170.83 480.835 1170.88 481.039 1170.99C481.244 1171.09 481.397 1171.23 481.496 1171.4C481.598 1171.58 481.648 1171.78 481.646 1172C481.648 1172.27 481.583 1172.47 481.451 1172.62C481.318 1172.77 481.143 1172.87 480.926 1172.93V1172.97C481.07 1172.98 481.211 1173.03 481.347 1173.12C481.485 1173.21 481.599 1173.34 481.689 1173.5C481.778 1173.66 481.823 1173.86 481.823 1174.08C481.821 1174.31 481.767 1174.51 481.661 1174.69C481.557 1174.86 481.395 1175 481.173 1175.1C480.953 1175.2 480.676 1175.25 480.34 1175.25H478.735V1170.83ZM480.334 1174.76C480.661 1174.76 480.903 1174.7 481.06 1174.57C481.217 1174.45 481.294 1174.28 481.292 1174.07C481.294 1173.92 481.256 1173.78 481.179 1173.66C481.102 1173.53 480.992 1173.43 480.849 1173.35C480.709 1173.28 480.547 1173.24 480.364 1173.24H479.284V1174.76H480.334ZM480.267 1172.77C480.425 1172.77 480.57 1172.74 480.7 1172.67C480.83 1172.61 480.933 1172.52 481.008 1172.41C481.083 1172.29 481.121 1172.16 481.121 1172.01C481.121 1171.88 481.091 1171.76 481.03 1171.66C480.969 1171.55 480.875 1171.47 480.749 1171.41C480.625 1171.35 480.47 1171.32 480.285 1171.32H479.284V1172.77H480.267ZM482.604 1170.83H485.284V1171.32H483.154V1172.8H485.143V1173.28H483.154V1174.76H485.314V1175.25H482.604V1170.83ZM488.561 1171.94C488.547 1171.8 488.496 1171.68 488.409 1171.58C488.321 1171.47 488.206 1171.39 488.064 1171.34C487.921 1171.29 487.762 1171.26 487.585 1171.26C487.393 1171.26 487.225 1171.29 487.078 1171.35C486.932 1171.41 486.818 1171.5 486.736 1171.61C486.655 1171.72 486.614 1171.84 486.614 1171.98C486.616 1172.19 486.701 1172.35 486.868 1172.46C487.034 1172.57 487.235 1172.65 487.469 1172.7L487.908 1172.83C488.25 1172.91 488.544 1173.05 488.79 1173.23C489.036 1173.41 489.159 1173.68 489.159 1174.05C489.159 1174.29 489.096 1174.51 488.97 1174.7C488.844 1174.9 488.66 1175.05 488.418 1175.16C488.176 1175.27 487.888 1175.33 487.554 1175.33C487.241 1175.33 486.967 1175.28 486.733 1175.18C486.501 1175.07 486.319 1174.93 486.187 1174.75C486.055 1174.56 485.979 1174.35 485.961 1174.1H486.523C486.537 1174.26 486.592 1174.4 486.688 1174.51C486.783 1174.62 486.906 1174.7 487.057 1174.75C487.209 1174.81 487.375 1174.83 487.554 1174.83C487.758 1174.83 487.94 1174.8 488.1 1174.73C488.263 1174.67 488.39 1174.57 488.482 1174.45C488.576 1174.33 488.622 1174.19 488.622 1174.04C488.622 1173.9 488.584 1173.79 488.506 1173.69C488.431 1173.6 488.331 1173.53 488.207 1173.47C488.083 1173.41 487.931 1173.36 487.75 1173.31L487.206 1173.16C486.844 1173.06 486.565 1172.91 486.37 1172.72C486.177 1172.54 486.081 1172.3 486.083 1172.01C486.083 1171.76 486.149 1171.55 486.282 1171.36C486.414 1171.17 486.596 1171.03 486.828 1170.93C487.06 1170.82 487.318 1170.77 487.603 1170.77C487.884 1170.77 488.136 1170.82 488.36 1170.92C488.586 1171.02 488.764 1171.16 488.894 1171.34C489.024 1171.52 489.092 1171.72 489.098 1171.94H488.561ZM489.703 1170.83H493.035V1171.32H491.65V1175.25H491.094V1171.32H489.703V1170.83ZM495.336 1170.83H496.838C497.173 1170.83 497.453 1170.89 497.677 1171.01C497.903 1171.12 498.071 1171.28 498.18 1171.48C498.29 1171.69 498.345 1171.92 498.345 1172.19C498.345 1172.49 498.276 1172.75 498.138 1172.97C498.001 1173.18 497.796 1173.34 497.521 1173.43L498.516 1175.25H497.875L496.951 1173.53C496.928 1173.53 496.893 1173.53 496.844 1173.53H495.885V1175.25H495.336V1170.83ZM496.819 1173.03C497.161 1173.03 497.409 1172.96 497.564 1172.82C497.721 1172.67 497.8 1172.46 497.802 1172.19C497.798 1171.61 497.468 1171.32 496.813 1171.32H495.885V1173.03H496.819ZM499.139 1170.83H501.818V1171.32H499.688V1172.8H501.678V1173.28H499.688V1174.76H501.849V1175.25H499.139V1170.83ZM506.194 1175.25H505.669L503.277 1171.81H503.234V1175.25H502.685V1170.83H503.216L505.608 1174.28H505.651V1170.83H506.194V1175.25ZM506.927 1170.83H510.259V1171.32H508.874V1175.25H508.318V1171.32H506.927V1170.83ZM510.094 1175.25L511.712 1170.83H512.292L513.909 1175.25H513.329L512.887 1174H511.111L510.668 1175.25H510.094ZM512.719 1173.52L512.017 1171.55H511.98L511.279 1173.52H512.719ZM514.507 1170.83H515.057V1174.76H517.107V1175.25H514.507V1170.83ZM519.408 1170.83H520.959C521.258 1170.83 521.509 1170.88 521.713 1170.99C521.918 1171.09 522.071 1171.23 522.17 1171.4C522.272 1171.58 522.322 1171.78 522.32 1172C522.322 1172.27 522.257 1172.47 522.125 1172.62C521.992 1172.77 521.817 1172.87 521.6 1172.93V1172.97C521.744 1172.98 521.884 1173.03 522.021 1173.12C522.159 1173.21 522.273 1173.34 522.363 1173.5C522.452 1173.66 522.497 1173.86 522.497 1174.08C522.495 1174.31 522.441 1174.51 522.335 1174.69C522.231 1174.86 522.069 1175 521.847 1175.1C521.627 1175.2 521.349 1175.25 521.014 1175.25H519.408V1170.83ZM521.008 1174.76C521.335 1174.76 521.577 1174.7 521.734 1174.57C521.891 1174.45 521.968 1174.28 521.966 1174.07C521.968 1173.92 521.93 1173.78 521.853 1173.66C521.776 1173.53 521.666 1173.43 521.523 1173.35C521.383 1173.28 521.221 1173.24 521.038 1173.24H519.958V1174.76H521.008ZM520.94 1172.77C521.099 1172.77 521.244 1172.74 521.374 1172.67C521.504 1172.61 521.607 1172.52 521.682 1172.41C521.757 1172.29 521.795 1172.16 521.795 1172.01C521.795 1171.88 521.764 1171.76 521.703 1171.66C521.642 1171.55 521.549 1171.47 521.423 1171.41C521.299 1171.35 521.144 1171.32 520.959 1171.32H519.958V1172.77H520.94ZM527.013 1173.04C527.013 1173.5 526.93 1173.9 526.763 1174.24C526.596 1174.58 526.364 1174.85 526.067 1175.03C525.772 1175.22 525.437 1175.31 525.06 1175.31C524.682 1175.31 524.344 1175.22 524.047 1175.03C523.752 1174.85 523.521 1174.58 523.354 1174.24C523.19 1173.9 523.107 1173.5 523.107 1173.04C523.107 1172.58 523.19 1172.18 523.354 1171.84C523.521 1171.5 523.752 1171.23 524.047 1171.05C524.344 1170.86 524.682 1170.77 525.06 1170.77C525.437 1170.77 525.772 1170.86 526.067 1171.05C526.364 1171.23 526.596 1171.5 526.763 1171.84C526.93 1172.18 527.013 1172.58 527.013 1173.04ZM523.638 1173.04C523.638 1173.41 523.7 1173.73 523.824 1173.99C523.948 1174.25 524.117 1174.45 524.331 1174.59C524.547 1174.73 524.79 1174.8 525.06 1174.8C525.331 1174.8 525.573 1174.73 525.787 1174.59C526.002 1174.45 526.172 1174.25 526.296 1173.99C526.42 1173.73 526.482 1173.41 526.482 1173.04C526.482 1172.67 526.42 1172.35 526.296 1172.09C526.172 1171.82 526.002 1171.62 525.787 1171.49C525.573 1171.35 525.331 1171.28 525.06 1171.28C524.79 1171.28 524.547 1171.35 524.331 1171.49C524.117 1171.62 523.948 1171.82 523.824 1172.09C523.7 1172.35 523.638 1172.67 523.638 1173.04ZM531.554 1173.04C531.554 1173.5 531.471 1173.9 531.304 1174.24C531.137 1174.58 530.905 1174.85 530.608 1175.03C530.313 1175.22 529.978 1175.31 529.601 1175.31C529.223 1175.31 528.885 1175.22 528.588 1175.03C528.293 1174.85 528.062 1174.58 527.895 1174.24C527.731 1173.9 527.648 1173.5 527.648 1173.04C527.648 1172.58 527.731 1172.18 527.895 1171.84C528.062 1171.5 528.293 1171.23 528.588 1171.05C528.885 1170.86 529.223 1170.77 529.601 1170.77C529.978 1170.77 530.313 1170.86 530.608 1171.05C530.905 1171.23 531.137 1171.5 531.304 1171.84C531.471 1172.18 531.554 1172.58 531.554 1173.04ZM528.179 1173.04C528.179 1173.41 528.241 1173.73 528.365 1173.99C528.489 1174.25 528.658 1174.45 528.872 1174.59C529.088 1174.73 529.331 1174.8 529.601 1174.8C529.872 1174.8 530.114 1174.73 530.328 1174.59C530.543 1174.45 530.713 1174.25 530.837 1173.99C530.961 1173.73 531.023 1173.41 531.023 1173.04C531.023 1172.67 530.961 1172.35 530.837 1172.09C530.713 1171.82 530.543 1171.62 530.328 1171.49C530.114 1171.35 529.872 1171.28 529.601 1171.28C529.331 1171.28 529.088 1171.35 528.872 1171.49C528.658 1171.62 528.489 1171.82 528.365 1172.09C528.241 1172.35 528.179 1172.67 528.179 1173.04ZM532.36 1170.83H532.909V1173.02H532.964L534.93 1170.83H535.65L533.801 1172.83L535.65 1175.25H534.979L533.459 1173.21L532.909 1173.83V1175.25H532.36V1170.83Z" fill="#191F28"/>
<path d="M488.25 1185C502.895 1185 511.105 1185 525.75 1185" stroke="#191F28" stroke-width="2.1875" stroke-linecap="round"/>
<g clip-path="url(#clip4_3024_13888)">
<path d="M615.75 1135.12C618.163 1135.12 620.125 1133.16 620.125 1130.75C620.125 1128.34 618.163 1126.38 615.75 1126.38C613.338 1126.38 611.375 1128.34 611.375 1130.75C611.375 1133.16 613.338 1135.12 615.75 1135.12ZM615.75 1128.88C616.788 1128.88 617.625 1129.71 617.625 1130.75C617.625 1131.79 616.788 1132.62 615.75 1132.62C614.713 1132.62 613.875 1131.79 613.875 1130.75C613.875 1129.71 614.713 1128.88 615.75 1128.88ZM615.812 1141.38H610.463C611.7 1140.75 613.838 1140.12 615.75 1140.12C615.887 1140.12 616.038 1140.14 616.175 1140.14C616.6 1139.23 617.337 1138.47 618.225 1137.88C617.312 1137.71 616.45 1137.62 615.75 1137.62C612.825 1137.62 607 1139.09 607 1142V1143.88H615.75V1142C615.75 1141.79 615.775 1141.57 615.812 1141.38ZM625.125 1138.25C622.825 1138.25 618.25 1139.51 618.25 1142V1143.88H632V1142C632 1139.51 627.425 1138.25 625.125 1138.25ZM626.637 1135.98C627.587 1135.44 628.25 1134.43 628.25 1133.25C628.25 1131.53 626.85 1130.12 625.125 1130.12C623.4 1130.12 622 1131.53 622 1133.25C622 1134.43 622.663 1135.44 623.612 1135.98C624.062 1136.23 624.575 1136.38 625.125 1136.38C625.675 1136.38 626.187 1136.23 626.637 1135.98Z" fill="#ADB5BD"/>
</g>
<path d="M605.629 1159.02H607.375V1160.05H605.629V1163.13H604.354V1155.99H605.629V1159.02ZM596.163 1162.19C597.098 1161.92 597.908 1161.58 598.593 1161.15C599.282 1160.73 599.826 1160.24 600.224 1159.68C600.627 1159.13 600.867 1158.53 600.943 1157.88H596.7V1156.84H602.326C602.326 1157.87 602.102 1158.8 601.655 1159.64C601.207 1160.47 600.56 1161.2 599.714 1161.81C598.873 1162.41 597.863 1162.88 596.686 1163.22L596.163 1162.19ZM597.801 1165.63C597.796 1165.14 597.957 1164.72 598.284 1164.37C598.615 1164.01 599.081 1163.74 599.681 1163.55C600.285 1163.36 600.988 1163.26 601.789 1163.26C602.59 1163.26 603.29 1163.36 603.89 1163.55C604.49 1163.74 604.951 1164.01 605.273 1164.37C605.6 1164.72 605.763 1165.14 605.763 1165.63C605.763 1166.11 605.6 1166.53 605.273 1166.89C604.951 1167.25 604.49 1167.52 603.89 1167.71C603.295 1167.91 602.594 1168 601.789 1168C600.988 1168 600.285 1167.91 599.681 1167.71C599.076 1167.52 598.611 1167.25 598.284 1166.89C597.957 1166.53 597.796 1166.11 597.801 1165.63ZM599.063 1165.63C599.063 1165.9 599.173 1166.15 599.392 1166.35C599.611 1166.56 599.925 1166.72 600.332 1166.83C600.744 1166.94 601.229 1167 601.789 1167C602.344 1167 602.825 1166.94 603.232 1166.83C603.644 1166.72 603.96 1166.56 604.179 1166.35C604.403 1166.15 604.515 1165.9 604.515 1165.63C604.515 1165.35 604.405 1165.11 604.186 1164.91C603.966 1164.7 603.653 1164.55 603.246 1164.44C602.843 1164.33 602.368 1164.27 601.822 1164.27C601.254 1164.27 600.762 1164.32 600.345 1164.43C599.934 1164.54 599.616 1164.7 599.392 1164.9C599.173 1165.1 599.063 1165.34 599.063 1165.63ZM612.37 1158.12C612.37 1158.61 612.488 1159.07 612.726 1159.52C612.963 1159.96 613.301 1160.34 613.74 1160.68C614.183 1161.02 614.702 1161.28 615.297 1161.45L614.693 1162.46C614.004 1162.25 613.406 1161.93 612.9 1161.51C612.399 1161.09 612.014 1160.59 611.745 1160.01C611.477 1160.64 611.081 1161.18 610.557 1161.64C610.038 1162.09 609.425 1162.43 608.718 1162.66L608.073 1161.67C608.686 1161.48 609.219 1161.21 609.671 1160.85C610.123 1160.49 610.47 1160.08 610.712 1159.61C610.958 1159.14 611.081 1158.64 611.081 1158.12V1158.11H608.462V1157.05H614.988V1158.11H612.37V1158.12ZM608.751 1164.51C609.772 1164.51 610.553 1164.5 611.094 1164.48V1162.16H612.37V1164.44C613.56 1164.38 614.585 1164.29 615.445 1164.18L615.539 1165.1C614.769 1165.24 613.968 1165.35 613.135 1165.42C612.303 1165.49 611.528 1165.53 610.812 1165.55C610.101 1165.56 609.264 1165.57 608.301 1165.57H608.1L607.912 1164.51H608.751ZM616.17 1155.99H617.446V1160.9H619.299V1161.97H617.446V1168.02H616.17V1155.99ZM629.396 1159.57H631.142V1160.64H629.396V1164.82H628.121V1155.97H629.396V1159.57ZM620.131 1159.8C620.127 1159.23 620.263 1158.71 620.541 1158.26C620.823 1157.8 621.208 1157.45 621.695 1157.19C622.183 1156.93 622.727 1156.8 623.327 1156.8C623.927 1156.8 624.47 1156.93 624.958 1157.19C625.446 1157.45 625.829 1157.8 626.106 1158.26C626.388 1158.71 626.532 1159.23 626.536 1159.8C626.532 1160.37 626.388 1160.89 626.106 1161.34C625.829 1161.8 625.446 1162.16 624.958 1162.41C624.47 1162.67 623.927 1162.79 623.327 1162.79C622.727 1162.79 622.183 1162.67 621.695 1162.41C621.208 1162.16 620.823 1161.8 620.541 1161.34C620.263 1160.89 620.127 1160.37 620.131 1159.8ZM621.38 1159.8C621.375 1160.17 621.458 1160.49 621.628 1160.78C621.798 1161.06 622.031 1161.28 622.327 1161.44C622.626 1161.6 622.96 1161.68 623.327 1161.68C623.694 1161.68 624.025 1161.6 624.321 1161.44C624.62 1161.28 624.855 1161.06 625.026 1160.78C625.2 1160.49 625.287 1160.17 625.287 1159.8C625.287 1159.43 625.2 1159.11 625.026 1158.83C624.855 1158.54 624.62 1158.32 624.321 1158.16C624.025 1158 623.694 1157.92 623.327 1157.92C622.96 1157.92 622.626 1158 622.327 1158.16C622.031 1158.32 621.798 1158.54 621.628 1158.83C621.458 1159.11 621.375 1159.43 621.38 1159.8ZM621.769 1163.89H623.045V1166.73H629.906V1167.76H621.769V1163.89ZM642.126 1168.02H640.904V1161.85H639.36V1167.4H638.165V1156.23H639.36V1160.81H640.904V1155.99H642.126V1168.02ZM632.391 1157.41H633.666V1163.83C634.951 1163.82 636.182 1163.7 637.359 1163.46L637.493 1164.58C636.71 1164.72 635.967 1164.82 635.264 1164.87C634.561 1164.93 633.863 1164.96 633.169 1164.95H632.391V1157.41Z" fill="#ADB5BD"/>
<path d="M607.549 1176.6C607.509 1176.4 607.428 1176.23 607.308 1176.09C607.188 1175.95 607.042 1175.84 606.869 1175.77C606.698 1175.69 606.514 1175.66 606.316 1175.66C606.046 1175.66 605.803 1175.73 605.587 1175.86C605.373 1176 605.205 1176.2 605.08 1176.46C604.956 1176.73 604.894 1177.05 604.894 1177.42C604.894 1177.78 604.956 1178.1 605.08 1178.36C605.205 1178.63 605.373 1178.83 605.587 1178.97C605.803 1179.1 606.046 1179.17 606.316 1179.17C606.514 1179.17 606.698 1179.13 606.869 1179.06C607.04 1178.99 607.185 1178.88 607.305 1178.74C607.425 1178.6 607.507 1178.43 607.549 1178.24H608.099C608.046 1178.53 607.936 1178.79 607.769 1179.01C607.602 1179.23 607.393 1179.4 607.14 1179.51C606.89 1179.63 606.615 1179.69 606.316 1179.69C605.938 1179.69 605.6 1179.59 605.303 1179.41C605.008 1179.22 604.777 1178.96 604.61 1178.62C604.446 1178.27 604.363 1177.87 604.363 1177.42C604.363 1176.96 604.446 1176.56 604.61 1176.22C604.777 1175.87 605.008 1175.61 605.303 1175.42C605.6 1175.24 605.938 1175.15 606.316 1175.15C606.615 1175.15 606.89 1175.2 607.14 1175.32C607.391 1175.43 607.599 1175.6 607.766 1175.82C607.935 1176.04 608.046 1176.3 608.099 1176.6H607.549ZM612.31 1175.21V1178.13C612.31 1178.43 612.239 1178.7 612.096 1178.94C611.954 1179.18 611.753 1179.37 611.492 1179.5C611.232 1179.64 610.931 1179.7 610.589 1179.7C610.247 1179.7 609.946 1179.64 609.686 1179.5C609.425 1179.37 609.224 1179.18 609.081 1178.94C608.939 1178.7 608.868 1178.43 608.868 1178.13V1175.21H609.417V1178.09C609.417 1178.3 609.464 1178.49 609.557 1178.66C609.651 1178.82 609.786 1178.96 609.963 1179.05C610.142 1179.14 610.351 1179.19 610.589 1179.19C610.827 1179.19 611.034 1179.14 611.211 1179.05C611.388 1178.96 611.524 1178.82 611.617 1178.66C611.711 1178.49 611.759 1178.3 611.761 1178.09V1175.21H612.31ZM613.287 1175.21H613.836V1179.14H615.887V1179.62H613.287V1175.21ZM615.789 1175.21H619.122V1175.69H617.736V1179.62H617.181V1175.69H615.789V1175.21ZM623.296 1175.21V1178.13C623.296 1178.43 623.225 1178.7 623.083 1178.94C622.94 1179.18 622.739 1179.37 622.479 1179.5C622.218 1179.64 621.917 1179.7 621.575 1179.7C621.233 1179.7 620.932 1179.64 620.672 1179.5C620.411 1179.37 620.21 1179.18 620.068 1178.94C619.925 1178.7 619.854 1178.43 619.854 1178.13V1175.21H620.403V1178.09C620.403 1178.3 620.45 1178.49 620.544 1178.66C620.637 1178.82 620.773 1178.96 620.95 1179.05C621.129 1179.14 621.337 1179.19 621.575 1179.19C621.813 1179.19 622.021 1179.14 622.198 1179.05C622.375 1178.96 622.51 1178.82 622.604 1178.66C622.697 1178.49 622.745 1178.3 622.747 1178.09V1175.21H623.296ZM624.273 1175.21H625.774C626.11 1175.21 626.39 1175.26 626.614 1175.38C626.839 1175.49 627.007 1175.65 627.117 1175.86C627.227 1176.06 627.282 1176.3 627.282 1176.57C627.282 1176.87 627.213 1177.13 627.074 1177.34C626.938 1177.56 626.733 1177.71 626.458 1177.81L627.453 1179.62H626.812L625.887 1177.91C625.865 1177.91 625.829 1177.91 625.781 1177.91H624.822V1179.62H624.273V1175.21ZM625.756 1177.41C626.098 1177.41 626.346 1177.34 626.501 1177.19C626.657 1177.05 626.737 1176.84 626.739 1176.57C626.735 1175.99 626.405 1175.69 625.75 1175.69H624.822V1177.41H625.756ZM627.697 1179.62L629.314 1175.21H629.894L631.512 1179.62H630.932L630.489 1178.38H628.713L628.271 1179.62H627.697ZM630.322 1177.9L629.62 1175.92H629.583L628.881 1177.9H630.322ZM632.11 1175.21H632.659V1179.14H634.71V1179.62H632.11V1175.21Z" fill="#ADB5BD"/>
</g>
</g>
<defs>
<filter id="filter0_d_3024_13888" x="-11.75" y="1087.25" width="700" height="125" filterUnits="userSpaceOnUse" color-interpolation-filters="sRGB">
<feFlood flood-opacity="0" result="BackgroundImageFix"/>
<feColorMatrix in="SourceAlpha" type="matrix" values="0 0 0 0 0 0 0 0 0 0 0 0 0 0 0 0 0 0 127 0" result="hardAlpha"/>
<feOffset dy="-0.625"/>
<feGaussianBlur stdDeviation="6.25"/>
<feComposite in2="hardAlpha" operator="out"/>
<feColorMatrix type="matrix" values="0 0 0 0 0 0 0 0 0 0 0 0 0 0 0 0 0 0 0.1 0"/>
<feBlend mode="normal" in2="BackgroundImageFix" result="effect1_dropShadow_3024_13888"/>
<feBlend mode="normal" in="SourceGraphic" in2="effect1_dropShadow_3024_13888" result="shape"/>
</filter>
<linearGradient id="paint0_linear_3024_13888" x1="43.875" y1="0.374991" x2="138.719" y2="399.125" gradientUnits="userSpaceOnUse">
<stop stop-color="#B3071A"/>
<stop offset="1" stop-color="#8D121F"/>
</linearGradient>
<clipPath id="clip0_3024_13888">
<rect width="675" height="1200" fill="white" transform="translate(0.75 0.375)"/>
</clipPath>
<clipPath id="clip1_3024_13888">
<rect width="30" height="30" fill="white" transform="translate(42 1120.12)"/>
</clipPath>
<clipPath id="clip2_3024_13888">
<rect width="30" height="30" fill="white" transform="translate(154.5 1120.12)"/>
</clipPath>
<clipPath id="clip3_3024_13888">
<rect width="30" height="30" fill="white" transform="translate(267 1120.12)"/>
</clipPath>
<clipPath id="clip4_3024_13888">
<rect width="30" height="30" fill="white" transform="translate(604.5 1120.12)"/>
</clipPath>
</defs>
</svg>
