<svg width="2160" height="3840" viewBox="0 0 2160 3840" fill="none" xmlns="http://www.w3.org/2000/svg">
<g clip-path="url(#clip0_2498_5085)">
<rect width="2160" height="3840" fill="#F5F0EE"/>
<rect width="2160" height="2900" fill="url(#paint0_linear_2498_5085)"/>
<rect x="180" y="520" width="1800" height="2060" rx="60" fill="white"/>
<path d="M1238.39 768.909V775.249H1232.3V803.865C1235.15 803.641 1237.99 803.367 1240.7 803.044L1241.07 808.688C1227.94 810.95 1213.2 811.199 1202.16 811.249L1201.29 804.785C1203.68 804.785 1206.27 804.785 1208.95 804.76V775.249H1202.88V768.909H1238.39ZM1216.53 804.635C1219.24 804.561 1222 804.461 1224.76 804.337V775.249H1216.53V804.635ZM1244.06 826.215V762.718H1251.89V787.331H1261.68V793.721H1251.89V826.215H1244.06ZM1296.93 768.163V774.552H1274.86V785.914H1295.84V792.105H1274.86V805.207C1284.68 805.133 1292.31 804.735 1301.16 803.293L1301.88 809.633C1292.14 811.174 1283.58 811.472 1272.17 811.522H1266.95V768.163H1296.93ZM1306.28 826.215V762.718H1314.11V787.282H1323.91V793.845H1314.11V826.215H1306.28Z" fill="#191F28"/>
<path d="M1236.61 906.926H1221.31V914.402H1217.27V906.926H1201.38V903.617H1236.61V906.926ZM1205.76 910.75H1209.84V918.527H1232.7V921.836H1205.76V910.75ZM1205.89 885.957H1232.05V899.621H1205.89V885.957ZM1228.02 896.398V889.18H1209.88V896.398H1228.02ZM1269.44 899.492H1275.41V902.887H1269.44V922.609H1265.36V884.152H1269.44V899.492ZM1239.49 912.34C1244.3 909.934 1248.02 906.997 1250.64 903.531C1253.27 900.065 1254.8 896.083 1255.21 891.586H1241.42V888.191H1259.38C1259.35 894.064 1257.93 899.342 1255.11 904.025C1252.29 908.695 1247.84 912.526 1241.77 915.52L1239.49 912.34ZM1288.09 886.387C1289.68 886.387 1291.14 886.666 1292.47 887.225C1293.82 887.769 1294.95 888.549 1295.86 889.566H1305.49V884.152H1309.57V906.883H1305.49V901.684H1295.84C1294.93 902.686 1293.79 903.46 1292.45 904.004C1291.12 904.548 1289.66 904.82 1288.09 904.82C1286.18 904.82 1284.46 904.426 1282.93 903.639C1281.4 902.851 1280.19 901.762 1279.32 900.373C1278.46 898.969 1278.03 897.387 1278.03 895.625C1278.03 893.849 1278.46 892.259 1279.32 890.855C1280.19 889.452 1281.4 888.356 1282.93 887.568C1284.46 886.781 1286.18 886.387 1288.09 886.387ZM1281.94 895.625C1281.94 896.728 1282.2 897.716 1282.71 898.59C1283.24 899.464 1283.98 900.144 1284.93 900.631C1285.87 901.118 1286.94 901.354 1288.13 901.34C1289.29 901.354 1290.33 901.118 1291.24 900.631C1292.18 900.144 1292.91 899.464 1293.44 898.59C1293.97 897.716 1294.23 896.728 1294.23 895.625C1294.23 894.493 1293.97 893.491 1293.44 892.617C1292.91 891.743 1292.18 891.07 1291.24 890.598C1290.33 890.125 1289.29 889.896 1288.13 889.91C1286.94 889.896 1285.87 890.125 1284.93 890.598C1283.98 891.07 1283.24 891.743 1282.71 892.617C1282.2 893.491 1281.94 894.493 1281.94 895.625ZM1283.66 915.176C1283.66 913.629 1284.18 912.297 1285.23 911.18C1286.27 910.048 1287.77 909.196 1289.72 908.623C1291.68 908.036 1294 907.742 1296.68 907.742C1299.34 907.742 1301.65 908.036 1303.6 908.623C1305.56 909.196 1307.06 910.048 1308.11 911.18C1309.17 912.297 1309.7 913.629 1309.7 915.176C1309.7 916.723 1309.17 918.048 1308.11 919.15C1307.06 920.268 1305.56 921.113 1303.6 921.686C1301.65 922.273 1299.34 922.566 1296.68 922.566C1294 922.566 1291.68 922.273 1289.72 921.686C1287.77 921.113 1286.27 920.268 1285.23 919.15C1284.18 918.048 1283.66 916.723 1283.66 915.176ZM1287.66 915.176C1287.66 916.049 1288.01 916.801 1288.71 917.432C1289.43 918.048 1290.45 918.52 1291.78 918.85C1293.13 919.179 1294.72 919.344 1296.57 919.344C1299.45 919.344 1301.69 918.986 1303.3 918.27C1304.9 917.539 1305.7 916.508 1305.7 915.176C1305.7 913.815 1304.91 912.762 1303.32 912.018C1301.74 911.273 1299.53 910.893 1296.68 910.879C1293.83 910.893 1291.61 911.273 1290.02 912.018C1288.43 912.762 1287.64 913.815 1287.66 915.176ZM1297.73 892.832C1298 893.734 1298.14 894.665 1298.14 895.625C1298.14 896.542 1298 897.444 1297.73 898.332H1305.49V892.832H1297.73ZM1329.46 923.684H1325.38L1335.39 886.43H1339.48L1329.46 923.684ZM1364.87 885.914C1366.79 885.914 1368.51 886.251 1370.03 886.924C1371.55 887.583 1372.73 888.521 1373.59 889.738C1374.45 890.956 1374.88 892.345 1374.88 893.906C1374.88 895.453 1374.45 896.835 1373.59 898.053C1372.73 899.27 1371.55 900.215 1370.03 900.889C1368.51 901.548 1366.79 901.87 1364.87 901.855C1362.97 901.87 1361.25 901.548 1359.74 900.889C1358.23 900.215 1357.06 899.27 1356.21 898.053C1355.37 896.835 1354.95 895.453 1354.95 893.906C1354.95 892.345 1355.37 890.956 1356.21 889.738C1357.06 888.521 1358.23 887.583 1359.74 886.924C1361.25 886.251 1362.97 885.914 1364.87 885.914ZM1352.2 904.863C1356.82 904.863 1361.26 904.77 1365.52 904.584C1369.78 904.383 1373.79 904.004 1377.55 903.445L1377.85 906.496C1374.6 907.112 1371.03 907.549 1367.15 907.807V921.449H1363.07V908.043C1360.63 908.158 1357.19 908.229 1352.75 908.258L1352.2 904.863ZM1358.9 893.906C1358.88 894.823 1359.13 895.632 1359.63 896.334C1360.14 897.036 1360.85 897.58 1361.76 897.967C1362.67 898.339 1363.71 898.518 1364.87 898.504C1366.06 898.518 1367.11 898.339 1368.03 897.967C1368.96 897.58 1369.68 897.036 1370.2 896.334C1370.71 895.632 1370.97 894.823 1370.97 893.906C1370.97 892.975 1370.71 892.159 1370.2 891.457C1369.68 890.741 1368.96 890.189 1368.03 889.803C1367.11 889.416 1366.06 889.223 1364.87 889.223C1363.71 889.223 1362.67 889.416 1361.76 889.803C1360.85 890.189 1360.14 890.741 1359.63 891.457C1359.13 892.173 1358.88 892.99 1358.9 893.906ZM1380.21 884.195H1384.25V922.652H1380.21V884.195ZM1425.5 917.668H1390.27V914.316H1425.5V917.668ZM1391.9 904.691C1394.28 904.305 1396.52 903.503 1398.64 902.285C1400.76 901.053 1402.47 899.564 1403.76 897.816C1405.05 896.055 1405.69 894.221 1405.69 892.316V891.113H1393.19V887.805H1422.45V891.113H1409.95V892.316C1409.95 894.221 1410.59 896.04 1411.88 897.773C1413.18 899.507 1414.91 900.975 1417.06 902.178C1419.21 903.381 1421.5 904.176 1423.95 904.562L1422.32 907.785C1420.23 907.398 1418.23 906.754 1416.33 905.852C1414.44 904.935 1412.75 903.803 1411.28 902.457C1409.8 901.111 1408.66 899.607 1407.84 897.945C1407.04 899.621 1405.91 901.146 1404.45 902.521C1402.98 903.882 1401.32 905.028 1399.44 905.959C1397.58 906.89 1395.62 907.556 1393.57 907.957L1391.9 904.691ZM1448.02 889.867H1434.44V901.383C1438.08 901.368 1441.02 901.283 1443.27 901.125C1445.53 900.967 1447.79 900.667 1450.04 900.223L1450.42 903.531C1447.97 904.004 1445.51 904.326 1443.03 904.498C1440.55 904.67 1437.32 904.763 1433.32 904.777H1430.4V886.559H1448.02V889.867ZM1435 908.258H1460.39V922.137H1435V908.258ZM1456.39 918.828V911.48H1439.04V918.828H1456.39ZM1445.87 893.348H1456.31V884.152H1460.39V906.41H1456.31V896.699H1445.87V893.348ZM1496.31 899.75H1502.5V903.145H1496.31V922.652H1492.27V884.152H1496.31V899.75ZM1466.11 890.168H1475.6V884.668H1479.68V890.168H1488.92V893.52H1466.11V890.168ZM1468.08 905.293C1468.08 903.574 1468.49 902.035 1469.31 900.674C1470.14 899.313 1471.28 898.253 1472.72 897.494C1474.18 896.735 1475.83 896.355 1477.66 896.355C1479.48 896.355 1481.12 896.735 1482.56 897.494C1484.02 898.253 1485.17 899.313 1486 900.674C1486.83 902.035 1487.25 903.574 1487.25 905.293C1487.25 907.026 1486.83 908.573 1486 909.934C1485.17 911.294 1484.02 912.361 1482.56 913.135C1481.12 913.894 1479.48 914.273 1477.66 914.273C1475.83 914.273 1474.18 913.894 1472.72 913.135C1471.28 912.361 1470.14 911.294 1469.31 909.934C1468.49 908.573 1468.08 907.026 1468.08 905.293ZM1471.99 905.293C1471.99 906.396 1472.23 907.37 1472.7 908.215C1473.19 909.06 1473.86 909.712 1474.72 910.17C1475.59 910.628 1476.58 910.85 1477.66 910.836C1478.74 910.85 1479.71 910.628 1480.56 910.17C1481.42 909.712 1482.1 909.06 1482.58 908.215C1483.09 907.37 1483.34 906.396 1483.34 905.293C1483.34 904.219 1483.09 903.259 1482.58 902.414C1482.1 901.569 1481.42 900.91 1480.56 900.438C1479.71 899.951 1478.74 899.707 1477.66 899.707C1476.58 899.707 1475.59 899.951 1474.72 900.438C1473.86 900.91 1473.19 901.569 1472.7 902.414C1472.23 903.259 1471.99 904.219 1471.99 905.293ZM1539.54 909.418H1523.81V922.652H1519.82V909.418H1504.3V906.023H1539.54V909.418ZM1508.13 894.164C1508.13 892.445 1508.7 890.941 1509.85 889.652C1511.01 888.349 1512.62 887.354 1514.68 886.666C1516.74 885.964 1519.13 885.613 1521.84 885.613C1524.54 885.613 1526.93 885.964 1528.99 886.666C1531.07 887.354 1532.68 888.349 1533.82 889.652C1534.97 890.941 1535.54 892.445 1535.54 894.164C1535.54 895.868 1534.97 897.358 1533.82 898.633C1532.68 899.908 1531.07 900.896 1528.99 901.598C1526.93 902.285 1524.54 902.629 1521.84 902.629C1519.14 902.629 1516.76 902.285 1514.68 901.598C1512.62 900.896 1511.01 899.908 1509.85 898.633C1508.7 897.358 1508.13 895.868 1508.13 894.164ZM1512.34 894.164C1512.34 895.224 1512.73 896.148 1513.5 896.936C1514.29 897.709 1515.4 898.311 1516.83 898.74C1518.28 899.156 1519.95 899.363 1521.84 899.363C1523.74 899.363 1525.41 899.156 1526.84 898.74C1528.27 898.311 1529.38 897.709 1530.17 896.936C1530.97 896.148 1531.38 895.224 1531.38 894.164C1531.38 893.09 1530.97 892.159 1530.17 891.371C1529.38 890.583 1528.27 889.975 1526.84 889.545C1525.41 889.101 1523.74 888.879 1521.84 888.879C1519.95 888.879 1518.28 889.101 1516.83 889.545C1515.4 889.975 1514.29 890.583 1513.5 891.371C1512.73 892.159 1512.34 893.09 1512.34 894.164ZM1561.93 889.609C1561.93 891.643 1562.58 893.62 1563.88 895.539C1565.18 897.458 1566.92 899.098 1569.08 900.459C1571.26 901.805 1573.57 902.701 1576.02 903.145L1574.13 906.539C1572.07 906.095 1570.1 905.365 1568.22 904.348C1566.34 903.331 1564.68 902.092 1563.21 900.631C1561.77 899.156 1560.64 897.53 1559.82 895.754C1558.99 897.516 1557.84 899.134 1556.38 900.609C1554.92 902.07 1553.25 903.309 1551.38 904.326C1549.5 905.343 1547.53 906.081 1545.47 906.539L1543.66 903.145C1546.08 902.686 1548.36 901.784 1550.5 900.438C1552.64 899.077 1554.37 897.444 1555.67 895.539C1556.98 893.62 1557.63 891.643 1557.63 889.609V886.688H1561.93V889.609ZM1542.38 914.188H1577.61V917.582H1542.38V914.188Z" fill="#6B7684"/>
<path d="M1206.67 1020.72V1025.21H1214.9V1020.72H1219.24V1036.11H1202.38V1020.72H1206.67ZM1205.93 1042.04V1038.65H1229.03V1047.89H1210.26V1050.71H1230.14V1054.16H1205.98V1044.74H1224.7V1042.04H1205.93ZM1206.67 1032.67H1214.9V1028.51H1206.67V1032.67ZM1224.67 1037.23V1019.18H1229.03V1026.3H1233.96V1029.84H1229.03V1037.23H1224.67ZM1265.94 1019.18V1041.37H1261.81V1031.76H1258.35V1040.17H1254.29V1019.85H1258.35V1028.21H1261.81V1019.18H1265.94ZM1235.55 1026.4V1023H1242.22V1019.47H1246.53V1023H1253.13V1026.4H1235.55ZM1236.78 1033.94C1236.77 1030.25 1239.96 1027.82 1244.38 1027.82C1248.87 1027.82 1252.04 1030.25 1252.06 1033.94C1252.04 1037.59 1248.87 1040.02 1244.38 1040.02C1239.96 1040.02 1236.77 1037.59 1236.78 1033.94ZM1240.66 1033.94C1240.66 1035.75 1242.17 1036.9 1244.38 1036.9C1246.6 1036.9 1248.12 1035.75 1248.12 1033.94C1248.12 1032.1 1246.6 1030.97 1244.38 1030.97C1242.17 1030.97 1240.66 1032.1 1240.66 1033.94ZM1241.93 1048.13C1241.9 1044.08 1246.48 1041.79 1254.02 1041.79C1261.56 1041.79 1266.1 1044.08 1266.12 1048.13C1266.1 1052.15 1261.56 1054.44 1254.02 1054.43C1246.48 1054.44 1241.9 1052.15 1241.93 1048.13ZM1246.26 1048.13C1246.24 1050.09 1248.99 1051.14 1254.02 1051.11C1259.03 1051.14 1261.74 1050.09 1261.77 1048.13C1261.74 1046.08 1259.03 1045.06 1254.02 1045.09C1248.99 1045.06 1246.24 1046.08 1246.26 1048.13ZM1299.89 1019.2V1045.21H1295.55V1033.44H1286.32V1030.01H1295.55V1026.8H1286.32V1023.38H1295.55V1019.2H1299.89ZM1272.35 1040.41V1021.54H1276.64V1036.81C1281.14 1036.77 1285.38 1036.5 1290.11 1035.64L1290.54 1039.18C1285.11 1040.19 1280.34 1040.39 1275.11 1040.41H1272.35ZM1276.67 1053.79V1042.91H1281.05V1050.27H1300.76V1053.79H1276.67ZM1333.55 1035.21V1038.67H1323.1V1046.73H1337.16V1050.3H1304.88V1046.73H1318.79V1038.67H1308.79V1021.79H1333.27V1025.27H1313.14V1035.21H1333.55ZM1207.71 1094.71V1123H1202.64V1094.71H1207.71ZM1228.35 1102.49C1228.1 1100.06 1226.07 1098.65 1223 1098.65C1219.79 1098.65 1217.87 1100.21 1217.87 1102.35C1217.84 1104.71 1220.35 1105.71 1222.69 1106.26L1225.34 1106.92C1229.56 1107.92 1233.64 1110.14 1233.64 1115.06C1233.64 1120.03 1229.7 1123.43 1222.92 1123.43C1216.35 1123.43 1212.17 1120.28 1211.95 1114.67H1216.95C1217.17 1117.63 1219.67 1119.08 1222.88 1119.08C1226.24 1119.08 1228.54 1117.45 1228.56 1115.02C1228.54 1112.82 1226.5 1111.87 1223.46 1111.08L1220.24 1110.25C1215.59 1109.06 1212.7 1106.72 1212.71 1102.65C1212.69 1097.65 1217.13 1094.33 1223.07 1094.33C1229.08 1094.33 1233.16 1097.71 1233.25 1102.49H1228.35ZM1237.91 1123V1094.71H1248.73C1254.85 1094.71 1257.87 1097.83 1257.87 1102.06C1257.87 1105.49 1255.7 1107.42 1252.94 1108.07V1108.35C1255.95 1108.51 1258.98 1111.01 1258.98 1115.29C1258.98 1119.7 1255.81 1123 1249.33 1123H1237.91ZM1242.98 1118.75H1248.53C1252.26 1118.75 1253.82 1117.16 1253.82 1114.91C1253.82 1112.36 1251.83 1110.43 1248.69 1110.43H1242.98V1118.75ZM1242.98 1106.76H1248.09C1250.77 1106.76 1252.8 1105.2 1252.8 1102.7C1252.8 1100.51 1251.23 1098.93 1248.2 1098.93H1242.98V1106.76ZM1286.36 1094.71V1123H1281.85L1268.45 1103.68H1268.21V1123H1263.15V1094.71H1267.72L1281.06 1114.05H1281.31V1094.71H1286.36ZM1233.45 1190.59V1194.1H1201.17V1190.59H1214.99V1182.4H1219.3V1190.59H1233.45ZM1202.1 1179.68C1209.5 1178.49 1214.78 1173.2 1214.81 1167.9V1165.32H1219.42V1167.9C1219.41 1173.22 1224.75 1178.49 1232.2 1179.68L1230.32 1183.3C1224.35 1182.15 1219.46 1178.73 1217.11 1174.12C1214.79 1178.7 1209.93 1182.18 1203.98 1183.3L1202.1 1179.68ZM1248.41 1169.54C1248.41 1173.85 1251.2 1177.91 1256.71 1179.6L1254.65 1183.01C1250.69 1181.77 1247.89 1179.25 1246.32 1176.08C1244.76 1179.78 1241.79 1182.71 1237.55 1184.13L1235.34 1180.69C1241.03 1178.85 1244.02 1174.27 1244.05 1169.57V1169.13H1236.56V1165.62H1255.73V1169.13H1248.41V1169.54ZM1240.16 1191.69C1240.15 1187.46 1244.72 1185 1252.11 1185C1259.43 1185 1263.92 1187.46 1263.92 1191.69C1263.92 1195.94 1259.43 1198.44 1252.11 1198.43C1244.72 1198.44 1240.15 1195.94 1240.16 1191.69ZM1244.5 1191.69C1244.49 1193.87 1247.26 1195.03 1252.11 1195.01C1256.95 1195.03 1259.65 1193.87 1259.65 1191.69C1259.65 1189.54 1256.95 1188.41 1252.11 1188.41C1247.26 1188.41 1244.49 1189.54 1244.5 1191.69ZM1259.24 1184.23V1163.18H1263.6V1171.64H1268.53V1175.21H1263.6V1184.23H1259.24ZM1281.85 1164.72C1287.21 1164.71 1291.09 1167.72 1291.09 1172.13C1291.09 1176.49 1287.21 1179.56 1281.85 1179.53C1276.52 1179.56 1272.65 1176.49 1272.66 1172.13C1272.65 1167.72 1276.52 1164.71 1281.85 1164.72ZM1270.34 1181.96C1276.71 1181.96 1285.63 1181.82 1293.26 1180.69L1293.56 1183.9C1290.51 1184.49 1287.35 1184.86 1284.25 1185.1V1197.39H1279.9V1185.36C1276.64 1185.5 1273.56 1185.51 1270.88 1185.54L1270.34 1181.96ZM1276.86 1172.13C1276.85 1174.52 1278.93 1175.99 1281.85 1175.97C1284.86 1175.99 1286.96 1174.52 1286.96 1172.13C1286.96 1169.71 1284.86 1168.2 1281.85 1168.23C1278.93 1168.2 1276.85 1169.71 1276.86 1172.13ZM1295.54 1198.45V1163.2H1299.85V1198.45H1295.54ZM1334.22 1163.18V1198.45H1329.88V1163.18H1334.22ZM1305.23 1188.44C1310.87 1185.95 1314.11 1180.01 1314.11 1174.38V1172.53H1306.35V1169.06H1314.08V1163.92H1318.41V1169.06H1326.03V1172.53H1318.42V1174.38C1318.42 1179.75 1321.72 1185.5 1327.41 1187.87L1325.05 1191.22C1320.99 1189.5 1317.95 1185.97 1316.34 1181.73C1314.75 1186.23 1311.71 1190 1307.59 1191.8L1305.23 1188.44ZM1213.85 1242.69C1213.85 1246.57 1216.88 1250.38 1222.44 1251.86L1220.39 1255.23C1216.33 1254.14 1213.4 1251.77 1211.77 1248.71C1210.23 1252.17 1207.31 1254.9 1203.11 1256.16L1201.05 1252.76C1206.57 1251.1 1209.53 1246.96 1209.53 1242.69V1242.51H1202.14V1239.06H1209.53V1235.02H1213.91V1239.06H1221.23V1242.51H1213.85V1242.69ZM1206.78 1263.78C1206.77 1259.6 1211.35 1257.23 1218.8 1257.22C1226.26 1257.23 1230.84 1259.6 1230.84 1263.78C1230.84 1267.99 1226.26 1270.44 1218.8 1270.43C1211.35 1270.44 1206.77 1267.99 1206.78 1263.78ZM1211.1 1263.78C1211.08 1265.9 1213.88 1267.08 1218.8 1267.08C1223.78 1267.08 1226.52 1265.9 1226.53 1263.78C1226.52 1261.7 1223.78 1260.58 1218.8 1260.56C1213.88 1260.58 1211.08 1261.7 1211.1 1263.78ZM1220.18 1248.37V1244.86H1226.41V1235.18H1230.75V1256.53H1226.41V1248.37H1220.18ZM1263.98 1237.32V1240.47C1263.98 1243.77 1263.98 1247.39 1263.04 1252.37H1267.91V1255.91H1253.89V1270.51H1249.52V1255.91H1235.74V1252.37H1258.64C1259.61 1247.57 1259.65 1243.98 1259.65 1240.81H1239.56V1237.32H1263.98ZM1299.79 1235.18V1270.45H1295.41V1235.18H1299.79ZM1270.55 1260.74C1279.79 1256.35 1284.07 1250.4 1284.85 1242.36H1272.35V1238.92H1289.26C1289.25 1249.43 1285.18 1258.35 1272.83 1264.22L1270.55 1260.74ZM1335.52 1239.89V1243.4H1306.34V1239.89H1318.78V1235.62H1323.09V1239.89H1335.52ZM1304.88 1266.68V1263.16H1318.78V1258.82C1312.69 1258.35 1309 1255.9 1309.03 1252C1309 1247.73 1313.57 1245.2 1320.92 1245.22C1328.2 1245.2 1332.83 1247.73 1332.83 1252C1332.83 1255.9 1329.11 1258.34 1323.09 1258.82V1263.16H1337.16V1266.68H1304.88ZM1313.48 1252C1313.45 1254.27 1316.14 1255.41 1320.92 1255.43C1325.64 1255.41 1328.37 1254.27 1328.37 1252C1328.37 1249.78 1325.64 1248.62 1320.92 1248.62C1316.14 1248.62 1313.45 1249.78 1313.48 1252Z" fill="#191F28"/>
<path d="M1381.5 1046.88L1391.3 1036.99C1392.49 1035.77 1393.39 1034.78 1394.02 1034.02C1394.64 1033.26 1395.12 1032.51 1395.45 1031.8C1395.78 1031.07 1395.95 1030.3 1395.95 1029.49C1395.95 1028.58 1395.73 1027.78 1395.27 1027.09C1394.81 1026.4 1394.19 1025.87 1393.39 1025.49C1392.6 1025.11 1391.71 1024.92 1390.72 1024.92C1389.68 1024.92 1388.77 1025.13 1387.98 1025.55C1387.22 1025.96 1386.62 1026.55 1386.19 1027.3C1385.77 1028.05 1385.56 1028.92 1385.56 1029.92H1381.5C1381.49 1028.23 1381.88 1026.73 1382.67 1025.43C1383.47 1024.13 1384.57 1023.12 1385.99 1022.4C1387.41 1021.69 1389.01 1021.33 1390.8 1021.33C1392.58 1021.33 1394.17 1021.68 1395.56 1022.38C1396.97 1023.07 1398.06 1024.03 1398.84 1025.25C1399.64 1026.48 1400.04 1027.85 1400.05 1029.38C1400.04 1030.46 1399.83 1031.5 1399.43 1032.5C1399.03 1033.49 1398.34 1034.6 1397.36 1035.82C1396.38 1037.03 1395 1038.52 1393.22 1040.27L1387.48 1046.09V1046.33H1400.52V1050H1381.5V1046.88ZM1415.13 1050.39C1412.96 1050.39 1411.09 1049.82 1409.53 1048.69C1407.98 1047.55 1406.79 1045.89 1405.97 1043.71C1405.15 1041.54 1404.74 1038.92 1404.74 1035.86C1404.74 1032.81 1405.15 1030.2 1405.97 1028.03C1406.81 1025.85 1408 1024.19 1409.55 1023.05C1411.11 1021.9 1412.97 1021.33 1415.13 1021.33C1417.28 1021.33 1419.13 1021.9 1420.68 1023.05C1422.24 1024.19 1423.44 1025.85 1424.27 1028.03C1425.11 1030.2 1425.52 1032.81 1425.52 1035.86C1425.52 1038.92 1425.11 1041.54 1424.27 1043.73C1423.45 1045.9 1422.27 1047.56 1420.72 1048.69C1419.17 1049.82 1417.31 1050.39 1415.13 1050.39ZM1409.04 1035.96C1409.04 1038.26 1409.28 1040.21 1409.76 1041.82C1410.24 1043.42 1410.94 1044.63 1411.85 1045.45C1412.76 1046.27 1413.86 1046.68 1415.13 1046.68C1416.41 1046.68 1417.5 1046.27 1418.41 1045.45C1419.33 1044.62 1420.02 1043.39 1420.5 1041.78C1420.99 1040.16 1421.23 1038.19 1421.23 1035.86C1421.23 1033.54 1420.98 1031.57 1420.48 1029.94C1420 1028.31 1419.31 1027.08 1418.39 1026.25C1417.48 1025.4 1416.4 1024.97 1415.13 1024.96C1413.86 1024.96 1412.76 1025.39 1411.85 1026.25C1410.94 1027.1 1410.24 1028.35 1409.76 1030C1409.28 1031.64 1409.04 1033.63 1409.04 1035.96ZM1429.98 1046.88L1439.78 1036.99C1440.97 1035.77 1441.87 1034.78 1442.5 1034.02C1443.12 1033.26 1443.6 1032.51 1443.92 1031.8C1444.26 1031.07 1444.43 1030.3 1444.43 1029.49C1444.43 1028.58 1444.2 1027.78 1443.75 1027.09C1443.29 1026.4 1442.67 1025.87 1441.87 1025.49C1441.08 1025.11 1440.18 1024.92 1439.2 1024.92C1438.15 1024.92 1437.24 1025.13 1436.46 1025.55C1435.69 1025.96 1435.09 1026.55 1434.66 1027.3C1434.25 1028.05 1434.04 1028.92 1434.04 1029.92H1429.98C1429.96 1028.23 1430.35 1026.73 1431.15 1025.43C1431.94 1024.13 1433.05 1023.12 1434.47 1022.4C1435.89 1021.69 1437.49 1021.33 1439.27 1021.33C1441.06 1021.33 1442.65 1021.68 1444.04 1022.38C1445.45 1023.07 1446.54 1024.03 1447.32 1025.25C1448.11 1026.48 1448.52 1027.85 1448.53 1029.38C1448.52 1030.46 1448.31 1031.5 1447.91 1032.5C1447.5 1033.49 1446.81 1034.6 1445.84 1035.82C1444.86 1037.03 1443.48 1038.52 1441.7 1040.27L1435.95 1046.09V1046.33H1449V1050H1429.98V1046.88ZM1452.52 1041.02L1465.02 1021.72H1470.33V1040.86H1474.2V1044.49H1470.33V1050H1466.27V1044.49H1452.52V1041.02ZM1466.27 1040.86V1026.84H1465.95L1457.05 1040.62V1040.86H1466.27ZM1391.15 1093.33C1393.05 1093.33 1394.8 1093.76 1396.4 1094.62C1398.02 1095.46 1399.33 1096.9 1400.35 1098.91C1401.38 1100.92 1401.89 1103.56 1401.89 1106.84C1401.89 1110.11 1401.44 1112.91 1400.54 1115.24C1399.64 1117.57 1398.36 1119.35 1396.7 1120.57C1395.04 1121.79 1393.09 1122.39 1390.84 1122.39C1389.13 1122.39 1387.59 1122.07 1386.23 1121.41C1384.87 1120.75 1383.77 1119.83 1382.91 1118.64C1382.06 1117.46 1381.53 1116.1 1381.3 1114.58H1385.56C1385.86 1115.8 1386.47 1116.79 1387.38 1117.53C1388.29 1118.26 1389.44 1118.63 1390.84 1118.64C1392.28 1118.64 1393.52 1118.24 1394.55 1117.43C1395.59 1116.61 1396.38 1115.43 1396.93 1113.89C1397.49 1112.36 1397.78 1110.52 1397.79 1108.37H1397.44C1396.67 1109.57 1395.65 1110.5 1394.37 1111.18C1393.11 1111.86 1391.72 1112.2 1390.21 1112.2C1388.53 1112.2 1386.99 1111.8 1385.6 1111C1384.21 1110.2 1383.1 1109.09 1382.28 1107.68C1381.47 1106.26 1381.07 1104.67 1381.07 1102.9C1381.07 1101.11 1381.49 1099.49 1382.32 1098.04C1383.15 1096.58 1384.33 1095.43 1385.86 1094.6C1387.39 1093.75 1389.16 1093.33 1391.15 1093.33ZM1385.25 1102.78C1385.25 1103.86 1385.5 1104.86 1386.01 1105.77C1386.52 1106.67 1387.22 1107.38 1388.1 1107.9C1389 1108.42 1390.02 1108.68 1391.15 1108.68C1392.26 1108.68 1393.27 1108.41 1394.2 1107.88C1395.13 1107.33 1395.87 1106.6 1396.4 1105.69C1396.94 1104.78 1397.2 1103.81 1397.2 1102.78C1397.2 1101.77 1396.94 1100.81 1396.42 1099.91C1395.9 1099 1395.18 1098.28 1394.27 1097.74C1393.36 1097.2 1392.35 1096.92 1391.23 1096.92C1390.12 1096.92 1389.11 1097.19 1388.2 1097.72C1387.29 1098.24 1386.57 1098.95 1386.03 1099.85C1385.51 1100.74 1385.25 1101.71 1385.25 1102.78ZM1419.23 1097.62V1097.39H1404.66V1093.72H1423.69V1097.55L1411.11 1122H1406.62L1419.23 1097.62ZM1437.28 1093.33C1439.18 1093.33 1440.93 1093.76 1442.54 1094.62C1444.15 1095.46 1445.46 1096.9 1446.48 1098.91C1447.51 1100.92 1448.02 1103.56 1448.02 1106.84C1448.02 1110.11 1447.57 1112.91 1446.68 1115.24C1445.78 1117.57 1444.49 1119.35 1442.83 1120.57C1441.17 1121.79 1439.22 1122.39 1436.97 1122.39C1435.26 1122.39 1433.73 1122.07 1432.36 1121.41C1431.01 1120.75 1429.9 1119.83 1429.04 1118.64C1428.19 1117.46 1427.66 1116.1 1427.44 1114.58H1431.7C1431.99 1115.8 1432.6 1116.79 1433.51 1117.53C1434.42 1118.26 1435.58 1118.63 1436.97 1118.64C1438.41 1118.64 1439.65 1118.24 1440.68 1117.43C1441.72 1116.61 1442.52 1115.43 1443.06 1113.89C1443.62 1112.36 1443.91 1110.52 1443.92 1108.37H1443.57C1442.8 1109.57 1441.78 1110.5 1440.5 1111.18C1439.24 1111.86 1437.85 1112.2 1436.34 1112.2C1434.66 1112.2 1433.13 1111.8 1431.73 1111C1430.34 1110.2 1429.23 1109.09 1428.41 1107.68C1427.61 1106.26 1427.2 1104.67 1427.2 1102.9C1427.2 1101.11 1427.62 1099.49 1428.45 1098.04C1429.29 1096.58 1430.46 1095.43 1431.99 1094.6C1433.52 1093.75 1435.29 1093.33 1437.28 1093.33ZM1431.38 1102.78C1431.38 1103.86 1431.64 1104.86 1432.14 1105.77C1432.65 1106.67 1433.35 1107.38 1434.23 1107.9C1435.13 1108.42 1436.15 1108.68 1437.28 1108.68C1438.39 1108.68 1439.4 1108.41 1440.33 1107.88C1441.27 1107.33 1442 1106.6 1442.54 1105.69C1443.07 1104.78 1443.34 1103.81 1443.34 1102.78C1443.34 1101.77 1443.08 1100.81 1442.55 1099.91C1442.03 1099 1441.32 1098.28 1440.41 1097.74C1439.49 1097.2 1438.48 1096.92 1437.36 1096.92C1436.25 1096.92 1435.24 1097.19 1434.33 1097.72C1433.42 1098.24 1432.7 1098.95 1432.16 1099.85C1431.64 1100.74 1431.38 1101.71 1431.38 1102.78ZM1463.3 1122H1458.96V1098.02H1458.8L1452.05 1102.43V1098.33L1459.08 1093.72H1463.3V1122ZM1481.23 1122H1476.89V1098.02H1476.73L1469.98 1102.43V1098.33L1477.01 1093.72H1481.23V1122ZM1498.73 1122.39C1496.81 1122.39 1495.05 1121.97 1493.43 1121.12C1491.82 1120.26 1490.5 1118.82 1489.47 1116.8C1488.45 1114.77 1487.95 1112.1 1487.95 1108.8C1487.95 1105.55 1488.39 1102.77 1489.29 1100.46C1490.19 1098.13 1491.47 1096.36 1493.12 1095.14C1494.79 1093.93 1496.75 1093.33 1499 1093.33C1500.71 1093.33 1502.24 1093.66 1503.59 1094.32C1504.94 1094.98 1506.04 1095.89 1506.89 1097.06C1507.74 1098.23 1508.27 1099.57 1508.49 1101.06H1504.23C1503.93 1099.86 1503.33 1098.91 1502.42 1098.19C1501.52 1097.46 1500.38 1097.09 1499 1097.08C1497.55 1097.08 1496.31 1097.49 1495.27 1098.31C1494.24 1099.12 1493.45 1100.28 1492.91 1101.8C1492.36 1103.33 1492.09 1105.15 1492.09 1107.27H1492.4C1493.17 1106.08 1494.18 1105.14 1495.45 1104.48C1496.72 1103.8 1498.13 1103.46 1499.66 1103.45C1501.33 1103.45 1502.86 1103.85 1504.25 1104.66C1505.65 1105.45 1506.75 1106.56 1507.55 1107.98C1508.36 1109.38 1508.77 1110.97 1508.77 1112.74C1508.77 1114.55 1508.34 1116.19 1507.5 1117.66C1506.66 1119.14 1505.48 1120.29 1503.96 1121.14C1502.44 1121.97 1500.69 1122.39 1498.73 1122.39ZM1492.59 1112.86C1492.59 1113.9 1492.85 1114.88 1493.38 1115.79C1493.91 1116.7 1494.63 1117.43 1495.54 1117.98C1496.45 1118.52 1497.48 1118.8 1498.61 1118.8C1499.73 1118.8 1500.74 1118.53 1501.66 1118C1502.57 1117.45 1503.28 1116.73 1503.8 1115.83C1504.33 1114.92 1504.59 1113.91 1504.59 1112.82C1504.59 1111.75 1504.33 1110.77 1503.82 1109.87C1503.32 1108.97 1502.61 1108.26 1501.71 1107.74C1500.83 1107.22 1499.83 1106.96 1498.73 1106.96C1497.61 1106.96 1496.58 1107.23 1495.64 1107.78C1494.7 1108.32 1493.96 1109.04 1493.41 1109.95C1492.88 1110.85 1492.61 1111.82 1492.59 1112.86ZM1513.34 1118.88L1523.14 1108.99C1524.33 1107.77 1525.23 1106.78 1525.86 1106.02C1526.48 1105.26 1526.96 1104.51 1527.28 1103.8C1527.62 1103.07 1527.79 1102.3 1527.79 1101.49C1527.79 1100.58 1527.56 1099.78 1527.11 1099.09C1526.65 1098.4 1526.02 1097.87 1525.23 1097.49C1524.44 1097.11 1523.54 1096.92 1522.55 1096.92C1521.51 1096.92 1520.6 1097.13 1519.82 1097.55C1519.05 1097.96 1518.45 1098.55 1518.02 1099.3C1517.61 1100.05 1517.4 1100.92 1517.4 1101.92H1513.34C1513.32 1100.23 1513.71 1098.73 1514.51 1097.43C1515.3 1096.13 1516.41 1095.12 1517.83 1094.4C1519.25 1093.69 1520.85 1093.33 1522.63 1093.33C1524.42 1093.33 1526.01 1093.68 1527.4 1094.38C1528.8 1095.07 1529.9 1096.03 1530.68 1097.25C1531.47 1098.48 1531.88 1099.85 1531.89 1101.38C1531.88 1102.46 1531.67 1103.5 1531.27 1104.5C1530.86 1105.49 1530.17 1106.6 1529.2 1107.82C1528.22 1109.03 1526.84 1110.52 1525.05 1112.27L1519.31 1118.09V1118.33H1532.36V1122H1513.34V1118.88ZM1546.73 1122.39C1544.98 1122.39 1543.38 1122.06 1541.95 1121.39C1540.52 1120.73 1539.38 1119.81 1538.53 1118.62C1537.68 1117.44 1537.23 1116.1 1537.16 1114.62H1541.34C1541.42 1115.41 1541.71 1116.13 1542.2 1116.77C1542.7 1117.39 1543.34 1117.89 1544.14 1118.25C1544.93 1118.61 1545.8 1118.8 1546.73 1118.8C1547.87 1118.8 1548.88 1118.54 1549.76 1118.04C1550.66 1117.53 1551.36 1116.83 1551.87 1115.95C1552.38 1115.05 1552.63 1114.04 1552.63 1112.94C1552.63 1111.8 1552.37 1110.79 1551.85 1109.89C1551.33 1108.98 1550.61 1108.27 1549.68 1107.76C1548.76 1107.24 1547.71 1106.97 1546.54 1106.96C1544.14 1106.96 1542.49 1107.79 1541.58 1109.46H1537.52L1539.35 1093.72H1555.37V1097.39H1542.91L1541.97 1105.32H1542.24C1542.84 1104.75 1543.61 1104.29 1544.55 1103.95C1545.5 1103.6 1546.5 1103.42 1547.55 1103.41C1549.31 1103.41 1550.89 1103.82 1552.3 1104.64C1553.71 1105.44 1554.81 1106.56 1555.6 1108C1556.41 1109.42 1556.81 1111.02 1556.81 1112.82C1556.81 1114.66 1556.38 1116.3 1555.52 1117.76C1554.66 1119.21 1553.47 1120.34 1551.93 1121.16C1550.41 1121.98 1548.67 1122.39 1546.73 1122.39ZM1560.76 1113.02L1573.26 1093.72H1578.57V1112.86H1582.44V1116.49H1578.57V1122H1574.51V1116.49H1560.76V1113.02ZM1574.51 1112.86V1098.84H1574.2L1565.29 1112.62V1112.86H1574.51ZM1596.81 1122.39C1594.89 1122.39 1593.15 1122.07 1591.62 1121.41C1590.09 1120.76 1588.89 1119.85 1588 1118.68C1587.13 1117.49 1586.67 1116.14 1586.62 1114.62H1590.99C1591.04 1115.42 1591.32 1116.14 1591.83 1116.77C1592.35 1117.38 1593.04 1117.85 1593.9 1118.19C1594.76 1118.52 1595.72 1118.68 1596.77 1118.68C1597.91 1118.68 1598.92 1118.49 1599.8 1118.11C1600.7 1117.72 1601.4 1117.18 1601.91 1116.47C1602.42 1115.77 1602.67 1114.97 1602.67 1114.07C1602.67 1113.13 1602.42 1112.31 1601.91 1111.59C1601.42 1110.86 1600.69 1110.29 1599.72 1109.89C1598.76 1109.47 1597.62 1109.27 1596.3 1109.27H1593.88V1105.75H1596.3C1597.37 1105.75 1598.32 1105.57 1599.14 1105.2C1599.97 1104.83 1600.61 1104.3 1601.07 1103.62C1601.54 1102.94 1601.77 1102.16 1601.77 1101.26C1601.77 1100.4 1601.57 1099.64 1601.17 1098.99C1600.76 1098.34 1600.19 1097.83 1599.45 1097.47C1598.71 1097.1 1597.84 1096.92 1596.85 1096.92C1595.9 1096.92 1595.01 1097.09 1594.18 1097.43C1593.36 1097.77 1592.69 1098.26 1592.18 1098.89C1591.68 1099.52 1591.41 1100.24 1591.38 1101.06H1587.24C1587.28 1099.57 1587.73 1098.23 1588.59 1097.06C1589.46 1095.87 1590.63 1094.96 1592.09 1094.3C1593.54 1093.65 1595.15 1093.33 1596.89 1093.33C1598.7 1093.33 1600.29 1093.67 1601.66 1094.36C1603.02 1095.05 1604.08 1095.99 1604.82 1097.18C1605.56 1098.35 1605.93 1099.63 1605.91 1101.02C1605.93 1102.61 1605.48 1103.96 1604.59 1105.07C1603.69 1106.17 1602.46 1106.92 1600.91 1107.31V1107.51C1602.19 1107.69 1603.28 1108.09 1604.2 1108.7C1605.12 1109.3 1605.82 1110.07 1606.29 1111.02C1606.77 1111.97 1607.01 1113.04 1607.01 1114.23C1607.01 1115.78 1606.57 1117.18 1605.68 1118.43C1604.81 1119.66 1603.59 1120.63 1602.03 1121.34C1600.48 1122.04 1598.74 1122.39 1596.81 1122.39ZM1625.33 1097.62V1097.39H1610.76V1093.72H1629.78V1097.55L1617.2 1122H1612.71L1625.33 1097.62ZM1634.12 1118.88L1643.92 1108.99C1645.11 1107.77 1646.01 1106.78 1646.64 1106.02C1647.26 1105.26 1647.74 1104.51 1648.06 1103.8C1648.4 1103.07 1648.57 1102.3 1648.57 1101.49C1648.57 1100.58 1648.34 1099.78 1647.89 1099.09C1647.43 1098.4 1646.81 1097.87 1646.01 1097.49C1645.22 1097.11 1644.33 1096.92 1643.34 1096.92C1642.29 1096.92 1641.38 1097.13 1640.6 1097.55C1639.83 1097.96 1639.23 1098.55 1638.8 1099.3C1638.39 1100.05 1638.18 1100.92 1638.18 1101.92H1634.12C1634.1 1100.23 1634.49 1098.73 1635.29 1097.43C1636.08 1096.13 1637.19 1095.12 1638.61 1094.4C1640.03 1093.69 1641.63 1093.33 1643.41 1093.33C1645.2 1093.33 1646.79 1093.68 1648.18 1094.38C1649.59 1095.07 1650.68 1096.03 1651.46 1097.25C1652.26 1098.48 1652.66 1099.85 1652.67 1101.38C1652.66 1102.46 1652.45 1103.5 1652.05 1104.5C1651.64 1105.49 1650.95 1106.6 1649.98 1107.82C1649 1109.03 1647.62 1110.52 1645.84 1112.27L1640.09 1118.09V1118.33H1653.14V1122H1634.12V1118.88ZM1668.22 1122.39C1666.3 1122.39 1664.54 1121.97 1662.93 1121.12C1661.31 1120.26 1659.99 1118.82 1658.96 1116.8C1657.95 1114.77 1657.44 1112.1 1657.44 1108.8C1657.44 1105.55 1657.89 1102.77 1658.79 1100.46C1659.68 1098.13 1660.96 1096.36 1662.61 1095.14C1664.28 1093.93 1666.24 1093.33 1668.49 1093.33C1670.2 1093.33 1671.73 1093.66 1673.08 1094.32C1674.44 1094.98 1675.54 1095.89 1676.38 1097.06C1677.23 1098.23 1677.76 1099.57 1677.98 1101.06H1673.73C1673.43 1099.86 1672.82 1098.91 1671.91 1098.19C1671.01 1097.46 1669.87 1097.09 1668.49 1097.08C1667.05 1097.08 1665.8 1097.49 1664.76 1098.31C1663.73 1099.12 1662.95 1100.28 1662.4 1101.8C1661.85 1103.33 1661.58 1105.15 1661.58 1107.27H1661.89C1662.66 1106.08 1663.67 1105.14 1664.94 1104.48C1666.21 1103.8 1667.62 1103.46 1669.16 1103.45C1670.82 1103.45 1672.35 1103.85 1673.75 1104.66C1675.14 1105.45 1676.24 1106.56 1677.05 1107.98C1677.85 1109.38 1678.26 1110.97 1678.26 1112.74C1678.26 1114.55 1677.83 1116.19 1676.99 1117.66C1676.15 1119.14 1674.98 1120.29 1673.45 1121.14C1671.93 1121.97 1670.18 1122.39 1668.22 1122.39ZM1662.09 1112.86C1662.09 1113.9 1662.35 1114.88 1662.87 1115.79C1663.4 1116.7 1664.12 1117.43 1665.04 1117.98C1665.95 1118.52 1666.97 1118.8 1668.1 1118.8C1669.22 1118.8 1670.24 1118.53 1671.15 1118C1672.06 1117.45 1672.78 1116.73 1673.3 1115.83C1673.82 1114.92 1674.08 1113.91 1674.08 1112.82C1674.08 1111.75 1673.82 1110.77 1673.32 1109.87C1672.81 1108.97 1672.11 1108.26 1671.21 1107.74C1670.32 1107.22 1669.33 1106.96 1668.22 1106.96C1667.1 1106.96 1666.07 1107.23 1665.13 1107.78C1664.2 1108.32 1663.45 1109.04 1662.91 1109.95C1662.37 1110.85 1662.1 1111.82 1662.09 1112.86ZM1390.21 1163.49C1391.96 1163.51 1393.52 1163.85 1394.92 1164.53C1396.31 1165.19 1397.4 1166.12 1398.2 1167.3C1398.99 1168.49 1399.39 1169.83 1399.39 1171.34C1399.39 1172.85 1398.99 1174.2 1398.2 1175.39C1397.4 1176.57 1396.31 1177.5 1394.92 1178.16C1393.52 1178.82 1391.96 1179.16 1390.21 1179.16C1388.45 1179.16 1386.87 1178.82 1385.46 1178.16C1384.07 1177.5 1382.98 1176.57 1382.18 1175.39C1381.39 1174.2 1380.99 1172.85 1380.99 1171.34C1380.99 1169.83 1381.39 1168.49 1382.18 1167.3C1382.98 1166.12 1384.07 1165.19 1385.46 1164.53C1386.87 1163.85 1388.45 1163.51 1390.21 1163.49ZM1384.62 1171.34C1384.62 1172.29 1384.86 1173.13 1385.33 1173.86C1385.81 1174.58 1386.47 1175.14 1387.32 1175.54C1388.18 1175.95 1389.14 1176.15 1390.21 1176.15C1391.28 1176.15 1392.24 1175.95 1393.08 1175.54C1393.93 1175.14 1394.59 1174.58 1395.07 1173.86C1395.56 1173.13 1395.8 1172.29 1395.8 1171.34C1395.8 1170.41 1395.56 1169.58 1395.07 1168.86C1394.59 1168.13 1393.92 1167.57 1393.06 1167.18C1392.22 1166.79 1391.27 1166.6 1390.21 1166.62C1389.14 1166.6 1388.18 1166.79 1387.32 1167.18C1386.47 1167.57 1385.81 1168.13 1385.33 1168.86C1384.86 1169.58 1384.62 1170.41 1384.62 1171.34ZM1386.3 1181.73H1409.31V1190.56H1390.02V1193.92H1410.48V1196.89H1386.42V1187.79H1405.64V1184.7H1386.3V1181.73ZM1405.6 1162.32H1409.31V1180.13H1405.6V1162.32ZM1442.36 1172.67H1447.44V1175.8H1442.36V1188.06H1438.65V1162.36H1442.36V1172.67ZM1416.23 1164.86H1419.86V1170.45H1429.04V1164.86H1432.71V1182.28H1416.23V1164.86ZM1429.04 1179.31V1173.38H1419.86V1179.31H1429.04ZM1420.17 1185.52H1423.88V1193.57H1443.84V1196.58H1420.17V1185.52ZM1461.62 1172.63C1461.62 1174.47 1461.99 1176.33 1462.75 1178.22C1463.51 1180.09 1464.56 1181.8 1465.91 1183.34C1467.28 1184.86 1468.83 1186.03 1470.56 1186.85L1468.45 1189.74C1466.53 1188.82 1464.81 1187.44 1463.3 1185.6C1461.79 1183.75 1460.63 1181.67 1459.82 1179.35C1459.01 1181.86 1457.82 1184.13 1456.25 1186.15C1454.68 1188.15 1452.92 1189.65 1450.95 1190.64L1448.77 1187.71C1450.5 1186.88 1452.06 1185.65 1453.45 1184.04C1454.86 1182.41 1455.96 1180.6 1456.75 1178.59C1457.55 1176.57 1457.95 1174.59 1457.95 1172.63V1168.92H1450.05V1165.84H1469.23V1168.92H1461.62V1172.63ZM1472.98 1162.32H1476.7V1176.19H1482.32V1179.31H1476.7V1197.32H1472.98V1162.32ZM1516.03 1193.14H1484V1190.02H1492.75V1183.84H1487.91V1172.71H1508.45V1167.83H1487.83V1164.78H1512.12V1175.72H1491.58V1180.8H1512.95V1183.84H1507.63V1190.02H1516.03V1193.14ZM1504 1190.02V1183.84H1496.34V1190.02H1504ZM1547.55 1180.33H1543.88V1162.32H1547.55V1180.33ZM1518.69 1177.2C1520.47 1176.6 1522.03 1175.73 1523.36 1174.59C1524.7 1173.44 1525.72 1172.12 1526.42 1170.62C1527.14 1169.12 1527.5 1167.57 1527.52 1165.95V1163.26H1531.3V1165.95C1531.3 1167.5 1531.66 1168.99 1532.36 1170.41C1533.06 1171.83 1534.07 1173.08 1535.39 1174.16C1536.7 1175.22 1538.24 1176.03 1540.02 1176.58L1538.18 1179.47C1536.15 1178.8 1534.38 1177.82 1532.89 1176.5C1531.39 1175.18 1530.24 1173.63 1529.45 1171.83C1528.64 1173.77 1527.47 1175.46 1525.93 1176.91C1524.41 1178.36 1522.62 1179.43 1520.56 1180.13L1518.69 1177.2ZM1524.59 1182.01H1547.59V1190.76H1528.3V1194H1548.77V1196.97H1524.7V1187.95H1543.92V1184.94H1524.59V1182.01ZM1391.38 1266.39C1389.36 1266.39 1387.56 1266.05 1385.97 1265.38C1384.4 1264.7 1383.17 1263.76 1382.28 1262.56C1381.41 1261.35 1380.98 1259.98 1380.99 1258.46C1380.98 1257.28 1381.23 1256.18 1381.73 1255.16C1382.26 1254.13 1382.96 1253.29 1383.86 1252.62C1384.77 1251.94 1385.78 1251.52 1386.89 1251.35V1251.2C1385.93 1250.97 1385.08 1250.56 1384.35 1249.96C1383.62 1249.35 1383.06 1248.6 1382.65 1247.72C1382.25 1246.83 1382.05 1245.88 1382.05 1244.87C1382.05 1243.43 1382.44 1242.15 1383.24 1241C1384.05 1239.85 1385.16 1238.96 1386.58 1238.3C1388 1237.65 1389.6 1237.33 1391.38 1237.33C1393.14 1237.33 1394.72 1237.65 1396.13 1238.3C1397.55 1238.96 1398.66 1239.85 1399.47 1241C1400.28 1242.15 1400.68 1243.43 1400.68 1244.87C1400.68 1245.88 1400.47 1246.83 1400.05 1247.72C1399.65 1248.6 1399.08 1249.35 1398.34 1249.96C1397.61 1250.56 1396.77 1250.97 1395.84 1251.2V1251.35C1396.93 1251.52 1397.93 1251.94 1398.82 1252.62C1399.74 1253.29 1400.45 1254.13 1400.97 1255.16C1401.51 1256.18 1401.77 1257.28 1401.77 1258.46C1401.77 1259.98 1401.32 1261.35 1400.43 1262.56C1399.54 1263.76 1398.31 1264.7 1396.73 1265.38C1395.16 1266.05 1393.38 1266.39 1391.38 1266.39ZM1385.37 1258.15C1385.35 1259.07 1385.59 1259.89 1386.07 1260.59C1386.55 1261.29 1387.25 1261.85 1388.16 1262.25C1389.08 1262.64 1390.16 1262.84 1391.38 1262.84C1392.59 1262.84 1393.65 1262.64 1394.55 1262.25C1395.46 1261.86 1396.16 1261.31 1396.66 1260.61C1397.15 1259.89 1397.4 1259.07 1397.4 1258.15C1397.4 1257.18 1397.14 1256.33 1396.62 1255.57C1396.1 1254.8 1395.38 1254.2 1394.47 1253.77C1393.56 1253.33 1392.53 1253.11 1391.38 1253.11C1390.22 1253.11 1389.18 1253.33 1388.26 1253.77C1387.33 1254.2 1386.62 1254.8 1386.11 1255.57C1385.6 1256.34 1385.35 1257.2 1385.37 1258.15ZM1386.23 1245.26C1386.23 1246.13 1386.45 1246.9 1386.89 1247.58C1387.33 1248.26 1387.94 1248.79 1388.71 1249.16C1389.49 1249.53 1390.38 1249.71 1391.38 1249.71C1392.36 1249.71 1393.23 1249.53 1394 1249.16C1394.78 1248.79 1395.39 1248.26 1395.82 1247.58C1396.25 1246.9 1396.46 1246.13 1396.46 1245.26C1396.46 1244.39 1396.25 1243.62 1395.82 1242.95C1395.4 1242.28 1394.81 1241.76 1394.04 1241.39C1393.27 1241.03 1392.39 1240.84 1391.38 1240.84C1390.37 1240.84 1389.47 1241.03 1388.69 1241.39C1387.91 1241.76 1387.3 1242.28 1386.87 1242.95C1386.44 1243.62 1386.23 1244.39 1386.23 1245.26ZM1416.97 1266H1412.63V1242.02H1412.48L1405.72 1246.43V1242.33L1412.75 1237.72H1416.97V1266ZM1434.2 1266.39C1432.27 1266.39 1430.54 1266.07 1429 1265.41C1427.48 1264.76 1426.27 1263.85 1425.39 1262.68C1424.51 1261.49 1424.05 1260.14 1424 1258.62H1428.38C1428.43 1259.42 1428.71 1260.14 1429.21 1260.77C1429.74 1261.38 1430.43 1261.85 1431.29 1262.19C1432.14 1262.52 1433.1 1262.68 1434.16 1262.68C1435.29 1262.68 1436.3 1262.49 1437.18 1262.11C1438.08 1261.72 1438.79 1261.18 1439.29 1260.47C1439.8 1259.77 1440.05 1258.97 1440.05 1258.07C1440.05 1257.13 1439.8 1256.31 1439.29 1255.59C1438.8 1254.86 1438.07 1254.29 1437.11 1253.89C1436.14 1253.47 1435 1253.27 1433.69 1253.27H1431.27V1249.75H1433.69C1434.76 1249.75 1435.7 1249.57 1436.52 1249.2C1437.35 1248.83 1438 1248.3 1438.45 1247.62C1438.92 1246.94 1439.16 1246.16 1439.16 1245.26C1439.16 1244.4 1438.95 1243.64 1438.55 1242.99C1438.15 1242.34 1437.57 1241.83 1436.83 1241.47C1436.09 1241.1 1435.22 1240.92 1434.23 1240.92C1433.28 1240.92 1432.39 1241.09 1431.56 1241.43C1430.74 1241.77 1430.07 1242.26 1429.57 1242.89C1429.06 1243.52 1428.79 1244.24 1428.77 1245.06H1424.62C1424.66 1243.57 1425.11 1242.23 1425.97 1241.06C1426.85 1239.87 1428.01 1238.96 1429.47 1238.3C1430.93 1237.65 1432.53 1237.33 1434.27 1237.33C1436.08 1237.33 1437.67 1237.67 1439.04 1238.36C1440.41 1239.05 1441.46 1239.99 1442.2 1241.18C1442.95 1242.35 1443.31 1243.63 1443.3 1245.02C1443.31 1246.61 1442.87 1247.96 1441.97 1249.07C1441.07 1250.17 1439.85 1250.92 1438.3 1251.31V1251.51C1439.57 1251.69 1440.67 1252.09 1441.58 1252.7C1442.5 1253.3 1443.2 1254.07 1443.67 1255.02C1444.15 1255.97 1444.39 1257.04 1444.39 1258.23C1444.39 1259.78 1443.95 1261.18 1443.06 1262.43C1442.19 1263.66 1440.97 1264.63 1439.41 1265.34C1437.86 1266.04 1436.12 1266.39 1434.2 1266.39ZM1451.03 1266.27C1450.54 1266.27 1450.07 1266.15 1449.64 1265.9C1449.23 1265.65 1448.89 1265.32 1448.63 1264.91C1448.38 1264.49 1448.26 1264.03 1448.26 1263.54C1448.26 1263.03 1448.38 1262.56 1448.63 1262.13C1448.88 1261.7 1449.21 1261.36 1449.62 1261.12C1450.05 1260.86 1450.52 1260.73 1451.03 1260.73C1451.53 1260.73 1451.98 1260.85 1452.4 1261.1C1452.83 1261.35 1453.17 1261.68 1453.41 1262.11C1453.67 1262.54 1453.8 1263.01 1453.8 1263.5C1453.8 1263.99 1453.67 1264.46 1453.41 1264.89C1453.17 1265.3 1452.83 1265.64 1452.4 1265.9C1451.98 1266.15 1451.53 1266.27 1451.03 1266.27ZM1467.71 1266.39C1465.69 1266.39 1463.89 1266.05 1462.3 1265.38C1460.73 1264.7 1459.49 1263.76 1458.61 1262.56C1457.74 1261.35 1457.31 1259.98 1457.32 1258.46C1457.31 1257.28 1457.55 1256.18 1458.06 1255.16C1458.58 1254.13 1459.29 1253.29 1460.19 1252.62C1461.1 1251.94 1462.11 1251.52 1463.22 1251.35V1251.2C1462.26 1250.97 1461.41 1250.56 1460.68 1249.96C1459.95 1249.35 1459.38 1248.6 1458.98 1247.72C1458.58 1246.83 1458.38 1245.88 1458.38 1244.87C1458.38 1243.43 1458.77 1242.15 1459.57 1241C1460.37 1239.85 1461.49 1238.96 1462.91 1238.3C1464.33 1237.65 1465.93 1237.33 1467.71 1237.33C1469.47 1237.33 1471.05 1237.65 1472.46 1238.3C1473.88 1238.96 1474.99 1239.85 1475.8 1241C1476.6 1242.15 1477.01 1243.43 1477.01 1244.87C1477.01 1245.88 1476.8 1246.83 1476.38 1247.72C1475.98 1248.6 1475.41 1249.35 1474.66 1249.96C1473.93 1250.56 1473.1 1250.97 1472.16 1251.2V1251.35C1473.26 1251.52 1474.25 1251.94 1475.15 1252.62C1476.06 1253.29 1476.78 1254.13 1477.3 1255.16C1477.83 1256.18 1478.1 1257.28 1478.1 1258.46C1478.1 1259.98 1477.65 1261.35 1476.75 1262.56C1475.87 1263.76 1474.64 1264.7 1473.06 1265.38C1471.49 1266.05 1469.7 1266.39 1467.71 1266.39ZM1461.7 1258.15C1461.68 1259.07 1461.92 1259.89 1462.4 1260.59C1462.88 1261.29 1463.58 1261.85 1464.49 1262.25C1465.41 1262.64 1466.49 1262.84 1467.71 1262.84C1468.92 1262.84 1469.98 1262.64 1470.88 1262.25C1471.79 1261.86 1472.49 1261.31 1472.98 1260.61C1473.48 1259.89 1473.73 1259.07 1473.73 1258.15C1473.73 1257.18 1473.47 1256.33 1472.95 1255.57C1472.42 1254.8 1471.71 1254.2 1470.8 1253.77C1469.89 1253.33 1468.86 1253.11 1467.71 1253.11C1466.55 1253.11 1465.51 1253.33 1464.59 1253.77C1463.66 1254.2 1462.95 1254.8 1462.44 1255.57C1461.93 1256.34 1461.68 1257.2 1461.7 1258.15ZM1462.55 1245.26C1462.55 1246.13 1462.78 1246.9 1463.22 1247.58C1463.66 1248.26 1464.27 1248.79 1465.04 1249.16C1465.82 1249.53 1466.71 1249.71 1467.71 1249.71C1468.69 1249.71 1469.56 1249.53 1470.33 1249.16C1471.11 1248.79 1471.71 1248.26 1472.14 1247.58C1472.57 1246.9 1472.79 1246.13 1472.79 1245.26C1472.79 1244.39 1472.57 1243.62 1472.14 1242.95C1471.73 1242.28 1471.14 1241.76 1470.37 1241.39C1469.6 1241.03 1468.71 1240.84 1467.71 1240.84C1466.7 1240.84 1465.8 1241.03 1465.02 1241.39C1464.23 1241.76 1463.63 1242.28 1463.2 1242.95C1462.77 1243.62 1462.55 1244.39 1462.55 1245.26ZM1510.33 1269.4H1506.62V1234.32H1510.33V1269.4ZM1482.55 1249.2C1482.55 1246.76 1482.94 1244.61 1483.71 1242.76C1484.48 1240.9 1485.54 1239.46 1486.91 1238.46C1488.29 1237.45 1489.86 1236.94 1491.62 1236.94C1493.35 1236.94 1494.9 1237.45 1496.27 1238.46C1497.63 1239.46 1498.7 1240.9 1499.47 1242.76C1500.25 1244.61 1500.64 1246.76 1500.64 1249.2C1500.64 1251.68 1500.25 1253.85 1499.47 1255.71C1498.7 1257.57 1497.63 1259 1496.27 1260C1494.9 1261.01 1493.35 1261.51 1491.62 1261.51C1489.86 1261.51 1488.29 1261.01 1486.91 1260C1485.54 1259 1484.48 1257.57 1483.71 1255.71C1482.94 1253.85 1482.55 1251.68 1482.55 1249.2ZM1486.15 1249.2C1486.15 1251.03 1486.38 1252.61 1486.83 1253.97C1487.29 1255.32 1487.93 1256.36 1488.75 1257.09C1489.58 1257.82 1490.54 1258.19 1491.62 1258.19C1492.68 1258.19 1493.63 1257.82 1494.45 1257.09C1495.27 1256.36 1495.91 1255.32 1496.36 1253.97C1496.82 1252.61 1497.05 1251.03 1497.05 1249.2C1497.05 1247.41 1496.82 1245.84 1496.36 1244.5C1495.91 1243.14 1495.27 1242.1 1494.45 1241.37C1493.63 1240.63 1492.68 1240.26 1491.62 1240.26C1490.54 1240.26 1489.58 1240.63 1488.75 1241.37C1487.93 1242.1 1487.29 1243.14 1486.83 1244.5C1486.38 1245.84 1486.15 1247.41 1486.15 1249.2ZM1526.73 1266.39C1524.98 1266.39 1523.38 1266.06 1521.95 1265.39C1520.52 1264.73 1519.38 1263.81 1518.53 1262.62C1517.68 1261.44 1517.23 1260.1 1517.16 1258.62H1521.34C1521.42 1259.41 1521.71 1260.13 1522.2 1260.77C1522.7 1261.39 1523.34 1261.89 1524.14 1262.25C1524.93 1262.61 1525.8 1262.8 1526.73 1262.8C1527.87 1262.8 1528.88 1262.54 1529.76 1262.04C1530.66 1261.53 1531.36 1260.83 1531.87 1259.95C1532.38 1259.05 1532.63 1258.04 1532.63 1256.94C1532.63 1255.8 1532.37 1254.79 1531.85 1253.89C1531.33 1252.98 1530.61 1252.27 1529.68 1251.76C1528.76 1251.24 1527.71 1250.97 1526.54 1250.96C1524.14 1250.96 1522.49 1251.79 1521.58 1253.46H1517.52L1519.35 1237.72H1535.37V1241.39H1522.91L1521.97 1249.32H1522.24C1522.84 1248.75 1523.61 1248.29 1524.55 1247.95C1525.5 1247.6 1526.5 1247.42 1527.55 1247.41C1529.31 1247.41 1530.89 1247.82 1532.3 1248.64C1533.71 1249.44 1534.81 1250.56 1535.6 1252C1536.41 1253.42 1536.81 1255.02 1536.81 1256.82C1536.81 1258.66 1536.38 1260.3 1535.52 1261.76C1534.66 1263.21 1533.47 1264.34 1531.93 1265.16C1530.41 1265.98 1528.67 1266.39 1526.73 1266.39ZM1551.7 1266.39C1549.78 1266.39 1548.02 1265.97 1546.4 1265.12C1544.79 1264.26 1543.47 1262.82 1542.44 1260.8C1541.42 1258.77 1540.91 1256.1 1540.91 1252.8C1540.91 1249.55 1541.36 1246.77 1542.26 1244.46C1543.16 1242.13 1544.44 1240.36 1546.09 1239.14C1547.76 1237.93 1549.72 1237.33 1551.97 1237.33C1553.67 1237.33 1555.2 1237.66 1556.56 1238.32C1557.91 1238.98 1559.01 1239.89 1559.86 1241.06C1560.71 1242.23 1561.24 1243.57 1561.46 1245.06H1557.2C1556.9 1243.86 1556.3 1242.91 1555.39 1242.19C1554.49 1241.46 1553.35 1241.09 1551.97 1241.08C1550.52 1241.08 1549.28 1241.49 1548.24 1242.31C1547.21 1243.12 1546.42 1244.28 1545.88 1245.8C1545.33 1247.33 1545.05 1249.15 1545.05 1251.27H1545.37C1546.14 1250.08 1547.15 1249.14 1548.41 1248.48C1549.69 1247.8 1551.1 1247.46 1552.63 1247.45C1554.3 1247.45 1555.83 1247.85 1557.22 1248.66C1558.62 1249.45 1559.72 1250.56 1560.52 1251.98C1561.33 1253.38 1561.73 1254.97 1561.73 1256.74C1561.73 1258.55 1561.31 1260.19 1560.46 1261.66C1559.63 1263.14 1558.45 1264.29 1556.93 1265.14C1555.41 1265.97 1553.66 1266.39 1551.7 1266.39ZM1545.56 1256.86C1545.56 1257.9 1545.82 1258.88 1546.34 1259.79C1546.88 1260.7 1547.6 1261.43 1548.51 1261.98C1549.42 1262.52 1550.45 1262.8 1551.58 1262.8C1552.7 1262.8 1553.71 1262.53 1554.62 1262C1555.54 1261.45 1556.25 1260.73 1556.77 1259.83C1557.29 1258.92 1557.55 1257.91 1557.55 1256.82C1557.55 1255.75 1557.3 1254.77 1556.79 1253.87C1556.29 1252.97 1555.58 1252.26 1554.68 1251.74C1553.8 1251.22 1552.8 1250.96 1551.7 1250.96C1550.58 1250.96 1549.55 1251.23 1548.61 1251.78C1547.67 1252.32 1546.93 1253.04 1546.38 1253.95C1545.85 1254.85 1545.58 1255.82 1545.56 1256.86ZM1576.15 1266.39C1573.97 1266.39 1572.11 1265.82 1570.54 1264.69C1568.99 1263.55 1567.81 1261.89 1566.99 1259.71C1566.17 1257.54 1565.76 1254.92 1565.76 1251.86C1565.76 1248.81 1566.17 1246.2 1566.99 1244.03C1567.82 1241.85 1569.01 1240.19 1570.56 1239.05C1572.12 1237.9 1573.99 1237.33 1576.15 1237.33C1578.3 1237.33 1580.15 1237.9 1581.7 1239.05C1583.26 1240.19 1584.46 1241.85 1585.29 1244.03C1586.12 1246.2 1586.54 1248.81 1586.54 1251.86C1586.54 1254.92 1586.12 1257.54 1585.29 1259.73C1584.47 1261.9 1583.28 1263.56 1581.73 1264.69C1580.18 1265.82 1578.32 1266.39 1576.15 1266.39ZM1570.05 1251.96C1570.05 1254.26 1570.3 1256.21 1570.78 1257.82C1571.26 1259.42 1571.96 1260.63 1572.87 1261.45C1573.78 1262.27 1574.87 1262.68 1576.15 1262.68C1577.42 1262.68 1578.52 1262.27 1579.43 1261.45C1580.34 1260.62 1581.04 1259.39 1581.52 1257.78C1582 1256.16 1582.24 1254.19 1582.24 1251.86C1582.24 1249.54 1581.99 1247.57 1581.5 1245.94C1581.02 1244.31 1580.32 1243.08 1579.41 1242.25C1578.5 1241.4 1577.41 1240.97 1576.15 1240.96C1574.87 1240.96 1573.78 1241.39 1572.87 1242.25C1571.96 1243.1 1571.26 1244.35 1570.78 1246C1570.3 1247.64 1570.05 1249.63 1570.05 1251.96Z" fill="#6B7684"/>
<circle cx="700" cy="1166" r="400" fill="#EEEEEE"/>
<path d="M956.992 734.477H952.852V716.469H948.867V732.68H944.883V699.828H948.867V712.992H952.852V699.164H956.992V734.477ZM927.695 703.344H940.898V706.859H932.07V722.562C934.115 722.536 935.964 722.458 937.617 722.328C939.271 722.198 940.951 721.977 942.656 721.664L942.969 725.219C941.003 725.609 939.069 725.87 937.168 726C935.28 726.13 932.917 726.208 930.078 726.234H927.695V703.344ZM993.281 717.641H979.375V720.219H989.336V728.5H969.258V730.922H990.312V734.164H965V725.531H985.078V723.344H964.961V720.219H975.078V717.641H961.25V714.438H993.281V717.641ZM962.656 710.023C964.935 709.906 966.914 709.639 968.594 709.223C970.286 708.793 971.641 708.246 972.656 707.582C973.672 706.905 974.329 706.143 974.629 705.297H964.336V702.055H975.078V699.086H979.375V702.055H990.195V705.297H979.824C980.111 706.143 980.755 706.905 981.758 707.582C982.773 708.246 984.128 708.793 985.82 709.223C987.526 709.639 989.531 709.906 991.836 710.023L990.547 713.266C987.357 713.07 984.616 712.549 982.324 711.703C980.033 710.857 978.333 709.724 977.227 708.305C976.12 709.724 974.421 710.857 972.129 711.703C969.837 712.549 967.083 713.07 963.867 713.266L962.656 710.023ZM954.258 760.953H959.492V764.586H954.258V782.398H949.922V747.164H954.258V760.953ZM926.406 772.75C930.716 770.602 934.036 768.017 936.367 764.996C938.698 761.962 940.078 758.44 940.508 754.43H928.32V750.836H944.922C944.896 762.424 939.544 770.849 928.867 776.109L926.406 772.75ZM989.727 759.859H965.352V747.789H969.688V756.344H989.727V759.859ZM961.172 763.258H993.398V766.773H961.172V763.258ZM964.922 775.836C964.922 774.469 965.41 773.297 966.387 772.32C967.376 771.344 968.789 770.602 970.625 770.094C972.474 769.573 974.674 769.312 977.227 769.312C979.766 769.312 981.947 769.573 983.77 770.094C985.605 770.602 987.012 771.344 987.988 772.32C988.965 773.284 989.453 774.456 989.453 775.836C989.453 777.203 988.965 778.368 987.988 779.332C987.012 780.309 985.605 781.051 983.77 781.559C981.947 782.066 979.766 782.32 977.227 782.32C974.674 782.32 972.474 782.066 970.625 781.559C968.789 781.051 967.376 780.309 966.387 779.332C965.41 778.368 964.922 777.203 964.922 775.836ZM969.336 775.836C969.323 776.852 969.993 777.633 971.348 778.18C972.702 778.714 974.661 778.987 977.227 779C979.753 778.987 981.693 778.714 983.047 778.18C984.414 777.633 985.104 776.852 985.117 775.836C985.104 774.807 984.421 774.033 983.066 773.512C981.725 772.991 979.779 772.724 977.227 772.711C974.635 772.724 972.669 772.991 971.328 773.512C969.987 774.033 969.323 774.807 969.336 775.836Z" fill="white"/>
<path d="M353.492 1802.79C353.478 1804.12 353.729 1805.4 354.244 1806.63C354.774 1807.87 355.576 1808.97 356.65 1809.94C357.739 1810.9 359.078 1811.64 360.668 1812.16L358.219 1816.28C356.543 1815.68 355.096 1814.85 353.879 1813.79C352.676 1812.71 351.716 1811.45 351 1810.01C350.284 1811.6 349.317 1812.98 348.1 1814.15C346.882 1815.33 345.4 1816.24 343.652 1816.88L341.16 1812.84C343.509 1811.96 345.278 1810.61 346.467 1808.8C347.67 1807 348.279 1804.99 348.293 1802.79V1802.57H342.234V1798.28H348.293V1794.24H353.492V1798.28H359.508V1802.57H353.492V1802.79ZM347.734 1819.46H374.762V1832.95H369.305V1823.89H347.734V1819.46ZM361.27 1794.5H366.426V1803.69H369.562V1793.89H374.762V1817.79H369.562V1808.12H366.426V1817.7H361.27V1794.5ZM414.98 1828.27H379.188V1823.89H394.141V1815.04H399.598V1823.89H414.98V1828.27ZM380.047 1811.73C382.883 1811.28 385.346 1810.4 387.438 1809.08C389.543 1807.77 391.147 1806.21 392.25 1804.4C393.353 1802.6 393.911 1800.76 393.926 1798.88V1796.09H399.77V1798.88C399.755 1800.77 400.299 1802.62 401.402 1804.42C402.52 1806.23 404.138 1807.79 406.258 1809.11C408.378 1810.41 410.87 1811.28 413.734 1811.73L411.414 1816.28C408.034 1815.67 405.09 1814.5 402.584 1812.78C400.077 1811.06 398.165 1808.96 396.848 1806.48C395.544 1808.96 393.639 1811.07 391.133 1812.8C388.641 1814.52 385.719 1815.68 382.367 1816.28L380.047 1811.73ZM450.945 1832.95H445.66V1813.06H442.094V1831.23H436.98V1794.88H442.094V1808.68H445.66V1793.85H450.945V1832.95ZM416.742 1821.14C420.638 1818.85 423.538 1816.24 425.443 1813.32C427.363 1810.39 428.508 1806.97 428.881 1803.05H418.719V1798.66H434.23C434.216 1802.5 433.765 1806 432.877 1809.15C432.003 1812.29 430.514 1815.19 428.408 1817.85C426.317 1820.5 423.488 1822.86 419.922 1824.92L416.742 1821.14Z" fill="#191F28"/>
<g filter="url(#filter0_d_2498_5085)">
<rect width="2160" height="320" transform="translate(0 3520)" fill="white"/>
<g clip-path="url(#clip1_2498_5085)">
<path d="M180 3669.5C184.4 3669.5 188 3665.9 188 3661.5H172C172 3665.9 175.6 3669.5 180 3669.5ZM204 3645.5V3625.5C204 3613.22 197.48 3602.94 186 3600.22V3597.5C186 3594.18 183.32 3591.5 180 3591.5C176.68 3591.5 174 3594.18 174 3597.5V3600.22C162.56 3602.94 156 3613.18 156 3625.5V3645.5L148 3653.5V3657.5H212V3653.5L204 3645.5ZM196 3649.5H164V3625.5C164 3615.58 170.04 3607.5 180 3607.5C189.96 3607.5 196 3615.58 196 3625.5V3649.5Z" fill="#ADB5BD"/>
</g>
<path d="M122.723 3720.76C131.166 3720.78 136.494 3723.44 136.516 3728.06C136.494 3732.57 131.166 3735.28 122.723 3735.28C114.365 3735.28 108.973 3732.57 108.973 3728.06C108.973 3723.44 114.365 3720.78 122.723 3720.76ZM105.32 3717.96V3714.1H118.984V3707.05H123.711V3714.1H140.555V3717.96H105.32ZM109.359 3702.11V3698.33H136.258V3701.55C136.279 3704.62 136.279 3707.89 135.184 3711.86L130.457 3711.43C131.424 3707.67 131.488 3704.92 131.488 3702.11H109.359ZM113.785 3728.06C113.742 3730.34 117.115 3731.59 122.723 3731.59C128.352 3731.59 131.746 3730.34 131.789 3728.06C131.746 3725.7 128.352 3724.37 122.723 3724.37C117.115 3724.37 113.742 3725.7 113.785 3728.06ZM157.914 3707.52C157.914 3713.88 161.652 3720.59 167.926 3723.21L165.305 3726.99C160.707 3724.99 157.355 3720.93 155.572 3715.99C153.789 3721.32 150.373 3725.79 145.84 3727.93L143.09 3724.2C149.213 3721.36 153.037 3714.12 153.059 3707.52V3704.26H144.508V3700.3H166.422V3704.26H157.914V3707.52ZM170.762 3735.32V3696.48H175.574V3735.32H170.762ZM195.168 3705.8C195.125 3712.74 198.605 3719.75 204.621 3722.65L201.699 3726.47C197.488 3724.35 194.459 3720.24 192.805 3715.3C191.107 3720.59 187.928 3724.97 183.48 3727.2L180.559 3723.38C186.811 3720.41 190.377 3712.98 190.398 3705.8V3699.62H195.168V3705.8ZM206.941 3735.32V3696.48H211.711V3711.69H217.684V3715.77H211.711V3735.32H206.941ZM249.953 3696.48V3706.71H255.367V3710.7H249.953V3721.27H245.184V3696.48H249.953ZM219.359 3704.17V3700.43H228.512V3696.22H233.281V3700.43H242.391V3704.17H219.359ZM221.336 3712.68C221.336 3708.51 225.203 3705.74 230.875 3705.72C236.482 3705.74 240.35 3708.51 240.371 3712.68C240.35 3716.85 236.482 3719.6 230.875 3719.6C225.203 3719.6 221.336 3716.85 221.336 3712.68ZM224.43 3728.45C224.387 3724.13 229.35 3721.6 237.406 3721.62C245.377 3721.6 250.383 3724.13 250.383 3728.45C250.383 3732.72 245.377 3735.28 237.406 3735.28C229.35 3735.28 224.387 3732.72 224.43 3728.45ZM225.977 3712.68C225.955 3714.79 227.932 3716.01 230.875 3715.99C233.818 3716.01 235.816 3714.79 235.816 3712.68C235.816 3710.53 233.818 3709.24 230.875 3709.24C227.932 3709.24 225.955 3710.53 225.977 3712.68ZM229.156 3728.45C229.135 3730.51 232.1 3731.67 237.406 3731.67C242.648 3731.67 245.592 3730.51 245.613 3728.45C245.592 3726.32 242.648 3725.27 237.406 3725.27C232.1 3725.27 229.135 3726.32 229.156 3728.45Z" fill="#ADB5BD"/>
<path d="M157.48 3759.36V3773.5H155.801L148.145 3762.48H148.008V3773.5H146.25V3759.36H147.949L155.605 3770.39H155.742V3759.36H157.48ZM172.559 3766.43C172.568 3770.9 169.932 3773.7 166.309 3773.7C162.676 3773.7 160.049 3770.9 160.059 3766.43C160.049 3761.96 162.676 3759.16 166.309 3759.16C169.932 3759.16 172.568 3761.96 172.559 3766.43ZM161.758 3766.43C161.768 3770.07 163.75 3772.04 166.309 3772.05C168.867 3772.04 170.85 3770.07 170.859 3766.43C170.85 3762.78 168.867 3760.8 166.309 3760.8C163.75 3760.8 161.768 3762.78 161.758 3766.43ZM173.77 3760.92V3759.36H184.434V3760.92H180V3773.5H178.223V3760.92H173.77ZM188.535 3759.36V3773.5H186.777V3759.36H188.535ZM201.309 3763.81C200.898 3761.86 199.229 3760.8 197.363 3760.8C194.805 3760.8 192.822 3762.78 192.812 3766.43C192.822 3770.07 194.805 3772.04 197.363 3772.05C199.229 3772.04 200.889 3771 201.309 3769.07H203.066C202.559 3771.96 200.234 3773.7 197.363 3773.7C193.73 3773.7 191.104 3770.9 191.113 3766.43C191.104 3761.96 193.73 3759.16 197.363 3759.16C200.225 3759.16 202.539 3760.87 203.066 3763.81H201.309ZM205.527 3773.5V3759.36H214.102V3760.92H207.285V3765.65H213.652V3767.19H207.285V3771.94H214.199V3773.5H205.527Z" fill="#ADB5BD"/>
<g clip-path="url(#clip2_2498_5085)">
<path d="M521.579 3625.96H514.211V3651.86H521.579V3625.96ZM543.684 3625.96H536.316V3651.86H543.684V3625.96ZM575 3659.26H505V3666.66H575V3659.26ZM565.789 3625.96H558.421V3651.86H565.789V3625.96ZM540 3601.02L559.195 3611.16H520.805L540 3601.02ZM540 3592.66L505 3611.16V3618.56H575V3611.16L540 3592.66Z" fill="#ADB5BD"/>
</g>
<path d="M497.246 3696.65V3735.24H493.164V3696.65H497.246ZM466.695 3713.02C466.695 3704.79 470.842 3699.55 476.664 3699.53C482.379 3699.55 486.59 3704.79 486.59 3713.02C486.59 3721.34 482.379 3726.58 476.664 3726.56C470.842 3726.58 466.695 3721.34 466.695 3713.02ZM470.648 3713.02C470.627 3719.15 473.076 3722.91 476.664 3722.91C480.188 3722.91 482.637 3719.15 482.637 3713.02C482.637 3706.99 480.188 3703.21 476.664 3703.18C473.076 3703.21 470.627 3706.99 470.648 3713.02ZM538.496 3715.43V3718.74H503.391V3715.43H511.812V3710.25C508.826 3709.05 507.15 3707.12 507.172 3704.56C507.15 3699.98 512.457 3697.32 520.922 3697.34C529.365 3697.32 534.65 3699.98 534.672 3704.56C534.65 3707.12 532.975 3709.05 529.988 3710.27V3715.43H538.496ZM507.559 3728.19C507.559 3723.79 512.543 3721.36 520.922 3721.36C529.193 3721.36 534.178 3723.79 534.199 3728.19C534.178 3732.64 529.193 3735.07 520.922 3735.07C512.543 3735.07 507.559 3732.64 507.559 3728.19ZM511.383 3704.56C511.361 3707.14 514.928 3708.58 520.922 3708.6C526.873 3708.58 530.482 3707.14 530.461 3704.56C530.482 3701.98 526.873 3700.5 520.922 3700.48C514.928 3700.5 511.361 3701.98 511.383 3704.56ZM511.684 3728.19C511.662 3730.6 515.035 3731.97 520.922 3731.93C526.723 3731.97 530.117 3730.6 530.117 3728.19C530.117 3725.83 526.723 3724.5 520.922 3724.5C515.035 3724.5 511.662 3725.83 511.684 3728.19ZM515.938 3715.43H525.949V3711.33C524.445 3711.56 522.748 3711.69 520.922 3711.69C519.117 3711.69 517.441 3711.56 515.938 3711.35V3715.43ZM571.668 3696.61V3708.12H577.254V3711.56H571.668V3724.93H567.586V3696.61H571.668ZM542.02 3708.86C541.977 3703.25 546.445 3699.29 552.246 3699.27C558.068 3699.29 562.473 3703.25 562.516 3708.86C562.473 3714.46 558.068 3718.46 552.246 3718.44C546.445 3718.46 541.977 3714.46 542.02 3708.86ZM546.016 3708.86C545.973 3712.44 548.723 3714.87 552.246 3714.87C555.812 3714.87 558.498 3712.44 558.52 3708.86C558.498 3705.27 555.812 3702.84 552.246 3702.84C548.723 3702.84 545.973 3705.27 546.016 3708.86ZM547.262 3734.34V3721.96H551.344V3731.03H573.301V3734.34H547.262ZM612.402 3696.65V3735.15H608.492V3715.43H603.551V3733.18H599.727V3697.43H603.551V3712.08H608.492V3696.65H612.402ZM581.25 3725.36V3701.21H585.332V3721.77C588.877 3721.72 592.766 3721.45 597.148 3720.59L597.578 3724.15C592.293 3725.1 587.889 3725.38 583.742 3725.36H581.25Z" fill="#ADB5BD"/>
<path d="M477.637 3759.36V3773.5H475.879V3759.36H477.637ZM491.992 3759.36V3773.5H490.312L482.656 3762.48H482.52V3773.5H480.762V3759.36H482.461L490.117 3770.39H490.254V3759.36H491.992ZM495.117 3773.5V3759.36H503.633V3760.92H496.875V3765.65H502.988V3767.19H496.875V3773.5H495.117ZM518.203 3766.43C518.213 3770.9 515.576 3773.7 511.953 3773.7C508.32 3773.7 505.693 3770.9 505.703 3766.43C505.693 3761.96 508.32 3759.16 511.953 3759.16C515.576 3759.16 518.213 3761.96 518.203 3766.43ZM507.402 3766.43C507.412 3770.07 509.395 3772.04 511.953 3772.05C514.512 3772.04 516.494 3770.07 516.504 3766.43C516.494 3762.78 514.512 3760.8 511.953 3760.8C509.395 3760.8 507.412 3762.78 507.402 3766.43ZM520.781 3773.5V3759.36H525.586C528.896 3759.36 530.41 3761.2 530.41 3763.71C530.41 3765.59 529.57 3767.05 527.773 3767.68L530.957 3773.5H528.906L525.947 3768C525.84 3768.01 525.723 3768.01 525.605 3768.01H522.539V3773.5H520.781ZM522.539 3766.41H525.527C527.783 3766.41 528.662 3765.39 528.672 3763.71C528.662 3762.03 527.783 3760.92 525.508 3760.92H522.539V3766.41ZM532.949 3759.36H535.059L539.824 3771H540L544.766 3759.36H546.875V3773.5H545.215V3762.82H545.078L540.684 3773.5H539.121L534.727 3762.82H534.609V3773.5H532.949V3759.36ZM550.625 3773.5H548.789L553.965 3759.36H555.82L560.996 3773.5H559.141L557.725 3769.52H552.041L550.625 3773.5ZM552.578 3767.97H557.188L554.941 3761.64H554.824L552.578 3767.97ZM560.469 3760.92V3759.36H571.133V3760.92H566.699V3773.5H564.922V3760.92H560.469ZM575.234 3759.36V3773.5H573.477V3759.36H575.234ZM590.312 3766.43C590.322 3770.9 587.686 3773.7 584.062 3773.7C580.43 3773.7 577.803 3770.9 577.812 3766.43C577.803 3761.96 580.43 3759.16 584.062 3759.16C587.686 3759.16 590.322 3761.96 590.312 3766.43ZM579.512 3766.43C579.521 3770.07 581.504 3772.04 584.062 3772.05C586.621 3772.04 588.604 3770.07 588.613 3766.43C588.604 3762.78 586.621 3760.8 584.062 3760.8C581.504 3760.8 579.521 3762.78 579.512 3766.43ZM604.121 3759.36V3773.5H602.441L594.785 3762.48H594.648V3773.5H592.891V3759.36H594.59L602.246 3770.39H602.383V3759.36H604.121Z" fill="#ADB5BD"/>
<g clip-path="url(#clip3_2498_5085)">
<path d="M900 3589.5C884.52 3589.5 872 3602.02 872 3617.5C872 3638.5 900 3669.5 900 3669.5C900 3669.5 928 3638.5 928 3617.5C928 3602.02 915.48 3589.5 900 3589.5ZM880 3617.5C880 3606.46 888.96 3597.5 900 3597.5C911.04 3597.5 920 3606.46 920 3617.5C920 3629.02 908.48 3646.26 900 3657.02C891.68 3646.34 880 3628.9 880 3617.5Z" fill="#ADB5BD"/>
<path d="M900 3627.5C905.523 3627.5 910 3623.02 910 3617.5C910 3611.98 905.523 3607.5 900 3607.5C894.477 3607.5 890 3611.98 890 3617.5C890 3623.02 894.477 3627.5 900 3627.5Z" fill="#ADB5BD"/>
</g>
<path d="M839.5 3706.45C839.457 3713.47 843.711 3720.56 849.684 3723.21L847.234 3726.43C842.809 3724.32 839.307 3720.01 837.502 3714.74C835.719 3720.39 832.174 3725.03 827.555 3727.29L825.062 3723.85C831.121 3721.17 835.375 3713.8 835.375 3706.45V3699.88H839.5V3706.45ZM853.164 3735.24V3696.65H857.246V3735.24H853.164ZM895.488 3696.65V3716.46H891.406V3706.58H883.285V3703.27H891.406V3696.65H895.488ZM863.262 3713.37C869.277 3711.46 872.865 3706.66 872.887 3701.25V3697.9H876.926V3701.25C876.926 3706.15 880.449 3710.7 886.25 3712.55L884.102 3715.73C879.869 3714.27 876.668 3711.37 874.971 3707.7C873.295 3711.84 870.008 3715.06 865.453 3716.63L863.262 3713.37ZM870.309 3721.49V3718.27H895.488V3727.85H874.391V3731.41H896.82V3734.68H870.395V3724.75H891.449V3721.49H870.309ZM931.668 3696.61V3708.12H937.254V3711.56H931.668V3724.93H927.586V3696.61H931.668ZM902.02 3708.86C901.977 3703.25 906.445 3699.29 912.246 3699.27C918.068 3699.29 922.473 3703.25 922.516 3708.86C922.473 3714.46 918.068 3718.46 912.246 3718.44C906.445 3718.46 901.977 3714.46 902.02 3708.86ZM906.016 3708.86C905.973 3712.44 908.723 3714.87 912.246 3714.87C915.812 3714.87 918.498 3712.44 918.52 3708.86C918.498 3705.27 915.812 3702.84 912.246 3702.84C908.723 3702.84 905.973 3705.27 906.016 3708.86ZM907.262 3734.34V3721.96H911.344V3731.03H933.301V3734.34H907.262ZM972.402 3696.65V3735.15H968.492V3715.43H963.551V3733.18H959.727V3697.43H963.551V3712.08H968.492V3696.65H972.402ZM941.25 3725.36V3701.21H945.332V3721.77C948.877 3721.72 952.766 3721.45 957.148 3720.59L957.578 3724.15C952.293 3725.1 947.889 3725.38 943.742 3725.36H941.25Z" fill="#ADB5BD"/>
<path d="M861.162 3773.5V3759.36H869.678V3760.92H862.92V3765.65H869.033V3767.19H862.92V3773.5H861.162ZM871.143 3773.5H869.307L874.482 3759.36H876.338L881.514 3773.5H879.658L878.242 3769.52H872.559L871.143 3773.5ZM873.096 3767.97H877.705L875.459 3761.64H875.342L873.096 3767.97ZM892.412 3763.81C892.002 3761.86 890.332 3760.8 888.467 3760.8C885.908 3760.8 883.926 3762.78 883.916 3766.43C883.926 3770.07 885.908 3772.04 888.467 3772.05C890.332 3772.04 891.992 3771 892.412 3769.07H894.17C893.662 3771.96 891.338 3773.7 888.467 3773.7C884.834 3773.7 882.207 3770.9 882.217 3766.43C882.207 3761.96 884.834 3759.16 888.467 3759.16C891.328 3759.16 893.643 3760.87 894.17 3763.81H892.412ZM898.389 3759.36V3773.5H896.631V3759.36H898.389ZM901.514 3773.5V3759.36H903.271V3771.94H909.834V3773.5H901.514ZM913.936 3759.36V3773.5H912.178V3759.36H913.936ZM916.279 3760.92V3759.36H926.943V3760.92H922.51V3773.5H920.732V3760.92H916.279ZM928.076 3759.36H930.088L933.975 3765.92H934.15L938.037 3759.36H940.068L934.951 3767.7V3773.5H933.174V3767.7L928.076 3759.36Z" fill="#ADB5BD"/>
<path d="M1296.68 3575.74C1293.81 3575.25 1290.91 3574.99 1288 3574.98C1278.07 3574.97 1268.35 3577.82 1260 3583.18C1251.62 3577.89 1241.9 3575.11 1232 3575.18C1229.09 3575.19 1226.19 3575.45 1223.32 3575.94C1222.38 3576.1 1221.53 3576.59 1220.92 3577.33C1220.31 3578.06 1219.98 3578.99 1220 3579.94V3627.94C1219.99 3628.53 1220.11 3629.11 1220.35 3629.65C1220.6 3630.18 1220.95 3630.66 1221.4 3631.04C1221.85 3631.42 1222.37 3631.7 1222.94 3631.86C1223.51 3632.01 1224.1 3632.04 1224.68 3631.94C1230.41 3630.95 1236.28 3631.11 1241.95 3632.42C1247.62 3633.74 1252.97 3636.17 1257.68 3639.58L1258.16 3639.86H1258.6C1259.04 3640.05 1259.52 3640.14 1260 3640.14C1260.48 3640.14 1260.95 3640.05 1261.4 3639.86H1261.84L1262.32 3639.58C1267 3636.09 1272.33 3633.58 1278 3632.19C1283.67 3630.81 1289.56 3630.57 1295.32 3631.5C1295.9 3631.6 1296.49 3631.57 1297.06 3631.42C1297.63 3631.26 1298.15 3630.98 1298.6 3630.6C1299.04 3630.22 1299.4 3629.74 1299.64 3629.21C1299.89 3628.67 1300.01 3628.09 1300 3627.5V3579.5C1299.96 3578.59 1299.6 3577.72 1299 3577.04C1298.4 3576.35 1297.58 3575.89 1296.68 3575.74ZM1256 3628.9C1248.6 3625.01 1240.36 3622.98 1232 3622.98C1230.68 3622.98 1229.36 3622.98 1228 3622.98V3582.98C1229.33 3582.9 1230.67 3582.9 1232 3582.98C1240.53 3582.97 1248.88 3585.48 1256 3590.18V3628.9ZM1292 3623.14C1290.64 3623.14 1289.32 3623.14 1288 3623.14C1279.64 3623.14 1271.4 3625.17 1264 3629.06V3590.18C1271.12 3585.48 1279.46 3582.97 1288 3582.98C1289.33 3582.9 1290.67 3582.9 1292 3582.98V3623.14ZM1296.68 3639.74C1293.81 3639.25 1290.91 3638.99 1288 3638.98C1278.07 3638.97 1268.35 3641.82 1260 3647.18C1251.64 3641.82 1241.92 3638.97 1232 3638.98C1229.09 3638.99 1226.19 3639.25 1223.32 3639.74C1222.8 3639.82 1222.3 3640.01 1221.85 3640.28C1221.4 3640.56 1221.01 3640.92 1220.7 3641.35C1220.39 3641.78 1220.17 3642.26 1220.05 3642.78C1219.93 3643.29 1219.91 3643.82 1220 3644.34C1220.2 3645.38 1220.81 3646.3 1221.69 3646.89C1222.56 3647.48 1223.64 3647.7 1224.68 3647.5C1230.41 3646.51 1236.28 3646.67 1241.95 3647.98C1247.62 3649.3 1252.97 3651.73 1257.68 3655.14C1258.36 3655.62 1259.17 3655.88 1260 3655.88C1260.83 3655.88 1261.64 3655.62 1262.32 3655.14C1267.03 3651.73 1272.38 3649.3 1278.05 3647.98C1283.71 3646.67 1289.59 3646.51 1295.32 3647.5C1296.36 3647.7 1297.43 3647.48 1298.31 3646.89C1299.19 3646.3 1299.8 3645.38 1300 3644.34C1300.08 3643.82 1300.07 3643.29 1299.95 3642.78C1299.82 3642.26 1299.6 3641.78 1299.29 3641.35C1298.99 3640.92 1298.6 3640.56 1298.15 3640.28C1297.7 3640.01 1297.2 3639.82 1296.68 3639.74Z" fill="#191F28"/>
<path d="M1217.59 3682.52V3710.88H1212.78V3682.52H1217.59ZM1185.28 3701.73C1191.57 3699.52 1194.79 3694.04 1194.77 3688.45V3684.67H1199.71V3688.45C1199.69 3693.87 1202.87 3698.98 1209.04 3701.04L1206.59 3704.82C1202.16 3703.28 1199.01 3700.18 1197.29 3696.21C1195.57 3700.46 1192.35 3703.86 1187.77 3705.51L1185.28 3701.73ZM1191.89 3720.55V3708.18H1196.71V3716.68H1218.66V3720.55H1191.89ZM1237.23 3690.9C1237.21 3695.16 1240.36 3699.41 1246.51 3701.09L1244.27 3704.91C1239.83 3703.62 1236.65 3700.94 1234.88 3697.54C1233.19 3701.26 1229.96 3704.18 1225.41 3705.55L1223.09 3701.82C1229.21 3700.05 1232.46 3695.54 1232.46 3690.9V3690.6H1224.34V3686.82H1232.46V3682.35H1237.27V3686.82H1245.35V3690.6H1237.23V3690.9ZM1228.03 3711.83V3708H1253.9V3721.37H1249.13V3711.83H1228.03ZM1249.13 3706.24V3682.48H1253.9V3692.32H1259.31V3696.36H1253.9V3706.24H1249.13ZM1292.83 3700.14V3703.92H1281.31V3712.82H1296.78V3716.73H1261.29V3712.82H1276.59V3703.92H1265.59V3685.36H1292.53V3689.18H1270.36V3700.14H1292.83ZM1313.67 3691.8C1313.65 3699.02 1317.11 3706.11 1323.29 3708.82L1320.41 3712.64C1316.03 3710.5 1312.94 3706.37 1311.28 3701.28C1309.59 3706.65 1306.41 3711.12 1301.94 3713.38L1298.93 3709.51C1305.27 3706.54 1308.79 3699.07 1308.81 3691.8V3685.62H1313.67V3691.8ZM1319 3698.89V3695.03H1327.16V3682.48H1331.89V3721.37H1327.16V3698.89H1319Z" fill="#191F28"/>
<path d="M1168.02 3745.36V3759.5H1166.34L1158.68 3748.48H1158.54V3759.5H1156.79V3745.36H1158.49L1166.14 3756.39H1166.28V3745.36H1168.02ZM1171.14 3759.5V3745.36H1179.72V3746.92H1172.9V3751.65H1179.27V3753.19H1172.9V3757.94H1179.81V3759.5H1171.14ZM1185.11 3759.5L1181.24 3745.36H1183.02L1185.97 3756.8H1186.1L1189.09 3745.36H1191.06L1194.07 3756.8H1194.19L1197.14 3745.36H1198.92L1195.05 3759.5H1193.23L1190.15 3748.31H1190.03L1186.92 3759.5H1185.11ZM1206.44 3759.5H1204.6L1209.78 3745.36H1211.63L1216.81 3759.5H1214.95L1213.54 3755.52H1207.85L1206.44 3759.5ZM1208.39 3753.97H1213L1210.75 3747.64H1210.63L1208.39 3753.97ZM1218.72 3759.5V3745.36H1223.53C1226.84 3745.36 1228.35 3747.2 1228.35 3749.71C1228.35 3751.59 1227.51 3753.05 1225.71 3753.68L1228.9 3759.5H1226.85L1223.89 3754C1223.78 3754.01 1223.66 3754.01 1223.54 3754.01H1220.48V3759.5H1218.72ZM1220.48 3752.41H1223.47C1225.72 3752.41 1226.6 3751.39 1226.61 3749.71C1226.6 3748.03 1225.72 3746.92 1223.45 3746.92H1220.48V3752.41ZM1230.89 3759.5V3745.36H1235.69C1239 3745.36 1240.52 3747.2 1240.52 3749.71C1240.52 3751.59 1239.68 3753.05 1237.88 3753.68L1241.06 3759.5H1239.01L1236.05 3754C1235.95 3754.01 1235.83 3754.01 1235.71 3754.01H1232.65V3759.5H1230.89ZM1232.65 3752.41H1235.63C1237.89 3752.41 1238.77 3751.39 1238.78 3749.71C1238.77 3748.03 1237.89 3746.92 1235.62 3746.92H1232.65V3752.41ZM1244.81 3745.36V3759.5H1243.06V3745.36H1244.81ZM1248.58 3745.36L1252.74 3757.21H1252.9L1257.08 3745.36H1258.94L1253.76 3759.5H1251.9L1246.73 3745.36H1248.58ZM1260.22 3759.5H1258.39L1263.56 3745.36H1265.42L1270.6 3759.5H1268.74L1267.32 3755.52H1261.64L1260.22 3759.5ZM1262.18 3753.97H1266.79L1264.54 3747.64H1264.42L1262.18 3753.97ZM1272.51 3759.5V3745.36H1274.27V3757.94H1280.83V3759.5H1272.51ZM1290.89 3748.91C1290.74 3747.53 1289.45 3746.73 1287.76 3746.73C1285.89 3746.73 1284.67 3747.7 1284.66 3749.05C1284.67 3750.54 1286.32 3751.09 1287.39 3751.36L1288.8 3751.75C1290.31 3752.14 1292.8 3753.01 1292.8 3755.65C1292.8 3757.96 1290.95 3759.74 1287.67 3759.75C1284.62 3759.74 1282.73 3758.17 1282.57 3755.83H1284.37C1284.51 3757.41 1285.99 3758.16 1287.67 3758.15C1289.62 3758.16 1291.08 3757.16 1291.08 3755.61C1291.08 3754.24 1289.78 3753.71 1288.29 3753.29L1286.55 3752.82C1284.34 3752.18 1282.95 3751.04 1282.96 3749.13C1282.95 3746.74 1285.08 3745.16 1287.82 3745.16C1290.57 3745.16 1292.54 3746.77 1292.61 3748.91H1290.89ZM1300.34 3759.5V3745.36H1305.3C1308.27 3745.36 1309.67 3747.03 1309.66 3749.11C1309.67 3750.93 1308.58 3751.74 1307.35 3752.08V3752.21C1308.67 3752.29 1310.21 3753.5 1310.22 3755.75C1310.21 3757.87 1308.82 3759.5 1305.48 3759.5H1300.34ZM1302.1 3757.94H1305.46C1307.68 3757.94 1308.54 3756.96 1308.53 3755.73C1308.54 3754.29 1307.37 3753.07 1305.56 3753.07H1302.1V3757.94ZM1302.1 3751.55H1305.24C1306.78 3751.56 1307.98 3750.6 1307.98 3749.13C1307.98 3747.9 1307.15 3746.92 1305.3 3746.92H1302.1V3751.55ZM1324.68 3752.43C1324.69 3756.9 1322.05 3759.7 1318.43 3759.7C1314.79 3759.7 1312.17 3756.9 1312.18 3752.43C1312.17 3747.96 1314.79 3745.16 1318.43 3745.16C1322.05 3745.16 1324.69 3747.96 1324.68 3752.43ZM1313.88 3752.43C1313.89 3756.07 1315.87 3758.04 1318.43 3758.05C1320.99 3758.04 1322.97 3756.07 1322.98 3752.43C1322.97 3748.78 1320.99 3746.8 1318.43 3746.8C1315.87 3746.8 1313.89 3748.78 1313.88 3752.43ZM1339.21 3752.43C1339.22 3756.9 1336.58 3759.7 1332.96 3759.7C1329.33 3759.7 1326.7 3756.9 1326.71 3752.43C1326.7 3747.96 1329.33 3745.16 1332.96 3745.16C1336.58 3745.16 1339.22 3747.96 1339.21 3752.43ZM1328.41 3752.43C1328.42 3756.07 1330.4 3758.04 1332.96 3758.05C1335.52 3758.04 1337.5 3756.07 1337.51 3752.43C1337.5 3748.78 1335.52 3746.8 1332.96 3746.8C1330.4 3746.8 1328.42 3748.78 1328.41 3752.43ZM1341.79 3759.5V3745.36H1343.54V3752.35H1343.72L1350.01 3745.36H1352.31L1346.4 3751.75L1352.31 3759.5H1350.17L1345.3 3752.96L1343.54 3754.95V3759.5H1341.79ZM1361.9 3748.91C1361.76 3747.53 1360.47 3746.73 1358.78 3746.73C1356.9 3746.73 1355.68 3747.7 1355.67 3749.05C1355.68 3750.54 1357.33 3751.09 1358.41 3751.36L1359.81 3751.75C1361.33 3752.14 1363.82 3753.01 1363.82 3755.65C1363.82 3757.96 1361.96 3759.74 1358.68 3759.75C1355.63 3759.74 1353.75 3758.17 1353.58 3755.83H1355.38C1355.53 3757.41 1357 3758.16 1358.68 3758.15C1360.63 3758.16 1362.1 3757.16 1362.1 3755.61C1362.1 3754.24 1360.79 3753.71 1359.31 3753.29L1357.57 3752.82C1355.35 3752.18 1353.96 3751.04 1353.97 3749.13C1353.96 3746.74 1356.09 3745.16 1358.84 3745.16C1361.58 3745.16 1363.55 3746.77 1363.62 3748.91H1361.9Z" fill="#191F28"/>
<path d="M1200 3792.5C1246.86 3792.5 1273.14 3792.5 1320 3792.5" stroke="#191F28" stroke-width="7" stroke-linecap="round"/>
<path d="M1656 3597.5H1644V3593.5C1644 3592.44 1643.58 3591.42 1642.83 3590.67C1642.08 3589.92 1641.06 3589.5 1640 3589.5H1600C1598.94 3589.5 1597.92 3589.92 1597.17 3590.67C1596.42 3591.42 1596 3592.44 1596 3593.5V3597.5H1584C1582.94 3597.5 1581.92 3597.92 1581.17 3598.67C1580.42 3599.42 1580 3600.44 1580 3601.5V3613.5C1580 3617.74 1581.69 3621.81 1584.69 3624.81C1587.69 3627.81 1591.76 3629.5 1596 3629.5H1602.16C1605.78 3633.54 1610.66 3636.23 1616 3637.14V3645.5H1612C1608.82 3645.5 1605.77 3646.76 1603.51 3649.01C1601.26 3651.27 1600 3654.32 1600 3657.5V3665.5C1600 3666.56 1600.42 3667.58 1601.17 3668.33C1601.92 3669.08 1602.94 3669.5 1604 3669.5H1636C1637.06 3669.5 1638.08 3669.08 1638.83 3668.33C1639.58 3667.58 1640 3666.56 1640 3665.5V3657.5C1640 3654.32 1638.74 3651.27 1636.49 3649.01C1634.23 3646.76 1631.18 3645.5 1628 3645.5H1624V3637.14C1629.34 3636.23 1634.22 3633.54 1637.84 3629.5H1644C1648.24 3629.5 1652.31 3627.81 1655.31 3624.81C1658.31 3621.81 1660 3617.74 1660 3613.5V3601.5C1660 3600.44 1659.58 3599.42 1658.83 3598.67C1658.08 3597.92 1657.06 3597.5 1656 3597.5ZM1596 3621.5C1593.88 3621.5 1591.84 3620.66 1590.34 3619.16C1588.84 3617.66 1588 3615.62 1588 3613.5V3605.5H1596V3613.5C1596.01 3616.23 1596.48 3618.93 1597.4 3621.5H1596ZM1628 3653.5C1629.06 3653.5 1630.08 3653.92 1630.83 3654.67C1631.58 3655.42 1632 3656.44 1632 3657.5V3661.5H1608V3657.5C1608 3656.44 1608.42 3655.42 1609.17 3654.67C1609.92 3653.92 1610.94 3653.5 1612 3653.5H1628ZM1636 3613.5C1636 3617.74 1634.31 3621.81 1631.31 3624.81C1628.31 3627.81 1624.24 3629.5 1620 3629.5C1615.76 3629.5 1611.69 3627.81 1608.69 3624.81C1605.69 3621.81 1604 3617.74 1604 3613.5V3597.5H1636V3613.5ZM1652 3613.5C1652 3615.62 1651.16 3617.66 1649.66 3619.16C1648.16 3620.66 1646.12 3621.5 1644 3621.5H1642.6C1643.52 3618.93 1643.99 3616.23 1644 3613.5V3605.5H1652V3613.5Z" fill="#ADB5BD"/>
<path d="M1559.39 3696.65V3735.15H1555.48V3715.26H1550.5V3733.18H1546.76V3697.43H1550.5V3711.91H1555.48V3696.65H1559.39ZM1527.64 3725.91V3701.29H1542.08V3704.6H1531.72V3722.43C1536.45 3722.41 1540.01 3722.2 1544.14 3721.4L1544.44 3724.75C1539.82 3725.72 1535.82 3725.87 1530.22 3725.91H1527.64ZM1599.44 3713.54V3716.59H1583.93V3719.81H1595.06V3728.49H1572.63V3731.67H1596.13V3734.77H1568.63V3725.66H1591.02V3722.78H1568.59V3719.81H1579.89V3716.59H1564.42V3713.54H1599.44ZM1566.14 3708.94C1573.51 3708.53 1578.71 3706.28 1579.54 3703.01H1567.9V3699.88H1579.89V3696.48H1583.93V3699.88H1595.96V3703.01H1584.25C1585.07 3706.28 1590.27 3708.53 1597.72 3708.94L1596.47 3712.04C1589.77 3711.54 1584.31 3709.59 1581.91 3706.21C1579.5 3709.59 1574.04 3711.54 1567.3 3712.04L1566.14 3708.94ZM1607.56 3700.35V3709.59H1614.95V3700.35H1618.69V3711.09H1623.8V3697.43H1627.71V3733.3H1623.8V3714.48H1618.69V3725.66H1603.69V3700.35H1607.56ZM1607.56 3722.26H1614.95V3712.89H1607.56V3722.26ZM1631.62 3735.15V3696.65H1635.53V3735.15H1631.62ZM1659.98 3702.11C1659.98 3708.38 1666.66 3714.31 1674.08 3715.64L1672.19 3719.04C1666.02 3717.71 1660.37 3713.67 1657.88 3708.25C1655.34 3713.65 1649.69 3717.66 1643.53 3719.04L1641.72 3715.64C1649.03 3714.27 1655.66 3708.38 1655.69 3702.11V3699.19H1659.98V3702.11ZM1640.43 3730.08V3726.69H1675.67V3730.08H1640.43ZM1709.7 3717.15V3720.41H1682.88V3699.83H1709.31V3703.14H1687.01V3708.34H1708.49V3711.56H1687.01V3717.15H1709.7ZM1678.46 3730.3V3726.95H1713.69V3730.3H1678.46Z" fill="#ADB5BD"/>
<path d="M1529.55 3773.5V3759.36H1534.51C1537.48 3759.36 1538.88 3761.03 1538.87 3763.11C1538.88 3764.93 1537.79 3765.74 1536.56 3766.08V3766.21C1537.88 3766.29 1539.42 3767.5 1539.43 3769.75C1539.42 3771.87 1538.03 3773.5 1534.69 3773.5H1529.55ZM1531.31 3771.94H1534.67C1536.88 3771.94 1537.74 3770.96 1537.73 3769.73C1537.74 3768.29 1536.58 3767.07 1534.77 3767.07H1531.31V3771.94ZM1531.31 3765.55H1534.45C1535.99 3765.56 1537.19 3764.6 1537.19 3763.13C1537.19 3761.9 1536.36 3760.92 1534.51 3760.92H1531.31V3765.55ZM1541.93 3773.5V3759.36H1550.51V3760.92H1543.69V3765.65H1550.06V3767.19H1543.69V3771.94H1550.61V3773.5H1541.93ZM1561 3762.91C1560.85 3761.53 1559.56 3760.73 1557.87 3760.73C1556 3760.73 1554.78 3761.7 1554.77 3763.05C1554.78 3764.54 1556.43 3765.09 1557.5 3765.36L1558.91 3765.75C1560.42 3766.14 1562.91 3767.01 1562.91 3769.65C1562.91 3771.96 1561.05 3773.74 1557.77 3773.75C1554.73 3773.74 1552.84 3772.17 1552.68 3769.83H1554.47C1554.62 3771.41 1556.09 3772.16 1557.77 3772.15C1559.73 3772.16 1561.19 3771.16 1561.19 3769.61C1561.19 3768.24 1559.88 3767.71 1558.4 3767.29L1556.66 3766.82C1554.44 3766.18 1553.06 3765.04 1553.07 3763.13C1553.06 3760.74 1555.19 3759.16 1557.93 3759.16C1560.67 3759.16 1562.65 3760.77 1562.71 3762.91H1561ZM1564.65 3760.92V3759.36H1575.31V3760.92H1570.88V3773.5H1569.1V3760.92H1564.65ZM1582.68 3773.5V3759.36H1587.48C1590.79 3759.36 1592.3 3761.2 1592.3 3763.71C1592.3 3765.59 1591.46 3767.05 1589.67 3767.68L1592.85 3773.5H1590.8L1587.84 3768C1587.73 3768.01 1587.62 3768.01 1587.5 3768.01H1584.43V3773.5H1582.68ZM1584.43 3766.41H1587.42C1589.68 3766.41 1590.56 3765.39 1590.57 3763.71C1590.56 3762.03 1589.68 3760.92 1587.4 3760.92H1584.43V3766.41ZM1594.84 3773.5V3759.36H1603.42V3760.92H1596.6V3765.65H1602.97V3767.19H1596.6V3771.94H1603.52V3773.5H1594.84ZM1617.42 3759.36V3773.5H1615.74L1608.09 3762.48H1607.95V3773.5H1606.19V3759.36H1607.89L1615.55 3770.39H1615.68V3759.36H1617.42ZM1619.77 3760.92V3759.36H1630.43V3760.92H1626V3773.5H1624.22V3760.92H1619.77ZM1631.74 3773.5H1629.9L1635.08 3759.36H1636.93L1642.11 3773.5H1640.25L1638.84 3769.52H1633.15L1631.74 3773.5ZM1633.69 3767.97H1638.3L1636.05 3761.64H1635.94L1633.69 3767.97ZM1644.02 3773.5V3759.36H1645.78V3771.94H1652.34V3773.5H1644.02ZM1659.71 3773.5V3759.36H1664.67C1667.64 3759.36 1669.03 3761.03 1669.02 3763.11C1669.03 3764.93 1667.95 3765.74 1666.72 3766.08V3766.21C1668.04 3766.29 1669.58 3767.5 1669.59 3769.75C1669.58 3771.87 1668.18 3773.5 1664.84 3773.5H1659.71ZM1661.46 3771.94H1664.82C1667.04 3771.94 1667.9 3770.96 1667.89 3769.73C1667.9 3768.29 1666.74 3767.07 1664.92 3767.07H1661.46V3771.94ZM1661.46 3765.55H1664.61C1666.14 3765.56 1667.34 3764.6 1667.34 3763.13C1667.34 3761.9 1666.51 3760.92 1664.67 3760.92H1661.46V3765.55ZM1684.04 3766.43C1684.05 3770.9 1681.42 3773.7 1677.79 3773.7C1674.16 3773.7 1671.53 3770.9 1671.54 3766.43C1671.53 3761.96 1674.16 3759.16 1677.79 3759.16C1681.42 3759.16 1684.05 3761.96 1684.04 3766.43ZM1673.24 3766.43C1673.25 3770.07 1675.23 3772.04 1677.79 3772.05C1680.35 3772.04 1682.33 3770.07 1682.34 3766.43C1682.33 3762.78 1680.35 3760.8 1677.79 3760.8C1675.23 3760.8 1673.25 3762.78 1673.24 3766.43ZM1698.57 3766.43C1698.58 3770.9 1695.95 3773.7 1692.32 3773.7C1688.69 3773.7 1686.06 3770.9 1686.07 3766.43C1686.06 3761.96 1688.69 3759.16 1692.32 3759.16C1695.95 3759.16 1698.58 3761.96 1698.57 3766.43ZM1687.77 3766.43C1687.78 3770.07 1689.77 3772.04 1692.32 3772.05C1694.88 3772.04 1696.87 3770.07 1696.88 3766.43C1696.87 3762.78 1694.88 3760.8 1692.32 3760.8C1689.77 3760.8 1687.78 3762.78 1687.77 3766.43ZM1701.15 3773.5V3759.36H1702.91V3766.35H1703.09L1709.38 3759.36H1711.68L1705.76 3765.75L1711.68 3773.5H1709.53L1704.67 3766.96L1702.91 3768.95V3773.5H1701.15Z" fill="#ADB5BD"/>
<g clip-path="url(#clip4_2498_5085)">
<path d="M1968 3629.5C1975.72 3629.5 1982 3623.22 1982 3615.5C1982 3607.78 1975.72 3601.5 1968 3601.5C1960.28 3601.5 1954 3607.78 1954 3615.5C1954 3623.22 1960.28 3629.5 1968 3629.5ZM1968 3609.5C1971.32 3609.5 1974 3612.18 1974 3615.5C1974 3618.82 1971.32 3621.5 1968 3621.5C1964.68 3621.5 1962 3618.82 1962 3615.5C1962 3612.18 1964.68 3609.5 1968 3609.5ZM1968.2 3649.5H1951.08C1955.04 3647.5 1961.88 3645.5 1968 3645.5C1968.44 3645.5 1968.92 3645.54 1969.36 3645.54C1970.72 3642.62 1973.08 3640.22 1975.92 3638.3C1973 3637.78 1970.24 3637.5 1968 3637.5C1958.64 3637.5 1940 3642.18 1940 3651.5V3657.5H1968V3651.5C1968 3650.82 1968.08 3650.14 1968.2 3649.5ZM1998 3639.5C1990.64 3639.5 1976 3643.54 1976 3651.5V3657.5H2020V3651.5C2020 3643.54 2005.36 3639.5 1998 3639.5ZM2002.84 3632.22C2005.88 3630.5 2008 3627.26 2008 3623.5C2008 3617.98 2003.52 3613.5 1998 3613.5C1992.48 3613.5 1988 3617.98 1988 3623.5C1988 3627.26 1990.12 3630.5 1993.16 3632.22C1994.6 3633.02 1996.24 3633.5 1998 3633.5C1999.76 3633.5 2001.4 3633.02 2002.84 3632.22Z" fill="#ADB5BD"/>
</g>
<path d="M1935.61 3696.65V3706.36H1941.2V3709.67H1935.61V3719.51H1931.53V3696.65H1935.61ZM1905.32 3716.5C1914.34 3713.97 1919.87 3708.94 1920.62 3702.71H1907.04V3699.4H1925.04C1925.04 3709.35 1918.28 3716.55 1907 3719.81L1905.32 3716.5ZM1910.56 3727.5C1910.52 3722.82 1915.59 3719.92 1923.32 3719.94C1931.08 3719.92 1936.04 3722.82 1936.04 3727.5C1936.04 3732.23 1931.08 3735.09 1923.32 3735.11C1915.59 3735.09 1910.52 3732.23 1910.56 3727.5ZM1914.6 3727.5C1914.58 3730.21 1917.93 3731.87 1923.32 3731.89C1928.67 3731.87 1932.05 3730.21 1932.05 3727.5C1932.05 3724.8 1928.67 3723.14 1923.32 3723.16C1917.93 3723.14 1914.58 3724.8 1914.6 3727.5ZM1957.18 3703.48C1957.18 3708.17 1960.75 3712.42 1966.55 3714.14L1964.62 3717.36C1960.17 3716.01 1956.88 3713.2 1955.19 3709.54C1953.47 3713.52 1950.05 3716.57 1945.5 3718.01L1943.43 3714.83C1949.38 3713 1953.04 3708.53 1953.06 3703.48V3703.44H1944.68V3700.05H1965.56V3703.44H1957.18V3703.48ZM1942.92 3723.94C1945.93 3723.94 1949.45 3723.96 1953.1 3723.85V3716.42H1957.18V3723.72C1960.51 3723.55 1963.89 3723.29 1967.02 3722.86L1967.32 3725.83C1959.07 3727.33 1950.14 3727.31 1943.52 3727.33L1942.92 3723.94ZM1969.34 3735.15V3696.65H1973.43V3712.38H1979.36V3715.82H1973.43V3735.15H1969.34ZM2011.67 3696.61V3708.12H2017.25V3711.56H2011.67V3724.93H2007.59V3696.61H2011.67ZM1982.02 3708.86C1981.98 3703.25 1986.45 3699.29 1992.25 3699.27C1998.07 3699.29 2002.47 3703.25 2002.52 3708.86C2002.47 3714.46 1998.07 3718.46 1992.25 3718.44C1986.45 3718.46 1981.98 3714.46 1982.02 3708.86ZM1986.02 3708.86C1985.97 3712.44 1988.72 3714.87 1992.25 3714.87C1995.81 3714.87 1998.5 3712.44 1998.52 3708.86C1998.5 3705.27 1995.81 3702.84 1992.25 3702.84C1988.72 3702.84 1985.97 3705.27 1986.02 3708.86ZM1987.26 3734.34V3721.96H1991.34V3731.03H2013.3V3734.34H1987.26ZM2052.4 3696.65V3735.15H2048.49V3715.43H2043.55V3733.18H2039.73V3697.43H2043.55V3712.08H2048.49V3696.65H2052.4ZM2021.25 3725.36V3701.21H2025.33V3721.77C2028.88 3721.72 2032.77 3721.45 2037.15 3720.59L2037.58 3724.15C2032.29 3725.1 2027.89 3725.38 2023.74 3725.36H2021.25Z" fill="#ADB5BD"/>
<path d="M1941.76 3763.81C1941.35 3761.86 1939.68 3760.8 1937.81 3760.8C1935.25 3760.8 1933.27 3762.78 1933.26 3766.43C1933.27 3770.07 1935.25 3772.04 1937.81 3772.05C1939.68 3772.04 1941.34 3771 1941.76 3769.07H1943.52C1943.01 3771.96 1940.68 3773.7 1937.81 3773.7C1934.18 3773.7 1931.55 3770.9 1931.56 3766.43C1931.55 3761.96 1934.18 3759.16 1937.81 3759.16C1940.67 3759.16 1942.99 3760.87 1943.52 3763.81H1941.76ZM1955.23 3759.36H1956.99V3768.71C1956.99 3771.62 1954.81 3773.74 1951.48 3773.75C1948.14 3773.74 1945.98 3771.62 1945.98 3768.71V3759.36H1947.73V3768.58C1947.72 3770.63 1949.15 3772.1 1951.48 3772.11C1953.82 3772.1 1955.22 3770.63 1955.23 3768.58V3759.36ZM1960.12 3773.5V3759.36H1961.88V3771.94H1968.44V3773.5H1960.12ZM1968.12 3760.92V3759.36H1978.79V3760.92H1974.36V3773.5H1972.58V3760.92H1968.12ZM1990.39 3759.36H1992.15V3768.71C1992.15 3771.62 1989.97 3773.74 1986.64 3773.75C1983.3 3773.74 1981.13 3771.62 1981.13 3768.71V3759.36H1982.89V3768.58C1982.88 3770.63 1984.31 3772.1 1986.64 3772.11C1988.97 3772.1 1990.38 3770.63 1990.39 3768.58V3759.36ZM1995.27 3773.5V3759.36H2000.08C2003.39 3759.36 2004.9 3761.2 2004.9 3763.71C2004.9 3765.59 2004.06 3767.05 2002.27 3767.68L2005.45 3773.5H2003.4L2000.44 3768C2000.33 3768.01 2000.21 3768.01 2000.1 3768.01H1997.03V3773.5H1995.27ZM1997.03 3766.41H2000.02C2002.28 3766.41 2003.15 3765.39 2003.16 3763.71C2003.15 3762.03 2002.28 3760.92 2000 3760.92H1997.03V3766.41ZM2008.07 3773.5H2006.23L2011.41 3759.36H2013.26L2018.44 3773.5H2016.58L2015.17 3769.52H2009.48L2008.07 3773.5ZM2010.02 3767.97H2014.63L2012.38 3761.64H2012.27L2010.02 3767.97ZM2020.35 3773.5V3759.36H2022.11V3771.94H2028.67V3773.5H2020.35Z" fill="#ADB5BD"/>
</g>
<path d="M182.797 170V147.375H190.734C195.484 147.375 197.719 150.047 197.703 153.375C197.719 156.281 195.984 157.578 194.016 158.125V158.344C196.125 158.469 198.594 160.406 198.609 164C198.594 167.391 196.359 170 191.016 170H182.797ZM185.609 167.5H190.984C194.531 167.5 195.906 165.938 195.891 163.969C195.906 161.672 194.047 159.719 191.141 159.719H185.609V167.5ZM185.609 157.281H190.641C193.094 157.297 195.016 155.766 195.016 153.406C195.016 151.438 193.688 149.875 190.734 149.875H185.609V157.281ZM228.134 158.688C228.15 165.844 223.931 170.312 218.134 170.312C212.322 170.312 208.119 165.844 208.134 158.688C208.119 151.531 212.322 147.062 218.134 147.062C223.931 147.062 228.15 151.531 228.134 158.688ZM210.853 158.688C210.869 164.516 214.041 167.672 218.134 167.688C222.228 167.672 225.4 164.516 225.416 158.688C225.4 152.844 222.228 149.688 218.134 149.688C214.041 149.688 210.869 152.844 210.853 158.688ZM257.784 158.688C257.8 165.844 253.581 170.312 247.784 170.312C241.972 170.312 237.769 165.844 237.784 158.688C237.769 151.531 241.972 147.062 247.784 147.062C253.581 147.062 257.8 151.531 257.784 158.688ZM240.503 158.688C240.519 164.516 243.691 167.672 247.784 167.688C251.878 167.672 255.05 164.516 255.066 158.688C255.05 152.844 251.878 149.688 247.784 149.688C243.691 149.688 240.519 152.844 240.503 158.688ZM268.309 170V147.375H271.122V158.562H271.403L281.466 147.375H285.153L275.684 157.594L285.153 170H281.716L273.934 159.531L271.122 162.719V170H268.309ZM311.828 147.375V170H309.016V147.375H311.828ZM341.197 147.375V170H338.509L326.259 152.375H326.041V170H323.228V147.375H325.947L338.197 165.031H338.416V147.375H341.197ZM352.597 170V147.375H366.222V149.875H355.409V157.438H365.191V159.906H355.409V170H352.597ZM395.934 158.688C395.95 165.844 391.731 170.312 385.934 170.312C380.122 170.312 375.919 165.844 375.934 158.688C375.919 151.531 380.122 147.062 385.934 147.062C391.731 147.062 395.95 151.531 395.934 158.688ZM378.653 158.688C378.669 164.516 381.841 167.672 385.934 167.688C390.028 167.672 393.2 164.516 393.216 158.688C393.2 152.844 390.028 149.688 385.934 149.688C381.841 149.688 378.669 152.844 378.653 158.688ZM406.459 170V147.375H414.147C419.444 147.375 421.866 150.312 421.866 154.344C421.866 157.344 420.522 159.688 417.647 160.688L422.741 170H419.459L414.725 161.203C414.553 161.219 414.366 161.219 414.178 161.219H409.272V170H406.459ZM409.272 158.656H414.053C417.663 158.656 419.069 157.031 419.084 154.344C419.069 151.641 417.663 149.875 414.022 149.875H409.272V158.656ZM432.328 147.375H435.703L443.328 166H443.609L451.234 147.375H454.609V170H451.953V152.906H451.734L444.703 170H442.203L435.172 152.906H434.984V170H432.328V147.375ZM467.009 170H464.072L472.353 147.375H475.322L483.603 170H480.634L478.369 163.625H469.275L467.009 170ZM470.134 161.156H477.509L473.916 151.031H473.728L470.134 161.156ZM489.159 149.875V147.375H506.222V149.875H499.128V170H496.284V149.875H489.159ZM519.184 147.375V170H516.372V147.375H519.184ZM549.709 158.688C549.725 165.844 545.506 170.312 539.709 170.312C533.897 170.312 529.694 165.844 529.709 158.688C529.694 151.531 533.897 147.062 539.709 147.062C545.506 147.062 549.725 151.531 549.709 158.688ZM532.428 158.688C532.444 164.516 535.616 167.672 539.709 167.688C543.803 167.672 546.975 164.516 546.991 158.688C546.975 152.844 543.803 149.688 539.709 149.688C535.616 149.688 532.444 152.844 532.428 158.688ZM578.203 147.375V170H575.516L563.266 152.375H563.047V170H560.234V147.375H562.953L575.203 165.031H575.422V147.375H578.203Z" fill="#ADB5BD"/>
<path d="M249.117 253.609H225.039V272.207H257.383V280.383H183.172V272.207H215.156V253.609H192.156V214.797H248.488V222.793H202.129V245.703H249.117V253.609ZM292.691 228.273C292.661 233.365 293.44 238.276 295.027 243.008C296.615 247.74 298.921 251.947 301.945 255.631C305 259.285 308.624 262.025 312.816 263.852L306.797 271.848C302.305 269.661 298.441 266.517 295.207 262.414C291.973 258.311 289.472 253.535 287.705 248.084C285.878 253.864 283.303 258.955 279.979 263.357C276.654 267.73 272.716 271.069 268.164 273.375L261.875 265.289C266.158 263.283 269.856 260.348 272.971 256.484C276.085 252.621 278.451 248.234 280.068 243.322C281.686 238.411 282.509 233.395 282.539 228.273V215.336H292.691V228.273ZM303.832 235.012H320.902V208.777H330.785V290.086H320.902V243.098H303.832V235.012ZM410.207 257.023H400.234V237.168H386.398V228.992H400.234V208.777H410.207V257.023ZM341.926 248.938C346.148 247.5 349.757 245.419 352.752 242.693C355.777 239.968 358.053 236.883 359.58 233.439C361.107 229.995 361.871 226.447 361.871 222.793V222.164H344.98V214.078H388.824V222.164H372.023V222.703C372.023 226.057 372.757 229.322 374.225 232.496C375.692 235.641 377.863 238.471 380.738 240.986C383.613 243.472 387.087 245.404 391.16 246.781L386.129 254.688C381.727 253.19 377.923 250.989 374.719 248.084C371.514 245.149 368.984 241.72 367.127 237.797C365.3 242.229 362.695 246.092 359.311 249.387C355.926 252.681 351.868 255.167 347.137 256.844L341.926 248.938ZM355.133 274.543C355.103 271.339 356.196 268.583 358.412 266.277C360.628 263.941 363.803 262.16 367.936 260.932C372.098 259.704 377.025 259.09 382.715 259.09C388.435 259.09 393.376 259.704 397.539 260.932C401.702 262.16 404.891 263.926 407.107 266.232C409.354 268.538 410.477 271.309 410.477 274.543C410.477 277.777 409.354 280.548 407.107 282.854C404.891 285.16 401.702 286.926 397.539 288.154C393.376 289.382 388.435 289.996 382.715 289.996C377.025 289.996 372.098 289.382 367.936 288.154C363.803 286.926 360.628 285.145 358.412 282.809C356.196 280.503 355.103 277.747 355.133 274.543ZM365.016 274.543C364.986 277.029 366.483 278.945 369.508 280.293C372.562 281.611 376.875 282.27 382.445 282.27C388.255 282.27 392.717 281.611 395.832 280.293C398.947 278.975 400.504 277.059 400.504 274.543C400.504 272.027 398.962 270.096 395.877 268.748C392.822 267.4 388.435 266.727 382.715 266.727C377.055 266.727 372.682 267.4 369.598 268.748C366.513 270.096 364.986 272.027 365.016 274.543ZM495.918 280.203H421.707V272.027H453.691V256.215H429.883V214.168H439.855V227.465H477.5V214.168H487.473V256.215H463.574V272.027H495.918V280.203ZM477.5 248.129V235.461H439.855V248.129H477.5Z" fill="#191F28"/>
</g>
<defs>
<filter id="filter0_d_2498_5085" x="-40" y="3478" width="2240" height="400" filterUnits="userSpaceOnUse" color-interpolation-filters="sRGB">
<feFlood flood-opacity="0" result="BackgroundImageFix"/>
<feColorMatrix in="SourceAlpha" type="matrix" values="0 0 0 0 0 0 0 0 0 0 0 0 0 0 0 0 0 0 127 0" result="hardAlpha"/>
<feOffset dy="-2"/>
<feGaussianBlur stdDeviation="20"/>
<feComposite in2="hardAlpha" operator="out"/>
<feColorMatrix type="matrix" values="0 0 0 0 0 0 0 0 0 0 0 0 0 0 0 0 0 0 0.1 0"/>
<feBlend mode="normal" in2="BackgroundImageFix" result="effect1_dropShadow_2498_5085"/>
<feBlend mode="normal" in="SourceGraphic" in2="effect1_dropShadow_2498_5085" result="shape"/>
</filter>
<linearGradient id="paint0_linear_2498_5085" x1="97" y1="6.72194e-06" x2="1080" y2="2900" gradientUnits="userSpaceOnUse">
<stop stop-color="#EDE3DA"/>
<stop offset="1" stop-color="#D9D0C9"/>
</linearGradient>
<clipPath id="clip0_2498_5085">
<rect width="2160" height="3840" fill="white"/>
</clipPath>
<clipPath id="clip1_2498_5085">
<rect width="96" height="96" fill="white" transform="translate(132 3581.5)"/>
</clipPath>
<clipPath id="clip2_2498_5085">
<rect width="96" height="96" fill="white" transform="translate(492 3581.5)"/>
</clipPath>
<clipPath id="clip3_2498_5085">
<rect width="96" height="96" fill="white" transform="translate(852 3581.5)"/>
</clipPath>
<clipPath id="clip4_2498_5085">
<rect width="96" height="96" fill="white" transform="translate(1932 3581.5)"/>
</clipPath>
</defs>
</svg>
