<svg width="380" height="675" viewBox="0 0 380 675" fill="none" xmlns="http://www.w3.org/2000/svg">
<g clip-path="url(#clip0_3140_9358)">
<rect width="379.35" height="674.401" transform="translate(0.425781 0.214844)" fill="#E4E3E5"/>
<g filter="url(#filter0_d_3140_9358)">
<path d="M0.425781 0.214844L379.776 0.214844L379.776 674.616L0.425781 674.616L0.425781 0.214844Z" fill="url(#paint0_linear_3140_9358)"/>
</g>
<g filter="url(#filter1_d_3140_9358)">
<rect width="379.35" height="56.2001" transform="translate(0.425781 618.414)" fill="white"/>
<g clip-path="url(#clip1_3140_9358)">
<path d="M32.038 644.933C32.8107 644.933 33.443 644.301 33.443 643.528H30.633C30.633 644.301 31.2652 644.933 32.038 644.933ZM36.253 640.718V637.206C36.253 635.049 35.1079 633.244 33.0917 632.766V632.288C33.0917 631.705 32.621 631.234 32.038 631.234C31.4549 631.234 30.9842 631.705 30.9842 632.288V632.766C28.9751 633.244 27.823 635.042 27.823 637.206V640.718L26.418 642.123V642.826H37.658V642.123L36.253 640.718ZM34.848 641.421H29.228V637.206C29.228 635.463 30.2887 634.044 32.038 634.044C33.7872 634.044 34.848 635.463 34.848 637.206V641.421Z" fill="#ADB5BD"/>
</g>
<path d="M21.9797 653.559C22.4728 653.559 22.9004 653.61 23.2626 653.713C23.6274 653.814 23.9078 653.961 24.104 654.155C24.3028 654.346 24.4021 654.575 24.4021 654.842C24.4021 655.103 24.3028 655.328 24.104 655.517C23.9078 655.708 23.6274 655.854 23.2626 655.955C22.9004 656.058 22.4728 656.109 21.9797 656.109C21.4917 656.109 21.0654 656.058 20.7006 655.955C20.3384 655.854 20.0579 655.708 19.8592 655.517C19.663 655.328 19.5649 655.103 19.5649 654.842C19.5649 654.575 19.663 654.346 19.8592 654.155C20.0579 653.961 20.3384 653.814 20.7006 653.713C21.0654 653.61 21.4917 653.559 21.9797 653.559ZM18.9234 652.389H21.3232V651.151H22.1533V652.389H25.1115V653.068H18.9234V652.389ZM19.6328 649.619H24.3568V650.185V650.385C24.3568 650.68 24.3443 650.953 24.3191 651.204C24.2965 651.456 24.2462 651.72 24.1682 651.997L23.3381 651.921C23.4135 651.624 23.4626 651.354 23.4852 651.11C23.5079 650.866 23.5192 650.59 23.5192 650.284H19.6328V649.619ZM20.4101 654.842C20.4076 655.04 20.5434 655.194 20.8176 655.302C21.0943 655.408 21.4817 655.46 21.9797 655.46C22.4778 655.46 22.8664 655.408 23.1456 655.302C23.4274 655.194 23.5695 655.04 23.572 654.842C23.5695 654.635 23.4274 654.476 23.1456 654.362C22.8664 654.249 22.4778 654.193 21.9797 654.193C21.4842 654.193 21.0981 654.249 20.8214 654.362C20.5446 654.476 20.4076 654.635 20.4101 654.842ZM28.1602 651.234C28.1602 651.609 28.2306 651.98 28.3715 652.348C28.5149 652.712 28.7186 653.041 28.9828 653.332C29.2494 653.622 29.5613 653.84 29.9185 653.989L29.4582 654.653C29.0633 654.482 28.7199 654.229 28.4281 653.895C28.1363 653.557 27.9099 653.166 27.7489 652.721C27.5879 653.199 27.3603 653.622 27.066 653.989C26.7717 654.356 26.4296 654.633 26.0397 654.819L25.5567 654.162C25.9064 654.001 26.2132 653.765 26.4774 653.453C26.7415 653.141 26.9452 652.79 27.0886 652.4C27.232 652.01 27.305 651.622 27.3075 651.234V650.661H25.8057V649.967H29.6544V650.661H28.1602V651.234ZM30.4166 649.295H31.2618V656.117H30.4166V649.295ZM34.7029 650.933C34.7004 651.343 34.7646 651.743 34.8954 652.132C35.0287 652.522 35.2199 652.872 35.4689 653.181C35.7204 653.488 36.0185 653.725 36.3631 653.891L35.85 654.562C35.4878 654.379 35.1733 654.117 34.9067 653.778C34.6426 653.438 34.4363 653.046 34.2879 652.6C34.1344 653.076 33.9181 653.496 33.6389 653.861C33.3622 654.223 33.0327 654.499 32.6503 654.691L32.1372 654.019C32.4918 653.851 32.7987 653.605 33.0578 653.283C33.3194 652.959 33.5182 652.593 33.654 652.185C33.7923 651.775 33.8628 651.358 33.8653 650.933V649.846H34.7029V650.933ZM36.7707 649.295H37.6083V651.966H38.6572V652.683H37.6083V656.117H36.7707V649.295ZM44.3246 651.091H45.2754V651.793H44.3246V653.649H43.4869V649.295H44.3246V651.091ZM38.9516 649.989H40.5589V649.25H41.3966V649.989H42.9964V650.646H38.9516V649.989ZM39.2987 652.14C39.2987 651.899 39.3691 651.686 39.51 651.502C39.6509 651.319 39.8471 651.175 40.0986 651.072C40.3527 650.969 40.6445 650.917 40.974 650.917C41.2985 650.917 41.5865 650.969 41.8381 651.072C42.0921 651.175 42.2896 651.319 42.4304 651.502C42.5713 651.686 42.6417 651.899 42.6417 652.14C42.6417 652.381 42.5713 652.594 42.4304 652.778C42.2896 652.961 42.0921 653.103 41.8381 653.204C41.5865 653.305 41.2985 653.355 40.974 653.355C40.6445 653.355 40.3527 653.305 40.0986 653.204C39.8471 653.103 39.6509 652.961 39.51 652.778C39.3691 652.594 39.2987 652.381 39.2987 652.14ZM39.842 654.91C39.8395 654.658 39.9288 654.443 40.1099 654.264C40.2936 654.083 40.5564 653.946 40.8985 653.853C41.2431 653.757 41.6507 653.71 42.121 653.71C42.5864 653.71 42.9901 653.757 43.3322 653.853C43.6743 653.946 43.9372 654.083 44.1208 654.264C44.307 654.445 44.4001 654.66 44.4001 654.91C44.4001 655.159 44.307 655.372 44.1208 655.551C43.9372 655.732 43.6743 655.87 43.3322 655.966C42.9901 656.062 42.5864 656.109 42.121 656.109C41.6507 656.109 41.2431 656.062 40.8985 655.966C40.5564 655.87 40.2936 655.732 40.1099 655.551C39.9288 655.372 39.8395 655.159 39.842 654.91ZM40.1137 652.14C40.1112 652.321 40.1867 652.463 40.3401 652.566C40.4935 652.669 40.6998 652.721 40.9589 652.721C41.2281 652.721 41.4419 652.671 41.6003 652.57C41.7613 652.467 41.8418 652.324 41.8418 652.14C41.8418 651.954 41.7626 651.807 41.6041 651.699C41.4456 651.59 41.2356 651.536 40.974 651.536C40.7124 651.536 40.5023 651.59 40.3439 651.699C40.1879 651.807 40.1112 651.954 40.1137 652.14ZM40.6721 654.91C40.6696 655.091 40.7941 655.23 41.0457 655.328C41.2972 655.426 41.6557 655.475 42.121 655.475C42.5814 655.475 42.9361 655.426 43.1851 655.328C43.4341 655.23 43.5599 655.091 43.5624 654.91C43.5599 654.726 43.4354 654.588 43.1889 654.494C42.9423 654.399 42.5864 654.351 42.121 654.351C41.6507 654.351 41.2909 654.399 41.0419 654.494C40.7929 654.588 40.6696 654.726 40.6721 654.91Z" fill="#ADB5BD"/>
<path d="M28.0841 662.551H27.7891L26.4444 660.616H26.4204V662.551H26.1117V660.067H26.4101L27.7548 662.005H27.7788V660.067H28.0841V662.551ZM30.7322 661.309C30.7322 661.566 30.6853 661.792 30.5915 661.985C30.4978 662.177 30.3674 662.325 30.2005 662.429C30.0347 662.533 29.846 662.585 29.6345 662.585C29.4218 662.585 29.232 662.533 29.0651 662.429C28.8993 662.325 28.7695 662.177 28.6758 661.985C28.5832 661.792 28.5369 661.566 28.5369 661.309C28.5369 661.052 28.5832 660.827 28.6758 660.635C28.7695 660.442 28.8993 660.293 29.0651 660.189C29.232 660.085 29.4218 660.033 29.6345 660.033C29.846 660.033 30.0347 660.085 30.2005 660.189C30.3674 660.293 30.4978 660.442 30.5915 660.635C30.6853 660.827 30.7322 661.052 30.7322 661.309ZM28.8353 661.309C28.8353 661.516 28.8701 661.694 28.9399 661.842C29.0096 661.991 29.1045 662.104 29.2246 662.18C29.3458 662.257 29.4824 662.296 29.6345 662.297C29.7866 662.296 29.9226 662.257 30.0427 662.18C30.1639 662.104 30.2594 661.991 30.3291 661.842C30.3989 661.694 30.4337 661.516 30.4337 661.309C30.4337 661.101 30.3989 660.923 30.3291 660.774C30.2594 660.625 30.1639 660.513 30.0427 660.436C29.9226 660.359 29.7866 660.321 29.6345 660.321C29.4824 660.321 29.3458 660.359 29.2246 660.436C29.1045 660.513 29.0096 660.625 28.9399 660.774C28.8701 660.923 28.8353 661.101 28.8353 661.309ZM30.9448 660.067H32.8177V660.342H32.0391V662.551H31.7269V660.342H30.9448V660.067ZM33.5381 662.551H33.2293V660.067H33.5381V662.551ZM35.7814 660.849C35.7585 660.739 35.7134 660.644 35.6459 660.565C35.5784 660.485 35.4961 660.424 35.3989 660.383C35.3029 660.342 35.1994 660.321 35.0885 660.321C34.9364 660.321 34.7998 660.359 34.6786 660.436C34.5585 660.513 34.4636 660.625 34.3939 660.774C34.3241 660.923 34.2893 661.101 34.2893 661.309C34.2893 661.516 34.3241 661.694 34.3939 661.842C34.4636 661.991 34.5585 662.104 34.6786 662.18C34.7998 662.257 34.9364 662.296 35.0885 662.297C35.1994 662.296 35.3029 662.275 35.3989 662.235C35.495 662.194 35.5767 662.134 35.6442 662.055C35.7116 661.976 35.7574 661.882 35.7814 661.772H36.0901C36.0604 661.938 35.9986 662.083 35.9049 662.206C35.8111 662.328 35.6933 662.422 35.5516 662.487C35.4109 662.552 35.2566 662.585 35.0885 662.585C34.8758 662.585 34.686 662.533 34.5191 662.429C34.3533 662.325 34.2235 662.177 34.1298 661.985C34.0371 661.792 33.9908 661.566 33.9908 661.309C33.9908 661.052 34.0371 660.827 34.1298 660.635C34.2235 660.442 34.3533 660.293 34.5191 660.189C34.686 660.085 34.8758 660.033 35.0885 660.033C35.2566 660.033 35.4109 660.066 35.5516 660.131C35.6922 660.195 35.8094 660.289 35.9032 660.412C35.9981 660.534 36.0604 660.68 36.0901 660.849H35.7814ZM36.5223 660.067H38.0282V660.342H36.831V661.172H37.9493V661.443H36.831V662.276H38.0453V662.551H36.5223V660.067Z" fill="#ADB5BD"/>
<g clip-path="url(#clip2_3140_9358)">
<path d="M92.0328 637.286H90.7387V641.835H92.0328V637.286ZM95.915 637.286H94.6209V641.835H95.915V637.286ZM101.415 643.134H89.1211V644.434H101.415V643.134ZM99.7972 637.286H98.5032V641.835H99.7972V637.286ZM95.268 632.906L98.639 634.687H91.8969L95.268 632.906ZM95.268 631.438L89.1211 634.687V635.986H101.415V634.687L95.268 631.438Z" fill="#ADB5BD"/>
</g>
<path d="M87.757 656.102H87.0401V649.325H87.757V656.102ZM82.3915 652.2C82.3915 651.727 82.4657 651.312 82.6141 650.955C82.7625 650.595 82.9688 650.319 83.2329 650.125C83.4995 649.929 83.8027 649.831 84.1422 649.831C84.4768 649.831 84.7761 649.929 85.0403 650.125C85.3044 650.319 85.5107 650.595 85.6591 650.955C85.81 651.312 85.8855 651.727 85.8855 652.2C85.8855 652.678 85.81 653.097 85.6591 653.457C85.5107 653.817 85.3044 654.093 85.0403 654.287C84.7761 654.481 84.4768 654.577 84.1422 654.577C83.8027 654.577 83.4995 654.481 83.2329 654.287C82.9688 654.093 82.7625 653.817 82.6141 653.457C82.4657 653.097 82.3915 652.678 82.3915 652.2ZM83.0857 652.2C83.0857 652.553 83.1298 652.859 83.2178 653.121C83.3059 653.383 83.4291 653.584 83.5876 653.725C83.7486 653.866 83.9335 653.936 84.1422 653.936C84.3485 653.936 84.5309 653.866 84.6894 653.725C84.8478 653.584 84.9711 653.383 85.0591 653.121C85.1472 652.859 85.1912 652.553 85.1912 652.2C85.1912 651.853 85.1472 651.55 85.0591 651.291C84.9711 651.029 84.8478 650.828 84.6894 650.687C84.5309 650.544 84.3485 650.472 84.1422 650.472C83.9335 650.472 83.7486 650.544 83.5876 650.687C83.4291 650.828 83.3059 651.029 83.2178 651.291C83.1298 651.55 83.0857 651.853 83.0857 652.2ZM95.0015 653.204H88.8361V652.623H90.3152V651.714C90.0486 651.605 89.8448 651.467 89.7039 651.299C89.5656 651.13 89.4977 650.935 89.5002 650.714C89.5002 650.45 89.597 650.222 89.7907 650.031C89.9869 649.84 90.2661 649.695 90.6284 649.597C90.9931 649.496 91.422 649.446 91.915 649.446C92.4081 649.446 92.8357 649.496 93.1979 649.597C93.5601 649.695 93.8394 649.84 94.0356 650.031C94.2318 650.222 94.3299 650.45 94.3299 650.714C94.3274 650.935 94.2557 651.131 94.1148 651.302C93.9739 651.471 93.7714 651.609 93.5073 651.717V652.623H95.0015V653.204ZM89.5681 654.864C89.5681 654.608 89.6612 654.39 89.8473 654.211C90.0335 654.033 90.3014 653.897 90.651 653.804C91.0032 653.711 91.4245 653.664 91.915 653.664C92.398 653.664 92.8143 653.711 93.164 653.804C93.5136 653.897 93.7815 654.034 93.9676 654.215C94.1538 654.394 94.2469 654.61 94.2469 654.864C94.2469 655.121 94.1538 655.34 93.9676 655.521C93.7815 655.702 93.5136 655.839 93.164 655.932C92.8168 656.025 92.4005 656.072 91.915 656.072C91.4245 656.072 91.0032 656.025 90.651 655.932C90.3014 655.839 90.0335 655.702 89.8473 655.521C89.6612 655.342 89.5681 655.123 89.5681 654.864ZM90.2397 650.714C90.2372 650.938 90.3831 651.111 90.6774 651.234C90.9717 651.358 91.3843 651.421 91.915 651.423C92.4433 651.421 92.8546 651.358 93.1489 651.234C93.4457 651.111 93.5928 650.938 93.5903 650.714C93.5903 650.565 93.5237 650.437 93.3903 650.329C93.257 650.221 93.0646 650.139 92.813 650.084C92.5615 650.026 92.2622 649.997 91.915 649.997C91.3868 649.999 90.9742 650.063 90.6774 650.189C90.3831 650.313 90.2372 650.487 90.2397 650.714ZM90.2926 654.864C90.29 655.076 90.4309 655.239 90.7152 655.355C90.9994 655.468 91.3994 655.523 91.915 655.521C92.4257 655.526 92.8219 655.47 93.1036 655.355C93.3878 655.239 93.53 655.076 93.53 654.864C93.53 654.658 93.3878 654.498 93.1036 654.385C92.8219 654.272 92.4257 654.215 91.915 654.215C91.3968 654.215 90.9956 654.272 90.7114 654.385C90.4296 654.498 90.29 654.658 90.2926 654.864ZM92.798 652.623V651.902C92.5263 651.945 92.232 651.966 91.915 651.966C91.6132 651.966 91.3214 651.946 91.0396 651.906V652.623H92.798ZM100.827 651.34H101.808V651.944H100.827V654.291H100.11V649.318H100.827V651.34ZM95.6203 651.468C95.6178 651.146 95.6945 650.858 95.8505 650.604C96.0089 650.348 96.2253 650.148 96.4995 650.004C96.7736 649.858 97.0793 649.786 97.4163 649.786C97.7534 649.786 98.059 649.858 98.3332 650.004C98.6074 650.148 98.8225 650.348 98.9784 650.604C99.1369 650.858 99.2174 651.146 99.2199 651.468C99.2174 651.79 99.1369 652.08 98.9784 652.336C98.8225 652.593 98.6074 652.793 98.3332 652.936C98.059 653.08 97.7534 653.151 97.4163 653.151C97.0793 653.151 96.7736 653.08 96.4995 652.936C96.2253 652.793 96.0089 652.593 95.8505 652.336C95.6945 652.08 95.6178 651.79 95.6203 651.468ZM96.3221 651.468C96.3196 651.675 96.3661 651.858 96.4617 652.019C96.5573 652.178 96.6881 652.302 96.8541 652.393C97.0227 652.481 97.2101 652.525 97.4163 652.525C97.6226 652.525 97.8088 652.481 97.9748 652.393C98.1433 652.302 98.2754 652.178 98.371 652.019C98.4691 651.858 98.5181 651.675 98.5181 651.468C98.5181 651.262 98.4691 651.08 98.371 650.921C98.2754 650.76 98.1433 650.636 97.9748 650.548C97.8088 650.457 97.6226 650.412 97.4163 650.412C97.2101 650.412 97.0227 650.457 96.8541 650.548C96.6881 650.636 96.5573 650.76 96.4617 650.921C96.3661 651.08 96.3196 651.262 96.3221 651.468ZM96.541 653.77H97.2579V655.362H101.114V655.943H96.541V653.77ZM107.981 656.087H107.295V652.623H106.427V655.74H105.755V649.461H106.427V652.034H107.295V649.325H107.981V656.087ZM102.51 650.125H103.227V653.736C103.949 653.729 104.641 653.659 105.302 653.529L105.378 654.155C104.938 654.233 104.52 654.288 104.125 654.321C103.73 654.354 103.338 654.369 102.948 654.366H102.51V650.125Z" fill="#ADB5BD"/>
<path d="M84.3131 662.551H84.0043V660.067H84.3131V662.551ZM86.8342 662.551H86.5393L85.1946 660.616H85.1706V662.551H84.8619V660.067H85.1603L86.5049 662.005H86.529V660.067H86.8342V662.551ZM87.3831 660.067H88.8786V660.342H87.6918V661.172H88.7654V661.443H87.6918V662.551H87.3831V660.067ZM91.4375 661.309C91.4375 661.566 91.3907 661.792 91.2969 661.985C91.2032 662.177 91.0728 662.325 90.9059 662.429C90.7401 662.533 90.5514 662.585 90.3399 662.585C90.1272 662.585 89.9374 662.533 89.7705 662.429C89.6047 662.325 89.4749 662.177 89.3812 661.985C89.2885 661.792 89.2422 661.566 89.2422 661.309C89.2422 661.052 89.2885 660.827 89.3812 660.635C89.4749 660.442 89.6047 660.293 89.7705 660.189C89.9374 660.085 90.1272 660.033 90.3399 660.033C90.5514 660.033 90.7401 660.085 90.9059 660.189C91.0728 660.293 91.2032 660.442 91.2969 660.635C91.3907 660.827 91.4375 661.052 91.4375 661.309ZM89.5407 661.309C89.5407 661.516 89.5755 661.694 89.6453 661.842C89.715 661.991 89.8099 662.104 89.93 662.18C90.0512 662.257 90.1878 662.296 90.3399 662.297C90.492 662.296 90.628 662.257 90.7481 662.18C90.8693 662.104 90.9648 661.991 91.0345 661.842C91.1042 661.694 91.1391 661.516 91.1391 661.309C91.1391 661.101 91.1042 660.923 91.0345 660.774C90.9648 660.625 90.8693 660.513 90.7481 660.436C90.628 660.359 90.492 660.321 90.3399 660.321C90.1878 660.321 90.0512 660.359 89.93 660.436C89.8099 660.513 89.715 660.625 89.6453 660.774C89.5755 660.923 89.5407 661.101 89.5407 661.309ZM91.8903 660.067H92.7342C92.9228 660.067 93.08 660.1 93.2058 660.165C93.3327 660.229 93.427 660.319 93.4888 660.434C93.5505 660.549 93.5814 660.681 93.5814 660.832C93.5814 661.001 93.5425 661.147 93.4648 661.268C93.3882 661.388 93.2727 661.475 93.1183 661.529L93.6775 662.551H93.3173L92.7976 661.585C92.785 661.586 92.765 661.587 92.7376 661.587H92.199V662.551H91.8903V660.067ZM92.7239 661.306C92.916 661.306 93.0554 661.265 93.1423 661.184C93.2304 661.103 93.275 660.985 93.2761 660.832C93.2738 660.505 93.0886 660.342 92.7204 660.342H92.199V661.306H92.7239ZM94.3978 660.067L95.2348 662.112H95.2656L96.1026 660.067H96.473V662.551H96.1815V660.674H96.1575L95.3857 662.551H95.1113L94.3395 660.674H94.3189V662.551H94.0273V660.067H94.3978ZM96.8092 662.551L97.7182 660.067H98.0441L98.9531 662.551H98.6272L98.3785 661.851H97.3803L97.1316 662.551H96.8092ZM98.2842 661.58L97.8897 660.469H97.8691L97.4747 661.58H98.2842ZM98.8605 660.067H100.733V660.342H99.9547V662.551H99.6425V660.342H98.8605V660.067ZM101.454 662.551H101.145V660.067H101.454V662.551ZM104.102 661.309C104.102 661.566 104.055 661.792 103.961 661.985C103.867 662.177 103.737 662.325 103.57 662.429C103.404 662.533 103.216 662.585 103.004 662.585C102.791 662.585 102.602 662.533 102.435 662.429C102.269 662.325 102.139 662.177 102.045 661.985C101.953 661.792 101.906 661.566 101.906 661.309C101.906 661.052 101.953 660.827 102.045 660.635C102.139 660.442 102.269 660.293 102.435 660.189C102.602 660.085 102.791 660.033 103.004 660.033C103.216 660.033 103.404 660.085 103.57 660.189C103.737 660.293 103.867 660.442 103.961 660.635C104.055 660.827 104.102 661.052 104.102 661.309ZM102.205 661.309C102.205 661.516 102.24 661.694 102.309 661.842C102.379 661.991 102.474 662.104 102.594 662.18C102.715 662.257 102.852 662.296 103.004 662.297C103.156 662.296 103.292 662.257 103.412 662.18C103.533 662.104 103.629 661.991 103.699 661.842C103.768 661.694 103.803 661.516 103.803 661.309C103.803 661.101 103.768 660.923 103.699 660.774C103.629 660.625 103.533 660.513 103.412 660.436C103.292 660.359 103.156 660.321 103.004 660.321C102.852 660.321 102.715 660.359 102.594 660.436C102.474 660.513 102.379 660.625 102.309 660.774C102.24 660.923 102.205 661.101 102.205 661.309ZM106.527 662.551H106.232L104.887 660.616H104.863V662.551H104.555V660.067H104.853L106.198 662.005H106.222V660.067H106.527V662.551Z" fill="#ADB5BD"/>
<g clip-path="url(#clip3_3140_9358)">
<path d="M158.488 630.883C155.769 630.883 153.57 633.082 153.57 635.8C153.57 639.488 158.488 644.933 158.488 644.933C158.488 644.933 163.405 639.488 163.405 635.8C163.405 633.082 161.206 630.883 158.488 630.883ZM154.975 635.8C154.975 633.861 156.549 632.288 158.488 632.288C160.427 632.288 162 633.861 162 635.8C162 637.824 159.977 640.851 158.488 642.741C157.027 640.865 154.975 637.802 154.975 635.8Z" fill="#ADB5BD"/>
<path d="M158.487 637.555C159.457 637.555 160.243 636.769 160.243 635.799C160.243 634.829 159.457 634.043 158.487 634.043C157.517 634.043 156.73 634.829 156.73 635.799C156.73 636.769 157.517 637.555 158.487 637.555Z" fill="#ADB5BD"/>
</g>
<path d="M147.863 651.046C147.86 651.453 147.935 651.854 148.086 652.249C148.239 652.644 148.452 652.995 148.723 653.302C148.997 653.607 149.307 653.835 149.651 653.989L149.221 654.555C148.836 654.371 148.496 654.1 148.199 653.74C147.902 653.38 147.673 652.968 147.512 652.502C147.354 653.005 147.122 653.449 146.818 653.834C146.516 654.219 146.165 654.51 145.765 654.706L145.327 654.102C145.677 653.949 145.989 653.713 146.263 653.396C146.537 653.077 146.751 652.712 146.905 652.302C147.061 651.89 147.139 651.471 147.139 651.046V649.891H147.863V651.046ZM150.263 649.325H150.98V656.102H150.263V649.325ZM157.696 652.804H156.979V651.068H155.553V650.487H156.979V649.325H157.696V652.804ZM152.036 652.261C152.383 652.15 152.684 651.989 152.938 651.778C153.192 651.564 153.387 651.316 153.523 651.034C153.659 650.75 153.727 650.45 153.727 650.133V649.544H154.436V650.133C154.436 650.419 154.501 650.695 154.632 650.959C154.765 651.221 154.955 651.453 155.202 651.657C155.448 651.858 155.739 652.012 156.073 652.117L155.696 652.676C155.329 652.547 155.007 652.361 154.73 652.117C154.456 651.873 154.243 651.589 154.093 651.265C153.944 651.634 153.727 651.955 153.44 652.227C153.155 652.496 152.816 652.698 152.421 652.834L152.036 652.261ZM153.274 653.121H157.696V654.804H153.991V655.43H157.93V656.004H153.289V654.261H156.987V653.687H153.274V653.121ZM164.05 651.34H165.031V651.944H164.05V654.291H163.333V649.318H164.05V651.34ZM158.843 651.468C158.84 651.146 158.917 650.858 159.073 650.604C159.232 650.348 159.448 650.148 159.722 650.004C159.996 649.858 160.302 649.786 160.639 649.786C160.976 649.786 161.282 649.858 161.556 650.004C161.83 650.148 162.045 650.348 162.201 650.604C162.36 650.858 162.44 651.146 162.443 651.468C162.44 651.79 162.36 652.08 162.201 652.336C162.045 652.593 161.83 652.793 161.556 652.936C161.282 653.08 160.976 653.151 160.639 653.151C160.302 653.151 159.996 653.08 159.722 652.936C159.448 652.793 159.232 652.593 159.073 652.336C158.917 652.08 158.84 651.79 158.843 651.468ZM159.545 651.468C159.542 651.675 159.589 651.858 159.684 652.019C159.78 652.178 159.911 652.302 160.077 652.393C160.245 652.481 160.433 652.525 160.639 652.525C160.845 652.525 161.031 652.481 161.197 652.393C161.366 652.302 161.498 652.178 161.594 652.019C161.692 651.858 161.741 651.675 161.741 651.468C161.741 651.262 161.692 651.08 161.594 650.921C161.498 650.76 161.366 650.636 161.197 650.548C161.031 650.457 160.845 650.412 160.639 650.412C160.433 650.412 160.245 650.457 160.077 650.548C159.911 650.636 159.78 650.76 159.684 650.921C159.589 651.08 159.542 651.262 159.545 651.468ZM159.764 653.77H160.481V655.362H164.337V655.943H159.764V653.77ZM171.204 656.087H170.517V652.623H169.649V655.74H168.978V649.461H169.649V652.034H170.517V649.325H171.204V656.087ZM165.733 650.125H166.45V653.736C167.172 653.729 167.863 653.659 168.525 653.529L168.6 654.155C168.16 654.233 167.743 654.288 167.348 654.321C166.953 654.354 166.56 654.369 166.171 654.366H165.733V650.125Z" fill="#ADB5BD"/>
<path d="M151.667 660.067H153.163V660.342H151.976V661.172H153.05V661.443H151.976V662.551H151.667V660.067ZM153.098 662.551L154.007 660.067H154.333L155.242 662.551H154.916L154.667 661.851H153.669L153.42 662.551H153.098ZM154.573 661.58L154.178 660.469H154.158L153.763 661.58H154.573ZM157.156 660.849C157.133 660.739 157.088 660.644 157.02 660.565C156.953 660.485 156.87 660.424 156.773 660.383C156.677 660.342 156.574 660.321 156.463 660.321C156.311 660.321 156.174 660.359 156.053 660.436C155.933 660.513 155.838 660.625 155.768 660.774C155.698 660.923 155.664 661.101 155.664 661.309C155.664 661.516 155.698 661.694 155.768 661.842C155.838 661.991 155.933 662.104 156.053 662.18C156.174 662.257 156.311 662.296 156.463 662.297C156.574 662.296 156.677 662.275 156.773 662.235C156.869 662.194 156.951 662.134 157.018 662.055C157.086 661.976 157.132 661.882 157.156 661.772H157.464C157.435 661.938 157.373 662.083 157.279 662.206C157.185 662.328 157.068 662.422 156.926 662.487C156.785 662.552 156.631 662.585 156.463 662.585C156.25 662.585 156.06 662.533 155.893 662.429C155.728 662.325 155.598 662.177 155.504 661.985C155.411 661.792 155.365 661.566 155.365 661.309C155.365 661.052 155.411 660.827 155.504 660.635C155.598 660.442 155.728 660.293 155.893 660.189C156.06 660.085 156.25 660.033 156.463 660.033C156.631 660.033 156.785 660.066 156.926 660.131C157.066 660.195 157.184 660.289 157.277 660.412C157.372 660.534 157.435 660.68 157.464 660.849H157.156ZM158.205 662.551H157.897V660.067H158.205V662.551ZM158.754 660.067H159.063V662.276H160.215V662.551H158.754V660.067ZM160.936 662.551H160.627V660.067H160.936V662.551ZM161.347 660.067H163.22V660.342H162.442V662.551H162.129V660.342H161.347V660.067ZM163.772 660.067L164.455 661.22H164.486L165.169 660.067H165.525L164.627 661.532V662.551H164.314V661.532L163.419 660.067H163.772Z" fill="#ADB5BD"/>
<path d="M228.16 630.923C227.656 630.836 227.146 630.791 226.635 630.789C224.892 630.788 223.185 631.288 221.718 632.229C220.247 631.3 218.54 630.812 216.8 630.824C216.289 630.826 215.78 630.871 215.276 630.958C215.111 630.986 214.962 631.072 214.855 631.201C214.748 631.33 214.69 631.493 214.693 631.66V640.09C214.691 640.193 214.713 640.296 214.755 640.39C214.798 640.484 214.86 640.567 214.939 640.634C215.017 640.702 215.11 640.75 215.209 640.778C215.309 640.805 215.413 640.81 215.515 640.793C216.522 640.618 217.553 640.647 218.548 640.878C219.544 641.108 220.483 641.535 221.31 642.134L221.395 642.184H221.472C221.55 642.216 221.634 642.233 221.718 642.233C221.802 642.233 221.886 642.216 221.964 642.184H222.041L222.125 642.134C222.947 641.522 223.884 641.081 224.879 640.837C225.875 640.593 226.909 640.552 227.921 640.715C228.023 640.733 228.127 640.728 228.227 640.701C228.326 640.673 228.418 640.624 228.497 640.557C228.575 640.49 228.638 640.407 228.681 640.312C228.723 640.218 228.744 640.116 228.743 640.013V631.583C228.736 631.423 228.674 631.27 228.568 631.15C228.462 631.03 228.318 630.95 228.16 630.923ZM221.015 640.259C219.716 639.575 218.269 639.218 216.8 639.219C216.569 639.219 216.337 639.219 216.098 639.219V632.194C216.332 632.181 216.566 632.181 216.8 632.194C218.299 632.192 219.765 632.632 221.015 633.459V640.259ZM227.338 639.247C227.099 639.247 226.867 639.247 226.635 639.247C225.167 639.246 223.72 639.603 222.42 640.287V633.459C223.671 632.632 225.137 632.192 226.635 632.194C226.869 632.181 227.104 632.181 227.338 632.194V639.247ZM228.16 642.163C227.656 642.076 227.146 642.031 226.635 642.029C224.892 642.028 223.185 642.528 221.718 643.469C220.251 642.528 218.544 642.028 216.8 642.029C216.289 642.031 215.78 642.076 215.276 642.163C215.185 642.177 215.097 642.21 215.018 642.258C214.939 642.307 214.871 642.37 214.816 642.445C214.762 642.52 214.723 642.605 214.702 642.695C214.681 642.786 214.678 642.879 214.693 642.97C214.729 643.153 214.835 643.314 214.989 643.418C215.143 643.522 215.332 643.56 215.515 643.525C216.522 643.351 217.553 643.38 218.548 643.61C219.544 643.841 220.483 644.268 221.31 644.867C221.429 644.952 221.572 644.997 221.718 644.997C221.864 644.997 222.006 644.952 222.125 644.867C222.953 644.268 223.892 643.841 224.888 643.61C225.883 643.38 226.914 643.351 227.921 643.525C228.104 643.56 228.293 643.522 228.447 643.418C228.601 643.314 228.707 643.153 228.743 642.97C228.758 642.879 228.755 642.786 228.734 642.695C228.712 642.605 228.674 642.52 228.619 642.445C228.565 642.37 228.497 642.307 228.418 642.258C228.339 642.21 228.251 642.177 228.16 642.163Z" fill="#ADB5BD"/>
<path d="M214.267 654.283H213.421V649.303H214.267V654.283ZM208.592 652.676C208.949 652.55 209.253 652.368 209.505 652.129C209.756 651.887 209.945 651.613 210.071 651.306C210.199 650.997 210.262 650.676 210.259 650.344V649.68H211.127V650.344C211.125 650.666 211.185 650.973 211.308 651.265C211.434 651.556 211.62 651.815 211.867 652.042C212.113 652.266 212.413 652.437 212.765 652.555L212.335 653.219C211.952 653.086 211.623 652.89 211.346 652.631C211.069 652.369 210.854 652.061 210.701 651.706C210.547 652.088 210.329 652.42 210.044 652.702C209.76 652.984 209.422 653.196 209.029 653.34L208.592 652.676ZM209.754 653.808H210.599V655.302H214.455V655.981H209.754V653.808ZM217.715 650.774C217.713 651.028 217.773 651.273 217.896 651.51C218.022 651.746 218.207 651.958 218.451 652.144C218.698 652.327 218.996 652.467 219.345 652.563L218.953 653.234C218.571 653.124 218.24 652.956 217.961 652.732C217.681 652.509 217.462 652.244 217.304 651.94C217.151 652.275 216.933 652.564 216.651 652.808C216.369 653.049 216.032 653.229 215.64 653.347L215.232 652.691C215.582 652.59 215.88 652.442 216.127 652.246C216.373 652.049 216.559 651.824 216.685 651.57C216.813 651.316 216.878 651.051 216.878 650.774V650.721H215.451V650.057H216.878V649.272H217.723V650.057H219.142V650.721H217.715V650.774ZM216.1 653.778H220.643V656.124H219.806V654.449H216.1V653.778ZM219.806 649.295H220.643V651.023H221.594V651.732H220.643V653.468H219.806V649.295ZM227.48 653.061H225.458V654.623H228.175V655.309H221.941V654.623H224.628V653.061H222.696V649.801H227.427V650.472H223.534V652.397H227.48V653.061ZM231.14 650.933C231.138 651.36 231.203 651.773 231.336 652.17C231.47 652.568 231.664 652.921 231.918 653.23C232.174 653.537 232.479 653.767 232.831 653.921L232.325 654.593C231.948 654.409 231.623 654.145 231.352 653.8C231.08 653.456 230.87 653.054 230.721 652.597C230.568 653.082 230.352 653.51 230.072 653.879C229.793 654.247 229.462 654.527 229.08 654.721L228.552 654.042C228.912 653.873 229.222 653.627 229.484 653.302C229.745 652.978 229.944 652.609 230.08 652.197C230.216 651.784 230.285 651.363 230.288 650.933V649.846H231.14V650.933ZM232.076 651.499H233.51V649.295H234.34V656.124H233.51V652.178H232.076V651.499Z" fill="#ADB5BD"/>
<path d="M205.56 662.551H205.265L203.921 660.616H203.897V662.551H203.588V660.067H203.886L205.231 662.005H205.255V660.067H205.56V662.551ZM206.109 660.067H207.615V660.342H206.418V661.172H207.536V661.443H206.418V662.276H207.632V662.551H206.109V660.067ZM207.883 660.067H208.195L208.713 662.077H208.737L209.262 660.067H209.608L210.136 662.077H210.157L210.675 660.067H210.987L210.308 662.551H209.989L209.447 660.585H209.426L208.881 662.551H208.562L207.883 660.067ZM211.985 662.551L212.894 660.067H213.22L214.129 662.551H213.803L213.554 661.851H212.556L212.308 662.551H211.985ZM213.46 661.58L213.066 660.469H213.045L212.651 661.58H213.46ZM214.465 660.067H215.309C215.498 660.067 215.655 660.1 215.781 660.165C215.908 660.229 216.002 660.319 216.064 660.434C216.125 660.549 216.156 660.681 216.156 660.832C216.156 661.001 216.117 661.147 216.04 661.268C215.963 661.388 215.848 661.475 215.693 661.529L216.252 662.551H215.892L215.372 661.585C215.36 661.586 215.34 661.587 215.312 661.587H214.774V662.551H214.465V660.067ZM215.299 661.306C215.491 661.306 215.63 661.265 215.717 661.184C215.805 661.103 215.85 660.985 215.851 660.832C215.849 660.505 215.663 660.342 215.295 660.342H214.774V661.306H215.299ZM216.602 660.067H217.446C217.635 660.067 217.792 660.1 217.918 660.165C218.045 660.229 218.139 660.319 218.201 660.434C218.262 660.549 218.293 660.681 218.293 660.832C218.293 661.001 218.254 661.147 218.177 661.268C218.1 661.388 217.985 661.475 217.83 661.529L218.389 662.551H218.029L217.509 661.585C217.497 661.586 217.477 661.587 217.449 661.587H216.911V662.551H216.602V660.067ZM217.436 661.306C217.628 661.306 217.767 661.265 217.854 661.184C217.942 661.103 217.987 660.985 217.988 660.832C217.986 660.505 217.8 660.342 217.432 660.342H216.911V661.306H217.436ZM219.048 662.551H218.739V660.067H219.048V662.551ZM220.441 662.149H220.468L221.202 660.067H221.528L220.619 662.551H220.293L219.384 660.067H219.71L220.441 662.149ZM221.432 662.551L222.341 660.067H222.667L223.576 662.551H223.25L223.001 661.851H222.003L221.754 662.551H221.432ZM222.907 661.58L222.512 660.469H222.492L222.097 661.58H222.907ZM223.912 660.067H224.221V662.276H225.373V662.551H223.912V660.067ZM227.14 660.692C227.132 660.612 227.103 660.543 227.054 660.486C227.005 660.428 226.94 660.383 226.86 660.354C226.78 660.323 226.69 660.307 226.591 660.307C226.483 660.307 226.388 660.325 226.306 660.361C226.224 660.395 226.16 660.443 226.114 660.505C226.068 660.566 226.045 660.637 226.045 660.716C226.047 660.831 226.094 660.92 226.188 660.981C226.282 661.042 226.394 661.088 226.526 661.12L226.773 661.189C226.965 661.238 227.13 661.314 227.268 661.415C227.407 661.517 227.476 661.67 227.476 661.875C227.476 662.011 227.44 662.134 227.369 662.244C227.299 662.352 227.195 662.438 227.059 662.501C226.923 662.564 226.761 662.595 226.574 662.595C226.398 662.595 226.244 662.567 226.112 662.51C225.982 662.451 225.88 662.371 225.805 662.268C225.731 662.164 225.689 662.043 225.678 661.906H225.994C226.002 661.995 226.033 662.071 226.087 662.132C226.14 662.194 226.21 662.24 226.294 662.271C226.38 662.301 226.473 662.315 226.574 662.314C226.688 662.314 226.79 662.296 226.881 662.259C226.972 662.223 227.044 662.171 227.095 662.103C227.148 662.035 227.174 661.956 227.174 661.868C227.174 661.792 227.152 661.728 227.109 661.676C227.066 661.625 227.01 661.583 226.941 661.551C226.871 661.519 226.785 661.489 226.683 661.46L226.378 661.378C226.175 661.318 226.018 661.236 225.908 661.131C225.8 661.025 225.746 660.892 225.747 660.729C225.747 660.592 225.784 660.471 225.858 660.366C225.933 660.259 226.035 660.178 226.165 660.121C226.296 660.062 226.441 660.033 226.601 660.033C226.759 660.033 226.901 660.062 227.026 660.119C227.153 660.176 227.253 660.255 227.327 660.355C227.4 660.455 227.438 660.567 227.442 660.692H227.14ZM228.8 660.067H229.671C229.839 660.067 229.98 660.096 230.095 660.155C230.21 660.212 230.296 660.29 230.352 660.39C230.409 660.489 230.437 660.601 230.436 660.726C230.437 660.873 230.401 660.989 230.326 661.072C230.252 661.155 230.154 661.213 230.031 661.247V661.271C230.112 661.276 230.191 661.303 230.268 661.354C230.346 661.404 230.41 661.475 230.46 661.568C230.51 661.66 230.536 661.768 230.536 661.892C230.534 662.02 230.504 662.134 230.445 662.233C230.386 662.332 230.295 662.41 230.17 662.467C230.047 662.523 229.891 662.551 229.702 662.551H228.8V660.067ZM229.699 662.276C229.883 662.276 230.019 662.241 230.107 662.17C230.195 662.099 230.238 662.005 230.237 661.889C230.238 661.804 230.217 661.726 230.174 661.656C230.13 661.585 230.068 661.528 229.988 661.486C229.91 661.443 229.819 661.422 229.716 661.422H229.109V662.276H229.699ZM229.661 661.155C229.75 661.155 229.831 661.138 229.904 661.103C229.978 661.068 230.035 661.018 230.078 660.954C230.12 660.889 230.141 660.814 230.141 660.729C230.141 660.655 230.124 660.589 230.09 660.53C230.055 660.472 230.003 660.426 229.932 660.393C229.862 660.359 229.775 660.342 229.671 660.342H229.109V661.155H229.661ZM233.074 661.309C233.074 661.566 233.027 661.792 232.933 661.985C232.839 662.177 232.709 662.325 232.542 662.429C232.376 662.533 232.188 662.585 231.976 662.585C231.764 662.585 231.574 662.533 231.407 662.429C231.241 662.325 231.111 662.177 231.017 661.985C230.925 661.792 230.879 661.566 230.879 661.309C230.879 661.052 230.925 660.827 231.017 660.635C231.111 660.442 231.241 660.293 231.407 660.189C231.574 660.085 231.764 660.033 231.976 660.033C232.188 660.033 232.376 660.085 232.542 660.189C232.709 660.293 232.839 660.442 232.933 660.635C233.027 660.827 233.074 661.052 233.074 661.309ZM231.177 661.309C231.177 661.516 231.212 661.694 231.282 661.842C231.351 661.991 231.446 662.104 231.566 662.18C231.688 662.257 231.824 662.296 231.976 662.297C232.128 662.296 232.264 662.257 232.384 662.18C232.506 662.104 232.601 661.991 232.671 661.842C232.741 661.694 232.775 661.516 232.775 661.309C232.775 661.101 232.741 660.923 232.671 660.774C232.601 660.625 232.506 660.513 232.384 660.436C232.264 660.359 232.128 660.321 231.976 660.321C231.824 660.321 231.688 660.359 231.566 660.436C231.446 660.513 231.351 660.625 231.282 660.774C231.212 660.923 231.177 661.101 231.177 661.309ZM235.626 661.309C235.626 661.566 235.579 661.792 235.485 661.985C235.392 662.177 235.261 662.325 235.094 662.429C234.928 662.533 234.74 662.585 234.528 662.585C234.316 662.585 234.126 662.533 233.959 662.429C233.793 662.325 233.663 662.177 233.57 661.985C233.477 661.792 233.431 661.566 233.431 661.309C233.431 661.052 233.477 660.827 233.57 660.635C233.663 660.442 233.793 660.293 233.959 660.189C234.126 660.085 234.316 660.033 234.528 660.033C234.74 660.033 234.928 660.085 235.094 660.189C235.261 660.293 235.392 660.442 235.485 660.635C235.579 660.827 235.626 661.052 235.626 661.309ZM233.729 661.309C233.729 661.516 233.764 661.694 233.834 661.842C233.903 661.991 233.998 662.104 234.118 662.18C234.24 662.257 234.376 662.296 234.528 662.297C234.68 662.296 234.816 662.257 234.936 662.18C235.058 662.104 235.153 661.991 235.223 661.842C235.293 661.694 235.328 661.516 235.328 661.309C235.328 661.101 235.293 660.923 235.223 660.774C235.153 660.625 235.058 660.513 234.936 660.436C234.816 660.359 234.68 660.321 234.528 660.321C234.376 660.321 234.24 660.359 234.118 660.436C233.998 660.513 233.903 660.625 233.834 660.774C233.764 660.923 233.729 661.101 233.729 661.309ZM236.079 660.067H236.387V661.295H236.418L237.523 660.067H237.928L236.888 661.189L237.928 662.551H237.55L236.696 661.402L236.387 661.752V662.551H236.079V660.067ZM239.612 660.692C239.604 660.612 239.575 660.543 239.526 660.486C239.477 660.428 239.412 660.383 239.332 660.354C239.252 660.323 239.162 660.307 239.063 660.307C238.955 660.307 238.861 660.325 238.778 660.361C238.696 660.395 238.632 660.443 238.586 660.505C238.54 660.566 238.518 660.637 238.518 660.716C238.519 660.831 238.566 660.92 238.66 660.981C238.754 661.042 238.866 661.088 238.998 661.12L239.245 661.189C239.437 661.238 239.602 661.314 239.74 661.415C239.879 661.517 239.948 661.67 239.948 661.875C239.948 662.011 239.913 662.134 239.842 662.244C239.771 662.352 239.667 662.438 239.531 662.501C239.395 662.564 239.233 662.595 239.046 662.595C238.87 662.595 238.716 662.567 238.584 662.51C238.454 662.451 238.352 662.371 238.277 662.268C238.203 662.164 238.161 662.043 238.151 661.906H238.466C238.474 661.995 238.505 662.071 238.559 662.132C238.612 662.194 238.682 662.24 238.766 662.271C238.852 662.301 238.945 662.315 239.046 662.314C239.16 662.314 239.262 662.296 239.353 662.259C239.444 662.223 239.516 662.171 239.567 662.103C239.62 662.035 239.646 661.956 239.646 661.868C239.646 661.792 239.624 661.728 239.581 661.676C239.539 661.625 239.483 661.583 239.413 661.551C239.343 661.519 239.257 661.489 239.156 661.46L238.85 661.378C238.647 661.318 238.49 661.236 238.38 661.131C238.272 661.025 238.218 660.892 238.219 660.729C238.219 660.592 238.256 660.471 238.331 660.366C238.405 660.259 238.507 660.178 238.638 660.121C238.768 660.062 238.913 660.033 239.073 660.033C239.231 660.033 239.373 660.062 239.499 660.119C239.626 660.176 239.726 660.255 239.799 660.355C239.872 660.455 239.91 660.567 239.914 660.692H239.612Z" fill="#ADB5BD"/>
<path d="M291.262 632.288H289.154V631.585C289.154 631.399 289.08 631.22 288.948 631.089C288.817 630.957 288.638 630.883 288.452 630.883H281.427C281.24 630.883 281.062 630.957 280.93 631.089C280.798 631.22 280.724 631.399 280.724 631.585V632.288H278.617C278.43 632.288 278.252 632.362 278.12 632.494C277.988 632.625 277.914 632.804 277.914 632.99V635.098C277.914 635.843 278.21 636.558 278.737 637.085C279.264 637.612 279.979 637.908 280.724 637.908H281.806C282.441 638.617 283.298 639.09 284.237 639.25V640.718H283.534C282.975 640.718 282.439 640.94 282.044 641.335C281.649 641.73 281.427 642.266 281.427 642.825V644.23C281.427 644.417 281.501 644.595 281.632 644.727C281.764 644.859 281.943 644.933 282.129 644.933H287.749C287.935 644.933 288.114 644.859 288.246 644.727C288.378 644.595 288.452 644.417 288.452 644.23V642.825C288.452 642.266 288.23 641.73 287.834 641.335C287.439 640.94 286.903 640.718 286.344 640.718H285.642V639.25C286.58 639.09 287.437 638.617 288.072 637.908H289.154C289.899 637.908 290.614 637.612 291.141 637.085C291.668 636.558 291.964 635.843 291.964 635.098V632.99C291.964 632.804 291.89 632.625 291.758 632.494C291.627 632.362 291.448 632.288 291.262 632.288ZM280.724 636.503C280.351 636.503 279.994 636.355 279.731 636.091C279.467 635.828 279.319 635.47 279.319 635.098V633.693H280.724V635.098C280.726 635.577 280.809 636.052 280.97 636.503H280.724ZM286.344 642.123C286.53 642.123 286.709 642.197 286.841 642.329C286.973 642.46 287.047 642.639 287.047 642.825V643.528H282.832V642.825C282.832 642.639 282.906 642.46 283.037 642.329C283.169 642.197 283.348 642.123 283.534 642.123H286.344ZM287.749 635.098C287.749 635.843 287.453 636.558 286.926 637.085C286.399 637.612 285.684 637.908 284.939 637.908C284.194 637.908 283.479 637.612 282.952 637.085C282.425 636.558 282.129 635.843 282.129 635.098V632.288H287.749V635.098ZM290.559 635.098C290.559 635.47 290.411 635.828 290.148 636.091C289.884 636.355 289.527 636.503 289.154 636.503H288.908C289.069 636.052 289.153 635.577 289.154 635.098V633.693H290.559V635.098Z" fill="#ADB5BD"/>
<path d="M274.293 656.087H273.607V652.593H272.731V655.74H272.075V649.461H272.731V652.004H273.607V649.325H274.293V656.087ZM268.717 650.14H271.252V650.721H269.433V653.853C269.874 653.851 270.26 653.837 270.592 653.812C270.926 653.786 271.267 653.74 271.614 653.672L271.667 654.261C271.29 654.339 270.918 654.391 270.55 654.419C270.186 654.444 269.725 654.459 269.169 654.464H268.717V650.14ZM281.327 652.827H278.602V653.393H280.557V654.917H276.618V655.475H280.745V656.019H275.916V654.419H279.847V653.913H275.908V653.393H277.893V652.827H275.176V652.291H281.327V652.827ZM275.478 651.483C275.908 651.461 276.292 651.403 276.629 651.31C276.966 651.217 277.239 651.096 277.448 650.948C277.656 650.799 277.785 650.631 277.833 650.442H275.787V649.891H277.893V649.295H278.602V649.891H280.715V650.442H278.659C278.707 650.631 278.834 650.799 279.04 650.948C279.249 651.096 279.523 651.217 279.863 651.31C280.205 651.403 280.592 651.461 281.025 651.483L280.806 652.027C280.202 651.982 279.676 651.872 279.229 651.699C278.781 651.525 278.454 651.294 278.248 651.004C278.041 651.294 277.713 651.525 277.263 651.699C276.815 651.872 276.288 651.982 275.682 652.027L275.478 651.483ZM282.753 651.597H284.051V649.974H284.707V651.861H285.605V649.461H286.292V655.762H285.605V652.457H284.707V654.419H282.074V649.974H282.753V651.597ZM284.051 653.823V652.178H282.753V653.823H284.051ZM286.979 649.325H287.666V656.087H286.979V649.325ZM291.959 650.284C291.959 650.641 292.074 650.988 292.303 651.325C292.532 651.662 292.836 651.95 293.216 652.189C293.598 652.425 294.004 652.583 294.435 652.661L294.103 653.257C293.74 653.179 293.394 653.051 293.065 652.872C292.735 652.693 292.442 652.476 292.186 652.219C291.932 651.96 291.733 651.675 291.59 651.363C291.444 651.672 291.243 651.956 290.986 652.215C290.729 652.472 290.436 652.69 290.107 652.868C289.777 653.047 289.431 653.176 289.069 653.257L288.752 652.661C289.177 652.58 289.577 652.422 289.952 652.185C290.329 651.946 290.633 651.66 290.861 651.325C291.09 650.988 291.205 650.641 291.205 650.284V649.77H291.959V650.284ZM288.526 654.6H294.714V655.196H288.526V654.6ZM300.691 653.498H295.982V649.884H300.623V650.465H296.706V651.378H300.479V651.944H296.706V652.925H300.691V653.498ZM295.204 654.645H301.392V655.234H295.204V654.645Z" fill="#ADB5BD"/>
<path d="M269.052 660.067H269.924C270.092 660.067 270.233 660.096 270.347 660.155C270.463 660.212 270.548 660.29 270.605 660.39C270.662 660.489 270.69 660.601 270.689 660.726C270.69 660.873 270.653 660.989 270.579 661.072C270.504 661.155 270.406 661.213 270.284 661.247V661.271C270.365 661.276 270.444 661.303 270.52 661.354C270.598 661.404 270.662 661.475 270.713 661.568C270.763 661.66 270.788 661.768 270.788 661.892C270.787 662.02 270.757 662.134 270.697 662.233C270.639 662.332 270.547 662.41 270.423 662.467C270.299 662.523 270.143 662.551 269.954 662.551H269.052V660.067ZM269.951 662.276C270.135 662.276 270.271 662.241 270.359 662.17C270.447 662.099 270.491 662.005 270.49 661.889C270.491 661.804 270.47 661.726 270.426 661.656C270.383 661.585 270.321 661.528 270.241 661.486C270.162 661.443 270.071 661.422 269.968 661.422H269.361V662.276H269.951ZM269.913 661.155C270.003 661.155 270.084 661.138 270.157 661.103C270.23 661.068 270.288 661.018 270.33 660.954C270.372 660.889 270.394 660.814 270.394 660.729C270.394 660.655 270.376 660.589 270.342 660.53C270.308 660.472 270.255 660.426 270.184 660.393C270.115 660.359 270.028 660.342 269.924 660.342H269.361V661.155H269.913ZM271.227 660.067H272.733V660.342H271.536V661.172H272.654V661.443H271.536V662.276H272.75V662.551H271.227V660.067ZM274.575 660.692C274.567 660.612 274.538 660.543 274.489 660.486C274.44 660.428 274.375 660.383 274.295 660.354C274.215 660.323 274.126 660.307 274.026 660.307C273.919 660.307 273.824 660.325 273.741 660.361C273.659 660.395 273.595 660.443 273.549 660.505C273.504 660.566 273.481 660.637 273.481 660.716C273.482 660.831 273.529 660.92 273.623 660.981C273.717 661.042 273.829 661.088 273.961 661.12L274.208 661.189C274.4 661.238 274.565 661.314 274.704 661.415C274.842 661.517 274.911 661.67 274.911 661.875C274.911 662.011 274.876 662.134 274.805 662.244C274.734 662.352 274.63 662.438 274.494 662.501C274.358 662.564 274.196 662.595 274.009 662.595C273.833 662.595 273.679 662.567 273.548 662.51C273.417 662.451 273.315 662.371 273.241 662.268C273.166 662.164 273.124 662.043 273.114 661.906H273.429C273.437 661.995 273.468 662.071 273.522 662.132C273.576 662.194 273.645 662.24 273.729 662.271C273.815 662.301 273.908 662.315 274.009 662.314C274.123 662.314 274.226 662.296 274.316 662.259C274.407 662.223 274.479 662.171 274.53 662.103C274.583 662.035 274.609 661.956 274.609 661.868C274.609 661.792 274.588 661.728 274.544 661.676C274.502 661.625 274.446 661.583 274.376 661.551C274.306 661.519 274.22 661.489 274.119 661.46L273.813 661.378C273.61 661.318 273.453 661.236 273.343 661.131C273.235 661.025 273.181 660.892 273.182 660.729C273.182 660.592 273.219 660.471 273.294 660.366C273.368 660.259 273.47 660.178 273.601 660.121C273.731 660.062 273.876 660.033 274.036 660.033C274.194 660.033 274.336 660.062 274.462 660.119C274.589 660.176 274.689 660.255 274.762 660.355C274.835 660.455 274.873 660.567 274.877 660.692H274.575ZM275.216 660.067H277.089V660.342H276.311V662.551H275.998V660.342H275.216V660.067ZM278.382 660.067H279.226C279.415 660.067 279.572 660.1 279.698 660.165C279.825 660.229 279.919 660.319 279.981 660.434C280.043 660.549 280.074 660.681 280.074 660.832C280.074 661.001 280.035 661.147 279.957 661.268C279.88 661.388 279.765 661.475 279.61 661.529L280.17 662.551H279.809L279.29 661.585C279.277 661.586 279.257 661.587 279.23 661.587H278.691V662.551H278.382V660.067ZM279.216 661.306C279.408 661.306 279.548 661.265 279.634 661.184C279.722 661.103 279.767 660.985 279.768 660.832C279.766 660.505 279.581 660.342 279.213 660.342H278.691V661.306H279.216ZM280.519 660.067H282.025V660.342H280.828V661.172H281.946V661.443H280.828V662.276H282.042V662.551H280.519V660.067ZM284.485 662.551H284.19L282.845 660.616H282.821V662.551H282.512V660.067H282.811L284.155 662.005H284.179V660.067H284.485V662.551ZM284.896 660.067H286.769V660.342H285.991V662.551H285.678V660.342H284.896V660.067ZM286.677 662.551L287.586 660.067H287.911L288.82 662.551H288.495L288.246 661.851H287.248L286.999 662.551H286.677ZM288.152 661.58L287.757 660.469H287.737L287.342 661.58H288.152ZM289.157 660.067H289.465V662.276H290.618V662.551H289.157V660.067ZM291.911 660.067H292.782C292.95 660.067 293.092 660.096 293.206 660.155C293.321 660.212 293.407 660.29 293.463 660.39C293.52 660.489 293.548 660.601 293.547 660.726C293.548 660.873 293.512 660.989 293.437 661.072C293.363 661.155 293.265 661.213 293.142 661.247V661.271C293.224 661.276 293.303 661.303 293.379 661.354C293.457 661.404 293.521 661.475 293.571 661.568C293.622 661.66 293.647 661.768 293.647 661.892C293.646 662.02 293.615 662.134 293.556 662.233C293.498 662.332 293.406 662.41 293.281 662.467C293.158 662.523 293.002 662.551 292.813 662.551H291.911V660.067ZM292.81 662.276C292.994 662.276 293.13 662.241 293.218 662.17C293.306 662.099 293.349 662.005 293.348 661.889C293.349 661.804 293.328 661.726 293.285 661.656C293.241 661.585 293.18 661.528 293.1 661.486C293.021 661.443 292.93 661.422 292.827 661.422H292.22V662.276H292.81ZM292.772 661.155C292.861 661.155 292.942 661.138 293.016 661.103C293.089 661.068 293.146 661.018 293.189 660.954C293.231 660.889 293.252 660.814 293.252 660.729C293.252 660.655 293.235 660.589 293.201 660.53C293.166 660.472 293.114 660.426 293.043 660.393C292.973 660.359 292.886 660.342 292.782 660.342H292.22V661.155H292.772ZM296.185 661.309C296.185 661.566 296.138 661.792 296.044 661.985C295.951 662.177 295.82 662.325 295.653 662.429C295.488 662.533 295.299 662.585 295.087 662.585C294.875 662.585 294.685 662.533 294.518 662.429C294.352 662.325 294.222 662.177 294.129 661.985C294.036 661.792 293.99 661.566 293.99 661.309C293.99 661.052 294.036 660.827 294.129 660.635C294.222 660.442 294.352 660.293 294.518 660.189C294.685 660.085 294.875 660.033 295.087 660.033C295.299 660.033 295.488 660.085 295.653 660.189C295.82 660.293 295.951 660.442 296.044 660.635C296.138 660.827 296.185 661.052 296.185 661.309ZM294.288 661.309C294.288 661.516 294.323 661.694 294.393 661.842C294.463 661.991 294.557 662.104 294.677 662.18C294.799 662.257 294.935 662.296 295.087 662.297C295.239 662.296 295.376 662.257 295.496 662.18C295.617 662.104 295.712 661.991 295.782 661.842C295.852 661.694 295.887 661.516 295.887 661.309C295.887 661.101 295.852 660.923 295.782 660.774C295.712 660.625 295.617 660.513 295.496 660.436C295.376 660.359 295.239 660.321 295.087 660.321C294.935 660.321 294.799 660.359 294.677 660.436C294.557 660.513 294.463 660.625 294.393 660.774C294.323 660.923 294.288 661.101 294.288 661.309ZM298.737 661.309C298.737 661.566 298.69 661.792 298.596 661.985C298.503 662.177 298.372 662.325 298.205 662.429C298.04 662.533 297.851 662.585 297.639 662.585C297.427 662.585 297.237 662.533 297.07 662.429C296.904 662.325 296.774 662.177 296.681 661.985C296.588 661.792 296.542 661.566 296.542 661.309C296.542 661.052 296.588 660.827 296.681 660.635C296.774 660.442 296.904 660.293 297.07 660.189C297.237 660.085 297.427 660.033 297.639 660.033C297.851 660.033 298.04 660.085 298.205 660.189C298.372 660.293 298.503 660.442 298.596 660.635C298.69 660.827 298.737 661.052 298.737 661.309ZM296.84 661.309C296.84 661.516 296.875 661.694 296.945 661.842C297.015 661.991 297.109 662.104 297.23 662.18C297.351 662.257 297.487 662.296 297.639 662.297C297.792 662.296 297.928 662.257 298.048 662.18C298.169 662.104 298.264 661.991 298.334 661.842C298.404 661.694 298.439 661.516 298.439 661.309C298.439 661.101 298.404 660.923 298.334 660.774C298.264 660.625 298.169 660.513 298.048 660.436C297.928 660.359 297.792 660.321 297.639 660.321C297.487 660.321 297.351 660.359 297.23 660.436C297.109 660.513 297.015 660.625 296.945 660.774C296.875 660.923 296.84 661.101 296.84 661.309ZM299.19 660.067H299.499V661.295H299.529L300.634 660.067H301.039L299.999 661.189L301.039 662.551H300.661L299.807 661.402L299.499 661.752V662.551H299.19V660.067Z" fill="#ADB5BD"/>
<g clip-path="url(#clip4_3140_9358)">
<path d="M346.054 635.449C347.41 635.449 348.513 634.346 348.513 632.99C348.513 631.634 347.41 630.531 346.054 630.531C344.698 630.531 343.595 631.634 343.595 632.99C343.595 634.346 344.698 635.449 346.054 635.449ZM346.054 631.936C346.637 631.936 347.108 632.407 347.108 632.99C347.108 633.573 346.637 634.044 346.054 634.044C345.471 634.044 345 633.573 345 632.99C345 632.407 345.471 631.936 346.054 631.936ZM346.089 638.961H343.083C343.778 638.61 344.979 638.259 346.054 638.259C346.131 638.259 346.216 638.266 346.293 638.266C346.532 637.753 346.946 637.331 347.445 636.994C346.932 636.903 346.448 636.854 346.054 636.854C344.41 636.854 341.137 637.676 341.137 639.313V640.366H346.054V639.313C346.054 639.193 346.068 639.074 346.089 638.961ZM351.323 637.205C350.03 637.205 347.459 637.915 347.459 639.313V640.366H355.187V639.313C355.187 637.915 352.616 637.205 351.323 637.205ZM352.173 635.926C352.707 635.624 353.079 635.055 353.079 634.395C353.079 633.426 352.292 632.639 351.323 632.639C350.354 632.639 349.567 633.426 349.567 634.395C349.567 635.055 349.939 635.624 350.473 635.926C350.726 636.067 351.014 636.151 351.323 636.151C351.632 636.151 351.92 636.067 352.173 635.926Z" fill="#191F28"/>
</g>
<path d="M340.414 648.494H341.365V649.181H340.414V650.834H339.576V646.834H340.414V648.494ZM335.011 650.26C335.521 650.122 335.963 649.939 336.335 649.713C336.71 649.487 337.005 649.228 337.222 648.936C337.438 648.641 337.57 648.323 337.618 647.981H335.32V647.302H338.527C338.527 647.893 338.403 648.429 338.154 648.909C337.905 649.387 337.543 649.797 337.067 650.139C336.592 650.481 336.017 650.748 335.343 650.939L335.011 650.26ZM335.931 652.283C335.929 652.006 336.022 651.764 336.211 651.558C336.399 651.352 336.666 651.193 337.01 651.083C337.355 650.972 337.755 650.917 338.21 650.917C338.668 650.917 339.068 650.972 339.41 651.083C339.755 651.193 340.02 651.352 340.206 651.558C340.395 651.764 340.489 652.006 340.489 652.283C340.489 652.562 340.395 652.805 340.206 653.011C340.02 653.217 339.755 653.374 339.41 653.482C339.068 653.593 338.668 653.648 338.21 653.648C337.755 653.648 337.355 653.593 337.01 653.482C336.666 653.374 336.399 653.217 336.211 653.011C336.022 652.805 335.929 652.562 335.931 652.283ZM336.761 652.283C336.761 652.428 336.819 652.555 336.935 652.664C337.051 652.769 337.217 652.851 337.433 652.909C337.652 652.964 337.911 652.992 338.21 652.992C338.507 652.992 338.765 652.964 338.984 652.909C339.203 652.851 339.371 652.769 339.489 652.664C339.608 652.555 339.667 652.428 339.667 652.283C339.664 652.059 339.534 651.885 339.274 651.762C339.015 651.636 338.661 651.573 338.21 651.573C337.911 651.573 337.652 651.601 337.433 651.656C337.217 651.712 337.051 651.793 336.935 651.901C336.819 652.007 336.761 652.134 336.761 652.283ZM345.636 648.102H344.21C344.22 648.358 344.288 648.604 344.414 648.838C344.539 649.069 344.722 649.275 344.961 649.456C345.202 649.638 345.49 649.777 345.825 649.875L345.425 650.532C345.042 650.419 344.713 650.249 344.436 650.022C344.159 649.796 343.944 649.528 343.791 649.219C343.637 649.558 343.419 649.851 343.134 650.098C342.853 650.344 342.514 650.529 342.119 650.653L341.689 649.996C342.034 649.893 342.329 649.746 342.576 649.555C342.822 649.363 343.011 649.143 343.142 648.894C343.273 648.643 343.344 648.379 343.357 648.102H341.923V647.415H345.636V648.102ZM341.629 651.626C342.371 651.626 342.95 651.621 343.365 651.611V650.366H344.202V651.581C344.811 651.553 345.359 651.505 345.847 651.437L345.908 652.041C345.478 652.122 345.029 652.182 344.561 652.222C344.095 652.262 343.663 652.288 343.263 652.298C342.863 652.305 342.392 652.31 341.852 652.313H341.742L341.629 651.626ZM346.24 646.834H347.077V649.573H348.066V650.275H347.077V653.656H346.24V646.834ZM353.771 648.834H354.722V649.528H353.771V651.822H352.933V646.834H353.771V648.834ZM348.466 649.007C348.466 648.678 348.546 648.382 348.707 648.121C348.868 647.859 349.088 647.655 349.368 647.509C349.649 647.361 349.963 647.287 350.307 647.287C350.649 647.287 350.96 647.361 351.239 647.509C351.521 647.655 351.742 647.859 351.903 648.121C352.064 648.382 352.146 648.678 352.149 649.007C352.146 649.332 352.063 649.625 351.9 649.887C351.739 650.148 351.518 650.353 351.239 650.502C350.96 650.648 350.649 650.72 350.307 650.72C349.965 650.72 349.653 650.648 349.371 650.502C349.09 650.353 348.868 650.148 348.707 649.887C348.546 649.625 348.466 649.332 348.466 649.007ZM349.288 649.007C349.288 649.199 349.332 649.368 349.421 649.517C349.511 649.665 349.634 649.78 349.79 649.86C349.946 649.941 350.119 649.981 350.307 649.981C350.498 649.981 350.671 649.941 350.824 649.86C350.98 649.78 351.102 649.666 351.19 649.521C351.281 649.372 351.326 649.201 351.326 649.007C351.326 648.811 351.281 648.639 351.19 648.49C351.102 648.34 350.98 648.224 350.824 648.143C350.671 648.06 350.498 648.019 350.307 648.019C350.116 648.019 349.942 648.06 349.787 648.143C349.633 648.224 349.511 648.34 349.421 648.49C349.332 648.639 349.288 648.811 349.288 649.007ZM349.402 651.302H350.239V652.841H354.043V653.52H349.402V651.302ZM360.925 653.656H360.118V650.207H359.363V653.309H358.578V646.962H359.363V649.521H360.118V646.834H360.925V653.656ZM355.363 647.619H356.209V651.219C356.875 651.206 357.524 651.138 358.155 651.015L358.238 651.747C357.439 651.888 356.631 651.958 355.816 651.958H355.363V647.619Z" fill="#191F28"/>
<path d="M341.448 658.392C341.425 658.281 341.38 658.187 341.312 658.108C341.245 658.028 341.162 657.967 341.065 657.926C340.969 657.885 340.866 657.864 340.755 657.864C340.603 657.864 340.466 657.902 340.345 657.979C340.225 658.056 340.13 658.168 340.06 658.317C339.991 658.466 339.956 658.644 339.956 658.852C339.956 659.059 339.991 659.237 340.06 659.385C340.13 659.534 340.225 659.647 340.345 659.723C340.466 659.8 340.603 659.839 340.755 659.84C340.866 659.839 340.969 659.818 341.065 659.778C341.161 659.737 341.243 659.677 341.311 659.598C341.378 659.519 341.424 659.425 341.448 659.315H341.756C341.727 659.481 341.665 659.626 341.571 659.749C341.478 659.871 341.36 659.965 341.218 660.03C341.077 660.095 340.923 660.128 340.755 660.128C340.542 660.128 340.352 660.076 340.185 659.972C340.02 659.868 339.89 659.72 339.796 659.528C339.704 659.335 339.657 659.109 339.657 658.852C339.657 658.595 339.704 658.37 339.796 658.178C339.89 657.985 340.02 657.836 340.185 657.732C340.352 657.628 340.542 657.576 340.755 657.576C340.923 657.576 341.077 657.609 341.218 657.674C341.359 657.738 341.476 657.832 341.57 657.955C341.664 658.077 341.727 658.223 341.756 658.392H341.448ZM344.123 657.61V659.253C344.123 659.423 344.083 659.575 344.003 659.71C343.923 659.843 343.81 659.949 343.664 660.025C343.517 660.101 343.348 660.138 343.156 660.138C342.964 660.138 342.795 660.101 342.648 660.025C342.502 659.949 342.389 659.843 342.309 659.71C342.229 659.575 342.189 659.423 342.189 659.253V657.61H342.497V659.229C342.497 659.349 342.524 659.456 342.576 659.55C342.629 659.644 342.705 659.718 342.804 659.771C342.905 659.824 343.022 659.85 343.156 659.85C343.29 659.85 343.406 659.824 343.506 659.771C343.605 659.718 343.681 659.644 343.734 659.55C343.787 659.456 343.813 659.349 343.815 659.229V657.61H344.123ZM344.672 657.61H344.981V659.819H346.133V660.094H344.672V657.61ZM346.079 657.61H347.951V657.885H347.173V660.094H346.861V657.885H346.079V657.61ZM350.298 657.61V659.253C350.298 659.423 350.258 659.575 350.178 659.71C350.098 659.843 349.984 659.949 349.838 660.025C349.692 660.101 349.522 660.138 349.33 660.138C349.138 660.138 348.969 660.101 348.823 660.025C348.676 659.949 348.563 659.843 348.483 659.71C348.403 659.575 348.363 659.423 348.363 659.253V657.61H348.672V659.229C348.672 659.349 348.698 659.456 348.751 659.55C348.803 659.644 348.879 659.718 348.979 659.771C349.079 659.824 349.197 659.85 349.33 659.85C349.464 659.85 349.581 659.824 349.68 659.771C349.78 659.718 349.856 659.644 349.908 659.55C349.961 659.456 349.988 659.349 349.989 659.229V657.61H350.298ZM350.846 657.61H351.69C351.879 657.61 352.036 657.643 352.162 657.708C352.289 657.772 352.383 657.862 352.445 657.977C352.507 658.092 352.538 658.224 352.538 658.375C352.538 658.544 352.499 658.69 352.421 658.811C352.344 658.931 352.229 659.018 352.074 659.072L352.634 660.094H352.273L351.754 659.128C351.741 659.129 351.721 659.13 351.694 659.13H351.155V660.094H350.846V657.61ZM351.68 658.849C351.872 658.849 352.012 658.808 352.098 658.727C352.187 658.646 352.231 658.528 352.232 658.375C352.23 658.048 352.045 657.885 351.677 657.885H351.155V658.849H351.68ZM352.771 660.094L353.68 657.61H354.006L354.915 660.094H354.589L354.34 659.394H353.342L353.093 660.094H352.771ZM354.246 659.123L353.851 658.012H353.831L353.436 659.123H354.246ZM355.251 657.61H355.56V659.819H356.712V660.094H355.251V657.61Z" fill="#191F28"/>
<path d="M337.625 666.008C345.855 666.008 350.47 666.008 358.7 666.008" stroke="#0C152D" stroke-width="1.22938" stroke-linecap="round"/>
</g>
<path d="M35.6205 27.1225C35.5894 26.956 35.5244 26.8124 35.4256 26.6917C35.3287 26.5709 35.2079 26.4795 35.0634 26.4173C34.9207 26.3551 34.7643 26.3249 34.5942 26.3267C34.3636 26.3249 34.1578 26.3825 33.9767 26.4996C33.7974 26.6148 33.6557 26.785 33.5514 27.01C33.4489 27.2332 33.3977 27.5012 33.3977 27.814C33.3977 28.1287 33.4489 28.3985 33.5514 28.6235C33.6557 28.8467 33.7974 29.016 33.9767 29.1312C34.1578 29.2465 34.3636 29.3032 34.5942 29.3013C34.7625 29.3032 34.918 29.2739 35.0607 29.2135C35.2034 29.1513 35.3232 29.0608 35.4201 28.9419C35.5189 28.823 35.5857 28.6812 35.6205 28.5165L36.2297 28.522C36.1876 28.7818 36.0915 29.0132 35.9415 29.2163C35.7933 29.4175 35.6022 29.5748 35.368 29.6883C35.1357 29.7999 34.8759 29.8557 34.5887 29.8557C34.2429 29.8557 33.9346 29.7733 33.6639 29.6087C33.3931 29.444 33.1809 29.208 33.0273 28.9007C32.8754 28.5915 32.7995 28.2293 32.7995 27.814C32.7995 27.3987 32.8763 27.0374 33.03 26.7301C33.1837 26.4209 33.3959 26.184 33.6666 26.0194C33.9374 25.8547 34.2447 25.7724 34.5887 25.7724C34.8686 25.7724 35.1247 25.8263 35.357 25.9343C35.5894 26.0404 35.7815 26.195 35.9333 26.398C36.087 26.6011 36.1858 26.8426 36.2297 27.1225H35.6205ZM41.4589 27.814C41.4589 28.2293 41.3821 28.5915 41.2284 28.9007C41.0747 29.208 40.8616 29.444 40.589 29.6087C40.3183 29.7733 40.0118 29.8557 39.6697 29.8557C39.324 29.8557 39.0148 29.7733 38.7422 29.6087C38.4714 29.4422 38.2592 29.2053 38.1056 28.898C37.9519 28.5888 37.8751 28.2275 37.8751 27.814C37.8751 27.3987 37.9519 27.0374 38.1056 26.7301C38.2592 26.4209 38.4714 26.184 38.7422 26.0194C39.0148 25.8547 39.324 25.7724 39.6697 25.7724C40.0118 25.7724 40.3183 25.8547 40.589 26.0194C40.8616 26.184 41.0747 26.4209 41.2284 26.7301C41.3821 27.0374 41.4589 27.3987 41.4589 27.814ZM38.4733 27.814C38.4733 28.1287 38.5245 28.3985 38.6269 28.6235C38.7312 28.8467 38.873 29.016 39.0523 29.1312C39.2334 29.2465 39.4392 29.3032 39.6697 29.3013C39.8984 29.3032 40.1024 29.2465 40.2817 29.1312C40.4628 29.016 40.6046 28.8467 40.707 28.6235C40.8095 28.3985 40.8607 28.1287 40.8607 27.814C40.8607 27.4994 40.8095 27.2304 40.707 27.0072C40.6046 26.7822 40.4628 26.6121 40.2817 26.4968C40.1024 26.3816 39.8984 26.3249 39.6697 26.3267C39.4392 26.3249 39.2334 26.3816 39.0523 26.4968C38.873 26.6121 38.7312 26.7822 38.6269 27.0072C38.5245 27.2304 38.4733 27.4994 38.4733 27.814ZM46.4192 25.8273V28.4397C46.4192 28.7159 46.3534 28.962 46.2216 29.1779C46.0917 29.3937 45.907 29.563 45.6673 29.6855C45.4295 29.8063 45.1551 29.8666 44.8441 29.8666C44.5294 29.8666 44.2523 29.8063 44.0126 29.6855C43.7729 29.563 43.5882 29.3937 43.4583 29.1779C43.3284 28.962 43.2635 28.7159 43.2635 28.4397V25.8273H43.8672V28.3903C43.8672 28.5696 43.9065 28.7297 43.9852 28.8705C44.0638 29.0096 44.1773 29.1193 44.3254 29.1998C44.4736 29.2785 44.6465 29.3178 44.8441 29.3178C45.0417 29.3178 45.2136 29.2785 45.36 29.1998C45.5063 29.1193 45.6188 29.0096 45.6975 28.8705C45.7762 28.7297 45.8155 28.5696 45.8155 28.3903V25.8273H46.4192ZM48.3555 25.8273H49.7715C50.0715 25.8273 50.3249 25.8794 50.5316 25.9837C50.7383 26.088 50.8929 26.2334 50.9953 26.42C51.0978 26.6066 51.149 26.8243 51.149 27.0731C51.149 27.3439 51.0877 27.5762 50.9652 27.7701C50.8426 27.9622 50.6624 28.104 50.4246 28.1955L51.3027 29.8008H50.6167L49.8099 28.3025H49.7715H48.9592V29.8008H48.3555V25.8273ZM49.7111 27.7811C49.9965 27.7793 50.206 27.7189 50.3395 27.6C50.473 27.4792 50.5398 27.3036 50.5398 27.0731C50.5398 26.8408 50.4721 26.6615 50.3368 26.5353C50.2032 26.409 49.9947 26.345 49.7111 26.3432H48.9592V27.7811H49.7111ZM55.105 26.8755C55.0867 26.6926 55.0034 26.5499 54.8553 26.4474C54.7071 26.345 54.5177 26.2938 54.2872 26.2938C54.1281 26.2938 53.9881 26.3194 53.8674 26.3706C53.7485 26.42 53.6561 26.4895 53.5902 26.5792C53.5244 26.6688 53.4914 26.7694 53.4914 26.881C53.4914 27.0493 53.5609 27.1792 53.7 27.2707C53.839 27.3622 54.011 27.4317 54.2159 27.4792L54.6001 27.5835C55.3629 27.7683 55.7453 28.1415 55.7471 28.7031C55.7453 28.9281 55.6858 29.1285 55.5687 29.3041C55.4535 29.4797 55.2843 29.6178 55.0611 29.7185C54.8397 29.8172 54.5763 29.8666 54.2708 29.8666C53.9762 29.8666 53.7192 29.82 53.4997 29.7267C53.282 29.6316 53.1109 29.4962 52.9865 29.3206C52.8639 29.1449 52.7962 28.9373 52.7834 28.6976H53.3871C53.4036 28.9062 53.4932 29.0654 53.6561 29.1751C53.8207 29.2831 54.0256 29.3379 54.2708 29.3398C54.4391 29.3398 54.5891 29.3132 54.7208 29.2602C54.8543 29.2053 54.9586 29.1294 55.0336 29.0324C55.1105 28.9336 55.1489 28.8202 55.1489 28.6921C55.1489 28.5824 55.1169 28.49 55.0528 28.415C54.9888 28.34 54.9028 28.2787 54.7949 28.2311C54.6888 28.1817 54.5561 28.136 54.397 28.0939L53.925 27.9677C53.592 27.8762 53.3359 27.7445 53.1566 27.5725C52.9792 27.4006 52.8895 27.181 52.8877 26.9139C52.8877 26.6889 52.949 26.4904 53.0716 26.3185C53.196 26.1447 53.3652 26.0102 53.5792 25.9151C53.7951 25.8199 54.0366 25.7724 54.3037 25.7724C54.569 25.7724 54.8059 25.8199 55.0144 25.9151C55.223 26.0084 55.3867 26.1392 55.5056 26.3075C55.6245 26.474 55.6867 26.6633 55.6922 26.8755H55.105ZM57.5187 25.8273H60.0104V26.3487H58.1224V27.5506H59.8787V28.0665H58.1224V29.2794H60.0324V29.8008H57.5187V25.8273ZM64.9751 29.8008H64.3714V25.8273H64.9751V29.8008ZM70.111 29.8008H69.5567L67.5425 26.8975H67.5096V29.8008H66.9059V25.8273H67.4657L69.4799 28.7361H69.5183V25.8273H70.111V29.8008ZM72.0473 25.8273H74.5116V26.3487H72.651V27.5506H74.3359V28.0665H72.651V29.8008H72.0473V25.8273ZM79.7627 27.814C79.7627 28.2293 79.6859 28.5915 79.5322 28.9007C79.3786 29.208 79.1654 29.444 78.8929 29.6087C78.6221 29.7733 78.3157 29.8557 77.9736 29.8557C77.6278 29.8557 77.3186 29.7733 77.046 29.6087C76.7753 29.4422 76.5631 29.2053 76.4094 28.898C76.2557 28.5888 76.1789 28.2275 76.1789 27.814C76.1789 27.3987 76.2557 27.0374 76.4094 26.7301C76.5631 26.4209 76.7753 26.184 77.046 26.0194C77.3186 25.8547 77.6278 25.7724 77.9736 25.7724C78.3157 25.7724 78.6221 25.8547 78.8929 26.0194C79.1654 26.184 79.3786 26.4209 79.5322 26.7301C79.6859 27.0374 79.7627 27.3987 79.7627 27.814ZM76.7771 27.814C76.7771 28.1287 76.8283 28.3985 76.9308 28.6235C77.0351 28.8467 77.1768 29.016 77.3561 29.1312C77.5372 29.2465 77.7431 29.3032 77.9736 29.3013C78.2022 29.3032 78.4062 29.2465 78.5855 29.1312C78.7666 29.016 78.9084 28.8467 79.0108 28.6235C79.1133 28.3985 79.1645 28.1287 79.1645 27.814C79.1645 27.4994 79.1133 27.2304 79.0108 27.0072C78.9084 26.7822 78.7666 26.6121 78.5855 26.4968C78.4062 26.3816 78.2022 26.3249 77.9736 26.3267C77.7431 26.3249 77.5372 26.3816 77.3561 26.4968C77.1768 26.6121 77.0351 26.7822 76.9308 27.0072C76.8283 27.2304 76.7771 27.4994 76.7771 27.814ZM81.5673 25.8273H82.9833C83.2833 25.8273 83.5367 25.8794 83.7434 25.9837C83.9501 26.088 84.1047 26.2334 84.2072 26.42C84.3096 26.6066 84.3608 26.8243 84.3608 27.0731C84.3608 27.3439 84.2995 27.5762 84.177 27.7701C84.0544 27.9622 83.8742 28.104 83.6364 28.1955L84.5145 29.8008H83.8285L83.0217 28.3025H82.9833H82.171V29.8008H81.5673V25.8273ZM82.9229 27.7811C83.2083 27.7793 83.4178 27.7189 83.5513 27.6C83.6849 27.4792 83.7516 27.3036 83.7516 27.0731C83.7516 26.8408 83.6839 26.6615 83.5486 26.5353C83.415 26.409 83.2065 26.345 82.9229 26.3432H82.171V27.7811H82.9229ZM86.8898 25.8273L88.1466 28.9062H88.196L89.4529 25.8273H90.1883V29.8008H89.612V26.9304H89.5736L88.4101 29.7953H87.9326L86.7636 26.9249H86.7307V29.8008H86.1544V25.8273H86.8898ZM91.8227 29.8008L93.2497 25.8273H93.9467L95.3791 29.8008H94.737L94.3748 28.7525H92.8271L92.4648 29.8008H91.8227ZM94.1991 28.2476L93.6119 26.5517H93.5844L92.9999 28.2476H94.1991ZM96.333 25.8273H99.4119V26.3487H98.177V29.8008H97.5733V26.3487H96.333V25.8273ZM101.754 29.8008H101.151V25.8273H101.754V29.8008ZM107.137 27.814C107.137 28.2293 107.06 28.5915 106.907 28.9007C106.753 29.208 106.54 29.444 106.267 29.6087C105.997 29.7733 105.69 29.8557 105.348 29.8557C105.002 29.8557 104.693 29.7733 104.421 29.6087C104.15 29.4422 103.938 29.2053 103.784 28.898C103.63 28.5888 103.553 28.2275 103.553 27.814C103.553 27.3987 103.63 27.0374 103.784 26.7301C103.938 26.4209 104.15 26.184 104.421 26.0194C104.693 25.8547 105.002 25.7724 105.348 25.7724C105.69 25.7724 105.997 25.8547 106.267 26.0194C106.54 26.184 106.753 26.4209 106.907 26.7301C107.06 27.0374 107.137 27.3987 107.137 27.814ZM104.152 27.814C104.152 28.1287 104.203 28.3985 104.305 28.6235C104.41 28.8467 104.551 29.016 104.731 29.1312C104.912 29.2465 105.118 29.3032 105.348 29.3013C105.577 29.3032 105.781 29.2465 105.96 29.1312C106.141 29.016 106.283 28.8467 106.385 28.6235C106.488 28.3985 106.539 28.1287 106.539 27.814C106.539 27.4994 106.488 27.2304 106.385 27.0072C106.283 26.7822 106.141 26.6121 105.96 26.4968C105.781 26.3816 105.577 26.3249 105.348 26.3267C105.118 26.3249 104.912 26.3816 104.731 26.4968C104.551 26.6121 104.41 26.7822 104.305 27.0072C104.203 27.2304 104.152 27.4994 104.152 27.814ZM112.147 29.8008H111.593L109.578 26.8975H109.545V29.8008H108.942V25.8273H109.502L111.516 28.7361H111.554V25.8273H112.147V29.8008Z" fill="#ADB5BD"/>
<path d="M43.8342 40.221H45.8223V41.6569H43.8342V45.1124H42.0828V36.7496H43.8342V40.221ZM32.5366 43.9132C33.6043 43.6239 34.5273 43.2426 35.3058 42.7693C36.0894 42.2959 36.7074 41.7542 37.1598 41.144C37.6121 40.5287 37.8882 39.8633 37.9882 39.148H33.1835V37.7279H39.8895C39.8895 38.9639 39.6292 40.0842 39.1085 41.0888C38.5878 42.0881 37.8304 42.9455 36.8363 43.6608C35.8422 44.3761 34.6404 44.9336 33.2308 45.3333L32.5366 43.9132ZM34.4616 48.1419C34.4563 47.5634 34.6509 47.0585 35.0454 46.6272C35.4399 46.1959 35.9974 45.8645 36.718 45.6331C37.4385 45.4017 38.2748 45.286 39.2268 45.286C40.184 45.286 41.0203 45.4017 41.7356 45.6331C42.4562 45.8645 43.0111 46.1959 43.4003 46.6272C43.7948 47.0585 43.992 47.5634 43.992 48.1419C43.992 48.7258 43.7948 49.2333 43.4003 49.6646C43.0111 50.0959 42.4562 50.4246 41.7356 50.6508C41.0203 50.8822 40.184 50.9979 39.2268 50.9979C38.2748 50.9979 37.4385 50.8822 36.718 50.6508C35.9974 50.4246 35.4399 50.0959 35.0454 49.6646C34.6509 49.2333 34.4563 48.7258 34.4616 48.1419ZM36.1973 48.1419C36.1973 48.447 36.3182 48.7126 36.5602 48.9388C36.8021 49.1597 37.1493 49.3306 37.6016 49.4516C38.0592 49.5673 38.6009 49.6252 39.2268 49.6252C39.8474 49.6252 40.3865 49.5673 40.8441 49.4516C41.3017 49.3306 41.6541 49.1597 41.9013 48.9388C42.1485 48.7126 42.2721 48.447 42.2721 48.1419C42.2669 47.6738 41.9934 47.3109 41.4516 47.0532C40.9099 46.7902 40.1683 46.6587 39.2268 46.6587C38.6009 46.6587 38.0592 46.7166 37.6016 46.8323C37.1493 46.948 36.8021 47.119 36.5602 47.3451C36.3182 47.566 36.1973 47.8316 36.1973 48.1419ZM54.7532 39.4005H51.771C51.792 39.937 51.934 40.4498 52.197 40.9389C52.46 41.4228 52.8413 41.8541 53.341 42.2328C53.8459 42.6115 54.4481 42.9034 55.1476 43.1085L54.3114 44.4813C53.5119 44.2446 52.8229 43.8896 52.2443 43.4162C51.6658 42.9428 51.2161 42.3827 50.8952 41.7357C50.5744 42.4458 50.1168 43.0585 49.5225 43.574C48.9334 44.0894 48.226 44.476 47.4002 44.7337L46.5008 43.361C47.2214 43.1453 47.8394 42.8376 48.3548 42.4379C48.8703 42.0382 49.2648 41.578 49.5383 41.0573C49.8118 40.5313 49.9617 39.979 49.988 39.4005H46.99V37.9646H54.7532V39.4005ZM46.3746 46.7692C47.9262 46.7692 49.1359 46.7587 50.0037 46.7376V44.1341H51.7552V46.6745C53.028 46.6167 54.1746 46.5167 55.195 46.3747L55.3212 47.637C54.4218 47.8053 53.483 47.9316 52.5047 48.0157C51.5316 48.0999 50.627 48.1525 49.7907 48.1735C48.9544 48.1893 47.9709 48.1998 46.8401 48.2051H46.6113L46.3746 46.7692ZM56.0155 36.7496H57.7669V42.4773H59.8339V43.9448H57.7669V51.0137H56.0155V36.7496ZM71.7627 40.931H73.7509V42.3827H71.7627V47.1794H70.0113V36.7496H71.7627V40.931ZM60.6702 41.2939C60.6702 40.6049 60.8385 39.9869 61.1751 39.4399C61.5118 38.8929 61.972 38.4669 62.5558 38.1618C63.1449 37.8515 63.7997 37.6964 64.5202 37.6964C65.2356 37.6964 65.8851 37.8515 66.4689 38.1618C67.058 38.4669 67.5209 38.8929 67.8575 39.4399C68.1941 39.9869 68.365 40.6049 68.3703 41.2939C68.365 41.9724 68.1915 42.5852 67.8496 43.1322C67.513 43.6792 67.0527 44.1078 66.4689 44.4181C65.8851 44.7232 65.2356 44.8757 64.5202 44.8757C63.8049 44.8757 63.1527 44.7232 62.5637 44.4181C61.9746 44.1078 61.5118 43.6792 61.1751 43.1322C60.8385 42.5852 60.6702 41.9724 60.6702 41.2939ZM62.3901 41.2939C62.3901 41.6937 62.4821 42.0487 62.6662 42.359C62.8556 42.6693 63.1133 42.9086 63.4394 43.0769C63.7655 43.2453 64.1258 43.3294 64.5202 43.3294C64.92 43.3294 65.2803 43.2453 65.6011 43.0769C65.9272 42.9086 66.1823 42.672 66.3664 42.3669C66.5557 42.0566 66.6504 41.6989 66.6504 41.2939C66.6504 40.8837 66.5557 40.5234 66.3664 40.2131C66.1823 39.8975 65.9272 39.6556 65.6011 39.4873C65.2803 39.3137 64.92 39.2269 64.5202 39.2269C64.1205 39.2269 63.7576 39.3137 63.4315 39.4873C63.1107 39.6556 62.8556 39.8975 62.6662 40.2131C62.4821 40.5234 62.3901 40.8837 62.3901 41.2939ZM62.6268 46.0907H64.3782V49.3096H72.3308V50.7297H62.6268V46.0907ZM86.721 51.0137H85.0327V43.8028H83.4548V50.2879H81.8138V37.0179H83.4548V42.3669H85.0327V36.7496H86.721V51.0137ZM75.0921 38.3906H76.8593V45.9171C78.2531 45.8908 79.6101 45.7488 80.9302 45.4911L81.1038 47.0216C79.4312 47.3162 77.7429 47.4635 76.0388 47.4635H75.0921V38.3906Z" fill="#191F28"/>
</g>
<defs>
<filter id="filter0_d_3140_9358" x="-6.59922" y="-8.56641" width="396.914" height="691.965" filterUnits="userSpaceOnUse" color-interpolation-filters="sRGB">
<feFlood flood-opacity="0" result="BackgroundImageFix"/>
<feColorMatrix in="SourceAlpha" type="matrix" values="0 0 0 0 0 0 0 0 0 0 0 0 0 0 0 0 0 0 127 0" result="hardAlpha"/>
<feOffset dx="1.75625"/>
<feGaussianBlur stdDeviation="4.39063"/>
<feComposite in2="hardAlpha" operator="out"/>
<feColorMatrix type="matrix" values="0 0 0 0 0 0 0 0 0 0 0 0 0 0 0 0 0 0 0.3 0"/>
<feBlend mode="multiply" in2="BackgroundImageFix" result="effect1_dropShadow_3140_9358"/>
<feBlend mode="normal" in="SourceGraphic" in2="effect1_dropShadow_3140_9358" result="shape"/>
</filter>
<filter id="filter1_d_3140_9358" x="-6.59922" y="611.038" width="393.402" height="70.2492" filterUnits="userSpaceOnUse" color-interpolation-filters="sRGB">
<feFlood flood-opacity="0" result="BackgroundImageFix"/>
<feColorMatrix in="SourceAlpha" type="matrix" values="0 0 0 0 0 0 0 0 0 0 0 0 0 0 0 0 0 0 127 0" result="hardAlpha"/>
<feOffset dy="-0.35125"/>
<feGaussianBlur stdDeviation="3.5125"/>
<feComposite in2="hardAlpha" operator="out"/>
<feColorMatrix type="matrix" values="0 0 0 0 0 0 0 0 0 0 0 0 0 0 0 0 0 0 0.1 0"/>
<feBlend mode="normal" in2="BackgroundImageFix" result="effect1_dropShadow_3140_9358"/>
<feBlend mode="normal" in="SourceGraphic" in2="effect1_dropShadow_3140_9358" result="shape"/>
</filter>
<linearGradient id="paint0_linear_3140_9358" x1="190.101" y1="674.616" x2="190.101" y2="0.214844" gradientUnits="userSpaceOnUse">
<stop stop-color="#E9E0D7"/>
<stop offset="1" stop-color="#C3D8EC"/>
</linearGradient>
<clipPath id="clip0_3140_9358">
<rect width="379.35" height="674.401" fill="white" transform="translate(0.425781 0.214844)"/>
</clipPath>
<clipPath id="clip1_3140_9358">
<rect width="16.86" height="16.86" fill="white" transform="translate(23.6094 629.477)"/>
</clipPath>
<clipPath id="clip2_3140_9358">
<rect width="16.86" height="16.86" fill="white" transform="translate(86.8359 629.477)"/>
</clipPath>
<clipPath id="clip3_3140_9358">
<rect width="16.86" height="16.86" fill="white" transform="translate(150.059 629.477)"/>
</clipPath>
<clipPath id="clip4_3140_9358">
<rect width="16.86" height="16.86" fill="white" transform="translate(339.734 627.02)"/>
</clipPath>
</defs>
</svg>
