<svg width="380" height="675" viewBox="0 0 380 675" fill="none" xmlns="http://www.w3.org/2000/svg">
<g clip-path="url(#clip0_3140_9002)">
<rect x="0.625" y="0.214844" width="379.35" height="674.401" fill="#E4E3E5"/>
<g filter="url(#filter0_d_3140_9002)">
<path d="M0.625 0.214844L379.975 0.214844L379.975 674.616L0.625 674.616L0.625 0.214844Z" fill="url(#paint0_linear_3140_9002)"/>
<path d="M0.625 0.214844L379.975 0.214844L379.975 674.616L0.625 674.616L0.625 0.214844Z" fill="url(#paint1_linear_3140_9002)"/>
<path d="M0.625 0.214844L379.975 0.214844L379.975 674.616L0.625 674.616L0.625 0.214844Z" fill="url(#paint2_linear_3140_9002)"/>
<path d="M0.625 0.214844L379.975 0.214844L379.975 674.616L0.625 674.616L0.625 0.214844Z" fill="#E3DED6"/>
<path d="M0.625 0.214844L379.975 0.214844L379.975 674.616L0.625 674.616L0.625 0.214844Z" fill="url(#paint3_linear_3140_9002)"/>
<path d="M0.625 0.214844L379.975 0.214844L379.975 674.616L0.625 674.616L0.625 0.214844Z" fill="url(#paint4_linear_3140_9002)"/>
<path d="M0.625 0.214844L379.975 0.214844L379.975 674.616L0.625 674.616L0.625 0.214844Z" fill="url(#paint5_linear_3140_9002)"/>
</g>
<g filter="url(#filter1_d_3140_9002)">
<rect width="379.35" height="56.2001" transform="translate(0.625 618.414)" fill="white"/>
<g clip-path="url(#clip1_3140_9002)">
<path d="M32.2372 644.933C33.0099 644.933 33.6422 644.301 33.6422 643.528H30.8322C30.8322 644.301 31.4644 644.933 32.2372 644.933ZM36.4522 640.718V637.206C36.4522 635.049 35.3071 633.244 33.2909 632.766V632.288C33.2909 631.705 32.8203 631.234 32.2372 631.234C31.6541 631.234 31.1834 631.705 31.1834 632.288V632.766C29.1743 633.244 28.0222 635.042 28.0222 637.206V640.718L26.6172 642.123V642.826H37.8572V642.123L36.4522 640.718ZM35.0472 641.421H29.4272V637.206C29.4272 635.463 30.488 634.044 32.2372 634.044C33.9864 634.044 35.0472 635.463 35.0472 637.206V641.421Z" fill="#ADB5BD"/>
</g>
<path d="M22.1789 653.559C22.672 653.559 23.0996 653.61 23.4618 653.713C23.8266 653.814 24.107 653.961 24.3032 654.155C24.502 654.346 24.6013 654.575 24.6013 654.842C24.6013 655.103 24.502 655.328 24.3032 655.517C24.107 655.708 23.8266 655.854 23.4618 655.955C23.0996 656.058 22.672 656.109 22.1789 656.109C21.6909 656.109 21.2646 656.058 20.8998 655.955C20.5376 655.854 20.2571 655.708 20.0584 655.517C19.8622 655.328 19.7641 655.103 19.7641 654.842C19.7641 654.575 19.8622 654.346 20.0584 654.155C20.2571 653.961 20.5376 653.814 20.8998 653.713C21.2646 653.61 21.6909 653.559 22.1789 653.559ZM19.1227 652.389H21.5224V651.151H22.3525V652.389H25.3107V653.068H19.1227V652.389ZM19.832 649.619H24.5561V650.185V650.385C24.5561 650.68 24.5435 650.953 24.5183 651.204C24.4957 651.456 24.4454 651.72 24.3674 651.997L23.5373 651.921C23.6128 651.624 23.6618 651.354 23.6844 651.11C23.7071 650.866 23.7184 650.59 23.7184 650.284H19.832V649.619ZM20.6093 654.842C20.6068 655.04 20.7426 655.194 21.0168 655.302C21.2935 655.408 21.6809 655.46 22.1789 655.46C22.677 655.46 23.0656 655.408 23.3449 655.302C23.6266 655.194 23.7687 655.04 23.7712 654.842C23.7687 654.635 23.6266 654.476 23.3449 654.362C23.0656 654.249 22.677 654.193 22.1789 654.193C21.6834 654.193 21.2973 654.249 21.0206 654.362C20.7439 654.476 20.6068 654.635 20.6093 654.842ZM28.3594 651.234C28.3594 651.609 28.4299 651.98 28.5707 652.348C28.7141 652.712 28.9179 653.041 29.182 653.332C29.4486 653.622 29.7605 653.84 30.1177 653.989L29.6574 654.653C29.2625 654.482 28.9191 654.229 28.6273 653.895C28.3355 653.557 28.1091 653.166 27.9482 652.721C27.7872 653.199 27.5595 653.622 27.2652 653.989C26.9709 654.356 26.6288 654.633 26.2389 654.819L25.7559 654.162C26.1056 654.001 26.4125 653.765 26.6766 653.453C26.9407 653.141 27.1445 652.79 27.2878 652.4C27.4312 652.01 27.5042 651.622 27.5067 651.234V650.661H26.005V649.967H29.8536V650.661H28.3594V651.234ZM30.6158 649.295H31.461V656.117H30.6158V649.295ZM34.9022 650.933C34.8996 651.343 34.9638 651.743 35.0946 652.132C35.2279 652.522 35.4191 652.872 35.6681 653.181C35.9197 653.488 36.2177 653.725 36.5624 653.891L36.0492 654.562C35.687 654.379 35.3725 654.117 35.1059 653.778C34.8418 653.438 34.6355 653.046 34.4871 652.6C34.3337 653.076 34.1173 653.496 33.8381 653.861C33.5614 654.223 33.2319 654.499 32.8495 654.691L32.3364 654.019C32.6911 653.851 32.998 653.605 33.257 653.283C33.5187 652.959 33.7174 652.593 33.8532 652.185C33.9916 651.775 34.062 651.358 34.0645 650.933V649.846H34.9022V650.933ZM36.9699 649.295H37.8075V651.966H38.8565V652.683H37.8075V656.117H36.9699V649.295ZM44.5238 651.091H45.4747V651.793H44.5238V653.649H43.6862V649.295H44.5238V651.091ZM39.1508 649.989H40.7582V649.25H41.5958V649.989H43.1956V650.646H39.1508V649.989ZM39.4979 652.14C39.4979 651.899 39.5683 651.686 39.7092 651.502C39.8501 651.319 40.0463 651.175 40.2978 651.072C40.5519 650.969 40.8437 650.917 41.1732 650.917C41.4977 650.917 41.7857 650.969 42.0373 651.072C42.2913 651.175 42.4888 651.319 42.6297 651.502C42.7705 651.686 42.841 651.899 42.841 652.14C42.841 652.381 42.7705 652.594 42.6297 652.778C42.4888 652.961 42.2913 653.103 42.0373 653.204C41.7857 653.305 41.4977 653.355 41.1732 653.355C40.8437 653.355 40.5519 653.305 40.2978 653.204C40.0463 653.103 39.8501 652.961 39.7092 652.778C39.5683 652.594 39.4979 652.381 39.4979 652.14ZM40.0413 654.91C40.0387 654.658 40.128 654.443 40.3091 654.264C40.4928 654.083 40.7556 653.946 41.0977 653.853C41.4424 653.757 41.8499 653.71 42.3203 653.71C42.7856 653.71 43.1894 653.757 43.5315 653.853C43.8736 653.946 44.1364 654.083 44.3201 654.264C44.5062 654.445 44.5993 654.66 44.5993 654.91C44.5993 655.159 44.5062 655.372 44.3201 655.551C44.1364 655.732 43.8736 655.87 43.5315 655.966C43.1894 656.062 42.7856 656.109 42.3203 656.109C41.8499 656.109 41.4424 656.062 41.0977 655.966C40.7556 655.87 40.4928 655.732 40.3091 655.551C40.128 655.372 40.0387 655.159 40.0413 654.91ZM40.3129 652.14C40.3104 652.321 40.3859 652.463 40.5393 652.566C40.6928 652.669 40.899 652.721 41.1581 652.721C41.4273 652.721 41.6411 652.671 41.7996 652.57C41.9606 652.467 42.041 652.324 42.041 652.14C42.041 651.954 41.9618 651.807 41.8033 651.699C41.6449 651.59 41.4348 651.536 41.1732 651.536C40.9116 651.536 40.7016 651.59 40.5431 651.699C40.3871 651.807 40.3104 651.954 40.3129 652.14ZM40.8714 654.91C40.8688 655.091 40.9934 655.23 41.2449 655.328C41.4964 655.426 41.8549 655.475 42.3203 655.475C42.7806 655.475 43.1353 655.426 43.3843 655.328C43.6333 655.23 43.7591 655.091 43.7616 654.91C43.7591 654.726 43.6346 654.588 43.3881 654.494C43.1416 654.399 42.7856 654.351 42.3203 654.351C41.8499 654.351 41.4902 654.399 41.2411 654.494C40.9921 654.588 40.8688 654.726 40.8714 654.91Z" fill="#ADB5BD"/>
<path d="M28.2833 662.551H27.9883L26.6437 660.616H26.6196V662.551H26.3109V660.067H26.6094L27.954 662.005H27.978V660.067H28.2833V662.551ZM30.9314 661.309C30.9314 661.566 30.8845 661.792 30.7907 661.985C30.697 662.177 30.5666 662.325 30.3997 662.429C30.2339 662.533 30.0453 662.585 29.8337 662.585C29.6211 662.585 29.4313 662.533 29.2643 662.429C29.0985 662.325 28.9687 662.177 28.875 661.985C28.7824 661.792 28.7361 661.566 28.7361 661.309C28.7361 661.052 28.7824 660.827 28.875 660.635C28.9687 660.442 29.0985 660.293 29.2643 660.189C29.4313 660.085 29.6211 660.033 29.8337 660.033C30.0453 660.033 30.2339 660.085 30.3997 660.189C30.5666 660.293 30.697 660.442 30.7907 660.635C30.8845 660.827 30.9314 661.052 30.9314 661.309ZM29.0345 661.309C29.0345 661.516 29.0694 661.694 29.1391 661.842C29.2089 661.991 29.3038 662.104 29.4238 662.18C29.545 662.257 29.6817 662.296 29.8337 662.297C29.9858 662.296 30.1219 662.257 30.2419 662.18C30.3631 662.104 30.4586 661.991 30.5283 661.842C30.5981 661.694 30.633 661.516 30.633 661.309C30.633 661.101 30.5981 660.923 30.5283 660.774C30.4586 660.625 30.3631 660.513 30.2419 660.436C30.1219 660.359 29.9858 660.321 29.8337 660.321C29.6817 660.321 29.545 660.359 29.4238 660.436C29.3038 660.513 29.2089 660.625 29.1391 660.774C29.0694 660.923 29.0345 661.101 29.0345 661.309ZM31.1441 660.067H33.0169V660.342H32.2383V662.551H31.9261V660.342H31.1441V660.067ZM33.7373 662.551H33.4286V660.067H33.7373V662.551ZM35.9806 660.849C35.9577 660.739 35.9126 660.644 35.8451 660.565C35.7777 660.485 35.6953 660.424 35.5981 660.383C35.5021 660.342 35.3986 660.321 35.2877 660.321C35.1356 660.321 34.999 660.359 34.8778 660.436C34.7577 660.513 34.6628 660.625 34.5931 660.774C34.5234 660.923 34.4885 661.101 34.4885 661.309C34.4885 661.516 34.5234 661.694 34.5931 661.842C34.6628 661.991 34.7577 662.104 34.8778 662.18C34.999 662.257 35.1356 662.296 35.2877 662.297C35.3986 662.296 35.5021 662.275 35.5981 662.235C35.6942 662.194 35.7759 662.134 35.8434 662.055C35.9109 661.976 35.9566 661.882 35.9806 661.772H36.2893C36.2596 661.938 36.1978 662.083 36.1041 662.206C36.0103 662.328 35.8926 662.422 35.7508 662.487C35.6101 662.552 35.4558 662.585 35.2877 662.585C35.075 662.585 34.8852 662.533 34.7183 662.429C34.5525 662.325 34.4227 662.177 34.329 661.985C34.2364 661.792 34.1901 661.566 34.1901 661.309C34.1901 661.052 34.2364 660.827 34.329 660.635C34.4227 660.442 34.5525 660.293 34.7183 660.189C34.8852 660.085 35.075 660.033 35.2877 660.033C35.4558 660.033 35.6101 660.066 35.7508 660.131C35.8914 660.195 36.0086 660.289 36.1024 660.412C36.1973 660.534 36.2596 660.68 36.2893 660.849H35.9806ZM36.7215 660.067H38.2274V660.342H37.0302V661.172H38.1485V661.443H37.0302V662.276H38.2445V662.551H36.7215V660.067Z" fill="#ADB5BD"/>
<g clip-path="url(#clip2_3140_9002)">
<path d="M92.232 637.286H90.9379V641.835H92.232V637.286ZM96.1142 637.286H94.8201V641.835H96.1142V637.286ZM101.614 643.134H89.3203V644.434H101.614V643.134ZM99.9965 637.286H98.7024V641.835H99.9965V637.286ZM95.4672 632.906L98.8383 634.687H92.0961L95.4672 632.906ZM95.4672 631.438L89.3203 634.687V635.986H101.614V634.687L95.4672 631.438Z" fill="#ADB5BD"/>
</g>
<path d="M87.9562 656.102H87.2393V649.325H87.9562V656.102ZM82.5907 652.2C82.5907 651.727 82.6649 651.312 82.8133 650.955C82.9617 650.595 83.168 650.319 83.4321 650.125C83.6988 649.929 84.0019 649.831 84.3415 649.831C84.676 649.831 84.9754 649.929 85.2395 650.125C85.5036 650.319 85.7099 650.595 85.8583 650.955C86.0092 651.312 86.0847 651.727 86.0847 652.2C86.0847 652.678 86.0092 653.097 85.8583 653.457C85.7099 653.817 85.5036 654.093 85.2395 654.287C84.9754 654.481 84.676 654.577 84.3415 654.577C84.0019 654.577 83.6988 654.481 83.4321 654.287C83.168 654.093 82.9617 653.817 82.8133 653.457C82.6649 653.097 82.5907 652.678 82.5907 652.2ZM83.285 652.2C83.285 652.553 83.329 652.859 83.417 653.121C83.5051 653.383 83.6283 653.584 83.7868 653.725C83.9478 653.866 84.1327 653.936 84.3415 653.936C84.5477 653.936 84.7301 653.866 84.8886 653.725C85.047 653.584 85.1703 653.383 85.2583 653.121C85.3464 652.859 85.3904 652.553 85.3904 652.2C85.3904 651.853 85.3464 651.55 85.2583 651.291C85.1703 651.029 85.047 650.828 84.8886 650.687C84.7301 650.544 84.5477 650.472 84.3415 650.472C84.1327 650.472 83.9478 650.544 83.7868 650.687C83.6283 650.828 83.5051 651.029 83.417 651.291C83.329 651.55 83.285 651.853 83.285 652.2ZM95.2007 653.204H89.0353V652.623H90.5144V651.714C90.2478 651.605 90.044 651.467 89.9032 651.299C89.7648 651.13 89.6969 650.935 89.6994 650.714C89.6994 650.45 89.7962 650.222 89.9899 650.031C90.1861 649.84 90.4654 649.695 90.8276 649.597C91.1923 649.496 91.6212 649.446 92.1142 649.446C92.6073 649.446 93.0349 649.496 93.3971 649.597C93.7594 649.695 94.0386 649.84 94.2348 650.031C94.431 650.222 94.5291 650.45 94.5291 650.714C94.5266 650.935 94.4549 651.131 94.314 651.302C94.1732 651.471 93.9707 651.609 93.7065 651.717V652.623H95.2007V653.204ZM89.7673 654.864C89.7673 654.608 89.8604 654.39 90.0465 654.211C90.2327 654.033 90.5006 653.897 90.8502 653.804C91.2024 653.711 91.6237 653.664 92.1142 653.664C92.5972 653.664 93.0135 653.711 93.3632 653.804C93.7128 653.897 93.9807 654.034 94.1669 654.215C94.353 654.394 94.4461 654.61 94.4461 654.864C94.4461 655.121 94.353 655.34 94.1669 655.521C93.9807 655.702 93.7128 655.839 93.3632 655.932C93.016 656.025 92.5997 656.072 92.1142 656.072C91.6237 656.072 91.2024 656.025 90.8502 655.932C90.5006 655.839 90.2327 655.702 90.0465 655.521C89.8604 655.342 89.7673 655.123 89.7673 654.864ZM90.4389 650.714C90.4364 650.938 90.5823 651.111 90.8766 651.234C91.1709 651.358 91.5835 651.421 92.1142 651.423C92.6425 651.421 93.0538 651.358 93.3481 651.234C93.6449 651.111 93.7921 650.938 93.7895 650.714C93.7895 650.565 93.7229 650.437 93.5896 650.329C93.4562 650.221 93.2638 650.139 93.0123 650.084C92.7607 650.026 92.4614 649.997 92.1142 649.997C91.586 649.999 91.1735 650.063 90.8766 650.189C90.5823 650.313 90.4364 650.487 90.4389 650.714ZM90.4918 654.864C90.4893 655.076 90.6301 655.239 90.9144 655.355C91.1986 655.468 91.5986 655.523 92.1142 655.521C92.6249 655.526 93.0211 655.47 93.3028 655.355C93.587 655.239 93.7292 655.076 93.7292 654.864C93.7292 654.658 93.587 654.498 93.3028 654.385C93.0211 654.272 92.6249 654.215 92.1142 654.215C91.5961 654.215 91.1948 654.272 90.9106 654.385C90.6289 654.498 90.4893 654.658 90.4918 654.864ZM92.9972 652.623V651.902C92.7255 651.945 92.4312 651.966 92.1142 651.966C91.8124 651.966 91.5206 651.946 91.2389 651.906V652.623H92.9972ZM101.027 651.34H102.008V651.944H101.027V654.291H100.31V649.318H101.027V651.34ZM95.8195 651.468C95.817 651.146 95.8937 650.858 96.0497 650.604C96.2082 650.348 96.4245 650.148 96.6987 650.004C96.9729 649.858 97.2785 649.786 97.6156 649.786C97.9526 649.786 98.2583 649.858 98.5325 650.004C98.8066 650.148 99.0217 650.348 99.1777 650.604C99.3361 650.858 99.4166 651.146 99.4192 651.468C99.4166 651.79 99.3361 652.08 99.1777 652.336C99.0217 652.593 98.8066 652.793 98.5325 652.936C98.2583 653.08 97.9526 653.151 97.6156 653.151C97.2785 653.151 96.9729 653.08 96.6987 652.936C96.4245 652.793 96.2082 652.593 96.0497 652.336C95.8937 652.08 95.817 651.79 95.8195 651.468ZM96.5213 651.468C96.5188 651.675 96.5654 651.858 96.6609 652.019C96.7565 652.178 96.8873 652.302 97.0534 652.393C97.2219 652.481 97.4093 652.525 97.6156 652.525C97.8218 652.525 98.008 652.481 98.174 652.393C98.3425 652.302 98.4746 652.178 98.5702 652.019C98.6683 651.858 98.7173 651.675 98.7173 651.468C98.7173 651.262 98.6683 651.08 98.5702 650.921C98.4746 650.76 98.3425 650.636 98.174 650.548C98.008 650.457 97.8218 650.412 97.6156 650.412C97.4093 650.412 97.2219 650.457 97.0534 650.548C96.8873 650.636 96.7565 650.76 96.6609 650.921C96.5654 651.08 96.5188 651.262 96.5213 651.468ZM96.7402 653.77H97.4571V655.362H101.313V655.943H96.7402V653.77ZM108.181 656.087H107.494V652.623H106.626V655.74H105.954V649.461H106.626V652.034H107.494V649.325H108.181V656.087ZM102.709 650.125H103.426V653.736C104.148 653.729 104.84 653.659 105.502 653.529L105.577 654.155C105.137 654.233 104.719 654.288 104.324 654.321C103.929 654.354 103.537 654.369 103.147 654.366H102.709V650.125Z" fill="#ADB5BD"/>
<path d="M84.5123 662.551H84.2036V660.067H84.5123V662.551ZM87.0335 662.551H86.7385L85.3938 660.616H85.3698V662.551H85.0611V660.067H85.3595L86.7042 662.005H86.7282V660.067H87.0335V662.551ZM87.5823 660.067H89.0779V660.342H87.891V661.172H88.9647V661.443H87.891V662.551H87.5823V660.067ZM91.6368 661.309C91.6368 661.566 91.5899 661.792 91.4961 661.985C91.4024 662.177 91.272 662.325 91.1051 662.429C90.9393 662.533 90.7506 662.585 90.5391 662.585C90.3264 662.585 90.1366 662.533 89.9697 662.429C89.8039 662.325 89.6741 662.177 89.5804 661.985C89.4878 661.792 89.4415 661.566 89.4415 661.309C89.4415 661.052 89.4878 660.827 89.5804 660.635C89.6741 660.442 89.8039 660.293 89.9697 660.189C90.1366 660.085 90.3264 660.033 90.5391 660.033C90.7506 660.033 90.9393 660.085 91.1051 660.189C91.272 660.293 91.4024 660.442 91.4961 660.635C91.5899 660.827 91.6368 661.052 91.6368 661.309ZM89.7399 661.309C89.7399 661.516 89.7747 661.694 89.8445 661.842C89.9142 661.991 90.0091 662.104 90.1292 662.18C90.2504 662.257 90.387 662.296 90.5391 662.297C90.6912 662.296 90.8272 662.257 90.9473 662.18C91.0685 662.104 91.164 661.991 91.2337 661.842C91.3035 661.694 91.3383 661.516 91.3383 661.309C91.3383 661.101 91.3035 660.923 91.2337 660.774C91.164 660.625 91.0685 660.513 90.9473 660.436C90.8272 660.359 90.6912 660.321 90.5391 660.321C90.387 660.321 90.2504 660.359 90.1292 660.436C90.0091 660.513 89.9142 660.625 89.8445 660.774C89.7747 660.923 89.7399 661.101 89.7399 661.309ZM92.0895 660.067H92.9334C93.122 660.067 93.2792 660.1 93.405 660.165C93.5319 660.229 93.6263 660.319 93.688 660.434C93.7498 660.549 93.7806 660.681 93.7806 660.832C93.7806 661.001 93.7418 661.147 93.664 661.268C93.5874 661.388 93.4719 661.475 93.3176 661.529L93.8767 662.551H93.5165L92.9968 661.585C92.9843 661.586 92.9642 661.587 92.9368 661.587H92.3983V662.551H92.0895V660.067ZM92.9231 661.306C93.1152 661.306 93.2547 661.265 93.3416 661.184C93.4296 661.103 93.4742 660.985 93.4753 660.832C93.4731 660.505 93.2878 660.342 92.9197 660.342H92.3983V661.306H92.9231ZM94.597 660.067L95.434 662.112H95.4648L96.3018 660.067H96.6723V662.551H96.3807V660.674H96.3567L95.5849 662.551H95.3105L94.5387 660.674H94.5181V662.551H94.2265V660.067H94.597ZM97.0084 662.551L97.9174 660.067H98.2433L99.1523 662.551H98.8264L98.5777 661.851H97.5795L97.3309 662.551H97.0084ZM98.4834 661.58L98.0889 660.469H98.0683L97.6739 661.58H98.4834ZM99.0597 660.067H100.933V660.342H100.154V662.551H99.8418V660.342H99.0597V660.067ZM101.653 662.551H101.344V660.067H101.653V662.551ZM104.301 661.309C104.301 661.566 104.254 661.792 104.16 661.985C104.067 662.177 103.936 662.325 103.769 662.429C103.604 662.533 103.415 662.585 103.203 662.585C102.991 662.585 102.801 662.533 102.634 662.429C102.468 662.325 102.338 662.177 102.245 661.985C102.152 661.792 102.106 661.566 102.106 661.309C102.106 661.052 102.152 660.827 102.245 660.635C102.338 660.442 102.468 660.293 102.634 660.189C102.801 660.085 102.991 660.033 103.203 660.033C103.415 660.033 103.604 660.085 103.769 660.189C103.936 660.293 104.067 660.442 104.16 660.635C104.254 660.827 104.301 661.052 104.301 661.309ZM102.404 661.309C102.404 661.516 102.439 661.694 102.509 661.842C102.578 661.991 102.673 662.104 102.793 662.18C102.915 662.257 103.051 662.296 103.203 662.297C103.355 662.296 103.491 662.257 103.612 662.18C103.733 662.104 103.828 661.991 103.898 661.842C103.968 661.694 104.003 661.516 104.003 661.309C104.003 661.101 103.968 660.923 103.898 660.774C103.828 660.625 103.733 660.513 103.612 660.436C103.491 660.359 103.355 660.321 103.203 660.321C103.051 660.321 102.915 660.359 102.793 660.436C102.673 660.513 102.578 660.625 102.509 660.774C102.439 660.923 102.404 661.101 102.404 661.309ZM106.726 662.551H106.431L105.086 660.616H105.062V662.551H104.754V660.067H105.052L106.397 662.005H106.421V660.067H106.726V662.551Z" fill="#ADB5BD"/>
<g clip-path="url(#clip3_3140_9002)">
<path d="M158.687 630.883C155.968 630.883 153.77 633.082 153.77 635.8C153.77 639.488 158.687 644.933 158.687 644.933C158.687 644.933 163.605 639.488 163.605 635.8C163.605 633.082 161.406 630.883 158.687 630.883ZM155.175 635.8C155.175 633.861 156.748 632.288 158.687 632.288C160.626 632.288 162.2 633.861 162.2 635.8C162.2 637.824 160.176 640.851 158.687 642.741C157.226 640.865 155.175 637.802 155.175 635.8Z" fill="#ADB5BD"/>
<path d="M158.686 637.555C159.656 637.555 160.442 636.769 160.442 635.799C160.442 634.829 159.656 634.043 158.686 634.043C157.716 634.043 156.93 634.829 156.93 635.799C156.93 636.769 157.716 637.555 158.686 637.555Z" fill="#ADB5BD"/>
</g>
<path d="M148.062 651.046C148.06 651.453 148.134 651.854 148.285 652.249C148.438 652.644 148.651 652.995 148.922 653.302C149.197 653.607 149.506 653.835 149.851 653.989L149.421 654.555C149.036 654.371 148.695 654.1 148.398 653.74C148.101 653.38 147.872 652.968 147.711 652.502C147.553 653.005 147.321 653.449 147.017 653.834C146.715 654.219 146.364 654.51 145.964 654.706L145.527 654.102C145.876 653.949 146.188 653.713 146.462 653.396C146.737 653.077 146.95 652.712 147.104 652.302C147.26 651.89 147.338 651.471 147.338 651.046V649.891H148.062V651.046ZM150.462 649.325H151.179V656.102H150.462V649.325ZM157.895 652.804H157.178V651.068H155.752V650.487H157.178V649.325H157.895V652.804ZM152.235 652.261C152.582 652.15 152.883 651.989 153.137 651.778C153.391 651.564 153.586 651.316 153.722 651.034C153.858 650.75 153.926 650.45 153.926 650.133V649.544H154.635V650.133C154.635 650.419 154.7 650.695 154.831 650.959C154.965 651.221 155.155 651.453 155.401 651.657C155.648 651.858 155.938 652.012 156.273 652.117L155.895 652.676C155.528 652.547 155.206 652.361 154.929 652.117C154.655 651.873 154.443 651.589 154.292 651.265C154.143 651.634 153.926 651.955 153.639 652.227C153.355 652.496 153.015 652.698 152.62 652.834L152.235 652.261ZM153.473 653.121H157.895V654.804H154.19V655.43H158.129V656.004H153.488V654.261H157.186V653.687H153.473V653.121ZM164.249 651.34H165.23V651.944H164.249V654.291H163.532V649.318H164.249V651.34ZM159.042 651.468C159.04 651.146 159.116 650.858 159.272 650.604C159.431 650.348 159.647 650.148 159.921 650.004C160.196 649.858 160.501 649.786 160.838 649.786C161.175 649.786 161.481 649.858 161.755 650.004C162.029 650.148 162.244 650.348 162.4 650.604C162.559 650.858 162.639 651.146 162.642 651.468C162.639 651.79 162.559 652.08 162.4 652.336C162.244 652.593 162.029 652.793 161.755 652.936C161.481 653.08 161.175 653.151 160.838 653.151C160.501 653.151 160.196 653.08 159.921 652.936C159.647 652.793 159.431 652.593 159.272 652.336C159.116 652.08 159.04 651.79 159.042 651.468ZM159.744 651.468C159.741 651.675 159.788 651.858 159.884 652.019C159.979 652.178 160.11 652.302 160.276 652.393C160.445 652.481 160.632 652.525 160.838 652.525C161.044 652.525 161.231 652.481 161.397 652.393C161.565 652.302 161.697 652.178 161.793 652.019C161.891 651.858 161.94 651.675 161.94 651.468C161.94 651.262 161.891 651.08 161.793 650.921C161.697 650.76 161.565 650.636 161.397 650.548C161.231 650.457 161.044 650.412 160.838 650.412C160.632 650.412 160.445 650.457 160.276 650.548C160.11 650.636 159.979 650.76 159.884 650.921C159.788 651.08 159.741 651.262 159.744 651.468ZM159.963 653.77H160.68V655.362H164.536V655.943H159.963V653.77ZM171.403 656.087H170.716V652.623H169.849V655.74H169.177V649.461H169.849V652.034H170.716V649.325H171.403V656.087ZM165.932 650.125H166.649V653.736C167.371 653.729 168.063 653.659 168.724 653.529L168.8 654.155C168.359 654.233 167.942 654.288 167.547 654.321C167.152 654.354 166.76 654.369 166.37 654.366H165.932V650.125Z" fill="#ADB5BD"/>
<path d="M151.867 660.067H153.362V660.342H152.175V661.172H153.249V661.443H152.175V662.551H151.867V660.067ZM153.297 662.551L154.206 660.067H154.532L155.441 662.551H155.115L154.866 661.851H153.868L153.619 662.551H153.297ZM154.772 661.58L154.377 660.469H154.357L153.962 661.58H154.772ZM157.355 660.849C157.332 660.739 157.287 660.644 157.219 660.565C157.152 660.485 157.07 660.424 156.972 660.383C156.876 660.342 156.773 660.321 156.662 660.321C156.51 660.321 156.373 660.359 156.252 660.436C156.132 660.513 156.037 660.625 155.967 660.774C155.898 660.923 155.863 661.101 155.863 661.309C155.863 661.516 155.898 661.694 155.967 661.842C156.037 661.991 156.132 662.104 156.252 662.18C156.373 662.257 156.51 662.296 156.662 662.297C156.773 662.296 156.876 662.275 156.972 662.235C157.068 662.194 157.15 662.134 157.218 662.055C157.285 661.976 157.331 661.882 157.355 661.772H157.664C157.634 661.938 157.572 662.083 157.478 662.206C157.385 662.328 157.267 662.422 157.125 662.487C156.984 662.552 156.83 662.585 156.662 662.585C156.449 662.585 156.26 662.533 156.093 662.429C155.927 662.325 155.797 662.177 155.703 661.985C155.611 661.792 155.564 661.566 155.564 661.309C155.564 661.052 155.611 660.827 155.703 660.635C155.797 660.442 155.927 660.293 156.093 660.189C156.26 660.085 156.449 660.033 156.662 660.033C156.83 660.033 156.984 660.066 157.125 660.131C157.266 660.195 157.383 660.289 157.477 660.412C157.572 660.534 157.634 660.68 157.664 660.849H157.355ZM158.405 662.551H158.096V660.067H158.405V662.551ZM158.953 660.067H159.262V662.276H160.415V662.551H158.953V660.067ZM161.135 662.551H160.826V660.067H161.135V662.551ZM161.547 660.067H163.419V660.342H162.641V662.551H162.329V660.342H161.547V660.067ZM163.972 660.067L164.654 661.22H164.685L165.368 660.067H165.725L164.826 661.532V662.551H164.514V661.532L163.618 660.067H163.972Z" fill="#ADB5BD"/>
<path d="M228.359 630.923C227.856 630.836 227.346 630.791 226.835 630.789C225.091 630.788 223.384 631.288 221.917 632.229C220.446 631.3 218.739 630.812 217 630.824C216.489 630.826 215.979 630.871 215.475 630.958C215.31 630.986 215.161 631.072 215.054 631.201C214.947 631.33 214.89 631.493 214.892 631.66V640.09C214.891 640.193 214.912 640.296 214.954 640.39C214.997 640.484 215.06 640.567 215.138 640.634C215.217 640.702 215.309 640.75 215.408 640.778C215.508 640.805 215.612 640.81 215.714 640.793C216.721 640.618 217.752 640.647 218.748 640.878C219.743 641.108 220.682 641.535 221.51 642.134L221.594 642.184H221.671C221.749 642.216 221.833 642.233 221.917 642.233C222.002 642.233 222.085 642.216 222.163 642.184H222.24L222.325 642.134C223.146 641.522 224.083 641.081 225.078 640.837C226.074 640.593 227.108 640.552 228.12 640.715C228.222 640.733 228.326 640.728 228.426 640.701C228.525 640.673 228.618 640.624 228.696 640.557C228.775 640.49 228.837 640.407 228.88 640.312C228.922 640.218 228.944 640.116 228.942 640.013V631.583C228.935 631.423 228.873 631.27 228.767 631.15C228.661 631.03 228.517 630.95 228.359 630.923ZM221.215 640.259C219.915 639.575 218.468 639.218 217 639.219C216.768 639.219 216.536 639.219 216.297 639.219V632.194C216.531 632.181 216.766 632.181 217 632.194C218.498 632.192 219.964 632.632 221.215 633.459V640.259ZM227.537 639.247C227.298 639.247 227.066 639.247 226.835 639.247C225.366 639.246 223.919 639.603 222.62 640.287V633.459C223.87 632.632 225.336 632.192 226.835 632.194C227.069 632.181 227.303 632.181 227.537 632.194V639.247ZM228.359 642.163C227.856 642.076 227.346 642.031 226.835 642.029C225.091 642.028 223.384 642.528 221.917 643.469C220.45 642.528 218.743 642.028 217 642.029C216.489 642.031 215.979 642.076 215.475 642.163C215.384 642.177 215.296 642.21 215.217 642.258C215.138 642.307 215.07 642.37 215.016 642.445C214.961 642.52 214.923 642.605 214.901 642.695C214.88 642.786 214.877 642.879 214.892 642.97C214.928 643.153 215.034 643.314 215.188 643.418C215.342 643.522 215.532 643.56 215.714 643.525C216.721 643.351 217.752 643.38 218.748 643.61C219.743 643.841 220.682 644.268 221.51 644.867C221.629 644.952 221.771 644.997 221.917 644.997C222.063 644.997 222.206 644.952 222.325 644.867C223.152 644.268 224.091 643.841 225.087 643.61C226.082 643.38 227.114 643.351 228.12 643.525C228.303 643.56 228.492 643.522 228.646 643.418C228.8 643.314 228.906 643.153 228.942 642.97C228.957 642.879 228.954 642.786 228.933 642.695C228.912 642.605 228.873 642.52 228.819 642.445C228.764 642.37 228.696 642.307 228.617 642.258C228.538 642.21 228.451 642.177 228.359 642.163Z" fill="#ADB5BD"/>
<path d="M214.466 654.283H213.621V649.303H214.466V654.283ZM208.791 652.676C209.148 652.55 209.452 652.368 209.704 652.129C209.956 651.887 210.144 651.613 210.27 651.306C210.398 650.997 210.461 650.676 210.459 650.344V649.68H211.326V650.344C211.324 650.666 211.384 650.973 211.508 651.265C211.633 651.556 211.82 651.815 212.066 652.042C212.313 652.266 212.612 652.437 212.964 652.555L212.534 653.219C212.152 653.086 211.822 652.89 211.545 652.631C211.269 652.369 211.054 652.061 210.9 651.706C210.747 652.088 210.528 652.42 210.244 652.702C209.959 652.984 209.621 653.196 209.229 653.34L208.791 652.676ZM209.953 653.808H210.798V655.302H214.654V655.981H209.953V653.808ZM217.914 650.774C217.912 651.028 217.972 651.273 218.096 651.51C218.221 651.746 218.406 651.958 218.65 652.144C218.897 652.327 219.195 652.467 219.544 652.563L219.152 653.234C218.77 653.124 218.439 652.956 218.16 652.732C217.881 652.509 217.662 652.244 217.503 651.94C217.35 652.275 217.132 652.564 216.85 652.808C216.569 653.049 216.232 653.229 215.839 653.347L215.432 652.691C215.781 652.59 216.079 652.442 216.326 652.246C216.572 652.049 216.759 651.824 216.884 651.57C217.013 651.316 217.077 651.051 217.077 650.774V650.721H215.651V650.057H217.077V649.272H217.922V650.057H219.341V650.721H217.914V650.774ZM216.3 653.778H220.842V656.124H220.005V654.449H216.3V653.778ZM220.005 649.295H220.842V651.023H221.793V651.732H220.842V653.468H220.005V649.295ZM227.68 653.061H225.657V654.623H228.374V655.309H222.14V654.623H224.827V653.061H222.895V649.801H227.627V650.472H223.733V652.397H227.68V653.061ZM231.34 650.933C231.337 651.36 231.402 651.773 231.536 652.17C231.669 652.568 231.863 652.921 232.117 653.23C232.373 653.537 232.678 653.767 233.03 653.921L232.524 654.593C232.147 654.409 231.822 654.145 231.551 653.8C231.279 653.456 231.069 653.054 230.921 652.597C230.767 653.082 230.551 653.51 230.272 653.879C229.992 654.247 229.662 654.527 229.279 654.721L228.751 654.042C229.111 653.873 229.421 653.627 229.683 653.302C229.945 652.978 230.143 652.609 230.279 652.197C230.415 651.784 230.484 651.363 230.487 650.933V649.846H231.34V650.933ZM232.275 651.499H233.709V649.295H234.539V656.124H233.709V652.178H232.275V651.499Z" fill="#ADB5BD"/>
<path d="M205.76 662.551H205.465L204.12 660.616H204.096V662.551H203.787V660.067H204.086L205.43 662.005H205.454V660.067H205.76V662.551ZM206.308 660.067H207.814V660.342H206.617V661.172H207.735V661.443H206.617V662.276H207.831V662.551H206.308V660.067ZM208.082 660.067H208.394L208.912 662.077H208.936L209.461 660.067H209.807L210.335 662.077H210.356L210.874 660.067H211.186L210.507 662.551H210.188L209.646 660.585H209.625L209.08 662.551H208.761L208.082 660.067ZM212.184 662.551L213.093 660.067H213.419L214.328 662.551H214.002L213.754 661.851H212.755L212.507 662.551H212.184ZM213.659 661.58L213.265 660.469H213.244L212.85 661.58H213.659ZM214.664 660.067H215.508C215.697 660.067 215.854 660.1 215.98 660.165C216.107 660.229 216.201 660.319 216.263 660.434C216.325 660.549 216.355 660.681 216.355 660.832C216.355 661.001 216.317 661.147 216.239 661.268C216.162 661.388 216.047 661.475 215.892 661.529L216.452 662.551H216.091L215.572 661.585C215.559 661.586 215.539 661.587 215.512 661.587H214.973V662.551H214.664V660.067ZM215.498 661.306C215.69 661.306 215.829 661.265 215.916 661.184C216.004 661.103 216.049 660.985 216.05 660.832C216.048 660.505 215.863 660.342 215.494 660.342H214.973V661.306H215.498ZM216.801 660.067H217.645C217.834 660.067 217.991 660.1 218.117 660.165C218.244 660.229 218.338 660.319 218.4 660.434C218.462 660.549 218.492 660.681 218.492 660.832C218.492 661.001 218.454 661.147 218.376 661.268C218.299 661.388 218.184 661.475 218.029 661.529L218.589 662.551H218.228L217.709 661.585C217.696 661.586 217.676 661.587 217.649 661.587H217.11V662.551H216.801V660.067ZM217.635 661.306C217.827 661.306 217.966 661.265 218.053 661.184C218.141 661.103 218.186 660.985 218.187 660.832C218.185 660.505 218 660.342 217.631 660.342H217.11V661.306H217.635ZM219.247 662.551H218.938V660.067H219.247V662.551ZM220.64 662.149H220.667L221.401 660.067H221.727L220.818 662.551H220.492L219.583 660.067H219.909L220.64 662.149ZM221.631 662.551L222.54 660.067H222.866L223.775 662.551H223.449L223.2 661.851H222.202L221.954 662.551H221.631ZM223.106 661.58L222.712 660.469H222.691L222.297 661.58H223.106ZM224.111 660.067H224.42V662.276H225.572V662.551H224.111V660.067ZM227.339 660.692C227.331 660.612 227.302 660.543 227.253 660.486C227.204 660.428 227.139 660.383 227.059 660.354C226.979 660.323 226.89 660.307 226.79 660.307C226.683 660.307 226.588 660.325 226.505 660.361C226.423 660.395 226.359 660.443 226.313 660.505C226.268 660.566 226.245 660.637 226.245 660.716C226.246 660.831 226.293 660.92 226.387 660.981C226.481 661.042 226.593 661.088 226.725 661.12L226.972 661.189C227.164 661.238 227.329 661.314 227.468 661.415C227.606 661.517 227.675 661.67 227.675 661.875C227.675 662.011 227.64 662.134 227.569 662.244C227.498 662.352 227.394 662.438 227.258 662.501C227.122 662.564 226.96 662.595 226.773 662.595C226.597 662.595 226.443 662.567 226.312 662.51C226.181 662.451 226.079 662.371 226.005 662.268C225.93 662.164 225.888 662.043 225.878 661.906H226.193C226.201 661.995 226.232 662.071 226.286 662.132C226.34 662.194 226.409 662.24 226.493 662.271C226.579 662.301 226.672 662.315 226.773 662.314C226.887 662.314 226.99 662.296 227.08 662.259C227.171 662.223 227.243 662.171 227.294 662.103C227.347 662.035 227.373 661.956 227.373 661.868C227.373 661.792 227.351 661.728 227.308 661.676C227.266 661.625 227.21 661.583 227.14 661.551C227.07 661.519 226.984 661.489 226.883 661.46L226.577 661.378C226.374 661.318 226.217 661.236 226.107 661.131C225.999 661.025 225.945 660.892 225.946 660.729C225.946 660.592 225.983 660.471 226.058 660.366C226.132 660.259 226.234 660.178 226.365 660.121C226.495 660.062 226.64 660.033 226.8 660.033C226.958 660.033 227.1 660.062 227.226 660.119C227.353 660.176 227.453 660.255 227.526 660.355C227.599 660.455 227.637 660.567 227.641 660.692H227.339ZM228.999 660.067H229.87C230.038 660.067 230.18 660.096 230.294 660.155C230.409 660.212 230.495 660.29 230.551 660.39C230.608 660.489 230.636 660.601 230.635 660.726C230.636 660.873 230.6 660.989 230.526 661.072C230.451 661.155 230.353 661.213 230.231 661.247V661.271C230.312 661.276 230.391 661.303 230.467 661.354C230.545 661.404 230.609 661.475 230.659 661.568C230.71 661.66 230.735 661.768 230.735 661.892C230.734 662.02 230.703 662.134 230.644 662.233C230.586 662.332 230.494 662.41 230.369 662.467C230.246 662.523 230.09 662.551 229.901 662.551H228.999V660.067ZM229.898 662.276C230.082 662.276 230.218 662.241 230.306 662.17C230.394 662.099 230.437 662.005 230.436 661.889C230.437 661.804 230.416 661.726 230.373 661.656C230.329 661.585 230.268 661.528 230.188 661.486C230.109 661.443 230.018 661.422 229.915 661.422H229.308V662.276H229.898ZM229.86 661.155C229.949 661.155 230.03 661.138 230.104 661.103C230.177 661.068 230.235 661.018 230.277 660.954C230.319 660.889 230.34 660.814 230.34 660.729C230.34 660.655 230.323 660.589 230.289 660.53C230.255 660.472 230.202 660.426 230.131 660.393C230.061 660.359 229.974 660.342 229.87 660.342H229.308V661.155H229.86ZM233.273 661.309C233.273 661.566 233.226 661.792 233.132 661.985C233.039 662.177 232.908 662.325 232.741 662.429C232.576 662.533 232.387 662.585 232.175 662.585C231.963 662.585 231.773 662.533 231.606 662.429C231.44 662.325 231.31 662.177 231.217 661.985C231.124 661.792 231.078 661.566 231.078 661.309C231.078 661.052 231.124 660.827 231.217 660.635C231.31 660.442 231.44 660.293 231.606 660.189C231.773 660.085 231.963 660.033 232.175 660.033C232.387 660.033 232.576 660.085 232.741 660.189C232.908 660.293 233.039 660.442 233.132 660.635C233.226 660.827 233.273 661.052 233.273 661.309ZM231.376 661.309C231.376 661.516 231.411 661.694 231.481 661.842C231.551 661.991 231.645 662.104 231.766 662.18C231.887 662.257 232.023 662.296 232.175 662.297C232.328 662.296 232.464 662.257 232.584 662.18C232.705 662.104 232.8 661.991 232.87 661.842C232.94 661.694 232.975 661.516 232.975 661.309C232.975 661.101 232.94 660.923 232.87 660.774C232.8 660.625 232.705 660.513 232.584 660.436C232.464 660.359 232.328 660.321 232.175 660.321C232.023 660.321 231.887 660.359 231.766 660.436C231.645 660.513 231.551 660.625 231.481 660.774C231.411 660.923 231.376 661.101 231.376 661.309ZM235.825 661.309C235.825 661.566 235.778 661.792 235.685 661.985C235.591 662.177 235.46 662.325 235.293 662.429C235.128 662.533 234.939 662.585 234.727 662.585C234.515 662.585 234.325 662.533 234.158 662.429C233.992 662.325 233.863 662.177 233.769 661.985C233.676 661.792 233.63 661.566 233.63 661.309C233.63 661.052 233.676 660.827 233.769 660.635C233.863 660.442 233.992 660.293 234.158 660.189C234.325 660.085 234.515 660.033 234.727 660.033C234.939 660.033 235.128 660.085 235.293 660.189C235.46 660.293 235.591 660.442 235.685 660.635C235.778 660.827 235.825 661.052 235.825 661.309ZM233.928 661.309C233.928 661.516 233.963 661.694 234.033 661.842C234.103 661.991 234.198 662.104 234.318 662.18C234.439 662.257 234.575 662.296 234.727 662.297C234.88 662.296 235.016 662.257 235.136 662.18C235.257 662.104 235.352 661.991 235.422 661.842C235.492 661.694 235.527 661.516 235.527 661.309C235.527 661.101 235.492 660.923 235.422 660.774C235.352 660.625 235.257 660.513 235.136 660.436C235.016 660.359 234.88 660.321 234.727 660.321C234.575 660.321 234.439 660.359 234.318 660.436C234.198 660.513 234.103 660.625 234.033 660.774C233.963 660.923 233.928 661.101 233.928 661.309ZM236.278 660.067H236.587V661.295H236.618L237.722 660.067H238.127L237.087 661.189L238.127 662.551H237.749L236.895 661.402L236.587 661.752V662.551H236.278V660.067ZM239.811 660.692C239.803 660.612 239.774 660.543 239.725 660.486C239.676 660.428 239.611 660.383 239.531 660.354C239.451 660.323 239.362 660.307 239.262 660.307C239.155 660.307 239.06 660.325 238.977 660.361C238.895 660.395 238.831 660.443 238.785 660.505C238.74 660.566 238.717 660.637 238.717 660.716C238.718 660.831 238.765 660.92 238.859 660.981C238.953 661.042 239.066 661.088 239.197 661.12L239.444 661.189C239.636 661.238 239.801 661.314 239.94 661.415C240.078 661.517 240.147 661.67 240.147 661.875C240.147 662.011 240.112 662.134 240.041 662.244C239.97 662.352 239.866 662.438 239.73 662.501C239.594 662.564 239.433 662.595 239.245 662.595C239.069 662.595 238.915 662.567 238.784 662.51C238.653 662.451 238.551 662.371 238.477 662.268C238.402 662.164 238.36 662.043 238.35 661.906H238.665C238.673 661.995 238.704 662.071 238.758 662.132C238.812 662.194 238.881 662.24 238.965 662.271C239.051 662.301 239.144 662.315 239.245 662.314C239.359 662.314 239.462 662.296 239.552 662.259C239.644 662.223 239.715 662.171 239.766 662.103C239.819 662.035 239.845 661.956 239.845 661.868C239.845 661.792 239.824 661.728 239.78 661.676C239.738 661.625 239.682 661.583 239.612 661.551C239.542 661.519 239.457 661.489 239.355 661.46L239.05 661.378C238.846 661.318 238.689 661.236 238.58 661.131C238.471 661.025 238.417 660.892 238.418 660.729C238.418 660.592 238.456 660.471 238.53 660.366C238.604 660.259 238.706 660.178 238.837 660.121C238.967 660.062 239.112 660.033 239.272 660.033C239.43 660.033 239.572 660.062 239.698 660.119C239.825 660.176 239.925 660.255 239.998 660.355C240.071 660.455 240.109 660.567 240.113 660.692H239.811Z" fill="#ADB5BD"/>
<path d="M291.461 632.288H289.353V631.585C289.353 631.399 289.279 631.22 289.148 631.089C289.016 630.957 288.837 630.883 288.651 630.883H281.626C281.439 630.883 281.261 630.957 281.129 631.089C280.997 631.22 280.923 631.399 280.923 631.585V632.288H278.816C278.629 632.288 278.451 632.362 278.319 632.494C278.187 632.625 278.113 632.804 278.113 632.99V635.098C278.113 635.843 278.409 636.558 278.936 637.085C279.463 637.612 280.178 637.908 280.923 637.908H282.005C282.641 638.617 283.497 639.09 284.436 639.25V640.718H283.733C283.174 640.718 282.638 640.94 282.243 641.335C281.848 641.73 281.626 642.266 281.626 642.825V644.23C281.626 644.417 281.7 644.595 281.832 644.727C281.963 644.859 282.142 644.933 282.328 644.933H287.948C288.135 644.933 288.313 644.859 288.445 644.727C288.577 644.595 288.651 644.417 288.651 644.23V642.825C288.651 642.266 288.429 641.73 288.034 641.335C287.638 640.94 287.102 640.718 286.543 640.718H285.841V639.25C286.779 639.09 287.636 638.617 288.271 637.908H289.353C290.099 637.908 290.813 637.612 291.34 637.085C291.867 636.558 292.163 635.843 292.163 635.098V632.99C292.163 632.804 292.089 632.625 291.958 632.494C291.826 632.362 291.647 632.288 291.461 632.288ZM280.923 636.503C280.551 636.503 280.193 636.355 279.93 636.091C279.666 635.828 279.518 635.47 279.518 635.098V633.693H280.923V635.098C280.925 635.577 281.008 636.052 281.169 636.503H280.923ZM286.543 642.123C286.73 642.123 286.908 642.197 287.04 642.329C287.172 642.46 287.246 642.639 287.246 642.825V643.528H283.031V642.825C283.031 642.639 283.105 642.46 283.237 642.329C283.368 642.197 283.547 642.123 283.733 642.123H286.543ZM287.948 635.098C287.948 635.843 287.652 636.558 287.125 637.085C286.598 637.612 285.884 637.908 285.138 637.908C284.393 637.908 283.678 637.612 283.151 637.085C282.624 636.558 282.328 635.843 282.328 635.098V632.288H287.948V635.098ZM290.758 635.098C290.758 635.47 290.61 635.828 290.347 636.091C290.083 636.355 289.726 636.503 289.353 636.503H289.107C289.269 636.052 289.352 635.577 289.353 635.098V633.693H290.758V635.098Z" fill="#ADB5BD"/>
<path d="M274.493 656.087H273.806V652.593H272.93V655.74H272.274V649.461H272.93V652.004H273.806V649.325H274.493V656.087ZM268.916 650.14H271.451V650.721H269.633V653.853C270.073 653.851 270.459 653.837 270.791 653.812C271.126 653.786 271.466 653.74 271.814 653.672L271.866 654.261C271.489 654.339 271.117 654.391 270.75 654.419C270.385 654.444 269.924 654.459 269.369 654.464H268.916V650.14ZM281.526 652.827H278.802V653.393H280.756V654.917H276.817V655.475H280.945V656.019H276.115V654.419H280.047V653.913H276.107V653.393H278.092V652.827H275.375V652.291H281.526V652.827ZM275.677 651.483C276.107 651.461 276.491 651.403 276.828 651.31C277.165 651.217 277.438 651.096 277.647 650.948C277.856 650.799 277.984 650.631 278.032 650.442H275.987V649.891H278.092V649.295H278.802V649.891H280.915V650.442H278.858C278.906 650.631 279.033 650.799 279.239 650.948C279.448 651.096 279.722 651.217 280.062 651.31C280.404 651.403 280.791 651.461 281.224 651.483L281.005 652.027C280.401 651.982 279.876 651.872 279.428 651.699C278.98 651.525 278.653 651.294 278.447 651.004C278.241 651.294 277.912 651.525 277.462 651.699C277.014 651.872 276.487 651.982 275.881 652.027L275.677 651.483ZM282.952 651.597H284.25V649.974H284.907V651.861H285.805V649.461H286.491V655.762H285.805V652.457H284.907V654.419H282.273V649.974H282.952V651.597ZM284.25 653.823V652.178H282.952V653.823H284.25ZM287.178 649.325H287.865V656.087H287.178V649.325ZM292.159 650.284C292.159 650.641 292.273 650.988 292.502 651.325C292.731 651.662 293.035 651.95 293.415 652.189C293.797 652.425 294.204 652.583 294.634 652.661L294.302 653.257C293.94 653.179 293.594 653.051 293.264 652.872C292.935 652.693 292.642 652.476 292.385 652.219C292.131 651.96 291.932 651.675 291.789 651.363C291.643 651.672 291.442 651.956 291.185 652.215C290.929 652.472 290.636 652.69 290.306 652.868C289.976 653.047 289.631 653.176 289.268 653.257L288.951 652.661C289.377 652.58 289.776 652.422 290.151 652.185C290.529 651.946 290.832 651.66 291.061 651.325C291.29 650.988 291.404 650.641 291.404 650.284V649.77H292.159V650.284ZM288.725 654.6H294.913V655.196H288.725V654.6ZM300.89 653.498H296.181V649.884H300.822V650.465H296.905V651.378H300.679V651.944H296.905V652.925H300.89V653.498ZM295.404 654.645H301.592V655.234H295.404V654.645Z" fill="#ADB5BD"/>
<path d="M269.252 660.067H270.123C270.291 660.067 270.432 660.096 270.546 660.155C270.662 660.212 270.748 660.29 270.804 660.39C270.861 660.489 270.889 660.601 270.888 660.726C270.889 660.873 270.852 660.989 270.778 661.072C270.704 661.155 270.605 661.213 270.483 661.247V661.271C270.564 661.276 270.643 661.303 270.72 661.354C270.797 661.404 270.861 661.475 270.912 661.568C270.962 661.66 270.987 661.768 270.987 661.892C270.986 662.02 270.956 662.134 270.896 662.233C270.838 662.332 270.747 662.41 270.622 662.467C270.498 662.523 270.342 662.551 270.154 662.551H269.252V660.067ZM270.15 662.276C270.334 662.276 270.47 662.241 270.558 662.17C270.647 662.099 270.69 662.005 270.689 661.889C270.69 661.804 270.669 661.726 270.625 661.656C270.582 661.585 270.52 661.528 270.44 661.486C270.361 661.443 270.27 661.422 270.167 661.422H269.56V662.276H270.15ZM270.113 661.155C270.202 661.155 270.283 661.138 270.356 661.103C270.429 661.068 270.487 661.018 270.529 660.954C270.572 660.889 270.593 660.814 270.593 660.729C270.593 660.655 270.576 660.589 270.541 660.53C270.507 660.472 270.454 660.426 270.384 660.393C270.314 660.359 270.227 660.342 270.123 660.342H269.56V661.155H270.113ZM271.426 660.067H272.932V660.342H271.735V661.172H272.853V661.443H271.735V662.276H272.949V662.551H271.426V660.067ZM274.774 660.692C274.766 660.612 274.738 660.543 274.688 660.486C274.639 660.428 274.575 660.383 274.495 660.354C274.415 660.323 274.325 660.307 274.225 660.307C274.118 660.307 274.023 660.325 273.941 660.361C273.858 660.395 273.794 660.443 273.749 660.505C273.703 660.566 273.68 660.637 273.68 660.716C273.681 660.831 273.729 660.92 273.822 660.981C273.916 661.042 274.029 661.088 274.16 661.12L274.407 661.189C274.599 661.238 274.764 661.314 274.903 661.415C275.041 661.517 275.11 661.67 275.11 661.875C275.11 662.011 275.075 662.134 275.004 662.244C274.933 662.352 274.83 662.438 274.694 662.501C274.557 662.564 274.396 662.595 274.208 662.595C274.032 662.595 273.878 662.567 273.747 662.51C273.616 662.451 273.514 662.371 273.44 662.268C273.365 662.164 273.323 662.043 273.313 661.906H273.628C273.636 661.995 273.667 662.071 273.721 662.132C273.775 662.194 273.844 662.24 273.929 662.271C274.014 662.301 274.108 662.315 274.208 662.314C274.323 662.314 274.425 662.296 274.515 662.259C274.607 662.223 274.678 662.171 274.73 662.103C274.782 662.035 274.808 661.956 274.808 661.868C274.808 661.792 274.787 661.728 274.743 661.676C274.701 661.625 274.645 661.583 274.575 661.551C274.505 661.519 274.42 661.489 274.318 661.46L274.013 661.378C273.809 661.318 273.652 661.236 273.543 661.131C273.434 661.025 273.38 660.892 273.381 660.729C273.381 660.592 273.419 660.471 273.493 660.366C273.567 660.259 273.67 660.178 273.8 660.121C273.93 660.062 274.076 660.033 274.236 660.033C274.393 660.033 274.535 660.062 274.661 660.119C274.788 660.176 274.888 660.255 274.961 660.355C275.034 660.455 275.073 660.567 275.076 660.692H274.774ZM275.416 660.067H277.288V660.342H276.51V662.551H276.198V660.342H275.416V660.067ZM278.582 660.067H279.425C279.614 660.067 279.771 660.1 279.897 660.165C280.024 660.229 280.118 660.319 280.18 660.434C280.242 660.549 280.273 660.681 280.273 660.832C280.273 661.001 280.234 661.147 280.156 661.268C280.079 661.388 279.964 661.475 279.81 661.529L280.369 662.551H280.009L279.489 661.585C279.476 661.586 279.456 661.587 279.429 661.587H278.89V662.551H278.582V660.067ZM279.415 661.306C279.607 661.306 279.747 661.265 279.834 661.184C279.922 661.103 279.966 660.985 279.967 660.832C279.965 660.505 279.78 660.342 279.412 660.342H278.89V661.306H279.415ZM280.719 660.067H282.224V660.342H281.027V661.172H282.146V661.443H281.027V662.276H282.242V662.551H280.719V660.067ZM284.684 662.551H284.389L283.044 660.616H283.02V662.551H282.712V660.067H283.01L284.355 662.005H284.379V660.067H284.684V662.551ZM285.096 660.067H286.968V660.342H286.19V662.551H285.878V660.342H285.096V660.067ZM286.876 662.551L287.785 660.067H288.111L289.02 662.551H288.694L288.445 661.851H287.447L287.198 662.551H286.876ZM288.351 661.58L287.956 660.469H287.936L287.541 661.58H288.351ZM289.356 660.067H289.665V662.276H290.817V662.551H289.356V660.067ZM292.11 660.067H292.982C293.15 660.067 293.291 660.096 293.405 660.155C293.521 660.212 293.606 660.29 293.662 660.39C293.72 660.489 293.748 660.601 293.746 660.726C293.748 660.873 293.711 660.989 293.637 661.072C293.562 661.155 293.464 661.213 293.342 661.247V661.271C293.423 661.276 293.502 661.303 293.578 661.354C293.656 661.404 293.72 661.475 293.77 661.568C293.821 661.66 293.846 661.768 293.846 661.892C293.845 662.02 293.814 662.134 293.755 662.233C293.697 662.332 293.605 662.41 293.481 662.467C293.357 662.523 293.201 662.551 293.012 662.551H292.11V660.067ZM293.009 662.276C293.193 662.276 293.329 662.241 293.417 662.17C293.505 662.099 293.549 662.005 293.548 661.889C293.549 661.804 293.528 661.726 293.484 661.656C293.441 661.585 293.379 661.528 293.299 661.486C293.22 661.443 293.129 661.422 293.026 661.422H292.419V662.276H293.009ZM292.971 661.155C293.06 661.155 293.142 661.138 293.215 661.103C293.288 661.068 293.346 661.018 293.388 660.954C293.43 660.889 293.451 660.814 293.451 660.729C293.451 660.655 293.434 660.589 293.4 660.53C293.366 660.472 293.313 660.426 293.242 660.393C293.172 660.359 293.086 660.342 292.982 660.342H292.419V661.155H292.971ZM296.384 661.309C296.384 661.566 296.337 661.792 296.244 661.985C296.15 662.177 296.02 662.325 295.853 662.429C295.687 662.533 295.498 662.585 295.287 662.585C295.074 662.585 294.884 662.533 294.717 662.429C294.551 662.325 294.422 662.177 294.328 661.985C294.235 661.792 294.189 661.566 294.189 661.309C294.189 661.052 294.235 660.827 294.328 660.635C294.422 660.442 294.551 660.293 294.717 660.189C294.884 660.085 295.074 660.033 295.287 660.033C295.498 660.033 295.687 660.085 295.853 660.189C296.02 660.293 296.15 660.442 296.244 660.635C296.337 660.827 296.384 661.052 296.384 661.309ZM294.487 661.309C294.487 661.516 294.522 661.694 294.592 661.842C294.662 661.991 294.757 662.104 294.877 662.18C294.998 662.257 295.135 662.296 295.287 662.297C295.439 662.296 295.575 662.257 295.695 662.18C295.816 662.104 295.911 661.991 295.981 661.842C296.051 661.694 296.086 661.516 296.086 661.309C296.086 661.101 296.051 660.923 295.981 660.774C295.911 660.625 295.816 660.513 295.695 660.436C295.575 660.359 295.439 660.321 295.287 660.321C295.135 660.321 294.998 660.359 294.877 660.436C294.757 660.513 294.662 660.625 294.592 660.774C294.522 660.923 294.487 661.101 294.487 661.309ZM298.936 661.309C298.936 661.566 298.889 661.792 298.796 661.985C298.702 662.177 298.572 662.325 298.405 662.429C298.239 662.533 298.05 662.585 297.839 662.585C297.626 662.585 297.436 662.533 297.269 662.429C297.103 662.325 296.974 662.177 296.88 661.985C296.787 661.792 296.741 661.566 296.741 661.309C296.741 661.052 296.787 660.827 296.88 660.635C296.974 660.442 297.103 660.293 297.269 660.189C297.436 660.085 297.626 660.033 297.839 660.033C298.05 660.033 298.239 660.085 298.405 660.189C298.572 660.293 298.702 660.442 298.796 660.635C298.889 660.827 298.936 661.052 298.936 661.309ZM297.039 661.309C297.039 661.516 297.074 661.694 297.144 661.842C297.214 661.991 297.309 662.104 297.429 662.18C297.55 662.257 297.687 662.296 297.839 662.297C297.991 662.296 298.127 662.257 298.247 662.18C298.368 662.104 298.464 661.991 298.533 661.842C298.603 661.694 298.638 661.516 298.638 661.309C298.638 661.101 298.603 660.923 298.533 660.774C298.464 660.625 298.368 660.513 298.247 660.436C298.127 660.359 297.991 660.321 297.839 660.321C297.687 660.321 297.55 660.359 297.429 660.436C297.309 660.513 297.214 660.625 297.144 660.774C297.074 660.923 297.039 661.101 297.039 661.309ZM299.389 660.067H299.698V661.295H299.729L300.833 660.067H301.238L300.199 661.189L301.238 662.551H300.861L300.007 661.402L299.698 661.752V662.551H299.389V660.067Z" fill="#ADB5BD"/>
<g clip-path="url(#clip4_3140_9002)">
<path d="M346.253 635.449C347.609 635.449 348.712 634.346 348.712 632.99C348.712 631.634 347.609 630.531 346.253 630.531C344.898 630.531 343.795 631.634 343.795 632.99C343.795 634.346 344.898 635.449 346.253 635.449ZM346.253 631.936C346.837 631.936 347.307 632.407 347.307 632.99C347.307 633.573 346.837 634.044 346.253 634.044C345.67 634.044 345.2 633.573 345.2 632.99C345.2 632.407 345.67 631.936 346.253 631.936ZM346.289 638.961H343.282C343.977 638.61 345.179 638.259 346.253 638.259C346.331 638.259 346.415 638.266 346.492 638.266C346.731 637.753 347.146 637.331 347.644 636.994C347.132 636.903 346.647 636.854 346.253 636.854C344.61 636.854 341.336 637.676 341.336 639.313V640.366H346.253V639.313C346.253 639.193 346.267 639.074 346.289 638.961ZM351.522 637.205C350.23 637.205 347.658 637.915 347.658 639.313V640.366H355.386V639.313C355.386 637.915 352.815 637.205 351.522 637.205ZM352.372 635.926C352.906 635.624 353.278 635.055 353.278 634.395C353.278 633.426 352.492 632.639 351.522 632.639C350.553 632.639 349.766 633.426 349.766 634.395C349.766 635.055 350.138 635.624 350.672 635.926C350.925 636.067 351.213 636.151 351.522 636.151C351.831 636.151 352.119 636.067 352.372 635.926Z" fill="#191F28"/>
</g>
<path d="M340.613 648.494H341.564V649.181H340.613V650.834H339.775V646.834H340.613V648.494ZM335.21 650.26C335.721 650.122 336.162 649.939 336.534 649.713C336.909 649.487 337.205 649.228 337.421 648.936C337.637 648.641 337.769 648.323 337.817 647.981H335.519V647.302H338.727C338.727 647.893 338.602 648.429 338.353 648.909C338.104 649.387 337.742 649.797 337.266 650.139C336.791 650.481 336.216 650.748 335.542 650.939L335.21 650.26ZM336.131 652.283C336.128 652.006 336.221 651.764 336.41 651.558C336.598 651.352 336.865 651.193 337.21 651.083C337.554 650.972 337.954 650.917 338.41 650.917C338.867 650.917 339.267 650.972 339.609 651.083C339.954 651.193 340.219 651.352 340.406 651.558C340.594 651.764 340.689 652.006 340.689 652.283C340.689 652.562 340.594 652.805 340.406 653.011C340.219 653.217 339.954 653.374 339.609 653.482C339.267 653.593 338.867 653.648 338.41 653.648C337.954 653.648 337.554 653.593 337.21 653.482C336.865 653.374 336.598 653.217 336.41 653.011C336.221 652.805 336.128 652.562 336.131 652.283ZM336.961 652.283C336.961 652.428 337.019 652.555 337.134 652.664C337.25 652.769 337.416 652.851 337.632 652.909C337.851 652.964 338.11 652.992 338.41 652.992C338.706 652.992 338.964 652.964 339.183 652.909C339.402 652.851 339.57 652.769 339.689 652.664C339.807 652.555 339.866 652.428 339.866 652.283C339.864 652.059 339.733 651.885 339.474 651.762C339.215 651.636 338.86 651.573 338.41 651.573C338.11 651.573 337.851 651.601 337.632 651.656C337.416 651.712 337.25 651.793 337.134 651.901C337.019 652.007 336.961 652.134 336.961 652.283ZM345.835 648.102H344.409C344.419 648.358 344.487 648.604 344.613 648.838C344.738 649.069 344.921 649.275 345.16 649.456C345.401 649.638 345.689 649.777 346.024 649.875L345.624 650.532C345.242 650.419 344.912 650.249 344.635 650.022C344.359 649.796 344.144 649.528 343.99 649.219C343.837 649.558 343.618 649.851 343.334 650.098C343.052 650.344 342.714 650.529 342.319 650.653L341.888 649.996C342.233 649.893 342.529 649.746 342.775 649.555C343.022 649.363 343.21 649.143 343.341 648.894C343.472 648.643 343.544 648.379 343.556 648.102H342.122V647.415H345.835V648.102ZM341.828 651.626C342.57 651.626 343.149 651.621 343.564 651.611V650.366H344.401V651.581C345.01 651.553 345.559 651.505 346.047 651.437L346.107 652.041C345.677 652.122 345.228 652.182 344.76 652.222C344.295 652.262 343.862 652.288 343.462 652.298C343.062 652.305 342.592 652.31 342.051 652.313H341.941L341.828 651.626ZM346.439 646.834H347.277V649.573H348.265V650.275H347.277V653.656H346.439V646.834ZM353.97 648.834H354.921V649.528H353.97V651.822H353.133V646.834H353.97V648.834ZM348.665 649.007C348.665 648.678 348.746 648.382 348.907 648.121C349.068 647.859 349.288 647.655 349.567 647.509C349.849 647.361 350.162 647.287 350.506 647.287C350.849 647.287 351.159 647.361 351.438 647.509C351.72 647.655 351.942 647.859 352.103 648.121C352.264 648.382 352.345 648.678 352.348 649.007C352.345 649.332 352.262 649.625 352.099 649.887C351.938 650.148 351.718 650.353 351.438 650.502C351.159 650.648 350.849 650.72 350.506 650.72C350.164 650.72 349.852 650.648 349.571 650.502C349.289 650.353 349.068 650.148 348.907 649.887C348.746 649.625 348.665 649.332 348.665 649.007ZM349.488 649.007C349.488 649.199 349.532 649.368 349.62 649.517C349.71 649.665 349.834 649.78 349.99 649.86C350.145 649.941 350.318 649.981 350.506 649.981C350.698 649.981 350.87 649.941 351.023 649.86C351.179 649.78 351.301 649.666 351.389 649.521C351.48 649.372 351.525 649.201 351.525 649.007C351.525 648.811 351.48 648.639 351.389 648.49C351.301 648.34 351.179 648.224 351.023 648.143C350.87 648.06 350.698 648.019 350.506 648.019C350.315 648.019 350.142 648.06 349.986 648.143C349.832 648.224 349.71 648.34 349.62 648.49C349.532 648.639 349.488 648.811 349.488 649.007ZM349.601 651.302H350.439V652.841H354.242V653.52H349.601V651.302ZM361.124 653.656H360.317V650.207H359.562V653.309H358.777V646.962H359.562V649.521H360.317V646.834H361.124V653.656ZM355.563 647.619H356.408V651.219C357.074 651.206 357.723 651.138 358.355 651.015L358.438 651.747C357.638 651.888 356.83 651.958 356.015 651.958H355.563V647.619Z" fill="#191F28"/>
<path d="M341.647 658.392C341.624 658.281 341.579 658.187 341.512 658.108C341.444 658.028 341.362 657.967 341.265 657.926C341.168 657.885 341.065 657.864 340.954 657.864C340.802 657.864 340.665 657.902 340.544 657.979C340.424 658.056 340.329 658.168 340.259 658.317C340.19 658.466 340.155 658.644 340.155 658.852C340.155 659.059 340.19 659.237 340.259 659.385C340.329 659.534 340.424 659.647 340.544 659.723C340.665 659.8 340.802 659.839 340.954 659.84C341.065 659.839 341.168 659.818 341.265 659.778C341.361 659.737 341.442 659.677 341.51 659.598C341.577 659.519 341.623 659.425 341.647 659.315H341.956C341.926 659.481 341.864 659.626 341.77 659.749C341.677 659.871 341.559 659.965 341.417 660.03C341.277 660.095 341.122 660.128 340.954 660.128C340.741 660.128 340.552 660.076 340.385 659.972C340.219 659.868 340.089 659.72 339.995 659.528C339.903 659.335 339.856 659.109 339.856 658.852C339.856 658.595 339.903 658.37 339.995 658.178C340.089 657.985 340.219 657.836 340.385 657.732C340.552 657.628 340.741 657.576 340.954 657.576C341.122 657.576 341.277 657.609 341.417 657.674C341.558 657.738 341.675 657.832 341.769 657.955C341.864 658.077 341.926 658.223 341.956 658.392H341.647ZM344.323 657.61V659.253C344.323 659.423 344.283 659.575 344.202 659.71C344.122 659.843 344.009 659.949 343.863 660.025C343.717 660.101 343.547 660.138 343.355 660.138C343.163 660.138 342.994 660.101 342.848 660.025C342.701 659.949 342.588 659.843 342.508 659.71C342.428 659.575 342.388 659.423 342.388 659.253V657.61H342.697V659.229C342.697 659.349 342.723 659.456 342.776 659.55C342.828 659.644 342.904 659.718 343.004 659.771C343.104 659.824 343.221 659.85 343.355 659.85C343.489 659.85 343.606 659.824 343.705 659.771C343.805 659.718 343.881 659.644 343.933 659.55C343.986 659.456 344.013 659.349 344.014 659.229V657.61H344.323ZM344.871 657.61H345.18V659.819H346.333V660.094H344.871V657.61ZM346.278 657.61H348.151V657.885H347.372V660.094H347.06V657.885H346.278V657.61ZM350.497 657.61V659.253C350.497 659.423 350.457 659.575 350.377 659.71C350.297 659.843 350.184 659.949 350.037 660.025C349.891 660.101 349.722 660.138 349.53 660.138C349.337 660.138 349.168 660.101 349.022 660.025C348.876 659.949 348.762 659.843 348.682 659.71C348.602 659.575 348.562 659.423 348.562 659.253V657.61H348.871V659.229C348.871 659.349 348.897 659.456 348.95 659.55C349.002 659.644 349.078 659.718 349.178 659.771C349.279 659.824 349.396 659.85 349.53 659.85C349.663 659.85 349.78 659.824 349.879 659.771C349.979 659.718 350.055 659.644 350.108 659.55C350.16 659.456 350.187 659.349 350.188 659.229V657.61H350.497ZM351.046 657.61H351.89C352.078 657.61 352.235 657.643 352.361 657.708C352.488 657.772 352.582 657.862 352.644 657.977C352.706 658.092 352.737 658.224 352.737 658.375C352.737 658.544 352.698 658.69 352.62 658.811C352.544 658.931 352.428 659.018 352.274 659.072L352.833 660.094H352.473L351.953 659.128C351.94 659.129 351.92 659.13 351.893 659.13H351.354V660.094H351.046V657.61ZM351.879 658.849C352.071 658.849 352.211 658.808 352.298 658.727C352.386 658.646 352.43 658.528 352.431 658.375C352.429 658.048 352.244 657.885 351.876 657.885H351.354V658.849H351.879ZM352.97 660.094L353.879 657.61H354.205L355.114 660.094H354.788L354.539 659.394H353.541L353.292 660.094H352.97ZM354.445 659.123L354.051 658.012H354.03L353.635 659.123H354.445ZM355.45 657.61H355.759V659.819H356.911V660.094H355.45V657.61Z" fill="#191F28"/>
<path d="M337.824 666.008C346.055 666.008 350.669 666.008 358.899 666.008" stroke="#0C152D" stroke-width="1.22938" stroke-linecap="round"/>
</g>
<path d="M20.971 591.02L18.1875 593.83L20.971 596.64V594.532H25.8421C27.7722 594.532 29.3215 596.096 29.3215 598.045C29.3215 599.993 27.7722 601.557 25.8421 601.557H18.8834V602.962H25.8421C28.5242 602.962 30.7132 600.752 30.7132 598.045C30.7132 595.337 28.5242 593.127 25.8421 593.127H20.971V591.02Z" fill="#191F28"/>
<path d="M35.5558 27.1664C35.5283 27.0109 35.4698 26.8764 35.3801 26.763C35.2923 26.6496 35.1816 26.5636 35.0481 26.5051C34.9145 26.4447 34.7673 26.4145 34.6063 26.4145C34.3886 26.4145 34.1956 26.4694 34.0273 26.5792C33.8608 26.6871 33.7309 26.8463 33.6376 27.0566C33.5443 27.267 33.4976 27.5195 33.4976 27.814C33.4976 28.1122 33.5443 28.3665 33.6376 28.5769C33.7309 28.7854 33.8608 28.9437 34.0273 29.0516C34.1956 29.1596 34.3886 29.2135 34.6063 29.2135C34.7636 29.2135 34.9081 29.1852 35.0399 29.1285C35.1734 29.0699 35.285 28.9858 35.3746 28.876C35.4643 28.7662 35.5247 28.6354 35.5558 28.4836H36.2747C36.2381 28.7397 36.1457 28.9721 35.9976 29.1806C35.8494 29.3892 35.6545 29.5538 35.4131 29.6746C35.1734 29.7953 34.9008 29.8557 34.5953 29.8557C34.2441 29.8557 33.9303 29.7743 33.6541 29.6114C33.3796 29.4468 33.1647 29.2108 33.0092 28.9034C32.8555 28.5943 32.7787 28.2311 32.7787 27.814C32.7787 27.3951 32.8564 27.0319 33.0119 26.7246C33.1693 26.4173 33.3851 26.1822 33.6595 26.0194C33.9358 25.8547 34.2477 25.7724 34.5953 25.7724C34.888 25.7724 35.1542 25.8282 35.3938 25.9398C35.6335 26.0495 35.8302 26.2096 35.9838 26.42C36.1375 26.6286 36.2345 26.8774 36.2747 27.1664H35.5558ZM41.5588 27.814C41.5588 28.233 41.4802 28.5961 41.3228 28.9034C41.1673 29.2108 40.9506 29.4468 40.6725 29.6114C40.3962 29.7743 40.0843 29.8557 39.7367 29.8557C39.3873 29.8557 39.0745 29.7743 38.7982 29.6114C38.522 29.4468 38.3052 29.2108 38.1479 28.9034C37.9924 28.5943 37.9146 28.2311 37.9146 27.814C37.9146 27.3951 37.9924 27.0319 38.1479 26.7246C38.3052 26.4154 38.522 26.1794 38.7982 26.0166C39.0745 25.8538 39.3873 25.7724 39.7367 25.7724C40.0843 25.7724 40.3962 25.8547 40.6725 26.0194C40.9506 26.1822 41.1673 26.4173 41.3228 26.7246C41.4802 27.0319 41.5588 27.3951 41.5588 27.814ZM38.6336 27.814C38.6336 28.1104 38.6793 28.3638 38.7708 28.5741C38.8641 28.7845 38.994 28.9437 39.1605 29.0516C39.3269 29.1596 39.519 29.2135 39.7367 29.2135C39.9563 29.2135 40.1483 29.1596 40.313 29.0516C40.4795 28.9437 40.6085 28.7845 40.6999 28.5741C40.7932 28.3638 40.8399 28.1104 40.8399 27.814C40.8399 27.5177 40.7932 27.2643 40.6999 27.0539C40.6085 26.8435 40.4795 26.6844 40.313 26.5764C40.1483 26.4685 39.9563 26.4145 39.7367 26.4145C39.519 26.4145 39.3269 26.4685 39.1605 26.5764C38.994 26.6844 38.8641 26.8435 38.7708 27.0539C38.6793 27.2643 38.6336 27.5177 38.6336 27.814ZM46.5466 25.8273V28.4232C46.5466 28.705 46.4789 28.9547 46.3435 29.1724C46.21 29.3901 46.0206 29.5593 45.7755 29.68C45.5322 29.8008 45.2514 29.8612 44.933 29.8612C44.6129 29.8612 44.3312 29.8008 44.0878 29.68C43.8445 29.5593 43.6552 29.3901 43.5198 29.1724C43.3863 28.9547 43.3195 28.705 43.3195 28.4232V25.8273H44.033V28.3629C44.033 28.5293 44.0695 28.6775 44.1427 28.8074C44.2177 28.9373 44.3229 29.0397 44.4583 29.1147C44.5955 29.1879 44.7538 29.2245 44.933 29.2245C45.1123 29.2245 45.2697 29.1879 45.405 29.1147C45.5404 29.0397 45.6447 28.9373 45.7179 28.8074C45.791 28.6775 45.8276 28.5293 45.8276 28.3629V25.8273H46.5466ZM48.406 25.8273H49.8988C50.197 25.8273 50.4504 25.8803 50.659 25.9864C50.8693 26.0907 51.0276 26.238 51.1337 26.4282C51.2416 26.6185 51.2965 26.8408 51.2983 27.0951C51.2965 27.3658 51.2343 27.5991 51.1117 27.7948C50.991 27.9887 50.8145 28.1323 50.5821 28.2256L51.441 29.8008H50.6452L49.8659 28.3464H49.1195V29.8008H48.406V25.8273ZM49.7891 27.7482C50.3086 27.75 50.5684 27.5323 50.5684 27.0951C50.5684 26.8792 50.5044 26.7136 50.3763 26.5984C50.2483 26.4831 50.0525 26.4255 49.7891 26.4255H49.1195V27.7482H49.7891ZM55.1994 26.9194C55.1811 26.7511 55.1052 26.6194 54.9717 26.5243C54.8399 26.4291 54.668 26.3816 54.4558 26.3816C54.3057 26.3816 54.1749 26.4035 54.0633 26.4474C53.9536 26.4913 53.8694 26.5526 53.8109 26.6313C53.7523 26.71 53.7231 26.7996 53.7231 26.9002C53.7231 27.0502 53.7862 27.1673 53.9124 27.2515C54.0387 27.3338 54.2024 27.3987 54.4036 27.4463L54.7768 27.5451C55.1189 27.6238 55.3979 27.7546 55.6138 27.9375C55.8315 28.1186 55.9403 28.3683 55.9403 28.6867C55.9403 28.919 55.8809 29.1239 55.762 29.3013C55.6431 29.4788 55.4702 29.6169 55.2433 29.7157C55.0183 29.8127 54.7494 29.8612 54.4366 29.8612C54.1292 29.8612 53.8612 29.8136 53.6325 29.7185C53.4057 29.6215 53.2282 29.4806 53.1002 29.2959C52.9721 29.1111 52.9035 28.8897 52.8943 28.6318H53.5968C53.6133 28.8312 53.6975 28.9839 53.8493 29.09C54.0011 29.1962 54.1951 29.2501 54.4311 29.252C54.5866 29.252 54.7238 29.2282 54.8427 29.1806C54.9634 29.1312 55.0576 29.0635 55.1253 28.9775C55.193 28.8916 55.2269 28.7928 55.2269 28.6812C55.225 28.5348 55.1647 28.4214 55.0458 28.3409C54.9268 28.2586 54.7476 28.1872 54.5079 28.1269L54.0579 28.0116C53.3517 27.8268 52.9986 27.4701 52.9986 26.9414C52.9986 26.7109 53.0617 26.5078 53.188 26.3322C53.3142 26.1547 53.488 26.0175 53.7094 25.9206C53.9307 25.8218 54.1804 25.7724 54.4585 25.7724C54.7347 25.7724 54.9799 25.8209 55.1939 25.9178C55.4098 26.0148 55.5781 26.1511 55.6989 26.3267C55.8196 26.5005 55.8818 26.6981 55.8855 26.9194H55.1994ZM57.6571 25.8273H60.2421V26.4255H58.3706V27.5122H60.1049V28.1104H58.3706V29.1971H60.253V29.8008H57.6571V25.8273ZM64.5097 25.8273H66.0026C66.3008 25.8273 66.5541 25.8803 66.7627 25.9864C66.9731 26.0907 67.1313 26.238 67.2374 26.4282C67.3454 26.6185 67.4002 26.8408 67.4021 27.0951C67.4002 27.3658 67.338 27.5991 67.2155 27.7948C67.0947 27.9887 66.9182 28.1323 66.6859 28.2256L67.5448 29.8008H66.749L65.9696 28.3464H65.2232V29.8008H64.5097V25.8273ZM65.8928 27.7482C66.4124 27.75 66.6721 27.5323 66.6721 27.0951C66.6721 26.8792 66.6081 26.7136 66.48 26.5984C66.352 26.4831 66.1562 26.4255 65.8928 26.4255H65.2232V27.7482H65.8928ZM69.1408 25.8273H71.7257V26.4255H69.8542V27.5122H71.5885V28.1104H69.8542V29.1971H71.7367V29.8008H69.1408V25.8273ZM76.1976 27.0951C76.1317 26.881 76.0183 26.7145 75.8573 26.5956C75.6963 26.4749 75.4969 26.4145 75.2591 26.4145C75.0451 26.4145 74.8539 26.4694 74.6856 26.5792C74.5191 26.6871 74.3892 26.8463 74.2959 27.0566C74.2026 27.267 74.156 27.5177 74.156 27.8085C74.156 28.1031 74.2026 28.3564 74.2959 28.5687C74.3892 28.779 74.52 28.9391 74.6883 29.0489C74.8566 29.1587 75.0524 29.2135 75.2756 29.2135C75.4731 29.2135 75.646 29.176 75.7942 29.101C75.9442 29.0242 76.0595 28.9163 76.14 28.7772C76.2223 28.6364 76.2653 28.4726 76.2689 28.286H75.3469V27.7207H76.9605V28.1982C76.9605 28.533 76.8882 28.8257 76.7437 29.0763C76.601 29.327 76.4025 29.52 76.1482 29.6553C75.8939 29.7889 75.603 29.8557 75.2756 29.8557C74.9115 29.8557 74.5904 29.7733 74.3124 29.6087C74.0343 29.4422 73.8184 29.2053 73.6648 28.898C73.5129 28.5888 73.437 28.2275 73.437 27.814C73.437 27.3987 73.5147 27.0374 73.6702 26.7301C73.8276 26.4209 74.0434 26.184 74.3179 26.0194C74.5941 25.8547 74.906 25.7724 75.2536 25.7724C75.5408 25.7724 75.8043 25.8282 76.0439 25.9398C76.2854 26.0514 76.483 26.2078 76.6367 26.409C76.7903 26.6084 76.8873 26.8371 76.9275 27.0951H76.1976ZM79.4456 29.8008H78.7321V25.8273H79.4456V29.8008ZM83.4729 26.9194C83.4546 26.7511 83.3787 26.6194 83.2451 26.5243C83.1134 26.4291 82.9414 26.3816 82.7292 26.3816C82.5792 26.3816 82.4484 26.4035 82.3368 26.4474C82.227 26.4913 82.1429 26.5526 82.0843 26.6313C82.0258 26.71 81.9965 26.7996 81.9965 26.9002C81.9965 27.0502 82.0596 27.1673 82.1859 27.2515C82.3121 27.3338 82.4758 27.3987 82.6771 27.4463L83.0503 27.5451C83.3924 27.6238 83.6714 27.7546 83.8872 27.9375C84.1049 28.1186 84.2138 28.3683 84.2138 28.6867C84.2138 28.919 84.1543 29.1239 84.0354 29.3013C83.9165 29.4788 83.7436 29.6169 83.5168 29.7157C83.2918 29.8127 83.0228 29.8612 82.71 29.8612C82.4027 29.8612 82.1346 29.8136 81.906 29.7185C81.6791 29.6215 81.5017 29.4806 81.3736 29.2959C81.2455 29.1111 81.1769 28.8897 81.1678 28.6318H81.8703C81.8868 28.8312 81.9709 28.9839 82.1228 29.09C82.2746 29.1962 82.4685 29.2501 82.7045 29.252C82.86 29.252 82.9972 29.2282 83.1161 29.1806C83.2369 29.1312 83.3311 29.0635 83.3988 28.9775C83.4665 28.8916 83.5003 28.7928 83.5003 28.6812C83.4985 28.5348 83.4381 28.4214 83.3192 28.3409C83.2003 28.2586 83.021 28.1872 82.7813 28.1269L82.3313 28.0116C81.6251 27.8268 81.2721 27.4701 81.2721 26.9414C81.2721 26.7109 81.3352 26.5078 81.4614 26.3322C81.5876 26.1547 81.7614 26.0175 81.9828 25.9206C82.2042 25.8218 82.4539 25.7724 82.732 25.7724C83.0082 25.7724 83.2533 25.8209 83.4674 25.9178C83.6833 26.0148 83.8516 26.1511 83.9723 26.3267C84.093 26.5005 84.1552 26.6981 84.1589 26.9194H83.4729ZM85.7549 25.8273H88.9216V26.4255H87.6978V29.8008H86.9843V26.4255H85.7549V25.8273ZM90.6054 25.8273H92.0983C92.3965 25.8273 92.6498 25.8803 92.8584 25.9864C93.0688 26.0907 93.227 26.238 93.3331 26.4282C93.4411 26.6185 93.4959 26.8408 93.4978 27.0951C93.4959 27.3658 93.4337 27.5991 93.3112 27.7948C93.1904 27.9887 93.0139 28.1323 92.7816 28.2256L93.6405 29.8008H92.8447L92.0653 28.3464H91.3189V29.8008H90.6054V25.8273ZM91.9885 27.7482C92.5081 27.75 92.7678 27.5323 92.7678 27.0951C92.7678 26.8792 92.7038 26.7136 92.5757 26.5984C92.4477 26.4831 92.2519 26.4255 91.9885 26.4255H91.3189V27.7482H91.9885ZM94.9785 29.8008L96.378 25.8273H97.2561L98.6611 29.8008H97.8983L97.5662 28.8184H96.0707L95.7414 29.8008H94.9785ZM97.3741 28.2421L96.8335 26.6395H96.8006L96.2628 28.2421H97.3741ZM99.5986 25.8273H102.765V26.4255H101.541V29.8008H100.828V26.4255H99.5986V25.8273ZM105.163 29.8008H104.449V25.8273H105.163V29.8008ZM110.573 27.814C110.573 28.233 110.494 28.5961 110.337 28.9034C110.181 29.2108 109.965 29.4468 109.687 29.6114C109.41 29.7743 109.098 29.8557 108.751 29.8557C108.401 29.8557 108.089 29.7743 107.812 29.6114C107.536 29.4468 107.319 29.2108 107.162 28.9034C107.006 28.5943 106.929 28.2311 106.929 27.814C106.929 27.3951 107.006 27.0319 107.162 26.7246C107.319 26.4154 107.536 26.1794 107.812 26.0166C108.089 25.8538 108.401 25.7724 108.751 25.7724C109.098 25.7724 109.41 25.8547 109.687 26.0194C109.965 26.1822 110.181 26.4173 110.337 26.7246C110.494 27.0319 110.573 27.3951 110.573 27.814ZM107.648 27.814C107.648 28.1104 107.693 28.3638 107.785 28.5741C107.878 28.7845 108.008 28.9437 108.175 29.0516C108.341 29.1596 108.533 29.2135 108.751 29.2135C108.97 29.2135 109.162 29.1596 109.327 29.0516C109.494 28.9437 109.623 28.7845 109.714 28.5741C109.807 28.3638 109.854 28.1104 109.854 27.814C109.854 27.5177 109.807 27.2643 109.714 27.0539C109.623 26.8435 109.494 26.6844 109.327 26.5764C109.162 26.4685 108.97 26.4145 108.751 26.4145C108.533 26.4145 108.341 26.4685 108.175 26.5764C108.008 26.6844 107.878 26.8435 107.785 27.0539C107.693 27.2643 107.648 27.5177 107.648 27.814ZM115.599 29.8008H114.962L113.08 27.0841H113.047V29.8008H112.334V25.8273H112.981L114.853 28.544H114.891V25.8273H115.599V29.8008Z" fill="#ADB5BD"/>
<path d="M44.0334 40.221H46.0216V41.6569H44.0334V45.1124H42.282V36.7496H44.0334V40.221ZM32.7358 43.9132C33.8035 43.6239 34.7266 43.2426 35.505 42.7693C36.2887 42.2959 36.9067 41.7542 37.359 41.144C37.8113 40.5287 38.0874 39.8633 38.1874 39.148H33.3827V37.7279H40.0887C40.0887 38.9639 39.8284 40.0842 39.3077 41.0888C38.787 42.0881 38.0296 42.9455 37.0355 43.6608C36.0415 44.3761 34.8396 44.9336 33.4301 45.3333L32.7358 43.9132ZM34.6608 48.1419C34.6556 47.5634 34.8502 47.0585 35.2446 46.6272C35.6391 46.1959 36.1966 45.8645 36.9172 45.6331C37.6378 45.4017 38.474 45.286 39.426 45.286C40.3833 45.286 41.2195 45.4017 41.9349 45.6331C42.6554 45.8645 43.2103 46.1959 43.5995 46.6272C43.994 47.0585 44.1912 47.5634 44.1912 48.1419C44.1912 48.7258 43.994 49.2333 43.5995 49.6646C43.2103 50.0959 42.6554 50.4246 41.9349 50.6508C41.2195 50.8822 40.3833 50.9979 39.426 50.9979C38.474 50.9979 37.6378 50.8822 36.9172 50.6508C36.1966 50.4246 35.6391 50.0959 35.2446 49.6646C34.8502 49.2333 34.6556 48.7258 34.6608 48.1419ZM36.3965 48.1419C36.3965 48.447 36.5175 48.7126 36.7594 48.9388C37.0013 49.1597 37.3485 49.3306 37.8008 49.4516C38.2584 49.5673 38.8001 49.6252 39.426 49.6252C40.0467 49.6252 40.5858 49.5673 41.0433 49.4516C41.5009 49.3306 41.8533 49.1597 42.1005 48.9388C42.3477 48.7126 42.4713 48.447 42.4713 48.1419C42.4661 47.6738 42.1926 47.3109 41.6508 47.0532C41.1091 46.7902 40.3675 46.6587 39.426 46.6587C38.8001 46.6587 38.2584 46.7166 37.8008 46.8323C37.3485 46.948 37.0013 47.119 36.7594 47.3451C36.5175 47.566 36.3965 47.8316 36.3965 48.1419ZM54.9524 39.4005H51.9702C51.9912 39.937 52.1332 40.4498 52.3962 40.9389C52.6592 41.4228 53.0405 41.8541 53.5402 42.2328C54.0451 42.6115 54.6473 42.9034 55.3468 43.1085L54.5106 44.4813C53.7111 44.2446 53.0221 43.8896 52.4435 43.4162C51.865 42.9428 51.4153 42.3827 51.0945 41.7357C50.7736 42.4458 50.316 43.0585 49.7217 43.574C49.1326 44.0894 48.4252 44.476 47.5994 44.7337L46.7001 43.361C47.4206 43.1453 48.0386 42.8376 48.5541 42.4379C49.0695 42.0382 49.464 41.578 49.7375 41.0573C50.011 40.5313 50.1609 39.979 50.1872 39.4005H47.1892V37.9646H54.9524V39.4005ZM46.5738 46.7692C48.1254 46.7692 49.3351 46.7587 50.203 46.7376V44.1341H51.9544V46.6745C53.2272 46.6167 54.3738 46.5167 55.3942 46.3747L55.5204 47.637C54.621 47.8053 53.6822 47.9316 52.7039 48.0157C51.7309 48.0999 50.8262 48.1525 49.9899 48.1735C49.1537 48.1893 48.1701 48.1998 47.0393 48.2051H46.8105L46.5738 46.7692ZM56.2147 36.7496H57.9661V42.4773H60.0332V43.9448H57.9661V51.0137H56.2147V36.7496ZM72.5931 47.1794H70.8259V36.7654H72.5931V47.1794ZM60.7274 43.8185C61.4743 43.5556 62.1107 43.1742 62.6367 42.6746C63.1626 42.1697 63.5571 41.5964 63.8201 40.9547C64.0883 40.3078 64.2198 39.6372 64.2145 38.9429V37.5544H66.0291V38.9429C66.0238 39.6161 66.1501 40.2578 66.4078 40.8679C66.6708 41.478 67.06 42.0198 67.5754 42.4931C68.0909 42.9612 68.7168 43.3189 69.4531 43.5661L68.5537 44.9546C67.7543 44.6759 67.0653 44.2656 66.4867 43.7239C65.9081 43.1769 65.4584 42.5326 65.1376 41.791C64.8168 42.5904 64.3592 43.2847 63.7648 43.8738C63.1705 44.4629 62.4631 44.9073 61.6426 45.2071L60.7274 43.8185ZM63.1574 46.1854H64.9246V49.3096H72.9876V50.7297H63.1574V46.1854ZM79.804 39.7949C79.7988 40.3209 79.9302 40.8311 80.1985 41.3255C80.472 41.8146 80.8691 42.2512 81.3898 42.6351C81.9105 43.0191 82.5338 43.3084 83.2596 43.503L82.4391 44.86C81.6344 44.639 80.9348 44.3024 80.3405 43.8501C79.7514 43.3925 79.2912 42.8482 78.9599 42.217C78.639 42.9323 78.1814 43.5503 77.5871 44.071C76.9928 44.5917 76.2801 44.9757 75.4491 45.2229L74.6286 43.8659C75.3544 43.645 75.975 43.3268 76.4905 42.9113C77.0059 42.4905 77.3951 42.0119 77.6581 41.4754C77.9211 40.9389 78.0526 40.3788 78.0526 39.7949V39.7161H75.0704V38.3275H78.0526V36.6865H79.8198V38.3275H82.7862V39.7161H79.804V39.7949ZM76.9481 48.3155C76.9428 47.758 77.1348 47.282 77.524 46.8875C77.9132 46.4878 78.4707 46.1854 79.1965 45.9802C79.9276 45.7699 80.7928 45.6647 81.7921 45.6647C82.7967 45.6647 83.6619 45.7699 84.3878 45.9802C85.1189 46.1854 85.6816 46.4878 86.0761 46.8875C86.4706 47.282 86.6678 47.758 86.6678 48.3155C86.6678 48.873 86.4706 49.3543 86.0761 49.7593C85.6816 50.1643 85.1189 50.472 84.3878 50.6823C83.6567 50.8927 82.7915 50.9979 81.7921 50.9979C80.7928 50.9979 79.9276 50.8901 79.1965 50.6744C78.4707 50.4641 77.9132 50.1564 77.524 49.7514C77.1348 49.3517 76.9428 48.873 76.9481 48.3155ZM78.6837 48.3155C78.6785 48.7363 78.9467 49.0624 79.4884 49.2938C80.0354 49.5252 80.8033 49.6409 81.7921 49.6409C82.7967 49.6409 83.5673 49.5279 84.1037 49.3017C84.6455 49.0703 84.9164 48.7415 84.9164 48.3155C84.9164 47.8895 84.6481 47.566 84.1116 47.3451C83.5804 47.1242 82.8073 47.0111 81.7921 47.0059C80.7928 47.0111 80.0223 47.1268 79.4806 47.353C78.9441 47.5739 78.6785 47.8947 78.6837 48.3155ZM82.3602 40.6628H84.869V36.7496H86.6205V45.3807H84.869V42.0829H82.3602V40.6628Z" fill="#191F28"/>
<g filter="url(#filter2_d_3140_9002)">
<rect x="294.621" y="586.812" width="68.2575" height="21.075" rx="10.5375" fill="white"/>
<g clip-path="url(#clip5_3140_9002)">
<circle cx="304.809" cy="597.352" r="8.43001" fill="#FFEBE7"/>
<g clip-path="url(#clip6_3140_9002)">
<path d="M301.403 593.895C301.403 593.895 299.368 599.442 302.979 601.125L304.299 600.602L304.96 598.332C304.96 598.332 302.224 594.219 302.224 594.242C302.224 594.264 301.403 593.895 301.403 593.895Z" fill="#642718"/>
<path d="M308.315 593.895C308.315 593.895 310.35 599.442 306.74 601.125L305.42 600.602L304.758 598.332C304.758 598.332 307.494 594.219 307.494 594.242C307.494 594.264 308.315 593.895 308.315 593.895Z" fill="#642718"/>
<path d="M303.3 598.469V600.761L300.621 601.732L304.859 605.295L308.992 601.732L306.313 600.761V598.469H303.3Z" fill="#F5CCC1"/>
<path d="M303.262 592.256C304.241 591.649 305.479 591.649 306.457 592.256C307.525 592.917 308.074 594.168 307.839 595.401L307.397 597.328C307.23 598.057 306.773 598.685 306.132 599.069L305.696 599.329C305.182 599.637 304.54 599.637 304.025 599.329L303.589 599.069C302.948 598.685 302.491 598.057 302.324 597.328L301.882 595.401C301.647 594.167 302.196 592.917 303.262 592.256Z" fill="#F5CCC1"/>
<path d="M303.926 595.82V596.026" stroke="#300021" stroke-width="0.526875" stroke-miterlimit="10" stroke-linecap="round"/>
<path d="M305.793 595.82V596.026" stroke="#300021" stroke-width="0.526875" stroke-miterlimit="10" stroke-linecap="round"/>
<path d="M303.527 595.213C303.598 595.179 303.716 595.156 303.848 595.153C303.98 595.15 304.098 595.168 304.169 595.198" stroke="#642718" stroke-width="0.35125" stroke-miterlimit="10" stroke-linecap="round" stroke-linejoin="round"/>
<path d="M306.193 595.213C306.122 595.179 306.004 595.156 305.872 595.153C305.74 595.15 305.622 595.168 305.551 595.198" stroke="#642718" stroke-width="0.35125" stroke-miterlimit="10" stroke-linecap="round" stroke-linejoin="round"/>
<path d="M305.536 597.414C305.386 597.518 305.136 597.585 304.857 597.585C304.578 597.585 304.331 597.518 304.18 597.414" stroke="#C0655E" stroke-width="0.35125" stroke-miterlimit="10" stroke-linecap="round" stroke-linejoin="round"/>
<path d="M305.121 596.707C305.121 596.789 305.004 596.856 304.861 596.856C304.718 596.856 304.602 596.789 304.602 596.707C304.602 596.625 304.718 596.559 304.861 596.559C305.004 596.559 305.121 596.625 305.121 596.707Z" fill="#DD7766"/>
<path d="M301.976 596.382C301.976 596.382 302.392 596.055 302.446 595.409C302.501 594.764 302.949 594.02 302.949 594.02L301.83 594.065C301.83 594.067 301.418 594.819 301.976 596.382Z" fill="#642718"/>
<path d="M307.745 596.382C307.745 596.382 307.329 596.055 307.275 595.409C307.22 594.764 306.68 593.781 306.68 593.781L307.891 594.064C307.892 594.066 308.302 594.819 307.745 596.382Z" fill="#642718"/>
<path d="M306.132 599.066L305.697 599.327C305.183 599.635 304.541 599.635 304.026 599.327L303.59 599.066" stroke="#C0655E" stroke-width="0.21075" stroke-miterlimit="10" stroke-linecap="round" stroke-linejoin="round"/>
<path d="M303.3 600.715L304.807 602.588L306.313 600.715L309.855 601.644C310.805 601.856 311.48 602.699 311.48 603.672V606.003H298.133V603.672C298.133 602.699 298.808 601.857 299.758 601.644L303.3 600.715Z" fill="#FFC238"/>
<path d="M302.398 595.266C302.398 595.266 304.101 595.11 304.6 593.322L304.961 591.801L302.738 593.534L302.398 595.266Z" fill="#642718"/>
<path d="M308.04 596.157C307.636 596.661 307.407 595.368 307.407 595.368C307.407 595.368 307.247 594.568 306.984 594.146C306.931 594.059 306.847 593.974 306.742 593.892H306.741C306.331 593.575 305.581 593.322 304.861 593.322C304.787 593.322 304.712 593.325 304.637 593.331C303.802 593.388 302.98 593.758 302.739 594.146C302.475 594.568 302.316 595.368 302.316 595.368C302.316 595.368 302.087 596.661 301.683 596.157C301.279 595.654 301.103 594.294 301.6 593.414C302.097 592.534 303.321 591.356 304.179 591.219C304.479 591.171 304.7 591.24 304.861 591.35C305.023 591.24 305.243 591.171 305.544 591.219C306.401 591.356 307.626 592.534 308.122 593.414C308.619 594.294 308.442 595.654 308.04 596.157Z" fill="#642718"/>
<path d="M302.568 596.22C302.673 596.732 302.509 597.218 302.204 597.306C301.898 597.393 301.566 597.049 301.461 596.536C301.357 596.025 301.52 595.539 301.826 595.451C302.131 595.363 302.463 595.709 302.568 596.22Z" fill="#F5CCC1"/>
<path d="M302.121 596.904C302.113 596.906 302.105 596.907 302.096 596.908C301.981 596.917 301.818 596.745 301.759 596.453C301.728 596.299 301.732 596.142 301.772 596.022C301.791 595.969 301.831 595.877 301.906 595.856C301.914 595.854 301.922 595.853 301.931 595.852" stroke="#C0655E" stroke-width="0.21075" stroke-miterlimit="10" stroke-linecap="round" stroke-linejoin="round"/>
<path d="M308.268 596.468C308.349 595.951 308.162 595.491 307.85 595.442C307.538 595.392 307.218 595.772 307.136 596.289C307.055 596.807 307.242 597.267 307.554 597.316C307.866 597.365 308.186 596.986 308.268 596.468Z" fill="#F5CCC1"/>
<path d="M307.594 596.904C307.601 596.906 307.61 596.907 307.618 596.908C307.734 596.917 307.896 596.745 307.956 596.453C307.987 596.299 307.983 596.142 307.942 596.022C307.924 595.969 307.883 595.877 307.808 595.856C307.801 595.854 307.792 595.853 307.785 595.852" stroke="#C0655E" stroke-width="0.21075" stroke-miterlimit="10" stroke-linecap="round" stroke-linejoin="round"/>
<path d="M306.741 593.892H306.74C306.331 593.576 305.581 593.323 304.861 593.323C304.786 593.323 304.712 593.326 304.637 593.331L304.644 593.257C304.644 593.257 304.814 592.689 305.167 592.622C305.519 592.553 306.453 593.262 306.741 593.892Z" fill="#300021"/>
<path d="M302.578 594.72C302.578 594.72 303.583 594.249 303.891 593.419C304.198 592.589 304.602 592.422 304.602 592.422" stroke="#300021" stroke-width="0.21075" stroke-miterlimit="10" stroke-linecap="round"/>
<path d="M302.703 593.935C302.703 593.935 303.341 593.566 303.496 593.05C303.651 592.535 303.916 592.375 303.916 592.375" stroke="#300021" stroke-width="0.21075" stroke-miterlimit="10" stroke-linecap="round"/>
<path d="M307.203 593.469C307.379 593.79 307.488 594.149 307.519 594.514" stroke="#300021" stroke-width="0.21075" stroke-miterlimit="10" stroke-linecap="round"/>
<path d="M307.77 593.707C307.858 594.054 307.889 594.416 307.858 594.774" stroke="#300021" stroke-width="0.21075" stroke-miterlimit="10" stroke-linecap="round"/>
<path d="M303.302 600.02C303.302 600.02 302.476 600.116 301.828 601.149L303.403 603.328C303.555 603.539 303.858 603.564 304.043 603.383L304.808 602.635L303.301 600.762V600.02H303.302Z" fill="#F7EFEE"/>
<path d="M306.315 600.02C306.315 600.02 307.142 600.116 307.789 601.149L306.173 603.385C306.042 603.564 305.783 603.587 305.624 603.432L304.809 602.635L306.315 600.762V600.02Z" fill="#F7EFEE"/>
</g>
</g>
<path d="M323.679 597.481H322.889V594.307H323.679V597.481ZM319.061 595.919C319.061 595.655 319.128 595.421 319.261 595.215C319.395 595.009 319.578 594.848 319.811 594.733C320.045 594.618 320.308 594.56 320.598 594.56C320.886 594.56 321.147 594.618 321.379 594.733C321.614 594.848 321.798 595.009 321.932 595.215C322.068 595.421 322.135 595.655 322.135 595.919C322.135 596.172 322.068 596.4 321.932 596.604C321.798 596.808 321.614 596.968 321.379 597.086C321.147 597.201 320.886 597.258 320.598 597.258C320.31 597.258 320.049 597.201 319.814 597.086C319.579 596.968 319.395 596.808 319.261 596.604C319.128 596.4 319.061 596.172 319.061 595.919ZM319.832 595.919C319.83 596.054 319.861 596.174 319.925 596.277C319.991 596.38 320.081 596.459 320.197 596.514C320.314 596.57 320.448 596.598 320.598 596.598C320.744 596.598 320.874 596.57 320.987 596.514C321.102 596.459 321.193 596.38 321.259 596.277C321.325 596.174 321.357 596.054 321.357 595.919C321.357 595.775 321.325 595.65 321.259 595.545C321.193 595.44 321.102 595.36 320.987 595.304C320.874 595.249 320.744 595.221 320.598 595.221C320.448 595.221 320.314 595.249 320.197 595.304C320.081 595.36 319.991 595.44 319.925 595.545C319.861 595.65 319.83 595.775 319.832 595.919ZM319.913 597.734H323.679V599.858H319.913V597.734ZM322.907 599.228V598.357H320.691V599.228H322.907ZM326.624 595.573C326.622 595.925 326.675 596.264 326.782 596.592C326.889 596.919 327.049 597.21 327.263 597.465C327.477 597.721 327.738 597.913 328.044 598.043L327.581 598.672C327.268 598.53 326.999 598.327 326.772 598.061C326.548 597.796 326.37 597.484 326.238 597.126C326.109 597.517 325.926 597.857 325.692 598.148C325.457 598.436 325.173 598.656 324.84 598.808L324.364 598.154C324.681 598.02 324.949 597.821 325.167 597.558C325.387 597.292 325.552 596.989 325.661 596.647C325.77 596.304 325.826 595.945 325.828 595.573V594.733H326.624V595.573ZM328.347 594.301H329.143V599.932H328.347V594.301ZM331.465 594.604C331.687 594.604 331.894 594.642 332.085 594.718C332.279 594.794 332.443 594.902 332.579 595.042H333.854V594.301H334.638V597.592H333.854V596.919H332.573C332.437 597.057 332.274 597.164 332.082 597.24C331.891 597.314 331.685 597.351 331.465 597.351C331.185 597.351 330.931 597.292 330.702 597.175C330.476 597.056 330.298 596.892 330.168 596.684C330.039 596.474 329.975 596.24 329.977 595.98C329.975 595.719 330.039 595.483 330.168 595.273C330.298 595.063 330.476 594.9 330.702 594.783C330.931 594.663 331.185 594.604 331.465 594.604ZM330.724 595.98C330.724 596.122 330.755 596.247 330.817 596.354C330.88 596.461 330.969 596.543 331.082 596.601C331.195 596.656 331.325 596.684 331.471 596.684C331.611 596.684 331.737 596.656 331.848 596.601C331.959 596.543 332.046 596.461 332.11 596.354C332.174 596.247 332.206 596.122 332.206 595.98C332.206 595.834 332.174 595.709 332.11 595.604C332.046 595.497 331.959 595.415 331.848 595.36C331.739 595.302 331.613 595.274 331.471 595.277C331.325 595.274 331.195 595.302 331.082 595.36C330.969 595.415 330.88 595.497 330.817 595.604C330.755 595.709 330.724 595.834 330.724 595.98ZM330.786 598.814C330.786 598.584 330.864 598.385 331.02 598.219C331.177 598.052 331.4 597.925 331.69 597.839C331.98 597.752 332.323 597.709 332.718 597.709C333.113 597.709 333.456 597.752 333.746 597.839C334.038 597.925 334.263 598.052 334.419 598.219C334.578 598.385 334.657 598.584 334.657 598.814C334.657 599.045 334.578 599.244 334.419 599.41C334.263 599.577 334.038 599.703 333.746 599.79C333.456 599.876 333.113 599.92 332.718 599.92C332.323 599.92 331.98 599.876 331.69 599.79C331.4 599.703 331.177 599.577 331.02 599.41C330.864 599.244 330.786 599.045 330.786 598.814ZM331.557 598.814C331.557 598.977 331.657 599.1 331.857 599.185C332.057 599.267 332.344 599.308 332.718 599.308C333.099 599.308 333.388 599.267 333.586 599.185C333.783 599.1 333.883 598.977 333.885 598.814C333.883 598.648 333.783 598.522 333.586 598.438C333.39 598.353 333.101 598.31 332.718 598.308C332.342 598.31 332.053 598.353 331.854 598.438C331.656 598.522 331.557 598.648 331.557 598.814ZM332.916 595.665C332.94 595.764 332.953 595.869 332.953 595.98C332.953 596.083 332.942 596.186 332.919 596.289H333.854V595.665H332.916ZM341.492 597.481H341.017V594.363H341.492V597.481ZM337.312 594.69H337.8V596.647C338.279 596.643 338.727 596.623 339.143 596.585C339.558 596.546 339.975 596.483 340.393 596.394L340.467 596.802C340.02 596.892 339.581 596.957 339.149 596.996C338.717 597.035 338.252 597.057 337.756 597.061H337.312V594.69ZM337.929 597.734H341.492V599.778H337.929V597.734ZM341.017 599.382V598.123H338.405V599.382H341.017Z" fill="#191F28"/>
<g clip-path="url(#clip7_3140_9002)">
<path d="M354.242 596.129L355.478 597.361L354.242 598.592" stroke="#6B7684" stroke-width="0.7025" stroke-miterlimit="10" stroke-linecap="round" stroke-linejoin="round"/>
<path d="M355.48 597.363H350.797" stroke="#6B7684" stroke-width="0.7025" stroke-miterlimit="10" stroke-linecap="round" stroke-linejoin="round"/>
<path d="M353.006 599.186V599.573C353.006 600.086 352.581 600.508 352.067 600.508H349.09C348.584 600.508 348.16 600.086 348.16 599.573V595.15C348.16 594.637 348.584 594.215 349.099 594.215H352.076C352.581 594.215 353.006 594.637 353.006 595.15V595.509" stroke="#6B7684" stroke-width="0.7025" stroke-miterlimit="10" stroke-linecap="round" stroke-linejoin="round"/>
</g>
</g>
<rect x="32.2344" y="533.414" width="316.125" height="38.6376" rx="7.025" fill="#191F28"/>
<path d="M188.602 550.238H189.955V551.463H188.602V554.414H187.109V547.206H188.602V550.238ZM179.995 553.049C181.099 553.049 181.958 553.041 182.573 553.026V552.431C181.989 552.349 181.531 552.172 181.196 551.9C180.866 551.628 180.703 551.292 180.707 550.891C180.707 550.569 180.813 550.287 181.027 550.046C181.241 549.805 181.544 549.622 181.937 549.498C182.33 549.369 182.786 549.305 183.307 549.305C183.824 549.305 184.279 549.369 184.672 549.498C185.064 549.622 185.368 549.805 185.582 550.046C185.799 550.287 185.908 550.569 185.908 550.891C185.904 551.292 185.737 551.628 185.407 551.9C185.08 552.168 184.629 552.343 184.054 552.425V552.973C185.064 552.919 185.92 552.847 186.619 552.757L186.724 553.784C185.729 553.959 184.701 554.073 183.64 554.128C182.578 554.178 181.414 554.204 180.147 554.204L179.995 553.049ZM180.275 547.976H182.573V547.113H184.054V547.976H186.351V549.06H180.275V547.976ZM181.348 554.845H188.602V557.807H187.109V555.988H181.348V554.845ZM182.129 550.891C182.126 551.082 182.223 551.232 182.421 551.34C182.623 551.445 182.909 551.498 183.278 551.498C183.663 551.498 183.958 551.445 184.165 551.34C184.374 551.235 184.481 551.086 184.485 550.891C184.481 550.495 184.089 550.297 183.307 550.297C182.518 550.297 182.126 550.495 182.129 550.891ZM199.32 554.833H197.827V547.206H199.32V554.833ZM190.596 550.553C190.596 550.044 190.725 549.585 190.981 549.177C191.238 548.769 191.586 548.452 192.025 548.227C192.468 547.997 192.96 547.882 193.5 547.882C194.037 547.882 194.527 547.997 194.97 548.227C195.413 548.452 195.763 548.769 196.02 549.177C196.276 549.585 196.404 550.044 196.404 550.553C196.404 551.07 196.276 551.535 196.02 551.947C195.763 552.355 195.413 552.674 194.97 552.903C194.527 553.133 194.037 553.247 193.5 553.247C192.96 553.247 192.468 553.133 192.025 552.903C191.582 552.674 191.232 552.355 190.975 551.947C190.723 551.535 190.596 551.07 190.596 550.553ZM192.054 550.553C192.05 550.841 192.111 551.092 192.235 551.305C192.359 551.515 192.53 551.677 192.748 551.789C192.97 551.898 193.221 551.953 193.5 551.953C193.773 551.953 194.016 551.898 194.229 551.789C194.447 551.677 194.618 551.515 194.743 551.305C194.871 551.092 194.935 550.841 194.935 550.553C194.935 550.273 194.871 550.028 194.743 549.818C194.618 549.609 194.447 549.449 194.229 549.34C194.012 549.228 193.769 549.173 193.5 549.177C193.221 549.173 192.97 549.228 192.748 549.34C192.53 549.449 192.359 549.609 192.235 549.818C192.111 550.028 192.05 550.273 192.054 550.553ZM192.206 554.064H193.71V556.431H199.6V557.621H192.206V554.064Z" fill="white"/>
</g>
<defs>
<filter id="filter0_d_3140_9002" x="-6.4" y="-8.56641" width="396.914" height="691.965" filterUnits="userSpaceOnUse" color-interpolation-filters="sRGB">
<feFlood flood-opacity="0" result="BackgroundImageFix"/>
<feColorMatrix in="SourceAlpha" type="matrix" values="0 0 0 0 0 0 0 0 0 0 0 0 0 0 0 0 0 0 127 0" result="hardAlpha"/>
<feOffset dx="1.75625"/>
<feGaussianBlur stdDeviation="4.39063"/>
<feComposite in2="hardAlpha" operator="out"/>
<feColorMatrix type="matrix" values="0 0 0 0 0 0 0 0 0 0 0 0 0 0 0 0 0 0 0.3 0"/>
<feBlend mode="multiply" in2="BackgroundImageFix" result="effect1_dropShadow_3140_9002"/>
<feBlend mode="normal" in="SourceGraphic" in2="effect1_dropShadow_3140_9002" result="shape"/>
</filter>
<filter id="filter1_d_3140_9002" x="-6.4" y="611.038" width="393.402" height="70.2492" filterUnits="userSpaceOnUse" color-interpolation-filters="sRGB">
<feFlood flood-opacity="0" result="BackgroundImageFix"/>
<feColorMatrix in="SourceAlpha" type="matrix" values="0 0 0 0 0 0 0 0 0 0 0 0 0 0 0 0 0 0 127 0" result="hardAlpha"/>
<feOffset dy="-0.35125"/>
<feGaussianBlur stdDeviation="3.5125"/>
<feComposite in2="hardAlpha" operator="out"/>
<feColorMatrix type="matrix" values="0 0 0 0 0 0 0 0 0 0 0 0 0 0 0 0 0 0 0.1 0"/>
<feBlend mode="normal" in2="BackgroundImageFix" result="effect1_dropShadow_3140_9002"/>
<feBlend mode="normal" in="SourceGraphic" in2="effect1_dropShadow_3140_9002" result="shape"/>
</filter>
<filter id="filter2_d_3140_9002" x="289.352" y="581.544" width="82.3078" height="35.1242" filterUnits="userSpaceOnUse" color-interpolation-filters="sRGB">
<feFlood flood-opacity="0" result="BackgroundImageFix"/>
<feColorMatrix in="SourceAlpha" type="matrix" values="0 0 0 0 0 0 0 0 0 0 0 0 0 0 0 0 0 0 127 0" result="hardAlpha"/>
<feOffset dx="1.75625" dy="1.75625"/>
<feGaussianBlur stdDeviation="3.5125"/>
<feComposite in2="hardAlpha" operator="out"/>
<feColorMatrix type="matrix" values="0 0 0 0 0 0 0 0 0 0 0 0 0 0 0 0 0 0 0.1 0"/>
<feBlend mode="normal" in2="BackgroundImageFix" result="effect1_dropShadow_3140_9002"/>
<feBlend mode="normal" in="SourceGraphic" in2="effect1_dropShadow_3140_9002" result="shape"/>
</filter>
<linearGradient id="paint0_linear_3140_9002" x1="57.7909" y1="0.214844" x2="156.053" y2="674.616" gradientUnits="userSpaceOnUse">
<stop stop-color="#35498F"/>
<stop offset="1" stop-color="#4F3E81"/>
</linearGradient>
<linearGradient id="paint1_linear_3140_9002" x1="57.7909" y1="0.214844" x2="156.053" y2="674.616" gradientUnits="userSpaceOnUse">
<stop stop-color="#4162D4"/>
<stop offset="1" stop-color="#5E4CCF"/>
</linearGradient>
<linearGradient id="paint2_linear_3140_9002" x1="57.7909" y1="0.214841" x2="149.643" y2="623.597" gradientUnits="userSpaceOnUse">
<stop stop-color="#2244BF"/>
<stop offset="1" stop-color="#664BA0"/>
</linearGradient>
<linearGradient id="paint3_linear_3140_9002" x1="12.1284" y1="4.7811" x2="106.176" y2="769.278" gradientUnits="userSpaceOnUse">
<stop stop-color="#F4EAE2"/>
<stop offset="1" stop-color="#D4E4E8"/>
</linearGradient>
<linearGradient id="paint4_linear_3140_9002" x1="190.3" y1="0.214844" x2="190.3" y2="621.928" gradientUnits="userSpaceOnUse">
<stop stop-color="#ECE3DB"/>
<stop offset="1" stop-color="#ECE7E4"/>
</linearGradient>
<linearGradient id="paint5_linear_3140_9002" x1="17.6606" y1="0.214845" x2="298.55" y2="626.029" gradientUnits="userSpaceOnUse">
<stop stop-color="#EDE3DA"/>
<stop offset="1" stop-color="#D9D0C9"/>
</linearGradient>
<clipPath id="clip0_3140_9002">
<rect width="379.35" height="674.401" fill="white" transform="translate(0.625 0.214844)"/>
</clipPath>
<clipPath id="clip1_3140_9002">
<rect width="16.86" height="16.86" fill="white" transform="translate(23.8086 629.477)"/>
</clipPath>
<clipPath id="clip2_3140_9002">
<rect width="16.86" height="16.86" fill="white" transform="translate(87.0352 629.477)"/>
</clipPath>
<clipPath id="clip3_3140_9002">
<rect width="16.86" height="16.86" fill="white" transform="translate(150.258 629.477)"/>
</clipPath>
<clipPath id="clip4_3140_9002">
<rect width="16.86" height="16.86" fill="white" transform="translate(339.934 627.02)"/>
</clipPath>
<clipPath id="clip5_3140_9002">
<rect x="296.379" y="588.922" width="16.86" height="16.86" rx="8.43001" fill="white"/>
</clipPath>
<clipPath id="clip6_3140_9002">
<rect width="13.3475" height="14.8421" fill="white" transform="translate(298.133 591.207)"/>
</clipPath>
<clipPath id="clip7_3140_9002">
<rect width="8.07876" height="7.20063" fill="white" transform="translate(347.777 593.75)"/>
</clipPath>
</defs>
</svg>
