<svg width="381" height="675" viewBox="0 0 381 675" fill="none" xmlns="http://www.w3.org/2000/svg">
<g clip-path="url(#clip0_3140_8125)">
<g filter="url(#filter0_b_3140_8125)">
<path d="M0.824219 0.214844H380.174V674.616H0.824219V0.214844Z" fill="url(#paint0_linear_3140_8125)"/>
</g>
<g filter="url(#filter1_d_3140_8125)">
<path d="M380.176 323.363L0.825796 323.363L0.825796 674.614H380.176L380.176 323.363Z" fill="#F5F0EE"/>
</g>
<path d="M35.2673 25.8273H37.8139V26.4255H35.9808V27.5122H37.6382V28.1104H35.9808V29.8008H35.2673V25.8273ZM38.7842 29.8008L40.1837 25.8273H41.0618L42.4668 29.8008H41.704L41.3719 28.8184H39.8764L39.5471 29.8008H38.7842ZM41.1798 28.2421L40.6392 26.6395H40.6063L40.0684 28.2421H41.1798ZM46.5545 27.1664C46.5271 27.0109 46.4685 26.8764 46.3789 26.763C46.2911 26.6496 46.1804 26.5636 46.0468 26.5051C45.9133 26.4447 45.766 26.4145 45.605 26.4145C45.3873 26.4145 45.1943 26.4694 45.026 26.5792C44.8595 26.6871 44.7297 26.8463 44.6363 27.0566C44.543 27.267 44.4964 27.5195 44.4964 27.814C44.4964 28.1122 44.543 28.3665 44.6363 28.5769C44.7297 28.7854 44.8595 28.9437 45.026 29.0516C45.1943 29.1596 45.3873 29.2135 45.605 29.2135C45.7624 29.2135 45.9069 29.1852 46.0386 29.1285C46.1722 29.0699 46.2837 28.9858 46.3734 28.876C46.463 28.7662 46.5234 28.6354 46.5545 28.4836H47.2735C47.2369 28.7397 47.1445 28.9721 46.9963 29.1806C46.8481 29.3892 46.6533 29.5538 46.4118 29.6746C46.1722 29.7953 45.8996 29.8557 45.5941 29.8557C45.2428 29.8557 44.9291 29.7743 44.6528 29.6114C44.3784 29.4468 44.1634 29.2108 44.0079 28.9034C43.8543 28.5943 43.7774 28.2311 43.7774 27.814C43.7774 27.3951 43.8552 27.0319 44.0107 26.7246C44.168 26.4173 44.3839 26.1822 44.6583 26.0194C44.9345 25.8547 45.2465 25.7724 45.5941 25.7724C45.8868 25.7724 46.1529 25.8282 46.3926 25.9398C46.6323 26.0495 46.8289 26.2096 46.9826 26.42C47.1363 26.6286 47.2332 26.8774 47.2735 27.1664H46.5545ZM49.7256 29.8008H49.0122V25.8273H49.7256V29.8008ZM51.5906 25.8273H52.304V29.1971H54.0603V29.8008H51.5906V25.8273ZM56.4685 29.8008H55.7551V25.8273H56.4685V29.8008ZM58.1578 25.8273H61.3246V26.4255H60.1007V29.8008H59.3872V26.4255H58.1578V25.8273ZM63.5407 25.8273L64.5177 27.5835H64.5561L65.533 25.8273H66.3398L64.8964 28.3135V29.8008H64.1829V28.3135L62.734 25.8273H63.5407Z" fill="#ADB5BD"/>
<path d="M38.3909 40.1736C38.3856 41.052 38.5303 41.9067 38.8248 42.7377C39.1194 43.5687 39.5454 44.3077 40.1029 44.9546C40.6604 45.6016 41.3152 46.0854 42.0674 46.4063L41.026 47.8106C40.2212 47.4372 39.5191 46.8954 38.9195 46.1854C38.3252 45.4701 37.8597 44.6364 37.5231 43.6844C37.1864 44.7101 36.7105 45.6094 36.0951 46.3826C35.485 47.1558 34.7565 47.7422 33.9097 48.1419L32.8368 46.6745C33.6099 46.3432 34.2805 45.8435 34.8486 45.1755C35.4166 44.5023 35.8505 43.7318 36.1503 42.8639C36.4501 41.9961 36.6026 41.0993 36.6079 40.1736V37.9015H38.3909V40.1736ZM43.093 36.7496H44.8602V51.0295H43.093V36.7496ZM58.9034 44.0552H57.1519V40.4419H54.3117V39.0376H57.1519V36.7496H58.9034V44.0552ZM46.8799 42.7298C47.6268 42.5036 48.2605 42.1723 48.7813 41.7357C49.3072 41.2939 49.7017 40.7838 49.9647 40.2052C50.2329 39.6214 50.367 39.006 50.367 38.3591V37.223H52.1342V38.3591C52.129 38.9534 52.2552 39.5214 52.5129 40.0632C52.7707 40.6049 53.152 41.0862 53.6569 41.507C54.1618 41.9225 54.7746 42.2407 55.4951 42.4616L54.5642 43.8185C53.8015 43.5661 53.1415 43.1979 52.5839 42.714C52.0264 42.2301 51.5873 41.6595 51.2664 41.002C50.9508 41.7384 50.4985 42.3774 49.9094 42.9192C49.3256 43.4556 48.6208 43.8606 47.7951 44.1341L46.8799 42.7298ZM49.515 44.6706H58.9034V48.3628H51.2506V49.4516H59.3609V50.8401H49.5307V47.0532H57.1677V46.0434H49.515V44.6706ZM72.1734 40.931H74.1615V42.3827H72.1734V47.1794H70.4219V36.7496H72.1734V40.931ZM61.0808 41.2939C61.0808 40.6049 61.2491 39.9869 61.5858 39.4399C61.9224 38.8929 62.3826 38.4669 62.9664 38.1618C63.5555 37.8515 64.2103 37.6964 64.9309 37.6964C65.6462 37.6964 66.2957 37.8515 66.8796 38.1618C67.4686 38.4669 67.9315 38.8929 68.2681 39.4399C68.6047 39.9869 68.7756 40.6049 68.7809 41.2939C68.7756 41.9724 68.6021 42.5852 68.2602 43.1322C67.9236 43.6792 67.4634 44.1078 66.8796 44.4181C66.2957 44.7232 65.6462 44.8757 64.9309 44.8757C64.2156 44.8757 63.5634 44.7232 62.9743 44.4181C62.3852 44.1078 61.9224 43.6792 61.5858 43.1322C61.2491 42.5852 61.0808 41.9724 61.0808 41.2939ZM62.8007 41.2939C62.8007 41.6937 62.8928 42.0487 63.0769 42.359C63.2662 42.6693 63.5239 42.9086 63.85 43.0769C64.1761 43.2453 64.5364 43.3294 64.9309 43.3294C65.3306 43.3294 65.6909 43.2453 66.0117 43.0769C66.3378 42.9086 66.5929 42.672 66.777 42.3669C66.9663 42.0566 67.061 41.6989 67.061 41.2939C67.061 40.8837 66.9663 40.5234 66.777 40.2131C66.5929 39.8975 66.3378 39.6556 66.0117 39.4873C65.6909 39.3137 65.3306 39.2269 64.9309 39.2269C64.5311 39.2269 64.1682 39.3137 63.8421 39.4873C63.5213 39.6556 63.2662 39.8975 63.0769 40.2131C62.8928 40.5234 62.8007 40.8837 62.8007 41.2939ZM63.0374 46.0907H64.7889V49.3096H72.7414V50.7297H63.0374V46.0907ZM87.1317 51.0137H85.4433V43.8028H83.8655V50.2879H82.2245V37.0179H83.8655V42.3669H85.4433V36.7496H87.1317V51.0137ZM75.5027 38.3906H77.2699V45.9171C78.6637 45.8908 80.0207 45.7488 81.3408 45.4911L81.5144 47.0216C79.8419 47.3162 78.1535 47.4635 76.4494 47.4635H75.5027V38.3906Z" fill="white"/>
<g filter="url(#filter2_d_3140_8125)">
<rect width="379.35" height="56.2001" transform="translate(0.824219 618.414)" fill="white"/>
<g clip-path="url(#clip1_3140_8125)">
<path d="M32.4364 644.933C33.2092 644.933 33.8414 644.301 33.8414 643.528H31.0314C31.0314 644.301 31.6637 644.933 32.4364 644.933ZM36.6514 640.718V637.206C36.6514 635.049 35.5063 633.244 33.4902 632.766V632.288C33.4902 631.705 33.0195 631.234 32.4364 631.234C31.8533 631.234 31.3827 631.705 31.3827 632.288V632.766C29.3735 633.244 28.2214 635.042 28.2214 637.206V640.718L26.8164 642.123V642.826H38.0564V642.123L36.6514 640.718ZM35.2464 641.421H29.6264V637.206C29.6264 635.463 30.6872 634.044 32.4364 634.044C34.1856 634.044 35.2464 635.463 35.2464 637.206V641.421Z" fill="#ADB5BD"/>
</g>
<path d="M22.3782 653.559C22.8712 653.559 23.2988 653.61 23.661 653.713C24.0258 653.814 24.3063 653.961 24.5025 654.155C24.7012 654.346 24.8006 654.575 24.8006 654.842C24.8006 655.103 24.7012 655.328 24.5025 655.517C24.3063 655.708 24.0258 655.854 23.661 655.955C23.2988 656.058 22.8712 656.109 22.3782 656.109C21.8902 656.109 21.4638 656.058 21.099 655.955C20.7368 655.854 20.4563 655.708 20.2576 655.517C20.0614 655.328 19.9633 655.103 19.9633 654.842C19.9633 654.575 20.0614 654.346 20.2576 654.155C20.4563 653.961 20.7368 653.814 21.099 653.713C21.4638 653.61 21.8902 653.559 22.3782 653.559ZM19.3219 652.389H21.7216V651.151H22.5517V652.389H25.5099V653.068H19.3219V652.389ZM20.0312 649.619H24.7553V650.185V650.385C24.7553 650.68 24.7427 650.953 24.7175 651.204C24.6949 651.456 24.6446 651.72 24.5666 651.997L23.7365 651.921C23.812 651.624 23.861 651.354 23.8837 651.11C23.9063 650.866 23.9176 650.59 23.9176 650.284H20.0312V649.619ZM20.8085 654.842C20.806 655.04 20.9418 655.194 21.216 655.302C21.4927 655.408 21.8801 655.46 22.3782 655.46C22.8762 655.46 23.2649 655.408 23.5441 655.302C23.8258 655.194 23.9679 655.04 23.9704 654.842C23.9679 654.635 23.8258 654.476 23.5441 654.362C23.2649 654.249 22.8762 654.193 22.3782 654.193C21.8826 654.193 21.4965 654.249 21.2198 654.362C20.9431 654.476 20.806 654.635 20.8085 654.842ZM28.5587 651.234C28.5587 651.609 28.6291 651.98 28.77 652.348C28.9133 652.712 29.1171 653.041 29.3812 653.332C29.6479 653.622 29.9598 653.84 30.317 653.989L29.8566 654.653C29.4617 654.482 29.1183 654.229 28.8266 653.895C28.5348 653.557 28.3084 653.166 28.1474 652.721C27.9864 653.199 27.7587 653.622 27.4644 653.989C27.1701 654.356 26.828 654.633 26.4381 654.819L25.9551 654.162C26.3048 654.001 26.6117 653.765 26.8758 653.453C27.1399 653.141 27.3437 652.79 27.4871 652.4C27.6304 652.01 27.7034 651.622 27.7059 651.234V650.661H26.2042V649.967H30.0528V650.661H28.5587V651.234ZM30.815 649.295H31.6602V656.117H30.815V649.295ZM35.1014 650.933C35.0989 651.343 35.163 651.743 35.2938 652.132C35.4271 652.522 35.6183 652.872 35.8673 653.181C36.1189 653.488 36.417 653.725 36.7616 653.891L36.2484 654.562C35.8862 654.379 35.5718 654.117 35.3051 653.778C35.041 653.438 34.8347 653.046 34.6863 652.6C34.5329 653.076 34.3166 653.496 34.0373 653.861C33.7606 654.223 33.4311 654.499 33.0488 654.691L32.5356 654.019C32.8903 653.851 33.1972 653.605 33.4563 653.283C33.7179 652.959 33.9166 652.593 34.0524 652.185C34.1908 651.775 34.2612 651.358 34.2637 650.933V649.846H35.1014V650.933ZM37.1691 649.295H38.0067V651.966H39.0557V652.683H38.0067V656.117H37.1691V649.295ZM44.723 651.091H45.6739V651.793H44.723V653.649H43.8854V649.295H44.723V651.091ZM39.35 649.989H40.9574V649.25H41.795V649.989H43.3949V650.646H39.35V649.989ZM39.6971 652.14C39.6971 651.899 39.7676 651.686 39.9084 651.502C40.0493 651.319 40.2455 651.175 40.497 651.072C40.7511 650.969 41.0429 650.917 41.3724 650.917C41.6969 650.917 41.9849 650.969 42.2365 651.072C42.4906 651.175 42.688 651.319 42.8289 651.502C42.9697 651.686 43.0402 651.899 43.0402 652.14C43.0402 652.381 42.9697 652.594 42.8289 652.778C42.688 652.961 42.4906 653.103 42.2365 653.204C41.9849 653.305 41.6969 653.355 41.3724 653.355C41.0429 653.355 40.7511 653.305 40.497 653.204C40.2455 653.103 40.0493 652.961 39.9084 652.778C39.7676 652.594 39.6971 652.381 39.6971 652.14ZM40.2405 654.91C40.238 654.658 40.3273 654.443 40.5084 654.264C40.692 654.083 40.9549 653.946 41.297 653.853C41.6416 653.757 42.0491 653.71 42.5195 653.71C42.9848 653.71 43.3886 653.757 43.7307 653.853C44.0728 653.946 44.3356 654.083 44.5193 654.264C44.7054 654.445 44.7985 654.66 44.7985 654.91C44.7985 655.159 44.7054 655.372 44.5193 655.551C44.3356 655.732 44.0728 655.87 43.7307 655.966C43.3886 656.062 42.9848 656.109 42.5195 656.109C42.0491 656.109 41.6416 656.062 41.297 655.966C40.9549 655.87 40.692 655.732 40.5084 655.551C40.3273 655.372 40.238 655.159 40.2405 654.91ZM40.5121 652.14C40.5096 652.321 40.5851 652.463 40.7385 652.566C40.892 652.669 41.0982 652.721 41.3573 652.721C41.6265 652.721 41.8403 652.671 41.9988 652.57C42.1598 652.467 42.2403 652.324 42.2403 652.14C42.2403 651.954 42.161 651.807 42.0026 651.699C41.8441 651.59 41.634 651.536 41.3724 651.536C41.1108 651.536 40.9008 651.59 40.7423 651.699C40.5863 651.807 40.5096 651.954 40.5121 652.14ZM41.0706 654.91C41.0681 655.091 41.1926 655.23 41.4441 655.328C41.6957 655.426 42.0541 655.475 42.5195 655.475C42.9798 655.475 43.3345 655.426 43.5835 655.328C43.8326 655.23 43.9583 655.091 43.9608 654.91C43.9583 654.726 43.8338 654.588 43.5873 654.494C43.3408 654.399 42.9848 654.351 42.5195 654.351C42.0491 654.351 41.6894 654.399 41.4403 654.494C41.1913 654.588 41.0681 654.726 41.0706 654.91Z" fill="#ADB5BD"/>
<path d="M28.4825 662.551H28.1875L26.8429 660.616H26.8189V662.551H26.5102V660.067H26.8086L28.1532 662.005H28.1772V660.067H28.4825V662.551ZM31.1306 661.309C31.1306 661.566 31.0837 661.792 30.99 661.985C30.8962 662.177 30.7659 662.325 30.5989 662.429C30.4331 662.533 30.2445 662.585 30.0329 662.585C29.8203 662.585 29.6305 662.533 29.4635 662.429C29.2977 662.325 29.168 662.177 29.0742 661.985C28.9816 661.792 28.9353 661.566 28.9353 661.309C28.9353 661.052 28.9816 660.827 29.0742 660.635C29.168 660.442 29.2977 660.293 29.4635 660.189C29.6305 660.085 29.8203 660.033 30.0329 660.033C30.2445 660.033 30.4331 660.085 30.5989 660.189C30.7659 660.293 30.8962 660.442 30.99 660.635C31.0837 660.827 31.1306 661.052 31.1306 661.309ZM29.2337 661.309C29.2337 661.516 29.2686 661.694 29.3383 661.842C29.4081 661.991 29.503 662.104 29.623 662.18C29.7442 662.257 29.8809 662.296 30.0329 662.297C30.185 662.296 30.3211 662.257 30.4411 662.18C30.5623 662.104 30.6578 661.991 30.7276 661.842C30.7973 661.694 30.8322 661.516 30.8322 661.309C30.8322 661.101 30.7973 660.923 30.7276 660.774C30.6578 660.625 30.5623 660.513 30.4411 660.436C30.3211 660.359 30.185 660.321 30.0329 660.321C29.8809 660.321 29.7442 660.359 29.623 660.436C29.503 660.513 29.4081 660.625 29.3383 660.774C29.2686 660.923 29.2337 661.101 29.2337 661.309ZM31.3433 660.067H33.2162V660.342H32.4375V662.551H32.1254V660.342H31.3433V660.067ZM33.9365 662.551H33.6278V660.067H33.9365V662.551ZM36.1798 660.849C36.157 660.739 36.1118 660.644 36.0443 660.565C35.9769 660.485 35.8945 660.424 35.7974 660.383C35.7013 660.342 35.5978 660.321 35.4869 660.321C35.3349 660.321 35.1982 660.359 35.077 660.436C34.957 660.513 34.8621 660.625 34.7923 660.774C34.7226 660.923 34.6877 661.101 34.6877 661.309C34.6877 661.516 34.7226 661.694 34.7923 661.842C34.8621 661.991 34.957 662.104 35.077 662.18C35.1982 662.257 35.3349 662.296 35.4869 662.297C35.5978 662.296 35.7013 662.275 35.7974 662.235C35.8934 662.194 35.9752 662.134 36.0426 662.055C36.1101 661.976 36.1558 661.882 36.1798 661.772H36.4885C36.4588 661.938 36.3971 662.083 36.3033 662.206C36.2096 662.328 36.0918 662.422 35.95 662.487C35.8094 662.552 35.655 662.585 35.4869 662.585C35.2743 662.585 35.0845 662.533 34.9175 662.429C34.7517 662.325 34.622 662.177 34.5282 661.985C34.4356 661.792 34.3893 661.566 34.3893 661.309C34.3893 661.052 34.4356 660.827 34.5282 660.635C34.622 660.442 34.7517 660.293 34.9175 660.189C35.0845 660.085 35.2743 660.033 35.4869 660.033C35.655 660.033 35.8094 660.066 35.95 660.131C36.0906 660.195 36.2078 660.289 36.3016 660.412C36.3965 660.534 36.4588 660.68 36.4885 660.849H36.1798ZM36.9207 660.067H38.4266V660.342H37.2295V661.172H38.3477V661.443H37.2295V662.276H38.4437V662.551H36.9207V660.067Z" fill="#ADB5BD"/>
<g clip-path="url(#clip2_3140_8125)">
<path d="M92.4273 637.286H91.1332V641.835H92.4273V637.286ZM96.3095 637.286H95.0155V641.835H96.3095V637.286ZM101.809 643.134H89.5156V644.434H101.809V643.134ZM100.192 637.286H98.8977V641.835H100.192V637.286ZM95.6625 632.906L99.0336 634.687H92.2914L95.6625 632.906ZM95.6625 631.438L89.5156 634.687V635.986H101.809V634.687L95.6625 631.438Z" fill="#ADB5BD"/>
</g>
<path d="M88.1554 656.102H87.4385V649.325H88.1554V656.102ZM82.7899 652.2C82.7899 651.727 82.8641 651.312 83.0125 650.955C83.1609 650.595 83.3672 650.319 83.6313 650.125C83.898 649.929 84.2011 649.831 84.5407 649.831C84.8752 649.831 85.1746 649.929 85.4387 650.125C85.7028 650.319 85.9091 650.595 86.0575 650.955C86.2084 651.312 86.2839 651.727 86.2839 652.2C86.2839 652.678 86.2084 653.097 86.0575 653.457C85.9091 653.817 85.7028 654.093 85.4387 654.287C85.1746 654.481 84.8752 654.577 84.5407 654.577C84.2011 654.577 83.898 654.481 83.6313 654.287C83.3672 654.093 83.1609 653.817 83.0125 653.457C82.8641 653.097 82.7899 652.678 82.7899 652.2ZM83.4842 652.2C83.4842 652.553 83.5282 652.859 83.6162 653.121C83.7043 653.383 83.8275 653.584 83.986 653.725C84.147 653.866 84.3319 653.936 84.5407 653.936C84.7469 653.936 84.9293 653.866 85.0878 653.725C85.2463 653.584 85.3695 653.383 85.4576 653.121C85.5456 652.859 85.5896 652.553 85.5896 652.2C85.5896 651.853 85.5456 651.55 85.4576 651.291C85.3695 651.029 85.2463 650.828 85.0878 650.687C84.9293 650.544 84.7469 650.472 84.5407 650.472C84.3319 650.472 84.147 650.544 83.986 650.687C83.8275 650.828 83.7043 651.029 83.6162 651.291C83.5282 651.55 83.4842 651.853 83.4842 652.2ZM95.3999 653.204H89.2345V652.623H90.7136V651.714C90.447 651.605 90.2432 651.467 90.1024 651.299C89.964 651.13 89.8961 650.935 89.8986 650.714C89.8986 650.45 89.9955 650.222 90.1892 650.031C90.3854 649.84 90.6646 649.695 91.0268 649.597C91.3915 649.496 91.8204 649.446 92.3135 649.446C92.8065 649.446 93.2341 649.496 93.5964 649.597C93.9586 649.695 94.2378 649.84 94.434 650.031C94.6302 650.222 94.7283 650.45 94.7283 650.714C94.7258 650.935 94.6541 651.131 94.5132 651.302C94.3724 651.471 94.1699 651.609 93.9058 651.717V652.623H95.3999V653.204ZM89.9665 654.864C89.9665 654.608 90.0596 654.39 90.2458 654.211C90.4319 654.033 90.6998 653.897 91.0494 653.804C91.4016 653.711 91.8229 653.664 92.3135 653.664C92.7964 653.664 93.2127 653.711 93.5624 653.804C93.912 653.897 94.1799 654.034 94.3661 654.215C94.5522 654.394 94.6453 654.61 94.6453 654.864C94.6453 655.121 94.5522 655.34 94.3661 655.521C94.1799 655.702 93.912 655.839 93.5624 655.932C93.2153 656.025 92.7989 656.072 92.3135 656.072C91.8229 656.072 91.4016 656.025 91.0494 655.932C90.6998 655.839 90.4319 655.702 90.2458 655.521C90.0596 655.342 89.9665 655.123 89.9665 654.864ZM90.6382 650.714C90.6356 650.938 90.7815 651.111 91.0759 651.234C91.3702 651.358 91.7827 651.421 92.3135 651.423C92.8417 651.421 93.253 651.358 93.5473 651.234C93.8441 651.111 93.9913 650.938 93.9888 650.714C93.9888 650.565 93.9221 650.437 93.7888 650.329C93.6555 650.221 93.463 650.139 93.2115 650.084C92.9599 650.026 92.6606 649.997 92.3135 649.997C91.7852 649.999 91.3727 650.063 91.0759 650.189C90.7815 650.313 90.6356 650.487 90.6382 650.714ZM90.691 654.864C90.6885 655.076 90.8293 655.239 91.1136 655.355C91.3978 655.468 91.7978 655.523 92.3135 655.521C92.8241 655.526 93.2203 655.47 93.502 655.355C93.7863 655.239 93.9284 655.076 93.9284 654.864C93.9284 654.658 93.7863 654.498 93.502 654.385C93.2203 654.272 92.8241 654.215 92.3135 654.215C91.7953 654.215 91.3941 654.272 91.1098 654.385C90.8281 654.498 90.6885 654.658 90.691 654.864ZM93.1964 652.623V651.902C92.9247 651.945 92.6304 651.966 92.3135 651.966C92.0116 651.966 91.7198 651.946 91.4381 651.906V652.623H93.1964ZM101.226 651.34H102.207V651.944H101.226V654.291H100.509V649.318H101.226V651.34ZM96.0187 651.468C96.0162 651.146 96.0929 650.858 96.2489 650.604C96.4074 650.348 96.6237 650.148 96.8979 650.004C97.1721 649.858 97.4777 649.786 97.8148 649.786C98.1519 649.786 98.4575 649.858 98.7317 650.004C99.0059 650.148 99.2209 650.348 99.3769 650.604C99.5354 650.858 99.6159 651.146 99.6184 651.468C99.6159 651.79 99.5354 652.08 99.3769 652.336C99.2209 652.593 99.0059 652.793 98.7317 652.936C98.4575 653.08 98.1519 653.151 97.8148 653.151C97.4777 653.151 97.1721 653.08 96.8979 652.936C96.6237 652.793 96.4074 652.593 96.2489 652.336C96.0929 652.08 96.0162 651.79 96.0187 651.468ZM96.7206 651.468C96.718 651.675 96.7646 651.858 96.8602 652.019C96.9558 652.178 97.0866 652.302 97.2526 652.393C97.4211 652.481 97.6085 652.525 97.8148 652.525C98.0211 652.525 98.2072 652.481 98.3732 652.393C98.5418 652.302 98.6738 652.178 98.7694 652.019C98.8675 651.858 98.9166 651.675 98.9166 651.468C98.9166 651.262 98.8675 651.08 98.7694 650.921C98.6738 650.76 98.5418 650.636 98.3732 650.548C98.2072 650.457 98.0211 650.412 97.8148 650.412C97.6085 650.412 97.4211 650.457 97.2526 650.548C97.0866 650.636 96.9558 650.76 96.8602 650.921C96.7646 651.08 96.718 651.262 96.7206 651.468ZM96.9394 653.77H97.6563V655.362H101.513V655.943H96.9394V653.77ZM108.38 656.087H107.693V652.623H106.825V655.74H106.154V649.461H106.825V652.034H107.693V649.325H108.38V656.087ZM102.909 650.125H103.626V653.736C104.347 653.729 105.039 653.659 105.701 653.529L105.776 654.155C105.336 654.233 104.918 654.288 104.524 654.321C104.129 654.354 103.736 654.369 103.346 654.366H102.909V650.125Z" fill="#ADB5BD"/>
<path d="M84.7115 662.551H84.4028V660.067H84.7115V662.551ZM87.2327 662.551H86.9377L85.5931 660.616H85.569V662.551H85.2603V660.067H85.5588L86.9034 662.005H86.9274V660.067H87.2327V662.551ZM87.7815 660.067H89.2771V660.342H88.0902V661.172H89.1639V661.443H88.0902V662.551H87.7815V660.067ZM91.836 661.309C91.836 661.566 91.7891 661.792 91.6953 661.985C91.6016 662.177 91.4712 662.325 91.3043 662.429C91.1385 662.533 90.9499 662.585 90.7383 662.585C90.5257 662.585 90.3359 662.533 90.1689 662.429C90.0031 662.325 89.8733 662.177 89.7796 661.985C89.687 661.792 89.6407 661.566 89.6407 661.309C89.6407 661.052 89.687 660.827 89.7796 660.635C89.8733 660.442 90.0031 660.293 90.1689 660.189C90.3359 660.085 90.5257 660.033 90.7383 660.033C90.9499 660.033 91.1385 660.085 91.3043 660.189C91.4712 660.293 91.6016 660.442 91.6953 660.635C91.7891 660.827 91.836 661.052 91.836 661.309ZM89.9391 661.309C89.9391 661.516 89.974 661.694 90.0437 661.842C90.1135 661.991 90.2084 662.104 90.3284 662.18C90.4496 662.257 90.5863 662.296 90.7383 662.297C90.8904 662.296 91.0265 662.257 91.1465 662.18C91.2677 662.104 91.3632 661.991 91.4329 661.842C91.5027 661.694 91.5376 661.516 91.5376 661.309C91.5376 661.101 91.5027 660.923 91.4329 660.774C91.3632 660.625 91.2677 660.513 91.1465 660.436C91.0265 660.359 90.8904 660.321 90.7383 660.321C90.5863 660.321 90.4496 660.359 90.3284 660.436C90.2084 660.513 90.1135 660.625 90.0437 660.774C89.974 660.923 89.9391 661.101 89.9391 661.309ZM92.2888 660.067H93.1326C93.3213 660.067 93.4785 660.1 93.6042 660.165C93.7312 660.229 93.8255 660.319 93.8872 660.434C93.949 660.549 93.9798 660.681 93.9798 660.832C93.9798 661.001 93.941 661.147 93.8632 661.268C93.7866 661.388 93.6711 661.475 93.5168 661.529L94.0759 662.551H93.7157L93.196 661.585C93.1835 661.586 93.1635 661.587 93.136 661.587H92.5975V662.551H92.2888V660.067ZM93.1223 661.306C93.3144 661.306 93.4539 661.265 93.5408 661.184C93.6288 661.103 93.6734 660.985 93.6746 660.832C93.6723 660.505 93.487 660.342 93.1189 660.342H92.5975V661.306H93.1223ZM94.7962 660.067L95.6332 662.112H95.6641L96.501 660.067H96.8715V662.551H96.5799V660.674H96.5559L95.7841 662.551H95.5097L94.7379 660.674H94.7173V662.551H94.4258V660.067H94.7962ZM97.2076 662.551L98.1166 660.067H98.4425L99.3515 662.551H99.0256L98.7769 661.851H97.7788L97.5301 662.551H97.2076ZM98.6826 661.58L98.2881 660.469H98.2676L97.8731 661.58H98.6826ZM99.2589 660.067H101.132V660.342H100.353V662.551H100.041V660.342H99.2589V660.067ZM101.852 662.551H101.543V660.067H101.852V662.551ZM104.5 661.309C104.5 661.566 104.453 661.792 104.36 661.985C104.266 662.177 104.135 662.325 103.969 662.429C103.803 662.533 103.614 662.585 103.403 662.585C103.19 662.585 103 662.533 102.833 662.429C102.667 662.325 102.538 662.177 102.444 661.985C102.351 661.792 102.305 661.566 102.305 661.309C102.305 661.052 102.351 660.827 102.444 660.635C102.538 660.442 102.667 660.293 102.833 660.189C103 660.085 103.19 660.033 103.403 660.033C103.614 660.033 103.803 660.085 103.969 660.189C104.135 660.293 104.266 660.442 104.36 660.635C104.453 660.827 104.5 661.052 104.5 661.309ZM102.603 661.309C102.603 661.516 102.638 661.694 102.708 661.842C102.778 661.991 102.873 662.104 102.993 662.18C103.114 662.257 103.25 662.296 103.403 662.297C103.555 662.296 103.691 662.257 103.811 662.18C103.932 662.104 104.027 661.991 104.097 661.842C104.167 661.694 104.202 661.516 104.202 661.309C104.202 661.101 104.167 660.923 104.097 660.774C104.027 660.625 103.932 660.513 103.811 660.436C103.691 660.359 103.555 660.321 103.403 660.321C103.25 660.321 103.114 660.359 102.993 660.436C102.873 660.513 102.778 660.625 102.708 660.774C102.638 660.923 102.603 661.101 102.603 661.309ZM106.925 662.551H106.63L105.286 660.616H105.262V662.551H104.953V660.067H105.251L106.596 662.005H106.62V660.067H106.925V662.551Z" fill="#ADB5BD"/>
<g clip-path="url(#clip3_3140_8125)">
<path d="M158.886 628.426C156.168 628.426 153.969 630.625 153.969 633.343C153.969 637.031 158.886 642.476 158.886 642.476C158.886 642.476 163.804 637.031 163.804 633.343C163.804 630.625 161.605 628.426 158.886 628.426ZM155.374 633.343C155.374 631.404 156.947 629.831 158.886 629.831C160.825 629.831 162.399 631.404 162.399 633.343C162.399 635.366 160.376 638.394 158.886 640.284C157.425 638.408 155.374 635.345 155.374 633.343Z" fill="#191F28"/>
<path d="M158.889 635.098C159.859 635.098 160.645 634.312 160.645 633.342C160.645 632.372 159.859 631.586 158.889 631.586C157.919 631.586 157.133 632.372 157.133 633.342C157.133 634.312 157.919 635.098 158.889 635.098Z" fill="#191F28"/>
</g>
<path d="M148.337 648.472C148.334 648.892 148.404 649.3 148.544 649.698C148.685 650.095 148.889 650.449 149.156 650.758C149.422 651.068 149.735 651.299 150.095 651.452L149.597 652.124C149.212 651.945 148.876 651.686 148.59 651.347C148.305 651.005 148.083 650.606 147.922 650.151C147.761 650.641 147.533 651.071 147.239 651.441C146.947 651.811 146.599 652.091 146.194 652.283L145.681 651.581C146.05 651.422 146.371 651.183 146.643 650.864C146.914 650.542 147.122 650.173 147.265 649.758C147.409 649.343 147.482 648.914 147.484 648.472V647.385H148.337V648.472ZM150.586 646.834H151.431V653.664H150.586V646.834ZM158.147 650.328H157.31V648.6H155.951V647.928H157.31V646.834H158.147V650.328ZM152.397 649.694C152.754 649.586 153.057 649.428 153.306 649.219C153.558 649.007 153.746 648.763 153.872 648.487C154 648.208 154.065 647.913 154.065 647.604V647.06H154.91V647.604C154.907 647.888 154.968 648.16 155.091 648.419C155.214 648.678 155.397 648.908 155.638 649.109C155.879 649.308 156.173 649.46 156.517 649.566L156.072 650.215C155.707 650.094 155.391 649.918 155.125 649.687C154.858 649.455 154.648 649.182 154.495 648.868C154.344 649.22 154.127 649.526 153.846 649.785C153.567 650.041 153.229 650.235 152.835 650.366L152.397 649.694ZM153.657 650.622H158.147V652.388H154.487V652.909H158.366V653.573H153.665V651.762H157.317V651.279H153.657V650.622ZM164.494 648.834H165.445V649.528H164.494V651.822H163.656V646.834H164.494V648.834ZM159.189 649.007C159.189 648.678 159.269 648.382 159.43 648.121C159.591 647.859 159.811 647.655 160.09 647.509C160.372 647.361 160.685 647.287 161.03 647.287C161.372 647.287 161.683 647.361 161.962 647.509C162.244 647.655 162.465 647.859 162.626 648.121C162.787 648.382 162.869 648.678 162.871 649.007C162.869 649.332 162.786 649.625 162.622 649.887C162.461 650.148 162.241 650.353 161.962 650.502C161.683 650.648 161.372 650.72 161.03 650.72C160.688 650.72 160.376 650.648 160.094 650.502C159.812 650.353 159.591 650.148 159.43 649.887C159.269 649.625 159.189 649.332 159.189 649.007ZM160.011 649.007C160.011 649.199 160.055 649.368 160.143 649.517C160.234 649.665 160.357 649.78 160.513 649.86C160.669 649.941 160.841 649.981 161.03 649.981C161.221 649.981 161.393 649.941 161.547 649.86C161.703 649.78 161.825 649.666 161.913 649.521C162.003 649.372 162.049 649.201 162.049 649.007C162.049 648.811 162.003 648.639 161.913 648.49C161.825 648.34 161.703 648.224 161.547 648.143C161.393 648.06 161.221 648.019 161.03 648.019C160.839 648.019 160.665 648.06 160.509 648.143C160.356 648.224 160.234 648.34 160.143 648.49C160.055 648.639 160.011 648.811 160.011 649.007ZM160.124 651.302H160.962V652.841H164.765V653.52H160.124V651.302ZM171.648 653.656H170.84V650.207H170.086V653.309H169.301V646.962H170.086V649.521H170.84V646.834H171.648V653.656ZM166.086 647.619H166.931V651.219C167.598 651.206 168.247 651.138 168.878 651.015L168.961 651.747C168.161 651.888 167.354 651.958 166.539 651.958H166.086V647.619Z" fill="#191F28"/>
<path d="M152.066 657.61H153.561V657.885H152.375V658.715H153.448V658.986H152.375V660.094H152.066V657.61ZM153.496 660.094L154.405 657.61H154.731L155.64 660.094H155.314L155.066 659.394H154.067L153.819 660.094H153.496ZM154.971 659.123L154.577 658.012H154.556L154.162 659.123H154.971ZM157.554 658.392C157.531 658.281 157.486 658.187 157.419 658.108C157.351 658.028 157.269 657.967 157.172 657.926C157.076 657.885 156.972 657.864 156.861 657.864C156.709 657.864 156.572 657.902 156.451 657.979C156.331 658.056 156.236 658.168 156.167 658.317C156.097 658.466 156.062 658.644 156.062 658.852C156.062 659.059 156.097 659.237 156.167 659.385C156.236 659.534 156.331 659.647 156.451 659.723C156.572 659.8 156.709 659.839 156.861 659.84C156.972 659.839 157.076 659.818 157.172 659.778C157.268 659.737 157.349 659.677 157.417 659.598C157.484 659.519 157.53 659.425 157.554 659.315H157.863C157.833 659.481 157.771 659.626 157.678 659.749C157.584 659.871 157.466 659.965 157.324 660.03C157.184 660.095 157.029 660.128 156.861 660.128C156.649 660.128 156.459 660.076 156.292 659.972C156.126 659.868 155.996 659.72 155.902 659.528C155.81 659.335 155.764 659.109 155.764 658.852C155.764 658.595 155.81 658.37 155.902 658.178C155.996 657.985 156.126 657.836 156.292 657.732C156.459 657.628 156.649 657.576 156.861 657.576C157.029 657.576 157.184 657.609 157.324 657.674C157.465 657.738 157.582 657.832 157.676 657.955C157.771 658.077 157.833 658.223 157.863 658.392H157.554ZM158.604 660.094H158.295V657.61H158.604V660.094ZM159.153 657.61H159.461V659.819H160.614V660.094H159.153V657.61ZM161.334 660.094H161.025V657.61H161.334V660.094ZM161.746 657.61H163.619V657.885H162.84V660.094H162.528V657.885H161.746V657.61ZM164.171 657.61L164.854 658.763H164.884L165.567 657.61H165.924L165.025 659.075V660.094H164.713V659.075L163.818 657.61H164.171Z" fill="#191F28"/>
<path d="M148.348 666.008C156.578 666.008 161.192 666.008 169.423 666.008" stroke="#0C152D" stroke-width="1.22938" stroke-linecap="round"/>
<path d="M228.558 630.923C228.055 630.836 227.545 630.791 227.034 630.789C225.291 630.788 223.584 631.288 222.116 632.229C220.645 631.3 218.939 630.812 217.199 630.824C216.688 630.826 216.178 630.871 215.674 630.958C215.509 630.986 215.36 631.072 215.253 631.201C215.146 631.33 215.089 631.493 215.091 631.66V640.09C215.09 640.193 215.111 640.296 215.154 640.39C215.196 640.484 215.259 640.567 215.337 640.634C215.416 640.702 215.508 640.75 215.608 640.778C215.707 640.805 215.812 640.81 215.913 640.793C216.92 640.618 217.951 640.647 218.947 640.878C219.942 641.108 220.881 641.535 221.709 642.134L221.793 642.184H221.87C221.948 642.216 222.032 642.233 222.116 642.233C222.201 642.233 222.284 642.216 222.362 642.184H222.44L222.524 642.134C223.346 641.522 224.282 641.081 225.278 640.837C226.273 640.593 227.308 640.552 228.319 640.715C228.421 640.733 228.526 640.728 228.625 640.701C228.725 640.673 228.817 640.624 228.895 640.557C228.974 640.49 229.037 640.407 229.079 640.312C229.122 640.218 229.143 640.116 229.141 640.013V631.583C229.134 631.423 229.072 631.27 228.966 631.15C228.86 631.03 228.716 630.95 228.558 630.923ZM221.414 640.259C220.114 639.575 218.667 639.218 217.199 639.219C216.967 639.219 216.735 639.219 216.496 639.219V632.194C216.73 632.181 216.965 632.181 217.199 632.194C218.698 632.192 220.164 632.632 221.414 633.459V640.259ZM227.736 639.247C227.498 639.247 227.266 639.247 227.034 639.247C225.565 639.246 224.119 639.603 222.819 640.287V633.459C224.069 632.632 225.535 632.192 227.034 632.194C227.268 632.181 227.502 632.181 227.736 632.194V639.247ZM228.558 642.163C228.055 642.076 227.545 642.031 227.034 642.029C225.291 642.028 223.584 642.528 222.116 643.469C220.649 642.528 218.942 642.028 217.199 642.029C216.688 642.031 216.178 642.076 215.674 642.163C215.583 642.177 215.495 642.21 215.416 642.258C215.338 642.307 215.269 642.37 215.215 642.445C215.161 642.52 215.122 642.605 215.101 642.695C215.079 642.786 215.076 642.879 215.091 642.97C215.127 643.153 215.234 643.314 215.388 643.418C215.542 643.522 215.731 643.56 215.913 643.525C216.92 643.351 217.951 643.38 218.947 643.61C219.942 643.841 220.881 644.268 221.709 644.867C221.828 644.952 221.97 644.997 222.116 644.997C222.262 644.997 222.405 644.952 222.524 644.867C223.351 644.268 224.291 643.841 225.286 643.61C226.281 643.38 227.313 643.351 228.319 643.525C228.502 643.56 228.691 643.522 228.845 643.418C228.999 643.314 229.106 643.153 229.141 642.97C229.156 642.879 229.153 642.786 229.132 642.695C229.111 642.605 229.072 642.52 229.018 642.445C228.964 642.37 228.895 642.307 228.816 642.258C228.737 642.21 228.65 642.177 228.558 642.163V642.163Z" fill="#ADB5BD"/>
<path d="M214.665 654.283H213.82V649.303H214.665V654.283ZM208.99 652.676C209.347 652.55 209.652 652.368 209.903 652.129C210.155 651.887 210.343 651.613 210.469 651.306C210.597 650.997 210.66 650.676 210.658 650.344V649.68H211.526V650.344C211.523 650.666 211.584 650.973 211.707 651.265C211.833 651.556 212.019 651.815 212.265 652.042C212.512 652.266 212.811 652.437 213.163 652.555L212.733 653.219C212.351 653.086 212.021 652.89 211.745 652.631C211.468 652.369 211.253 652.061 211.099 651.706C210.946 652.088 210.727 652.42 210.443 652.702C210.159 652.984 209.82 653.196 209.428 653.34L208.99 652.676ZM210.152 653.808H210.997V655.302H214.854V655.981H210.152V653.808ZM218.114 650.774C218.111 651.028 218.172 651.273 218.295 651.51C218.421 651.746 218.605 651.958 218.849 652.144C219.096 652.327 219.394 652.467 219.744 652.563L219.351 653.234C218.969 653.124 218.638 652.956 218.359 652.732C218.08 652.509 217.861 652.244 217.702 651.94C217.549 652.275 217.331 652.564 217.05 652.808C216.768 653.049 216.431 653.229 216.038 653.347L215.631 652.691C215.981 652.59 216.279 652.442 216.525 652.246C216.772 652.049 216.958 651.824 217.084 651.57C217.212 651.316 217.276 651.051 217.276 650.774V650.721H215.85V650.057H217.276V649.272H218.121V650.057H219.54V650.721H218.114V650.774ZM216.499 653.778H221.042V656.124H220.204V654.449H216.499V653.778ZM220.204 649.295H221.042V651.023H221.993V651.732H221.042V653.468H220.204V649.295ZM227.879 653.061H225.856V654.623H228.573V655.309H222.34V654.623H225.026V653.061H223.094V649.801H227.826V650.472H223.932V652.397H227.879V653.061ZM231.539 650.933C231.536 651.36 231.602 651.773 231.735 652.17C231.868 652.568 232.062 652.921 232.316 653.23C232.573 653.537 232.877 653.767 233.229 653.921L232.724 654.593C232.346 654.409 232.022 654.145 231.75 653.8C231.478 653.456 231.268 653.054 231.12 652.597C230.966 653.082 230.75 653.51 230.471 653.879C230.192 654.247 229.861 654.527 229.479 654.721L228.95 654.042C229.31 653.873 229.621 653.627 229.882 653.302C230.144 652.978 230.343 652.609 230.478 652.197C230.614 651.784 230.683 651.363 230.686 650.933V649.846H231.539V650.933ZM232.474 651.499H233.908V649.295H234.738V656.124H233.908V652.178H232.474V651.499Z" fill="#ADB5BD"/>
<path d="M205.959 662.551H205.664L204.319 660.616H204.295V662.551H203.987V660.067H204.285L205.63 662.005H205.654V660.067H205.959V662.551ZM206.508 660.067H208.014V660.342H206.816V661.172H207.935V661.443H206.816V662.276H208.031V662.551H206.508V660.067ZM208.281 660.067H208.593L209.111 662.077H209.135L209.66 660.067H210.006L210.535 662.077H210.555L211.073 660.067H211.385L210.706 662.551H210.387L209.845 660.585H209.825L209.279 662.551H208.96L208.281 660.067ZM212.384 662.551L213.293 660.067H213.618L214.527 662.551H214.202L213.953 661.851H212.955L212.706 662.551H212.384ZM213.859 661.58L213.464 660.469H213.444L213.049 661.58H213.859ZM214.864 660.067H215.707C215.896 660.067 216.053 660.1 216.179 660.165C216.306 660.229 216.4 660.319 216.462 660.434C216.524 660.549 216.555 660.681 216.555 660.832C216.555 661.001 216.516 661.147 216.438 661.268C216.361 661.388 216.246 661.475 216.092 661.529L216.651 662.551H216.291L215.771 661.585C215.758 661.586 215.738 661.587 215.711 661.587H215.172V662.551H214.864V660.067ZM215.697 661.306C215.889 661.306 216.029 661.265 216.116 661.184C216.204 661.103 216.248 660.985 216.249 660.832C216.247 660.505 216.062 660.342 215.694 660.342H215.172V661.306H215.697ZM217.001 660.067H217.844C218.033 660.067 218.19 660.1 218.316 660.165C218.443 660.229 218.537 660.319 218.599 660.434C218.661 660.549 218.692 660.681 218.692 660.832C218.692 661.001 218.653 661.147 218.575 661.268C218.498 661.388 218.383 661.475 218.229 661.529L218.788 662.551H218.428L217.908 661.585C217.895 661.586 217.875 661.587 217.848 661.587H217.309V662.551H217.001V660.067ZM217.834 661.306C218.026 661.306 218.166 661.265 218.253 661.184C218.341 661.103 218.385 660.985 218.386 660.832C218.384 660.505 218.199 660.342 217.831 660.342H217.309V661.306H217.834ZM219.446 662.551H219.138V660.067H219.446V662.551ZM220.839 662.149H220.866L221.6 660.067H221.926L221.017 662.551H220.691L219.782 660.067H220.108L220.839 662.149ZM221.83 662.551L222.739 660.067H223.065L223.974 662.551H223.648L223.4 661.851H222.401L222.153 662.551H221.83ZM223.305 661.58L222.911 660.469H222.89L222.496 661.58H223.305ZM224.31 660.067H224.619V662.276H225.772V662.551H224.31V660.067ZM227.538 660.692C227.53 660.612 227.502 660.543 227.452 660.486C227.403 660.428 227.339 660.383 227.259 660.354C227.179 660.323 227.089 660.307 226.989 660.307C226.882 660.307 226.787 660.325 226.705 660.361C226.622 660.395 226.558 660.443 226.512 660.505C226.467 660.566 226.444 660.637 226.444 660.716C226.445 660.831 226.492 660.92 226.586 660.981C226.68 661.042 226.793 661.088 226.924 661.12L227.171 661.189C227.363 661.238 227.528 661.314 227.667 661.415C227.805 661.517 227.874 661.67 227.874 661.875C227.874 662.011 227.839 662.134 227.768 662.244C227.697 662.352 227.594 662.438 227.457 662.501C227.321 662.564 227.16 662.595 226.972 662.595C226.796 662.595 226.642 662.567 226.511 662.51C226.38 662.451 226.278 662.371 226.204 662.268C226.129 662.164 226.087 662.043 226.077 661.906H226.392C226.4 661.995 226.431 662.071 226.485 662.132C226.539 662.194 226.608 662.24 226.693 662.271C226.778 662.301 226.872 662.315 226.972 662.314C227.086 662.314 227.189 662.296 227.279 662.259C227.371 662.223 227.442 662.171 227.494 662.103C227.546 662.035 227.572 661.956 227.572 661.868C227.572 661.792 227.551 661.728 227.507 661.676C227.465 661.625 227.409 661.583 227.339 661.551C227.269 661.519 227.184 661.489 227.082 661.46L226.777 661.378C226.573 661.318 226.416 661.236 226.307 661.131C226.198 661.025 226.144 660.892 226.145 660.729C226.145 660.592 226.183 660.471 226.257 660.366C226.331 660.259 226.434 660.178 226.564 660.121C226.694 660.062 226.839 660.033 227 660.033C227.157 660.033 227.299 660.062 227.425 660.119C227.552 660.176 227.652 660.255 227.725 660.355C227.798 660.455 227.837 660.567 227.84 660.692H227.538ZM229.198 660.067H230.07C230.238 660.067 230.379 660.096 230.493 660.155C230.609 660.212 230.694 660.29 230.75 660.39C230.808 660.489 230.836 660.601 230.835 660.726C230.836 660.873 230.799 660.989 230.725 661.072C230.65 661.155 230.552 661.213 230.43 661.247V661.271C230.511 661.276 230.59 661.303 230.666 661.354C230.744 661.404 230.808 661.475 230.859 661.568C230.909 661.66 230.934 661.768 230.934 661.892C230.933 662.02 230.903 662.134 230.843 662.233C230.785 662.332 230.693 662.41 230.569 662.467C230.445 662.523 230.289 662.551 230.1 662.551H229.198V660.067ZM230.097 662.276C230.281 662.276 230.417 662.241 230.505 662.17C230.593 662.099 230.637 662.005 230.636 661.889C230.637 661.804 230.616 661.726 230.572 661.656C230.529 661.585 230.467 661.528 230.387 661.486C230.308 661.443 230.217 661.422 230.114 661.422H229.507V662.276H230.097ZM230.059 661.155C230.148 661.155 230.23 661.138 230.303 661.103C230.376 661.068 230.434 661.018 230.476 660.954C230.518 660.889 230.54 660.814 230.54 660.729C230.54 660.655 230.522 660.589 230.488 660.53C230.454 660.472 230.401 660.426 230.33 660.393C230.261 660.359 230.174 660.342 230.07 660.342H229.507V661.155H230.059ZM233.472 661.309C233.472 661.566 233.425 661.792 233.332 661.985C233.238 662.177 233.108 662.325 232.941 662.429C232.775 662.533 232.586 662.585 232.375 662.585C232.162 662.585 231.972 662.533 231.805 662.429C231.639 662.325 231.51 662.177 231.416 661.985C231.323 661.792 231.277 661.566 231.277 661.309C231.277 661.052 231.323 660.827 231.416 660.635C231.51 660.442 231.639 660.293 231.805 660.189C231.972 660.085 232.162 660.033 232.375 660.033C232.586 660.033 232.775 660.085 232.941 660.189C233.108 660.293 233.238 660.442 233.332 660.635C233.425 660.827 233.472 661.052 233.472 661.309ZM231.575 661.309C231.575 661.516 231.61 661.694 231.68 661.842C231.75 661.991 231.845 662.104 231.965 662.18C232.086 662.257 232.223 662.296 232.375 662.297C232.527 662.296 232.663 662.257 232.783 662.18C232.904 662.104 233 661.991 233.069 661.842C233.139 661.694 233.174 661.516 233.174 661.309C233.174 661.101 233.139 660.923 233.069 660.774C233 660.625 232.904 660.513 232.783 660.436C232.663 660.359 232.527 660.321 232.375 660.321C232.223 660.321 232.086 660.359 231.965 660.436C231.845 660.513 231.75 660.625 231.68 660.774C231.61 660.923 231.575 661.101 231.575 661.309ZM236.024 661.309C236.024 661.566 235.977 661.792 235.884 661.985C235.79 662.177 235.66 662.325 235.493 662.429C235.327 662.533 235.138 662.585 234.927 662.585C234.714 662.585 234.524 662.533 234.357 662.429C234.192 662.325 234.062 662.177 233.968 661.985C233.875 661.792 233.829 661.566 233.829 661.309C233.829 661.052 233.875 660.827 233.968 660.635C234.062 660.442 234.192 660.293 234.357 660.189C234.524 660.085 234.714 660.033 234.927 660.033C235.138 660.033 235.327 660.085 235.493 660.189C235.66 660.293 235.79 660.442 235.884 660.635C235.977 660.827 236.024 661.052 236.024 661.309ZM234.127 661.309C234.127 661.516 234.162 661.694 234.232 661.842C234.302 661.991 234.397 662.104 234.517 662.18C234.638 662.257 234.775 662.296 234.927 662.297C235.079 662.296 235.215 662.257 235.335 662.18C235.456 662.104 235.552 661.991 235.621 661.842C235.691 661.694 235.726 661.516 235.726 661.309C235.726 661.101 235.691 660.923 235.621 660.774C235.552 660.625 235.456 660.513 235.335 660.436C235.215 660.359 235.079 660.321 234.927 660.321C234.775 660.321 234.638 660.359 234.517 660.436C234.397 660.513 234.302 660.625 234.232 660.774C234.162 660.923 234.127 661.101 234.127 661.309ZM236.477 660.067H236.786V661.295H236.817L237.921 660.067H238.326L237.287 661.189L238.326 662.551H237.949L237.095 661.402L236.786 661.752V662.551H236.477V660.067ZM240.01 660.692C240.002 660.612 239.974 660.543 239.924 660.486C239.875 660.428 239.811 660.383 239.731 660.354C239.651 660.323 239.561 660.307 239.461 660.307C239.354 660.307 239.259 660.325 239.177 660.361C239.094 660.395 239.03 660.443 238.985 660.505C238.939 660.566 238.916 660.637 238.916 660.716C238.917 660.831 238.965 660.92 239.058 660.981C239.152 661.042 239.265 661.088 239.396 661.12L239.643 661.189C239.835 661.238 240.001 661.314 240.139 661.415C240.277 661.517 240.346 661.67 240.346 661.875C240.346 662.011 240.311 662.134 240.24 662.244C240.169 662.352 240.066 662.438 239.93 662.501C239.794 662.564 239.632 662.595 239.444 662.595C239.268 662.595 239.114 662.567 238.983 662.51C238.853 662.451 238.75 662.371 238.676 662.268C238.602 662.164 238.559 662.043 238.549 661.906H238.865C238.873 661.995 238.903 662.071 238.957 662.132C239.011 662.194 239.08 662.24 239.165 662.271C239.25 662.301 239.344 662.315 239.444 662.314C239.559 662.314 239.661 662.296 239.751 662.259C239.843 662.223 239.914 662.171 239.966 662.103C240.018 662.035 240.045 661.956 240.045 661.868C240.045 661.792 240.023 661.728 239.979 661.676C239.937 661.625 239.881 661.583 239.811 661.551C239.742 661.519 239.656 661.489 239.554 661.46L239.249 661.378C239.045 661.318 238.889 661.236 238.779 661.131C238.67 661.025 238.616 660.892 238.618 660.729C238.618 660.592 238.655 660.471 238.729 660.366C238.803 660.259 238.906 660.178 239.036 660.121C239.166 660.062 239.312 660.033 239.472 660.033C239.629 660.033 239.771 660.062 239.897 660.119C240.024 660.176 240.124 660.255 240.197 660.355C240.27 660.455 240.309 660.567 240.312 660.692H240.01Z" fill="#ADB5BD"/>
<path d="M291.66 632.288H289.553V631.585C289.553 631.399 289.478 631.22 289.347 631.089C289.215 630.957 289.036 630.883 288.85 630.883H281.825C281.639 630.883 281.46 630.957 281.328 631.089C281.197 631.22 281.123 631.399 281.123 631.585V632.288H279.015C278.829 632.288 278.65 632.362 278.518 632.494C278.387 632.625 278.312 632.804 278.312 632.99V635.098C278.312 635.843 278.609 636.558 279.136 637.085C279.663 637.612 280.377 637.908 281.123 637.908H282.204C282.84 638.617 283.697 639.09 284.635 639.25V640.718H283.933C283.374 640.718 282.838 640.94 282.442 641.335C282.047 641.73 281.825 642.266 281.825 642.825V644.23C281.825 644.417 281.899 644.595 282.031 644.727C282.163 644.859 282.341 644.933 282.528 644.933H288.148C288.334 644.933 288.513 644.859 288.644 644.727C288.776 644.595 288.85 644.417 288.85 644.23V642.825C288.85 642.266 288.628 641.73 288.233 641.335C287.838 640.94 287.301 640.718 286.743 640.718H286.04V639.25C286.979 639.09 287.835 638.617 288.471 637.908H289.553C290.298 637.908 291.013 637.612 291.539 637.085C292.066 636.558 292.363 635.843 292.363 635.098V632.99C292.363 632.804 292.288 632.625 292.157 632.494C292.025 632.362 291.846 632.288 291.66 632.288V632.288ZM281.123 636.503C280.75 636.503 280.393 636.355 280.129 636.091C279.866 635.828 279.718 635.47 279.718 635.098V633.693H281.123V635.098C281.124 635.577 281.207 636.052 281.368 636.503H281.123ZM286.743 642.123C286.929 642.123 287.108 642.197 287.239 642.329C287.371 642.46 287.445 642.639 287.445 642.825V643.528H283.23V642.825C283.23 642.639 283.304 642.46 283.436 642.329C283.568 642.197 283.746 642.123 283.933 642.123H286.743ZM288.148 635.098C288.148 635.843 287.851 636.558 287.324 637.085C286.797 637.612 286.083 637.908 285.338 637.908C284.592 637.908 283.878 637.612 283.351 637.085C282.824 636.558 282.528 635.843 282.528 635.098V632.288H288.148V635.098ZM290.958 635.098C290.958 635.47 290.809 635.828 290.546 636.091C290.283 636.355 289.925 636.503 289.553 636.503H289.307C289.468 636.052 289.551 635.577 289.553 635.098V633.693H290.958V635.098Z" fill="#ADB5BD"/>
<path d="M274.692 656.087H274.005V652.593H273.13V655.74H272.473V649.461H273.13V652.004H274.005V649.325H274.692V656.087ZM269.115 650.14H271.651V650.721H269.832V653.853C270.272 653.851 270.658 653.837 270.99 653.812C271.325 653.786 271.666 653.74 272.013 653.672L272.066 654.261C271.688 654.339 271.316 654.391 270.949 654.419C270.584 654.444 270.124 654.459 269.568 654.464H269.115V650.14ZM281.725 652.827H279.001V653.393H280.955V654.917H277.016V655.475H281.144V656.019H276.314V654.419H280.246V653.913H276.307V653.393H278.291V652.827H275.575V652.291H281.725V652.827ZM275.877 651.483C276.307 651.461 276.69 651.403 277.027 651.31C277.364 651.217 277.637 651.096 277.846 650.948C278.055 650.799 278.183 650.631 278.231 650.442H276.186V649.891H278.291V649.295H279.001V649.891H281.114V650.442H279.057C279.105 650.631 279.232 650.799 279.438 650.948C279.647 651.096 279.921 651.217 280.261 651.31C280.603 651.403 280.99 651.461 281.423 651.483L281.204 652.027C280.601 651.982 280.075 651.872 279.627 651.699C279.179 651.525 278.852 651.294 278.646 651.004C278.44 651.294 278.112 651.525 277.661 651.699C277.214 651.872 276.687 651.982 276.08 652.027L275.877 651.483ZM283.151 651.597H284.449V649.974H285.106V651.861H286.004V649.461H286.691V655.762H286.004V652.457H285.106V654.419H282.472V649.974H283.151V651.597ZM284.449 653.823V652.178H283.151V653.823H284.449ZM287.377 649.325H288.064V656.087H287.377V649.325ZM292.358 650.284C292.358 650.641 292.472 650.988 292.701 651.325C292.93 651.662 293.234 651.95 293.614 652.189C293.997 652.425 294.403 652.583 294.833 652.661L294.501 653.257C294.139 653.179 293.793 653.051 293.463 652.872C293.134 652.693 292.841 652.476 292.584 652.219C292.33 651.96 292.131 651.675 291.988 651.363C291.842 651.672 291.641 651.956 291.384 652.215C291.128 652.472 290.835 652.69 290.505 652.868C290.176 653.047 289.83 653.176 289.468 653.257L289.151 652.661C289.576 652.58 289.976 652.422 290.351 652.185C290.728 651.946 291.031 651.66 291.26 651.325C291.489 650.988 291.603 650.641 291.603 650.284V649.77H292.358V650.284ZM288.924 654.6H295.112V655.196H288.924V654.6ZM301.089 653.498H296.38V649.884H301.021V650.465H297.105V651.378H300.878V651.944H297.105V652.925H301.089V653.498ZM295.603 654.645H301.791V655.234H295.603V654.645Z" fill="#ADB5BD"/>
<path d="M269.451 660.067H270.322C270.49 660.067 270.631 660.096 270.746 660.155C270.861 660.212 270.947 660.29 271.003 660.39C271.06 660.489 271.088 660.601 271.087 660.726C271.088 660.873 271.052 660.989 270.977 661.072C270.903 661.155 270.805 661.213 270.682 661.247V661.271C270.763 661.276 270.842 661.303 270.919 661.354C270.997 661.404 271.061 661.475 271.111 661.568C271.161 661.66 271.186 661.768 271.186 661.892C271.185 662.02 271.155 662.134 271.096 662.233C271.037 662.332 270.946 662.41 270.821 662.467C270.698 662.523 270.542 662.551 270.353 662.551H269.451V660.067ZM270.349 662.276C270.534 662.276 270.67 662.241 270.758 662.17C270.846 662.099 270.889 662.005 270.888 661.889C270.889 661.804 270.868 661.726 270.825 661.656C270.781 661.585 270.719 661.528 270.639 661.486C270.56 661.443 270.47 661.422 270.367 661.422H269.759V662.276H270.349ZM270.312 661.155C270.401 661.155 270.482 661.138 270.555 661.103C270.628 661.068 270.686 661.018 270.729 660.954C270.771 660.889 270.792 660.814 270.792 660.729C270.792 660.655 270.775 660.589 270.741 660.53C270.706 660.472 270.654 660.426 270.583 660.393C270.513 660.359 270.426 660.342 270.322 660.342H269.759V661.155H270.312ZM271.626 660.067H273.131V660.342H271.934V661.172H273.052V661.443H271.934V662.276H273.149V662.551H271.626V660.067ZM274.973 660.692C274.965 660.612 274.937 660.543 274.888 660.486C274.838 660.428 274.774 660.383 274.694 660.354C274.614 660.323 274.524 660.307 274.425 660.307C274.317 660.307 274.222 660.325 274.14 660.361C274.058 660.395 273.993 660.443 273.948 660.505C273.902 660.566 273.879 660.637 273.879 660.716C273.88 660.831 273.928 660.92 274.021 660.981C274.115 661.042 274.228 661.088 274.359 661.12L274.606 661.189C274.798 661.238 274.964 661.314 275.102 661.415C275.24 661.517 275.31 661.67 275.31 661.875C275.31 662.011 275.274 662.134 275.203 662.244C275.132 662.352 275.029 662.438 274.893 662.501C274.757 662.564 274.595 662.595 274.407 662.595C274.231 662.595 274.078 662.567 273.946 662.51C273.816 662.451 273.713 662.371 273.639 662.268C273.565 662.164 273.522 662.043 273.512 661.906H273.828C273.836 661.995 273.867 662.071 273.92 662.132C273.974 662.194 274.043 662.24 274.128 662.271C274.214 662.301 274.307 662.315 274.407 662.314C274.522 662.314 274.624 662.296 274.714 662.259C274.806 662.223 274.877 662.171 274.929 662.103C274.981 662.035 275.008 661.956 275.008 661.868C275.008 661.792 274.986 661.728 274.942 661.676C274.9 661.625 274.844 661.583 274.774 661.551C274.705 661.519 274.619 661.489 274.517 661.46L274.212 661.378C274.008 661.318 273.852 661.236 273.742 661.131C273.633 661.025 273.58 660.892 273.581 660.729C273.581 660.592 273.618 660.471 273.692 660.366C273.767 660.259 273.869 660.178 273.999 660.121C274.13 660.062 274.275 660.033 274.435 660.033C274.593 660.033 274.734 660.062 274.86 660.119C274.987 660.176 275.087 660.255 275.16 660.355C275.233 660.455 275.272 660.567 275.275 660.692H274.973ZM275.615 660.067H277.488V660.342H276.709V662.551H276.397V660.342H275.615V660.067ZM278.781 660.067H279.625C279.813 660.067 279.971 660.1 280.096 660.165C280.223 660.229 280.318 660.319 280.379 660.434C280.441 660.549 280.472 660.681 280.472 660.832C280.472 661.001 280.433 661.147 280.355 661.268C280.279 661.388 280.163 661.475 280.009 661.529L280.568 662.551H280.208L279.688 661.585C279.676 661.586 279.656 661.587 279.628 661.587H279.09V662.551H278.781V660.067ZM279.614 661.306C279.806 661.306 279.946 661.265 280.033 661.184C280.121 661.103 280.166 660.985 280.167 660.832C280.164 660.505 279.979 660.342 279.611 660.342H279.09V661.306H279.614ZM280.918 660.067H282.424V660.342H281.227V661.172H282.345V661.443H281.227V662.276H282.441V662.551H280.918V660.067ZM284.883 662.551H284.588L283.244 660.616H283.22V662.551H282.911V660.067H283.209L284.554 662.005H284.578V660.067H284.883V662.551ZM285.295 660.067H287.168V660.342H286.389V662.551H286.077V660.342H285.295V660.067ZM287.075 662.551L287.984 660.067H288.31L289.219 662.551H288.893L288.644 661.851H287.646L287.397 662.551H287.075ZM288.55 661.58L288.156 660.469H288.135L287.74 661.58H288.55ZM289.555 660.067H289.864V662.276H291.016V662.551H289.555V660.067ZM292.309 660.067H293.181C293.349 660.067 293.49 660.096 293.604 660.155C293.72 660.212 293.806 660.29 293.862 660.39C293.919 660.489 293.947 660.601 293.946 660.726C293.947 660.873 293.91 660.989 293.836 661.072C293.762 661.155 293.663 661.213 293.541 661.247V661.271C293.622 661.276 293.701 661.303 293.778 661.354C293.855 661.404 293.919 661.475 293.97 661.568C294.02 661.66 294.045 661.768 294.045 661.892C294.044 662.02 294.014 662.134 293.954 662.233C293.896 662.332 293.804 662.41 293.68 662.467C293.556 662.523 293.4 662.551 293.212 662.551H292.309V660.067ZM293.208 662.276C293.392 662.276 293.528 662.241 293.616 662.17C293.704 662.099 293.748 662.005 293.747 661.889C293.748 661.804 293.727 661.726 293.683 661.656C293.64 661.585 293.578 661.528 293.498 661.486C293.419 661.443 293.328 661.422 293.225 661.422H292.618V662.276H293.208ZM293.17 661.155C293.26 661.155 293.341 661.138 293.414 661.103C293.487 661.068 293.545 661.018 293.587 660.954C293.63 660.889 293.651 660.814 293.651 660.729C293.651 660.655 293.634 660.589 293.599 660.53C293.565 660.472 293.512 660.426 293.441 660.393C293.372 660.359 293.285 660.342 293.181 660.342H292.618V661.155H293.17ZM296.583 661.309C296.583 661.566 296.537 661.792 296.443 661.985C296.349 662.177 296.219 662.325 296.052 662.429C295.886 662.533 295.697 662.585 295.486 662.585C295.273 662.585 295.083 662.533 294.916 662.429C294.751 662.325 294.621 662.177 294.527 661.985C294.434 661.792 294.388 661.566 294.388 661.309C294.388 661.052 294.434 660.827 294.527 660.635C294.621 660.442 294.751 660.293 294.916 660.189C295.083 660.085 295.273 660.033 295.486 660.033C295.697 660.033 295.886 660.085 296.052 660.189C296.219 660.293 296.349 660.442 296.443 660.635C296.537 660.827 296.583 661.052 296.583 661.309ZM294.687 661.309C294.687 661.516 294.721 661.694 294.791 661.842C294.861 661.991 294.956 662.104 295.076 662.18C295.197 662.257 295.334 662.296 295.486 662.297C295.638 662.296 295.774 662.257 295.894 662.18C296.015 662.104 296.111 661.991 296.18 661.842C296.25 661.694 296.285 661.516 296.285 661.309C296.285 661.101 296.25 660.923 296.18 660.774C296.111 660.625 296.015 660.513 295.894 660.436C295.774 660.359 295.638 660.321 295.486 660.321C295.334 660.321 295.197 660.359 295.076 660.436C294.956 660.513 294.861 660.625 294.791 660.774C294.721 660.923 294.687 661.101 294.687 661.309ZM299.136 661.309C299.136 661.566 299.089 661.792 298.995 661.985C298.901 662.177 298.771 662.325 298.604 662.429C298.438 662.533 298.249 662.585 298.038 662.585C297.825 662.585 297.635 662.533 297.468 662.429C297.303 662.325 297.173 662.177 297.079 661.985C296.987 661.792 296.94 661.566 296.94 661.309C296.94 661.052 296.987 660.827 297.079 660.635C297.173 660.442 297.303 660.293 297.468 660.189C297.635 660.085 297.825 660.033 298.038 660.033C298.249 660.033 298.438 660.085 298.604 660.189C298.771 660.293 298.901 660.442 298.995 660.635C299.089 660.827 299.136 661.052 299.136 661.309ZM297.239 661.309C297.239 661.516 297.274 661.694 297.343 661.842C297.413 661.991 297.508 662.104 297.628 662.18C297.749 662.257 297.886 662.296 298.038 662.297C298.19 662.296 298.326 662.257 298.446 662.18C298.567 662.104 298.663 661.991 298.732 661.842C298.802 661.694 298.837 661.516 298.837 661.309C298.837 661.101 298.802 660.923 298.732 660.774C298.663 660.625 298.567 660.513 298.446 660.436C298.326 660.359 298.19 660.321 298.038 660.321C297.886 660.321 297.749 660.359 297.628 660.436C297.508 660.513 297.413 660.625 297.343 660.774C297.274 660.923 297.239 661.101 297.239 661.309ZM299.588 660.067H299.897V661.295H299.928L301.032 660.067H301.437L300.398 661.189L301.437 662.551H301.06L300.206 661.402L299.897 661.752V662.551H299.588V660.067Z" fill="#ADB5BD"/>
<g clip-path="url(#clip4_3140_8125)">
<path d="M346.457 637.906C347.812 637.906 348.915 636.803 348.915 635.447C348.915 634.091 347.812 632.988 346.457 632.988C345.101 632.988 343.998 634.091 343.998 635.447C343.998 636.803 345.101 637.906 346.457 637.906ZM346.457 634.393C347.04 634.393 347.51 634.864 347.51 635.447C347.51 636.03 347.04 636.501 346.457 636.501C345.873 636.501 345.403 636.03 345.403 635.447C345.403 634.864 345.873 634.393 346.457 634.393ZM346.492 641.418H343.485C344.18 641.067 345.382 640.716 346.457 640.716C346.534 640.716 346.618 640.723 346.695 640.723C346.934 640.21 347.349 639.788 347.848 639.451C347.335 639.36 346.85 639.311 346.457 639.311C344.813 639.311 341.539 640.133 341.539 641.77V642.823H346.457V641.77C346.457 641.65 346.471 641.531 346.492 641.418ZM351.725 639.662C350.433 639.662 347.862 640.372 347.862 641.77V642.823H355.589V641.77C355.589 640.372 353.018 639.662 351.725 639.662ZM352.575 638.383C353.109 638.081 353.482 637.512 353.482 636.852C353.482 635.883 352.695 635.096 351.725 635.096C350.756 635.096 349.969 635.883 349.969 636.852C349.969 637.512 350.341 638.081 350.875 638.383C351.128 638.524 351.416 638.608 351.725 638.608C352.034 638.608 352.322 638.524 352.575 638.383Z" fill="#ADB5BD"/>
</g>
<path d="M340.767 651.031H341.748V651.612H340.767V653.34H340.05V649.325H340.767V651.031ZM335.447 652.812C335.973 652.663 336.428 652.47 336.813 652.231C337.2 651.992 337.506 651.716 337.73 651.404C337.956 651.092 338.091 650.754 338.133 650.389H335.749V649.808H338.911C338.911 650.384 338.785 650.907 338.533 651.378C338.282 651.848 337.918 652.254 337.443 652.597C336.97 652.936 336.403 653.202 335.741 653.393L335.447 652.812ZM336.368 654.743C336.365 654.472 336.456 654.237 336.639 654.038C336.825 653.837 337.087 653.683 337.424 653.578C337.764 653.469 338.159 653.415 338.609 653.415C339.059 653.415 339.453 653.469 339.79 653.578C340.127 653.683 340.386 653.837 340.567 654.038C340.751 654.237 340.843 654.472 340.843 654.743C340.843 655.018 340.751 655.254 340.567 655.453C340.386 655.654 340.127 655.809 339.79 655.917C339.455 656.025 339.062 656.079 338.609 656.079C338.159 656.079 337.764 656.025 337.424 655.917C337.084 655.809 336.823 655.654 336.639 655.453C336.456 655.254 336.365 655.018 336.368 654.743ZM337.077 654.743C337.077 654.899 337.139 655.035 337.262 655.151C337.385 655.267 337.561 655.356 337.79 655.419C338.021 655.482 338.294 655.513 338.609 655.513C338.921 655.513 339.191 655.482 339.42 655.419C339.651 655.356 339.829 655.267 339.952 655.151C340.078 655.035 340.141 654.899 340.141 654.743C340.141 654.588 340.079 654.453 339.956 654.34C339.833 654.224 339.656 654.136 339.428 654.076C339.201 654.013 338.935 653.981 338.628 653.981C338.308 653.981 338.032 654.011 337.798 654.072C337.566 654.132 337.388 654.22 337.262 654.336C337.139 654.449 337.077 654.585 337.077 654.743ZM344.555 650.525C344.555 650.799 344.622 651.061 344.755 651.31C344.889 651.556 345.079 651.775 345.325 651.966C345.574 652.155 345.866 652.298 346.2 652.397L345.861 652.963C345.474 652.844 345.138 652.667 344.853 652.431C344.572 652.194 344.355 651.914 344.204 651.589C344.054 651.941 343.831 652.246 343.537 652.502C343.245 652.759 342.9 652.95 342.503 653.076L342.141 652.517C342.485 652.412 342.784 652.259 343.039 652.061C343.293 651.86 343.488 651.627 343.623 651.363C343.762 651.099 343.831 650.819 343.831 650.525V650.518H342.359V649.921H346.027V650.518H344.555V650.525ZM342.522 654.117C343.095 654.117 343.534 654.112 343.838 654.102V652.797H344.555V654.079C345.224 654.044 345.801 653.994 346.283 653.928L346.336 654.449C345.904 654.527 345.453 654.586 344.986 654.627C344.518 654.664 344.082 654.688 343.68 654.698C343.28 654.706 342.81 654.711 342.269 654.713H342.156L342.05 654.117H342.522ZM346.691 649.325H347.408V652.087H348.449V652.691H347.408V656.087H346.691V649.325ZM354.124 651.34H355.105V651.944H354.124V654.291H353.407V649.318H354.124V651.34ZM348.917 651.468C348.915 651.146 348.991 650.858 349.147 650.604C349.306 650.348 349.522 650.148 349.796 650.004C350.071 649.858 350.376 649.786 350.713 649.786C351.05 649.786 351.356 649.858 351.63 650.004C351.904 650.148 352.119 650.348 352.275 650.604C352.434 650.858 352.514 651.146 352.517 651.468C352.514 651.79 352.434 652.08 352.275 652.336C352.119 652.593 351.904 652.793 351.63 652.936C351.356 653.08 351.05 653.151 350.713 653.151C350.376 653.151 350.071 653.08 349.796 652.936C349.522 652.793 349.306 652.593 349.147 652.336C348.991 652.08 348.915 651.79 348.917 651.468ZM349.619 651.468C349.616 651.675 349.663 651.858 349.759 652.019C349.854 652.178 349.985 652.302 350.151 652.393C350.32 652.481 350.507 652.525 350.713 652.525C350.919 652.525 351.106 652.481 351.272 652.393C351.44 652.302 351.572 652.178 351.668 652.019C351.766 651.858 351.815 651.675 351.815 651.468C351.815 651.262 351.766 651.08 351.668 650.921C351.572 650.76 351.44 650.636 351.272 650.548C351.106 650.457 350.919 650.412 350.713 650.412C350.507 650.412 350.32 650.457 350.151 650.548C349.985 650.636 349.854 650.76 349.759 650.921C349.663 651.08 349.616 651.262 349.619 651.468ZM349.838 653.77H350.555V655.362H354.411V655.943H349.838V653.77ZM361.278 656.087H360.591V652.623H359.724V655.74H359.052V649.461H359.724V652.034H360.591V649.325H361.278V656.087ZM355.807 650.125H356.524V653.736C357.246 653.729 357.938 653.659 358.599 653.529L358.675 654.155C358.234 654.233 357.817 654.288 357.422 654.321C357.027 654.354 356.635 654.369 356.245 654.366H355.807V650.125Z" fill="#ADB5BD"/>
<path d="M341.846 660.849C341.823 660.739 341.778 660.644 341.711 660.565C341.643 660.485 341.561 660.424 341.464 660.383C341.368 660.342 341.264 660.321 341.153 660.321C341.001 660.321 340.865 660.359 340.743 660.436C340.623 660.513 340.528 660.625 340.459 660.774C340.389 660.923 340.354 661.101 340.354 661.309C340.354 661.516 340.389 661.694 340.459 661.842C340.528 661.991 340.623 662.104 340.743 662.18C340.865 662.257 341.001 662.296 341.153 662.297C341.264 662.296 341.368 662.275 341.464 662.235C341.56 662.194 341.642 662.134 341.709 662.055C341.776 661.976 341.822 661.882 341.846 661.772H342.155C342.125 661.938 342.063 662.083 341.97 662.206C341.876 662.328 341.758 662.422 341.616 662.487C341.476 662.552 341.321 662.585 341.153 662.585C340.941 662.585 340.751 662.533 340.584 662.429C340.418 662.325 340.288 662.177 340.195 661.985C340.102 661.792 340.056 661.566 340.056 661.309C340.056 661.052 340.102 660.827 340.195 660.635C340.288 660.442 340.418 660.293 340.584 660.189C340.751 660.085 340.941 660.033 341.153 660.033C341.321 660.033 341.476 660.066 341.616 660.131C341.757 660.195 341.874 660.289 341.968 660.412C342.063 660.534 342.125 660.68 342.155 660.849H341.846ZM344.522 660.067V661.71C344.522 661.88 344.482 662.032 344.402 662.167C344.322 662.3 344.208 662.406 344.062 662.482C343.916 662.558 343.747 662.595 343.554 662.595C343.362 662.595 343.193 662.558 343.047 662.482C342.9 662.406 342.787 662.3 342.707 662.167C342.627 662.032 342.587 661.88 342.587 661.71V660.067H342.896V661.686C342.896 661.806 342.922 661.913 342.975 662.007C343.027 662.101 343.103 662.175 343.203 662.228C343.303 662.281 343.421 662.307 343.554 662.307C343.688 662.307 343.805 662.281 343.904 662.228C344.004 662.175 344.08 662.101 344.132 662.007C344.185 661.913 344.212 661.806 344.213 661.686V660.067H344.522ZM345.071 660.067H345.379V662.276H346.532V662.551H345.071V660.067ZM346.477 660.067H348.35V660.342H347.571V662.551H347.259V660.342H346.477V660.067ZM350.696 660.067V661.71C350.696 661.88 350.656 662.032 350.576 662.167C350.496 662.3 350.383 662.406 350.236 662.482C350.09 662.558 349.921 662.595 349.729 662.595C349.537 662.595 349.367 662.558 349.221 662.482C349.075 662.406 348.962 662.3 348.882 662.167C348.801 662.032 348.761 661.88 348.761 661.71V660.067H349.07V661.686C349.07 661.806 349.096 661.913 349.149 662.007C349.202 662.101 349.278 662.175 349.377 662.228C349.478 662.281 349.595 662.307 349.729 662.307C349.863 662.307 349.979 662.281 350.079 662.228C350.178 662.175 350.254 662.101 350.307 662.007C350.359 661.913 350.386 661.806 350.387 661.686V660.067H350.696ZM351.245 660.067H352.089C352.277 660.067 352.435 660.1 352.56 660.165C352.687 660.229 352.782 660.319 352.843 660.434C352.905 660.549 352.936 660.681 352.936 660.832C352.936 661.001 352.897 661.147 352.819 661.268C352.743 661.388 352.627 661.475 352.473 661.529L353.032 662.551H352.672L352.152 661.585C352.14 661.586 352.12 661.587 352.092 661.587H351.554V662.551H351.245V660.067ZM352.078 661.306C352.271 661.306 352.41 661.265 352.497 661.184C352.585 661.103 352.63 660.985 352.631 660.832C352.628 660.505 352.443 660.342 352.075 660.342H351.554V661.306H352.078ZM353.169 662.551L354.078 660.067H354.404L355.313 662.551H354.987L354.739 661.851H353.74L353.492 662.551H353.169ZM354.644 661.58L354.25 660.469H354.229L353.835 661.58H354.644ZM355.649 660.067H355.958V662.276H357.111V662.551H355.649V660.067Z" fill="#ADB5BD"/>
</g>
</g>
<defs>
<filter id="filter0_b_3140_8125" x="-0.932032" y="-1.54141" width="382.864" height="677.915" filterUnits="userSpaceOnUse" color-interpolation-filters="sRGB">
<feFlood flood-opacity="0" result="BackgroundImageFix"/>
<feGaussianBlur in="BackgroundImageFix" stdDeviation="0.878126"/>
<feComposite in2="SourceAlpha" operator="in" result="effect1_backgroundBlur_3140_8125"/>
<feBlend mode="normal" in="SourceGraphic" in2="effect1_backgroundBlur_3140_8125" result="shape"/>
</filter>
<filter id="filter1_d_3140_8125" x="-9.71329" y="314.582" width="396.914" height="368.813" filterUnits="userSpaceOnUse" color-interpolation-filters="sRGB">
<feFlood flood-opacity="0" result="BackgroundImageFix"/>
<feColorMatrix in="SourceAlpha" type="matrix" values="0 0 0 0 0 0 0 0 0 0 0 0 0 0 0 0 0 0 127 0" result="hardAlpha"/>
<feOffset dx="-1.75625"/>
<feGaussianBlur stdDeviation="4.39063"/>
<feComposite in2="hardAlpha" operator="out"/>
<feColorMatrix type="matrix" values="0 0 0 0 0 0 0 0 0 0 0 0 0 0 0 0 0 0 0.2 0"/>
<feBlend mode="multiply" in2="BackgroundImageFix" result="effect1_dropShadow_3140_8125"/>
<feBlend mode="normal" in="SourceGraphic" in2="effect1_dropShadow_3140_8125" result="shape"/>
</filter>
<filter id="filter2_d_3140_8125" x="-6.20079" y="611.038" width="393.402" height="70.2492" filterUnits="userSpaceOnUse" color-interpolation-filters="sRGB">
<feFlood flood-opacity="0" result="BackgroundImageFix"/>
<feColorMatrix in="SourceAlpha" type="matrix" values="0 0 0 0 0 0 0 0 0 0 0 0 0 0 0 0 0 0 127 0" result="hardAlpha"/>
<feOffset dy="-0.35125"/>
<feGaussianBlur stdDeviation="3.5125"/>
<feComposite in2="hardAlpha" operator="out"/>
<feColorMatrix type="matrix" values="0 0 0 0 0 0 0 0 0 0 0 0 0 0 0 0 0 0 0.1 0"/>
<feBlend mode="normal" in2="BackgroundImageFix" result="effect1_dropShadow_3140_8125"/>
<feBlend mode="normal" in="SourceGraphic" in2="effect1_dropShadow_3140_8125" result="shape"/>
</filter>
<linearGradient id="paint0_linear_3140_8125" x1="166.965" y1="0.214842" x2="239.499" y2="309.579" gradientUnits="userSpaceOnUse">
<stop stop-color="#3970B0"/>
<stop offset="0.884091" stop-color="#364063"/>
</linearGradient>
<clipPath id="clip0_3140_8125">
<rect width="379.35" height="674.401" fill="white" transform="translate(0.824219 0.214844)"/>
</clipPath>
<clipPath id="clip1_3140_8125">
<rect width="16.86" height="16.86" fill="white" transform="translate(24.0078 629.477)"/>
</clipPath>
<clipPath id="clip2_3140_8125">
<rect width="16.86" height="16.86" fill="white" transform="translate(87.2344 629.477)"/>
</clipPath>
<clipPath id="clip3_3140_8125">
<rect width="16.86" height="16.86" fill="white" transform="translate(150.457 627.02)"/>
</clipPath>
<clipPath id="clip4_3140_8125">
<rect width="16.86" height="16.86" fill="white" transform="translate(340.133 629.477)"/>
</clipPath>
</defs>
</svg>
