<svg width="380" height="675" viewBox="0 0 380 675" fill="none" xmlns="http://www.w3.org/2000/svg">
<g clip-path="url(#clip0_3140_8592)">
<rect width="379.35" height="674.401" transform="translate(0.0234375 0.214844)" fill="#F5F0EE"/>
<rect x="0.0234375" y="0.214844" width="189.675" height="158.063" fill="url(#paint0_linear_3140_8592)"/>
<g filter="url(#filter0_d_3140_8592)">
<rect width="379.35" height="56.2001" transform="translate(0.0234375 618.414)" fill="white"/>
<g clip-path="url(#clip1_3140_8592)">
<path d="M31.6356 644.933C32.4084 644.933 33.0406 644.301 33.0406 643.528H30.2306C30.2306 644.301 30.8629 644.933 31.6356 644.933ZM35.8506 640.718V637.206C35.8506 635.049 34.7055 633.244 32.6894 632.766V632.288C32.6894 631.705 32.2187 631.234 31.6356 631.234C31.0525 631.234 30.5819 631.705 30.5819 632.288V632.766C28.5727 633.244 27.4206 635.042 27.4206 637.206V640.718L26.0156 642.123V642.826H37.2556V642.123L35.8506 640.718ZM34.4456 641.421H28.8256V637.206C28.8256 635.463 29.8864 634.044 31.6356 634.044C33.3848 634.044 34.4456 635.463 34.4456 637.206V641.421Z" fill="#ADB5BD"/>
</g>
<path d="M21.5774 653.559C22.0704 653.559 22.498 653.61 22.8603 653.713C23.225 653.814 23.5055 653.961 23.7017 654.155C23.9004 654.346 23.9998 654.575 23.9998 654.842C23.9998 655.103 23.9004 655.328 23.7017 655.517C23.5055 655.708 23.225 655.854 22.8603 655.955C22.498 656.058 22.0704 656.109 21.5774 656.109C21.0894 656.109 20.663 656.058 20.2983 655.955C19.936 655.854 19.6556 655.708 19.4568 655.517C19.2606 655.328 19.1625 655.103 19.1625 654.842C19.1625 654.575 19.2606 654.346 19.4568 654.155C19.6556 653.961 19.936 653.814 20.2983 653.713C20.663 653.61 21.0894 653.559 21.5774 653.559ZM18.5211 652.389H20.9208V651.151H21.7509V652.389H24.7091V653.068H18.5211V652.389ZM19.2305 649.619H23.9545V650.185V650.385C23.9545 650.68 23.9419 650.953 23.9168 651.204C23.8941 651.456 23.8438 651.72 23.7658 651.997L22.9357 651.921C23.0112 651.624 23.0602 651.354 23.0829 651.11C23.1055 650.866 23.1168 650.59 23.1168 650.284H19.2305V649.619ZM20.0077 654.842C20.0052 655.04 20.141 655.194 20.4152 655.302C20.6919 655.408 21.0793 655.46 21.5774 655.46C22.0754 655.46 22.4641 655.408 22.7433 655.302C23.025 655.194 23.1672 655.04 23.1697 654.842C23.1672 654.635 23.025 654.476 22.7433 654.362C22.4641 654.249 22.0754 654.193 21.5774 654.193C21.0818 654.193 20.6957 654.249 20.419 654.362C20.1423 654.476 20.0052 654.635 20.0077 654.842ZM27.7579 651.234C27.7579 651.609 27.8283 651.98 27.9692 652.348C28.1126 652.712 28.3163 653.041 28.5804 653.332C28.8471 653.622 29.159 653.84 29.5162 653.989L29.0559 654.653C28.6609 654.482 28.3176 654.229 28.0258 653.895C27.734 653.557 27.5076 653.166 27.3466 652.721C27.1856 653.199 26.958 653.622 26.6636 653.989C26.3693 654.356 26.0272 654.633 25.6373 654.819L25.1544 654.162C25.504 654.001 25.8109 653.765 26.075 653.453C26.3392 653.141 26.5429 652.79 26.6863 652.4C26.8297 652.01 26.9026 651.622 26.9051 651.234V650.661H25.4034V649.967H29.2521V650.661H27.7579V651.234ZM30.0142 649.295H30.8594V656.117H30.0142V649.295ZM34.3006 650.933C34.2981 651.343 34.3622 651.743 34.493 652.132C34.6263 652.522 34.8175 652.872 35.0666 653.181C35.3181 653.488 35.6162 653.725 35.9608 653.891L35.4476 654.562C35.0854 654.379 34.771 654.117 34.5043 653.778C34.2402 653.438 34.034 653.046 33.8855 652.6C33.7321 653.076 33.5158 653.496 33.2366 653.861C32.9599 654.223 32.6303 654.499 32.248 654.691L31.7348 654.019C32.0895 653.851 32.3964 653.605 32.6555 653.283C32.9171 652.959 33.1158 652.593 33.2516 652.185C33.39 651.775 33.4604 651.358 33.4629 650.933V649.846H34.3006V650.933ZM36.3683 649.295H37.206V651.966H38.2549V652.683H37.206V656.117H36.3683V649.295ZM43.9222 651.091H44.8731V651.793H43.9222V653.649H43.0846V649.295H43.9222V651.091ZM38.5492 649.989H40.1566V649.25H40.9942V649.989H42.5941V650.646H38.5492V649.989ZM38.8963 652.14C38.8963 651.899 38.9668 651.686 39.1076 651.502C39.2485 651.319 39.4447 651.175 39.6963 651.072C39.9503 650.969 40.2421 650.917 40.5716 650.917C40.8961 650.917 41.1842 650.969 41.4357 651.072C41.6898 651.175 41.8872 651.319 42.0281 651.502C42.169 651.686 42.2394 651.899 42.2394 652.14C42.2394 652.381 42.169 652.594 42.0281 652.778C41.8872 652.961 41.6898 653.103 41.4357 653.204C41.1842 653.305 40.8961 653.355 40.5716 653.355C40.2421 653.355 39.9503 653.305 39.6963 653.204C39.4447 653.103 39.2485 652.961 39.1076 652.778C38.9668 652.594 38.8963 652.381 38.8963 652.14ZM39.4397 654.91C39.4372 654.658 39.5265 654.443 39.7076 654.264C39.8912 654.083 40.1541 653.946 40.4962 653.853C40.8408 653.757 41.2483 653.71 41.7187 653.71C42.1841 653.71 42.5878 653.757 42.9299 653.853C43.272 653.946 43.5349 654.083 43.7185 654.264C43.9046 654.445 43.9977 654.66 43.9977 654.91C43.9977 655.159 43.9046 655.372 43.7185 655.551C43.5349 655.732 43.272 655.87 42.9299 655.966C42.5878 656.062 42.1841 656.109 41.7187 656.109C41.2483 656.109 40.8408 656.062 40.4962 655.966C40.1541 655.87 39.8912 655.732 39.7076 655.551C39.5265 655.372 39.4372 655.159 39.4397 654.91ZM39.7114 652.14C39.7088 652.321 39.7843 652.463 39.9378 652.566C40.0912 652.669 40.2975 652.721 40.5566 652.721C40.8257 652.721 41.0395 652.671 41.198 652.57C41.359 652.467 41.4395 652.324 41.4395 652.14C41.4395 651.954 41.3602 651.807 41.2018 651.699C41.0433 651.59 40.8333 651.536 40.5716 651.536C40.31 651.536 40.1 651.59 39.9415 651.699C39.7856 651.807 39.7088 651.954 39.7114 652.14ZM40.2698 654.91C40.2673 655.091 40.3918 655.23 40.6433 655.328C40.8949 655.426 41.2533 655.475 41.7187 655.475C42.179 655.475 42.5337 655.426 42.7827 655.328C43.0318 655.23 43.1575 655.091 43.1601 654.91C43.1575 654.726 43.033 654.588 42.7865 654.494C42.54 654.399 42.1841 654.351 41.7187 654.351C41.2483 654.351 40.8886 654.399 40.6396 654.494C40.3905 654.588 40.2673 654.726 40.2698 654.91Z" fill="#ADB5BD"/>
<path d="M27.6817 662.551H27.3867L26.0421 660.616H26.0181V662.551H25.7094V660.067H26.0078L27.3524 662.005H27.3764V660.067H27.6817V662.551ZM30.3298 661.309C30.3298 661.566 30.2829 661.792 30.1892 661.985C30.0954 662.177 29.9651 662.325 29.7981 662.429C29.6324 662.533 29.4437 662.585 29.2322 662.585C29.0195 662.585 28.8297 662.533 28.6628 662.429C28.497 662.325 28.3672 662.177 28.2734 661.985C28.1808 661.792 28.1345 661.566 28.1345 661.309C28.1345 661.052 28.1808 660.827 28.2734 660.635C28.3672 660.442 28.497 660.293 28.6628 660.189C28.8297 660.085 29.0195 660.033 29.2322 660.033C29.4437 660.033 29.6324 660.085 29.7981 660.189C29.9651 660.293 30.0954 660.442 30.1892 660.635C30.2829 660.827 30.3298 661.052 30.3298 661.309ZM28.4329 661.309C28.4329 661.516 28.4678 661.694 28.5376 661.842C28.6073 661.991 28.7022 662.104 28.8223 662.18C28.9435 662.257 29.0801 662.296 29.2322 662.297C29.3842 662.296 29.5203 662.257 29.6404 662.18C29.7616 662.104 29.857 661.991 29.9268 661.842C29.9965 661.694 30.0314 661.516 30.0314 661.309C30.0314 661.101 29.9965 660.923 29.9268 660.774C29.857 660.625 29.7616 660.513 29.6404 660.436C29.5203 660.359 29.3842 660.321 29.2322 660.321C29.0801 660.321 28.9435 660.359 28.8223 660.436C28.7022 660.513 28.6073 660.625 28.5376 660.774C28.4678 660.923 28.4329 661.101 28.4329 661.309ZM30.5425 660.067H32.4154V660.342H31.6367V662.551H31.3246V660.342H30.5425V660.067ZM33.1357 662.551H32.827V660.067H33.1357V662.551ZM35.379 660.849C35.3562 660.739 35.311 660.644 35.2436 660.565C35.1761 660.485 35.0938 660.424 34.9966 660.383C34.9005 660.342 34.7971 660.321 34.6861 660.321C34.5341 660.321 34.3974 660.359 34.2762 660.436C34.1562 660.513 34.0613 660.625 33.9915 660.774C33.9218 660.923 33.8869 661.101 33.8869 661.309C33.8869 661.516 33.9218 661.694 33.9915 661.842C34.0613 661.991 34.1562 662.104 34.2762 662.18C34.3974 662.257 34.5341 662.296 34.6861 662.297C34.7971 662.296 34.9005 662.275 34.9966 662.235C35.0926 662.194 35.1744 662.134 35.2418 662.055C35.3093 661.976 35.355 661.882 35.379 661.772H35.6878C35.658 661.938 35.5963 662.083 35.5025 662.206C35.4088 662.328 35.291 662.422 35.1492 662.487C35.0086 662.552 34.8542 662.585 34.6861 662.585C34.4735 662.585 34.2837 662.533 34.1167 662.429C33.9509 662.325 33.8212 662.177 33.7274 661.985C33.6348 661.792 33.5885 661.566 33.5885 661.309C33.5885 661.052 33.6348 660.827 33.7274 660.635C33.8212 660.442 33.9509 660.293 34.1167 660.189C34.2837 660.085 34.4735 660.033 34.6861 660.033C34.8542 660.033 35.0086 660.066 35.1492 660.131C35.2899 660.195 35.4071 660.289 35.5008 660.412C35.5957 660.534 35.658 660.68 35.6878 660.849H35.379ZM36.12 660.067H37.6258V660.342H36.4287V661.172H37.5469V661.443H36.4287V662.276H37.643V662.551H36.12V660.067Z" fill="#ADB5BD"/>
<g clip-path="url(#clip2_3140_8592)">
<path d="M91.6265 637.286H90.3324V641.835H91.6265V637.286ZM95.5088 637.286H94.2147V641.835H95.5088V637.286ZM101.009 643.134H88.7148V644.434H101.009V643.134ZM99.391 637.286H98.0969V641.835H99.391V637.286ZM94.8617 632.906L98.2328 634.687H91.4906L94.8617 632.906ZM94.8617 631.438L88.7148 634.687V635.986H101.009V634.687L94.8617 631.438Z" fill="#ADB5BD"/>
</g>
<path d="M87.3546 656.102H86.6377V649.325H87.3546V656.102ZM81.9891 652.2C81.9891 651.727 82.0633 651.312 82.2118 650.955C82.3602 650.595 82.5664 650.319 82.8306 650.125C83.0972 649.929 83.4003 649.831 83.7399 649.831C84.0745 649.831 84.3738 649.929 84.6379 650.125C84.902 650.319 85.1083 650.595 85.2567 650.955C85.4077 651.312 85.4831 651.727 85.4831 652.2C85.4831 652.678 85.4077 653.097 85.2567 653.457C85.1083 653.817 84.902 654.093 84.6379 654.287C84.3738 654.481 84.0745 654.577 83.7399 654.577C83.4003 654.577 83.0972 654.481 82.8306 654.287C82.5664 654.093 82.3602 653.817 82.2118 653.457C82.0633 653.097 81.9891 652.678 81.9891 652.2ZM82.6834 652.2C82.6834 652.553 82.7274 652.859 82.8155 653.121C82.9035 653.383 83.0268 653.584 83.1852 653.725C83.3462 653.866 83.5311 653.936 83.7399 653.936C83.9462 653.936 84.1285 653.866 84.287 653.725C84.4455 653.584 84.5687 653.383 84.6568 653.121C84.7448 652.859 84.7888 652.553 84.7888 652.2C84.7888 651.853 84.7448 651.55 84.6568 651.291C84.5687 651.029 84.4455 650.828 84.287 650.687C84.1285 650.544 83.9462 650.472 83.7399 650.472C83.5311 650.472 83.3462 650.544 83.1852 650.687C83.0268 650.828 82.9035 651.029 82.8155 651.291C82.7274 651.55 82.6834 651.853 82.6834 652.2ZM94.5992 653.204H88.4338V652.623H89.9128V651.714C89.6462 651.605 89.4425 651.467 89.3016 651.299C89.1632 651.13 89.0953 650.935 89.0978 650.714C89.0978 650.45 89.1947 650.222 89.3884 650.031C89.5846 649.84 89.8638 649.695 90.226 649.597C90.5908 649.496 91.0197 649.446 91.5127 649.446C92.0057 649.446 92.4333 649.496 92.7956 649.597C93.1578 649.695 93.437 649.84 93.6332 650.031C93.8294 650.222 93.9275 650.45 93.9275 650.714C93.925 650.935 93.8533 651.131 93.7125 651.302C93.5716 651.471 93.3691 651.609 93.105 651.717V652.623H94.5992V653.204ZM89.1658 654.864C89.1658 654.608 89.2588 654.39 89.445 654.211C89.6311 654.033 89.899 653.897 90.2487 653.804C90.6008 653.711 91.0222 653.664 91.5127 653.664C91.9957 653.664 92.412 653.711 92.7616 653.804C93.1113 653.897 93.3792 654.034 93.5653 654.215C93.7514 654.394 93.8445 654.61 93.8445 654.864C93.8445 655.121 93.7514 655.34 93.5653 655.521C93.3792 655.702 93.1113 655.839 92.7616 655.932C92.4145 656.025 91.9982 656.072 91.5127 656.072C91.0222 656.072 90.6008 656.025 90.2487 655.932C89.899 655.839 89.6311 655.702 89.445 655.521C89.2588 655.342 89.1658 655.123 89.1658 654.864ZM89.8374 650.714C89.8349 650.938 89.9808 651.111 90.2751 651.234C90.5694 651.358 90.9819 651.421 91.5127 651.423C92.0409 651.421 92.4522 651.358 92.7465 651.234C93.0433 651.111 93.1905 650.938 93.188 650.714C93.188 650.565 93.1213 650.437 92.988 650.329C92.8547 650.221 92.6623 650.139 92.4107 650.084C92.1592 650.026 91.8598 649.997 91.5127 649.997C90.9844 649.999 90.5719 650.063 90.2751 650.189C89.9808 650.313 89.8349 650.487 89.8374 650.714ZM89.8902 654.864C89.8877 655.076 90.0286 655.239 90.3128 655.355C90.5971 655.468 90.997 655.523 91.5127 655.521C92.0233 655.526 92.4195 655.47 92.7012 655.355C92.9855 655.239 93.1276 655.076 93.1276 654.864C93.1276 654.658 92.9855 654.498 92.7012 654.385C92.4195 654.272 92.0233 654.215 91.5127 654.215C90.9945 654.215 90.5933 654.272 90.309 654.385C90.0273 654.498 89.8877 654.658 89.8902 654.864ZM92.3956 652.623V651.902C92.1239 651.945 91.8296 651.966 91.5127 651.966C91.2108 651.966 90.919 651.946 90.6373 651.906V652.623H92.3956ZM100.425 651.34H101.406V651.944H100.425V654.291H99.7081V649.318H100.425V651.34ZM95.218 651.468C95.2154 651.146 95.2922 650.858 95.4481 650.604C95.6066 650.348 95.8229 650.148 96.0971 650.004C96.3713 649.858 96.6769 649.786 97.014 649.786C97.3511 649.786 97.6567 649.858 97.9309 650.004C98.2051 650.148 98.4201 650.348 98.5761 650.604C98.7346 650.858 98.8151 651.146 98.8176 651.468C98.8151 651.79 98.7346 652.08 98.5761 652.336C98.4201 652.593 98.2051 652.793 97.9309 652.936C97.6567 653.08 97.3511 653.151 97.014 653.151C96.6769 653.151 96.3713 653.08 96.0971 652.936C95.8229 652.793 95.6066 652.593 95.4481 652.336C95.2922 652.08 95.2154 651.79 95.218 651.468ZM95.9198 651.468C95.9173 651.675 95.9638 651.858 96.0594 652.019C96.155 652.178 96.2858 652.302 96.4518 652.393C96.6203 652.481 96.8077 652.525 97.014 652.525C97.2203 652.525 97.4064 652.481 97.5724 652.393C97.741 652.302 97.873 652.178 97.9686 652.019C98.0667 651.858 98.1158 651.675 98.1158 651.468C98.1158 651.262 98.0667 651.08 97.9686 650.921C97.873 650.76 97.741 650.636 97.5724 650.548C97.4064 650.457 97.2203 650.412 97.014 650.412C96.8077 650.412 96.6203 650.457 96.4518 650.548C96.2858 650.636 96.155 650.76 96.0594 650.921C95.9638 651.08 95.9173 651.262 95.9198 651.468ZM96.1386 653.77H96.8555V655.362H100.712V655.943H96.1386V653.77ZM107.579 656.087H106.892V652.623H106.024V655.74H105.353V649.461H106.024V652.034H106.892V649.325H107.579V656.087ZM102.108 650.125H102.825V653.736C103.547 653.729 104.238 653.659 104.9 653.529L104.975 654.155C104.535 654.233 104.118 654.288 103.723 654.321C103.328 654.354 102.935 654.369 102.546 654.366H102.108V650.125Z" fill="#ADB5BD"/>
<path d="M83.9107 662.551H83.602V660.067H83.9107V662.551ZM86.4319 662.551H86.1369L84.7923 660.616H84.7683V662.551H84.4596V660.067H84.758L86.1026 662.005H86.1266V660.067H86.4319V662.551ZM86.9807 660.067H88.4763V660.342H87.2894V661.172H88.3631V661.443H87.2894V662.551H86.9807V660.067ZM91.0352 661.309C91.0352 661.566 90.9883 661.792 90.8946 661.985C90.8008 662.177 90.6705 662.325 90.5035 662.429C90.3377 662.533 90.1491 662.585 89.9375 662.585C89.7249 662.585 89.5351 662.533 89.3681 662.429C89.2023 662.325 89.0726 662.177 88.9788 661.985C88.8862 661.792 88.8399 661.566 88.8399 661.309C88.8399 661.052 88.8862 660.827 88.9788 660.635C89.0726 660.442 89.2023 660.293 89.3681 660.189C89.5351 660.085 89.7249 660.033 89.9375 660.033C90.1491 660.033 90.3377 660.085 90.5035 660.189C90.6705 660.293 90.8008 660.442 90.8946 660.635C90.9883 660.827 91.0352 661.052 91.0352 661.309ZM89.1383 661.309C89.1383 661.516 89.1732 661.694 89.2429 661.842C89.3127 661.991 89.4076 662.104 89.5276 662.18C89.6488 662.257 89.7855 662.296 89.9375 662.297C90.0896 662.296 90.2257 662.257 90.3457 662.18C90.4669 662.104 90.5624 661.991 90.6322 661.842C90.7019 661.694 90.7368 661.516 90.7368 661.309C90.7368 661.101 90.7019 660.923 90.6322 660.774C90.5624 660.625 90.4669 660.513 90.3457 660.436C90.2257 660.359 90.0896 660.321 89.9375 660.321C89.7855 660.321 89.6488 660.359 89.5276 660.436C89.4076 660.513 89.3127 660.625 89.2429 660.774C89.1732 660.923 89.1383 661.101 89.1383 661.309ZM91.488 660.067H92.3318C92.5205 660.067 92.6777 660.1 92.8035 660.165C92.9304 660.229 93.0247 660.319 93.0864 660.434C93.1482 660.549 93.1791 660.681 93.1791 660.832C93.1791 661.001 93.1402 661.147 93.0624 661.268C92.9858 661.388 92.8703 661.475 92.716 661.529L93.2751 662.551H92.9149L92.3953 661.585C92.3827 661.586 92.3627 661.587 92.3352 661.587H91.7967V662.551H91.488V660.067ZM92.3215 661.306C92.5136 661.306 92.6531 661.265 92.74 661.184C92.828 661.103 92.8726 660.985 92.8738 660.832C92.8715 660.505 92.6863 660.342 92.3181 660.342H91.7967V661.306H92.3215ZM93.9954 660.067L94.8324 662.112H94.8633L95.7002 660.067H96.0707V662.551H95.7791V660.674H95.7551L94.9833 662.551H94.7089L93.9371 660.674H93.9166V662.551H93.625V660.067H93.9954ZM96.4069 662.551L97.3159 660.067H97.6417L98.5507 662.551H98.2249L97.9762 661.851H96.978L96.7293 662.551H96.4069ZM97.8818 661.58L97.4874 660.469H97.4668L97.0723 661.58H97.8818ZM98.4581 660.067H100.331V660.342H99.5523V662.551H99.2402V660.342H98.4581V660.067ZM101.051 662.551H100.743V660.067H101.051V662.551ZM103.699 661.309C103.699 661.566 103.653 661.792 103.559 661.985C103.465 662.177 103.335 662.325 103.168 662.429C103.002 662.533 102.813 662.585 102.602 662.585C102.389 662.585 102.199 662.533 102.032 662.429C101.867 662.325 101.737 662.177 101.643 661.985C101.55 661.792 101.504 661.566 101.504 661.309C101.504 661.052 101.55 660.827 101.643 660.635C101.737 660.442 101.867 660.293 102.032 660.189C102.199 660.085 102.389 660.033 102.602 660.033C102.813 660.033 103.002 660.085 103.168 660.189C103.335 660.293 103.465 660.442 103.559 660.635C103.653 660.827 103.699 661.052 103.699 661.309ZM101.803 661.309C101.803 661.516 101.837 661.694 101.907 661.842C101.977 661.991 102.072 662.104 102.192 662.18C102.313 662.257 102.45 662.296 102.602 662.297C102.754 662.296 102.89 662.257 103.01 662.18C103.131 662.104 103.227 661.991 103.296 661.842C103.366 661.694 103.401 661.516 103.401 661.309C103.401 661.101 103.366 660.923 103.296 660.774C103.227 660.625 103.131 660.513 103.01 660.436C102.89 660.359 102.754 660.321 102.602 660.321C102.45 660.321 102.313 660.359 102.192 660.436C102.072 660.513 101.977 660.625 101.907 660.774C101.837 660.923 101.803 661.101 101.803 661.309ZM106.125 662.551H105.83L104.485 660.616H104.461V662.551H104.152V660.067H104.451L105.795 662.005H105.819V660.067H106.125V662.551Z" fill="#ADB5BD"/>
<g clip-path="url(#clip3_3140_8592)">
<path d="M158.089 630.883C155.371 630.883 153.172 633.082 153.172 635.8C153.172 639.488 158.089 644.933 158.089 644.933C158.089 644.933 163.007 639.488 163.007 635.8C163.007 633.082 160.808 630.883 158.089 630.883ZM154.577 635.8C154.577 633.861 156.15 632.288 158.089 632.288C160.028 632.288 161.602 633.861 161.602 635.8C161.602 637.824 159.579 640.851 158.089 642.741C156.628 640.865 154.577 637.802 154.577 635.8Z" fill="#ADB5BD"/>
<path d="M158.088 637.555C159.058 637.555 159.845 636.769 159.845 635.799C159.845 634.829 159.058 634.043 158.088 634.043C157.118 634.043 156.332 634.829 156.332 635.799C156.332 636.769 157.118 637.555 158.088 637.555Z" fill="#ADB5BD"/>
</g>
<path d="M147.461 651.046C147.458 651.453 147.532 651.854 147.683 652.249C147.837 652.644 148.049 652.995 148.321 653.302C148.595 653.607 148.904 653.835 149.249 653.989L148.819 654.555C148.434 654.371 148.093 654.1 147.796 653.74C147.5 653.38 147.271 652.968 147.11 652.502C146.951 653.005 146.72 653.449 146.415 653.834C146.114 654.219 145.763 654.51 145.363 654.706L144.925 654.102C145.275 653.949 145.587 653.713 145.861 653.396C146.135 653.077 146.349 652.712 146.502 652.302C146.658 651.89 146.736 651.471 146.736 651.046V649.891H147.461V651.046ZM149.86 649.325H150.577V656.102H149.86V649.325ZM157.294 652.804H156.577V651.068H155.15V650.487H156.577V649.325H157.294V652.804ZM151.634 652.261C151.981 652.15 152.282 651.989 152.536 651.778C152.79 651.564 152.985 651.316 153.12 651.034C153.256 650.75 153.324 650.45 153.324 650.133V649.544H154.034V650.133C154.034 650.419 154.099 650.695 154.23 650.959C154.363 651.221 154.553 651.453 154.799 651.657C155.046 651.858 155.337 652.012 155.671 652.117L155.294 652.676C154.927 652.547 154.605 652.361 154.328 652.117C154.054 651.873 153.841 651.589 153.69 651.265C153.542 651.634 153.324 651.955 153.037 652.227C152.753 652.496 152.414 652.698 152.019 652.834L151.634 652.261ZM152.871 653.121H157.294V654.804H153.588V655.43H157.528V656.004H152.886V654.261H156.584V653.687H152.871V653.121ZM163.648 651.34H164.629V651.944H163.648V654.291H162.931V649.318H163.648V651.34ZM158.441 651.468C158.438 651.146 158.515 650.858 158.671 650.604C158.829 650.348 159.046 650.148 159.32 650.004C159.594 649.858 159.9 649.786 160.237 649.786C160.574 649.786 160.879 649.858 161.154 650.004C161.428 650.148 161.643 650.348 161.799 650.604C161.957 650.858 162.038 651.146 162.04 651.468C162.038 651.79 161.957 652.08 161.799 652.336C161.643 652.593 161.428 652.793 161.154 652.936C160.879 653.08 160.574 653.151 160.237 653.151C159.9 653.151 159.594 653.08 159.32 652.936C159.046 652.793 158.829 652.593 158.671 652.336C158.515 652.08 158.438 651.79 158.441 651.468ZM159.142 651.468C159.14 651.675 159.186 651.858 159.282 652.019C159.378 652.178 159.508 652.302 159.674 652.393C159.843 652.481 160.03 652.525 160.237 652.525C160.443 652.525 160.629 652.481 160.795 652.393C160.964 652.302 161.096 652.178 161.191 652.019C161.289 651.858 161.338 651.675 161.338 651.468C161.338 651.262 161.289 651.08 161.191 650.921C161.096 650.76 160.964 650.636 160.795 650.548C160.629 650.457 160.443 650.412 160.237 650.412C160.03 650.412 159.843 650.457 159.674 650.548C159.508 650.636 159.378 650.76 159.282 650.921C159.186 651.08 159.14 651.262 159.142 651.468ZM159.361 653.77H160.078V655.362H163.934V655.943H159.361V653.77ZM170.802 656.087H170.115V652.623H169.247V655.74H168.575V649.461H169.247V652.034H170.115V649.325H170.802V656.087ZM165.33 650.125H166.047V653.736C166.769 653.729 167.461 653.659 168.123 653.529L168.198 654.155C167.758 654.233 167.34 654.288 166.945 654.321C166.55 654.354 166.158 654.369 165.768 654.366H165.33V650.125Z" fill="#ADB5BD"/>
<path d="M151.265 660.067H152.761V660.342H151.574V661.172H152.647V661.443H151.574V662.551H151.265V660.067ZM152.695 662.551L153.604 660.067H153.93L154.839 662.551H154.513L154.265 661.851H153.267L153.018 662.551H152.695ZM154.17 661.58L153.776 660.469H153.755L153.361 661.58H154.17ZM156.753 660.849C156.73 660.739 156.685 660.644 156.618 660.565C156.55 660.485 156.468 660.424 156.371 660.383C156.275 660.342 156.171 660.321 156.06 660.321C155.908 660.321 155.772 660.359 155.651 660.436C155.53 660.513 155.436 660.625 155.366 660.774C155.296 660.923 155.261 661.101 155.261 661.309C155.261 661.516 155.296 661.694 155.366 661.842C155.436 661.991 155.53 662.104 155.651 662.18C155.772 662.257 155.908 662.296 156.06 662.297C156.171 662.296 156.275 662.275 156.371 662.235C156.467 662.194 156.549 662.134 156.616 662.055C156.684 661.976 156.729 661.882 156.753 661.772H157.062C157.032 661.938 156.971 662.083 156.877 662.206C156.783 662.328 156.665 662.422 156.523 662.487C156.383 662.552 156.228 662.585 156.06 662.585C155.848 662.585 155.658 662.533 155.491 662.429C155.325 662.325 155.195 662.177 155.102 661.985C155.009 661.792 154.963 661.566 154.963 661.309C154.963 661.052 155.009 660.827 155.102 660.635C155.195 660.442 155.325 660.293 155.491 660.189C155.658 660.085 155.848 660.033 156.06 660.033C156.228 660.033 156.383 660.066 156.523 660.131C156.664 660.195 156.781 660.289 156.875 660.412C156.97 660.534 157.032 660.68 157.062 660.849H156.753ZM157.803 662.551H157.494V660.067H157.803V662.551ZM158.352 660.067H158.66V662.276H159.813V662.551H158.352V660.067ZM160.533 662.551H160.225V660.067H160.533V662.551ZM160.945 660.067H162.818V660.342H162.039V662.551H161.727V660.342H160.945V660.067ZM163.37 660.067L164.053 661.22H164.084L164.766 660.067H165.123L164.224 661.532V662.551H163.912V661.532L163.017 660.067H163.37Z" fill="#ADB5BD"/>
<path d="M227.758 628.466C227.254 628.379 226.744 628.334 226.233 628.332C224.49 628.331 222.783 628.831 221.316 629.772C219.845 628.843 218.138 628.355 216.398 628.367C215.887 628.369 215.377 628.414 214.874 628.501C214.709 628.529 214.559 628.615 214.452 628.744C214.346 628.873 214.288 629.036 214.291 629.203V637.633C214.289 637.736 214.31 637.839 214.353 637.933C214.395 638.027 214.458 638.11 214.537 638.177C214.615 638.244 214.707 638.293 214.807 638.321C214.906 638.348 215.011 638.353 215.112 638.336C216.119 638.161 217.151 638.19 218.146 638.421C219.141 638.651 220.08 639.078 220.908 639.677L220.992 639.727H221.07C221.148 639.759 221.231 639.776 221.316 639.776C221.4 639.776 221.484 639.759 221.561 639.727H221.639L221.723 639.677C222.545 639.065 223.481 638.624 224.477 638.38C225.472 638.136 226.507 638.095 227.519 638.258C227.62 638.276 227.725 638.271 227.824 638.244C227.924 638.216 228.016 638.167 228.095 638.1C228.173 638.033 228.236 637.95 228.278 637.855C228.321 637.761 228.342 637.659 228.341 637.556V629.126C228.333 628.966 228.271 628.813 228.165 628.693C228.059 628.573 227.915 628.493 227.758 628.466ZM220.613 637.802C219.313 637.118 217.867 636.761 216.398 636.762C216.166 636.762 215.934 636.762 215.696 636.762V629.737C215.93 629.724 216.164 629.724 216.398 629.737C217.897 629.735 219.363 630.175 220.613 631.002V637.802ZM226.936 636.79C226.697 636.79 226.465 636.79 226.233 636.79C224.764 636.789 223.318 637.146 222.018 637.83V631.002C223.268 630.175 224.734 629.735 226.233 629.737C226.467 629.724 226.702 629.724 226.936 629.737V636.79ZM227.758 639.706C227.254 639.619 226.744 639.574 226.233 639.572C224.49 639.571 222.783 640.071 221.316 641.012C219.848 640.071 218.141 639.571 216.398 639.572C215.887 639.574 215.377 639.619 214.874 639.706C214.782 639.72 214.695 639.752 214.616 639.801C214.537 639.85 214.468 639.913 214.414 639.988C214.36 640.063 214.321 640.148 214.3 640.238C214.279 640.329 214.276 640.422 214.291 640.513C214.326 640.696 214.433 640.857 214.587 640.961C214.741 641.065 214.93 641.103 215.112 641.068C216.119 640.894 217.151 640.923 218.146 641.153C219.141 641.384 220.08 641.811 220.908 642.41C221.027 642.495 221.17 642.54 221.316 642.54C221.462 642.54 221.604 642.495 221.723 642.41C222.551 641.811 223.49 641.384 224.485 641.153C225.481 640.923 226.512 640.894 227.519 641.068C227.701 641.103 227.89 641.065 228.044 640.961C228.198 640.857 228.305 640.696 228.341 640.513C228.356 640.422 228.352 640.329 228.331 640.238C228.31 640.148 228.271 640.063 228.217 639.988C228.163 639.913 228.094 639.85 228.015 639.801C227.937 639.752 227.849 639.72 227.758 639.706V639.706Z" fill="#191F28"/>
<path d="M213.864 651.822H213.019V646.842H213.864V651.822ZM208.189 650.215C208.547 650.089 208.851 649.907 209.102 649.668C209.354 649.426 209.543 649.152 209.668 648.845C209.797 648.536 209.86 648.215 209.857 647.883V647.219H210.725V647.883C210.722 648.205 210.783 648.512 210.906 648.804C211.032 649.095 211.218 649.355 211.464 649.581C211.711 649.805 212.01 649.976 212.362 650.094L211.932 650.758C211.55 650.625 211.22 650.429 210.944 650.17C210.667 649.908 210.452 649.6 210.299 649.245C210.145 649.627 209.926 649.96 209.642 650.241C209.358 650.523 209.019 650.736 208.627 650.879L208.189 650.215ZM209.351 651.347H210.197V652.841H214.053V653.52H209.351V651.347ZM217.313 648.313C217.31 648.567 217.371 648.812 217.494 649.049C217.62 649.285 217.805 649.497 218.049 649.683C218.295 649.866 218.593 650.006 218.943 650.102L218.551 650.773C218.168 650.663 217.837 650.495 217.558 650.271C217.279 650.048 217.06 649.783 216.902 649.479C216.748 649.814 216.531 650.103 216.249 650.347C215.967 650.588 215.63 650.768 215.238 650.886L214.83 650.23C215.18 650.129 215.478 649.981 215.724 649.785C215.971 649.588 216.157 649.363 216.283 649.109C216.411 648.855 216.475 648.59 216.475 648.313V648.26H215.049V647.596H216.475V646.811H217.32V647.596H218.739V648.26H217.313V648.313ZM215.698 651.317H220.241V653.664H219.403V651.988H215.698V651.317ZM219.403 646.834H220.241V648.562H221.192V649.272H220.241V651.007H219.403V646.834ZM227.078 650.6H225.056V652.162H227.772V652.849H221.539V652.162H224.225V650.6H222.294V647.34H227.025V648.011H223.131V649.936H227.078V650.6ZM230.738 648.472C230.735 648.899 230.801 649.312 230.934 649.709C231.067 650.107 231.261 650.46 231.515 650.77C231.772 651.076 232.076 651.307 232.428 651.46L231.923 652.132C231.545 651.948 231.221 651.684 230.949 651.339C230.678 650.995 230.468 650.593 230.319 650.136C230.166 650.621 229.949 651.049 229.67 651.418C229.391 651.786 229.06 652.066 228.678 652.26L228.15 651.581C228.509 651.412 228.82 651.166 229.082 650.841C229.343 650.517 229.542 650.148 229.678 649.736C229.814 649.323 229.883 648.902 229.885 648.472V647.385H230.738V648.472ZM231.674 649.038H233.108V646.834H233.938V653.664H233.108V649.717H231.674V649.038Z" fill="#191F28"/>
<path d="M205.158 660.094H204.863L203.518 658.159H203.494V660.094H203.186V657.61H203.484L204.829 659.548H204.853V657.61H205.158V660.094ZM205.707 657.61H207.213V657.885H206.016V658.715H207.134V658.986H206.016V659.819H207.23V660.094H205.707V657.61ZM207.48 657.61H207.792L208.31 659.62H208.334L208.859 657.61H209.206L209.734 659.62H209.755L210.272 657.61H210.585L209.905 660.094H209.586L209.044 658.128H209.024L208.478 660.094H208.159L207.48 657.61ZM211.583 660.094L212.492 657.61H212.818L213.727 660.094H213.401L213.152 659.394H212.154L211.905 660.094H211.583ZM213.058 659.123L212.663 658.012H212.643L212.248 659.123H213.058ZM214.063 657.61H214.907C215.095 657.61 215.253 657.643 215.378 657.708C215.505 657.772 215.6 657.862 215.661 657.977C215.723 658.092 215.754 658.224 215.754 658.375C215.754 658.544 215.715 658.69 215.637 658.811C215.561 658.931 215.445 659.018 215.291 659.072L215.85 660.094H215.49L214.97 659.128C214.958 659.129 214.938 659.13 214.91 659.13H214.372V660.094H214.063V657.61ZM214.896 658.849C215.088 658.849 215.228 658.808 215.315 658.727C215.403 658.646 215.447 658.528 215.449 658.375C215.446 658.048 215.261 657.885 214.893 657.885H214.372V658.849H214.896ZM216.2 657.61H217.044C217.232 657.61 217.39 657.643 217.515 657.708C217.642 657.772 217.737 657.862 217.798 657.977C217.86 658.092 217.891 658.224 217.891 658.375C217.891 658.544 217.852 658.69 217.774 658.811C217.698 658.931 217.582 659.018 217.428 659.072L217.987 660.094H217.627L217.107 659.128C217.095 659.129 217.075 659.13 217.047 659.13H216.509V660.094H216.2V657.61ZM217.033 658.849C217.225 658.849 217.365 658.808 217.452 658.727C217.54 658.646 217.584 658.528 217.586 658.375C217.583 658.048 217.398 657.885 217.03 657.885H216.509V658.849H217.033ZM218.646 660.094H218.337V657.61H218.646V660.094ZM220.038 659.692H220.066L220.8 657.61H221.126L220.217 660.094H219.891L218.982 657.61H219.308L220.038 659.692ZM221.03 660.094L221.939 657.61H222.264L223.173 660.094H222.848L222.599 659.394H221.601L221.352 660.094H221.03ZM222.504 659.123L222.11 658.012H222.089L221.695 659.123H222.504ZM223.51 657.61H223.818V659.819H224.971V660.094H223.51V657.61ZM226.737 658.235C226.729 658.155 226.701 658.086 226.652 658.029C226.602 657.97 226.538 657.926 226.458 657.897C226.378 657.866 226.288 657.85 226.188 657.85C226.081 657.85 225.986 657.868 225.904 657.904C225.821 657.938 225.757 657.986 225.712 658.048C225.666 658.109 225.643 658.18 225.643 658.259C225.644 658.374 225.692 658.463 225.785 658.524C225.879 658.585 225.992 658.631 226.123 658.663L226.37 658.732C226.562 658.781 226.728 658.857 226.866 658.958C227.004 659.06 227.073 659.213 227.073 659.418C227.073 659.554 227.038 659.677 226.967 659.787C226.896 659.895 226.793 659.981 226.657 660.044C226.521 660.107 226.359 660.138 226.171 660.138C225.995 660.138 225.841 660.11 225.71 660.053C225.58 659.994 225.477 659.914 225.403 659.811C225.329 659.707 225.286 659.586 225.276 659.449H225.592C225.6 659.538 225.631 659.614 225.684 659.675C225.738 659.737 225.807 659.783 225.892 659.814C225.978 659.844 226.071 659.858 226.171 659.857C226.286 659.857 226.388 659.839 226.478 659.802C226.57 659.766 226.641 659.714 226.693 659.646C226.745 659.578 226.772 659.499 226.772 659.411C226.772 659.335 226.75 659.271 226.706 659.219C226.664 659.168 226.608 659.126 226.538 659.094C226.469 659.062 226.383 659.032 226.281 659.003L225.976 658.921C225.772 658.861 225.616 658.779 225.506 658.674C225.397 658.568 225.344 658.435 225.345 658.272C225.345 658.135 225.382 658.014 225.456 657.909C225.53 657.802 225.633 657.721 225.763 657.663C225.894 657.605 226.039 657.576 226.199 657.576C226.357 657.576 226.498 657.605 226.624 657.662C226.751 657.719 226.851 657.798 226.924 657.898C226.997 657.998 227.036 658.11 227.039 658.235H226.737ZM228.398 657.61H229.269C229.437 657.61 229.578 657.639 229.692 657.698C229.808 657.755 229.894 657.833 229.95 657.933C230.007 658.032 230.035 658.144 230.034 658.269C230.035 658.416 229.998 658.532 229.924 658.615C229.85 658.698 229.751 658.756 229.629 658.79V658.814C229.71 658.819 229.789 658.846 229.866 658.897C229.943 658.947 230.007 659.018 230.058 659.111C230.108 659.202 230.133 659.311 230.133 659.435C230.132 659.563 230.102 659.677 230.042 659.776C229.984 659.875 229.893 659.953 229.768 660.01C229.644 660.066 229.488 660.094 229.3 660.094H228.398V657.61ZM229.296 659.819C229.48 659.819 229.616 659.784 229.704 659.713C229.792 659.642 229.836 659.548 229.835 659.432C229.836 659.347 229.815 659.269 229.771 659.198C229.728 659.128 229.666 659.071 229.586 659.029C229.507 658.986 229.416 658.965 229.313 658.965H228.706V659.819H229.296ZM229.259 658.698C229.348 658.698 229.429 658.681 229.502 658.646C229.575 658.611 229.633 658.561 229.675 658.497C229.718 658.432 229.739 658.357 229.739 658.272C229.739 658.198 229.722 658.132 229.687 658.073C229.653 658.015 229.6 657.969 229.529 657.936C229.46 657.902 229.373 657.885 229.269 657.885H228.706V658.698H229.259ZM232.672 658.852C232.672 659.109 232.625 659.335 232.531 659.528C232.437 659.72 232.307 659.868 232.14 659.972C231.974 660.076 231.785 660.128 231.574 660.128C231.361 660.128 231.171 660.076 231.004 659.972C230.839 659.868 230.709 659.72 230.615 659.528C230.523 659.335 230.476 659.109 230.476 658.852C230.476 658.595 230.523 658.37 230.615 658.178C230.709 657.985 230.839 657.836 231.004 657.732C231.171 657.628 231.361 657.576 231.574 657.576C231.785 657.576 231.974 657.628 232.14 657.732C232.307 657.836 232.437 657.985 232.531 658.178C232.625 658.37 232.672 658.595 232.672 658.852ZM230.775 658.852C230.775 659.059 230.81 659.237 230.879 659.385C230.949 659.534 231.044 659.647 231.164 659.723C231.285 659.8 231.422 659.839 231.574 659.84C231.726 659.839 231.862 659.8 231.982 659.723C232.103 659.647 232.199 659.534 232.268 659.385C232.338 659.237 232.373 659.059 232.373 658.852C232.373 658.644 232.338 658.466 232.268 658.317C232.199 658.168 232.103 658.056 231.982 657.979C231.862 657.902 231.726 657.864 231.574 657.864C231.422 657.864 231.285 657.902 231.164 657.979C231.044 658.056 230.949 658.168 230.879 658.317C230.81 658.466 230.775 658.644 230.775 658.852ZM235.224 658.852C235.224 659.109 235.177 659.335 235.083 659.528C234.989 659.72 234.859 659.868 234.692 659.972C234.526 660.076 234.337 660.128 234.126 660.128C233.913 660.128 233.723 660.076 233.557 659.972C233.391 659.868 233.261 659.72 233.167 659.528C233.075 659.335 233.028 659.109 233.028 658.852C233.028 658.595 233.075 658.37 233.167 658.178C233.261 657.985 233.391 657.836 233.557 657.732C233.723 657.628 233.913 657.576 234.126 657.576C234.337 657.576 234.526 657.628 234.692 657.732C234.859 657.836 234.989 657.985 235.083 658.178C235.177 658.37 235.224 658.595 235.224 658.852ZM233.327 658.852C233.327 659.059 233.362 659.237 233.431 659.385C233.501 659.534 233.596 659.647 233.716 659.723C233.837 659.8 233.974 659.839 234.126 659.84C234.278 659.839 234.414 659.8 234.534 659.723C234.655 659.647 234.751 659.534 234.821 659.385C234.89 659.237 234.925 659.059 234.925 658.852C234.925 658.644 234.89 658.466 234.821 658.317C234.751 658.168 234.655 658.056 234.534 657.979C234.414 657.902 234.278 657.864 234.126 657.864C233.974 657.864 233.837 657.902 233.716 657.979C233.596 658.056 233.501 658.168 233.431 658.317C233.362 658.466 233.327 658.644 233.327 658.852ZM235.676 657.61H235.985V658.838H236.016L237.12 657.61H237.525L236.486 658.732L237.525 660.094H237.148L236.294 658.945L235.985 659.295V660.094H235.676V657.61ZM239.209 658.235C239.201 658.155 239.173 658.086 239.124 658.029C239.075 657.97 239.01 657.926 238.93 657.897C238.85 657.866 238.76 657.85 238.661 657.85C238.553 657.85 238.458 657.868 238.376 657.904C238.294 657.938 238.23 657.986 238.184 658.048C238.138 658.109 238.115 658.18 238.115 658.259C238.116 658.374 238.164 658.463 238.258 658.524C238.351 658.585 238.464 658.631 238.595 658.663L238.842 658.732C239.035 658.781 239.2 658.857 239.338 658.958C239.476 659.06 239.546 659.213 239.546 659.418C239.546 659.554 239.51 659.677 239.439 659.787C239.368 659.895 239.265 659.981 239.129 660.044C238.993 660.107 238.831 660.138 238.643 660.138C238.467 660.138 238.314 660.11 238.182 660.053C238.052 659.994 237.949 659.914 237.875 659.811C237.801 659.707 237.758 659.586 237.748 659.449H238.064C238.072 659.538 238.103 659.614 238.156 659.675C238.21 659.737 238.279 659.783 238.364 659.814C238.45 659.844 238.543 659.858 238.643 659.857C238.758 659.857 238.86 659.839 238.95 659.802C239.042 659.766 239.113 659.714 239.165 659.646C239.217 659.578 239.244 659.499 239.244 659.411C239.244 659.335 239.222 659.271 239.179 659.219C239.136 659.168 239.08 659.126 239.011 659.094C238.941 659.062 238.855 659.032 238.753 659.003L238.448 658.921C238.244 658.861 238.088 658.779 237.978 658.674C237.869 658.568 237.816 658.435 237.817 658.272C237.817 658.135 237.854 658.014 237.928 657.909C238.003 657.802 238.105 657.721 238.235 657.663C238.366 657.605 238.511 657.576 238.671 657.576C238.829 657.576 238.97 657.605 239.096 657.662C239.223 657.719 239.323 657.798 239.396 657.898C239.47 657.998 239.508 658.11 239.511 658.235H239.209Z" fill="#191F28"/>
<path d="M210.773 666.008C219.004 666.008 223.618 666.008 231.848 666.008" stroke="#191F28" stroke-width="1.22938" stroke-linecap="round"/>
<path d="M290.859 632.288H288.752V631.585C288.752 631.399 288.678 631.22 288.546 631.089C288.414 630.957 288.236 630.883 288.049 630.883H281.024C280.838 630.883 280.659 630.957 280.527 631.089C280.396 631.22 280.322 631.399 280.322 631.585V632.288H278.214C278.028 632.288 277.849 632.362 277.717 632.494C277.586 632.625 277.512 632.804 277.512 632.99V635.098C277.512 635.843 277.808 636.558 278.335 637.085C278.862 637.612 279.576 637.908 280.322 637.908H281.404C282.039 638.617 282.896 639.09 283.834 639.25V640.718H283.132C282.573 640.718 282.037 640.94 281.641 641.335C281.246 641.73 281.024 642.266 281.024 642.825V644.23C281.024 644.417 281.098 644.595 281.23 644.727C281.362 644.859 281.54 644.933 281.727 644.933H287.347C287.533 644.933 287.712 644.859 287.843 644.727C287.975 644.595 288.049 644.417 288.049 644.23V642.825C288.049 642.266 287.827 641.73 287.432 641.335C287.037 640.94 286.501 640.718 285.942 640.718H285.239V639.25C286.178 639.09 287.034 638.617 287.67 637.908H288.752C289.497 637.908 290.212 637.612 290.739 637.085C291.266 636.558 291.562 635.843 291.562 635.098V632.99C291.562 632.804 291.488 632.625 291.356 632.494C291.224 632.362 291.046 632.288 290.859 632.288V632.288ZM280.322 636.503C279.949 636.503 279.592 636.355 279.328 636.091C279.065 635.828 278.917 635.47 278.917 635.098V633.693H280.322V635.098C280.323 635.577 280.406 636.052 280.568 636.503H280.322ZM285.942 642.123C286.128 642.123 286.307 642.197 286.438 642.329C286.57 642.46 286.644 642.639 286.644 642.825V643.528H282.429V642.825C282.429 642.639 282.503 642.46 282.635 642.329C282.767 642.197 282.945 642.123 283.132 642.123H285.942ZM287.347 635.098C287.347 635.843 287.051 636.558 286.524 637.085C285.997 637.612 285.282 637.908 284.537 637.908C283.791 637.908 283.077 637.612 282.55 637.085C282.023 636.558 281.727 635.843 281.727 635.098V632.288H287.347V635.098ZM290.157 635.098C290.157 635.47 290.009 635.828 289.745 636.091C289.482 636.355 289.124 636.503 288.752 636.503H288.506C288.667 636.052 288.75 635.577 288.752 635.098V633.693H290.157V635.098Z" fill="#ADB5BD"/>
<path d="M273.891 656.087H273.204V652.593H272.329V655.74H271.672V649.461H272.329V652.004H273.204V649.325H273.891V656.087ZM268.314 650.14H270.85V650.721H269.031V653.853C269.471 653.851 269.857 653.837 270.189 653.812C270.524 653.786 270.865 653.74 271.212 653.672L271.265 654.261C270.888 654.339 270.515 654.391 270.148 654.419C269.783 654.444 269.323 654.459 268.767 654.464H268.314V650.14ZM280.924 652.827H278.2V653.393H280.154V654.917H276.215V655.475H280.343V656.019H275.513V654.419H279.445V653.913H275.506V653.393H277.491V652.827H274.774V652.291H280.924V652.827ZM275.076 651.483C275.506 651.461 275.89 651.403 276.227 651.31C276.564 651.217 276.837 651.096 277.045 650.948C277.254 650.799 277.382 650.631 277.43 650.442H275.385V649.891H277.491V649.295H278.2V649.891H280.313V650.442H278.257C278.304 650.631 278.431 650.799 278.638 650.948C278.846 651.096 279.121 651.217 279.46 651.31C279.802 651.403 280.19 651.461 280.622 651.483L280.404 652.027C279.8 651.982 279.274 651.872 278.826 651.699C278.379 651.525 278.052 651.294 277.845 651.004C277.639 651.294 277.311 651.525 276.86 651.699C276.413 651.872 275.886 651.982 275.28 652.027L275.076 651.483ZM282.35 651.597H283.648V649.974H284.305V651.861H285.203V649.461H285.89V655.762H285.203V652.457H284.305V654.419H281.671V649.974H282.35V651.597ZM283.648 653.823V652.178H282.35V653.823H283.648ZM286.576 649.325H287.263V656.087H286.576V649.325ZM291.557 650.284C291.557 650.641 291.672 650.988 291.9 651.325C292.129 651.662 292.434 651.95 292.814 652.189C293.196 652.425 293.602 652.583 294.032 652.661L293.7 653.257C293.338 653.179 292.992 653.051 292.663 652.872C292.333 652.693 292.04 652.476 291.783 652.219C291.529 651.96 291.331 651.675 291.187 651.363C291.041 651.672 290.84 651.956 290.584 652.215C290.327 652.472 290.034 652.69 289.704 652.868C289.375 653.047 289.029 653.176 288.667 653.257L288.35 652.661C288.775 652.58 289.175 652.422 289.55 652.185C289.927 651.946 290.23 651.66 290.459 651.325C290.688 650.988 290.802 650.641 290.802 650.284V649.77H291.557V650.284ZM288.123 654.6H294.312V655.196H288.123V654.6ZM300.288 653.498H295.579V649.884H300.22V650.465H296.304V651.378H300.077V651.944H296.304V652.925H300.288V653.498ZM294.802 654.645H300.99V655.234H294.802V654.645Z" fill="#ADB5BD"/>
<path d="M268.65 660.067H269.521C269.689 660.067 269.831 660.096 269.945 660.155C270.06 660.212 270.146 660.29 270.202 660.39C270.259 660.489 270.287 660.601 270.286 660.726C270.287 660.873 270.251 660.989 270.176 661.072C270.102 661.155 270.004 661.213 269.881 661.247V661.271C269.963 661.276 270.042 661.303 270.118 661.354C270.196 661.404 270.26 661.475 270.31 661.568C270.361 661.66 270.386 661.768 270.386 661.892C270.385 662.02 270.354 662.134 270.295 662.233C270.236 662.332 270.145 662.41 270.02 662.467C269.897 662.523 269.741 662.551 269.552 662.551H268.65V660.067ZM269.549 662.276C269.733 662.276 269.869 662.241 269.957 662.17C270.045 662.099 270.088 662.005 270.087 661.889C270.088 661.804 270.067 661.726 270.024 661.656C269.98 661.585 269.919 661.528 269.839 661.486C269.76 661.443 269.669 661.422 269.566 661.422H268.959V662.276H269.549ZM269.511 661.155C269.6 661.155 269.681 661.138 269.755 661.103C269.828 661.068 269.885 661.018 269.928 660.954C269.97 660.889 269.991 660.814 269.991 660.729C269.991 660.655 269.974 660.589 269.94 660.53C269.905 660.472 269.853 660.426 269.782 660.393C269.712 660.359 269.625 660.342 269.521 660.342H268.959V661.155H269.511ZM270.825 660.067H272.331V660.342H271.133V661.172H272.252V661.443H271.133V662.276H272.348V662.551H270.825V660.067ZM274.173 660.692C274.165 660.612 274.136 660.543 274.087 660.486C274.038 660.428 273.973 660.383 273.893 660.354C273.813 660.323 273.723 660.307 273.624 660.307C273.516 660.307 273.421 660.325 273.339 660.361C273.257 660.395 273.193 660.443 273.147 660.505C273.101 660.566 273.078 660.637 273.078 660.716C273.08 660.831 273.127 660.92 273.221 660.981C273.314 661.042 273.427 661.088 273.559 661.12L273.806 661.189C273.998 661.238 274.163 661.314 274.301 661.415C274.44 661.517 274.509 661.67 274.509 661.875C274.509 662.011 274.473 662.134 274.402 662.244C274.332 662.352 274.228 662.438 274.092 662.501C273.956 662.564 273.794 662.595 273.607 662.595C273.431 662.595 273.277 662.567 273.145 662.51C273.015 662.451 272.913 662.371 272.838 662.268C272.764 662.164 272.722 662.043 272.711 661.906H273.027C273.035 661.995 273.066 662.071 273.12 662.132C273.173 662.194 273.242 662.24 273.327 662.271C273.413 662.301 273.506 662.315 273.607 662.314C273.721 662.314 273.823 662.296 273.914 662.259C274.005 662.223 274.077 662.171 274.128 662.103C274.181 662.035 274.207 661.956 274.207 661.868C274.207 661.792 274.185 661.728 274.142 661.676C274.099 661.625 274.043 661.583 273.974 661.551C273.904 661.519 273.818 661.489 273.716 661.46L273.411 661.378C273.208 661.318 273.051 661.236 272.941 661.131C272.833 661.025 272.779 660.892 272.78 660.729C272.78 660.592 272.817 660.471 272.891 660.366C272.966 660.259 273.068 660.178 273.198 660.121C273.329 660.062 273.474 660.033 273.634 660.033C273.792 660.033 273.934 660.062 274.059 660.119C274.186 660.176 274.286 660.255 274.36 660.355C274.433 660.455 274.471 660.567 274.474 660.692H274.173ZM274.814 660.067H276.687V660.342H275.908V662.551H275.596V660.342H274.814V660.067ZM277.98 660.067H278.824C279.013 660.067 279.17 660.1 279.296 660.165C279.422 660.229 279.517 660.319 279.579 660.434C279.64 660.549 279.671 660.681 279.671 660.832C279.671 661.001 279.632 661.147 279.555 661.268C279.478 661.388 279.362 661.475 279.208 661.529L279.767 662.551H279.407L278.887 661.585C278.875 661.586 278.855 661.587 278.827 661.587H278.289V662.551H277.98V660.067ZM278.814 661.306C279.006 661.306 279.145 661.265 279.232 661.184C279.32 661.103 279.365 660.985 279.366 660.832C279.364 660.505 279.178 660.342 278.81 660.342H278.289V661.306H278.814ZM280.117 660.067H281.623V660.342H280.426V661.172H281.544V661.443H280.426V662.276H281.64V662.551H280.117V660.067ZM284.082 662.551H283.787L282.443 660.616H282.419V662.551H282.11V660.067H282.408L283.753 662.005H283.777V660.067H284.082V662.551ZM284.494 660.067H286.367V660.342H285.588V662.551H285.276V660.342H284.494V660.067ZM286.274 662.551L287.183 660.067H287.509L288.418 662.551H288.092L287.844 661.851H286.845L286.597 662.551H286.274ZM287.749 661.58L287.355 660.469H287.334L286.94 661.58H287.749ZM288.754 660.067H289.063V662.276H290.216V662.551H288.754V660.067ZM291.509 660.067H292.38C292.548 660.067 292.689 660.096 292.804 660.155C292.919 660.212 293.005 660.29 293.061 660.39C293.118 660.489 293.146 660.601 293.145 660.726C293.146 660.873 293.109 660.989 293.035 661.072C292.961 661.155 292.862 661.213 292.74 661.247V661.271C292.821 661.276 292.9 661.303 292.977 661.354C293.055 661.404 293.119 661.475 293.169 661.568C293.219 661.66 293.244 661.768 293.244 661.892C293.243 662.02 293.213 662.134 293.153 662.233C293.095 662.332 293.004 662.41 292.879 662.467C292.756 662.523 292.6 662.551 292.411 662.551H291.509V660.067ZM292.407 662.276C292.592 662.276 292.728 662.241 292.816 662.17C292.904 662.099 292.947 662.005 292.946 661.889C292.947 661.804 292.926 661.726 292.882 661.656C292.839 661.585 292.777 661.528 292.697 661.486C292.618 661.443 292.527 661.422 292.425 661.422H291.817V662.276H292.407ZM292.37 661.155C292.459 661.155 292.54 661.138 292.613 661.103C292.686 661.068 292.744 661.018 292.786 660.954C292.829 660.889 292.85 660.814 292.85 660.729C292.85 660.655 292.833 660.589 292.798 660.53C292.764 660.472 292.712 660.426 292.641 660.393C292.571 660.359 292.484 660.342 292.38 660.342H291.817V661.155H292.37ZM295.783 661.309C295.783 661.566 295.736 661.792 295.642 661.985C295.548 662.177 295.418 662.325 295.251 662.429C295.085 662.533 294.897 662.585 294.685 662.585C294.472 662.585 294.283 662.533 294.116 662.429C293.95 662.325 293.82 662.177 293.726 661.985C293.634 661.792 293.587 661.566 293.587 661.309C293.587 661.052 293.634 660.827 293.726 660.635C293.82 660.442 293.95 660.293 294.116 660.189C294.283 660.085 294.472 660.033 294.685 660.033C294.897 660.033 295.085 660.085 295.251 660.189C295.418 660.293 295.548 660.442 295.642 660.635C295.736 660.827 295.783 661.052 295.783 661.309ZM293.886 661.309C293.886 661.516 293.921 661.694 293.99 661.842C294.06 661.991 294.155 662.104 294.275 662.18C294.396 662.257 294.533 662.296 294.685 662.297C294.837 662.296 294.973 662.257 295.093 662.18C295.214 662.104 295.31 661.991 295.38 661.842C295.449 661.694 295.484 661.516 295.484 661.309C295.484 661.101 295.449 660.923 295.38 660.774C295.31 660.625 295.214 660.513 295.093 660.436C294.973 660.359 294.837 660.321 294.685 660.321C294.533 660.321 294.396 660.359 294.275 660.436C294.155 660.513 294.06 660.625 293.99 660.774C293.921 660.923 293.886 661.101 293.886 661.309ZM298.335 661.309C298.335 661.566 298.288 661.792 298.194 661.985C298.1 662.177 297.97 662.325 297.803 662.429C297.637 662.533 297.449 662.585 297.237 662.585C297.024 662.585 296.835 662.533 296.668 662.429C296.502 662.325 296.372 662.177 296.278 661.985C296.186 661.792 296.139 661.566 296.139 661.309C296.139 661.052 296.186 660.827 296.278 660.635C296.372 660.442 296.502 660.293 296.668 660.189C296.835 660.085 297.024 660.033 297.237 660.033C297.449 660.033 297.637 660.085 297.803 660.189C297.97 660.293 298.1 660.442 298.194 660.635C298.288 660.827 298.335 661.052 298.335 661.309ZM296.438 661.309C296.438 661.516 296.473 661.694 296.542 661.842C296.612 661.991 296.707 662.104 296.827 662.18C296.948 662.257 297.085 662.296 297.237 662.297C297.389 662.296 297.525 662.257 297.645 662.18C297.766 662.104 297.862 661.991 297.932 661.842C298.001 661.694 298.036 661.516 298.036 661.309C298.036 661.101 298.001 660.923 297.932 660.774C297.862 660.625 297.766 660.513 297.645 660.436C297.525 660.359 297.389 660.321 297.237 660.321C297.085 660.321 296.948 660.359 296.827 660.436C296.707 660.513 296.612 660.625 296.542 660.774C296.473 660.923 296.438 661.101 296.438 661.309ZM298.788 660.067H299.096V661.295H299.127L300.232 660.067H300.636L299.597 661.189L300.636 662.551H300.259L299.405 661.402L299.096 661.752V662.551H298.788V660.067Z" fill="#ADB5BD"/>
<g clip-path="url(#clip4_3140_8592)">
<path d="M345.656 637.906C347.012 637.906 348.115 636.803 348.115 635.447C348.115 634.091 347.012 632.988 345.656 632.988C344.3 632.988 343.197 634.091 343.197 635.447C343.197 636.803 344.3 637.906 345.656 637.906ZM345.656 634.393C346.239 634.393 346.71 634.864 346.71 635.447C346.71 636.03 346.239 636.501 345.656 636.501C345.073 636.501 344.602 636.03 344.602 635.447C344.602 634.864 345.073 634.393 345.656 634.393ZM345.691 641.418H342.684C343.38 641.067 344.581 640.716 345.656 640.716C345.733 640.716 345.817 640.723 345.895 640.723C346.133 640.21 346.548 639.788 347.047 639.451C346.534 639.36 346.049 639.311 345.656 639.311C344.012 639.311 340.738 640.133 340.738 641.77V642.823H345.656V641.77C345.656 641.65 345.67 641.531 345.691 641.418ZM350.925 639.662C349.632 639.662 347.061 640.372 347.061 641.77V642.823H354.788V641.77C354.788 640.372 352.217 639.662 350.925 639.662ZM351.775 638.383C352.308 638.081 352.681 637.512 352.681 636.852C352.681 635.883 351.894 635.096 350.925 635.096C349.955 635.096 349.168 635.883 349.168 636.852C349.168 637.512 349.541 638.081 350.075 638.383C350.327 638.524 350.615 638.608 350.925 638.608C351.234 638.608 351.522 638.524 351.775 638.383Z" fill="#ADB5BD"/>
</g>
<path d="M339.966 651.031H340.947V651.612H339.966V653.34H339.249V649.325H339.966V651.031ZM334.646 652.812C335.172 652.663 335.627 652.47 336.012 652.231C336.399 651.992 336.705 651.716 336.929 651.404C337.155 651.092 337.29 650.754 337.333 650.389H334.948V649.808H338.11C338.11 650.384 337.984 650.907 337.733 651.378C337.481 651.848 337.118 652.254 336.642 652.597C336.169 652.936 335.602 653.202 334.94 653.393L334.646 652.812ZM335.567 654.743C335.564 654.472 335.655 654.237 335.838 654.038C336.025 653.837 336.286 653.683 336.623 653.578C336.963 653.469 337.358 653.415 337.808 653.415C338.258 653.415 338.652 653.469 338.989 653.578C339.326 653.683 339.585 653.837 339.766 654.038C339.95 654.237 340.042 654.472 340.042 654.743C340.042 655.018 339.95 655.254 339.766 655.453C339.585 655.654 339.326 655.809 338.989 655.917C338.654 656.025 338.261 656.079 337.808 656.079C337.358 656.079 336.963 656.025 336.623 655.917C336.284 655.809 336.022 655.654 335.838 655.453C335.655 655.254 335.564 655.018 335.567 654.743ZM336.276 654.743C336.276 654.899 336.338 655.035 336.461 655.151C336.584 655.267 336.76 655.356 336.989 655.419C337.221 655.482 337.494 655.513 337.808 655.513C338.12 655.513 338.39 655.482 338.619 655.419C338.851 655.356 339.028 655.267 339.151 655.151C339.277 655.035 339.34 654.899 339.34 654.743C339.34 654.588 339.278 654.453 339.155 654.34C339.032 654.224 338.856 654.136 338.627 654.076C338.4 654.013 338.134 653.981 337.827 653.981C337.507 653.981 337.231 654.011 336.997 654.072C336.765 654.132 336.587 654.22 336.461 654.336C336.338 654.449 336.276 654.585 336.276 654.743ZM343.755 650.525C343.755 650.799 343.821 651.061 343.955 651.31C344.088 651.556 344.278 651.775 344.524 651.966C344.773 652.155 345.065 652.298 345.4 652.397L345.06 652.963C344.673 652.844 344.337 652.667 344.053 652.431C343.771 652.194 343.555 651.914 343.404 651.589C343.253 651.941 343.03 652.246 342.736 652.502C342.444 652.759 342.099 652.95 341.702 653.076L341.34 652.517C341.684 652.412 341.984 652.259 342.238 652.061C342.492 651.86 342.687 651.627 342.823 651.363C342.961 651.099 343.03 650.819 343.03 650.525V650.518H341.559V649.921H345.226V650.518H343.755V650.525ZM341.721 654.117C342.294 654.117 342.733 654.112 343.038 654.102V652.797H343.755V654.079C344.424 654.044 345 653.994 345.483 653.928L345.536 654.449C345.103 654.527 344.653 654.586 344.185 654.627C343.717 654.664 343.282 654.688 342.879 654.698C342.479 654.706 342.009 654.711 341.468 654.713H341.355L341.249 654.117H341.721ZM345.89 649.325H346.607V652.087H347.649V652.691H346.607V656.087H345.89V649.325ZM353.323 651.34H354.304V651.944H353.323V654.291H352.607V649.318H353.323V651.34ZM348.116 651.468C348.114 651.146 348.191 650.858 348.347 650.604C348.505 650.348 348.721 650.148 348.996 650.004C349.27 649.858 349.575 649.786 349.912 649.786C350.25 649.786 350.555 649.858 350.829 650.004C351.104 650.148 351.319 650.348 351.475 650.604C351.633 650.858 351.714 651.146 351.716 651.468C351.714 651.79 351.633 652.08 351.475 652.336C351.319 652.593 351.104 652.793 350.829 652.936C350.555 653.08 350.25 653.151 349.912 653.151C349.575 653.151 349.27 653.08 348.996 652.936C348.721 652.793 348.505 652.593 348.347 652.336C348.191 652.08 348.114 651.79 348.116 651.468ZM348.818 651.468C348.816 651.675 348.862 651.858 348.958 652.019C349.053 652.178 349.184 652.302 349.35 652.393C349.519 652.481 349.706 652.525 349.912 652.525C350.119 652.525 350.305 652.481 350.471 652.393C350.639 652.302 350.771 652.178 350.867 652.019C350.965 651.858 351.014 651.675 351.014 651.468C351.014 651.262 350.965 651.08 350.867 650.921C350.771 650.76 350.639 650.636 350.471 650.548C350.305 650.457 350.119 650.412 349.912 650.412C349.706 650.412 349.519 650.457 349.35 650.548C349.184 650.636 349.053 650.76 348.958 650.921C348.862 651.08 348.816 651.262 348.818 651.468ZM349.037 653.77H349.754V655.362H353.61V655.943H349.037V653.77ZM360.477 656.087H359.791V652.623H358.923V655.74H358.251V649.461H358.923V652.034H359.791V649.325H360.477V656.087ZM355.006 650.125H355.723V653.736C356.445 653.729 357.137 653.659 357.798 653.529L357.874 654.155C357.434 654.233 357.016 654.288 356.621 654.321C356.226 654.354 355.834 654.369 355.444 654.366H355.006V650.125Z" fill="#ADB5BD"/>
<path d="M341.045 660.849C341.023 660.739 340.977 660.644 340.91 660.565C340.842 660.485 340.76 660.424 340.663 660.383C340.567 660.342 340.463 660.321 340.353 660.321C340.2 660.321 340.064 660.359 339.943 660.436C339.823 660.513 339.728 660.625 339.658 660.774C339.588 660.923 339.553 661.101 339.553 661.309C339.553 661.516 339.588 661.694 339.658 661.842C339.728 661.991 339.823 662.104 339.943 662.18C340.064 662.257 340.2 662.296 340.353 662.297C340.463 662.296 340.567 662.275 340.663 662.235C340.759 662.194 340.841 662.134 340.908 662.055C340.976 661.976 341.021 661.882 341.045 661.772H341.354C341.324 661.938 341.263 662.083 341.169 662.206C341.075 662.328 340.957 662.422 340.816 662.487C340.675 662.552 340.521 662.585 340.353 662.585C340.14 662.585 339.95 662.533 339.783 662.429C339.617 662.325 339.488 662.177 339.394 661.985C339.301 661.792 339.255 661.566 339.255 661.309C339.255 661.052 339.301 660.827 339.394 660.635C339.488 660.442 339.617 660.293 339.783 660.189C339.95 660.085 340.14 660.033 340.353 660.033C340.521 660.033 340.675 660.066 340.816 660.131C340.956 660.195 341.073 660.289 341.167 660.412C341.262 660.534 341.324 660.68 341.354 660.849H341.045ZM343.721 660.067V661.71C343.721 661.88 343.681 662.032 343.601 662.167C343.521 662.3 343.408 662.406 343.261 662.482C343.115 662.558 342.946 662.595 342.754 662.595C342.562 662.595 342.392 662.558 342.246 662.482C342.1 662.406 341.986 662.3 341.906 662.167C341.826 662.032 341.786 661.88 341.786 661.71V660.067H342.095V661.686C342.095 661.806 342.121 661.913 342.174 662.007C342.227 662.101 342.303 662.175 342.402 662.228C342.503 662.281 342.62 662.307 342.754 662.307C342.887 662.307 343.004 662.281 343.104 662.228C343.203 662.175 343.279 662.101 343.332 662.007C343.384 661.913 343.411 661.806 343.412 661.686V660.067H343.721ZM344.27 660.067H344.579V662.276H345.731V662.551H344.27V660.067ZM345.676 660.067H347.549V660.342H346.77V662.551H346.458V660.342H345.676V660.067ZM349.895 660.067V661.71C349.895 661.88 349.855 662.032 349.775 662.167C349.695 662.3 349.582 662.406 349.436 662.482C349.289 662.558 349.12 662.595 348.928 662.595C348.736 662.595 348.567 662.558 348.42 662.482C348.274 662.406 348.161 662.3 348.081 662.167C348.001 662.032 347.961 661.88 347.961 661.71V660.067H348.269V661.686C348.269 661.806 348.296 661.913 348.348 662.007C348.401 662.101 348.477 662.175 348.576 662.228C348.677 662.281 348.794 662.307 348.928 662.307C349.062 662.307 349.178 662.281 349.278 662.228C349.377 662.175 349.453 662.101 349.506 662.007C349.559 661.913 349.585 661.806 349.587 661.686V660.067H349.895ZM350.444 660.067H351.288C351.477 660.067 351.634 660.1 351.76 660.165C351.887 660.229 351.981 660.319 352.043 660.434C352.104 660.549 352.135 660.681 352.135 660.832C352.135 661.001 352.096 661.147 352.019 661.268C351.942 661.388 351.826 661.475 351.672 661.529L352.231 662.551H351.871L351.351 661.585C351.339 661.586 351.319 661.587 351.291 661.587H350.753V662.551H350.444V660.067ZM351.278 661.306C351.47 661.306 351.609 661.265 351.696 661.184C351.784 661.103 351.829 660.985 351.83 660.832C351.828 660.505 351.642 660.342 351.274 660.342H350.753V661.306H351.278ZM352.368 662.551L353.277 660.067H353.603L354.512 662.551H354.186L353.938 661.851H352.94L352.691 662.551H352.368ZM353.843 661.58L353.449 660.469H353.428L353.034 661.58H353.843ZM354.848 660.067H355.157V662.276H356.31V662.551H354.848V660.067Z" fill="#ADB5BD"/>
</g>
<path d="M37.7547 29.8008H37.118L35.2355 27.0841H35.2026V29.8008H34.4891V25.8273H35.1367L37.0082 28.544H37.0467V25.8273H37.7547V29.8008ZM39.6141 25.8273H42.1991V26.4255H40.3276V27.5122H42.0619V28.1104H40.3276V29.1971H42.21V29.8008H39.6141V25.8273ZM43.7292 25.8273H44.4976L45.2165 28.7525H45.2549L46.0178 25.8273H46.7203L47.4887 28.758H47.5216L48.2406 25.8273H49.0089L47.8893 29.8008H47.1813L46.3855 27.0072H46.3581L45.5568 29.8008H44.8488L43.7292 25.8273ZM53.0461 25.8273H54.5664C54.8463 25.8273 55.0823 25.8712 55.2744 25.959C55.4683 26.0468 55.6128 26.1685 55.7079 26.324C55.8049 26.4795 55.8543 26.6578 55.8561 26.8591C55.8543 27.0896 55.7893 27.2762 55.6613 27.4189C55.535 27.5597 55.3677 27.6549 55.1591 27.7043V27.7427C55.3036 27.75 55.4408 27.7939 55.5707 27.8744C55.7024 27.9549 55.8085 28.0683 55.889 28.2147C55.9695 28.3592 56.0098 28.5275 56.0098 28.7196C56.0098 28.93 55.9586 29.1166 55.8561 29.2794C55.7555 29.4422 55.6037 29.5703 55.4006 29.6636C55.1975 29.755 54.9487 29.8008 54.6542 29.8008H53.0461V25.8273ZM54.5444 29.2026C54.795 29.2026 54.9807 29.155 55.1015 29.0599C55.2222 28.9629 55.2835 28.8312 55.2853 28.6647C55.2835 28.5458 55.2533 28.4388 55.1948 28.3436C55.1362 28.2485 55.0521 28.1735 54.9423 28.1186C54.8325 28.0619 54.7054 28.0336 54.5609 28.0336H53.7596V29.2026H54.5444ZM54.4786 27.5177C54.6048 27.5177 54.7173 27.4948 54.8161 27.4491C54.9167 27.4015 54.9963 27.3347 55.0548 27.2487C55.1134 27.1627 55.1426 27.0621 55.1426 26.9469C55.1408 26.7895 55.0841 26.6624 54.9725 26.5654C54.8609 26.4685 54.7017 26.42 54.495 26.42H53.7596V27.5177H54.4786ZM61.261 27.814C61.261 28.233 61.1823 28.5961 61.025 28.9034C60.8695 29.2108 60.6527 29.4468 60.3746 29.6114C60.0984 29.7743 59.7865 29.8557 59.4389 29.8557C59.0894 29.8557 58.7766 29.7743 58.5004 29.6114C58.2241 29.4468 58.0073 29.2108 57.85 28.9034C57.6945 28.5943 57.6168 28.2311 57.6168 27.814C57.6168 27.3951 57.6945 27.0319 57.85 26.7246C58.0073 26.4154 58.2241 26.1794 58.5004 26.0166C58.7766 25.8538 59.0894 25.7724 59.4389 25.7724C59.7865 25.7724 60.0984 25.8547 60.3746 26.0194C60.6527 26.1822 60.8695 26.4173 61.025 26.7246C61.1823 27.0319 61.261 27.3951 61.261 27.814ZM58.3357 27.814C58.3357 28.1104 58.3815 28.3638 58.4729 28.5741C58.5662 28.7845 58.6961 28.9437 58.8626 29.0516C59.0291 29.1596 59.2212 29.2135 59.4389 29.2135C59.6584 29.2135 59.8505 29.1596 60.0151 29.0516C60.1816 28.9437 60.3106 28.7845 60.4021 28.5741C60.4954 28.3638 60.542 28.1104 60.542 27.814C60.542 27.5177 60.4954 27.2643 60.4021 27.0539C60.3106 26.8435 60.1816 26.6844 60.0151 26.5764C59.8505 26.4685 59.6584 26.4145 59.4389 26.4145C59.2212 26.4145 59.0291 26.4685 58.8626 26.5764C58.6961 26.6844 58.5662 26.8435 58.4729 27.0539C58.3815 27.2643 58.3357 27.5177 58.3357 27.814ZM66.567 27.814C66.567 28.233 66.4884 28.5961 66.3311 28.9034C66.1756 29.2108 65.9588 29.4468 65.6807 29.6114C65.4044 29.7743 65.0925 29.8557 64.7449 29.8557C64.3955 29.8557 64.0827 29.7743 63.8064 29.6114C63.5302 29.4468 63.3134 29.2108 63.1561 28.9034C63.0006 28.5943 62.9228 28.2311 62.9228 27.814C62.9228 27.3951 63.0006 27.0319 63.1561 26.7246C63.3134 26.4154 63.5302 26.1794 63.8064 26.0166C64.0827 25.8538 64.3955 25.7724 64.7449 25.7724C65.0925 25.7724 65.4044 25.8547 65.6807 26.0194C65.9588 26.1822 66.1756 26.4173 66.3311 26.7246C66.4884 27.0319 66.567 27.3951 66.567 27.814ZM63.6418 27.814C63.6418 28.1104 63.6875 28.3638 63.779 28.5741C63.8723 28.7845 64.0022 28.9437 64.1687 29.0516C64.3351 29.1596 64.5272 29.2135 64.7449 29.2135C64.9645 29.2135 65.1566 29.1596 65.3212 29.0516C65.4877 28.9437 65.6167 28.7845 65.7081 28.5741C65.8014 28.3638 65.8481 28.1104 65.8481 27.814C65.8481 27.5177 65.8014 27.2643 65.7081 27.0539C65.6167 26.8435 65.4877 26.6844 65.3212 26.5764C65.1566 26.4685 64.9645 26.4145 64.7449 26.4145C64.5272 26.4145 64.3351 26.4685 64.1687 26.5764C64.0022 26.6844 63.8723 26.8435 63.779 27.0539C63.6875 27.2643 63.6418 27.5177 63.6418 27.814ZM68.3277 25.8273H69.0412V27.6549H69.0961L70.6492 25.8273H71.5219L69.9852 27.611L71.5383 29.8008H70.6767L69.4857 28.0939L69.0412 28.6153V29.8008H68.3277V25.8273Z" fill="#ADB5BD"/>
<path d="M44.0752 47.1794H42.308V36.7654H44.0752V47.1794ZM32.2095 43.8185C32.9564 43.5556 33.5928 43.1742 34.1188 42.6746C34.6447 42.1697 35.0392 41.5964 35.3022 40.9547C35.5704 40.3078 35.7019 39.6372 35.6967 38.9429V37.5544H37.5112V38.9429C37.506 39.6161 37.6322 40.2578 37.8899 40.8679C38.1529 41.478 38.5421 42.0198 39.0575 42.4931C39.573 42.9612 40.1989 43.3189 40.9352 43.5661L40.0358 44.9546C39.2364 44.6759 38.5474 44.2656 37.9688 43.7239C37.3903 43.1769 36.9406 42.5326 36.6197 41.791C36.2989 42.5904 35.8413 43.2847 35.247 43.8738C34.6526 44.4629 33.9452 44.9073 33.1247 45.2071L32.2095 43.8185ZM34.6395 46.1854H36.4067V49.3096H44.4697V50.7297H34.6395V46.1854ZM51.2861 39.8423C51.2809 40.3735 51.4071 40.8863 51.6648 41.3807C51.9278 41.8751 52.3144 42.3169 52.8246 42.7061C53.34 43.0901 53.9633 43.382 54.6944 43.5819L53.8739 44.9862C53.0744 44.7548 52.3828 44.405 51.7989 43.9369C51.2151 43.4688 50.7575 42.9165 50.4262 42.2801C50.1054 42.9796 49.6504 43.5845 49.0613 44.0947C48.4722 44.5996 47.7675 44.9757 46.947 45.2229L46.0949 43.8501C46.826 43.6397 47.4492 43.3294 47.9647 42.9192C48.4801 42.5089 48.8693 42.0382 49.1323 41.507C49.4006 40.9757 49.5347 40.4208 49.5347 39.8423V39.7318H46.5525V38.3433H49.5347V36.7023H51.3019V38.3433H54.2683V39.7318H51.2861V39.8423ZM47.9095 46.1223H57.4083V51.0295H55.6569V47.5266H47.9095V46.1223ZM55.6569 36.7496H57.4083V40.363H59.3964V41.8462H57.4083V45.4753H55.6569V36.7496ZM71.7039 44.6233H67.4752V47.8895H73.1556V49.3254H60.1223V47.8895H65.7395V44.6233H61.7002V37.8068H71.5935V39.2111H63.4516V43.2347H71.7039V44.6233ZM79.3566 40.1736C79.3514 41.0678 79.4881 41.9303 79.7669 42.7614C80.0457 43.5924 80.4506 44.3314 80.9819 44.9783C81.5183 45.62 82.1548 46.1012 82.8911 46.4221L81.8339 47.8264C81.045 47.4424 80.3665 46.8902 79.7985 46.1696C79.2304 45.449 78.7912 44.6101 78.4809 43.6529C78.1601 44.668 77.7078 45.5621 77.1239 46.3353C76.5401 47.1032 75.8485 47.6896 75.049 48.0946L73.9445 46.6745C74.6966 46.3221 75.3462 45.8067 75.8932 45.1282C76.4402 44.4497 76.8557 43.6792 77.1397 42.8166C77.4237 41.954 77.5684 41.073 77.5736 40.1736V37.9015H79.3566V40.1736ZM81.3132 41.3571H84.3112V36.7496H86.0469V51.0295H84.3112V42.7771H81.3132V41.3571Z" fill="white"/>
</g>
<defs>
<filter id="filter0_d_3140_8592" x="-7.00157" y="611.038" width="393.402" height="70.2492" filterUnits="userSpaceOnUse" color-interpolation-filters="sRGB">
<feFlood flood-opacity="0" result="BackgroundImageFix"/>
<feColorMatrix in="SourceAlpha" type="matrix" values="0 0 0 0 0 0 0 0 0 0 0 0 0 0 0 0 0 0 127 0" result="hardAlpha"/>
<feOffset dy="-0.35125"/>
<feGaussianBlur stdDeviation="3.5125"/>
<feComposite in2="hardAlpha" operator="out"/>
<feColorMatrix type="matrix" values="0 0 0 0 0 0 0 0 0 0 0 0 0 0 0 0 0 0 0.1 0"/>
<feBlend mode="normal" in2="BackgroundImageFix" result="effect1_dropShadow_3140_8592"/>
<feBlend mode="normal" in="SourceGraphic" in2="effect1_dropShadow_3140_8592" result="shape"/>
</filter>
<linearGradient id="paint0_linear_3140_8592" x1="19.7812" y1="0.214844" x2="94.8517" y2="167.678" gradientUnits="userSpaceOnUse">
<stop stop-color="#315FAD"/>
<stop offset="1" stop-color="#2A4F8C"/>
</linearGradient>
<clipPath id="clip0_3140_8592">
<rect width="379.35" height="674.401" fill="white" transform="translate(0.0234375 0.214844)"/>
</clipPath>
<clipPath id="clip1_3140_8592">
<rect width="16.86" height="16.86" fill="white" transform="translate(23.207 629.477)"/>
</clipPath>
<clipPath id="clip2_3140_8592">
<rect width="16.86" height="16.86" fill="white" transform="translate(86.4336 629.477)"/>
</clipPath>
<clipPath id="clip3_3140_8592">
<rect width="16.86" height="16.86" fill="white" transform="translate(149.656 629.477)"/>
</clipPath>
<clipPath id="clip4_3140_8592">
<rect width="16.86" height="16.86" fill="white" transform="translate(339.332 629.477)"/>
</clipPath>
</defs>
</svg>
