<svg width="3840" height="2160" viewBox="0 0 3840 2160" fill="none" xmlns="http://www.w3.org/2000/svg">
<g clip-path="url(#clip0_2498_7277)">
<rect width="3840" height="2160" fill="#F5F0EE"/>
<rect x="320" width="1760" height="760" fill="url(#paint0_linear_2498_7277)"/>
<g filter="url(#filter0_d_2498_7277)">
<rect width="320" height="2160" fill="white"/>
<g clip-path="url(#clip1_2498_7277)">
<path d="M160 169.5C164.4 169.5 168 165.9 168 161.5H152C152 165.9 155.6 169.5 160 169.5ZM184 145.5V125.5C184 113.22 177.48 102.94 166 100.22V97.5C166 94.18 163.32 91.5 160 91.5C156.68 91.5 154 94.18 154 97.5V100.22C142.56 102.94 136 113.18 136 125.5V145.5L128 153.5V157.5H192V153.5L184 145.5ZM176 149.5H144V125.5C144 115.58 150.04 107.5 160 107.5C169.96 107.5 176 115.58 176 125.5V149.5Z" fill="#ADB5BD"/>
</g>
<path d="M102.723 220.844C105.487 220.844 107.893 221.13 109.941 221.703C111.99 222.262 113.565 223.078 114.668 224.152C115.785 225.227 116.344 226.501 116.344 227.977C116.344 229.452 115.785 230.719 114.668 231.779C113.565 232.854 111.99 233.67 109.941 234.229C107.893 234.787 105.487 235.066 102.723 235.066C99.987 235.066 97.5951 234.787 95.5469 234.229C93.513 233.67 91.9447 232.854 90.8418 231.779C89.7389 230.719 89.1875 229.452 89.1875 227.977C89.1875 226.501 89.7389 225.227 90.8418 224.152C91.9447 223.078 93.513 222.262 95.5469 221.703C97.5807 221.13 99.9727 220.844 102.723 220.844ZM85.4062 214.355H99.457V207.137H103.453V214.355H120.426V217.664H85.4062V214.355ZM89.4883 198.543H116.043V201.766V202.904C116.043 204.566 115.971 206.105 115.828 207.523C115.699 208.927 115.413 210.417 114.969 211.992L110.973 211.562C111.431 209.815 111.717 208.247 111.832 206.857C111.947 205.454 112.004 203.771 112.004 201.809H89.4883V198.543ZM93.2695 227.977C93.2552 228.793 93.6276 229.502 94.3867 230.104C95.1602 230.691 96.2559 231.142 97.6738 231.457C99.1061 231.772 100.789 231.93 102.723 231.93C104.685 231.93 106.382 231.772 107.814 231.457C109.247 231.142 110.35 230.691 111.123 230.104C111.896 229.502 112.29 228.793 112.305 227.977C112.29 227.146 111.896 226.43 111.123 225.828C110.35 225.212 109.247 224.747 107.814 224.432C106.382 224.102 104.685 223.938 102.723 223.938C100.789 223.938 99.1061 224.102 97.6738 224.432C96.2559 224.747 95.1602 225.212 94.3867 225.828C93.6276 226.43 93.2552 227.146 93.2695 227.977ZM137.57 207.996C137.57 210.116 138 212.221 138.859 214.312C139.733 216.404 140.936 218.273 142.469 219.92C144.016 221.567 145.763 222.806 147.711 223.637L145.477 226.816C143.228 225.828 141.237 224.331 139.504 222.326C137.771 220.321 136.453 218.022 135.551 215.43C134.648 218.208 133.331 220.693 131.598 222.885C129.865 225.076 127.888 226.716 125.668 227.805L123.305 224.582C125.21 223.694 126.928 222.369 128.461 220.607C130.008 218.831 131.218 216.833 132.092 214.613C132.98 212.393 133.431 210.188 133.445 207.996V203.914H124.637V200.52H146.336V203.914H137.57V207.996ZM151.191 196.652H155.273V235.152H151.191V196.652ZM174.781 206.449C174.767 208.698 175.168 210.925 175.984 213.131C176.801 215.337 177.947 217.313 179.422 219.061C180.897 220.794 182.573 222.118 184.449 223.035L181.914 226.301C179.852 225.212 178.025 223.658 176.436 221.639C174.86 219.605 173.643 217.285 172.783 214.678C171.91 217.456 170.649 219.934 169.002 222.111C167.369 224.274 165.471 225.914 163.309 227.031L160.773 223.723C162.707 222.792 164.426 221.417 165.93 219.598C167.434 217.779 168.601 215.716 169.432 213.41C170.277 211.104 170.699 208.784 170.699 206.449V199.875H174.781V206.449ZM187.328 196.652H191.41V211.992H197.598V215.473H191.41V235.152H187.328V196.652ZM229.695 207.094H235.281V210.531H229.695V221.359H225.613V196.652H229.695V207.094ZM199.488 200.777H208.941V196.352H213.023V200.777H222.434V204H199.488V200.777ZM201.594 212.637C201.594 211.276 201.98 210.08 202.754 209.049C203.527 208.003 204.623 207.194 206.041 206.621C207.459 206.048 209.099 205.762 210.961 205.762C212.794 205.762 214.413 206.048 215.816 206.621C217.234 207.194 218.33 208.003 219.104 209.049C219.891 210.08 220.285 211.276 220.285 212.637C220.285 213.997 219.891 215.193 219.104 216.225C218.33 217.242 217.234 218.029 215.816 218.588C214.413 219.146 212.794 219.426 210.961 219.426C209.113 219.426 207.473 219.146 206.041 218.588C204.623 218.029 203.527 217.242 202.754 216.225C201.98 215.193 201.594 213.997 201.594 212.637ZM204.645 228.406C204.63 227.003 205.132 225.799 206.148 224.797C207.165 223.78 208.633 223.007 210.553 222.477C212.486 221.932 214.771 221.66 217.406 221.66C220.013 221.66 222.269 221.932 224.174 222.477C226.093 223.007 227.561 223.78 228.578 224.797C229.609 225.799 230.125 227.003 230.125 228.406C230.125 229.796 229.609 230.992 228.578 231.994C227.561 232.997 226.093 233.756 224.174 234.271C222.269 234.801 220.013 235.066 217.406 235.066C214.771 235.066 212.493 234.801 210.574 234.271C208.655 233.756 207.18 232.997 206.148 231.994C205.132 230.992 204.63 229.796 204.645 228.406ZM205.547 212.637C205.533 213.382 205.747 214.033 206.191 214.592C206.635 215.15 207.266 215.58 208.082 215.881C208.913 216.182 209.872 216.332 210.961 216.332C212.608 216.332 213.933 216.003 214.936 215.344C215.938 214.671 216.447 213.768 216.461 212.637C216.447 211.863 216.21 211.19 215.752 210.617C215.294 210.044 214.649 209.6 213.818 209.285C213.002 208.97 212.049 208.812 210.961 208.812C209.872 208.812 208.92 208.97 208.104 209.285C207.287 209.6 206.65 210.044 206.191 210.617C205.747 211.19 205.533 211.863 205.547 212.637ZM208.684 228.406C208.669 229.538 209.428 230.419 210.961 231.049C212.493 231.665 214.642 231.973 217.406 231.973C220.142 231.973 222.269 231.665 223.787 231.049C225.305 230.419 226.072 229.538 226.086 228.406C226.072 227.246 225.305 226.358 223.787 225.742C222.283 225.126 220.156 224.811 217.406 224.797C214.613 224.811 212.458 225.126 210.939 225.742C209.421 226.358 208.669 227.246 208.684 228.406Z" fill="#ADB5BD"/>
<path d="M137.48 273.5H135.801L128.145 262.484H128.008V273.5H126.25V259.359H127.949L135.605 270.395H135.742V259.359H137.48V273.5ZM152.559 266.43C152.559 267.895 152.292 269.177 151.758 270.277C151.224 271.371 150.482 272.214 149.531 272.807C148.587 273.399 147.513 273.695 146.309 273.695C145.098 273.695 144.017 273.399 143.066 272.807C142.122 272.214 141.383 271.371 140.85 270.277C140.322 269.177 140.059 267.895 140.059 266.43C140.059 264.965 140.322 263.686 140.85 262.592C141.383 261.492 142.122 260.645 143.066 260.053C144.017 259.46 145.098 259.164 146.309 259.164C147.513 259.164 148.587 259.46 149.531 260.053C150.482 260.645 151.224 261.492 151.758 262.592C152.292 263.686 152.559 264.965 152.559 266.43ZM141.758 266.43C141.758 267.608 141.956 268.62 142.354 269.467C142.751 270.313 143.291 270.954 143.975 271.391C144.665 271.827 145.443 272.048 146.309 272.055C147.174 272.048 147.949 271.827 148.633 271.391C149.323 270.954 149.867 270.313 150.264 269.467C150.661 268.62 150.859 267.608 150.859 266.43C150.859 265.245 150.661 264.229 150.264 263.383C149.867 262.536 149.323 261.895 148.633 261.459C147.949 261.023 147.174 260.805 146.309 260.805C145.443 260.805 144.665 261.023 143.975 261.459C143.291 261.895 142.751 262.536 142.354 263.383C141.956 264.229 141.758 265.245 141.758 266.43ZM153.77 259.359H164.434V260.922H160V273.5H158.223V260.922H153.77V259.359ZM168.535 273.5H166.777V259.359H168.535V273.5ZM181.309 263.812C181.178 263.181 180.921 262.641 180.537 262.191C180.153 261.736 179.684 261.391 179.131 261.156C178.584 260.922 177.995 260.805 177.363 260.805C176.497 260.805 175.719 261.023 175.029 261.459C174.346 261.895 173.805 262.536 173.408 263.383C173.011 264.229 172.812 265.245 172.812 266.43C172.812 267.608 173.011 268.62 173.408 269.467C173.805 270.313 174.346 270.954 175.029 271.391C175.719 271.827 176.497 272.048 177.363 272.055C177.995 272.048 178.584 271.931 179.131 271.703C179.678 271.469 180.143 271.127 180.527 270.678C180.911 270.229 181.172 269.691 181.309 269.066H183.066C182.897 270.01 182.546 270.834 182.012 271.537C181.478 272.234 180.807 272.768 180 273.139C179.199 273.51 178.32 273.695 177.363 273.695C176.152 273.695 175.072 273.399 174.121 272.807C173.177 272.214 172.438 271.371 171.904 270.277C171.377 269.177 171.113 267.895 171.113 266.43C171.113 264.965 171.377 263.686 171.904 262.592C172.438 261.492 173.177 260.645 174.121 260.053C175.072 259.46 176.152 259.164 177.363 259.164C178.32 259.164 179.199 259.35 180 259.721C180.801 260.085 181.468 260.619 182.002 261.322C182.542 262.019 182.897 262.849 183.066 263.812H181.309ZM185.527 259.359H194.102V260.922H187.285V265.648H193.652V267.191H187.285V271.938H194.199V273.5H185.527V259.359Z" fill="#6B7684"/>
<g clip-path="url(#clip2_2498_7277)">
<path d="M141.579 485.958H134.211V511.858H141.579V485.958ZM163.684 485.958H156.316V511.858H163.684V485.958ZM195 519.258H125V526.658H195V519.258ZM185.789 485.958H178.421V511.858H185.789V485.958ZM160 461.02L179.195 471.158H140.805L160 461.02ZM160 452.658L125 471.158V478.558H195V471.158L160 452.658Z" fill="#ADB5BD"/>
</g>
<path d="M117.246 595.238H113.164V556.652H117.246V595.238ZM86.6953 573.023C86.6953 570.331 87.1178 567.967 87.9629 565.934C88.8079 563.885 89.9824 562.31 91.4863 561.207C93.0046 560.09 94.7305 559.531 96.6641 559.531C98.569 559.531 100.273 560.09 101.777 561.207C103.281 562.31 104.456 563.885 105.301 565.934C106.16 567.967 106.59 570.331 106.59 573.023C106.59 575.745 106.16 578.13 105.301 580.178C104.456 582.226 103.281 583.801 101.777 584.904C100.273 586.007 98.569 586.559 96.6641 586.559C94.7305 586.559 93.0046 586.007 91.4863 584.904C89.9824 583.801 88.8079 582.226 87.9629 580.178C87.1178 578.13 86.6953 575.745 86.6953 573.023ZM90.6484 573.023C90.6484 575.029 90.8991 576.776 91.4004 578.266C91.9017 579.755 92.6035 580.901 93.5059 581.703C94.4225 582.505 95.4753 582.906 96.6641 582.906C97.8385 582.906 98.877 582.505 99.7793 581.703C100.682 580.901 101.383 579.755 101.885 578.266C102.386 576.776 102.637 575.029 102.637 573.023C102.637 571.047 102.386 569.321 101.885 567.846C101.383 566.356 100.682 565.21 99.7793 564.408C98.877 563.592 97.8385 563.184 96.6641 563.184C95.4753 563.184 94.4225 563.592 93.5059 564.408C92.6035 565.21 91.9017 566.356 91.4004 567.846C90.8991 569.321 90.6484 571.047 90.6484 573.023ZM158.496 578.738H123.391V575.43H131.812V570.252C130.294 569.636 129.134 568.848 128.332 567.889C127.544 566.929 127.158 565.819 127.172 564.559C127.172 563.055 127.723 561.758 128.826 560.67C129.943 559.581 131.533 558.758 133.596 558.199C135.673 557.626 138.115 557.34 140.922 557.34C143.729 557.34 146.164 557.626 148.227 558.199C150.289 558.758 151.879 559.581 152.996 560.67C154.113 561.758 154.672 563.055 154.672 564.559C154.658 565.819 154.249 566.936 153.447 567.91C152.645 568.87 151.492 569.658 149.988 570.273V575.43H158.496V578.738ZM127.559 588.191C127.559 586.73 128.089 585.492 129.148 584.475C130.208 583.458 131.734 582.684 133.725 582.154C135.73 581.624 138.129 581.359 140.922 581.359C143.672 581.359 146.042 581.624 148.033 582.154C150.024 582.684 151.549 583.465 152.609 584.496C153.669 585.513 154.199 586.745 154.199 588.191C154.199 589.652 153.669 590.898 152.609 591.93C151.549 592.961 150.024 593.742 148.033 594.271C146.057 594.801 143.686 595.066 140.922 595.066C138.129 595.066 135.73 594.801 133.725 594.271C131.734 593.742 130.208 592.961 129.148 591.93C128.089 590.913 127.559 589.667 127.559 588.191ZM131.383 564.559C131.368 565.833 132.199 566.822 133.875 567.523C135.551 568.225 137.9 568.583 140.922 568.598C143.93 568.583 146.271 568.225 147.947 567.523C149.637 566.822 150.475 565.833 150.461 564.559C150.461 563.714 150.081 562.983 149.322 562.367C148.563 561.751 147.467 561.286 146.035 560.971C144.603 560.641 142.898 560.477 140.922 560.477C137.914 560.491 135.565 560.856 133.875 561.572C132.199 562.274 131.368 563.27 131.383 564.559ZM131.684 588.191C131.669 589.395 132.471 590.326 134.09 590.984C135.708 591.629 137.986 591.944 140.922 591.93C143.829 591.958 146.085 591.643 147.689 590.984C149.308 590.326 150.117 589.395 150.117 588.191C150.117 587.017 149.308 586.107 147.689 585.463C146.085 584.818 143.829 584.496 140.922 584.496C137.971 584.496 135.687 584.818 134.068 585.463C132.464 586.107 131.669 587.017 131.684 588.191ZM145.949 575.43V571.326C144.402 571.57 142.727 571.691 140.922 571.691C139.203 571.691 137.542 571.577 135.938 571.348V575.43H145.949ZM191.668 568.125H197.254V571.562H191.668V584.926H187.586V556.609H191.668V568.125ZM162.02 568.855C162.005 567.022 162.442 565.382 163.33 563.936C164.232 562.475 165.464 561.336 167.025 560.52C168.587 559.689 170.327 559.273 172.246 559.273C174.165 559.273 175.906 559.689 177.467 560.52C179.028 561.336 180.253 562.475 181.141 563.936C182.043 565.382 182.501 567.022 182.516 568.855C182.501 570.689 182.043 572.336 181.141 573.797C180.253 575.258 179.028 576.396 177.467 577.213C175.906 578.029 174.165 578.438 172.246 578.438C170.327 578.438 168.587 578.029 167.025 577.213C165.464 576.396 164.232 575.258 163.33 573.797C162.442 572.336 162.005 570.689 162.02 568.855ZM166.016 568.855C166.001 570.03 166.266 571.076 166.811 571.992C167.355 572.895 168.1 573.604 169.045 574.119C170.005 574.62 171.072 574.871 172.246 574.871C173.421 574.871 174.48 574.62 175.426 574.119C176.385 573.604 177.137 572.895 177.682 571.992C178.24 571.076 178.52 570.03 178.52 568.855C178.52 567.681 178.24 566.643 177.682 565.74C177.137 564.824 176.385 564.115 175.426 563.613C174.48 563.098 173.421 562.84 172.246 562.84C171.072 562.84 170.005 563.098 169.045 563.613C168.1 564.115 167.355 564.824 166.811 565.74C166.266 566.643 166.001 567.681 166.016 568.855ZM167.262 581.961H171.344V591.027H193.301V594.336H167.262V581.961ZM232.402 595.152H228.492V575.43H223.551V593.176H219.727V557.426H223.551V572.078H228.492V556.652H232.402V595.152ZM201.25 561.207H205.332V581.768C209.443 581.725 213.382 581.331 217.148 580.586L217.578 584.152C215.072 584.596 212.694 584.911 210.445 585.098C208.197 585.284 205.962 585.37 203.742 585.355H201.25V561.207Z" fill="#ADB5BD"/>
<path d="M97.6367 633.5H95.8789V619.359H97.6367V633.5ZM111.992 633.5H110.312L102.656 622.484H102.52V633.5H100.762V619.359H102.461L110.117 630.395H110.254V619.359H111.992V633.5ZM115.117 619.359H123.633V620.922H116.875V625.648H122.988V627.191H116.875V633.5H115.117V619.359ZM138.203 626.43C138.203 627.895 137.936 629.177 137.402 630.277C136.868 631.371 136.126 632.214 135.176 632.807C134.232 633.399 133.158 633.695 131.953 633.695C130.742 633.695 129.661 633.399 128.711 632.807C127.767 632.214 127.028 631.371 126.494 630.277C125.967 629.177 125.703 627.895 125.703 626.43C125.703 624.965 125.967 623.686 126.494 622.592C127.028 621.492 127.767 620.645 128.711 620.053C129.661 619.46 130.742 619.164 131.953 619.164C133.158 619.164 134.232 619.46 135.176 620.053C136.126 620.645 136.868 621.492 137.402 622.592C137.936 623.686 138.203 624.965 138.203 626.43ZM127.402 626.43C127.402 627.608 127.601 628.62 127.998 629.467C128.395 630.313 128.936 630.954 129.619 631.391C130.309 631.827 131.087 632.048 131.953 632.055C132.819 632.048 133.594 631.827 134.277 631.391C134.967 630.954 135.511 630.313 135.908 629.467C136.305 628.62 136.504 627.608 136.504 626.43C136.504 625.245 136.305 624.229 135.908 623.383C135.511 622.536 134.967 621.895 134.277 621.459C133.594 621.023 132.819 620.805 131.953 620.805C131.087 620.805 130.309 621.023 129.619 621.459C128.936 621.895 128.395 622.536 127.998 623.383C127.601 624.229 127.402 625.245 127.402 626.43ZM140.781 619.359H145.586C146.66 619.359 147.555 619.545 148.271 619.916C148.994 620.281 149.531 620.792 149.883 621.449C150.234 622.1 150.41 622.855 150.41 623.715C150.41 624.678 150.189 625.505 149.746 626.195C149.31 626.879 148.652 627.374 147.773 627.68L150.957 633.5H148.906L145.947 628.002C145.876 628.008 145.762 628.012 145.605 628.012H142.539V633.5H140.781V619.359ZM145.527 626.41C146.621 626.41 147.415 626.179 147.91 625.717C148.411 625.255 148.665 624.587 148.672 623.715C148.659 621.853 147.604 620.922 145.508 620.922H142.539V626.41H145.527ZM155.059 619.359L159.824 631H160L164.766 619.359H166.875V633.5H165.215V622.816H165.078L160.684 633.5H159.121L154.727 622.816H154.609V633.5H152.949V619.359H155.059ZM168.789 633.5L173.965 619.359H175.82L180.996 633.5H179.141L177.725 629.516H172.041L170.625 633.5H168.789ZM177.188 627.973L174.941 621.645H174.824L172.578 627.973H177.188ZM180.469 619.359H191.133V620.922H186.699V633.5H184.922V620.922H180.469V619.359ZM195.234 633.5H193.477V619.359H195.234V633.5ZM210.312 626.43C210.312 627.895 210.046 629.177 209.512 630.277C208.978 631.371 208.236 632.214 207.285 632.807C206.341 633.399 205.267 633.695 204.062 633.695C202.852 633.695 201.771 633.399 200.82 632.807C199.876 632.214 199.137 631.371 198.604 630.277C198.076 629.177 197.812 627.895 197.812 626.43C197.812 624.965 198.076 623.686 198.604 622.592C199.137 621.492 199.876 620.645 200.82 620.053C201.771 619.46 202.852 619.164 204.062 619.164C205.267 619.164 206.341 619.46 207.285 620.053C208.236 620.645 208.978 621.492 209.512 622.592C210.046 623.686 210.312 624.965 210.312 626.43ZM199.512 626.43C199.512 627.608 199.71 628.62 200.107 629.467C200.505 630.313 201.045 630.954 201.729 631.391C202.419 631.827 203.197 632.048 204.062 632.055C204.928 632.048 205.703 631.827 206.387 631.391C207.077 630.954 207.62 630.313 208.018 629.467C208.415 628.62 208.613 627.608 208.613 626.43C208.613 625.245 208.415 624.229 208.018 623.383C207.62 622.536 207.077 621.895 206.387 621.459C205.703 621.023 204.928 620.805 204.062 620.805C203.197 620.805 202.419 621.023 201.729 621.459C201.045 621.895 200.505 622.536 200.107 623.383C199.71 624.229 199.512 625.245 199.512 626.43ZM224.121 633.5H222.441L214.785 622.484H214.648V633.5H212.891V619.359H214.59L222.246 630.395H222.383V619.359H224.121V633.5Z" fill="#ADB5BD"/>
<g clip-path="url(#clip3_2498_7277)">
<path d="M160 809.5C144.52 809.5 132 822.02 132 837.5C132 858.5 160 889.5 160 889.5C160 889.5 188 858.5 188 837.5C188 822.02 175.48 809.5 160 809.5ZM140 837.5C140 826.46 148.96 817.5 160 817.5C171.04 817.5 180 826.46 180 837.5C180 849.02 168.48 866.26 160 877.02C151.68 866.34 140 848.9 140 837.5Z" fill="#ADB5BD"/>
<path d="M160 847.5C165.523 847.5 170 843.023 170 837.5C170 831.977 165.523 827.5 160 827.5C154.477 827.5 150 831.977 150 837.5C150 843.023 154.477 847.5 160 847.5Z" fill="#ADB5BD"/>
</g>
<path d="M99.5 926.449C99.4857 928.77 99.9082 931.054 100.768 933.303C101.641 935.551 102.852 937.549 104.398 939.297C105.96 941.03 107.721 942.333 109.684 943.207L107.234 946.43C105.043 945.384 103.102 943.837 101.412 941.789C99.722 939.741 98.4186 937.392 97.502 934.742C96.5996 937.607 95.2819 940.135 93.5488 942.326C91.8301 944.518 89.832 946.172 87.5547 947.289L85.0625 943.852C87.0534 942.978 88.8294 941.639 90.3906 939.834C91.9518 938.015 93.1693 935.938 94.043 933.604C94.931 931.255 95.375 928.87 95.375 926.449V919.875H99.5V926.449ZM113.164 916.652H117.246V955.238H113.164V916.652ZM155.488 936.461H151.406V926.578H143.285V923.27H151.406V916.652H155.488V936.461ZM123.262 933.367C125.238 932.737 126.95 931.82 128.396 930.617C129.843 929.4 130.953 927.989 131.727 926.385C132.5 924.766 132.887 923.055 132.887 921.25V917.898H136.926V921.25C136.926 922.883 137.298 924.451 138.043 925.955C138.802 927.445 139.883 928.77 141.287 929.93C142.691 931.076 144.345 931.949 146.25 932.551L144.102 935.73C142.01 935 140.177 933.94 138.602 932.551C137.04 931.161 135.83 929.543 134.971 927.695C134.126 929.801 132.887 931.627 131.254 933.174C129.635 934.706 127.702 935.859 125.453 936.633L123.262 933.367ZM130.309 938.266H155.488V947.848H134.391V951.414H156.82V954.68H130.395V944.754H151.449V941.488H130.309V938.266ZM191.668 928.125H197.254V931.562H191.668V944.926H187.586V916.609H191.668V928.125ZM162.02 928.855C162.005 927.022 162.442 925.382 163.33 923.936C164.232 922.475 165.464 921.336 167.025 920.52C168.587 919.689 170.327 919.273 172.246 919.273C174.165 919.273 175.906 919.689 177.467 920.52C179.028 921.336 180.253 922.475 181.141 923.936C182.043 925.382 182.501 927.022 182.516 928.855C182.501 930.689 182.043 932.336 181.141 933.797C180.253 935.258 179.028 936.396 177.467 937.213C175.906 938.029 174.165 938.438 172.246 938.438C170.327 938.438 168.587 938.029 167.025 937.213C165.464 936.396 164.232 935.258 163.33 933.797C162.442 932.336 162.005 930.689 162.02 928.855ZM166.016 928.855C166.001 930.03 166.266 931.076 166.811 931.992C167.355 932.895 168.1 933.604 169.045 934.119C170.005 934.62 171.072 934.871 172.246 934.871C173.421 934.871 174.48 934.62 175.426 934.119C176.385 933.604 177.137 932.895 177.682 931.992C178.24 931.076 178.52 930.03 178.52 928.855C178.52 927.681 178.24 926.643 177.682 925.74C177.137 924.824 176.385 924.115 175.426 923.613C174.48 923.098 173.421 922.84 172.246 922.84C171.072 922.84 170.005 923.098 169.045 923.613C168.1 924.115 167.355 924.824 166.811 925.74C166.266 926.643 166.001 927.681 166.016 928.855ZM167.262 941.961H171.344V951.027H193.301V954.336H167.262V941.961ZM232.402 955.152H228.492V935.43H223.551V953.176H219.727V917.426H223.551V932.078H228.492V916.652H232.402V955.152ZM201.25 921.207H205.332V941.768C209.443 941.725 213.382 941.331 217.148 940.586L217.578 944.152C215.072 944.596 212.694 944.911 210.445 945.098C208.197 945.284 205.962 945.37 203.742 945.355H201.25V921.207Z" fill="#ADB5BD"/>
<path d="M121.162 979.359H129.678V980.922H122.92V985.648H129.033V987.191H122.92V993.5H121.162V979.359ZM129.307 993.5L134.482 979.359H136.338L141.514 993.5H139.658L138.242 989.516H132.559L131.143 993.5H129.307ZM137.705 987.973L135.459 981.645H135.342L133.096 987.973H137.705ZM152.412 983.812C152.282 983.181 152.025 982.641 151.641 982.191C151.257 981.736 150.788 981.391 150.234 981.156C149.688 980.922 149.098 980.805 148.467 980.805C147.601 980.805 146.823 981.023 146.133 981.459C145.449 981.895 144.909 982.536 144.512 983.383C144.115 984.229 143.916 985.245 143.916 986.43C143.916 987.608 144.115 988.62 144.512 989.467C144.909 990.313 145.449 990.954 146.133 991.391C146.823 991.827 147.601 992.048 148.467 992.055C149.098 992.048 149.688 991.931 150.234 991.703C150.781 991.469 151.247 991.127 151.631 990.678C152.015 990.229 152.275 989.691 152.412 989.066H154.17C154.001 990.01 153.649 990.834 153.115 991.537C152.581 992.234 151.911 992.768 151.104 993.139C150.303 993.51 149.424 993.695 148.467 993.695C147.256 993.695 146.175 993.399 145.225 992.807C144.281 992.214 143.542 991.371 143.008 990.277C142.48 989.177 142.217 987.895 142.217 986.43C142.217 984.965 142.48 983.686 143.008 982.592C143.542 981.492 144.281 980.645 145.225 980.053C146.175 979.46 147.256 979.164 148.467 979.164C149.424 979.164 150.303 979.35 151.104 979.721C151.904 980.085 152.572 980.619 153.105 981.322C153.646 982.019 154.001 982.849 154.17 983.812H152.412ZM158.389 993.5H156.631V979.359H158.389V993.5ZM161.514 979.359H163.271V991.938H169.834V993.5H161.514V979.359ZM173.936 993.5H172.178V979.359H173.936V993.5ZM176.279 979.359H186.943V980.922H182.51V993.5H180.732V980.922H176.279V979.359ZM190.088 979.359L193.975 985.922H194.15L198.037 979.359H200.068L194.951 987.699V993.5H193.174V987.699L188.076 979.359H190.088Z" fill="#ADB5BD"/>
<path d="M196.68 1155.74C193.813 1155.25 190.91 1154.99 188 1154.98C178.074 1154.97 168.354 1157.82 160 1163.18C151.625 1157.89 141.907 1155.11 132 1155.18C129.091 1155.19 126.188 1155.45 123.32 1155.94C122.381 1156.1 121.531 1156.59 120.922 1157.33C120.313 1158.06 119.986 1158.99 120 1159.94V1207.94C119.992 1208.53 120.113 1209.11 120.355 1209.65C120.597 1210.18 120.954 1210.66 121.401 1211.04C121.848 1211.42 122.373 1211.7 122.94 1211.86C123.507 1212.01 124.101 1212.04 124.68 1211.94C130.412 1210.95 136.285 1211.11 141.953 1212.42C147.62 1213.74 152.968 1216.17 157.68 1219.58L158.16 1219.86H158.6C159.044 1220.04 159.52 1220.14 160 1220.14C160.481 1220.14 160.957 1220.04 161.4 1219.86H161.84L162.32 1219.58C167 1216.09 172.332 1213.58 178.001 1212.19C183.669 1210.81 189.559 1210.57 195.32 1211.5C195.9 1211.6 196.494 1211.57 197.061 1211.42C197.627 1211.26 198.153 1210.98 198.6 1210.6C199.046 1210.22 199.404 1209.74 199.646 1209.21C199.888 1208.67 200.009 1208.09 200 1207.5V1159.5C199.959 1158.59 199.607 1157.72 199.003 1157.03C198.399 1156.35 197.58 1155.89 196.68 1155.74ZM156 1208.9C148.6 1205.01 140.362 1202.97 132 1202.98C130.68 1202.98 129.36 1202.98 128 1202.98V1162.98C129.333 1162.9 130.668 1162.9 132 1162.98C140.534 1162.97 148.881 1165.47 156 1170.18V1208.9ZM192 1203.14C190.64 1203.14 189.32 1203.14 188 1203.14C179.638 1203.13 171.401 1205.17 164 1209.06V1170.18C171.119 1165.47 179.467 1162.97 188 1162.98C189.333 1162.9 190.668 1162.9 192 1162.98V1203.14ZM196.68 1219.74C193.813 1219.25 190.91 1218.99 188 1218.98C178.074 1218.97 168.354 1221.82 160 1227.18C151.646 1221.82 141.927 1218.97 132 1218.98C129.091 1218.99 126.188 1219.25 123.32 1219.74C122.8 1219.82 122.3 1220.01 121.851 1220.28C121.402 1220.56 121.012 1220.92 120.704 1221.35C120.395 1221.78 120.174 1222.26 120.054 1222.77C119.933 1223.29 119.915 1223.82 120 1224.34C120.204 1225.38 120.81 1226.29 121.688 1226.89C122.565 1227.48 123.641 1227.7 124.68 1227.5C130.412 1226.51 136.285 1226.67 141.953 1227.98C147.62 1229.3 152.968 1231.73 157.68 1235.14C158.358 1235.62 159.169 1235.88 160 1235.88C160.832 1235.88 161.643 1235.62 162.32 1235.14C167.033 1231.73 172.381 1229.3 178.048 1227.98C183.716 1226.67 189.588 1226.51 195.32 1227.5C196.36 1227.7 197.436 1227.48 198.313 1226.89C199.19 1226.29 199.797 1225.38 200 1224.34C200.086 1223.82 200.068 1223.29 199.947 1222.77C199.826 1222.26 199.605 1221.78 199.297 1221.35C198.988 1220.92 198.598 1220.56 198.149 1220.28C197.7 1220.01 197.201 1219.82 196.68 1219.74Z" fill="#191F28"/>
<path d="M117.59 1290.88H112.777V1262.52H117.59V1290.88ZM85.2773 1281.73C87.3112 1281.01 89.0443 1279.98 90.4766 1278.62C91.9089 1277.24 92.9831 1275.68 93.6992 1273.93C94.4297 1272.17 94.7878 1270.34 94.7734 1268.45V1264.67H99.7148V1268.45C99.7005 1270.29 100.044 1272.03 100.746 1273.7C101.462 1275.36 102.522 1276.83 103.926 1278.12C105.329 1279.4 107.034 1280.37 109.039 1281.04L106.59 1284.82C104.413 1284.07 102.536 1282.95 100.961 1281.47C99.3854 1279.98 98.1608 1278.23 97.2871 1276.21C96.4134 1278.39 95.1673 1280.28 93.5488 1281.88C91.9303 1283.49 90.0039 1284.7 87.7695 1285.51L85.2773 1281.73ZM91.8945 1288.18H96.707V1296.68H118.664V1300.55H91.8945V1288.18ZM137.227 1270.9C137.212 1272.35 137.556 1273.75 138.258 1275.09C138.974 1276.44 140.027 1277.64 141.416 1278.7C142.82 1279.75 144.517 1280.54 146.508 1281.09L144.273 1284.91C142.096 1284.28 140.213 1283.33 138.623 1282.05C137.033 1280.78 135.787 1279.27 134.885 1277.54C134.011 1279.45 132.772 1281.09 131.168 1282.48C129.564 1283.86 127.645 1284.88 125.41 1285.55L123.09 1281.82C125.081 1281.24 126.778 1280.4 128.182 1279.28C129.585 1278.16 130.645 1276.88 131.361 1275.44C132.092 1273.99 132.457 1272.48 132.457 1270.9V1270.6H124.336V1266.82H132.457V1262.35H137.27V1266.82H145.348V1270.6H137.227V1270.9ZM128.031 1288H153.898V1301.37H149.129V1291.83H128.031V1288ZM149.129 1262.48H153.898V1272.32H159.312V1276.36H153.898V1286.24H149.129V1262.48ZM192.828 1283.92H181.312V1292.82H196.781V1296.73H161.289V1292.82H176.586V1283.92H165.586V1265.36H192.527V1269.18H170.355V1280.14H192.828V1283.92ZM213.668 1271.8C213.654 1274.24 214.026 1276.59 214.785 1278.85C215.544 1281.11 216.647 1283.13 218.094 1284.89C219.555 1286.64 221.288 1287.95 223.293 1288.82L220.414 1292.64C218.266 1291.6 216.418 1290.1 214.871 1288.13C213.324 1286.17 212.128 1283.89 211.283 1281.28C210.41 1284.04 209.178 1286.48 207.588 1288.58C205.998 1290.68 204.115 1292.27 201.938 1293.38L198.93 1289.51C200.978 1288.55 202.747 1287.14 204.236 1285.3C205.726 1283.45 206.857 1281.35 207.631 1279C208.404 1276.65 208.798 1274.25 208.812 1271.8V1265.62H213.668V1271.8ZM218.996 1275.03H227.16V1262.48H231.887V1301.37H227.16V1278.89H218.996V1275.03Z" fill="#191F28"/>
<path d="M68.0176 1339.5H66.3379L58.6816 1328.48H58.5449V1339.5H56.7871V1325.36H58.4863L66.1426 1336.39H66.2793V1325.36H68.0176V1339.5ZM71.1426 1325.36H79.7168V1326.92H72.9004V1331.65H79.2676V1333.19H72.9004V1337.94H79.8145V1339.5H71.1426V1325.36ZM81.2402 1325.36H83.0176L85.9668 1336.8H86.1035L89.0918 1325.36H91.0645L94.0723 1336.8H94.1895L97.1387 1325.36H98.916L95.0488 1339.5H93.2324L90.1465 1328.31H90.0293L86.9238 1339.5H85.1074L81.2402 1325.36ZM104.6 1339.5L109.775 1325.36H111.631L116.807 1339.5H114.951L113.535 1335.52H107.852L106.436 1339.5H104.6ZM112.998 1333.97L110.752 1327.64H110.635L108.389 1333.97H112.998ZM118.721 1325.36H123.525C124.6 1325.36 125.495 1325.54 126.211 1325.92C126.934 1326.28 127.471 1326.79 127.822 1327.45C128.174 1328.1 128.35 1328.86 128.35 1329.71C128.35 1330.68 128.128 1331.51 127.686 1332.2C127.249 1332.88 126.592 1333.37 125.713 1333.68L128.896 1339.5H126.846L123.887 1334C123.815 1334.01 123.701 1334.01 123.545 1334.01H120.479V1339.5H118.721V1325.36ZM123.467 1332.41C124.561 1332.41 125.355 1332.18 125.85 1331.72C126.351 1331.25 126.605 1330.59 126.611 1329.71C126.598 1327.85 125.544 1326.92 123.447 1326.92H120.479V1332.41H123.467ZM130.889 1325.36H135.693C136.768 1325.36 137.663 1325.54 138.379 1325.92C139.102 1326.28 139.639 1326.79 139.99 1327.45C140.342 1328.1 140.518 1328.86 140.518 1329.71C140.518 1330.68 140.296 1331.51 139.854 1332.2C139.417 1332.88 138.76 1333.37 137.881 1333.68L141.064 1339.5H139.014L136.055 1334C135.983 1334.01 135.869 1334.01 135.713 1334.01H132.646V1339.5H130.889V1325.36ZM135.635 1332.41C136.729 1332.41 137.523 1332.18 138.018 1331.72C138.519 1331.25 138.773 1330.59 138.779 1329.71C138.766 1327.85 137.712 1326.92 135.615 1326.92H132.646V1332.41H135.635ZM144.814 1339.5H143.057V1325.36H144.814V1339.5ZM152.744 1337.21H152.9L157.08 1325.36H158.936L153.76 1339.5H151.904L146.729 1325.36H148.584L152.744 1337.21ZM158.389 1339.5L163.564 1325.36H165.42L170.596 1339.5H168.74L167.324 1335.52H161.641L160.225 1339.5H158.389ZM166.787 1333.97L164.541 1327.64H164.424L162.178 1333.97H166.787ZM172.51 1325.36H174.268V1337.94H180.83V1339.5H172.51V1325.36ZM190.889 1328.91C190.843 1328.46 190.68 1328.07 190.4 1327.74C190.12 1327.41 189.753 1327.16 189.297 1326.99C188.841 1326.81 188.33 1326.73 187.764 1326.73C187.152 1326.73 186.611 1326.83 186.143 1327.03C185.674 1327.22 185.309 1327.5 185.049 1327.85C184.788 1328.2 184.658 1328.6 184.658 1329.05C184.665 1329.71 184.935 1330.21 185.469 1330.56C186.003 1330.91 186.644 1331.17 187.393 1331.36L188.799 1331.75C189.893 1332.03 190.833 1332.46 191.621 1333.04C192.409 1333.61 192.803 1334.49 192.803 1335.65C192.803 1336.43 192.601 1337.13 192.197 1337.75C191.794 1338.37 191.204 1338.86 190.43 1339.22C189.655 1339.57 188.734 1339.75 187.666 1339.75C186.663 1339.75 185.788 1339.59 185.039 1339.27C184.297 1338.93 183.714 1338.47 183.291 1337.89C182.868 1337.3 182.627 1336.61 182.568 1335.83H184.365C184.411 1336.34 184.587 1336.77 184.893 1337.12C185.199 1337.47 185.592 1337.73 186.074 1337.91C186.562 1338.08 187.093 1338.16 187.666 1338.15C188.317 1338.15 188.9 1338.05 189.414 1337.84C189.935 1337.63 190.342 1337.34 190.635 1336.95C190.934 1336.56 191.084 1336.11 191.084 1335.61C191.084 1335.18 190.96 1334.81 190.713 1334.52C190.472 1334.23 190.153 1333.99 189.756 1333.81C189.359 1333.62 188.87 1333.45 188.291 1333.29L186.553 1332.82C185.394 1332.48 184.502 1332.01 183.877 1331.41C183.258 1330.82 182.952 1330.05 182.959 1329.13C182.959 1328.35 183.171 1327.66 183.594 1327.06C184.017 1326.45 184.6 1325.99 185.342 1325.66C186.084 1325.33 186.911 1325.16 187.822 1325.16C188.721 1325.16 189.528 1325.33 190.244 1325.65C190.967 1325.98 191.536 1326.43 191.953 1327C192.37 1327.57 192.588 1328.2 192.607 1328.91H190.889ZM200.342 1325.36H205.303C206.26 1325.36 207.064 1325.53 207.715 1325.86C208.372 1326.18 208.861 1326.63 209.18 1327.2C209.505 1327.76 209.665 1328.4 209.658 1329.11C209.665 1329.95 209.456 1330.61 209.033 1331.08C208.61 1331.55 208.05 1331.88 207.354 1332.08V1332.21C207.816 1332.24 208.265 1332.4 208.701 1332.68C209.144 1332.97 209.508 1333.38 209.795 1333.9C210.081 1334.43 210.225 1335.04 210.225 1335.75C210.218 1336.48 210.046 1337.13 209.707 1337.69C209.375 1338.25 208.854 1338.7 208.145 1339.02C207.441 1339.34 206.553 1339.5 205.479 1339.5H200.342V1325.36ZM205.459 1337.94C206.507 1337.94 207.282 1337.74 207.783 1337.33C208.285 1336.93 208.532 1336.39 208.525 1335.73C208.532 1335.25 208.411 1334.81 208.164 1334.4C207.917 1334 207.565 1333.68 207.109 1333.44C206.66 1333.19 206.143 1333.07 205.557 1333.07H202.1V1337.94H205.459ZM205.244 1331.55C205.752 1331.55 206.214 1331.45 206.631 1331.26C207.048 1331.06 207.376 1330.77 207.617 1330.41C207.858 1330.04 207.979 1329.61 207.979 1329.13C207.979 1328.71 207.881 1328.33 207.686 1328C207.49 1327.66 207.191 1327.4 206.787 1327.21C206.39 1327.02 205.895 1326.92 205.303 1326.92H202.1V1331.55H205.244ZM224.678 1332.43C224.678 1333.89 224.411 1335.18 223.877 1336.28C223.343 1337.37 222.601 1338.21 221.65 1338.81C220.706 1339.4 219.632 1339.7 218.428 1339.7C217.217 1339.7 216.136 1339.4 215.186 1338.81C214.242 1338.21 213.503 1337.37 212.969 1336.28C212.441 1335.18 212.178 1333.89 212.178 1332.43C212.178 1330.96 212.441 1329.69 212.969 1328.59C213.503 1327.49 214.242 1326.65 215.186 1326.05C216.136 1325.46 217.217 1325.16 218.428 1325.16C219.632 1325.16 220.706 1325.46 221.65 1326.05C222.601 1326.65 223.343 1327.49 223.877 1328.59C224.411 1329.69 224.678 1330.96 224.678 1332.43ZM213.877 1332.43C213.877 1333.61 214.076 1334.62 214.473 1335.47C214.87 1336.31 215.41 1336.95 216.094 1337.39C216.784 1337.83 217.562 1338.05 218.428 1338.05C219.294 1338.05 220.068 1337.83 220.752 1337.39C221.442 1336.95 221.986 1336.31 222.383 1335.47C222.78 1334.62 222.979 1333.61 222.979 1332.43C222.979 1331.24 222.78 1330.23 222.383 1329.38C221.986 1328.54 221.442 1327.9 220.752 1327.46C220.068 1327.02 219.294 1326.8 218.428 1326.8C217.562 1326.8 216.784 1327.02 216.094 1327.46C215.41 1327.9 214.87 1328.54 214.473 1329.38C214.076 1330.23 213.877 1331.24 213.877 1332.43ZM239.209 1332.43C239.209 1333.89 238.942 1335.18 238.408 1336.28C237.874 1337.37 237.132 1338.21 236.182 1338.81C235.238 1339.4 234.163 1339.7 232.959 1339.7C231.748 1339.7 230.667 1339.4 229.717 1338.81C228.773 1338.21 228.034 1337.37 227.5 1336.28C226.973 1335.18 226.709 1333.89 226.709 1332.43C226.709 1330.96 226.973 1329.69 227.5 1328.59C228.034 1327.49 228.773 1326.65 229.717 1326.05C230.667 1325.46 231.748 1325.16 232.959 1325.16C234.163 1325.16 235.238 1325.46 236.182 1326.05C237.132 1326.65 237.874 1327.49 238.408 1328.59C238.942 1329.69 239.209 1330.96 239.209 1332.43ZM228.408 1332.43C228.408 1333.61 228.607 1334.62 229.004 1335.47C229.401 1336.31 229.941 1336.95 230.625 1337.39C231.315 1337.83 232.093 1338.05 232.959 1338.05C233.825 1338.05 234.6 1337.83 235.283 1337.39C235.973 1336.95 236.517 1336.31 236.914 1335.47C237.311 1334.62 237.51 1333.61 237.51 1332.43C237.51 1331.24 237.311 1330.23 236.914 1329.38C236.517 1328.54 235.973 1327.9 235.283 1327.46C234.6 1327.02 233.825 1326.8 232.959 1326.8C232.093 1326.8 231.315 1327.02 230.625 1327.46C229.941 1327.9 229.401 1328.54 229.004 1329.38C228.607 1330.23 228.408 1331.24 228.408 1332.43ZM241.787 1325.36H243.545V1332.35H243.721L250.01 1325.36H252.314L246.396 1331.75L252.314 1339.5H250.166L245.303 1332.96L243.545 1334.95V1339.5H241.787V1325.36ZM261.904 1328.91C261.859 1328.46 261.696 1328.07 261.416 1327.74C261.136 1327.41 260.768 1327.16 260.312 1326.99C259.857 1326.81 259.346 1326.73 258.779 1326.73C258.167 1326.73 257.627 1326.83 257.158 1327.03C256.689 1327.22 256.325 1327.5 256.064 1327.85C255.804 1328.2 255.674 1328.6 255.674 1329.05C255.68 1329.71 255.951 1330.21 256.484 1330.56C257.018 1330.91 257.66 1331.17 258.408 1331.36L259.814 1331.75C260.908 1332.03 261.849 1332.46 262.637 1333.04C263.424 1333.61 263.818 1334.49 263.818 1335.65C263.818 1336.43 263.617 1337.13 263.213 1337.75C262.809 1338.37 262.22 1338.86 261.445 1339.22C260.671 1339.57 259.749 1339.75 258.682 1339.75C257.679 1339.75 256.803 1339.59 256.055 1339.27C255.312 1338.93 254.73 1338.47 254.307 1337.89C253.883 1337.3 253.643 1336.61 253.584 1335.83H255.381C255.426 1336.34 255.602 1336.77 255.908 1337.12C256.214 1337.47 256.608 1337.73 257.09 1337.91C257.578 1338.08 258.109 1338.16 258.682 1338.15C259.333 1338.15 259.915 1338.05 260.43 1337.84C260.951 1337.63 261.357 1337.34 261.65 1336.95C261.95 1336.56 262.1 1336.11 262.1 1335.61C262.1 1335.18 261.976 1334.81 261.729 1334.52C261.488 1334.23 261.169 1333.99 260.771 1333.81C260.374 1333.62 259.886 1333.45 259.307 1333.29L257.568 1332.82C256.41 1332.48 255.518 1332.01 254.893 1331.41C254.274 1330.82 253.968 1330.05 253.975 1329.13C253.975 1328.35 254.186 1327.66 254.609 1327.06C255.033 1326.45 255.615 1325.99 256.357 1325.66C257.1 1325.33 257.926 1325.16 258.838 1325.16C259.736 1325.16 260.544 1325.33 261.26 1325.65C261.982 1325.98 262.552 1326.43 262.969 1327C263.385 1327.57 263.604 1328.2 263.623 1328.91H261.904Z" fill="#191F28"/>
<path d="M100 1372.5C146.863 1372.5 173.137 1372.5 220 1372.5" stroke="#191F28" stroke-width="7" stroke-linecap="round"/>
<path d="M196 1537.5H184V1533.5C184 1532.44 183.579 1531.42 182.828 1530.67C182.078 1529.92 181.061 1529.5 180 1529.5H140C138.939 1529.5 137.922 1529.92 137.172 1530.67C136.421 1531.42 136 1532.44 136 1533.5V1537.5H124C122.939 1537.5 121.922 1537.92 121.172 1538.67C120.421 1539.42 120 1540.44 120 1541.5V1553.5C120 1557.74 121.686 1561.81 124.686 1564.81C127.687 1567.81 131.757 1569.5 136 1569.5H142.16C145.778 1573.54 150.656 1576.23 156 1577.14V1585.5H152C148.817 1585.5 145.765 1586.76 143.515 1589.01C141.264 1591.27 140 1594.32 140 1597.5V1605.5C140 1606.56 140.421 1607.58 141.172 1608.33C141.922 1609.08 142.939 1609.5 144 1609.5H176C177.061 1609.5 178.078 1609.08 178.828 1608.33C179.579 1607.58 180 1606.56 180 1605.5V1597.5C180 1594.32 178.736 1591.27 176.485 1589.01C174.235 1586.76 171.183 1585.5 168 1585.5H164V1577.14C169.344 1576.23 174.222 1573.54 177.84 1569.5H184C188.243 1569.5 192.313 1567.81 195.314 1564.81C198.314 1561.81 200 1557.74 200 1553.5V1541.5C200 1540.44 199.579 1539.42 198.828 1538.67C198.078 1537.92 197.061 1537.5 196 1537.5ZM136 1561.5C133.878 1561.5 131.843 1560.66 130.343 1559.16C128.843 1557.66 128 1555.62 128 1553.5V1545.5H136V1553.5C136.009 1556.23 136.482 1558.93 137.4 1561.5H136ZM168 1593.5C169.061 1593.5 170.078 1593.92 170.828 1594.67C171.579 1595.42 172 1596.44 172 1597.5V1601.5H148V1597.5C148 1596.44 148.421 1595.42 149.172 1594.67C149.922 1593.92 150.939 1593.5 152 1593.5H168ZM176 1553.5C176 1557.74 174.314 1561.81 171.314 1564.81C168.313 1567.81 164.243 1569.5 160 1569.5C155.757 1569.5 151.687 1567.81 148.686 1564.81C145.686 1561.81 144 1557.74 144 1553.5V1537.5H176V1553.5ZM192 1553.5C192 1555.62 191.157 1557.66 189.657 1559.16C188.157 1560.66 186.122 1561.5 184 1561.5H182.6C183.518 1558.93 183.991 1556.23 184 1553.5V1545.5H192V1553.5Z" fill="#ADB5BD"/>
<path d="M99.3926 1675.15H95.4824V1655.26H90.498V1673.18H86.7598V1637.43H90.498V1651.91H95.4824V1636.65H99.3926V1675.15ZM67.6387 1641.29H82.0762V1644.6H71.7207V1662.43C74.2272 1662.42 76.4258 1662.34 78.3164 1662.2C80.2214 1662.05 82.1621 1661.79 84.1387 1661.4L84.4395 1664.75C82.291 1665.2 80.1712 1665.5 78.0801 1665.66C76.0033 1665.8 73.3822 1665.89 70.2168 1665.91H67.6387V1641.29ZM139.439 1656.59H123.928V1659.81H135.057V1668.49H112.627V1671.67H136.131V1674.77H108.631V1665.66H131.018V1662.78H108.588V1659.81H119.889V1656.59H104.42V1653.54H139.439V1656.59ZM106.139 1648.94C108.588 1648.81 110.772 1648.48 112.691 1647.95C114.611 1647.42 116.165 1646.74 117.354 1645.89C118.542 1645.05 119.273 1644.09 119.545 1643.01H107.9V1639.88H119.889V1636.48H123.928V1639.88H135.959V1643.01H124.25C124.522 1644.09 125.245 1645.05 126.42 1645.89C127.609 1646.74 129.17 1647.42 131.104 1647.95C133.051 1648.48 135.257 1648.81 137.721 1648.94L136.475 1652.04C133.037 1651.78 130.044 1651.15 127.494 1650.17C124.945 1649.18 123.083 1647.86 121.908 1646.21C120.734 1647.86 118.865 1649.18 116.301 1650.17C113.751 1651.15 110.751 1651.78 107.299 1652.04L106.139 1648.94ZM147.561 1649.59H154.951V1640.35H158.689V1651.09H163.803V1637.43H167.713V1673.3H163.803V1654.48H158.689V1665.66H143.693V1640.35H147.561V1649.59ZM154.951 1662.26V1652.89H147.561V1662.26H154.951ZM171.623 1636.65H175.533V1675.15H171.623V1636.65ZM199.982 1642.11C199.982 1644.14 200.634 1646.12 201.938 1648.04C203.241 1649.96 204.974 1651.6 207.137 1652.96C209.314 1654.31 211.627 1655.2 214.076 1655.64L212.186 1659.04C210.123 1658.6 208.154 1657.86 206.277 1656.85C204.401 1655.83 202.732 1654.59 201.271 1653.13C199.825 1651.66 198.693 1650.03 197.877 1648.25C197.046 1650.02 195.9 1651.63 194.439 1653.11C192.979 1654.57 191.31 1655.81 189.434 1656.83C187.557 1657.84 185.588 1658.58 183.525 1659.04L181.721 1655.64C184.141 1655.19 186.419 1654.28 188.553 1652.94C190.701 1651.58 192.427 1649.94 193.73 1648.04C195.034 1646.12 195.686 1644.14 195.686 1642.11V1639.19H199.982V1642.11ZM180.432 1666.69H215.666V1670.08H180.432V1666.69ZM249.697 1660.41H222.885V1639.83H249.311V1643.14H227.01V1648.34H248.494V1651.56H227.01V1657.15H249.697V1660.41ZM218.459 1666.95H253.693V1670.3H218.459V1666.95Z" fill="#ADB5BD"/>
<path d="M69.5508 1699.36H74.5117C75.4688 1699.36 76.2728 1699.53 76.9238 1699.86C77.5814 1700.18 78.0697 1700.63 78.3887 1701.2C78.7142 1701.76 78.8737 1702.4 78.8672 1703.11C78.8737 1703.95 78.6654 1704.61 78.2422 1705.08C77.819 1705.55 77.2591 1705.88 76.5625 1706.08V1706.21C77.0247 1706.24 77.474 1706.4 77.9102 1706.68C78.3529 1706.97 78.7174 1707.38 79.0039 1707.9C79.2904 1708.43 79.4336 1709.04 79.4336 1709.75C79.4271 1710.48 79.2546 1711.13 78.916 1711.69C78.584 1712.25 78.0632 1712.7 77.3535 1713.02C76.6504 1713.34 75.7617 1713.5 74.6875 1713.5H69.5508V1699.36ZM74.668 1711.94C75.7161 1711.94 76.4909 1711.74 76.9922 1711.33C77.4935 1710.93 77.7409 1710.39 77.7344 1709.73C77.7409 1709.25 77.6204 1708.81 77.373 1708.4C77.1257 1708 76.7741 1707.68 76.3184 1707.44C75.8691 1707.19 75.3516 1707.07 74.7656 1707.07H71.3086V1711.94H74.668ZM74.4531 1705.55C74.9609 1705.55 75.4232 1705.45 75.8398 1705.26C76.2565 1705.06 76.5853 1704.77 76.8262 1704.41C77.0671 1704.04 77.1875 1703.61 77.1875 1703.13C77.1875 1702.71 77.0898 1702.33 76.8945 1702C76.6992 1701.66 76.3997 1701.4 75.9961 1701.21C75.599 1701.02 75.1042 1700.92 74.5117 1700.92H71.3086V1705.55H74.4531ZM81.9336 1699.36H90.5078V1700.92H83.6914V1705.65H90.0586V1707.19H83.6914V1711.94H90.6055V1713.5H81.9336V1699.36ZM100.996 1702.91C100.951 1702.46 100.788 1702.07 100.508 1701.74C100.228 1701.41 99.86 1701.16 99.4043 1700.99C98.9486 1700.81 98.4375 1700.73 97.8711 1700.73C97.2591 1700.73 96.7188 1700.83 96.25 1701.03C95.7812 1701.22 95.4167 1701.5 95.1562 1701.85C94.8958 1702.2 94.7656 1702.6 94.7656 1703.05C94.7721 1703.71 95.0423 1704.21 95.5762 1704.56C96.11 1704.91 96.7513 1705.17 97.5 1705.36L98.9062 1705.75C100 1706.03 100.941 1706.46 101.729 1707.04C102.516 1707.61 102.91 1708.49 102.91 1709.65C102.91 1710.43 102.708 1711.13 102.305 1711.75C101.901 1712.37 101.312 1712.86 100.537 1713.22C99.7624 1713.57 98.8411 1713.75 97.7734 1713.75C96.7708 1713.75 95.8952 1713.59 95.1465 1713.27C94.4043 1712.93 93.8216 1712.47 93.3984 1711.89C92.9753 1711.3 92.7344 1710.61 92.6758 1709.83H94.4727C94.5182 1710.34 94.694 1710.77 95 1711.12C95.306 1711.47 95.6999 1711.73 96.1816 1711.91C96.6699 1712.08 97.2005 1712.16 97.7734 1712.15C98.4245 1712.15 99.0072 1712.05 99.5215 1711.84C100.042 1711.63 100.449 1711.34 100.742 1710.95C101.042 1710.56 101.191 1710.11 101.191 1709.61C101.191 1709.18 101.068 1708.81 100.82 1708.52C100.579 1708.23 100.26 1707.99 99.8633 1707.81C99.4661 1707.62 98.9779 1707.45 98.3984 1707.29L96.6602 1706.82C95.5013 1706.48 94.6094 1706.01 93.9844 1705.41C93.3659 1704.82 93.0599 1704.05 93.0664 1703.13C93.0664 1702.35 93.278 1701.66 93.7012 1701.06C94.1243 1700.45 94.707 1699.99 95.4492 1699.66C96.1914 1699.33 97.0182 1699.16 97.9297 1699.16C98.8281 1699.16 99.6354 1699.33 100.352 1699.65C101.074 1699.98 101.644 1700.43 102.061 1701C102.477 1701.57 102.695 1702.2 102.715 1702.91H100.996ZM104.648 1699.36H115.312V1700.92H110.879V1713.5H109.102V1700.92H104.648V1699.36ZM122.676 1699.36H127.48C128.555 1699.36 129.45 1699.54 130.166 1699.92C130.889 1700.28 131.426 1700.79 131.777 1701.45C132.129 1702.1 132.305 1702.86 132.305 1703.71C132.305 1704.68 132.083 1705.51 131.641 1706.2C131.204 1706.88 130.547 1707.37 129.668 1707.68L132.852 1713.5H130.801L127.842 1708C127.77 1708.01 127.656 1708.01 127.5 1708.01H124.434V1713.5H122.676V1699.36ZM127.422 1706.41C128.516 1706.41 129.31 1706.18 129.805 1705.72C130.306 1705.25 130.56 1704.59 130.566 1703.71C130.553 1701.85 129.499 1700.92 127.402 1700.92H124.434V1706.41H127.422ZM134.844 1699.36H143.418V1700.92H136.602V1705.65H142.969V1707.19H136.602V1711.94H143.516V1713.5H134.844V1699.36ZM157.422 1713.5H155.742L148.086 1702.48H147.949V1713.5H146.191V1699.36H147.891L155.547 1710.39H155.684V1699.36H157.422V1713.5ZM159.766 1699.36H170.43V1700.92H165.996V1713.5H164.219V1700.92H159.766V1699.36ZM169.902 1713.5L175.078 1699.36H176.934L182.109 1713.5H180.254L178.838 1709.52H173.154L171.738 1713.5H169.902ZM178.301 1707.97L176.055 1701.64H175.938L173.691 1707.97H178.301ZM184.023 1699.36H185.781V1711.94H192.344V1713.5H184.023V1699.36ZM199.707 1699.36H204.668C205.625 1699.36 206.429 1699.53 207.08 1699.86C207.738 1700.18 208.226 1700.63 208.545 1701.2C208.87 1701.76 209.03 1702.4 209.023 1703.11C209.03 1703.95 208.822 1704.61 208.398 1705.08C207.975 1705.55 207.415 1705.88 206.719 1706.08V1706.21C207.181 1706.24 207.63 1706.4 208.066 1706.68C208.509 1706.97 208.874 1707.38 209.16 1707.9C209.447 1708.43 209.59 1709.04 209.59 1709.75C209.583 1710.48 209.411 1711.13 209.072 1711.69C208.74 1712.25 208.219 1712.7 207.51 1713.02C206.807 1713.34 205.918 1713.5 204.844 1713.5H199.707V1699.36ZM204.824 1711.94C205.872 1711.94 206.647 1711.74 207.148 1711.33C207.65 1710.93 207.897 1710.39 207.891 1709.73C207.897 1709.25 207.777 1708.81 207.529 1708.4C207.282 1708 206.93 1707.68 206.475 1707.44C206.025 1707.19 205.508 1707.07 204.922 1707.07H201.465V1711.94H204.824ZM204.609 1705.55C205.117 1705.55 205.579 1705.45 205.996 1705.26C206.413 1705.06 206.742 1704.77 206.982 1704.41C207.223 1704.04 207.344 1703.61 207.344 1703.13C207.344 1702.71 207.246 1702.33 207.051 1702C206.855 1701.66 206.556 1701.4 206.152 1701.21C205.755 1701.02 205.26 1700.92 204.668 1700.92H201.465V1705.55H204.609ZM224.043 1706.43C224.043 1707.89 223.776 1709.18 223.242 1710.28C222.708 1711.37 221.966 1712.21 221.016 1712.81C220.072 1713.4 218.997 1713.7 217.793 1713.7C216.582 1713.7 215.501 1713.4 214.551 1712.81C213.607 1712.21 212.868 1711.37 212.334 1710.28C211.807 1709.18 211.543 1707.89 211.543 1706.43C211.543 1704.96 211.807 1703.69 212.334 1702.59C212.868 1701.49 213.607 1700.65 214.551 1700.05C215.501 1699.46 216.582 1699.16 217.793 1699.16C218.997 1699.16 220.072 1699.46 221.016 1700.05C221.966 1700.65 222.708 1701.49 223.242 1702.59C223.776 1703.69 224.043 1704.96 224.043 1706.43ZM213.242 1706.43C213.242 1707.61 213.441 1708.62 213.838 1709.47C214.235 1710.31 214.775 1710.95 215.459 1711.39C216.149 1711.83 216.927 1712.05 217.793 1712.05C218.659 1712.05 219.434 1711.83 220.117 1711.39C220.807 1710.95 221.351 1710.31 221.748 1709.47C222.145 1708.62 222.344 1707.61 222.344 1706.43C222.344 1705.24 222.145 1704.23 221.748 1703.38C221.351 1702.54 220.807 1701.9 220.117 1701.46C219.434 1701.02 218.659 1700.8 217.793 1700.8C216.927 1700.8 216.149 1701.02 215.459 1701.46C214.775 1701.9 214.235 1702.54 213.838 1703.38C213.441 1704.23 213.242 1705.24 213.242 1706.43ZM238.574 1706.43C238.574 1707.89 238.307 1709.18 237.773 1710.28C237.24 1711.37 236.497 1712.21 235.547 1712.81C234.603 1713.4 233.529 1713.7 232.324 1713.7C231.113 1713.7 230.033 1713.4 229.082 1712.81C228.138 1712.21 227.399 1711.37 226.865 1710.28C226.338 1709.18 226.074 1707.89 226.074 1706.43C226.074 1704.96 226.338 1703.69 226.865 1702.59C227.399 1701.49 228.138 1700.65 229.082 1700.05C230.033 1699.46 231.113 1699.16 232.324 1699.16C233.529 1699.16 234.603 1699.46 235.547 1700.05C236.497 1700.65 237.24 1701.49 237.773 1702.59C238.307 1703.69 238.574 1704.96 238.574 1706.43ZM227.773 1706.43C227.773 1707.61 227.972 1708.62 228.369 1709.47C228.766 1710.31 229.307 1710.95 229.99 1711.39C230.68 1711.83 231.458 1712.05 232.324 1712.05C233.19 1712.05 233.965 1711.83 234.648 1711.39C235.339 1710.95 235.882 1710.31 236.279 1709.47C236.676 1708.62 236.875 1707.61 236.875 1706.43C236.875 1705.24 236.676 1704.23 236.279 1703.38C235.882 1702.54 235.339 1701.9 234.648 1701.46C233.965 1701.02 233.19 1700.8 232.324 1700.8C231.458 1700.8 230.68 1701.02 229.99 1701.46C229.307 1701.9 228.766 1702.54 228.369 1703.38C227.972 1704.23 227.773 1705.24 227.773 1706.43ZM241.152 1699.36H242.91V1706.35H243.086L249.375 1699.36H251.68L245.762 1705.75L251.68 1713.5H249.531L244.668 1706.96L242.91 1708.95V1713.5H241.152V1699.36Z" fill="#ADB5BD"/>
<g clip-path="url(#clip4_2498_7277)">
<path d="M148 1929.5C155.72 1929.5 162 1923.22 162 1915.5C162 1907.78 155.72 1901.5 148 1901.5C140.28 1901.5 134 1907.78 134 1915.5C134 1923.22 140.28 1929.5 148 1929.5ZM148 1909.5C151.32 1909.5 154 1912.18 154 1915.5C154 1918.82 151.32 1921.5 148 1921.5C144.68 1921.5 142 1918.82 142 1915.5C142 1912.18 144.68 1909.5 148 1909.5ZM148.2 1949.5H131.08C135.04 1947.5 141.88 1945.5 148 1945.5C148.44 1945.5 148.92 1945.54 149.36 1945.54C150.72 1942.62 153.08 1940.22 155.92 1938.3C153 1937.78 150.24 1937.5 148 1937.5C138.64 1937.5 120 1942.18 120 1951.5V1957.5H148V1951.5C148 1950.82 148.08 1950.14 148.2 1949.5ZM178 1939.5C170.64 1939.5 156 1943.54 156 1951.5V1957.5H200V1951.5C200 1943.54 185.36 1939.5 178 1939.5ZM182.84 1932.22C185.88 1930.5 188 1927.26 188 1923.5C188 1917.98 183.52 1913.5 178 1913.5C172.48 1913.5 168 1917.98 168 1923.5C168 1927.26 170.12 1930.5 173.16 1932.22C174.6 1933.02 176.24 1933.5 178 1933.5C179.76 1933.5 181.4 1933.02 182.84 1932.22Z" fill="#ADB5BD"/>
</g>
<path d="M115.613 2006.36H121.199V2009.67H115.613V2019.51H111.531V1996.65H115.613V2006.36ZM85.3203 2016.5C88.3138 2015.66 90.9062 2014.56 93.0977 2013.2C95.3034 2011.83 97.0436 2010.27 98.3184 2008.49C99.6074 2006.71 100.374 2004.79 100.617 2002.71H87.0391V1999.4H105.043C105.043 2002.68 104.327 2005.66 102.895 2008.34C101.462 2011.02 99.3926 2013.33 96.6855 2015.28C93.9928 2017.21 90.763 2018.72 86.9961 2019.81L85.3203 2016.5ZM90.5625 2027.5C90.5482 2025.96 91.0638 2024.62 92.1094 2023.49C93.1693 2022.34 94.6589 2021.47 96.5781 2020.87C98.5117 2020.25 100.76 2019.94 103.324 2019.94C105.888 2019.94 108.13 2020.25 110.049 2020.87C111.968 2021.47 113.443 2022.34 114.475 2023.49C115.52 2024.62 116.043 2025.96 116.043 2027.5C116.043 2029.07 115.52 2030.41 114.475 2031.54C113.443 2032.69 111.968 2033.57 110.049 2034.19C108.144 2034.8 105.902 2035.11 103.324 2035.11C100.76 2035.11 98.5117 2034.8 96.5781 2034.19C94.6445 2033.57 93.1549 2032.69 92.1094 2031.54C91.0638 2030.41 90.5482 2029.07 90.5625 2027.5ZM94.6016 2027.5C94.6016 2028.39 94.9525 2029.17 95.6543 2029.82C96.3561 2030.48 97.3587 2030.99 98.6621 2031.35C99.9798 2031.71 101.534 2031.89 103.324 2031.89C105.1 2031.89 106.64 2031.71 107.943 2031.35C109.261 2030.99 110.271 2030.48 110.973 2029.82C111.689 2029.17 112.047 2028.39 112.047 2027.5C112.047 2026.62 111.696 2025.85 110.994 2025.21C110.292 2024.55 109.29 2024.04 107.986 2023.7C106.697 2023.34 105.179 2023.16 103.432 2023.16C101.613 2023.16 100.037 2023.34 98.7051 2023.68C97.3874 2024.02 96.3704 2024.52 95.6543 2025.18C94.9525 2025.83 94.6016 2026.6 94.6016 2027.5ZM137.184 2003.48C137.184 2005.05 137.563 2006.54 138.322 2007.95C139.081 2009.36 140.163 2010.6 141.566 2011.69C142.984 2012.77 144.646 2013.58 146.551 2014.14L144.617 2017.36C142.411 2016.69 140.499 2015.68 138.881 2014.33C137.277 2012.99 136.045 2011.39 135.186 2009.54C134.326 2011.55 133.059 2013.28 131.383 2014.74C129.721 2016.2 127.759 2017.29 125.496 2018.01L123.434 2014.83C125.396 2014.23 127.1 2013.36 128.547 2012.23C129.993 2011.08 131.104 2009.76 131.877 2008.25C132.665 2006.75 133.059 2005.16 133.059 2003.48V2003.44H124.68V2000.05H145.562V2003.44H137.184V2003.48ZM125.604 2023.94C128.869 2023.94 131.368 2023.91 133.102 2023.85V2016.42H137.184V2023.72C140.993 2023.52 144.273 2023.24 147.023 2022.86L147.324 2025.83C144.861 2026.27 142.297 2026.61 139.633 2026.84C136.969 2027.05 134.491 2027.19 132.199 2027.25C129.922 2027.29 127.243 2027.32 124.164 2027.33H123.52L122.918 2023.94H125.604ZM149.344 1996.65H153.426V2012.38H159.355V2015.82H153.426V2035.15H149.344V1996.65ZM191.668 2008.12H197.254V2011.56H191.668V2024.93H187.586V1996.61H191.668V2008.12ZM162.02 2008.86C162.005 2007.02 162.442 2005.38 163.33 2003.94C164.232 2002.47 165.464 2001.34 167.025 2000.52C168.587 1999.69 170.327 1999.27 172.246 1999.27C174.165 1999.27 175.906 1999.69 177.467 2000.52C179.028 2001.34 180.253 2002.47 181.141 2003.94C182.043 2005.38 182.501 2007.02 182.516 2008.86C182.501 2010.69 182.043 2012.34 181.141 2013.8C180.253 2015.26 179.028 2016.4 177.467 2017.21C175.906 2018.03 174.165 2018.44 172.246 2018.44C170.327 2018.44 168.587 2018.03 167.025 2017.21C165.464 2016.4 164.232 2015.26 163.33 2013.8C162.442 2012.34 162.005 2010.69 162.02 2008.86ZM166.016 2008.86C166.001 2010.03 166.266 2011.08 166.811 2011.99C167.355 2012.89 168.1 2013.6 169.045 2014.12C170.005 2014.62 171.072 2014.87 172.246 2014.87C173.421 2014.87 174.48 2014.62 175.426 2014.12C176.385 2013.6 177.137 2012.89 177.682 2011.99C178.24 2011.08 178.52 2010.03 178.52 2008.86C178.52 2007.68 178.24 2006.64 177.682 2005.74C177.137 2004.82 176.385 2004.11 175.426 2003.61C174.48 2003.1 173.421 2002.84 172.246 2002.84C171.072 2002.84 170.005 2003.1 169.045 2003.61C168.1 2004.11 167.355 2004.82 166.811 2005.74C166.266 2006.64 166.001 2007.68 166.016 2008.86ZM167.262 2021.96H171.344V2031.03H193.301V2034.34H167.262V2021.96ZM232.402 2035.15H228.492V2015.43H223.551V2033.18H219.727V1997.43H223.551V2012.08H228.492V1996.65H232.402V2035.15ZM201.25 2001.21H205.332V2021.77C209.443 2021.72 213.382 2021.33 217.148 2020.59L217.578 2024.15C215.072 2024.6 212.694 2024.91 210.445 2025.1C208.197 2025.28 205.962 2025.37 203.742 2025.36H201.25V2001.21Z" fill="#ADB5BD"/>
<path d="M121.758 2063.81C121.628 2063.18 121.37 2062.64 120.986 2062.19C120.602 2061.74 120.133 2061.39 119.58 2061.16C119.033 2060.92 118.444 2060.8 117.812 2060.8C116.947 2060.8 116.169 2061.02 115.479 2061.46C114.795 2061.9 114.255 2062.54 113.857 2063.38C113.46 2064.23 113.262 2065.24 113.262 2066.43C113.262 2067.61 113.46 2068.62 113.857 2069.47C114.255 2070.31 114.795 2070.95 115.479 2071.39C116.169 2071.83 116.947 2072.05 117.812 2072.05C118.444 2072.05 119.033 2071.93 119.58 2071.7C120.127 2071.47 120.592 2071.13 120.977 2070.68C121.361 2070.23 121.621 2069.69 121.758 2069.07H123.516C123.346 2070.01 122.995 2070.83 122.461 2071.54C121.927 2072.23 121.257 2072.77 120.449 2073.14C119.648 2073.51 118.77 2073.7 117.812 2073.7C116.602 2073.7 115.521 2073.4 114.57 2072.81C113.626 2072.21 112.887 2071.37 112.354 2070.28C111.826 2069.18 111.562 2067.89 111.562 2066.43C111.562 2064.96 111.826 2063.69 112.354 2062.59C112.887 2061.49 113.626 2060.65 114.57 2060.05C115.521 2059.46 116.602 2059.16 117.812 2059.16C118.77 2059.16 119.648 2059.35 120.449 2059.72C121.25 2060.09 121.917 2060.62 122.451 2061.32C122.992 2062.02 123.346 2062.85 123.516 2063.81H121.758ZM136.992 2059.36V2068.71C136.992 2069.68 136.764 2070.54 136.309 2071.31C135.853 2072.07 135.208 2072.67 134.375 2073.11C133.542 2073.54 132.578 2073.75 131.484 2073.75C130.391 2073.75 129.427 2073.54 128.594 2073.11C127.76 2072.67 127.116 2072.07 126.66 2071.31C126.204 2070.54 125.977 2069.68 125.977 2068.71V2059.36H127.734V2068.58C127.734 2069.26 127.884 2069.87 128.184 2070.4C128.483 2070.94 128.916 2071.36 129.482 2071.66C130.055 2071.96 130.723 2072.11 131.484 2072.11C132.246 2072.11 132.91 2071.96 133.477 2071.66C134.043 2071.36 134.476 2070.94 134.775 2070.4C135.075 2069.87 135.228 2069.26 135.234 2068.58V2059.36H136.992ZM140.117 2059.36H141.875V2071.94H148.438V2073.5H140.117V2059.36ZM148.125 2059.36H158.789V2060.92H154.355V2073.5H152.578V2060.92H148.125V2059.36ZM172.148 2059.36V2068.71C172.148 2069.68 171.921 2070.54 171.465 2071.31C171.009 2072.07 170.365 2072.67 169.531 2073.11C168.698 2073.54 167.734 2073.75 166.641 2073.75C165.547 2073.75 164.583 2073.54 163.75 2073.11C162.917 2072.67 162.272 2072.07 161.816 2071.31C161.361 2070.54 161.133 2069.68 161.133 2068.71V2059.36H162.891V2068.58C162.891 2069.26 163.04 2069.87 163.34 2070.4C163.639 2070.94 164.072 2071.36 164.639 2071.66C165.212 2071.96 165.879 2072.11 166.641 2072.11C167.402 2072.11 168.066 2071.96 168.633 2071.66C169.199 2071.36 169.632 2070.94 169.932 2070.4C170.231 2069.87 170.384 2069.26 170.391 2068.58V2059.36H172.148ZM175.273 2059.36H180.078C181.152 2059.36 182.048 2059.54 182.764 2059.92C183.486 2060.28 184.023 2060.79 184.375 2061.45C184.727 2062.1 184.902 2062.86 184.902 2063.71C184.902 2064.68 184.681 2065.51 184.238 2066.2C183.802 2066.88 183.145 2067.37 182.266 2067.68L185.449 2073.5H183.398L180.439 2068C180.368 2068.01 180.254 2068.01 180.098 2068.01H177.031V2073.5H175.273V2059.36ZM180.02 2066.41C181.113 2066.41 181.908 2066.18 182.402 2065.72C182.904 2065.25 183.158 2064.59 183.164 2063.71C183.151 2061.85 182.096 2060.92 180 2060.92H177.031V2066.41H180.02ZM186.23 2073.5L191.406 2059.36H193.262L198.438 2073.5H196.582L195.166 2069.52H189.482L188.066 2073.5H186.23ZM194.629 2067.97L192.383 2061.64H192.266L190.02 2067.97H194.629ZM200.352 2059.36H202.109V2071.94H208.672V2073.5H200.352V2059.36Z" fill="#ADB5BD"/>
</g>
<path d="M534.956 107.375V130H531.331L520.613 114.531H520.425V130H516.363V107.375H520.05L530.706 122.844H530.925V107.375H534.956ZM545.544 130V107.375H560.263V110.781H549.606V116.969H559.481V120.375H549.606V126.562H560.325V130H545.544ZM575.35 130L568.975 107.375H573.35L577.444 124.031H577.662L582.006 107.375H586.006L590.381 124.062H590.569L594.662 107.375H599.037L592.662 130H588.631L584.1 114.094H583.944L579.381 130H575.35ZM622.025 130V107.375H630.681C635.588 107.375 638.009 109.875 638.025 113.25C638.009 116 636.275 117.531 634.056 118.062V118.281C636.463 118.406 638.9 120.406 638.9 123.844C638.9 127.359 636.353 130 631.181 130H622.025ZM626.088 126.594H630.556C633.525 126.594 634.759 125.328 634.775 123.531C634.759 121.5 633.181 119.953 630.65 119.938H626.088V126.594ZM626.088 117H630.181C632.322 117 633.947 115.766 633.963 113.75C633.947 112.016 632.697 110.75 630.275 110.75H626.088V117ZM668.8 118.688C668.816 126 664.347 130.312 658.425 130.312C652.472 130.312 648.034 125.984 648.05 118.688C648.034 111.375 652.472 107.062 658.425 107.062C664.347 107.062 668.816 111.375 668.8 118.688ZM652.144 118.688C652.128 123.859 654.737 126.656 658.425 126.656C662.128 126.656 664.722 123.859 664.706 118.688C664.722 113.516 662.128 110.719 658.425 110.719C654.737 110.719 652.128 113.516 652.144 118.688ZM699.013 118.688C699.028 126 694.559 130.312 688.638 130.312C682.684 130.312 678.247 125.984 678.263 118.688C678.247 111.375 682.684 107.062 688.638 107.062C694.559 107.062 699.028 111.375 699.013 118.688ZM682.356 118.688C682.341 123.859 684.95 126.656 688.638 126.656C692.341 126.656 694.934 123.859 694.919 118.688C694.934 113.516 692.341 110.719 688.638 110.719C684.95 110.719 682.341 113.516 682.356 118.688ZM709.038 130V107.375H713.1V117.781H713.413L722.256 107.375H727.225L718.475 117.531L727.319 130H722.413L715.631 120.281L713.1 123.25V130H709.038Z" fill="#ADB5BD"/>
<path d="M570.824 168.867V228.164H560.762V168.867H570.824ZM503.262 209.027C516.424 204.4 523.162 192.945 523.117 181.266V173.359H533.449V181.266C533.404 192.586 540.053 203.277 552.945 207.59L547.824 215.496C538.57 212.262 531.967 205.793 528.373 197.482C524.779 206.377 518.041 213.475 508.473 216.934L503.262 209.027ZM517.098 248.379V222.504H527.16V240.293H573.07V248.379H517.098ZM611.883 186.387C611.838 195.281 618.441 204.176 631.289 207.68L626.617 215.676C617.318 212.98 610.67 207.365 606.986 200.268C603.438 208.039 596.699 214.148 587.176 217.023L582.324 209.207C595.127 205.523 601.91 196.09 601.91 186.387V185.758H584.93V177.852H601.91V168.508H611.973V177.852H628.863V185.758H611.883V186.387ZM592.656 230.141V222.145H646.742V250.086H636.77V230.141H592.656ZM636.77 218.461V168.777H646.742V189.352H658.062V197.797H646.742V218.461H636.77ZM728.141 205.703V213.609H704.062V232.207H736.406V240.383H662.195V232.207H694.18V213.609H671.18V174.797H727.512V182.793H681.152V205.703H728.141ZM771.715 188.273C771.67 203.367 778.902 218.191 791.84 223.852L785.82 231.848C776.656 227.355 770.188 218.73 766.729 208.084C763.18 219.314 756.531 228.658 747.188 233.375L740.898 225.289C754.15 219.09 761.518 203.457 761.562 188.273V175.336H771.715V188.273ZM782.855 203.098V195.012H799.926V168.777H809.809V250.086H799.926V203.098H782.855Z" fill="white"/>
</g>
<defs>
<filter id="filter0_d_2498_7277" x="-38" y="-40" width="400" height="2240" filterUnits="userSpaceOnUse" color-interpolation-filters="sRGB">
<feFlood flood-opacity="0" result="BackgroundImageFix"/>
<feColorMatrix in="SourceAlpha" type="matrix" values="0 0 0 0 0 0 0 0 0 0 0 0 0 0 0 0 0 0 127 0" result="hardAlpha"/>
<feOffset dx="2"/>
<feGaussianBlur stdDeviation="20"/>
<feComposite in2="hardAlpha" operator="out"/>
<feColorMatrix type="matrix" values="0 0 0 0 0 0 0 0 0 0 0 0 0 0 0 0 0 0 0.1 0"/>
<feBlend mode="normal" in2="BackgroundImageFix" result="effect1_dropShadow_2498_7277"/>
<feBlend mode="normal" in="SourceGraphic" in2="effect1_dropShadow_2498_7277" result="shape"/>
</filter>
<linearGradient id="paint0_linear_2498_7277" x1="968" y1="-1.28119e-05" x2="1061.11" y2="809.069" gradientUnits="userSpaceOnUse">
<stop stop-color="#315FAD"/>
<stop offset="1" stop-color="#2A4F8C"/>
</linearGradient>
<clipPath id="clip0_2498_7277">
<rect width="3840" height="2160" fill="white"/>
</clipPath>
<clipPath id="clip1_2498_7277">
<rect width="96" height="96" fill="white" transform="translate(112 81.5)"/>
</clipPath>
<clipPath id="clip2_2498_7277">
<rect width="96" height="96" fill="white" transform="translate(112 441.5)"/>
</clipPath>
<clipPath id="clip3_2498_7277">
<rect width="96" height="96" fill="white" transform="translate(112 801.5)"/>
</clipPath>
<clipPath id="clip4_2498_7277">
<rect width="96" height="96" fill="white" transform="translate(112 1881.5)"/>
</clipPath>
</defs>
</svg>
