<svg xmlns="http://www.w3.org/2000/svg" width="9" height="9" viewBox="0 0 9 9" fill="none">
    <path d="M4.5268 0.121094C2.86234 0.121094 1.50376 1.51261 1.50376 3.21742C1.50376 3.79846 1.66421 4.3415 1.93815 4.80706L0.351562 6.51505L2.02503 7.10339L2.61041 8.90209L4.5268 6.93924L6.44319 8.90209L7.02772 7.10598L8.78132 6.50728L7.11713 4.80274C7.38965 4.33804 7.54984 3.79682 7.54984 3.21742C7.54984 1.51261 6.19126 0.121094 4.5268 0.121094ZM4.5268 1.00576C5.72447 1.00576 6.68611 1.99072 6.68611 3.21742C6.68611 4.44413 5.72447 5.42909 4.5268 5.42909C3.32913 5.42909 2.36748 4.44413 2.36748 3.21742C2.36748 1.99072 3.32913 1.00576 4.5268 1.00576ZM3.66307 1.89043V2.77509H4.09494V4.54442H4.95866V1.89043H3.66307ZM6.56887 5.49216L7.18208 6.12023L6.3445 6.4062L6.06531 7.26408L5.0835 6.25846C5.6502 6.14948 6.16022 5.87746 6.56887 5.49216ZM2.48979 5.49648C2.89764 5.87937 3.40563 6.14991 3.9701 6.25846L2.98829 7.26408L2.70994 6.40879L1.90526 6.12542L2.48979 5.49648Z" fill="url(#paint0_linear_3216_10769)"/>
    <defs>
        <linearGradient id="paint0_linear_3216_10769" x1="4.56644" y1="0.121094" x2="4.56644" y2="8.90209" gradientUnits="userSpaceOnUse">
            <stop stop-color="#63EBE6"/>
            <stop offset="1" stop-color="#71C1F3"/>
        </linearGradient>
    </defs>
</svg>