<svg xmlns="http://www.w3.org/2000/svg" width="13" height="13" viewBox="0 0 13 13" fill="none">
    <path d="M3.09267 2.60957C3.00549 2.60959 2.92029 2.63562 2.84797 2.68433C2.77566 2.73304 2.71951 2.80221 2.6867 2.88301C2.65389 2.96381 2.64592 3.05256 2.6638 3.13791C2.68169 3.22326 2.72461 3.30134 2.78709 3.36216L5.54502 6.12083L2.78709 8.8795C2.74503 8.9199 2.71145 8.96828 2.68831 9.02182C2.66518 9.07536 2.65296 9.13297 2.65237 9.19129C2.65177 9.24962 2.66282 9.30747 2.68486 9.36147C2.7069 9.41547 2.73949 9.46452 2.78072 9.50576C2.82195 9.547 2.87099 9.5796 2.92498 9.60165C2.97896 9.62369 3.0368 9.63474 3.0951 9.63415C3.15341 9.63356 3.21101 9.62133 3.26453 9.59819C3.31806 9.57505 3.36643 9.54146 3.40681 9.49939L6.16474 6.74072L8.92267 9.49939C8.96306 9.54146 9.01143 9.57505 9.06495 9.59819C9.11847 9.62133 9.17608 9.63356 9.23438 9.63415C9.29269 9.63475 9.35053 9.6237 9.40451 9.60165C9.45849 9.57961 9.50754 9.54701 9.54877 9.50577C9.59 9.46452 9.62259 9.41547 9.64463 9.36147C9.66667 9.30747 9.67771 9.24962 9.67712 9.1913C9.67653 9.13297 9.66431 9.07536 9.64117 9.02182C9.61804 8.96828 9.58446 8.9199 9.5424 8.8795L6.78446 6.12083L9.5424 3.36216C9.60573 3.30059 9.64898 3.22131 9.66649 3.13473C9.684 3.04814 9.67496 2.95828 9.64054 2.87692C9.60612 2.79557 9.54793 2.72651 9.47359 2.6788C9.39926 2.63109 9.31226 2.60696 9.22398 2.60957C9.11012 2.61296 9.00205 2.66056 8.92267 2.74228L6.16474 5.50095L3.40681 2.74228C3.36597 2.70028 3.31713 2.6669 3.26317 2.64411C3.20922 2.62131 3.15124 2.60957 3.09267 2.60957Z" fill="#ADB5BD"/>
</svg>