<svg xmlns="http://www.w3.org/2000/svg" width="22" height="22" viewBox="0 0 22 22" fill="none">
    <path d="M4.54194 4.18788C4.3658 4.18793 4.19368 4.24051 4.04758 4.33889C3.90148 4.43727 3.78803 4.57699 3.72175 4.74018C3.65547 4.90337 3.63937 5.08263 3.6755 5.25502C3.71163 5.42741 3.79835 5.58512 3.92457 5.70797L9.49647 11.2799L3.92457 16.8518C3.8396 16.9334 3.77175 17.0311 3.72502 17.1392C3.67828 17.2473 3.65359 17.3637 3.65239 17.4815C3.65119 17.5993 3.67351 17.7162 3.71804 17.8252C3.76256 17.9343 3.8284 18.0334 3.9117 18.1167C3.995 18.2 4.09408 18.2658 4.20315 18.3103C4.31221 18.3549 4.42906 18.3772 4.54686 18.376C4.66465 18.3748 4.78103 18.3501 4.88916 18.3034C4.9973 18.2566 5.09502 18.1888 5.17661 18.1038L10.7485 12.5319L16.3204 18.1038C16.402 18.1888 16.4997 18.2566 16.6078 18.3034C16.716 18.3501 16.8324 18.3748 16.9502 18.376C17.068 18.3772 17.1848 18.3549 17.2939 18.3103C17.4029 18.2658 17.502 18.2 17.5853 18.1167C17.6686 18.0334 17.7345 17.9343 17.779 17.8252C17.8235 17.7162 17.8458 17.5993 17.8446 17.4815C17.8434 17.3637 17.8187 17.2473 17.772 17.1392C17.7253 17.0311 17.6574 16.9334 17.5724 16.8518L12.0005 11.2799L17.5724 5.70797C17.7004 5.5836 17.7878 5.42348 17.8232 5.24859C17.8585 5.0737 17.8403 4.89221 17.7707 4.72789C17.7012 4.56357 17.5836 4.42409 17.4334 4.32773C17.2833 4.23137 17.1075 4.18263 16.9291 4.18788C16.6991 4.19474 16.4808 4.29088 16.3204 4.45593L10.7485 10.0278L5.17661 4.45593C5.09409 4.37111 4.99542 4.30369 4.88641 4.25765C4.7774 4.21162 4.66027 4.18789 4.54194 4.18788Z" fill="#6B7684"/>
</svg>