<svg width="3840" height="2160" viewBox="0 0 3840 2160" fill="none" xmlns="http://www.w3.org/2000/svg">
<g clip-path="url(#clip0_2993_7583)">
<rect width="3840" height="2160" fill="#E4E3E5"/>
<rect width="3840" height="2160" fill="url(#paint0_linear_2993_7583)"/>
<g filter="url(#filter0_f_2993_7583)">
<circle cx="3177.5" cy="2025.5" r="901.5" fill="#E4C19A" fill-opacity="0.6"/>
</g>
<g style="mix-blend-mode:screen" filter="url(#filter1_f_2993_7583)">
<circle cx="1174.43" cy="1104.43" r="826.066" transform="rotate(30 1174.43 1104.43)" fill="url(#paint1_linear_2993_7583)" fill-opacity="0.1"/>
</g>
<path d="M1624.33 113.594C1624.13 111.641 1622.49 110.516 1620.05 110.531C1617.48 110.516 1615.94 111.766 1615.93 113.469C1615.91 115.375 1617.93 116.156 1619.8 116.594L1621.93 117.156C1625.3 117.938 1628.55 119.719 1628.55 123.656C1628.55 127.625 1625.41 130.344 1619.99 130.344C1614.73 130.344 1611.38 127.812 1611.21 123.344H1615.21C1615.4 125.703 1617.38 126.859 1619.96 126.875C1622.63 126.859 1624.48 125.562 1624.49 123.625C1624.48 121.844 1622.85 121.094 1620.4 120.469L1617.83 119.812C1614.12 118.844 1611.8 116.969 1611.8 113.719C1611.8 109.719 1615.35 107.062 1620.12 107.062C1624.91 107.062 1628.18 109.766 1628.24 113.594H1624.33ZM1638.33 107.375H1643.33L1650.05 123.812H1650.33L1657.05 107.375H1662.05V130H1658.14V114.438H1657.92L1651.64 129.938H1648.73L1642.45 114.375H1642.27V130H1638.33V107.375ZM1675.51 130H1671.17L1679.13 107.375H1684.13L1692.13 130H1687.79L1685.9 124.406H1677.38L1675.51 130ZM1678.48 121.125H1684.81L1681.73 112H1681.54L1678.48 121.125ZM1701.22 130V107.375H1709.72C1714.91 107.375 1717.68 110.281 1717.69 114.594C1717.68 117.672 1716.27 119.953 1713.61 121.031L1718.5 130H1713.97L1709.53 121.719H1705.28V130H1701.22ZM1705.28 118.312H1709.1C1712.16 118.328 1713.53 117.016 1713.53 114.594C1713.53 112.188 1712.16 110.781 1709.1 110.781H1705.28V118.312ZM1726.59 110.781V107.375H1744.62V110.781H1737.65V130H1733.59V110.781H1726.59ZM1768.2 130V107.375H1776.7C1781.89 107.375 1784.66 110.281 1784.67 114.594C1784.66 117.672 1783.25 119.953 1780.59 121.031L1785.48 130H1780.95L1776.52 121.719H1772.27V130H1768.2ZM1772.27 118.312H1776.08C1779.14 118.328 1780.52 117.016 1780.52 114.594C1780.52 112.188 1779.14 110.781 1776.08 110.781H1772.27V118.312ZM1794.57 130V107.375H1809.29V110.781H1798.63V116.969H1808.51V120.375H1798.63V126.562H1809.35V130H1794.57ZM1834.85 115C1834.36 112.281 1832.19 110.719 1829.44 110.719C1825.74 110.719 1823.11 113.562 1823.13 118.688C1823.11 123.891 1825.75 126.656 1829.44 126.656C1832.13 126.656 1834.3 125.156 1834.85 122.5H1838.94C1838.32 126.844 1834.74 130.312 1829.38 130.312C1823.41 130.312 1819.02 125.984 1819.03 118.688C1819.02 111.375 1823.46 107.062 1829.38 107.062C1834.38 107.062 1838.24 109.969 1838.94 115H1834.85ZM1869.03 118.688C1869.04 126 1864.58 130.312 1858.65 130.312C1852.7 130.312 1848.26 125.984 1848.28 118.688C1848.26 111.375 1852.7 107.062 1858.65 107.062C1864.58 107.062 1869.04 111.375 1869.03 118.688ZM1852.37 118.688C1852.36 123.859 1854.97 126.656 1858.65 126.656C1862.36 126.656 1864.95 123.859 1864.93 118.688C1864.95 113.516 1862.36 110.719 1858.65 110.719C1854.97 110.719 1852.36 113.516 1852.37 118.688ZM1879.05 107.375H1884.05L1890.77 123.812H1891.05L1897.77 107.375H1902.77V130H1898.87V114.438H1898.65L1892.37 129.938H1889.46L1883.18 114.375H1882.99V130H1879.05V107.375ZM1913.36 107.375H1918.36L1925.08 123.812H1925.36L1932.08 107.375H1937.08V130H1933.17V114.438H1932.95L1926.67 129.938H1923.77L1917.48 114.375H1917.3V130H1913.36V107.375ZM1947.67 130V107.375H1962.38V110.781H1951.73V116.969H1961.6V120.375H1951.73V126.562H1962.45V130H1947.67ZM1991.28 107.375V130H1987.66L1976.94 114.531H1976.75V130H1972.69V107.375H1976.38L1987.03 122.844H1987.25V107.375H1991.28ZM2009.56 130H2001.87V107.375H2009.68C2016.43 107.375 2020.51 111.609 2020.53 118.656C2020.51 125.734 2016.43 130 2009.56 130ZM2005.93 126.469H2009.34C2014.08 126.484 2016.47 123.875 2016.47 118.656C2016.47 113.469 2014.08 110.891 2009.47 110.906H2005.93V126.469ZM2030.52 130V107.375H2045.24V110.781H2034.58V116.969H2044.46V120.375H2034.58V126.562H2045.3V130H2030.52ZM2063.23 130H2055.55V107.375H2063.36C2070.11 107.375 2074.19 111.609 2074.2 118.656C2074.19 125.734 2070.11 130 2063.23 130ZM2059.61 126.469H2063.02C2067.75 126.484 2070.14 123.875 2070.14 118.656C2070.14 113.469 2067.75 110.891 2063.14 110.906H2059.61V126.469ZM2098.19 130V107.375H2106.85C2111.75 107.375 2114.18 109.875 2114.19 113.25C2114.18 116 2112.44 117.531 2110.22 118.062V118.281C2112.63 118.406 2115.07 120.406 2115.07 123.844C2115.07 127.359 2112.52 130 2107.35 130H2098.19ZM2102.25 126.594H2106.72C2109.69 126.594 2110.93 125.328 2110.94 123.531C2110.93 121.5 2109.35 119.953 2106.82 119.938H2102.25V126.594ZM2102.25 117H2106.35C2108.49 117 2110.11 115.766 2110.13 113.75C2110.11 112.016 2108.86 110.75 2106.44 110.75H2102.25V117ZM2144.97 118.688C2144.98 126 2140.51 130.312 2134.59 130.312C2128.64 130.312 2124.2 125.984 2124.22 118.688C2124.2 111.375 2128.64 107.062 2134.59 107.062C2140.51 107.062 2144.98 111.375 2144.97 118.688ZM2128.31 118.688C2128.29 123.859 2130.9 126.656 2134.59 126.656C2138.29 126.656 2140.89 123.859 2140.87 118.688C2140.89 113.516 2138.29 110.719 2134.59 110.719C2130.9 110.719 2128.29 113.516 2128.31 118.688ZM2175.18 118.688C2175.19 126 2170.72 130.312 2164.8 130.312C2158.85 130.312 2154.41 125.984 2154.43 118.688C2154.41 111.375 2158.85 107.062 2164.8 107.062C2170.72 107.062 2175.19 111.375 2175.18 118.688ZM2158.52 118.688C2158.51 123.859 2161.12 126.656 2164.8 126.656C2168.51 126.656 2171.1 123.859 2171.08 118.688C2171.1 113.516 2168.51 110.719 2164.8 110.719C2161.12 110.719 2158.51 113.516 2158.52 118.688ZM2185.2 130V107.375H2189.27V117.781H2189.58L2198.42 107.375H2203.39L2194.64 117.531L2203.48 130H2198.58L2191.8 120.281L2189.27 123.25V130H2185.2ZM2224.57 113.594C2224.37 111.641 2222.73 110.516 2220.29 110.531C2217.71 110.516 2216.18 111.766 2216.17 113.469C2216.15 115.375 2218.17 116.156 2220.04 116.594L2222.17 117.156C2225.54 117.938 2228.79 119.719 2228.79 123.656C2228.79 127.625 2225.65 130.344 2220.23 130.344C2214.96 130.344 2211.62 127.812 2211.45 123.344H2215.45C2215.63 125.703 2217.62 126.859 2220.2 126.875C2222.87 126.859 2224.71 125.562 2224.73 123.625C2224.71 121.844 2223.09 121.094 2220.63 120.469L2218.07 119.812C2214.35 118.844 2212.04 116.969 2212.04 113.719C2212.04 109.719 2215.59 107.062 2220.35 107.062C2225.15 107.062 2228.42 109.766 2228.48 113.594H2224.57Z" fill="#ADB5BD"/>
<path d="M1696.52 178.617C1696.52 190.605 1708.25 202.68 1724.54 205.516L1720.24 213.508C1707.22 210.801 1696.56 202.895 1691.49 192.453C1686.38 202.809 1675.72 210.758 1662.75 213.508L1658.54 205.516C1674.56 202.594 1686.34 190.562 1686.38 178.617V172.859H1696.52V178.617ZM1656.39 235.766V227.859H1727.37V235.766H1656.39ZM1771.97 175.523V226.398H1735.19V175.523H1771.97ZM1744.56 218.75H1762.43V183H1744.56V218.75ZM1783.75 245.648V167.961H1793.29V197.781H1805.23V205.859H1793.29V245.648H1783.75ZM1871.66 208.695V216.258H1817.18V174.062H1870.97V181.797H1826.89V191.164H1869.17V198.641H1826.89V208.695H1871.66ZM1808.5 236.195V228.375H1879.48V236.195H1808.5ZM1947.63 203.281V210.844H1924.6V228.633H1955.54V236.453H1884.55V228.633H1915.14V210.844H1893.14V173.719H1947.03V181.367H1902.68V203.281H1947.63ZM1989.31 186.609C1989.27 201.047 1996.18 215.227 2008.56 220.641L2002.8 228.289C1994.04 223.992 1987.85 215.742 1984.54 205.559C1981.14 216.301 1974.79 225.238 1965.85 229.75L1959.83 222.016C1972.51 216.086 1979.55 201.133 1979.6 186.609V174.234H1989.31V186.609ZM1999.96 200.789V193.055H2016.29V167.961H2025.75V245.734H2016.29V200.789H1999.96ZM2107.47 214.625V222.445H2076.71V245.734H2067.25V222.445H2036.66V214.625H2107.47ZM2040.53 202.336C2056.04 200.445 2066.22 192.496 2067.17 184.719H2043.19V177.156H2067.25V168.047H2076.71V177.156H2100.86V184.719H2076.88C2077.78 192.41 2087.92 200.445 2103.43 202.336L2099.91 209.898C2087.06 208.266 2077.09 202.637 2072.07 195.16C2067 202.723 2056.9 208.266 2043.96 209.898L2040.53 202.336ZM2140.64 186.352C2140.6 195.59 2147.09 204.57 2159.38 208.352L2154.74 215.828C2145.93 213.207 2139.53 207.578 2136 200.445C2132.57 208.137 2126.16 214.195 2117.1 217.117L2112.46 209.641C2124.7 205.816 2131.11 196.32 2131.11 186.352V185.148H2114.86V177.586H2131.11V168.477H2140.73V177.586H2156.89V185.148H2140.64V186.352ZM2126.81 244.102V220.727H2136.35V236.367H2179.75V244.102H2126.81ZM2154.31 198.812V191.164H2168.23V168.047H2177.77V225.711H2168.23V198.812H2154.31Z" fill="#191F28"/>
<path d="M115.849 1986L100 2002L115.849 2018V2006H143.585C154.575 2006 163.396 2014.91 163.396 2026C163.396 2037.09 154.575 2046 143.585 2046H103.962V2054H143.585C158.857 2054 171.321 2041.42 171.321 2026C171.321 2010.58 158.857 1998 143.585 1998H115.849V1986Z" fill="#191F28"/>
<path d="M330 463H3510V465H330V463Z" fill="#191F28"/>
<rect x="330" y="463" width="1080" height="10" fill="#7B3AD8"/>
<path d="M1850.38 359.217C1850.38 366.858 1855.44 374.744 1861.61 377.771L1859.27 380.848C1854.48 378.357 1850.48 373.206 1848.55 367.176C1846.62 373.572 1842.52 379.065 1837.64 381.678L1835.2 378.602C1841.54 375.477 1846.57 367.151 1846.62 359.217V351.307H1850.38V359.217ZM1865.62 390.955V347.547H1869.43V365.174H1876.7V368.494H1869.43V390.955H1865.62ZM1894.33 359.217C1894.3 367.078 1899.36 374.988 1905.66 377.869L1903.36 380.994C1898.43 378.455 1894.35 373.279 1892.42 367.103C1890.5 373.597 1886.42 379.163 1881.49 381.775L1879 378.699C1885.37 375.574 1890.4 367.225 1890.42 359.217V351.307H1894.33V359.217ZM1900.92 365.516V362.391H1911.22V347.547H1915.03V391.053H1911.22V365.516H1900.92ZM1961.81 373.816V377.039H1943.89V391.053H1940.13V377.039H1922.26V373.816H1961.81ZM1924.75 367.371C1932.49 366.321 1940.1 361.585 1940.13 356.141V356.092H1926.12V352.967H1940.13V347.547H1943.89V352.967H1958V356.092H1943.94V356.141C1943.94 361.561 1951.51 366.321 1959.27 367.371L1957.85 370.447C1951.14 369.422 1944.82 366.053 1942.06 361.341C1939.3 366.102 1932.88 369.422 1926.16 370.447L1924.75 367.371ZM1980.27 357.947C1980.29 363.733 1984.86 368.763 1991.3 370.789L1989.4 373.865C1984.39 372.229 1980.41 368.787 1978.46 364.319C1976.58 369.104 1972.62 372.815 1967.52 374.598L1965.62 371.619C1972.04 369.471 1976.48 364.075 1976.51 357.947V356.531H1966.69V353.406H1976.51V347.84H1980.36V353.406H1990.08V356.531H1980.27V357.947ZM1973.58 390.027V377.088H1977.43V386.805H2002.68V390.027H1973.58ZM1988.57 364.148V360.975H1997.6V347.596H2001.46V380.018H1997.6V364.148H1988.57Z" fill="#6B7684"/>
<path d="M788.054 351.307C788.005 364.979 784.245 376.624 767.448 384.852L764.177 380.066C771.501 376.429 776.091 372.278 778.776 367.298L765.3 368.494L764.519 363.221L780.778 362.244C781.315 360.389 781.633 358.387 781.828 356.287H766.813V351.307H788.054ZM794.841 391.492V347.059H801.14V391.492H794.841ZM844.938 347.107V391.492H838.591V381.678H829.558V376.99H838.591V347.107H844.938ZM806.804 369.617C815.129 369.617 826.164 369.568 835.759 368.299L836.101 372.84C832.194 373.523 828.19 373.963 824.235 374.231V390.174H817.937V374.549C814.25 374.671 810.734 374.695 807.585 374.695L806.804 369.617ZM809.929 357.996C809.904 352.649 814.689 348.89 821.354 348.865C827.922 348.89 832.756 352.649 832.78 357.996C832.756 363.465 827.922 367.078 821.354 367.078C814.689 367.078 809.904 363.465 809.929 357.996ZM815.788 357.996C815.764 360.779 818.034 362.342 821.354 362.342C824.553 362.342 826.823 360.779 826.872 357.996C826.823 355.286 824.577 353.602 821.354 353.602C818.034 353.602 815.764 355.286 815.788 357.996ZM886.442 367.615V372.596H854.997V350.77H886.101V355.799H861.149V367.615H886.442ZM850.212 386.072V380.945H890.886V386.072H850.212ZM933.952 373.67V378.748H916.716V391.541H910.563V378.748H893.425V373.67H933.952ZM895.476 366.395C904.704 365.369 909.709 361.023 910.466 357.068H897.087V352.186H910.563V347.107H916.716V352.186H930.241V357.068H916.911C917.595 360.975 922.6 365.369 931.804 366.395L929.558 371.277C922.014 370.423 916.569 367.322 913.688 363.294C910.783 367.371 905.314 370.423 897.722 371.277L895.476 366.395ZM952.995 357.508C953.02 362.513 956.267 367.615 963.493 369.812L960.515 374.646C955.534 373.206 952.019 370.154 950.017 366.297C948.039 370.472 944.523 373.768 939.372 375.379L936.345 370.496C943.571 368.323 946.794 362.928 946.794 357.508V357.166H937.858V352.283H946.794V347.352H953.093V352.283H961.979V357.166H952.995V357.508ZM944.597 390.711V377.234H950.847V385.73H975.163V390.711H944.597ZM960.515 365.076V360.047H967.888V347.107H974.089V380.066H967.888V365.076H960.515Z" fill="#191F28"/>
<path d="M2848.22 350.232V357.068H2861.02V350.232H2864.82V370.691H2844.41V350.232H2848.22ZM2848.22 367.566H2861.02V360.145H2848.22V367.566ZM2848.76 379.383V376.307H2877.96V390.955H2874.15V379.383H2848.76ZM2874.15 373.865V347.547H2877.96V373.865H2874.15ZM2922.49 347.547V390.955H2918.78V347.547H2922.49ZM2887.04 380.506V352.918H2903.4V356.092H2890.75V377.283C2897.03 377.234 2900.98 377.015 2905.64 375.965L2906.04 379.236C2901.01 380.262 2896.76 380.481 2889.78 380.506H2887.04ZM2900.47 367.371V364.148H2909.94V348.621H2913.6V388.709H2909.94V367.371H2900.47ZM2964.34 347.547V391.053H2960.48V347.547H2964.34ZM2930.16 366.053C2930.18 356.824 2934.77 350.94 2941.24 350.916C2947.69 350.94 2952.35 356.824 2952.32 366.053C2952.35 375.306 2947.69 381.165 2941.24 381.141C2934.77 381.165 2930.18 375.306 2930.16 366.053ZM2933.87 366.053C2933.87 373.108 2936.89 377.747 2941.24 377.723C2945.61 377.747 2948.61 373.108 2948.61 366.053C2948.61 358.997 2945.61 354.358 2941.24 354.334C2936.89 354.358 2933.87 358.997 2933.87 366.053ZM3007.74 347.547V391.053H3003.94V367.127H2994.76V363.953H3003.94V347.547H3007.74ZM2973.76 380.555V351.551H2994.02V354.725H2977.62V363.758H2992.12V366.883H2977.62V377.381C2985.58 377.356 2990.7 377.137 2996.66 376.062L2997.1 379.236C2990.78 380.262 2985.48 380.555 2977.08 380.555H2973.76ZM3054.52 373.816V377.039H3036.6V391.053H3032.84V377.039H3014.97V373.816H3054.52ZM3017.46 367.371C3025.2 366.321 3032.82 361.585 3032.84 356.141V356.092H3018.83V352.967H3032.84V347.547H3036.6V352.967H3050.71V356.092H3036.65V356.141C3036.65 361.561 3044.22 366.321 3051.98 367.371L3050.57 370.447C3043.85 369.422 3037.53 366.053 3034.77 361.341C3032.01 366.102 3025.59 369.422 3018.88 370.447L3017.46 367.371ZM3072.98 357.947C3073 363.733 3077.57 368.763 3084.01 370.789L3082.11 373.865C3077.1 372.229 3073.12 368.787 3071.17 364.319C3069.29 369.104 3065.34 372.815 3060.23 374.598L3058.33 371.619C3064.75 369.471 3069.19 364.075 3069.22 357.947V356.531H3059.4V353.406H3069.22V347.84H3073.08V353.406H3082.79V356.531H3072.98V357.947ZM3066.29 390.027V377.088H3070.15V386.805H3095.39V390.027H3066.29ZM3081.28 364.148V360.975H3090.31V347.596H3094.17V380.018H3090.31V364.148H3081.28Z" fill="#6B7684"/>
<g clip-path="url(#clip1_2993_7583)">
<path d="M0 440C0 384.772 44.7715 340 100 340H3740C3795.23 340 3840 384.772 3840 440V2160H0V440Z" fill="url(#paint2_linear_2993_7583)"/>
<path d="M1552.21 505.492V611.547H1539.08V505.492H1552.21ZM1467.48 550.609C1467.42 527.758 1479.08 513.227 1495.14 513.227C1511.02 513.227 1522.73 527.758 1522.79 550.609C1522.73 573.637 1511.02 588.109 1495.14 588.109C1479.08 588.109 1467.42 573.637 1467.48 550.609ZM1480.02 550.609C1480.02 566.898 1486.17 576.332 1495.14 576.391C1504.04 576.332 1510.14 566.898 1510.14 550.609C1510.14 534.438 1504.04 524.945 1495.14 524.945C1486.17 524.945 1480.02 534.438 1480.02 550.609ZM1616.71 512.758V545.57H1582.02V558.93C1599.54 558.871 1611.26 558.285 1624.44 556.117L1625.5 566.781C1610.85 569.066 1597.96 569.418 1577.57 569.477H1568.89V535.492H1603.7V523.188H1568.78V512.758H1616.71ZM1583.43 609.32V577.328H1596.43V598.773H1656.32V609.32H1583.43ZM1622.45 542.758V531.742H1640.5V505.609H1653.5V583.539H1640.5V542.758H1622.45ZM1723.68 529.281C1723.68 540.473 1730.47 551.547 1743.83 556.117L1737.97 565.961C1728.25 562.387 1721.57 555.707 1717.76 547.562C1714.07 556.469 1707.33 563.793 1697.31 567.719L1691.21 558.109C1704.63 552.836 1711.25 541.293 1711.37 529.281V528.461H1693.91V518.266H1711.37V506.664H1723.68V518.266H1740.9V528.461H1723.68V529.281ZM1709.03 585.766V575.219H1781.57V611.43H1768.56V585.766H1709.03ZM1746.64 569.945V507.367H1758.95V532.797H1769.14V505.609H1781.57V570.414H1769.14V543.344H1758.95V569.945H1746.64ZM1888.25 560.219V570.648H1791.69V560.219H1888.25ZM1801.65 530.336C1801.65 516.918 1816.71 508.832 1839.86 508.891C1862.94 508.832 1878 516.918 1878.06 530.336C1878 543.812 1862.94 552.016 1839.86 552.016C1816.71 552.016 1801.65 543.812 1801.65 530.336ZM1803.64 609.32V578.5H1816.65V598.773H1877.36V609.32H1803.64ZM1815.25 530.336C1815.13 537.543 1824.45 541.41 1839.86 541.352C1855.32 541.41 1864.58 537.543 1864.58 530.336C1864.58 523.363 1855.32 519.32 1839.86 519.32C1824.45 519.32 1815.13 523.363 1815.25 530.336ZM1946.82 513.227C1961.12 513.227 1971.73 525.18 1973.6 544.516H1993.82V505.492H2006.71V611.547H1993.82V555.062H1973.72C1972.31 575.512 1961.53 588.109 1946.82 588.109C1930.89 588.109 1919.58 573.637 1919.64 550.609C1919.58 527.758 1930.89 513.227 1946.82 513.227ZM1932.18 550.609C1932.12 566.898 1938.09 576.332 1946.82 576.391C1955.61 576.332 1961.53 566.898 1961.59 550.609C1961.53 534.438 1955.61 524.945 1946.82 524.945C1938.09 524.945 1932.12 534.438 1932.18 550.609ZM2111.05 598.773V609.32H2035.58V575.805H2048.59V598.773H2111.05ZM2020.7 566.664V513.812H2048.12V524.359H2033.47V556.059C2038.51 555.883 2043.43 555.355 2048.94 554.125L2050 564.672C2041.21 566.664 2034.23 566.605 2025.62 566.664H2020.7ZM2053.51 566.664V513.812H2083.16V524.359H2066.4V556.176C2074.55 556 2079.94 555.473 2086.09 554.008L2087.38 564.555C2078.94 566.43 2072.2 566.605 2059.14 566.664H2053.51ZM2079.18 544.516V533.969H2095.46V505.609H2108.24V582.25H2095.46V544.516H2079.18ZM2202.27 505.492V546.859H2217.97V557.758H2202.27V611.195H2189.26V505.492H2202.27ZM2118.71 582.25C2144.5 569.359 2158.44 551.43 2161.02 527.289H2124.46V516.508H2174.26C2174.2 547.621 2161.31 574.984 2126.1 592.328L2118.71 582.25ZM2316.81 587.875V598.539H2220.01V587.875H2242.39V561.098C2233.96 556.234 2228.86 548.617 2228.92 539.242C2228.86 522.367 2245.38 511.234 2268.18 511.234C2291.09 511.234 2307.73 522.367 2307.67 539.242C2307.73 548.5 2302.75 555.941 2294.54 560.805V587.875H2316.81ZM2241.69 539.242C2241.63 550.082 2252.36 556.996 2268.18 556.938C2283.94 556.996 2294.89 550.082 2294.89 539.242C2294.89 528.227 2283.94 521.488 2268.18 521.547C2252.36 521.488 2241.63 528.227 2241.69 539.242ZM2255.29 587.875H2281.3V565.785C2277.26 566.664 2272.86 567.133 2268.18 567.133C2263.61 567.133 2259.27 566.664 2255.29 565.844V587.875ZM2338.65 574.984C2338.77 560.043 2342.99 555.473 2350.37 550.961C2355.35 547.738 2359.22 543.812 2359.16 537.953C2359.22 531.391 2354.06 527.172 2347.68 527.172C2341.88 527.172 2336.25 530.922 2335.84 538.773H2321.19C2321.6 523.012 2333.32 514.984 2347.79 514.984C2363.61 514.984 2374.45 523.773 2374.51 537.719C2374.45 547.27 2369.71 553.48 2362.09 557.992C2355.29 562.152 2352.48 566.195 2352.36 574.984V576.039H2338.65V574.984ZM2336.78 592.797C2336.72 587.875 2340.88 583.832 2345.92 583.773C2350.78 583.832 2354.94 587.875 2354.94 592.797C2354.94 597.836 2350.78 601.938 2345.92 601.938C2340.88 601.938 2336.72 597.836 2336.78 592.797Z" fill="#242424"/>
<path d="M1313.85 673.48V725.98H1308.29V673.48H1313.85ZM1270.73 711.684C1275.06 711.654 1279.98 711.625 1285.14 711.508V706.234C1279.02 705.414 1275.03 701.811 1275.06 696.684C1275.03 690.766 1280.19 686.869 1287.78 686.84C1295.45 686.869 1300.7 690.766 1300.73 696.684C1300.7 701.752 1296.74 705.326 1290.65 706.205V711.303C1295.51 711.068 1300.43 710.717 1305.06 710.102L1305.47 714.262C1293.81 716.195 1281.1 716.342 1271.49 716.312L1270.73 711.684ZM1271.84 684.203V679.75H1285.14V673.598H1290.71V679.75H1303.89V684.203H1271.84ZM1280.34 696.684C1280.28 700.023 1283.38 702.104 1287.78 702.074C1292.32 702.104 1295.39 700.023 1295.39 696.684C1295.39 693.314 1292.32 691.176 1287.78 691.176C1283.38 691.176 1280.28 693.314 1280.34 696.684ZM1364.44 673.539V713.324H1358.88V708.285H1348.33V704.359H1358.88V673.539H1364.44ZM1320.55 697.504C1330.25 697.416 1343.35 697.328 1354.54 695.922L1354.89 699.906C1350.41 700.668 1345.69 701.137 1341.06 701.459V711.684H1335.5V701.752C1330.4 701.957 1325.51 701.957 1321.26 701.957L1320.55 697.504ZM1324.66 684.789C1324.63 679.223 1329.93 675.531 1337.72 675.531C1345.4 675.531 1350.73 679.223 1350.73 684.789C1350.73 690.385 1345.4 693.93 1337.72 693.93C1329.96 693.93 1324.63 690.385 1324.66 684.789ZM1327.82 724.867V709.457H1333.33V720.355H1365.73V724.867H1327.82ZM1329.93 684.789C1329.9 687.895 1333.06 689.828 1337.72 689.828C1342.21 689.828 1345.43 687.895 1345.46 684.789C1345.43 681.654 1342.21 679.633 1337.72 679.691C1333.06 679.633 1329.9 681.654 1329.93 684.789ZM1414.62 673.48V703.129H1409.11V673.48H1414.62ZM1374.37 699.613V676.527H1379.93V694.926C1388.4 694.867 1395.81 694.281 1403.72 692.582L1404.48 697.211C1395.81 698.969 1387.9 699.584 1378.7 699.613H1374.37ZM1380.23 725.277V705.531H1414.62V725.277H1380.23ZM1385.68 720.824H1409.17V709.926H1385.68V720.824ZM1438.61 677.23C1446.9 677.201 1452.88 682.328 1452.91 689.711C1452.88 697.094 1446.9 702.221 1438.61 702.25C1430.35 702.221 1424.28 697.094 1424.31 689.711C1424.28 682.328 1430.35 677.201 1438.61 677.23ZM1421.79 710.16C1431.34 710.16 1444.59 710.072 1456.07 708.402L1456.48 712.445C1444.62 714.73 1431.87 714.789 1422.5 714.789L1421.79 710.16ZM1429.82 689.711C1429.76 694.369 1433.51 697.387 1438.61 697.387C1443.71 697.387 1447.46 694.369 1447.46 689.711C1447.46 685.111 1443.71 682.035 1438.61 682.035C1433.51 682.035 1429.76 685.111 1429.82 689.711ZM1459.35 726.098V673.48H1464.92V726.098H1459.35ZM1534.05 694.105V698.676H1525.9V725.922H1520.34V673.48H1525.9V694.105H1534.05ZM1487 712.738V678.578H1492.5V708.109C1499.83 708.08 1507.47 707.465 1515.82 705.766L1516.47 710.453C1507.47 712.24 1499.21 712.768 1491.33 712.738H1487ZM1578.84 673.48V726.098H1573.27V673.48H1578.84ZM1537.18 695.805C1537.18 684.584 1542.83 677.436 1550.77 677.406C1558.56 677.436 1564.3 684.584 1564.3 695.805C1564.3 707.143 1558.56 714.291 1550.77 714.262C1542.83 714.291 1537.18 707.143 1537.18 695.805ZM1542.57 695.805C1542.54 704.154 1545.88 709.281 1550.77 709.281C1555.57 709.281 1558.91 704.154 1558.91 695.805C1558.91 687.572 1555.57 682.416 1550.77 682.387C1545.88 682.416 1542.54 687.572 1542.57 695.805ZM1595.15 716.957L1590.46 733.129H1585.48L1588.59 716.957H1595.15ZM1631.35 681.332C1631.32 688.686 1636.09 695.248 1644.06 697.855L1641.02 702.191C1635.24 700.082 1631 696.039 1628.71 690.766C1626.46 696.771 1621.88 701.488 1615.53 703.773L1612.54 699.32C1620.92 696.449 1625.78 689.447 1625.84 681.566V676.41H1631.35V681.332ZM1621.15 715.961C1621.12 709.604 1627.86 705.912 1638.91 705.941C1649.89 705.912 1656.63 709.604 1656.66 715.961C1656.63 722.289 1649.89 725.893 1638.91 725.863C1627.86 725.893 1621.12 722.289 1621.15 715.961ZM1626.66 715.961C1626.63 719.447 1631.2 721.498 1638.91 721.469C1646.55 721.498 1651.12 719.447 1651.15 715.961C1651.12 712.357 1646.55 710.277 1638.91 710.277C1631.2 710.277 1626.63 712.357 1626.66 715.961ZM1639.84 688.715V684.145H1650.92V673.48H1656.48V704.477H1650.92V688.715H1639.84ZM1706.78 673.48V700.785H1701.27V694.516H1689.79V698.852H1665.59V675.883H1671.16V682.973H1684.28V675.883H1689.79V680.688H1701.27V673.48H1706.78ZM1671.16 694.398H1684.28V687.25H1671.16V694.398ZM1672.45 707.465V703.129H1706.78V716.02H1678.13V720.883H1708.66V725.336H1672.56V711.859H1701.27V707.465H1672.45ZM1689.79 690.238H1701.27V684.965H1689.79V690.238ZM1770.34 673.48V704.711H1764.78V691.41H1754.99V686.84H1764.78V673.48H1770.34ZM1726.57 699.965C1734.72 697.123 1739.73 690.033 1739.7 682.797V681.625H1728.33V677.113H1756.63V681.625H1745.38V682.738C1745.35 689.389 1750.1 695.863 1758.04 698.559L1755.17 702.953C1749.28 700.932 1744.94 696.713 1742.66 691.527C1740.37 697.387 1735.77 702.104 1729.5 704.418L1726.57 699.965ZM1735.01 716.078C1734.98 709.838 1741.72 706.205 1752.77 706.176C1763.75 706.205 1770.49 709.838 1770.52 716.078C1770.49 722.318 1763.75 725.951 1752.77 725.98C1741.72 725.951 1734.98 722.318 1735.01 716.078ZM1740.52 716.078C1740.49 719.623 1745.06 721.645 1752.77 721.586C1760.41 721.645 1764.98 719.623 1765.01 716.078C1764.98 712.504 1760.41 710.482 1752.77 710.512C1745.06 710.482 1740.49 712.504 1740.52 716.078ZM1824.98 714.848V719.477H1776.93V714.848H1798.08V704.066H1782.44V677.055H1788V686.078H1813.79V677.055H1819.29V704.066H1803.59V714.848H1824.98ZM1788 699.555H1813.79V690.59H1788V699.555ZM1875.27 697.562V701.84H1827.23V697.562H1875.27ZM1832.91 709.516V705.531H1869.36V717.074H1838.54V721.41H1871V725.336H1832.97V713.383H1863.85V709.516H1832.91ZM1833.26 678.754V674.828H1869.24V686.195H1838.89V690.18H1870.12V694.105H1833.38V682.504H1863.67V678.754H1833.26ZM1938.78 700.961V705.414H1917.92V715.082H1912.41V705.414H1890.73V700.961H1938.78ZM1896.71 724.867V710.512H1902.21V720.355H1933.45V724.867H1896.71ZM1897.06 696.332V675.121H1902.57V681.508H1926.88V675.121H1932.45V696.332H1897.06ZM1902.57 691.879H1926.88V685.668H1902.57V691.879ZM1959.66 681.859C1959.63 688.832 1964.41 695.395 1972.32 698.031L1969.27 702.484C1963.5 700.375 1959.22 696.156 1956.96 690.854C1954.65 696.684 1950.2 701.254 1944.07 703.598L1941.09 699.086C1949.32 696.244 1954.06 689.33 1954.09 681.566V676.176H1959.66V681.859ZM1949.35 711.742V707.348H1984.91V725.98H1979.35V711.742H1949.35ZM1968.27 688.656V684.086H1979.35V673.48H1984.91V704.594H1979.35V688.656H1968.27ZM2032.75 673.539V690.414H2040.37V695.043H2032.75V712.797H2027.18V673.539H2032.75ZM1991.56 684.145V679.633H2004.45V673.48H2010.02V679.633H2022.85V684.145H1991.56ZM1994.43 696.566C1994.4 690.561 1999.59 686.635 2007.2 686.664C2014.73 686.635 2019.92 690.561 2019.92 696.566C2019.92 702.514 2014.73 706.381 2007.2 706.41C1999.59 706.381 1994.4 702.514 1994.43 696.566ZM1999.47 724.867V709.691H2005.04V720.355H2034.98V724.867H1999.47ZM1999.82 696.566C1999.76 699.994 2002.75 702.104 2007.2 702.074C2011.66 702.104 2014.64 699.994 2014.7 696.566C2014.64 693.109 2011.66 690.971 2007.2 690.941C2002.75 690.971 1999.76 693.109 1999.82 696.566ZM2081.61 676.996V699.613H2057.05V676.996H2081.61ZM2060.1 721.469C2069.1 720.18 2075.8 715.756 2076.65 710.629H2062.21V706.176H2097.07V710.629H2082.69C2083.48 715.639 2090.31 720.18 2099.24 721.527L2097.19 725.805C2089.22 724.574 2082.66 720.912 2079.61 715.932C2076.62 720.941 2070.12 724.545 2062.15 725.746L2060.1 721.469ZM2062.5 695.16H2076.16V681.449H2062.5V695.16ZM2090.69 703.246V673.48H2096.25V685.668H2103.87V690.297H2096.25V703.246H2090.69ZM2153.23 699.203V703.656H2132.02V708.812H2147.37V725.336H2111.1V708.812H2126.51V703.656H2105.36V699.203H2153.23ZM2107.88 692.289C2118.4 691.469 2125.54 687.748 2126.16 682.68H2110.16V678.285H2126.51V673.305H2132.02V678.285H2148.43V682.68H2132.34C2132.93 687.748 2140.16 691.469 2150.65 692.289L2149.01 696.449C2139.87 695.658 2132.52 692.729 2129.27 687.895C2125.98 692.729 2118.63 695.658 2109.58 696.449L2107.88 692.289ZM2116.61 720.824H2141.98V713.266H2116.61V720.824ZM2171.59 685.023C2171.59 690.941 2175.34 696.713 2182.02 699.086L2179.39 703.305C2174.44 701.4 2170.98 697.797 2169.1 693.402C2167.26 698.178 2163.74 702.104 2158.64 704.184L2156.01 700.082C2162.66 697.387 2166.29 691.381 2166.32 685.023V684.555H2157.18V680.102H2166.32V674.066H2171.59V680.102H2180.62V684.555H2171.59V685.023ZM2164.8 712.797V708.285H2200.48V725.98H2194.97V712.797H2164.8ZM2183.9 705.414V674.418H2189.23V687.25H2195.21V673.539H2200.48V705.648H2195.21V691.82H2189.23V705.414H2183.9ZM2229.98 674.359C2241.81 674.33 2248.7 677.523 2248.73 683.383C2248.7 689.271 2241.81 692.465 2229.98 692.465C2218.14 692.465 2211.2 689.271 2211.23 683.383C2211.2 677.523 2218.14 674.33 2229.98 674.359ZM2206.07 700.141V695.688H2253.94V700.141H2206.07ZM2211.81 708.344V704.184H2247.91V716.488H2217.32V721.176H2249.37V725.453H2211.87V712.445H2242.4V708.344H2211.81ZM2217.03 683.383C2217 686.635 2221.63 688.305 2229.98 688.305C2238.38 688.305 2243.01 686.635 2242.98 683.383C2243.01 680.277 2238.38 678.461 2229.98 678.461C2221.63 678.461 2217 680.277 2217.03 683.383ZM2317.45 705.121V709.691H2296.23V726.039H2290.73V709.691H2269.57V705.121H2317.45ZM2272.39 697.035C2282.35 695.775 2290.38 690.209 2290.73 684.32H2274.09V679.809H2290.73V673.48H2296.23V679.809H2312.88V684.32H2296.29C2296.59 690.15 2304.53 695.775 2314.52 697.035L2312.52 701.488C2304.09 700.316 2296.91 696.361 2293.51 691C2290.11 696.42 2282.9 700.316 2274.44 701.488L2272.39 697.035ZM2338.33 685.961C2338.33 692.582 2343.28 698.676 2351.34 701.195L2348.64 705.59C2342.61 703.686 2338.06 699.701 2335.66 694.574C2333.38 700.053 2328.84 704.359 2322.62 706.41L2319.93 702.074C2327.96 699.496 2332.82 693.021 2332.82 685.961V684.73H2321.39V680.219H2332.82V673.832H2338.39V680.219H2349.75V684.73H2338.33V685.961ZM2329.6 724.867V709.164H2335.16V720.355H2365.11V724.867H2329.6ZM2347.94 693.93V689.418H2358.13V673.539H2363.7V712.621H2358.13V693.93H2347.94ZM2396.24 682.152V686.664H2370.17V682.152H2380.48V675.004H2385.99V682.152H2396.24ZM2371.87 701.898C2371.84 694.838 2376.64 689.828 2383.23 689.828C2389.88 689.828 2394.63 694.838 2394.66 701.898C2394.63 709.076 2389.88 714.115 2383.23 714.086C2376.64 714.115 2371.84 709.076 2371.87 701.898ZM2376.79 701.898C2376.76 706.352 2379.46 709.34 2383.23 709.34C2387.01 709.34 2389.74 706.352 2389.74 701.898C2389.74 697.533 2387.01 694.486 2383.23 694.457C2379.46 694.486 2376.76 697.533 2376.79 701.898ZM2398.64 723.52V674.652H2403.92V695.336H2409.95V673.48H2415.23V725.98H2409.95V699.906H2403.92V723.52H2398.64ZM2463.18 698.383V702.953H2426.62V678.168H2462.71V682.738H2432.12V698.383H2463.18ZM2420.64 719.066V714.438H2468.69V719.066H2420.64ZM2514.71 673.48V726.098H2509.2V704.125H2498.95V699.496H2509.2V689.77H2499.24V685.199H2509.2V673.48H2514.71ZM2472.81 682.621V678.109H2496.07V697.27H2478.5V709.34C2485.91 709.311 2492.18 708.959 2499.65 707.875L2500.12 712.445C2491.91 713.734 2485.21 713.969 2476.91 713.969H2472.93V692.875H2490.62V682.621H2472.81ZM2569.4 714.789V719.418H2521.35V714.789H2532.84V701.078C2528.53 698.705 2525.89 694.955 2525.92 690.238C2525.89 681.977 2534.01 676.557 2545.26 676.527C2556.54 676.557 2564.65 681.977 2564.65 690.238C2564.65 694.867 2562.13 698.588 2557.91 700.961V714.789H2569.4ZM2531.31 690.238C2531.31 695.863 2537.03 699.525 2545.26 699.555C2553.43 699.525 2559.23 695.863 2559.26 690.238C2559.23 684.584 2553.43 680.98 2545.26 680.98C2537.03 680.98 2531.31 684.584 2531.31 690.238ZM2538.34 714.789H2552.29V703.129C2550.15 703.627 2547.78 703.891 2545.26 703.891C2542.8 703.891 2540.45 703.627 2538.34 703.129V714.789Z" fill="#6B7684"/>
</g>
<path d="M115.849 1984L100 2000L115.849 2016V2004H143.585C154.575 2004 163.396 2012.91 163.396 2024C163.396 2035.09 154.575 2044 143.585 2044H103.962V2052H143.585C158.857 2052 171.321 2039.42 171.321 2024C171.321 2008.58 158.857 1996 143.585 1996H115.849V1984Z" fill="#191F28"/>
<g filter="url(#filter2_d_2993_7583)">
<rect x="3354" y="1960.06" width="386" height="120" rx="60" fill="white"/>
<g clip-path="url(#clip2_2993_7583)">
<circle cx="3412" cy="2020.06" r="48" fill="#FFEBE7"/>
<g clip-path="url(#clip3_2993_7583)">
<path d="M3392.62 2000.36C3392.62 2000.36 3381.03 2031.95 3401.59 2041.53L3409.11 2038.56L3412.87 2025.63C3412.87 2025.63 3397.29 2002.21 3397.29 2002.34C3397.29 2002.47 3392.62 2000.36 3392.62 2000.36Z" fill="#642718"/>
<path d="M3431.98 2000.36C3431.98 2000.36 3443.57 2031.95 3423.01 2041.53L3415.5 2038.56L3411.73 2025.63C3411.73 2025.63 3427.3 2002.21 3427.3 2002.34C3427.3 2002.47 3431.98 2000.36 3431.98 2000.36Z" fill="#642718"/>
<path d="M3403.42 2026.41V2039.46L3388.17 2044.99L3412.3 2065.28L3435.83 2044.99L3420.58 2039.46V2026.41H3403.42Z" fill="#F5CCC1"/>
<path d="M3403.2 1991.04C3408.77 1987.58 3415.82 1987.58 3421.39 1991.04C3427.47 1994.8 3430.59 2001.92 3429.26 2008.94L3426.74 2019.92C3425.79 2024.07 3423.19 2027.64 3419.54 2029.83L3417.05 2031.31C3414.13 2033.06 3410.47 2033.06 3407.54 2031.31L3405.06 2029.83C3401.41 2027.64 3398.8 2024.07 3397.86 2019.92L3395.34 2008.94C3394 2001.92 3397.13 1994.8 3403.2 1991.04Z" fill="#F5CCC1"/>
<path d="M3406.98 2011.34V2012.51" stroke="#300021" stroke-width="3" stroke-miterlimit="10" stroke-linecap="round"/>
<path d="M3417.62 2011.34V2012.51" stroke="#300021" stroke-width="3" stroke-miterlimit="10" stroke-linecap="round"/>
<path d="M3404.72 2007.87C3405.12 2007.68 3405.8 2007.55 3406.54 2007.53C3407.3 2007.51 3407.97 2007.61 3408.37 2007.78" stroke="#642718" stroke-width="2" stroke-miterlimit="10" stroke-linecap="round" stroke-linejoin="round"/>
<path d="M3419.88 2007.87C3419.48 2007.68 3418.8 2007.55 3418.05 2007.53C3417.3 2007.51 3416.63 2007.61 3416.22 2007.78" stroke="#642718" stroke-width="2" stroke-miterlimit="10" stroke-linecap="round" stroke-linejoin="round"/>
<path d="M3416.16 2020.4C3415.3 2020.99 3413.88 2021.37 3412.29 2021.37C3410.7 2021.37 3409.3 2020.99 3408.43 2020.4" stroke="#C0655E" stroke-width="2" stroke-miterlimit="10" stroke-linecap="round" stroke-linejoin="round"/>
<path d="M3413.78 2016.39C3413.78 2016.86 3413.12 2017.24 3412.3 2017.24C3411.49 2017.24 3410.82 2016.86 3410.82 2016.39C3410.82 2015.92 3411.49 2015.54 3412.3 2015.54C3413.12 2015.54 3413.78 2015.92 3413.78 2016.39Z" fill="#DD7766"/>
<path d="M3395.87 2014.52C3395.87 2014.52 3398.23 2012.66 3398.54 2008.99C3398.86 2005.31 3401.41 2001.07 3401.41 2001.07L3395.03 2001.33C3395.03 2001.34 3392.69 2005.62 3395.87 2014.52Z" fill="#642718"/>
<path d="M3428.73 2014.52C3428.73 2014.52 3426.36 2012.66 3426.05 2008.99C3425.74 2005.31 3422.66 1999.72 3422.66 1999.72L3429.56 2001.33C3429.57 2001.34 3431.9 2005.62 3428.73 2014.52Z" fill="#642718"/>
<path d="M3419.54 2029.83L3417.05 2031.31C3414.13 2033.06 3410.47 2033.06 3407.54 2031.31L3405.06 2029.83" stroke="#C0655E" stroke-width="1.2" stroke-miterlimit="10" stroke-linecap="round" stroke-linejoin="round"/>
<path d="M3403.42 2039.21L3412 2049.87L3420.58 2039.21L3440.75 2044.5C3446.16 2045.7 3450 2050.5 3450 2056.04V2069.32H3374V2056.04C3374 2050.5 3377.84 2045.71 3383.25 2044.5L3403.42 2039.21Z" fill="#FFC238"/>
<path d="M3398.28 2008.18C3398.28 2008.18 3407.97 2007.29 3410.81 1997.11L3412.87 1988.44L3400.21 1998.31L3398.28 2008.18Z" fill="#642718"/>
<path d="M3430.4 2013.26C3428.1 2016.13 3426.8 2008.77 3426.8 2008.77C3426.8 2008.77 3425.88 2004.21 3424.39 2001.81C3424.08 2001.32 3423.61 2000.83 3423.01 2000.36H3423C3420.67 1998.56 3416.4 1997.12 3412.3 1997.12C3411.87 1997.12 3411.45 1997.14 3411.02 1997.17C3406.27 1997.5 3401.59 1999.6 3400.21 2001.81C3398.71 2004.21 3397.8 2008.77 3397.8 2008.77C3397.8 2008.77 3396.5 2016.13 3394.2 2013.26C3391.9 2010.4 3390.9 2002.65 3393.73 1997.64C3396.56 1992.63 3403.53 1985.93 3408.41 1985.14C3410.12 1984.87 3411.38 1985.26 3412.3 1985.89C3413.22 1985.26 3414.47 1984.87 3416.19 1985.14C3421.07 1985.93 3428.04 1992.63 3430.86 1997.64C3433.69 2002.65 3432.69 2010.4 3430.4 2013.26Z" fill="#642718"/>
<path d="M3399.26 2013.62C3399.86 2016.54 3398.93 2019.3 3397.19 2019.8C3395.45 2020.3 3393.56 2018.34 3392.96 2015.42C3392.37 2012.51 3393.3 2009.74 3395.04 2009.24C3396.78 2008.74 3398.67 2010.71 3399.26 2013.62Z" fill="#F5CCC1"/>
<path d="M3396.72 2017.51C3396.68 2017.52 3396.63 2017.53 3396.58 2017.53C3395.92 2017.58 3395 2016.6 3394.66 2014.94C3394.48 2014.07 3394.51 2013.17 3394.74 2012.49C3394.84 2012.19 3395.07 2011.66 3395.5 2011.54C3395.54 2011.53 3395.59 2011.52 3395.64 2011.52" stroke="#C0655E" stroke-width="1.2" stroke-miterlimit="10" stroke-linecap="round" stroke-linejoin="round"/>
<path d="M3431.71 2015.03C3432.17 2012.08 3431.11 2009.47 3429.33 2009.19C3427.55 2008.91 3425.73 2011.07 3425.26 2014.01C3424.8 2016.96 3425.86 2019.58 3427.64 2019.86C3429.42 2020.14 3431.24 2017.98 3431.71 2015.03Z" fill="#F5CCC1"/>
<path d="M3427.88 2017.51C3427.92 2017.52 3427.97 2017.53 3428.01 2017.53C3428.67 2017.58 3429.6 2016.6 3429.94 2014.94C3430.11 2014.07 3430.09 2013.17 3429.86 2012.49C3429.75 2012.19 3429.52 2011.66 3429.1 2011.54C3429.06 2011.53 3429.01 2011.52 3428.96 2011.52" stroke="#C0655E" stroke-width="1.2" stroke-miterlimit="10" stroke-linecap="round" stroke-linejoin="round"/>
<path d="M3423 2000.36H3423C3420.67 1998.56 3416.4 1997.12 3412.3 1997.12C3411.87 1997.12 3411.45 1997.14 3411.02 1997.17L3411.06 1996.75C3411.06 1996.75 3412.03 1993.51 3414.04 1993.13C3416.04 1992.74 3421.36 1996.77 3423 2000.36Z" fill="#300021"/>
<path d="M3399.3 2005.07C3399.3 2005.07 3405.02 2002.39 3406.78 1997.66C3408.52 1992.93 3410.82 1991.99 3410.82 1991.99" stroke="#300021" stroke-width="1.2" stroke-miterlimit="10" stroke-linecap="round"/>
<path d="M3400.01 2000.59C3400.01 2000.59 3403.64 1998.49 3404.53 1995.55C3405.41 1992.62 3406.92 1991.71 3406.92 1991.71" stroke="#300021" stroke-width="1.2" stroke-miterlimit="10" stroke-linecap="round"/>
<path d="M3425.64 1997.93C3426.65 1999.77 3427.27 2001.81 3427.45 2003.88" stroke="#300021" stroke-width="1.2" stroke-miterlimit="10" stroke-linecap="round"/>
<path d="M3428.86 1999.3C3429.37 2001.27 3429.54 2003.34 3429.37 2005.37" stroke="#300021" stroke-width="1.2" stroke-miterlimit="10" stroke-linecap="round"/>
<path d="M3403.42 2035.23C3403.42 2035.23 3398.71 2035.78 3395.03 2041.66L3403.99 2054.07C3404.86 2055.27 3406.58 2055.42 3407.64 2054.38L3411.99 2050.13L3403.42 2039.46V2035.23H3403.42Z" fill="#F7EFEE"/>
<path d="M3420.58 2035.23C3420.58 2035.23 3425.29 2035.78 3428.97 2041.66L3419.77 2054.4C3419.03 2055.42 3417.55 2055.55 3416.64 2054.66L3412 2050.13L3420.58 2039.46V2035.23Z" fill="#F7EFEE"/>
</g>
</g>
<path d="M3518.12 2003.83V2021.9H3513.62V2003.83H3518.12ZM3491.82 2013.01C3491.82 2008.44 3495.58 2005.28 3500.57 2005.28C3505.55 2005.28 3509.31 2008.44 3509.33 2013.01C3509.31 2017.4 3505.55 2020.64 3500.57 2020.64C3495.58 2020.64 3491.82 2017.4 3491.82 2013.01ZM3496.21 2013.01C3496.18 2015.38 3498.01 2016.88 3500.57 2016.88C3503.07 2016.88 3504.88 2015.38 3504.9 2013.01C3504.88 2010.5 3503.07 2009.04 3500.57 2009.04C3498.01 2009.04 3496.18 2010.5 3496.21 2013.01ZM3496.67 2035.44V2023.35H3518.12V2035.44H3496.67ZM3501.1 2031.85H3513.72V2026.9H3501.1V2031.85ZM3534.89 2011.04C3534.87 2016.91 3537.54 2022.8 3542.97 2025.1L3540.34 2028.69C3536.68 2027.04 3534.15 2023.84 3532.69 2019.88C3531.25 2024.21 3528.63 2027.69 3524.73 2029.46L3522.02 2025.74C3527.61 2023.38 3530.33 2017.25 3530.35 2011.04V2006.26H3534.89V2011.04ZM3544.7 2035.86V2003.8H3549.23V2035.86H3544.7ZM3562.48 2005.52C3565.03 2005.5 3567.27 2006.45 3568.79 2008.02H3576.05V2003.8H3580.52V2022.54H3576.05V2018.71H3568.76C3567.23 2020.25 3565.02 2021.18 3562.48 2021.17C3557.63 2021.18 3553.94 2017.88 3553.98 2013.36C3553.94 2008.79 3557.63 2005.5 3562.48 2005.52ZM3558.23 2013.36C3558.21 2015.82 3559.99 2017.39 3562.48 2017.37C3564.89 2017.39 3566.65 2015.82 3566.67 2013.36C3566.65 2010.81 3564.89 2009.34 3562.48 2009.35C3559.99 2009.34 3558.21 2010.81 3558.23 2013.36ZM3558.58 2029.5C3558.58 2025.53 3562.82 2023.19 3569.59 2023.21C3576.35 2023.19 3580.61 2025.53 3580.62 2029.5C3580.61 2033.47 3576.35 2035.81 3569.59 2035.79C3562.82 2035.81 3558.58 2033.47 3558.58 2029.5ZM3562.98 2029.5C3562.98 2031.36 3565.35 2032.31 3569.59 2032.31C3573.91 2032.31 3576.21 2031.36 3576.23 2029.5C3576.21 2027.58 3573.91 2026.63 3569.59 2026.62C3565.35 2026.63 3562.98 2027.58 3562.98 2029.5ZM3570.71 2011.57C3570.85 2012.13 3570.92 2012.75 3570.92 2013.36C3570.92 2013.98 3570.85 2014.56 3570.73 2015.12H3576.05V2011.57H3570.71ZM3619.54 2004.15V2021.9H3616.84V2004.15H3619.54ZM3595.74 2019.51V2006.01H3598.52V2017.16C3603.69 2017.12 3608.31 2016.77 3613.29 2015.72L3613.71 2018.04C3608.42 2019.11 3603.67 2019.48 3598.27 2019.51H3595.74ZM3599.26 2034.98V2023.35H3619.54V2034.98H3599.26ZM3601.96 2032.73H3616.84V2025.56H3601.96V2032.73Z" fill="#191F28"/>
<g clip-path="url(#clip4_2993_7583)">
<path d="M3690.8 2013.13L3697.84 2020.14L3690.8 2027.15" stroke="#6B7684" stroke-width="4" stroke-miterlimit="10" stroke-linecap="round" stroke-linejoin="round"/>
<path d="M3697.84 2020.14H3671.17" stroke="#6B7684" stroke-width="4" stroke-miterlimit="10" stroke-linecap="round" stroke-linejoin="round"/>
<path d="M3683.76 2030.53V2032.73C3683.76 2035.65 3681.34 2038.06 3678.41 2038.06H3661.46C3658.58 2038.06 3656.17 2035.65 3656.17 2032.73V2007.55C3656.17 2004.63 3658.58 2002.22 3661.51 2002.22H3678.47C3681.34 2002.22 3683.76 2004.63 3683.76 2007.55V2009.59" stroke="#6B7684" stroke-width="4" stroke-miterlimit="10" stroke-linecap="round" stroke-linejoin="round"/>
</g>
</g>
</g>
<defs>
<filter id="filter0_f_2993_7583" x="976" y="-176" width="4403" height="4403" filterUnits="userSpaceOnUse" color-interpolation-filters="sRGB">
<feFlood flood-opacity="0" result="BackgroundImageFix"/>
<feBlend mode="normal" in="SourceGraphic" in2="BackgroundImageFix" result="shape"/>
<feGaussianBlur stdDeviation="650" result="effect1_foregroundBlur_2993_7583"/>
</filter>
<filter id="filter1_f_2993_7583" x="-651.777" y="-721.777" width="3652.41" height="3652.41" filterUnits="userSpaceOnUse" color-interpolation-filters="sRGB">
<feFlood flood-opacity="0" result="BackgroundImageFix"/>
<feBlend mode="normal" in="SourceGraphic" in2="BackgroundImageFix" result="shape"/>
<feGaussianBlur stdDeviation="500" result="effect1_foregroundBlur_2993_7583"/>
</filter>
<filter id="filter2_d_2993_7583" x="3324" y="1930.06" width="466" height="200" filterUnits="userSpaceOnUse" color-interpolation-filters="sRGB">
<feFlood flood-opacity="0" result="BackgroundImageFix"/>
<feColorMatrix in="SourceAlpha" type="matrix" values="0 0 0 0 0 0 0 0 0 0 0 0 0 0 0 0 0 0 127 0" result="hardAlpha"/>
<feOffset dx="10" dy="10"/>
<feGaussianBlur stdDeviation="20"/>
<feComposite in2="hardAlpha" operator="out"/>
<feColorMatrix type="matrix" values="0 0 0 0 0 0 0 0 0 0 0 0 0 0 0 0 0 0 0.1 0"/>
<feBlend mode="normal" in2="BackgroundImageFix" result="effect1_dropShadow_2993_7583"/>
<feBlend mode="normal" in="SourceGraphic" in2="effect1_dropShadow_2993_7583" result="shape"/>
</filter>
<linearGradient id="paint0_linear_2993_7583" x1="2643.56" y1="-21.9375" x2="2387.66" y2="2274.41" gradientUnits="userSpaceOnUse">
<stop stop-color="#A1E7FA"/>
<stop offset="0.5" stop-color="white" stop-opacity="0.5"/>
<stop offset="1" stop-color="#FDBEE9"/>
</linearGradient>
<linearGradient id="paint1_linear_2993_7583" x1="1431.63" y1="356.53" x2="62.4159" y2="1505.86" gradientUnits="userSpaceOnUse">
<stop stop-color="white"/>
<stop offset="1" stop-color="white" stop-opacity="0"/>
</linearGradient>
<linearGradient id="paint2_linear_2993_7583" x1="1920" y1="340" x2="1920" y2="2160" gradientUnits="userSpaceOnUse">
<stop stop-color="#E9F9FE"/>
<stop offset="1" stop-color="#F7F7F7"/>
</linearGradient>
<clipPath id="clip0_2993_7583">
<rect width="3840" height="2160" fill="white"/>
</clipPath>
<clipPath id="clip1_2993_7583">
<path d="M0 440C0 384.772 44.7715 340 100 340H3740C3795.23 340 3840 384.772 3840 440V2160H0V440Z" fill="white"/>
</clipPath>
<clipPath id="clip2_2993_7583">
<rect x="3364" y="1972.06" width="96" height="96" rx="48" fill="white"/>
</clipPath>
<clipPath id="clip3_2993_7583">
<rect width="76" height="84.51" fill="white" transform="translate(3374 1985.06)"/>
</clipPath>
<clipPath id="clip4_2993_7583">
<rect width="46" height="41" fill="white" transform="translate(3654 1999.56)"/>
</clipPath>
</defs>
</svg>
