<svg width="3840" height="2160" viewBox="0 0 3840 2160" fill="none" xmlns="http://www.w3.org/2000/svg">
<g clip-path="url(#clip0_2843_14130)">
<rect width="3840" height="2160" fill="#F5F0EE"/>
<rect width="3246" height="2160" fill="url(#paint0_linear_2843_14130)"/>
<g clip-path="url(#clip1_2843_14130)">
<rect x="180" y="400" width="2886" height="1400" rx="60" fill="white"/>
<circle cx="740" cy="1100" r="400" fill="#EEEEEE"/>
<path d="M1313.49 1209.79C1313.47 1213.68 1315.73 1217.54 1320.67 1219.16L1318.22 1223.28C1314.76 1222.06 1312.4 1219.8 1311 1217.01C1309.62 1220.08 1307.24 1222.55 1303.65 1223.88L1301.16 1219.84C1306.08 1218 1308.27 1213.96 1308.29 1209.79V1209.57H1302.23V1205.28H1308.29V1201.24H1313.49V1205.28H1319.51V1209.57H1313.49V1209.79ZM1307.73 1230.89V1226.46H1334.76V1239.95H1329.3V1230.89H1307.73ZM1321.27 1224.7V1201.5H1326.43V1210.69H1329.56V1200.89H1334.76V1224.79H1329.56V1215.12H1326.43V1224.7H1321.27ZM1374.98 1230.89V1235.27H1339.19V1230.89H1354.14V1222.04H1359.6V1230.89H1374.98ZM1340.05 1218.73C1348.9 1217.35 1353.88 1211.4 1353.93 1205.88V1203.09H1359.77V1205.88C1359.75 1211.46 1364.8 1217.35 1373.73 1218.73L1371.41 1223.28C1364.54 1222.04 1359.43 1218.36 1356.85 1213.48C1354.29 1218.34 1349.2 1222.06 1342.37 1223.28L1340.05 1218.73ZM1410.95 1200.85V1239.95H1405.66V1220.06H1402.09V1238.23H1396.98V1201.88H1402.09V1215.68H1405.66V1200.85H1410.95ZM1376.74 1228.14C1384.71 1223.45 1388.15 1217.72 1388.88 1210.05H1378.72V1205.66H1394.23C1394.21 1216.58 1390.94 1225.52 1379.92 1231.92L1376.74 1228.14Z" fill="#191F28"/>
<path d="M1306.68 836.727V841.219H1314.92V836.727H1319.22V852.117H1302.38V836.727H1306.68ZM1305.94 858.055V854.656H1329.02V863.914H1310.27V866.727H1330.12V870.164H1305.98V860.75H1324.69V858.055H1305.94ZM1306.68 848.68H1314.92V844.5H1306.68V848.68ZM1324.69 853.25V835.164H1329.02V842.312H1333.95V845.828H1329.02V853.25H1324.69ZM1365.94 835.164V857.352H1361.8V847.742H1358.36V856.18H1354.3V835.867H1358.36V844.227H1361.8V835.164H1365.94ZM1335.55 842.391V838.992H1342.23V835.477H1346.52V838.992H1353.12V842.391H1335.55ZM1336.8 849.93C1336.76 846.258 1339.96 843.816 1344.38 843.836C1348.87 843.816 1352.03 846.258 1352.07 849.93C1352.03 853.602 1348.87 856.023 1344.38 856.023C1339.96 856.023 1336.76 853.602 1336.8 849.93ZM1340.66 849.93C1340.66 851.746 1342.17 852.898 1344.38 852.898C1346.6 852.898 1348.12 851.746 1348.12 849.93C1348.12 848.113 1346.6 846.961 1344.38 846.961C1342.17 846.961 1340.66 848.113 1340.66 849.93ZM1341.91 864.148C1341.89 860.086 1346.46 857.801 1354.02 857.781C1361.56 857.801 1366.11 860.086 1366.13 864.148C1366.11 868.133 1361.56 870.438 1354.02 870.438C1346.46 870.438 1341.89 868.133 1341.91 864.148ZM1346.25 864.148C1346.23 866.082 1348.98 867.137 1354.02 867.117C1359.04 867.137 1361.74 866.082 1361.76 864.148C1361.74 862.098 1359.04 861.062 1354.02 861.102C1348.98 861.062 1346.23 862.098 1346.25 864.148ZM1399.88 835.203V861.219H1395.55V849.461H1386.33V846.023H1395.55V842.82H1386.33V839.383H1395.55V835.203H1399.88ZM1372.34 856.414V837.547H1376.64V852.82C1381.13 852.762 1385.39 852.488 1390.12 851.648L1390.55 855.164C1385.12 856.199 1380.35 856.395 1375.12 856.414H1372.34ZM1376.68 869.773V858.914H1381.05V866.258H1400.78V869.773H1376.68ZM1433.55 851.219V854.656H1423.09V862.742H1437.15V866.297H1404.88V862.742H1418.79V854.656H1408.79V837.781H1433.28V841.258H1413.12V851.219H1433.55ZM1307.7 910.719V939H1302.62V910.719H1307.7ZM1328.36 918.492C1328.11 916.051 1326.05 914.645 1323.01 914.664C1319.79 914.645 1317.87 916.207 1317.85 918.336C1317.83 920.719 1320.35 921.695 1322.7 922.242L1325.35 922.945C1329.57 923.922 1333.63 926.148 1333.63 931.07C1333.63 936.031 1329.71 939.43 1322.93 939.43C1316.35 939.43 1312.17 936.266 1311.95 930.68H1316.95C1317.19 933.629 1319.67 935.074 1322.89 935.094C1326.23 935.074 1328.54 933.453 1328.55 931.031C1328.54 928.805 1326.5 927.867 1323.44 927.086L1320.23 926.266C1315.59 925.055 1312.7 922.711 1312.7 918.648C1312.7 913.648 1317.13 910.328 1323.09 910.328C1329.08 910.328 1333.16 913.707 1333.24 918.492H1328.36ZM1337.85 939V910.719H1348.67C1354.8 910.719 1357.83 913.844 1357.85 918.062C1357.83 921.5 1355.66 923.414 1352.89 924.078V924.352C1355.9 924.508 1358.95 927.008 1358.95 931.305C1358.95 935.699 1355.76 939 1349.3 939H1337.85ZM1342.93 934.742H1348.52C1352.23 934.742 1353.77 933.16 1353.79 930.914C1353.77 928.375 1351.8 926.441 1348.63 926.422H1342.93V934.742ZM1342.93 922.75H1348.05C1350.72 922.75 1352.75 921.207 1352.77 918.688C1352.75 916.52 1351.19 914.938 1348.16 914.938H1342.93V922.75ZM1386.33 910.719V939H1381.8L1368.4 919.664H1368.16V939H1363.09V910.719H1367.7L1381.02 930.055H1381.29V910.719H1386.33ZM1333.44 1006.59V1010.1H1301.17V1006.59H1315V998.422H1319.3V1006.59H1333.44ZM1302.11 995.688C1309.49 994.496 1314.79 989.203 1314.8 983.891V981.312H1319.41V983.891C1319.41 989.223 1324.75 994.496 1332.19 995.688L1330.31 999.281C1324.36 998.148 1319.45 994.73 1317.11 990.102C1314.79 994.711 1309.94 998.168 1303.98 999.281L1302.11 995.688ZM1348.4 985.531C1348.4 989.848 1351.19 993.91 1356.72 995.609L1354.65 999.008C1350.68 997.758 1347.87 995.238 1346.33 992.055C1344.77 995.766 1341.8 998.715 1337.54 1000.14L1335.35 996.703C1341.04 994.848 1344.02 990.258 1344.02 985.57V985.141H1336.56V981.625H1355.74V985.141H1348.4V985.531ZM1340.16 1007.68C1340.16 1003.46 1344.73 1001 1352.11 1001C1359.43 1001 1363.93 1003.46 1363.95 1007.68C1363.93 1011.94 1359.43 1014.44 1352.11 1014.44C1344.73 1014.44 1340.16 1011.94 1340.16 1007.68ZM1344.49 1007.68C1344.49 1009.87 1347.27 1011.02 1352.11 1011.04C1356.93 1011.02 1359.65 1009.87 1359.65 1007.68C1359.65 1005.53 1356.93 1004.4 1352.11 1004.4C1347.27 1004.4 1344.49 1005.53 1344.49 1007.68ZM1359.26 1000.22V979.164H1363.59V987.641H1368.52V991.195H1363.59V1000.22H1359.26ZM1381.84 980.727C1387.21 980.707 1391.09 983.715 1391.09 988.148C1391.09 992.504 1387.21 995.551 1381.84 995.531C1376.52 995.551 1372.66 992.504 1372.66 988.148C1372.66 983.715 1376.52 980.707 1381.84 980.727ZM1370.35 997.953C1376.72 997.953 1385.64 997.836 1393.24 996.703L1393.55 999.906C1390.51 1000.49 1387.34 1000.86 1384.26 1001.1V1013.38H1379.88V1001.35C1376.62 1001.49 1373.55 1001.53 1370.9 1001.55L1370.35 997.953ZM1376.88 988.148C1376.86 990.512 1378.95 991.996 1381.84 991.977C1384.84 991.996 1386.95 990.512 1386.95 988.148C1386.95 985.707 1384.84 984.203 1381.84 984.242C1378.95 984.203 1376.86 985.707 1376.88 988.148ZM1395.55 1014.44V979.203H1399.84V1014.44H1395.55ZM1434.22 979.164V1014.48H1429.88V979.164H1434.22ZM1405.23 1004.44C1410.86 1001.96 1414.1 996.02 1414.1 990.375V988.539H1406.33V985.062H1414.1V979.906H1418.4V985.062H1426.02V988.539H1418.44V990.375C1418.42 995.746 1421.72 1001.51 1427.42 1003.89L1425.04 1007.21C1421 1005.49 1417.95 1001.98 1416.33 997.719C1414.75 1002.23 1411.7 1006 1407.58 1007.8L1405.23 1004.44ZM1313.87 1058.7C1313.85 1062.57 1316.88 1066.38 1322.42 1067.88L1320.39 1071.24C1316.33 1070.13 1313.4 1067.77 1311.78 1064.7C1310.23 1068.16 1307.3 1070.89 1303.09 1072.14L1301.05 1068.78C1306.58 1067.1 1309.53 1062.96 1309.53 1058.7V1058.51H1302.15V1055.07H1309.53V1051.01H1313.91V1055.07H1321.25V1058.51H1313.87V1058.7ZM1306.8 1079.8C1306.76 1075.6 1311.37 1073.23 1318.79 1073.23C1326.25 1073.23 1330.84 1075.6 1330.86 1079.8C1330.84 1084 1326.25 1086.44 1318.79 1086.44C1311.37 1086.44 1306.76 1084 1306.8 1079.8ZM1311.09 1079.8C1311.07 1081.89 1313.89 1083.08 1318.79 1083.08C1323.79 1083.08 1326.52 1081.89 1326.52 1079.8C1326.52 1077.69 1323.79 1076.57 1318.79 1076.55C1313.89 1076.57 1311.07 1077.69 1311.09 1079.8ZM1320.2 1064.37V1060.85H1326.41V1051.16H1330.74V1072.53H1326.41V1064.37H1320.2ZM1363.98 1053.31V1056.48C1363.96 1059.78 1363.96 1063.39 1363.05 1068.39H1367.93V1071.91H1353.91V1086.52H1349.53V1071.91H1335.74V1068.39H1358.63C1359.61 1063.59 1359.65 1059.97 1359.65 1056.83H1339.53V1053.31H1363.98ZM1399.8 1051.16V1086.48H1395.43V1051.16H1399.8ZM1370.55 1076.75C1379.8 1072.36 1384.06 1066.38 1384.84 1058.35H1372.34V1054.91H1389.26C1389.26 1065.42 1385.18 1074.35 1372.81 1080.23L1370.55 1076.75ZM1435.51 1055.89V1059.41H1406.33V1055.89H1418.79V1051.63H1423.09V1055.89H1435.51ZM1404.88 1082.69V1079.17H1418.79V1074.84C1412.7 1074.37 1409 1071.91 1409.02 1068C1409 1063.74 1413.57 1061.2 1420.94 1061.2C1428.2 1061.2 1432.83 1063.74 1432.81 1068C1432.83 1071.89 1429.1 1074.35 1423.09 1074.84V1079.17H1437.15V1082.69H1404.88ZM1413.48 1068C1413.46 1070.27 1416.13 1071.42 1420.94 1071.44C1425.64 1071.42 1428.36 1070.27 1428.36 1068C1428.36 1065.77 1425.64 1064.62 1420.94 1064.6C1416.13 1064.62 1413.46 1065.77 1413.48 1068Z" fill="#191F28"/>
<path d="M1338.39 597.883V604.281H1332.27V632.863C1335.16 632.652 1338 632.406 1340.71 632.055L1341.06 637.68C1327.95 639.965 1313.18 640.211 1302.18 640.211L1301.27 633.812C1303.66 633.812 1306.22 633.777 1308.93 633.777V604.281H1302.88V597.883H1338.39ZM1316.52 633.637C1319.23 633.566 1321.97 633.461 1324.75 633.32V604.281H1316.52V633.637ZM1344.09 655.258V591.695H1351.89V616.305H1361.66V622.703H1351.89V655.258H1344.09ZM1396.96 597.18V603.578H1374.88V614.898H1395.84V621.086H1374.88V634.164C1384.66 634.129 1392.32 633.707 1401.18 632.266L1401.88 638.594C1392.14 640.176 1383.57 640.492 1372.21 640.492H1366.94V597.18H1396.96ZM1406.31 655.258V591.695H1414.12V616.305H1423.89V622.844H1414.12V655.258H1406.31Z" fill="#191F28"/>
<path d="M1336.61 722.617V725.926H1321.31V733.402H1317.27V725.926H1301.38V722.617H1336.61ZM1305.76 740.836V729.75H1309.84V737.527H1332.7V740.836H1305.76ZM1305.89 718.621V704.957H1332.05V718.621H1305.89ZM1309.88 715.398H1328.02V708.18H1309.88V715.398ZM1369.44 703.152V718.492H1375.41V721.887H1369.44V741.609H1365.36V703.152H1369.44ZM1339.49 731.34C1349.13 726.527 1354.38 719.566 1355.21 710.586H1341.42V707.191H1359.38C1359.34 718.32 1354.44 728.268 1341.77 734.52L1339.49 731.34ZM1388.13 705.387C1391.33 705.365 1394.06 706.568 1395.86 708.566H1405.49V703.152H1409.57V725.883H1405.49V720.684H1395.84C1394.04 722.66 1391.31 723.842 1388.13 723.82C1382.33 723.842 1378.01 719.996 1378.03 714.625C1378.01 709.189 1382.33 705.365 1388.13 705.387ZM1381.94 714.625C1381.92 717.998 1384.52 720.383 1388.13 720.34C1391.63 720.383 1394.23 717.998 1394.23 714.625C1394.23 711.166 1391.63 708.867 1388.13 708.91C1384.52 708.867 1381.92 711.166 1381.94 714.625ZM1383.66 734.176C1383.64 729.471 1388.62 726.721 1396.68 726.742C1404.69 726.721 1409.68 729.471 1409.7 734.176C1409.68 738.859 1404.69 741.588 1396.68 741.566C1388.62 741.588 1383.64 738.859 1383.66 734.176ZM1387.66 734.176C1387.63 736.818 1391.03 738.365 1396.68 738.344C1402.33 738.365 1405.7 736.818 1405.7 734.176C1405.7 731.426 1402.33 729.9 1396.68 729.879C1391.03 729.9 1387.63 731.426 1387.66 734.176ZM1397.73 711.832C1397.99 712.691 1398.14 713.637 1398.14 714.625C1398.14 715.57 1397.99 716.494 1397.73 717.332H1405.49V711.832H1397.73ZM1439.48 705.43L1429.46 742.684H1425.38L1435.39 705.43H1439.48ZM1464.87 704.914C1470.67 704.893 1474.86 708.137 1474.88 712.906C1474.86 717.633 1470.67 720.898 1464.87 720.855C1459.09 720.898 1454.92 717.633 1454.95 712.906C1454.92 708.137 1459.09 704.893 1464.87 704.914ZM1452.2 723.863C1459.31 723.863 1469.12 723.713 1477.55 722.445L1477.85 725.496C1474.32 726.162 1470.69 726.57 1467.15 726.807V740.449H1463.07V727.043C1459.33 727.215 1455.8 727.236 1452.75 727.258L1452.2 723.863ZM1458.9 712.906C1458.86 715.699 1461.37 717.547 1464.87 717.504C1468.46 717.547 1470.97 715.699 1470.97 712.906C1470.97 710.092 1468.46 708.201 1464.87 708.223C1461.37 708.201 1458.86 710.092 1458.9 712.906ZM1480.21 741.652V703.195H1484.25V741.652H1480.21ZM1525.5 733.316V736.668H1490.27V733.316H1525.5ZM1491.9 723.691C1499.05 722.531 1505.69 717.203 1505.69 711.316V710.113H1493.19V706.805H1522.45V710.113H1509.95V711.316C1509.95 717.203 1516.63 722.402 1523.95 723.562L1522.32 726.785C1516.09 725.625 1510.35 722.016 1507.84 716.945C1505.37 722.059 1499.68 725.775 1493.57 726.957L1491.9 723.691ZM1548.02 705.559V708.867H1534.44V720.383C1541.27 720.361 1545.33 720.168 1550.04 719.223L1550.42 722.531C1545.35 723.52 1540.97 723.756 1533.32 723.777H1530.4V705.559H1548.02ZM1535 741.137V727.258H1560.39V741.137H1535ZM1539.04 737.828H1556.39V730.48H1539.04V737.828ZM1545.87 715.699V712.348H1556.31V703.152H1560.39V725.41H1556.31V715.699H1545.87ZM1596.31 703.152V718.75H1602.5V722.145H1596.31V741.652H1592.27V703.152H1596.31ZM1566.11 712.52V709.168H1575.6V703.668H1579.68V709.168H1588.92V712.52H1566.11ZM1568.08 724.293C1568.08 719.051 1572.12 715.355 1577.66 715.355C1583.19 715.355 1587.22 719.051 1587.25 724.293C1587.22 729.578 1583.19 733.252 1577.66 733.273C1572.12 733.252 1568.08 729.578 1568.08 724.293ZM1571.99 724.293C1571.97 727.645 1574.38 729.879 1577.66 729.836C1580.93 729.879 1583.31 727.645 1583.34 724.293C1583.31 721.006 1580.93 718.729 1577.66 718.707C1574.38 718.729 1571.97 721.006 1571.99 724.293ZM1639.54 725.023V728.418H1623.81V741.652H1619.82V728.418H1604.3V725.023H1639.54ZM1608.13 713.164C1608.15 707.922 1613.69 704.613 1621.84 704.613C1629.98 704.613 1635.56 707.922 1635.54 713.164C1635.56 718.342 1629.98 721.629 1621.84 721.629C1613.69 721.629 1608.15 718.342 1608.13 713.164ZM1612.34 713.164C1612.32 716.365 1616.12 718.363 1621.84 718.363C1627.57 718.363 1631.35 716.365 1631.38 713.164C1631.35 709.92 1627.57 707.9 1621.84 707.879C1616.12 707.9 1612.32 709.92 1612.34 713.164ZM1661.93 708.609C1661.93 714.883 1668.61 720.812 1676.02 722.145L1674.13 725.539C1667.96 724.207 1662.31 720.168 1659.82 714.754C1657.29 720.146 1651.63 724.164 1645.47 725.539L1643.66 722.145C1650.97 720.77 1657.61 714.883 1657.63 708.609V705.688H1661.93V708.609ZM1642.38 736.582V733.188H1677.61V736.582H1642.38ZM1704.38 705.43L1694.37 742.684H1690.29L1700.3 705.43H1704.38ZM1718.47 738V734.562L1729.26 723.691C1732.67 720.146 1734.37 718.17 1734.37 715.441C1734.37 712.369 1731.88 710.414 1728.61 710.414C1725.15 710.414 1722.96 712.605 1722.94 715.914H1718.47C1718.43 710.221 1722.77 706.461 1728.7 706.461C1734.69 706.461 1738.84 710.264 1738.88 715.312C1738.84 718.793 1737.21 721.564 1731.36 727.301L1725.05 733.703V733.961H1739.4V738H1718.47ZM1755.47 738.43C1748.27 738.43 1744.04 732.629 1744.04 722.445C1744.04 712.326 1748.31 706.461 1755.47 706.461C1762.6 706.461 1766.88 712.326 1766.9 722.445C1766.88 732.629 1762.67 738.43 1755.47 738.43ZM1748.77 722.445C1748.74 730.201 1751.26 734.348 1755.47 734.348C1759.66 734.348 1762.17 730.201 1762.17 722.445C1762.17 714.711 1759.64 710.479 1755.47 710.457C1751.28 710.479 1748.77 714.711 1748.77 722.445ZM1771.8 738V734.562L1782.58 723.691C1786 720.146 1787.7 718.17 1787.7 715.441C1787.7 712.369 1785.2 710.414 1781.94 710.414C1778.48 710.414 1776.29 712.605 1776.27 715.914H1771.8C1771.75 710.221 1776.09 706.461 1782.02 706.461C1788.02 706.461 1792.16 710.264 1792.21 715.312C1792.16 718.793 1790.53 721.564 1784.69 727.301L1778.37 733.703V733.961H1792.72V738H1771.8ZM1796.59 731.941V728.117L1810.34 706.891H1816.18V727.945H1820.44V731.941H1816.18V738H1811.71V731.941H1796.59ZM1801.57 727.945H1811.71V712.52H1811.37L1801.57 727.688V727.945Z" fill="#6B7684"/>
<path d="M1487.26 867L1487.22 864.422L1496.87 854.266C1500.21 850.711 1501.81 848.797 1501.83 846.18C1501.81 843.27 1499.39 841.395 1496.2 841.375C1492.82 841.395 1490.71 843.523 1490.7 846.688H1487.38C1487.34 841.688 1491.2 838.328 1496.32 838.328C1501.46 838.328 1505.09 841.785 1505.11 846.18C1505.09 849.344 1503.62 851.805 1498.62 856.961L1492.14 863.641V863.875H1505.62V867H1487.26ZM1519.99 867.391C1513.72 867.391 1510.09 862.117 1510.11 852.859C1510.09 843.68 1513.76 838.328 1519.99 838.328C1526.2 838.328 1529.88 843.68 1529.88 852.859C1529.88 862.117 1526.26 867.391 1519.99 867.391ZM1513.51 852.859C1513.53 860.184 1515.89 864.266 1519.99 864.266C1524.07 864.266 1526.46 860.184 1526.44 852.859C1526.46 845.535 1524.05 841.395 1519.99 841.375C1515.93 841.395 1513.53 845.535 1513.51 852.859ZM1534.56 867L1534.52 864.422L1544.17 854.266C1547.51 850.711 1549.11 848.797 1549.13 846.18C1549.11 843.27 1546.69 841.395 1543.51 841.375C1540.13 841.395 1538.02 843.523 1538 846.688H1534.68C1534.64 841.688 1538.51 838.328 1543.62 838.328C1548.76 838.328 1552.39 841.785 1552.41 846.18C1552.39 849.344 1550.93 851.805 1545.93 856.961L1539.45 863.641V863.875H1552.92V867H1534.56ZM1556.71 861.219V858.328L1569.45 838.719H1573.78V858.133H1577.73V861.219H1573.78V867H1570.42V861.219H1556.71ZM1560.5 858.133H1570.42V843.172H1570.07L1560.5 857.898V858.133ZM1496.67 910.328C1501.54 910.387 1506.95 913.316 1506.95 923.727C1506.95 933.785 1502.82 939.391 1496.2 939.391C1491.22 939.391 1487.73 936.344 1487.02 931.852H1490.5C1491.12 934.391 1493.06 936.266 1496.2 936.266C1500.81 936.266 1503.62 932.281 1503.66 925.406H1503.27C1501.65 927.75 1499.05 929.156 1496.05 929.156C1490.99 929.156 1486.79 925.27 1486.79 919.82C1486.79 914.547 1490.66 910.27 1496.67 910.328ZM1490.23 919.781C1490.21 923.277 1492.86 926.07 1496.55 926.07C1500.25 926.07 1503.12 923.023 1503.12 919.703C1503.12 916.461 1500.4 913.414 1496.67 913.414C1492.98 913.414 1490.19 916.285 1490.23 919.781ZM1511.91 939L1524.88 914.039V913.844H1509.91V910.719H1528.51V914L1515.58 939H1511.91ZM1542.1 910.328C1546.96 910.387 1552.38 913.316 1552.38 923.727C1552.38 933.785 1548.25 939.391 1541.63 939.391C1536.65 939.391 1533.16 936.344 1532.45 931.852H1535.93C1536.55 934.391 1538.49 936.266 1541.63 936.266C1546.24 936.266 1549.05 932.281 1549.09 925.406H1548.7C1547.08 927.75 1544.48 929.156 1541.48 929.156C1536.42 929.156 1532.22 925.27 1532.22 919.82C1532.22 914.547 1536.09 910.27 1542.1 910.328ZM1535.66 919.781C1535.64 923.277 1538.29 926.07 1541.98 926.07C1545.68 926.07 1548.55 923.023 1548.55 919.703C1548.55 916.461 1545.83 913.414 1542.1 913.414C1538.41 913.414 1535.62 916.285 1535.66 919.781ZM1567.22 910.719V939H1563.66V914.391H1563.51L1556.63 918.961V915.406L1563.66 910.719H1567.22ZM1584.76 910.719V939H1581.2V914.391H1581.05L1574.17 918.961V915.406L1581.2 910.719H1584.76ZM1602.14 939.391C1597.24 939.332 1591.83 936.422 1591.83 925.953C1591.83 915.934 1595.93 910.328 1602.57 910.328C1607.55 910.328 1611.03 913.395 1611.75 917.828H1608.27C1607.63 915.328 1605.71 913.453 1602.57 913.453C1597.92 913.453 1595.13 917.418 1595.15 924.234H1595.5C1597.12 921.871 1599.72 920.484 1602.77 920.484C1607.79 920.484 1611.98 924.391 1611.98 929.859C1611.98 935.191 1608.1 939.449 1602.14 939.391ZM1595.62 929.938C1595.64 933.258 1598.35 936.285 1602.14 936.305C1605.79 936.285 1608.57 933.414 1608.59 929.898C1608.57 926.422 1605.91 923.59 1602.22 923.57C1598.51 923.59 1595.66 926.598 1595.62 929.938ZM1616.83 939L1616.79 936.422L1626.44 926.266C1629.78 922.711 1631.38 920.797 1631.4 918.18C1631.38 915.27 1628.96 913.395 1625.77 913.375C1622.39 913.395 1620.29 915.523 1620.27 918.688H1616.95C1616.91 913.688 1620.77 910.328 1625.89 910.328C1631.03 910.328 1634.66 913.785 1634.68 918.18C1634.66 921.344 1633.2 923.805 1628.2 928.961L1621.71 935.641V935.875H1635.19V939H1616.83ZM1649.52 939.391C1644.43 939.391 1640.56 936.246 1640.34 931.891H1643.74C1644 934.41 1646.46 936.285 1649.52 936.305C1653.2 936.285 1655.85 933.609 1655.85 930.055C1655.85 926.383 1653.1 923.668 1649.29 923.648C1646.91 923.609 1645.05 924.352 1644.02 926.188H1640.62L1642.61 910.719H1657.92V913.844H1645.54L1644.48 922.125H1644.76C1646.03 921.148 1647.92 920.484 1649.91 920.484C1655.3 920.484 1659.27 924.469 1659.29 929.977C1659.27 935.445 1655.17 939.391 1649.52 939.391ZM1663.47 933.219V930.328L1676.2 910.719H1680.54V930.133H1684.48V933.219H1680.54V939H1677.18V933.219H1663.47ZM1667.26 930.133H1677.18V915.172H1676.83L1667.26 929.898V930.133ZM1698.9 939.391C1693.27 939.391 1689.23 936.383 1689.05 931.891H1692.61C1692.8 934.586 1695.48 936.266 1698.86 936.266C1702.59 936.266 1705.29 934.254 1705.3 931.305C1705.29 928.219 1702.82 926.051 1698.43 926.031H1696.12V922.945H1698.43C1701.87 922.945 1704.27 921.012 1704.25 918.102C1704.27 915.27 1702.2 913.395 1698.98 913.375C1695.95 913.395 1693.2 915.055 1693.04 917.828H1689.64C1689.82 913.336 1694 910.328 1699.02 910.328C1704.41 910.328 1707.69 913.863 1707.65 917.906C1707.69 921.129 1705.81 923.473 1702.84 924.312V924.508C1706.54 925.074 1708.76 927.711 1708.74 931.305C1708.76 935.953 1704.54 939.391 1698.9 939.391ZM1714.72 939L1727.69 914.039V913.844H1712.73V910.719H1731.32V914L1718.39 939H1714.72ZM1735.89 939L1735.85 936.422L1745.5 926.266C1748.84 922.711 1750.44 920.797 1750.46 918.18C1750.44 915.27 1748.02 913.395 1744.84 913.375C1741.46 913.395 1739.35 915.523 1739.33 918.688H1736.01C1735.97 913.688 1739.84 910.328 1744.95 910.328C1750.09 910.328 1753.72 913.785 1753.74 918.18C1753.72 921.344 1752.26 923.805 1747.26 928.961L1740.77 935.641V935.875H1754.25V939H1735.89ZM1769.21 939.391C1764.31 939.332 1758.9 936.422 1758.9 925.953C1758.9 915.934 1763 910.328 1769.64 910.328C1774.62 910.328 1778.1 913.395 1778.82 917.828H1775.34C1774.7 915.328 1772.79 913.453 1769.64 913.453C1764.99 913.453 1762.2 917.418 1762.22 924.234H1762.57C1764.19 921.871 1766.79 920.484 1769.84 920.484C1774.86 920.484 1779.05 924.391 1779.05 929.859C1779.05 935.191 1775.17 939.449 1769.21 939.391ZM1762.69 929.938C1762.71 933.258 1765.42 936.285 1769.21 936.305C1772.86 936.285 1775.64 933.414 1775.66 929.898C1775.64 926.422 1772.98 923.59 1769.29 923.57C1765.58 923.59 1762.73 926.598 1762.69 929.938ZM1495.85 980.727C1501.05 980.746 1504.82 983.91 1504.84 988.422C1504.82 992.953 1501.05 996.078 1495.85 996.078C1490.6 996.078 1486.81 992.953 1486.83 988.422C1486.81 983.91 1490.6 980.746 1495.85 980.727ZM1489.84 988.422C1489.8 991.469 1492.36 993.578 1495.85 993.578C1499.29 993.578 1501.87 991.469 1501.87 988.422C1501.87 985.414 1499.29 983.285 1495.85 983.305C1492.36 983.285 1489.8 985.414 1489.84 988.422ZM1492.1 1001.43V998.969H1514.68V1007.33H1495.19V1011.23H1515.93V1013.7H1492.18V1005.02H1511.63V1001.43H1492.1ZM1511.63 997.289V979.438H1514.68V997.289H1511.63ZM1547.73 979.477V989.984H1552.96V992.562H1547.73V1004.98H1544.68V979.477H1547.73ZM1522.06 999.125V981.977H1525.07V987.836H1535.19V981.977H1538.23V999.125H1522.06ZM1525.07 996.625H1535.19V990.258H1525.07V996.625ZM1526.01 1013.42V1002.48H1529.02V1010.84H1549.33V1013.42H1526.01ZM1566.91 990.102C1566.87 995.668 1570.89 1001.8 1575.93 1004.2L1574.17 1006.62C1570.27 1004.71 1566.96 1000.61 1565.4 995.902C1563.8 1001 1560.32 1005.49 1556.44 1007.48L1554.56 1005.06C1559.56 1002.62 1563.86 996.02 1563.9 990.102V985.57H1555.81V983.031H1574.72V985.57H1566.91V990.102ZM1578.98 1014.16V979.438H1582.02V993.5H1587.84V996.117H1582.02V1014.16H1578.98ZM1621.52 1007.29V1009.87H1589.72V1007.29H1598.66V1000.69H1593.7V989.984H1614.48V984.555H1593.62V982.016H1617.49V992.523H1596.75V998.148H1618.31V1000.69H1612.88V1007.29H1621.52ZM1601.67 1007.29H1609.88V1000.69H1601.67V1007.29ZM1652.92 979.438V997.445H1649.91V979.438H1652.92ZM1624.52 994.672C1629.76 992.855 1633.47 988.207 1633.47 983.109V980.453H1636.59V983.109C1636.55 988.012 1640.3 992.348 1645.46 994.047L1643.94 996.43C1639.86 995.043 1636.63 992.133 1635.07 988.383C1633.51 992.426 1630.25 995.609 1626.12 997.094L1624.52 994.672ZM1630.38 1001.66V999.203H1652.96V1007.52H1633.47V1011.27H1654.21V1013.77H1630.46V1005.14H1649.91V1001.66H1630.38ZM1496.71 1083.39C1490.75 1083.39 1486.65 1080.09 1486.67 1075.5C1486.65 1071.85 1489.19 1068.82 1492.41 1068.31V1068.16C1489.6 1067.51 1487.75 1064.91 1487.77 1061.83C1487.75 1057.51 1491.54 1054.33 1496.71 1054.33C1501.87 1054.33 1505.66 1057.51 1505.7 1061.83C1505.66 1064.91 1503.78 1067.51 1501.01 1068.16V1068.31C1504.21 1068.82 1506.75 1071.85 1506.79 1075.5C1506.75 1080.09 1502.61 1083.39 1496.71 1083.39ZM1490.19 1075.3C1490.13 1078.27 1492.65 1080.29 1496.71 1080.3C1500.75 1080.29 1503.27 1078.27 1503.27 1075.3C1503.27 1072.18 1500.52 1069.88 1496.71 1069.88C1492.92 1069.88 1490.13 1072.18 1490.19 1075.3ZM1491.16 1062.1C1491.18 1064.95 1493.47 1066.89 1496.71 1066.91C1499.93 1066.89 1502.26 1064.95 1502.26 1062.1C1502.26 1059.27 1500.01 1057.36 1496.71 1057.38C1493.35 1057.36 1491.18 1059.27 1491.16 1062.1ZM1521.52 1054.72V1083H1517.96V1058.39H1517.8L1510.93 1062.96V1059.41L1517.96 1054.72H1521.52ZM1538.82 1083.39C1533.2 1083.39 1529.15 1080.38 1528.98 1075.89H1532.53C1532.73 1078.59 1535.4 1080.27 1538.78 1080.27C1542.51 1080.27 1545.21 1078.25 1545.23 1075.3C1545.21 1072.22 1542.75 1070.05 1538.35 1070.03H1536.05V1066.95H1538.35C1541.79 1066.95 1544.19 1065.01 1544.17 1062.1C1544.19 1059.27 1542.12 1057.39 1538.9 1057.38C1535.87 1057.39 1533.12 1059.05 1532.96 1061.83H1529.56C1529.74 1057.34 1533.92 1054.33 1538.94 1054.33C1544.33 1054.33 1547.61 1057.86 1547.57 1061.91C1547.61 1065.13 1545.73 1067.47 1542.77 1068.31V1068.51C1546.46 1069.07 1548.68 1071.71 1548.66 1075.3C1548.68 1079.95 1544.46 1083.39 1538.82 1083.39ZM1555.27 1083.23C1553.9 1083.21 1552.73 1082.08 1552.77 1080.7C1552.73 1079.33 1553.9 1078.2 1555.27 1078.2C1556.65 1078.2 1557.79 1079.33 1557.77 1080.7C1557.79 1082.08 1556.65 1083.21 1555.27 1083.23ZM1571.55 1083.39C1565.6 1083.39 1561.5 1080.09 1561.52 1075.5C1561.5 1071.85 1564.04 1068.82 1567.26 1068.31V1068.16C1564.45 1067.51 1562.59 1064.91 1562.61 1061.83C1562.59 1057.51 1566.38 1054.33 1571.55 1054.33C1576.71 1054.33 1580.5 1057.51 1580.54 1061.83C1580.5 1064.91 1578.62 1067.51 1575.85 1068.16V1068.31C1579.05 1068.82 1581.59 1071.85 1581.63 1075.5C1581.59 1080.09 1577.45 1083.39 1571.55 1083.39ZM1565.03 1075.3C1564.97 1078.27 1567.49 1080.29 1571.55 1080.3C1575.6 1080.29 1578.12 1078.27 1578.12 1075.3C1578.12 1072.18 1575.36 1069.88 1571.55 1069.88C1567.77 1069.88 1564.97 1072.18 1565.03 1075.3ZM1566.01 1062.1C1566.03 1064.95 1568.31 1066.89 1571.55 1066.91C1574.78 1066.89 1577.1 1064.95 1577.1 1062.1C1577.1 1059.27 1574.86 1057.36 1571.55 1057.38C1568.2 1057.36 1566.03 1059.27 1566.01 1062.1ZM1613.74 1051.44V1086.24H1610.66V1051.44H1613.74ZM1586.4 1066.24C1586.42 1058.86 1590.09 1054.15 1595.27 1054.13C1600.42 1054.15 1604.15 1058.86 1604.13 1066.24C1604.15 1073.64 1600.42 1078.33 1595.27 1078.31C1590.09 1078.33 1586.42 1073.64 1586.4 1066.24ZM1589.37 1066.24C1589.37 1071.89 1591.79 1075.6 1595.27 1075.58C1598.76 1075.6 1601.16 1071.89 1601.16 1066.24C1601.16 1060.6 1598.76 1056.89 1595.27 1056.87C1591.79 1056.89 1589.37 1060.6 1589.37 1066.24ZM1630.15 1083.39C1625.05 1083.39 1621.18 1080.25 1620.97 1075.89H1624.37C1624.62 1078.41 1627.08 1080.29 1630.15 1080.3C1633.82 1080.29 1636.48 1077.61 1636.48 1074.05C1636.48 1070.38 1633.72 1067.67 1629.91 1067.65C1627.53 1067.61 1625.68 1068.35 1624.64 1070.19H1621.24L1623.23 1054.72H1638.55V1057.84H1626.16L1625.11 1066.12H1625.38C1626.65 1065.15 1628.55 1064.48 1630.54 1064.48C1635.93 1064.48 1639.89 1068.47 1639.91 1073.98C1639.89 1079.45 1635.79 1083.39 1630.15 1083.39ZM1654.64 1083.39C1649.74 1083.33 1644.33 1080.42 1644.33 1069.95C1644.33 1059.93 1648.43 1054.33 1655.07 1054.33C1660.05 1054.33 1663.53 1057.39 1664.25 1061.83H1660.77C1660.13 1059.33 1658.21 1057.45 1655.07 1057.45C1650.42 1057.45 1647.63 1061.42 1647.65 1068.23H1648C1649.62 1065.87 1652.22 1064.48 1655.27 1064.48C1660.29 1064.48 1664.48 1068.39 1664.48 1073.86C1664.48 1079.19 1660.6 1083.45 1654.64 1083.39ZM1648.12 1073.94C1648.14 1077.26 1650.85 1080.29 1654.64 1080.3C1658.29 1080.29 1661.07 1077.41 1661.09 1073.9C1661.07 1070.42 1658.41 1067.59 1654.72 1067.57C1651.01 1067.59 1648.16 1070.6 1648.12 1073.94ZM1678.59 1083.39C1672.32 1083.39 1668.68 1078.12 1668.7 1068.86C1668.68 1059.68 1672.36 1054.33 1678.59 1054.33C1684.8 1054.33 1688.47 1059.68 1688.47 1068.86C1688.47 1078.12 1684.86 1083.39 1678.59 1083.39ZM1672.1 1068.86C1672.12 1076.18 1674.48 1080.27 1678.59 1080.27C1682.67 1080.27 1685.05 1076.18 1685.03 1068.86C1685.05 1061.54 1682.65 1057.39 1678.59 1057.38C1674.52 1057.39 1672.12 1061.54 1672.1 1068.86Z" fill="#6B7684"/>
</g>
<path d="M1718.39 130V107.375H1727.05C1731.95 107.375 1734.38 109.875 1734.39 113.25C1734.38 116 1732.64 117.531 1730.42 118.062V118.281C1732.83 118.406 1735.27 120.406 1735.27 123.844C1735.27 127.359 1732.72 130 1727.55 130H1718.39ZM1722.45 126.594H1726.92C1729.89 126.594 1731.12 125.328 1731.14 123.531C1731.12 121.5 1729.55 119.953 1727.02 119.938H1722.45V126.594ZM1722.45 117H1726.55C1728.69 117 1730.31 115.766 1730.33 113.75C1730.31 112.016 1729.06 110.75 1726.64 110.75H1722.45V117ZM1765.17 118.688C1765.18 126 1760.71 130.312 1754.79 130.312C1748.84 130.312 1744.4 125.984 1744.42 118.688C1744.4 111.375 1748.84 107.062 1754.79 107.062C1760.71 107.062 1765.18 111.375 1765.17 118.688ZM1748.51 118.688C1748.49 123.859 1751.1 126.656 1754.79 126.656C1758.49 126.656 1761.09 123.859 1761.07 118.688C1761.09 113.516 1758.49 110.719 1754.79 110.719C1751.1 110.719 1748.49 113.516 1748.51 118.688ZM1795.38 118.688C1795.39 126 1790.92 130.312 1785 130.312C1779.05 130.312 1774.61 125.984 1774.63 118.688C1774.61 111.375 1779.05 107.062 1785 107.062C1790.92 107.062 1795.39 111.375 1795.38 118.688ZM1778.72 118.688C1778.71 123.859 1781.32 126.656 1785 126.656C1788.71 126.656 1791.3 123.859 1791.28 118.688C1791.3 113.516 1788.71 110.719 1785 110.719C1781.32 110.719 1778.71 113.516 1778.72 118.688ZM1805.4 130V107.375H1809.47V117.781H1809.78L1818.62 107.375H1823.59L1814.84 117.531L1823.68 130H1818.78L1812 120.281L1809.47 123.25V130H1805.4ZM1850.64 107.375V130H1846.58V107.375H1850.64ZM1879.85 107.375V130H1876.23L1865.51 114.531H1865.32V130H1861.26V107.375H1864.95L1875.6 122.844H1875.82V107.375H1879.85ZM1890.44 130V107.375H1904.94V110.781H1894.5V116.969H1903.94V120.375H1894.5V130H1890.44ZM1934.97 118.688C1934.98 126 1930.51 130.312 1924.59 130.312C1918.64 130.312 1914.2 125.984 1914.22 118.688C1914.2 111.375 1918.64 107.062 1924.59 107.062C1930.51 107.062 1934.98 111.375 1934.97 118.688ZM1918.31 118.688C1918.29 123.859 1920.9 126.656 1924.59 126.656C1928.29 126.656 1930.89 123.859 1930.87 118.688C1930.89 113.516 1928.29 110.719 1924.59 110.719C1920.9 110.719 1918.29 113.516 1918.31 118.688ZM1944.99 130V107.375H1953.49C1958.68 107.375 1961.44 110.281 1961.46 114.594C1961.44 117.672 1960.04 119.953 1957.38 121.031L1962.27 130H1957.74L1953.3 121.719H1949.05V130H1944.99ZM1949.05 118.312H1952.87C1955.93 118.328 1957.3 117.016 1957.3 114.594C1957.3 112.188 1955.93 110.781 1952.87 110.781H1949.05V118.312ZM1971.36 107.375H1976.36L1983.08 123.812H1983.36L1990.08 107.375H1995.08V130H1991.17V114.438H1990.95L1984.67 129.938H1981.77L1975.48 114.375H1975.3V130H1971.36V107.375ZM2008.54 130H2004.2L2012.17 107.375H2017.17L2025.17 130H2020.82L2018.93 124.406H2010.42L2008.54 130ZM2011.51 121.125H2017.84L2014.76 112H2014.57L2011.51 121.125ZM2030.5 110.781V107.375H2048.53V110.781H2041.57V130H2037.5V110.781H2030.5ZM2062.18 107.375V130H2058.12V107.375H2062.18ZM2092.99 118.688C2093.01 126 2088.54 130.312 2082.62 130.312C2076.66 130.312 2072.23 125.984 2072.24 118.688C2072.23 111.375 2076.66 107.062 2082.62 107.062C2088.54 107.062 2093.01 111.375 2092.99 118.688ZM2076.33 118.688C2076.32 123.859 2078.93 126.656 2082.62 126.656C2086.32 126.656 2088.91 123.859 2088.9 118.688C2088.91 113.516 2086.32 110.719 2082.62 110.719C2078.93 110.719 2076.32 113.516 2076.33 118.688ZM2121.61 107.375V130H2117.98L2107.27 114.531H2107.08V130H2103.02V107.375H2106.7L2117.36 122.844H2117.58V107.375H2121.61Z" fill="#ADB5BD"/>
<path d="M1833.55 203.281V210.844H1810.52V228.633H1841.45V236.453H1770.47V228.633H1801.06V210.844H1779.06V173.719H1832.95V181.367H1788.6V203.281H1833.55ZM1875.23 186.609C1875.18 201.047 1882.1 215.227 1894.48 220.641L1888.72 228.289C1879.95 223.992 1873.77 215.742 1870.46 205.559C1867.06 216.301 1860.7 225.238 1851.77 229.75L1845.75 222.016C1858.43 216.086 1865.47 201.133 1865.52 186.609V174.234H1875.23V186.609ZM1885.88 200.789V193.055H1902.21V167.961H1911.66V245.734H1902.21V200.789H1885.88ZM1987.63 167.961V214.109H1978.09V195.117H1964.86V187.297H1978.09V167.961H1987.63ZM1922.32 206.375C1934.82 202.078 1941.4 191.637 1941.4 181.367V180.766H1925.24V173.031H1967.18V180.766H1951.11V181.281C1951.11 190.734 1957.38 200.273 1969.41 204.312L1964.6 211.875C1955.96 208.953 1949.86 203.023 1946.43 195.719C1943.03 203.969 1936.54 210.672 1927.3 213.938L1922.32 206.375ZM1934.95 230.867C1934.87 221.543 1944.96 216.086 1961.34 216.086C1977.79 216.086 1987.85 221.543 1987.89 230.867C1987.85 240.191 1977.79 245.605 1961.34 245.648C1944.96 245.605 1934.87 240.191 1934.95 230.867ZM1944.41 230.867C1944.36 235.68 1950.55 238.301 1961.34 238.258C1972.21 238.301 1978.35 235.68 1978.35 230.867C1978.35 226.012 1972.21 223.391 1961.34 223.391C1950.55 223.391 1944.36 226.012 1944.41 230.867ZM2069.62 228.461V236.281H1998.63V228.461H2029.23V213.336H2006.45V173.117H2015.99V185.836H2052V173.117H2061.54V213.336H2038.68V228.461H2069.62ZM2015.99 205.602H2052V193.484H2015.99V205.602Z" fill="#191F28"/>
<path d="M115.849 1984L100 2000L115.849 2016V2004H143.585C154.575 2004 163.396 2012.91 163.396 2024C163.396 2035.09 154.575 2044 143.585 2044H103.962V2052H143.585C158.857 2052 171.321 2039.42 171.321 2024C171.321 2008.58 158.857 1996 143.585 1996H115.849V1984Z" fill="#191F28"/>
<g filter="url(#filter0_d_2843_14130)">
<rect x="2680" y="1960.06" width="386" height="120" rx="60" fill="white"/>
<g clip-path="url(#clip2_2843_14130)">
<circle cx="2738" cy="2020.06" r="48" fill="#FFEBE7"/>
<g clip-path="url(#clip3_2843_14130)">
<path d="M2718.62 2000.36C2718.62 2000.36 2707.03 2031.95 2727.59 2041.53L2735.11 2038.56L2738.87 2025.63C2738.87 2025.63 2723.29 2002.21 2723.29 2002.34C2723.29 2002.47 2718.62 2000.36 2718.62 2000.36Z" fill="#642718"/>
<path d="M2757.98 2000.36C2757.98 2000.36 2769.57 2031.95 2749.01 2041.53L2741.5 2038.56L2737.73 2025.63C2737.73 2025.63 2753.3 2002.21 2753.3 2002.34C2753.3 2002.47 2757.98 2000.36 2757.98 2000.36Z" fill="#642718"/>
<path d="M2729.42 2026.41V2039.46L2714.17 2044.99L2738.3 2065.28L2761.83 2044.99L2746.58 2039.46V2026.41H2729.42Z" fill="#F5CCC1"/>
<path d="M2729.2 1991.04C2734.77 1987.58 2741.82 1987.58 2747.39 1991.04C2753.47 1994.8 2756.59 2001.92 2755.26 2008.94L2752.74 2019.92C2751.79 2024.07 2749.19 2027.64 2745.54 2029.83L2743.05 2031.31C2740.13 2033.06 2736.47 2033.06 2733.54 2031.31L2731.06 2029.83C2727.41 2027.64 2724.8 2024.07 2723.86 2019.92L2721.34 2008.94C2720 2001.92 2723.13 1994.8 2729.2 1991.04Z" fill="#F5CCC1"/>
<path d="M2732.98 2011.34V2012.51" stroke="#300021" stroke-width="3" stroke-miterlimit="10" stroke-linecap="round"/>
<path d="M2743.62 2011.34V2012.51" stroke="#300021" stroke-width="3" stroke-miterlimit="10" stroke-linecap="round"/>
<path d="M2730.72 2007.87C2731.12 2007.68 2731.8 2007.55 2732.54 2007.53C2733.3 2007.51 2733.97 2007.61 2734.37 2007.78" stroke="#642718" stroke-width="2" stroke-miterlimit="10" stroke-linecap="round" stroke-linejoin="round"/>
<path d="M2745.88 2007.87C2745.48 2007.68 2744.8 2007.55 2744.05 2007.53C2743.3 2007.51 2742.63 2007.61 2742.22 2007.78" stroke="#642718" stroke-width="2" stroke-miterlimit="10" stroke-linecap="round" stroke-linejoin="round"/>
<path d="M2742.16 2020.4C2741.3 2020.99 2739.88 2021.37 2738.29 2021.37C2736.7 2021.37 2735.3 2020.99 2734.43 2020.4" stroke="#C0655E" stroke-width="2" stroke-miterlimit="10" stroke-linecap="round" stroke-linejoin="round"/>
<path d="M2739.78 2016.39C2739.78 2016.86 2739.12 2017.24 2738.3 2017.24C2737.49 2017.24 2736.82 2016.86 2736.82 2016.39C2736.82 2015.92 2737.49 2015.54 2738.3 2015.54C2739.12 2015.54 2739.78 2015.92 2739.78 2016.39Z" fill="#DD7766"/>
<path d="M2721.87 2014.52C2721.87 2014.52 2724.23 2012.66 2724.54 2008.99C2724.86 2005.31 2727.41 2001.07 2727.41 2001.07L2721.03 2001.33C2721.03 2001.34 2718.69 2005.62 2721.87 2014.52Z" fill="#642718"/>
<path d="M2754.73 2014.52C2754.73 2014.52 2752.36 2012.66 2752.05 2008.99C2751.74 2005.31 2748.66 1999.72 2748.66 1999.72L2755.56 2001.33C2755.57 2001.34 2757.9 2005.62 2754.73 2014.52Z" fill="#642718"/>
<path d="M2745.54 2029.83L2743.05 2031.31C2740.13 2033.06 2736.47 2033.06 2733.54 2031.31L2731.06 2029.83" stroke="#C0655E" stroke-width="1.2" stroke-miterlimit="10" stroke-linecap="round" stroke-linejoin="round"/>
<path d="M2729.42 2039.21L2738 2049.87L2746.58 2039.21L2766.75 2044.5C2772.16 2045.7 2776 2050.5 2776 2056.04V2069.32H2700V2056.04C2700 2050.5 2703.84 2045.71 2709.25 2044.5L2729.42 2039.21Z" fill="#FFC238"/>
<path d="M2724.28 2008.18C2724.28 2008.18 2733.97 2007.29 2736.81 1997.11L2738.87 1988.44L2726.21 1998.31L2724.28 2008.18Z" fill="#642718"/>
<path d="M2756.4 2013.26C2754.1 2016.13 2752.8 2008.77 2752.8 2008.77C2752.8 2008.77 2751.88 2004.21 2750.39 2001.81C2750.08 2001.32 2749.61 2000.83 2749.01 2000.36H2749C2746.67 1998.56 2742.4 1997.12 2738.3 1997.12C2737.87 1997.12 2737.45 1997.14 2737.02 1997.17C2732.27 1997.5 2727.59 1999.6 2726.21 2001.81C2724.71 2004.21 2723.8 2008.77 2723.8 2008.77C2723.8 2008.77 2722.5 2016.13 2720.2 2013.26C2717.9 2010.4 2716.9 2002.65 2719.73 1997.64C2722.56 1992.63 2729.53 1985.93 2734.41 1985.14C2736.12 1984.87 2737.38 1985.26 2738.3 1985.89C2739.22 1985.26 2740.47 1984.87 2742.19 1985.14C2747.07 1985.93 2754.04 1992.63 2756.86 1997.64C2759.69 2002.65 2758.69 2010.4 2756.4 2013.26Z" fill="#642718"/>
<path d="M2725.26 2013.62C2725.86 2016.54 2724.93 2019.3 2723.19 2019.8C2721.45 2020.3 2719.56 2018.34 2718.96 2015.42C2718.37 2012.51 2719.3 2009.74 2721.04 2009.24C2722.78 2008.74 2724.67 2010.71 2725.26 2013.62Z" fill="#F5CCC1"/>
<path d="M2722.72 2017.51C2722.68 2017.52 2722.63 2017.53 2722.58 2017.53C2721.92 2017.58 2721 2016.6 2720.66 2014.94C2720.48 2014.07 2720.51 2013.17 2720.74 2012.49C2720.84 2012.19 2721.07 2011.66 2721.5 2011.54C2721.54 2011.53 2721.59 2011.52 2721.64 2011.52" stroke="#C0655E" stroke-width="1.2" stroke-miterlimit="10" stroke-linecap="round" stroke-linejoin="round"/>
<path d="M2757.71 2015.03C2758.17 2012.08 2757.11 2009.47 2755.33 2009.19C2753.55 2008.91 2751.73 2011.07 2751.26 2014.01C2750.8 2016.96 2751.86 2019.58 2753.64 2019.86C2755.42 2020.14 2757.24 2017.98 2757.71 2015.03Z" fill="#F5CCC1"/>
<path d="M2753.88 2017.51C2753.92 2017.52 2753.97 2017.53 2754.01 2017.53C2754.67 2017.58 2755.6 2016.6 2755.94 2014.94C2756.11 2014.07 2756.09 2013.17 2755.86 2012.49C2755.75 2012.19 2755.52 2011.66 2755.1 2011.54C2755.06 2011.53 2755.01 2011.52 2754.96 2011.52" stroke="#C0655E" stroke-width="1.2" stroke-miterlimit="10" stroke-linecap="round" stroke-linejoin="round"/>
<path d="M2749 2000.36H2749C2746.67 1998.56 2742.4 1997.12 2738.3 1997.12C2737.87 1997.12 2737.45 1997.14 2737.02 1997.17L2737.06 1996.75C2737.06 1996.75 2738.03 1993.51 2740.04 1993.13C2742.04 1992.74 2747.36 1996.77 2749 2000.36Z" fill="#300021"/>
<path d="M2725.3 2005.07C2725.3 2005.07 2731.02 2002.39 2732.78 1997.66C2734.52 1992.93 2736.82 1991.99 2736.82 1991.99" stroke="#300021" stroke-width="1.2" stroke-miterlimit="10" stroke-linecap="round"/>
<path d="M2726.01 2000.59C2726.01 2000.59 2729.64 1998.49 2730.53 1995.55C2731.41 1992.62 2732.92 1991.71 2732.92 1991.71" stroke="#300021" stroke-width="1.2" stroke-miterlimit="10" stroke-linecap="round"/>
<path d="M2751.64 1997.93C2752.65 1999.77 2753.27 2001.81 2753.45 2003.88" stroke="#300021" stroke-width="1.2" stroke-miterlimit="10" stroke-linecap="round"/>
<path d="M2754.86 1999.3C2755.37 2001.27 2755.54 2003.34 2755.37 2005.37" stroke="#300021" stroke-width="1.2" stroke-miterlimit="10" stroke-linecap="round"/>
<path d="M2729.42 2035.23C2729.42 2035.23 2724.71 2035.78 2721.03 2041.66L2729.99 2054.07C2730.86 2055.27 2732.58 2055.42 2733.64 2054.38L2737.99 2050.13L2729.42 2039.46V2035.23H2729.42Z" fill="#F7EFEE"/>
<path d="M2746.58 2035.23C2746.58 2035.23 2751.29 2035.78 2754.97 2041.66L2745.77 2054.4C2745.03 2055.42 2743.55 2055.55 2742.64 2054.66L2738 2050.13L2746.58 2039.46V2035.23Z" fill="#F7EFEE"/>
</g>
</g>
<path d="M2844.12 2003.83V2021.9H2839.62V2003.83H2844.12ZM2817.82 2013.01C2817.82 2008.44 2821.58 2005.28 2826.57 2005.28C2831.55 2005.28 2835.31 2008.44 2835.33 2013.01C2835.31 2017.4 2831.55 2020.64 2826.57 2020.64C2821.58 2020.64 2817.82 2017.4 2817.82 2013.01ZM2822.21 2013.01C2822.18 2015.38 2824.01 2016.88 2826.57 2016.88C2829.07 2016.88 2830.88 2015.38 2830.9 2013.01C2830.88 2010.5 2829.07 2009.04 2826.57 2009.04C2824.01 2009.04 2822.18 2010.5 2822.21 2013.01ZM2822.67 2035.44V2023.35H2844.12V2035.44H2822.67ZM2827.1 2031.85H2839.72V2026.9H2827.1V2031.85ZM2860.89 2011.04C2860.87 2016.91 2863.54 2022.8 2868.97 2025.1L2866.34 2028.69C2862.68 2027.04 2860.15 2023.84 2858.69 2019.88C2857.25 2024.21 2854.63 2027.69 2850.73 2029.46L2848.02 2025.74C2853.61 2023.38 2856.33 2017.25 2856.35 2011.04V2006.26H2860.89V2011.04ZM2870.7 2035.86V2003.8H2875.23V2035.86H2870.7ZM2888.48 2005.52C2891.03 2005.5 2893.27 2006.45 2894.79 2008.02H2902.05V2003.8H2906.52V2022.54H2902.05V2018.71H2894.76C2893.23 2020.25 2891.02 2021.18 2888.48 2021.17C2883.63 2021.18 2879.94 2017.88 2879.98 2013.36C2879.94 2008.79 2883.63 2005.5 2888.48 2005.52ZM2884.23 2013.36C2884.21 2015.82 2885.99 2017.39 2888.48 2017.37C2890.89 2017.39 2892.65 2015.82 2892.67 2013.36C2892.65 2010.81 2890.89 2009.34 2888.48 2009.35C2885.99 2009.34 2884.21 2010.81 2884.23 2013.36ZM2884.58 2029.5C2884.58 2025.53 2888.82 2023.19 2895.59 2023.21C2902.35 2023.19 2906.61 2025.53 2906.62 2029.5C2906.61 2033.47 2902.35 2035.81 2895.59 2035.79C2888.82 2035.81 2884.58 2033.47 2884.58 2029.5ZM2888.98 2029.5C2888.98 2031.36 2891.35 2032.31 2895.59 2032.31C2899.91 2032.31 2902.21 2031.36 2902.23 2029.5C2902.21 2027.58 2899.91 2026.63 2895.59 2026.62C2891.35 2026.63 2888.98 2027.58 2888.98 2029.5ZM2896.71 2011.57C2896.85 2012.13 2896.92 2012.75 2896.92 2013.36C2896.92 2013.98 2896.85 2014.56 2896.73 2015.12H2902.05V2011.57H2896.71ZM2945.54 2004.15V2021.9H2942.84V2004.15H2945.54ZM2921.74 2019.51V2006.01H2924.52V2017.16C2929.69 2017.12 2934.31 2016.77 2939.29 2015.72L2939.71 2018.04C2934.42 2019.11 2929.67 2019.48 2924.27 2019.51H2921.74ZM2925.26 2034.98V2023.35H2945.54V2034.98H2925.26ZM2927.96 2032.73H2942.84V2025.56H2927.96V2032.73Z" fill="#191F28"/>
<g clip-path="url(#clip4_2843_14130)">
<path d="M3016.8 2013.13L3023.84 2020.14L3016.8 2027.15" stroke="#6B7684" stroke-width="4" stroke-miterlimit="10" stroke-linecap="round" stroke-linejoin="round"/>
<path d="M3023.84 2020.14H2997.17" stroke="#6B7684" stroke-width="4" stroke-miterlimit="10" stroke-linecap="round" stroke-linejoin="round"/>
<path d="M3009.76 2030.53V2032.73C3009.76 2035.65 3007.34 2038.06 3004.41 2038.06H2987.46C2984.58 2038.06 2982.17 2035.65 2982.17 2032.73V2007.55C2982.17 2004.63 2984.58 2002.22 2987.51 2002.22H3004.47C3007.34 2002.22 3009.76 2004.63 3009.76 2007.55V2009.59" stroke="#6B7684" stroke-width="4" stroke-miterlimit="10" stroke-linecap="round" stroke-linejoin="round"/>
</g>
</g>
</g>
<defs>
<filter id="filter0_d_2843_14130" x="2650" y="1930.06" width="466" height="200" filterUnits="userSpaceOnUse" color-interpolation-filters="sRGB">
<feFlood flood-opacity="0" result="BackgroundImageFix"/>
<feColorMatrix in="SourceAlpha" type="matrix" values="0 0 0 0 0 0 0 0 0 0 0 0 0 0 0 0 0 0 127 0" result="hardAlpha"/>
<feOffset dx="10" dy="10"/>
<feGaussianBlur stdDeviation="20"/>
<feComposite in2="hardAlpha" operator="out"/>
<feColorMatrix type="matrix" values="0 0 0 0 0 0 0 0 0 0 0 0 0 0 0 0 0 0 0.1 0"/>
<feBlend mode="normal" in2="BackgroundImageFix" result="effect1_dropShadow_2843_14130"/>
<feBlend mode="normal" in="SourceGraphic" in2="effect1_dropShadow_2843_14130" result="shape"/>
</filter>
<linearGradient id="paint0_linear_2843_14130" x1="145.769" y1="5.00669e-06" x2="539.244" y2="2342.07" gradientUnits="userSpaceOnUse">
<stop stop-color="#EDE3DA"/>
<stop offset="1" stop-color="#D9D0C9"/>
</linearGradient>
<clipPath id="clip0_2843_14130">
<rect width="3840" height="2160" fill="white"/>
</clipPath>
<clipPath id="clip1_2843_14130">
<rect width="2886" height="1400" fill="white" transform="translate(180 400)"/>
</clipPath>
<clipPath id="clip2_2843_14130">
<rect x="2690" y="1972.06" width="96" height="96" rx="48" fill="white"/>
</clipPath>
<clipPath id="clip3_2843_14130">
<rect width="76" height="84.51" fill="white" transform="translate(2700 1985.06)"/>
</clipPath>
<clipPath id="clip4_2843_14130">
<rect width="46" height="41" fill="white" transform="translate(2980 1999.56)"/>
</clipPath>
</defs>
</svg>
