<svg width="2160" height="3840" viewBox="0 0 2160 3840" fill="none" xmlns="http://www.w3.org/2000/svg">
<rect width="2160" height="3840" fill="#F5F0EE"/>
<rect width="2160" height="2940" fill="url(#paint0_linear_2843_14056)"/>
<rect x="180" y="480" width="1800" height="2280" rx="60" fill="white"/>
<path d="M1238.39 747.909V754.249H1232.3V782.865C1235.15 782.641 1237.99 782.367 1240.7 782.044L1241.07 787.688C1227.94 789.95 1213.2 790.199 1202.16 790.249L1201.29 783.785C1203.68 783.785 1206.27 783.785 1208.95 783.76V754.249H1202.88V747.909H1238.39ZM1216.53 783.635C1219.24 783.561 1222 783.461 1224.76 783.337V754.249H1216.53V783.635ZM1244.06 805.215V741.718H1251.89V766.331H1261.68V772.721H1251.89V805.215H1244.06ZM1296.93 747.163V753.552H1274.86V764.914H1295.84V771.105H1274.86V784.207C1284.68 784.133 1292.31 783.735 1301.16 782.293L1301.88 788.633C1292.14 790.174 1283.58 790.472 1272.17 790.522H1266.95V747.163H1296.93ZM1306.28 805.215V741.718H1314.11V766.282H1323.91V772.845H1314.11V805.215H1306.28Z" fill="#191F28"/>
<path d="M1236.61 885.926H1221.31V893.402H1217.27V885.926H1201.38V882.617H1236.61V885.926ZM1205.76 889.75H1209.84V897.527H1232.7V900.836H1205.76V889.75ZM1205.89 864.957H1232.05V878.621H1205.89V864.957ZM1228.02 875.398V868.18H1209.88V875.398H1228.02ZM1269.44 878.492H1275.41V881.887H1269.44V901.609H1265.36V863.152H1269.44V878.492ZM1239.49 891.34C1244.3 888.934 1248.02 885.997 1250.64 882.531C1253.27 879.065 1254.8 875.083 1255.21 870.586H1241.42V867.191H1259.38C1259.35 873.064 1257.93 878.342 1255.11 883.025C1252.29 887.695 1247.84 891.526 1241.77 894.52L1239.49 891.34ZM1288.09 865.387C1289.68 865.387 1291.14 865.666 1292.47 866.225C1293.82 866.769 1294.95 867.549 1295.86 868.566H1305.49V863.152H1309.57V885.883H1305.49V880.684H1295.84C1294.93 881.686 1293.79 882.46 1292.45 883.004C1291.12 883.548 1289.66 883.82 1288.09 883.82C1286.18 883.82 1284.46 883.426 1282.93 882.639C1281.4 881.851 1280.19 880.762 1279.32 879.373C1278.46 877.969 1278.03 876.387 1278.03 874.625C1278.03 872.849 1278.46 871.259 1279.32 869.855C1280.19 868.452 1281.4 867.356 1282.93 866.568C1284.46 865.781 1286.18 865.387 1288.09 865.387ZM1281.94 874.625C1281.94 875.728 1282.2 876.716 1282.71 877.59C1283.24 878.464 1283.98 879.144 1284.93 879.631C1285.87 880.118 1286.94 880.354 1288.13 880.34C1289.29 880.354 1290.33 880.118 1291.24 879.631C1292.18 879.144 1292.91 878.464 1293.44 877.59C1293.97 876.716 1294.23 875.728 1294.23 874.625C1294.23 873.493 1293.97 872.491 1293.44 871.617C1292.91 870.743 1292.18 870.07 1291.24 869.598C1290.33 869.125 1289.29 868.896 1288.13 868.91C1286.94 868.896 1285.87 869.125 1284.93 869.598C1283.98 870.07 1283.24 870.743 1282.71 871.617C1282.2 872.491 1281.94 873.493 1281.94 874.625ZM1283.66 894.176C1283.66 892.629 1284.18 891.297 1285.23 890.18C1286.27 889.048 1287.77 888.196 1289.72 887.623C1291.68 887.036 1294 886.742 1296.68 886.742C1299.34 886.742 1301.65 887.036 1303.6 887.623C1305.56 888.196 1307.06 889.048 1308.11 890.18C1309.17 891.297 1309.7 892.629 1309.7 894.176C1309.7 895.723 1309.17 897.048 1308.11 898.15C1307.06 899.268 1305.56 900.113 1303.6 900.686C1301.65 901.273 1299.34 901.566 1296.68 901.566C1294 901.566 1291.68 901.273 1289.72 900.686C1287.77 900.113 1286.27 899.268 1285.23 898.15C1284.18 897.048 1283.66 895.723 1283.66 894.176ZM1287.66 894.176C1287.66 895.049 1288.01 895.801 1288.71 896.432C1289.43 897.048 1290.45 897.52 1291.78 897.85C1293.13 898.179 1294.72 898.344 1296.57 898.344C1299.45 898.344 1301.69 897.986 1303.3 897.27C1304.9 896.539 1305.7 895.508 1305.7 894.176C1305.7 892.815 1304.91 891.762 1303.32 891.018C1301.74 890.273 1299.53 889.893 1296.68 889.879C1293.83 889.893 1291.61 890.273 1290.02 891.018C1288.43 891.762 1287.64 892.815 1287.66 894.176ZM1297.73 871.832C1298 872.734 1298.14 873.665 1298.14 874.625C1298.14 875.542 1298 876.444 1297.73 877.332H1305.49V871.832H1297.73ZM1329.46 902.684H1325.38L1335.39 865.43H1339.48L1329.46 902.684ZM1364.87 864.914C1366.79 864.914 1368.51 865.251 1370.03 865.924C1371.55 866.583 1372.73 867.521 1373.59 868.738C1374.45 869.956 1374.88 871.345 1374.88 872.906C1374.88 874.453 1374.45 875.835 1373.59 877.053C1372.73 878.27 1371.55 879.215 1370.03 879.889C1368.51 880.548 1366.79 880.87 1364.87 880.855C1362.97 880.87 1361.25 880.548 1359.74 879.889C1358.23 879.215 1357.06 878.27 1356.21 877.053C1355.37 875.835 1354.95 874.453 1354.95 872.906C1354.95 871.345 1355.37 869.956 1356.21 868.738C1357.06 867.521 1358.23 866.583 1359.74 865.924C1361.25 865.251 1362.97 864.914 1364.87 864.914ZM1352.2 883.863C1356.82 883.863 1361.26 883.77 1365.52 883.584C1369.78 883.383 1373.79 883.004 1377.55 882.445L1377.85 885.496C1374.6 886.112 1371.03 886.549 1367.15 886.807V900.449H1363.07V887.043C1360.63 887.158 1357.19 887.229 1352.75 887.258L1352.2 883.863ZM1358.9 872.906C1358.88 873.823 1359.13 874.632 1359.63 875.334C1360.14 876.036 1360.85 876.58 1361.76 876.967C1362.67 877.339 1363.71 877.518 1364.87 877.504C1366.06 877.518 1367.11 877.339 1368.03 876.967C1368.96 876.58 1369.68 876.036 1370.2 875.334C1370.71 874.632 1370.97 873.823 1370.97 872.906C1370.97 871.975 1370.71 871.159 1370.2 870.457C1369.68 869.741 1368.96 869.189 1368.03 868.803C1367.11 868.416 1366.06 868.223 1364.87 868.223C1363.71 868.223 1362.67 868.416 1361.76 868.803C1360.85 869.189 1360.14 869.741 1359.63 870.457C1359.13 871.173 1358.88 871.99 1358.9 872.906ZM1380.21 863.195H1384.25V901.652H1380.21V863.195ZM1425.5 896.668H1390.27V893.316H1425.5V896.668ZM1391.9 883.691C1394.28 883.305 1396.52 882.503 1398.64 881.285C1400.76 880.053 1402.47 878.564 1403.76 876.816C1405.05 875.055 1405.69 873.221 1405.69 871.316V870.113H1393.19V866.805H1422.45V870.113H1409.95V871.316C1409.95 873.221 1410.59 875.04 1411.88 876.773C1413.18 878.507 1414.91 879.975 1417.06 881.178C1419.21 882.381 1421.5 883.176 1423.95 883.562L1422.32 886.785C1420.23 886.398 1418.23 885.754 1416.33 884.852C1414.44 883.935 1412.75 882.803 1411.28 881.457C1409.8 880.111 1408.66 878.607 1407.84 876.945C1407.04 878.621 1405.91 880.146 1404.45 881.521C1402.98 882.882 1401.32 884.028 1399.44 884.959C1397.58 885.89 1395.62 886.556 1393.57 886.957L1391.9 883.691ZM1448.02 868.867H1434.44V880.383C1438.08 880.368 1441.02 880.283 1443.27 880.125C1445.53 879.967 1447.79 879.667 1450.04 879.223L1450.42 882.531C1447.97 883.004 1445.51 883.326 1443.03 883.498C1440.55 883.67 1437.32 883.763 1433.32 883.777H1430.4V865.559H1448.02V868.867ZM1435 887.258H1460.39V901.137H1435V887.258ZM1456.39 897.828V890.48H1439.04V897.828H1456.39ZM1445.87 872.348H1456.31V863.152H1460.39V885.41H1456.31V875.699H1445.87V872.348ZM1496.31 878.75H1502.5V882.145H1496.31V901.652H1492.27V863.152H1496.31V878.75ZM1466.11 869.168H1475.6V863.668H1479.68V869.168H1488.92V872.52H1466.11V869.168ZM1468.08 884.293C1468.08 882.574 1468.49 881.035 1469.31 879.674C1470.14 878.313 1471.28 877.253 1472.72 876.494C1474.18 875.735 1475.83 875.355 1477.66 875.355C1479.48 875.355 1481.12 875.735 1482.56 876.494C1484.02 877.253 1485.17 878.313 1486 879.674C1486.83 881.035 1487.25 882.574 1487.25 884.293C1487.25 886.026 1486.83 887.573 1486 888.934C1485.17 890.294 1484.02 891.361 1482.56 892.135C1481.12 892.894 1479.48 893.273 1477.66 893.273C1475.83 893.273 1474.18 892.894 1472.72 892.135C1471.28 891.361 1470.14 890.294 1469.31 888.934C1468.49 887.573 1468.08 886.026 1468.08 884.293ZM1471.99 884.293C1471.99 885.396 1472.23 886.37 1472.7 887.215C1473.19 888.06 1473.86 888.712 1474.72 889.17C1475.59 889.628 1476.58 889.85 1477.66 889.836C1478.74 889.85 1479.71 889.628 1480.56 889.17C1481.42 888.712 1482.1 888.06 1482.58 887.215C1483.09 886.37 1483.34 885.396 1483.34 884.293C1483.34 883.219 1483.09 882.259 1482.58 881.414C1482.1 880.569 1481.42 879.91 1480.56 879.438C1479.71 878.951 1478.74 878.707 1477.66 878.707C1476.58 878.707 1475.59 878.951 1474.72 879.438C1473.86 879.91 1473.19 880.569 1472.7 881.414C1472.23 882.259 1471.99 883.219 1471.99 884.293ZM1539.54 888.418H1523.81V901.652H1519.82V888.418H1504.3V885.023H1539.54V888.418ZM1508.13 873.164C1508.13 871.445 1508.7 869.941 1509.85 868.652C1511.01 867.349 1512.62 866.354 1514.68 865.666C1516.74 864.964 1519.13 864.613 1521.84 864.613C1524.54 864.613 1526.93 864.964 1528.99 865.666C1531.07 866.354 1532.68 867.349 1533.82 868.652C1534.97 869.941 1535.54 871.445 1535.54 873.164C1535.54 874.868 1534.97 876.358 1533.82 877.633C1532.68 878.908 1531.07 879.896 1528.99 880.598C1526.93 881.285 1524.54 881.629 1521.84 881.629C1519.14 881.629 1516.76 881.285 1514.68 880.598C1512.62 879.896 1511.01 878.908 1509.85 877.633C1508.7 876.358 1508.13 874.868 1508.13 873.164ZM1512.34 873.164C1512.34 874.224 1512.73 875.148 1513.5 875.936C1514.29 876.709 1515.4 877.311 1516.83 877.74C1518.28 878.156 1519.95 878.363 1521.84 878.363C1523.74 878.363 1525.41 878.156 1526.84 877.74C1528.27 877.311 1529.38 876.709 1530.17 875.936C1530.97 875.148 1531.38 874.224 1531.38 873.164C1531.38 872.09 1530.97 871.159 1530.17 870.371C1529.38 869.583 1528.27 868.975 1526.84 868.545C1525.41 868.101 1523.74 867.879 1521.84 867.879C1519.95 867.879 1518.28 868.101 1516.83 868.545C1515.4 868.975 1514.29 869.583 1513.5 870.371C1512.73 871.159 1512.34 872.09 1512.34 873.164ZM1561.93 868.609C1561.93 870.643 1562.58 872.62 1563.88 874.539C1565.18 876.458 1566.92 878.098 1569.08 879.459C1571.26 880.805 1573.57 881.701 1576.02 882.145L1574.13 885.539C1572.07 885.095 1570.1 884.365 1568.22 883.348C1566.34 882.331 1564.68 881.092 1563.21 879.631C1561.77 878.156 1560.64 876.53 1559.82 874.754C1558.99 876.516 1557.84 878.134 1556.38 879.609C1554.92 881.07 1553.25 882.309 1551.38 883.326C1549.5 884.343 1547.53 885.081 1545.47 885.539L1543.66 882.145C1546.08 881.686 1548.36 880.784 1550.5 879.438C1552.64 878.077 1554.37 876.444 1555.67 874.539C1556.98 872.62 1557.63 870.643 1557.63 868.609V865.688H1561.93V868.609ZM1542.38 893.188H1577.61V896.582H1542.38V893.188Z" fill="#6B7684"/>
<path d="M1206.67 999.724V1004.21H1214.9V999.724H1219.24V1015.11H1202.38V999.724H1206.67ZM1205.93 1021.04V1017.65H1229.03V1026.89H1210.26V1029.71H1230.14V1033.16H1205.98V1023.74H1224.7V1021.04H1205.93ZM1206.67 1011.67H1214.9V1007.51H1206.67V1011.67ZM1224.67 1016.23V998.177H1229.03V1005.3H1233.96V1008.84H1229.03V1016.23H1224.67ZM1265.94 998.177V1020.37H1261.81V1010.76H1258.35V1019.17H1254.29V998.854H1258.35V1007.21H1261.81V998.177H1265.94ZM1235.55 1005.4V1002H1242.22V998.467H1246.53V1002H1253.13V1005.4H1235.55ZM1236.78 1012.94C1236.77 1009.25 1239.96 1006.82 1244.38 1006.82C1248.87 1006.82 1252.04 1009.25 1252.06 1012.94C1252.04 1016.59 1248.87 1019.02 1244.38 1019.02C1239.96 1019.02 1236.77 1016.59 1236.78 1012.94ZM1240.66 1012.94C1240.66 1014.75 1242.17 1015.9 1244.38 1015.9C1246.6 1015.9 1248.12 1014.75 1248.12 1012.94C1248.12 1011.1 1246.6 1009.97 1244.38 1009.97C1242.17 1009.97 1240.66 1011.1 1240.66 1012.94ZM1241.93 1027.13C1241.9 1023.08 1246.48 1020.79 1254.02 1020.79C1261.56 1020.79 1266.1 1023.08 1266.12 1027.13C1266.1 1031.15 1261.56 1033.44 1254.02 1033.43C1246.48 1033.44 1241.9 1031.15 1241.93 1027.13ZM1246.26 1027.13C1246.24 1029.09 1248.99 1030.14 1254.02 1030.11C1259.03 1030.14 1261.74 1029.09 1261.77 1027.13C1261.74 1025.08 1259.03 1024.06 1254.02 1024.09C1248.99 1024.06 1246.24 1025.08 1246.26 1027.13ZM1299.89 998.204V1024.21H1295.55V1012.44H1286.32V1009.01H1295.55V1005.8H1286.32V1002.38H1295.55V998.204H1299.89ZM1272.35 1019.41V1000.54H1276.64V1015.81C1281.14 1015.77 1285.38 1015.5 1290.11 1014.64L1290.54 1018.18C1285.11 1019.19 1280.34 1019.39 1275.11 1019.41H1272.35ZM1276.67 1032.79V1021.91H1281.05V1029.27H1300.76V1032.79H1276.67ZM1333.55 1014.21V1017.67H1323.1V1025.73H1337.16V1029.3H1304.88V1025.73H1318.79V1017.67H1308.79V1000.79H1333.27V1004.27H1313.14V1014.21H1333.55ZM1207.71 1073.71V1102H1202.64V1073.71H1207.71ZM1228.35 1081.49C1228.1 1079.06 1226.07 1077.65 1223 1077.65C1219.79 1077.65 1217.87 1079.21 1217.87 1081.35C1217.84 1083.71 1220.35 1084.71 1222.69 1085.26L1225.34 1085.92C1229.56 1086.92 1233.64 1089.14 1233.64 1094.06C1233.64 1099.03 1229.7 1102.43 1222.92 1102.43C1216.35 1102.43 1212.17 1099.28 1211.95 1093.67H1216.95C1217.17 1096.63 1219.67 1098.08 1222.88 1098.08C1226.24 1098.08 1228.54 1096.45 1228.56 1094.02C1228.54 1091.82 1226.5 1090.87 1223.46 1090.08L1220.24 1089.25C1215.59 1088.06 1212.7 1085.72 1212.71 1081.65C1212.69 1076.65 1217.13 1073.33 1223.07 1073.33C1229.08 1073.33 1233.16 1076.71 1233.25 1081.49H1228.35ZM1237.91 1102V1073.71H1248.73C1254.85 1073.71 1257.87 1076.83 1257.87 1081.06C1257.87 1084.49 1255.7 1086.42 1252.94 1087.07V1087.35C1255.95 1087.51 1258.98 1090.01 1258.98 1094.29C1258.98 1098.7 1255.81 1102 1249.33 1102H1237.91ZM1242.98 1097.75H1248.53C1252.26 1097.75 1253.82 1096.16 1253.82 1093.91C1253.82 1091.36 1251.83 1089.43 1248.69 1089.43H1242.98V1097.75ZM1242.98 1085.76H1248.09C1250.77 1085.76 1252.8 1084.2 1252.8 1081.7C1252.8 1079.51 1251.23 1077.93 1248.2 1077.93H1242.98V1085.76ZM1286.36 1073.71V1102H1281.85L1268.45 1082.68H1268.21V1102H1263.15V1073.71H1267.72L1281.06 1093.05H1281.31V1073.71H1286.36ZM1233.45 1169.59V1173.1H1201.17V1169.59H1214.99V1161.4H1219.3V1169.59H1233.45ZM1202.1 1158.68C1209.5 1157.49 1214.78 1152.2 1214.81 1146.9V1144.32H1219.42V1146.9C1219.41 1152.22 1224.75 1157.49 1232.2 1158.68L1230.32 1162.3C1224.35 1161.15 1219.46 1157.73 1217.11 1153.12C1214.79 1157.7 1209.93 1161.18 1203.98 1162.3L1202.1 1158.68ZM1248.41 1148.54C1248.41 1152.85 1251.2 1156.91 1256.71 1158.6L1254.65 1162.01C1250.69 1160.77 1247.89 1158.25 1246.32 1155.08C1244.76 1158.78 1241.79 1161.71 1237.55 1163.13L1235.34 1159.69C1241.03 1157.85 1244.02 1153.27 1244.05 1148.57V1148.13H1236.56V1144.62H1255.73V1148.13H1248.41V1148.54ZM1240.16 1170.69C1240.15 1166.46 1244.72 1164 1252.11 1164C1259.43 1164 1263.92 1166.46 1263.92 1170.69C1263.92 1174.94 1259.43 1177.44 1252.11 1177.43C1244.72 1177.44 1240.15 1174.94 1240.16 1170.69ZM1244.5 1170.69C1244.49 1172.87 1247.26 1174.03 1252.11 1174.01C1256.95 1174.03 1259.65 1172.87 1259.65 1170.69C1259.65 1168.54 1256.95 1167.41 1252.11 1167.41C1247.26 1167.41 1244.49 1168.54 1244.5 1170.69ZM1259.24 1163.23V1142.18H1263.6V1150.64H1268.53V1154.21H1263.6V1163.23H1259.24ZM1281.85 1143.72C1287.21 1143.71 1291.09 1146.72 1291.09 1151.13C1291.09 1155.49 1287.21 1158.56 1281.85 1158.53C1276.52 1158.56 1272.65 1155.49 1272.66 1151.13C1272.65 1146.72 1276.52 1143.71 1281.85 1143.72ZM1270.34 1160.96C1276.71 1160.96 1285.63 1160.82 1293.26 1159.69L1293.56 1162.9C1290.51 1163.49 1287.35 1163.86 1284.25 1164.1V1176.39H1279.9V1164.36C1276.64 1164.5 1273.56 1164.51 1270.88 1164.54L1270.34 1160.96ZM1276.86 1151.13C1276.85 1153.52 1278.93 1154.99 1281.85 1154.97C1284.86 1154.99 1286.96 1153.52 1286.96 1151.13C1286.96 1148.71 1284.86 1147.2 1281.85 1147.23C1278.93 1147.2 1276.85 1148.71 1276.86 1151.13ZM1295.54 1177.45V1142.2H1299.85V1177.45H1295.54ZM1334.22 1142.18V1177.45H1329.88V1142.18H1334.22ZM1305.23 1167.44C1310.87 1164.95 1314.11 1159.01 1314.11 1153.38V1151.53H1306.35V1148.06H1314.08V1142.92H1318.41V1148.06H1326.03V1151.53H1318.42V1153.38C1318.42 1158.75 1321.72 1164.5 1327.41 1166.87L1325.05 1170.22C1320.99 1168.5 1317.95 1164.97 1316.34 1160.73C1314.75 1165.23 1311.71 1169 1307.59 1170.8L1305.23 1167.44ZM1213.85 1221.69C1213.85 1225.57 1216.88 1229.38 1222.44 1230.86L1220.39 1234.23C1216.33 1233.14 1213.4 1230.77 1211.77 1227.71C1210.23 1231.17 1207.31 1233.9 1203.11 1235.16L1201.05 1231.76C1206.57 1230.1 1209.53 1225.96 1209.53 1221.69V1221.51H1202.14V1218.06H1209.53V1214.02H1213.91V1218.06H1221.23V1221.51H1213.85V1221.69ZM1206.78 1242.78C1206.77 1238.6 1211.35 1236.23 1218.8 1236.22C1226.26 1236.23 1230.84 1238.6 1230.84 1242.78C1230.84 1246.99 1226.26 1249.44 1218.8 1249.43C1211.35 1249.44 1206.77 1246.99 1206.78 1242.78ZM1211.1 1242.78C1211.08 1244.9 1213.88 1246.08 1218.8 1246.08C1223.78 1246.08 1226.52 1244.9 1226.53 1242.78C1226.52 1240.7 1223.78 1239.58 1218.8 1239.56C1213.88 1239.58 1211.08 1240.7 1211.1 1242.78ZM1220.18 1227.37V1223.86H1226.41V1214.18H1230.75V1235.53H1226.41V1227.37H1220.18ZM1263.98 1216.32V1219.47C1263.98 1222.77 1263.98 1226.39 1263.04 1231.37H1267.91V1234.91H1253.89V1249.51H1249.52V1234.91H1235.74V1231.37H1258.64C1259.61 1226.57 1259.65 1222.98 1259.65 1219.81H1239.56V1216.32H1263.98ZM1299.79 1214.18V1249.45H1295.41V1214.18H1299.79ZM1270.55 1239.74C1279.79 1235.35 1284.07 1229.4 1284.85 1221.36H1272.35V1217.92H1289.26C1289.25 1228.43 1285.18 1237.35 1272.83 1243.22L1270.55 1239.74ZM1335.52 1218.89V1222.4H1306.34V1218.89H1318.78V1214.62H1323.09V1218.89H1335.52ZM1304.88 1245.68V1242.16H1318.78V1237.82C1312.69 1237.35 1309 1234.9 1309.03 1231C1309 1226.73 1313.57 1224.2 1320.92 1224.22C1328.2 1224.2 1332.83 1226.73 1332.83 1231C1332.83 1234.9 1329.11 1237.34 1323.09 1237.82V1242.16H1337.16V1245.68H1304.88ZM1313.48 1231C1313.45 1233.27 1316.14 1234.41 1320.92 1234.43C1325.64 1234.41 1328.37 1233.27 1328.37 1231C1328.37 1228.78 1325.64 1227.62 1320.92 1227.62C1316.14 1227.62 1313.45 1228.78 1313.48 1231Z" fill="#191F28"/>
<path d="M1381.5 1025.88L1391.3 1015.99C1392.49 1014.77 1393.39 1013.78 1394.02 1013.02C1394.64 1012.26 1395.12 1011.51 1395.45 1010.8C1395.78 1010.07 1395.95 1009.3 1395.95 1008.49C1395.95 1007.58 1395.73 1006.78 1395.27 1006.09C1394.81 1005.4 1394.19 1004.87 1393.39 1004.49C1392.6 1004.11 1391.71 1003.92 1390.72 1003.92C1389.68 1003.92 1388.77 1004.13 1387.98 1004.55C1387.22 1004.96 1386.62 1005.55 1386.19 1006.3C1385.77 1007.05 1385.56 1007.92 1385.56 1008.92H1381.5C1381.49 1007.23 1381.88 1005.73 1382.67 1004.43C1383.47 1003.13 1384.57 1002.12 1385.99 1001.4C1387.41 1000.69 1389.01 1000.33 1390.8 1000.33C1392.58 1000.33 1394.17 1000.68 1395.56 1001.38C1396.97 1002.07 1398.06 1003.03 1398.84 1004.25C1399.64 1005.48 1400.04 1006.85 1400.05 1008.38C1400.04 1009.46 1399.83 1010.5 1399.43 1011.5C1399.03 1012.49 1398.34 1013.6 1397.36 1014.82C1396.38 1016.03 1395 1017.52 1393.22 1019.27L1387.48 1025.09V1025.33H1400.52V1029H1381.5V1025.88ZM1415.13 1029.39C1412.96 1029.39 1411.09 1028.82 1409.53 1027.69C1407.98 1026.55 1406.79 1024.89 1405.97 1022.71C1405.15 1020.54 1404.74 1017.92 1404.74 1014.86C1404.74 1011.81 1405.15 1009.2 1405.97 1007.03C1406.81 1004.85 1408 1003.19 1409.55 1002.05C1411.11 1000.9 1412.97 1000.33 1415.13 1000.33C1417.28 1000.33 1419.13 1000.9 1420.68 1002.05C1422.24 1003.19 1423.44 1004.85 1424.27 1007.03C1425.11 1009.2 1425.52 1011.81 1425.52 1014.86C1425.52 1017.92 1425.11 1020.54 1424.27 1022.73C1423.45 1024.9 1422.27 1026.56 1420.72 1027.69C1419.17 1028.82 1417.31 1029.39 1415.13 1029.39ZM1409.04 1014.96C1409.04 1017.26 1409.28 1019.21 1409.76 1020.82C1410.24 1022.42 1410.94 1023.63 1411.85 1024.45C1412.76 1025.27 1413.86 1025.68 1415.13 1025.68C1416.41 1025.68 1417.5 1025.27 1418.41 1024.45C1419.33 1023.62 1420.02 1022.39 1420.5 1020.78C1420.99 1019.16 1421.23 1017.19 1421.23 1014.86C1421.23 1012.54 1420.98 1010.57 1420.48 1008.94C1420 1007.31 1419.31 1006.08 1418.39 1005.25C1417.48 1004.4 1416.4 1003.97 1415.13 1003.96C1413.86 1003.96 1412.76 1004.39 1411.85 1005.25C1410.94 1006.1 1410.24 1007.35 1409.76 1009C1409.28 1010.64 1409.04 1012.63 1409.04 1014.96ZM1429.98 1025.88L1439.78 1015.99C1440.97 1014.77 1441.87 1013.78 1442.5 1013.02C1443.12 1012.26 1443.6 1011.51 1443.92 1010.8C1444.26 1010.07 1444.43 1009.3 1444.43 1008.49C1444.43 1007.58 1444.2 1006.78 1443.75 1006.09C1443.29 1005.4 1442.67 1004.87 1441.87 1004.49C1441.08 1004.11 1440.18 1003.92 1439.2 1003.92C1438.15 1003.92 1437.24 1004.13 1436.46 1004.55C1435.69 1004.96 1435.09 1005.55 1434.66 1006.3C1434.25 1007.05 1434.04 1007.92 1434.04 1008.92H1429.98C1429.96 1007.23 1430.35 1005.73 1431.15 1004.43C1431.94 1003.13 1433.05 1002.12 1434.47 1001.4C1435.89 1000.69 1437.49 1000.33 1439.27 1000.33C1441.06 1000.33 1442.65 1000.68 1444.04 1001.38C1445.45 1002.07 1446.54 1003.03 1447.32 1004.25C1448.11 1005.48 1448.52 1006.85 1448.53 1008.38C1448.52 1009.46 1448.31 1010.5 1447.91 1011.5C1447.5 1012.49 1446.81 1013.6 1445.84 1014.82C1444.86 1016.03 1443.48 1017.52 1441.7 1019.27L1435.95 1025.09V1025.33H1449V1029H1429.98V1025.88ZM1452.52 1020.02L1465.02 1000.72H1470.33V1019.86H1474.2V1023.49H1470.33V1029H1466.27V1023.49H1452.52V1020.02ZM1466.27 1019.86V1005.84H1465.95L1457.05 1019.62V1019.86H1466.27ZM1391.15 1072.33C1393.05 1072.33 1394.8 1072.76 1396.4 1073.62C1398.02 1074.46 1399.33 1075.9 1400.35 1077.91C1401.38 1079.92 1401.89 1082.56 1401.89 1085.84C1401.89 1089.11 1401.44 1091.91 1400.54 1094.24C1399.64 1096.57 1398.36 1098.35 1396.7 1099.57C1395.04 1100.79 1393.09 1101.39 1390.84 1101.39C1389.13 1101.39 1387.59 1101.07 1386.23 1100.41C1384.87 1099.75 1383.77 1098.83 1382.91 1097.64C1382.06 1096.46 1381.53 1095.1 1381.3 1093.58H1385.56C1385.86 1094.8 1386.47 1095.79 1387.38 1096.53C1388.29 1097.26 1389.44 1097.63 1390.84 1097.64C1392.28 1097.64 1393.52 1097.24 1394.55 1096.43C1395.59 1095.61 1396.38 1094.43 1396.93 1092.89C1397.49 1091.36 1397.78 1089.52 1397.79 1087.37H1397.44C1396.67 1088.57 1395.65 1089.5 1394.37 1090.18C1393.11 1090.86 1391.72 1091.2 1390.21 1091.2C1388.53 1091.2 1386.99 1090.8 1385.6 1090C1384.21 1089.2 1383.1 1088.09 1382.28 1086.68C1381.47 1085.26 1381.07 1083.67 1381.07 1081.9C1381.07 1080.11 1381.49 1078.49 1382.32 1077.04C1383.15 1075.58 1384.33 1074.43 1385.86 1073.6C1387.39 1072.75 1389.16 1072.33 1391.15 1072.33ZM1385.25 1081.78C1385.25 1082.86 1385.5 1083.86 1386.01 1084.77C1386.52 1085.67 1387.22 1086.38 1388.1 1086.9C1389 1087.42 1390.02 1087.68 1391.15 1087.68C1392.26 1087.68 1393.27 1087.41 1394.2 1086.88C1395.13 1086.33 1395.87 1085.6 1396.4 1084.69C1396.94 1083.78 1397.2 1082.81 1397.2 1081.78C1397.2 1080.77 1396.94 1079.81 1396.42 1078.91C1395.9 1078 1395.18 1077.28 1394.27 1076.74C1393.36 1076.2 1392.35 1075.92 1391.23 1075.92C1390.12 1075.92 1389.11 1076.19 1388.2 1076.72C1387.29 1077.24 1386.57 1077.95 1386.03 1078.85C1385.51 1079.74 1385.25 1080.71 1385.25 1081.78ZM1419.23 1076.62V1076.39H1404.66V1072.72H1423.69V1076.55L1411.11 1101H1406.62L1419.23 1076.62ZM1437.28 1072.33C1439.18 1072.33 1440.93 1072.76 1442.54 1073.62C1444.15 1074.46 1445.46 1075.9 1446.48 1077.91C1447.51 1079.92 1448.02 1082.56 1448.02 1085.84C1448.02 1089.11 1447.57 1091.91 1446.68 1094.24C1445.78 1096.57 1444.49 1098.35 1442.83 1099.57C1441.17 1100.79 1439.22 1101.39 1436.97 1101.39C1435.26 1101.39 1433.73 1101.07 1432.36 1100.41C1431.01 1099.75 1429.9 1098.83 1429.04 1097.64C1428.19 1096.46 1427.66 1095.1 1427.44 1093.58H1431.7C1431.99 1094.8 1432.6 1095.79 1433.51 1096.53C1434.42 1097.26 1435.58 1097.63 1436.97 1097.64C1438.41 1097.64 1439.65 1097.24 1440.68 1096.43C1441.72 1095.61 1442.52 1094.43 1443.06 1092.89C1443.62 1091.36 1443.91 1089.52 1443.92 1087.37H1443.57C1442.8 1088.57 1441.78 1089.5 1440.5 1090.18C1439.24 1090.86 1437.85 1091.2 1436.34 1091.2C1434.66 1091.2 1433.13 1090.8 1431.73 1090C1430.34 1089.2 1429.23 1088.09 1428.41 1086.68C1427.61 1085.26 1427.2 1083.67 1427.2 1081.9C1427.2 1080.11 1427.62 1078.49 1428.45 1077.04C1429.29 1075.58 1430.46 1074.43 1431.99 1073.6C1433.52 1072.75 1435.29 1072.33 1437.28 1072.33ZM1431.38 1081.78C1431.38 1082.86 1431.64 1083.86 1432.14 1084.77C1432.65 1085.67 1433.35 1086.38 1434.23 1086.9C1435.13 1087.42 1436.15 1087.68 1437.28 1087.68C1438.39 1087.68 1439.4 1087.41 1440.33 1086.88C1441.27 1086.33 1442 1085.6 1442.54 1084.69C1443.07 1083.78 1443.34 1082.81 1443.34 1081.78C1443.34 1080.77 1443.08 1079.81 1442.55 1078.91C1442.03 1078 1441.32 1077.28 1440.41 1076.74C1439.49 1076.2 1438.48 1075.92 1437.36 1075.92C1436.25 1075.92 1435.24 1076.19 1434.33 1076.72C1433.42 1077.24 1432.7 1077.95 1432.16 1078.85C1431.64 1079.74 1431.38 1080.71 1431.38 1081.78ZM1463.3 1101H1458.96V1077.02H1458.8L1452.05 1081.43V1077.33L1459.08 1072.72H1463.3V1101ZM1481.23 1101H1476.89V1077.02H1476.73L1469.98 1081.43V1077.33L1477.01 1072.72H1481.23V1101ZM1498.73 1101.39C1496.81 1101.39 1495.05 1100.97 1493.43 1100.12C1491.82 1099.26 1490.5 1097.82 1489.47 1095.8C1488.45 1093.77 1487.95 1091.1 1487.95 1087.8C1487.95 1084.55 1488.39 1081.77 1489.29 1079.46C1490.19 1077.13 1491.47 1075.36 1493.12 1074.14C1494.79 1072.93 1496.75 1072.33 1499 1072.33C1500.71 1072.33 1502.24 1072.66 1503.59 1073.32C1504.94 1073.98 1506.04 1074.89 1506.89 1076.06C1507.74 1077.23 1508.27 1078.57 1508.49 1080.06H1504.23C1503.93 1078.86 1503.33 1077.91 1502.42 1077.19C1501.52 1076.46 1500.38 1076.09 1499 1076.08C1497.55 1076.08 1496.31 1076.49 1495.27 1077.31C1494.24 1078.12 1493.45 1079.28 1492.91 1080.8C1492.36 1082.33 1492.09 1084.15 1492.09 1086.27H1492.4C1493.17 1085.08 1494.18 1084.14 1495.45 1083.48C1496.72 1082.8 1498.13 1082.46 1499.66 1082.45C1501.33 1082.45 1502.86 1082.85 1504.25 1083.66C1505.65 1084.45 1506.75 1085.56 1507.55 1086.98C1508.36 1088.38 1508.77 1089.97 1508.77 1091.74C1508.77 1093.55 1508.34 1095.19 1507.5 1096.66C1506.66 1098.14 1505.48 1099.29 1503.96 1100.14C1502.44 1100.97 1500.69 1101.39 1498.73 1101.39ZM1492.59 1091.86C1492.59 1092.9 1492.85 1093.88 1493.38 1094.79C1493.91 1095.7 1494.63 1096.43 1495.54 1096.98C1496.45 1097.52 1497.48 1097.8 1498.61 1097.8C1499.73 1097.8 1500.74 1097.53 1501.66 1097C1502.57 1096.45 1503.28 1095.73 1503.8 1094.83C1504.33 1093.92 1504.59 1092.91 1504.59 1091.82C1504.59 1090.75 1504.33 1089.77 1503.82 1088.87C1503.32 1087.97 1502.61 1087.26 1501.71 1086.74C1500.83 1086.22 1499.83 1085.96 1498.73 1085.96C1497.61 1085.96 1496.58 1086.23 1495.64 1086.78C1494.7 1087.32 1493.96 1088.04 1493.41 1088.95C1492.88 1089.85 1492.61 1090.82 1492.59 1091.86ZM1513.34 1097.88L1523.14 1087.99C1524.33 1086.77 1525.23 1085.78 1525.86 1085.02C1526.48 1084.26 1526.96 1083.51 1527.28 1082.8C1527.62 1082.07 1527.79 1081.3 1527.79 1080.49C1527.79 1079.58 1527.56 1078.78 1527.11 1078.09C1526.65 1077.4 1526.02 1076.87 1525.23 1076.49C1524.44 1076.11 1523.54 1075.92 1522.55 1075.92C1521.51 1075.92 1520.6 1076.13 1519.82 1076.55C1519.05 1076.96 1518.45 1077.55 1518.02 1078.3C1517.61 1079.05 1517.4 1079.92 1517.4 1080.92H1513.34C1513.32 1079.23 1513.71 1077.73 1514.51 1076.43C1515.3 1075.13 1516.41 1074.12 1517.83 1073.4C1519.25 1072.69 1520.85 1072.33 1522.63 1072.33C1524.42 1072.33 1526.01 1072.68 1527.4 1073.38C1528.8 1074.07 1529.9 1075.03 1530.68 1076.25C1531.47 1077.48 1531.88 1078.85 1531.89 1080.38C1531.88 1081.46 1531.67 1082.5 1531.27 1083.5C1530.86 1084.49 1530.17 1085.6 1529.2 1086.82C1528.22 1088.03 1526.84 1089.52 1525.05 1091.27L1519.31 1097.09V1097.33H1532.36V1101H1513.34V1097.88ZM1546.73 1101.39C1544.98 1101.39 1543.38 1101.06 1541.95 1100.39C1540.52 1099.73 1539.38 1098.81 1538.53 1097.62C1537.68 1096.44 1537.23 1095.1 1537.16 1093.62H1541.34C1541.42 1094.41 1541.71 1095.13 1542.2 1095.77C1542.7 1096.39 1543.34 1096.89 1544.14 1097.25C1544.93 1097.61 1545.8 1097.8 1546.73 1097.8C1547.87 1097.8 1548.88 1097.54 1549.76 1097.04C1550.66 1096.53 1551.36 1095.83 1551.87 1094.95C1552.38 1094.05 1552.63 1093.04 1552.63 1091.94C1552.63 1090.8 1552.37 1089.79 1551.85 1088.89C1551.33 1087.98 1550.61 1087.27 1549.68 1086.76C1548.76 1086.24 1547.71 1085.97 1546.54 1085.96C1544.14 1085.96 1542.49 1086.79 1541.58 1088.46H1537.52L1539.35 1072.72H1555.37V1076.39H1542.91L1541.97 1084.32H1542.24C1542.84 1083.75 1543.61 1083.29 1544.55 1082.95C1545.5 1082.6 1546.5 1082.42 1547.55 1082.41C1549.31 1082.41 1550.89 1082.82 1552.3 1083.64C1553.71 1084.44 1554.81 1085.56 1555.6 1087C1556.41 1088.42 1556.81 1090.02 1556.81 1091.82C1556.81 1093.66 1556.38 1095.3 1555.52 1096.76C1554.66 1098.21 1553.47 1099.34 1551.93 1100.16C1550.41 1100.98 1548.67 1101.39 1546.73 1101.39ZM1560.76 1092.02L1573.26 1072.72H1578.57V1091.86H1582.44V1095.49H1578.57V1101H1574.51V1095.49H1560.76V1092.02ZM1574.51 1091.86V1077.84H1574.2L1565.29 1091.62V1091.86H1574.51ZM1596.81 1101.39C1594.89 1101.39 1593.15 1101.07 1591.62 1100.41C1590.09 1099.76 1588.89 1098.85 1588 1097.68C1587.13 1096.49 1586.67 1095.14 1586.62 1093.62H1590.99C1591.04 1094.42 1591.32 1095.14 1591.83 1095.77C1592.35 1096.38 1593.04 1096.85 1593.9 1097.19C1594.76 1097.52 1595.72 1097.68 1596.77 1097.68C1597.91 1097.68 1598.92 1097.49 1599.8 1097.11C1600.7 1096.72 1601.4 1096.18 1601.91 1095.47C1602.42 1094.77 1602.67 1093.97 1602.67 1093.07C1602.67 1092.13 1602.42 1091.31 1601.91 1090.59C1601.42 1089.86 1600.69 1089.29 1599.72 1088.89C1598.76 1088.47 1597.62 1088.27 1596.3 1088.27H1593.88V1084.75H1596.3C1597.37 1084.75 1598.32 1084.57 1599.14 1084.2C1599.97 1083.83 1600.61 1083.3 1601.07 1082.62C1601.54 1081.94 1601.77 1081.16 1601.77 1080.26C1601.77 1079.4 1601.57 1078.64 1601.17 1077.99C1600.76 1077.34 1600.19 1076.83 1599.45 1076.47C1598.71 1076.1 1597.84 1075.92 1596.85 1075.92C1595.9 1075.92 1595.01 1076.09 1594.18 1076.43C1593.36 1076.77 1592.69 1077.26 1592.18 1077.89C1591.68 1078.52 1591.41 1079.24 1591.38 1080.06H1587.24C1587.28 1078.57 1587.73 1077.23 1588.59 1076.06C1589.46 1074.87 1590.63 1073.96 1592.09 1073.3C1593.54 1072.65 1595.15 1072.33 1596.89 1072.33C1598.7 1072.33 1600.29 1072.67 1601.66 1073.36C1603.02 1074.05 1604.08 1074.99 1604.82 1076.18C1605.56 1077.35 1605.93 1078.63 1605.91 1080.02C1605.93 1081.61 1605.48 1082.96 1604.59 1084.07C1603.69 1085.17 1602.46 1085.92 1600.91 1086.31V1086.51C1602.19 1086.69 1603.28 1087.09 1604.2 1087.7C1605.12 1088.3 1605.82 1089.07 1606.29 1090.02C1606.77 1090.97 1607.01 1092.04 1607.01 1093.23C1607.01 1094.78 1606.57 1096.18 1605.68 1097.43C1604.81 1098.66 1603.59 1099.63 1602.03 1100.34C1600.48 1101.04 1598.74 1101.39 1596.81 1101.39ZM1625.33 1076.62V1076.39H1610.76V1072.72H1629.78V1076.55L1617.2 1101H1612.71L1625.33 1076.62ZM1634.12 1097.88L1643.92 1087.99C1645.11 1086.77 1646.01 1085.78 1646.64 1085.02C1647.26 1084.26 1647.74 1083.51 1648.06 1082.8C1648.4 1082.07 1648.57 1081.3 1648.57 1080.49C1648.57 1079.58 1648.34 1078.78 1647.89 1078.09C1647.43 1077.4 1646.81 1076.87 1646.01 1076.49C1645.22 1076.11 1644.33 1075.92 1643.34 1075.92C1642.29 1075.92 1641.38 1076.13 1640.6 1076.55C1639.83 1076.96 1639.23 1077.55 1638.8 1078.3C1638.39 1079.05 1638.18 1079.92 1638.18 1080.92H1634.12C1634.1 1079.23 1634.49 1077.73 1635.29 1076.43C1636.08 1075.13 1637.19 1074.12 1638.61 1073.4C1640.03 1072.69 1641.63 1072.33 1643.41 1072.33C1645.2 1072.33 1646.79 1072.68 1648.18 1073.38C1649.59 1074.07 1650.68 1075.03 1651.46 1076.25C1652.26 1077.48 1652.66 1078.85 1652.67 1080.38C1652.66 1081.46 1652.45 1082.5 1652.05 1083.5C1651.64 1084.49 1650.95 1085.6 1649.98 1086.82C1649 1088.03 1647.62 1089.52 1645.84 1091.27L1640.09 1097.09V1097.33H1653.14V1101H1634.12V1097.88ZM1668.22 1101.39C1666.3 1101.39 1664.54 1100.97 1662.93 1100.12C1661.31 1099.26 1659.99 1097.82 1658.96 1095.8C1657.95 1093.77 1657.44 1091.1 1657.44 1087.8C1657.44 1084.55 1657.89 1081.77 1658.79 1079.46C1659.68 1077.13 1660.96 1075.36 1662.61 1074.14C1664.28 1072.93 1666.24 1072.33 1668.49 1072.33C1670.2 1072.33 1671.73 1072.66 1673.08 1073.32C1674.44 1073.98 1675.54 1074.89 1676.38 1076.06C1677.23 1077.23 1677.76 1078.57 1677.98 1080.06H1673.73C1673.43 1078.86 1672.82 1077.91 1671.91 1077.19C1671.01 1076.46 1669.87 1076.09 1668.49 1076.08C1667.05 1076.08 1665.8 1076.49 1664.76 1077.31C1663.73 1078.12 1662.95 1079.28 1662.4 1080.8C1661.85 1082.33 1661.58 1084.15 1661.58 1086.27H1661.89C1662.66 1085.08 1663.67 1084.14 1664.94 1083.48C1666.21 1082.8 1667.62 1082.46 1669.16 1082.45C1670.82 1082.45 1672.35 1082.85 1673.75 1083.66C1675.14 1084.45 1676.24 1085.56 1677.05 1086.98C1677.85 1088.38 1678.26 1089.97 1678.26 1091.74C1678.26 1093.55 1677.83 1095.19 1676.99 1096.66C1676.15 1098.14 1674.98 1099.29 1673.45 1100.14C1671.93 1100.97 1670.18 1101.39 1668.22 1101.39ZM1662.09 1091.86C1662.09 1092.9 1662.35 1093.88 1662.87 1094.79C1663.4 1095.7 1664.12 1096.43 1665.04 1096.98C1665.95 1097.52 1666.97 1097.8 1668.1 1097.8C1669.22 1097.8 1670.24 1097.53 1671.15 1097C1672.06 1096.45 1672.78 1095.73 1673.3 1094.83C1673.82 1093.92 1674.08 1092.91 1674.08 1091.82C1674.08 1090.75 1673.82 1089.77 1673.32 1088.87C1672.81 1087.97 1672.11 1087.26 1671.21 1086.74C1670.32 1086.22 1669.33 1085.96 1668.22 1085.96C1667.1 1085.96 1666.07 1086.23 1665.13 1086.78C1664.2 1087.32 1663.45 1088.04 1662.91 1088.95C1662.37 1089.85 1662.1 1090.82 1662.09 1091.86ZM1390.21 1142.49C1391.96 1142.51 1393.52 1142.85 1394.92 1143.53C1396.31 1144.19 1397.4 1145.12 1398.2 1146.3C1398.99 1147.49 1399.39 1148.83 1399.39 1150.34C1399.39 1151.85 1398.99 1153.2 1398.2 1154.39C1397.4 1155.57 1396.31 1156.5 1394.92 1157.16C1393.52 1157.82 1391.96 1158.16 1390.21 1158.16C1388.45 1158.16 1386.87 1157.82 1385.46 1157.16C1384.07 1156.5 1382.98 1155.57 1382.18 1154.39C1381.39 1153.2 1380.99 1151.85 1380.99 1150.34C1380.99 1148.83 1381.39 1147.49 1382.18 1146.3C1382.98 1145.12 1384.07 1144.19 1385.46 1143.53C1386.87 1142.85 1388.45 1142.51 1390.21 1142.49ZM1384.62 1150.34C1384.62 1151.29 1384.86 1152.13 1385.33 1152.86C1385.81 1153.58 1386.47 1154.14 1387.32 1154.54C1388.18 1154.95 1389.14 1155.15 1390.21 1155.15C1391.28 1155.15 1392.24 1154.95 1393.08 1154.54C1393.93 1154.14 1394.59 1153.58 1395.07 1152.86C1395.56 1152.13 1395.8 1151.29 1395.8 1150.34C1395.8 1149.41 1395.56 1148.58 1395.07 1147.86C1394.59 1147.13 1393.92 1146.57 1393.06 1146.18C1392.22 1145.79 1391.27 1145.6 1390.21 1145.62C1389.14 1145.6 1388.18 1145.79 1387.32 1146.18C1386.47 1146.57 1385.81 1147.13 1385.33 1147.86C1384.86 1148.58 1384.62 1149.41 1384.62 1150.34ZM1386.3 1160.73H1409.31V1169.56H1390.02V1172.92H1410.48V1175.89H1386.42V1166.79H1405.64V1163.7H1386.3V1160.73ZM1405.6 1141.32H1409.31V1159.13H1405.6V1141.32ZM1442.36 1151.67H1447.44V1154.8H1442.36V1167.06H1438.65V1141.36H1442.36V1151.67ZM1416.23 1143.86H1419.86V1149.45H1429.04V1143.86H1432.71V1161.28H1416.23V1143.86ZM1429.04 1158.31V1152.38H1419.86V1158.31H1429.04ZM1420.17 1164.52H1423.88V1172.57H1443.84V1175.58H1420.17V1164.52ZM1461.62 1151.63C1461.62 1153.47 1461.99 1155.33 1462.75 1157.22C1463.51 1159.09 1464.56 1160.8 1465.91 1162.34C1467.28 1163.86 1468.83 1165.03 1470.56 1165.85L1468.45 1168.74C1466.53 1167.82 1464.81 1166.44 1463.3 1164.6C1461.79 1162.75 1460.63 1160.67 1459.82 1158.35C1459.01 1160.86 1457.82 1163.13 1456.25 1165.15C1454.68 1167.15 1452.92 1168.65 1450.95 1169.64L1448.77 1166.71C1450.5 1165.88 1452.06 1164.65 1453.45 1163.04C1454.86 1161.41 1455.96 1159.6 1456.75 1157.59C1457.55 1155.57 1457.95 1153.59 1457.95 1151.63V1147.92H1450.05V1144.84H1469.23V1147.92H1461.62V1151.63ZM1472.98 1141.32H1476.7V1155.19H1482.32V1158.31H1476.7V1176.32H1472.98V1141.32ZM1516.03 1172.14H1484V1169.02H1492.75V1162.84H1487.91V1151.71H1508.45V1146.83H1487.83V1143.78H1512.12V1154.72H1491.58V1159.8H1512.95V1162.84H1507.63V1169.02H1516.03V1172.14ZM1504 1169.02V1162.84H1496.34V1169.02H1504ZM1547.55 1159.33H1543.88V1141.32H1547.55V1159.33ZM1518.69 1156.2C1520.47 1155.6 1522.03 1154.73 1523.36 1153.59C1524.7 1152.44 1525.72 1151.12 1526.42 1149.62C1527.14 1148.12 1527.5 1146.57 1527.52 1144.95V1142.26H1531.3V1144.95C1531.3 1146.5 1531.66 1147.99 1532.36 1149.41C1533.06 1150.83 1534.07 1152.08 1535.39 1153.16C1536.7 1154.22 1538.24 1155.03 1540.02 1155.58L1538.18 1158.47C1536.15 1157.8 1534.38 1156.82 1532.89 1155.5C1531.39 1154.18 1530.24 1152.63 1529.45 1150.83C1528.64 1152.77 1527.47 1154.46 1525.93 1155.91C1524.41 1157.36 1522.62 1158.43 1520.56 1159.13L1518.69 1156.2ZM1524.59 1161.01H1547.59V1169.76H1528.3V1173H1548.77V1175.97H1524.7V1166.95H1543.92V1163.94H1524.59V1161.01ZM1391.38 1245.39C1389.36 1245.39 1387.56 1245.05 1385.97 1244.38C1384.4 1243.7 1383.17 1242.76 1382.28 1241.56C1381.41 1240.35 1380.98 1238.98 1380.99 1237.46C1380.98 1236.28 1381.23 1235.18 1381.73 1234.16C1382.26 1233.13 1382.96 1232.29 1383.86 1231.62C1384.77 1230.94 1385.78 1230.52 1386.89 1230.35V1230.2C1385.93 1229.97 1385.08 1229.56 1384.35 1228.96C1383.62 1228.35 1383.06 1227.6 1382.65 1226.72C1382.25 1225.83 1382.05 1224.88 1382.05 1223.87C1382.05 1222.43 1382.44 1221.15 1383.24 1220C1384.05 1218.85 1385.16 1217.96 1386.58 1217.3C1388 1216.65 1389.6 1216.33 1391.38 1216.33C1393.14 1216.33 1394.72 1216.65 1396.13 1217.3C1397.55 1217.96 1398.66 1218.85 1399.47 1220C1400.28 1221.15 1400.68 1222.43 1400.68 1223.87C1400.68 1224.88 1400.47 1225.83 1400.05 1226.72C1399.65 1227.6 1399.08 1228.35 1398.34 1228.96C1397.61 1229.56 1396.77 1229.97 1395.84 1230.2V1230.35C1396.93 1230.52 1397.93 1230.94 1398.82 1231.62C1399.74 1232.29 1400.45 1233.13 1400.97 1234.16C1401.51 1235.18 1401.77 1236.28 1401.77 1237.46C1401.77 1238.98 1401.32 1240.35 1400.43 1241.56C1399.54 1242.76 1398.31 1243.7 1396.73 1244.38C1395.16 1245.05 1393.38 1245.39 1391.38 1245.39ZM1385.37 1237.15C1385.35 1238.07 1385.59 1238.89 1386.07 1239.59C1386.55 1240.29 1387.25 1240.85 1388.16 1241.25C1389.08 1241.64 1390.16 1241.84 1391.38 1241.84C1392.59 1241.84 1393.65 1241.64 1394.55 1241.25C1395.46 1240.86 1396.16 1240.31 1396.66 1239.61C1397.15 1238.89 1397.4 1238.07 1397.4 1237.15C1397.4 1236.18 1397.14 1235.33 1396.62 1234.57C1396.1 1233.8 1395.38 1233.2 1394.47 1232.77C1393.56 1232.33 1392.53 1232.11 1391.38 1232.11C1390.22 1232.11 1389.18 1232.33 1388.26 1232.77C1387.33 1233.2 1386.62 1233.8 1386.11 1234.57C1385.6 1235.34 1385.35 1236.2 1385.37 1237.15ZM1386.23 1224.26C1386.23 1225.13 1386.45 1225.9 1386.89 1226.58C1387.33 1227.26 1387.94 1227.79 1388.71 1228.16C1389.49 1228.53 1390.38 1228.71 1391.38 1228.71C1392.36 1228.71 1393.23 1228.53 1394 1228.16C1394.78 1227.79 1395.39 1227.26 1395.82 1226.58C1396.25 1225.9 1396.46 1225.13 1396.46 1224.26C1396.46 1223.39 1396.25 1222.62 1395.82 1221.95C1395.4 1221.28 1394.81 1220.76 1394.04 1220.39C1393.27 1220.03 1392.39 1219.84 1391.38 1219.84C1390.37 1219.84 1389.47 1220.03 1388.69 1220.39C1387.91 1220.76 1387.3 1221.28 1386.87 1221.95C1386.44 1222.62 1386.23 1223.39 1386.23 1224.26ZM1416.97 1245H1412.63V1221.02H1412.48L1405.72 1225.43V1221.33L1412.75 1216.72H1416.97V1245ZM1434.2 1245.39C1432.27 1245.39 1430.54 1245.07 1429 1244.41C1427.48 1243.76 1426.27 1242.85 1425.39 1241.68C1424.51 1240.49 1424.05 1239.14 1424 1237.62H1428.38C1428.43 1238.42 1428.71 1239.14 1429.21 1239.77C1429.74 1240.38 1430.43 1240.85 1431.29 1241.19C1432.14 1241.52 1433.1 1241.68 1434.16 1241.68C1435.29 1241.68 1436.3 1241.49 1437.18 1241.11C1438.08 1240.72 1438.79 1240.18 1439.29 1239.47C1439.8 1238.77 1440.05 1237.97 1440.05 1237.07C1440.05 1236.13 1439.8 1235.31 1439.29 1234.59C1438.8 1233.86 1438.07 1233.29 1437.11 1232.89C1436.14 1232.47 1435 1232.27 1433.69 1232.27H1431.27V1228.75H1433.69C1434.76 1228.75 1435.7 1228.57 1436.52 1228.2C1437.35 1227.83 1438 1227.3 1438.45 1226.62C1438.92 1225.94 1439.16 1225.16 1439.16 1224.26C1439.16 1223.4 1438.95 1222.64 1438.55 1221.99C1438.15 1221.34 1437.57 1220.83 1436.83 1220.47C1436.09 1220.1 1435.22 1219.92 1434.23 1219.92C1433.28 1219.92 1432.39 1220.09 1431.56 1220.43C1430.74 1220.77 1430.07 1221.26 1429.57 1221.89C1429.06 1222.52 1428.79 1223.24 1428.77 1224.06H1424.62C1424.66 1222.57 1425.11 1221.23 1425.97 1220.06C1426.85 1218.87 1428.01 1217.96 1429.47 1217.3C1430.93 1216.65 1432.53 1216.33 1434.27 1216.33C1436.08 1216.33 1437.67 1216.67 1439.04 1217.36C1440.41 1218.05 1441.46 1218.99 1442.2 1220.18C1442.95 1221.35 1443.31 1222.63 1443.3 1224.02C1443.31 1225.61 1442.87 1226.96 1441.97 1228.07C1441.07 1229.17 1439.85 1229.92 1438.3 1230.31V1230.51C1439.57 1230.69 1440.67 1231.09 1441.58 1231.7C1442.5 1232.3 1443.2 1233.07 1443.67 1234.02C1444.15 1234.97 1444.39 1236.04 1444.39 1237.23C1444.39 1238.78 1443.95 1240.18 1443.06 1241.43C1442.19 1242.66 1440.97 1243.63 1439.41 1244.34C1437.86 1245.04 1436.12 1245.39 1434.2 1245.39ZM1451.03 1245.27C1450.54 1245.27 1450.07 1245.15 1449.64 1244.9C1449.23 1244.65 1448.89 1244.32 1448.63 1243.91C1448.38 1243.49 1448.26 1243.03 1448.26 1242.54C1448.26 1242.03 1448.38 1241.56 1448.63 1241.13C1448.88 1240.7 1449.21 1240.36 1449.62 1240.12C1450.05 1239.86 1450.52 1239.73 1451.03 1239.73C1451.53 1239.73 1451.98 1239.85 1452.4 1240.1C1452.83 1240.35 1453.17 1240.68 1453.41 1241.11C1453.67 1241.54 1453.8 1242.01 1453.8 1242.5C1453.8 1242.99 1453.67 1243.46 1453.41 1243.89C1453.17 1244.3 1452.83 1244.64 1452.4 1244.9C1451.98 1245.15 1451.53 1245.27 1451.03 1245.27ZM1467.71 1245.39C1465.69 1245.39 1463.89 1245.05 1462.3 1244.38C1460.73 1243.7 1459.49 1242.76 1458.61 1241.56C1457.74 1240.35 1457.31 1238.98 1457.32 1237.46C1457.31 1236.28 1457.55 1235.18 1458.06 1234.16C1458.58 1233.13 1459.29 1232.29 1460.19 1231.62C1461.1 1230.94 1462.11 1230.52 1463.22 1230.35V1230.2C1462.26 1229.97 1461.41 1229.56 1460.68 1228.96C1459.95 1228.35 1459.38 1227.6 1458.98 1226.72C1458.58 1225.83 1458.38 1224.88 1458.38 1223.87C1458.38 1222.43 1458.77 1221.15 1459.57 1220C1460.37 1218.85 1461.49 1217.96 1462.91 1217.3C1464.33 1216.65 1465.93 1216.33 1467.71 1216.33C1469.47 1216.33 1471.05 1216.65 1472.46 1217.3C1473.88 1217.96 1474.99 1218.85 1475.8 1220C1476.6 1221.15 1477.01 1222.43 1477.01 1223.87C1477.01 1224.88 1476.8 1225.83 1476.38 1226.72C1475.98 1227.6 1475.41 1228.35 1474.66 1228.96C1473.93 1229.56 1473.1 1229.97 1472.16 1230.2V1230.35C1473.26 1230.52 1474.25 1230.94 1475.15 1231.62C1476.06 1232.29 1476.78 1233.13 1477.3 1234.16C1477.83 1235.18 1478.1 1236.28 1478.1 1237.46C1478.1 1238.98 1477.65 1240.35 1476.75 1241.56C1475.87 1242.76 1474.64 1243.7 1473.06 1244.38C1471.49 1245.05 1469.7 1245.39 1467.71 1245.39ZM1461.7 1237.15C1461.68 1238.07 1461.92 1238.89 1462.4 1239.59C1462.88 1240.29 1463.58 1240.85 1464.49 1241.25C1465.41 1241.64 1466.49 1241.84 1467.71 1241.84C1468.92 1241.84 1469.98 1241.64 1470.88 1241.25C1471.79 1240.86 1472.49 1240.31 1472.98 1239.61C1473.48 1238.89 1473.73 1238.07 1473.73 1237.15C1473.73 1236.18 1473.47 1235.33 1472.95 1234.57C1472.42 1233.8 1471.71 1233.2 1470.8 1232.77C1469.89 1232.33 1468.86 1232.11 1467.71 1232.11C1466.55 1232.11 1465.51 1232.33 1464.59 1232.77C1463.66 1233.2 1462.95 1233.8 1462.44 1234.57C1461.93 1235.34 1461.68 1236.2 1461.7 1237.15ZM1462.55 1224.26C1462.55 1225.13 1462.78 1225.9 1463.22 1226.58C1463.66 1227.26 1464.27 1227.79 1465.04 1228.16C1465.82 1228.53 1466.71 1228.71 1467.71 1228.71C1468.69 1228.71 1469.56 1228.53 1470.33 1228.16C1471.11 1227.79 1471.71 1227.26 1472.14 1226.58C1472.57 1225.9 1472.79 1225.13 1472.79 1224.26C1472.79 1223.39 1472.57 1222.62 1472.14 1221.95C1471.73 1221.28 1471.14 1220.76 1470.37 1220.39C1469.6 1220.03 1468.71 1219.84 1467.71 1219.84C1466.7 1219.84 1465.8 1220.03 1465.02 1220.39C1464.23 1220.76 1463.63 1221.28 1463.2 1221.95C1462.77 1222.62 1462.55 1223.39 1462.55 1224.26ZM1510.33 1248.4H1506.62V1213.32H1510.33V1248.4ZM1482.55 1228.2C1482.55 1225.76 1482.94 1223.61 1483.71 1221.76C1484.48 1219.9 1485.54 1218.46 1486.91 1217.46C1488.29 1216.45 1489.86 1215.94 1491.62 1215.94C1493.35 1215.94 1494.9 1216.45 1496.27 1217.46C1497.63 1218.46 1498.7 1219.9 1499.47 1221.76C1500.25 1223.61 1500.64 1225.76 1500.64 1228.2C1500.64 1230.68 1500.25 1232.85 1499.47 1234.71C1498.7 1236.57 1497.63 1238 1496.27 1239C1494.9 1240.01 1493.35 1240.51 1491.62 1240.51C1489.86 1240.51 1488.29 1240.01 1486.91 1239C1485.54 1238 1484.48 1236.57 1483.71 1234.71C1482.94 1232.85 1482.55 1230.68 1482.55 1228.2ZM1486.15 1228.2C1486.15 1230.03 1486.38 1231.61 1486.83 1232.97C1487.29 1234.32 1487.93 1235.36 1488.75 1236.09C1489.58 1236.82 1490.54 1237.19 1491.62 1237.19C1492.68 1237.19 1493.63 1236.82 1494.45 1236.09C1495.27 1235.36 1495.91 1234.32 1496.36 1232.97C1496.82 1231.61 1497.05 1230.03 1497.05 1228.2C1497.05 1226.41 1496.82 1224.84 1496.36 1223.5C1495.91 1222.14 1495.27 1221.1 1494.45 1220.37C1493.63 1219.63 1492.68 1219.26 1491.62 1219.26C1490.54 1219.26 1489.58 1219.63 1488.75 1220.37C1487.93 1221.1 1487.29 1222.14 1486.83 1223.5C1486.38 1224.84 1486.15 1226.41 1486.15 1228.2ZM1526.73 1245.39C1524.98 1245.39 1523.38 1245.06 1521.95 1244.39C1520.52 1243.73 1519.38 1242.81 1518.53 1241.62C1517.68 1240.44 1517.23 1239.1 1517.16 1237.62H1521.34C1521.42 1238.41 1521.71 1239.13 1522.2 1239.77C1522.7 1240.39 1523.34 1240.89 1524.14 1241.25C1524.93 1241.61 1525.8 1241.8 1526.73 1241.8C1527.87 1241.8 1528.88 1241.54 1529.76 1241.04C1530.66 1240.53 1531.36 1239.83 1531.87 1238.95C1532.38 1238.05 1532.63 1237.04 1532.63 1235.94C1532.63 1234.8 1532.37 1233.79 1531.85 1232.89C1531.33 1231.98 1530.61 1231.27 1529.68 1230.76C1528.76 1230.24 1527.71 1229.97 1526.54 1229.96C1524.14 1229.96 1522.49 1230.79 1521.58 1232.46H1517.52L1519.35 1216.72H1535.37V1220.39H1522.91L1521.97 1228.32H1522.24C1522.84 1227.75 1523.61 1227.29 1524.55 1226.95C1525.5 1226.6 1526.5 1226.42 1527.55 1226.41C1529.31 1226.41 1530.89 1226.82 1532.3 1227.64C1533.71 1228.44 1534.81 1229.56 1535.6 1231C1536.41 1232.42 1536.81 1234.02 1536.81 1235.82C1536.81 1237.66 1536.38 1239.3 1535.52 1240.76C1534.66 1242.21 1533.47 1243.34 1531.93 1244.16C1530.41 1244.98 1528.67 1245.39 1526.73 1245.39ZM1551.7 1245.39C1549.78 1245.39 1548.02 1244.97 1546.4 1244.12C1544.79 1243.26 1543.47 1241.82 1542.44 1239.8C1541.42 1237.77 1540.91 1235.1 1540.91 1231.8C1540.91 1228.55 1541.36 1225.77 1542.26 1223.46C1543.16 1221.13 1544.44 1219.36 1546.09 1218.14C1547.76 1216.93 1549.72 1216.33 1551.97 1216.33C1553.67 1216.33 1555.2 1216.66 1556.56 1217.32C1557.91 1217.98 1559.01 1218.89 1559.86 1220.06C1560.71 1221.23 1561.24 1222.57 1561.46 1224.06H1557.2C1556.9 1222.86 1556.3 1221.91 1555.39 1221.19C1554.49 1220.46 1553.35 1220.09 1551.97 1220.08C1550.52 1220.08 1549.28 1220.49 1548.24 1221.31C1547.21 1222.12 1546.42 1223.28 1545.88 1224.8C1545.33 1226.33 1545.05 1228.15 1545.05 1230.27H1545.37C1546.14 1229.08 1547.15 1228.14 1548.41 1227.48C1549.69 1226.8 1551.1 1226.46 1552.63 1226.45C1554.3 1226.45 1555.83 1226.85 1557.22 1227.66C1558.62 1228.45 1559.72 1229.56 1560.52 1230.98C1561.33 1232.38 1561.73 1233.97 1561.73 1235.74C1561.73 1237.55 1561.31 1239.19 1560.46 1240.66C1559.63 1242.14 1558.45 1243.29 1556.93 1244.14C1555.41 1244.97 1553.66 1245.39 1551.7 1245.39ZM1545.56 1235.86C1545.56 1236.9 1545.82 1237.88 1546.34 1238.79C1546.88 1239.7 1547.6 1240.43 1548.51 1240.98C1549.42 1241.52 1550.45 1241.8 1551.58 1241.8C1552.7 1241.8 1553.71 1241.53 1554.62 1241C1555.54 1240.45 1556.25 1239.73 1556.77 1238.83C1557.29 1237.92 1557.55 1236.91 1557.55 1235.82C1557.55 1234.75 1557.3 1233.77 1556.79 1232.87C1556.29 1231.97 1555.58 1231.26 1554.68 1230.74C1553.8 1230.22 1552.8 1229.96 1551.7 1229.96C1550.58 1229.96 1549.55 1230.23 1548.61 1230.78C1547.67 1231.32 1546.93 1232.04 1546.38 1232.95C1545.85 1233.85 1545.58 1234.82 1545.56 1235.86ZM1576.15 1245.39C1573.97 1245.39 1572.11 1244.82 1570.54 1243.69C1568.99 1242.55 1567.81 1240.89 1566.99 1238.71C1566.17 1236.54 1565.76 1233.92 1565.76 1230.86C1565.76 1227.81 1566.17 1225.2 1566.99 1223.03C1567.82 1220.85 1569.01 1219.19 1570.56 1218.05C1572.12 1216.9 1573.99 1216.33 1576.15 1216.33C1578.3 1216.33 1580.15 1216.9 1581.7 1218.05C1583.26 1219.19 1584.46 1220.85 1585.29 1223.03C1586.12 1225.2 1586.54 1227.81 1586.54 1230.86C1586.54 1233.92 1586.12 1236.54 1585.29 1238.73C1584.47 1240.9 1583.28 1242.56 1581.73 1243.69C1580.18 1244.82 1578.32 1245.39 1576.15 1245.39ZM1570.05 1230.96C1570.05 1233.26 1570.3 1235.21 1570.78 1236.82C1571.26 1238.42 1571.96 1239.63 1572.87 1240.45C1573.78 1241.27 1574.87 1241.68 1576.15 1241.68C1577.42 1241.68 1578.52 1241.27 1579.43 1240.45C1580.34 1239.62 1581.04 1238.39 1581.52 1236.78C1582 1235.16 1582.24 1233.19 1582.24 1230.86C1582.24 1228.54 1581.99 1226.57 1581.5 1224.94C1581.02 1223.31 1580.32 1222.08 1579.41 1221.25C1578.5 1220.4 1577.41 1219.97 1576.15 1219.96C1574.87 1219.96 1573.78 1220.39 1572.87 1221.25C1571.96 1222.1 1571.26 1223.35 1570.78 1225C1570.3 1226.64 1570.05 1228.63 1570.05 1230.96Z" fill="#6B7684"/>
<circle cx="700" cy="1145" r="400" fill="#EEEEEE"/>
<path d="M353.492 1794.79C353.478 1796.12 353.729 1797.4 354.244 1798.63C354.774 1799.87 355.576 1800.97 356.65 1801.94C357.739 1802.9 359.078 1803.64 360.668 1804.16L358.219 1808.28C356.543 1807.68 355.096 1806.85 353.879 1805.79C352.676 1804.71 351.716 1803.45 351 1802.01C350.284 1803.6 349.317 1804.98 348.1 1806.15C346.882 1807.33 345.4 1808.24 343.652 1808.88L341.16 1804.84C343.509 1803.96 345.278 1802.61 346.467 1800.8C347.67 1799 348.279 1796.99 348.293 1794.79V1794.57H342.234V1790.28H348.293V1786.24H353.492V1790.28H359.508V1794.57H353.492V1794.79ZM347.734 1811.46H374.762V1824.95H369.305V1815.89H347.734V1811.46ZM361.27 1786.5H366.426V1795.69H369.562V1785.89H374.762V1809.79H369.562V1800.12H366.426V1809.7H361.27V1786.5ZM414.98 1820.27H379.188V1815.89H394.141V1807.04H399.598V1815.89H414.98V1820.27ZM380.047 1803.73C382.883 1803.28 385.346 1802.4 387.438 1801.08C389.543 1799.77 391.147 1798.21 392.25 1796.4C393.353 1794.6 393.911 1792.76 393.926 1790.88V1788.09H399.77V1790.88C399.755 1792.77 400.299 1794.62 401.402 1796.42C402.52 1798.23 404.138 1799.79 406.258 1801.11C408.378 1802.41 410.87 1803.28 413.734 1803.73L411.414 1808.28C408.034 1807.67 405.09 1806.5 402.584 1804.78C400.077 1803.06 398.165 1800.96 396.848 1798.48C395.544 1800.96 393.639 1803.07 391.133 1804.8C388.641 1806.52 385.719 1807.68 382.367 1808.28L380.047 1803.73ZM450.945 1824.95H445.66V1805.06H442.094V1823.23H436.98V1786.88H442.094V1800.68H445.66V1785.85H450.945V1824.95ZM416.742 1813.14C420.638 1810.85 423.538 1808.24 425.443 1805.32C427.363 1802.39 428.508 1798.97 428.881 1795.05H418.719V1790.66H434.23C434.216 1794.5 433.765 1798 432.877 1801.15C432.003 1804.29 430.514 1807.19 428.408 1809.85C426.317 1812.5 423.488 1814.86 419.922 1816.92L416.742 1813.14Z" fill="#191F28"/>
<path d="M878.391 170V147.375H887.047C891.953 147.375 894.375 149.875 894.391 153.25C894.375 156 892.641 157.531 890.422 158.062V158.281C892.828 158.406 895.266 160.406 895.266 163.844C895.266 167.359 892.719 170 887.547 170H878.391ZM882.453 166.594H886.922C889.891 166.594 891.125 165.328 891.141 163.531C891.125 161.5 889.547 159.953 887.016 159.938H882.453V166.594ZM882.453 157H886.547C888.688 157 890.312 155.766 890.328 153.75C890.312 152.016 889.062 150.75 886.641 150.75H882.453V157ZM925.166 158.688C925.181 166 920.712 170.312 914.791 170.312C908.837 170.312 904.4 165.984 904.416 158.688C904.4 151.375 908.837 147.062 914.791 147.062C920.712 147.062 925.181 151.375 925.166 158.688ZM908.509 158.688C908.494 163.859 911.103 166.656 914.791 166.656C918.494 166.656 921.087 163.859 921.072 158.688C921.087 153.516 918.494 150.719 914.791 150.719C911.103 150.719 908.494 153.516 908.509 158.688ZM955.378 158.688C955.394 166 950.925 170.312 945.003 170.312C939.05 170.312 934.612 165.984 934.628 158.688C934.612 151.375 939.05 147.062 945.003 147.062C950.925 147.062 955.394 151.375 955.378 158.688ZM938.722 158.688C938.706 163.859 941.316 166.656 945.003 166.656C948.706 166.656 951.3 163.859 951.284 158.688C951.3 153.516 948.706 150.719 945.003 150.719C941.316 150.719 938.706 153.516 938.722 158.688ZM965.403 170V147.375H969.466V157.781H969.778L978.622 147.375H983.591L974.841 157.531L983.684 170H978.778L971.997 160.281L969.466 163.25V170H965.403ZM1010.64 147.375V170H1006.58V147.375H1010.64ZM1039.85 147.375V170H1036.23L1025.51 154.531H1025.32V170H1021.26V147.375H1024.95L1035.6 162.844H1035.82V147.375H1039.85ZM1050.44 170V147.375H1064.94V150.781H1054.5V156.969H1063.94V160.375H1054.5V170H1050.44ZM1094.97 158.688C1094.98 166 1090.51 170.312 1084.59 170.312C1078.64 170.312 1074.2 165.984 1074.22 158.688C1074.2 151.375 1078.64 147.062 1084.59 147.062C1090.51 147.062 1094.98 151.375 1094.97 158.688ZM1078.31 158.688C1078.29 163.859 1080.9 166.656 1084.59 166.656C1088.29 166.656 1090.89 163.859 1090.87 158.688C1090.89 153.516 1088.29 150.719 1084.59 150.719C1080.9 150.719 1078.29 153.516 1078.31 158.688ZM1104.99 170V147.375H1113.49C1118.68 147.375 1121.44 150.281 1121.46 154.594C1121.44 157.672 1120.04 159.953 1117.38 161.031L1122.27 170H1117.74L1113.3 161.719H1109.05V170H1104.99ZM1109.05 158.312H1112.87C1115.93 158.328 1117.3 157.016 1117.3 154.594C1117.3 152.188 1115.93 150.781 1112.87 150.781H1109.05V158.312ZM1131.36 147.375H1136.36L1143.08 163.812H1143.36L1150.08 147.375H1155.08V170H1151.17V154.438H1150.95L1144.67 169.938H1141.77L1135.48 154.375H1135.3V170H1131.36V147.375ZM1168.54 170H1164.2L1172.17 147.375H1177.17L1185.17 170H1180.82L1178.93 164.406H1170.42L1168.54 170ZM1171.51 161.125H1177.84L1174.76 152H1174.57L1171.51 161.125ZM1190.5 150.781V147.375H1208.53V150.781H1201.57V170H1197.5V150.781H1190.5ZM1222.18 147.375V170H1218.12V147.375H1222.18ZM1252.99 158.688C1253.01 166 1248.54 170.312 1242.62 170.312C1236.66 170.312 1232.23 165.984 1232.24 158.688C1232.23 151.375 1236.66 147.062 1242.62 147.062C1248.54 147.062 1253.01 151.375 1252.99 158.688ZM1236.33 158.688C1236.32 163.859 1238.93 166.656 1242.62 166.656C1246.32 166.656 1248.91 163.859 1248.9 158.688C1248.91 153.516 1246.32 150.719 1242.62 150.719C1238.93 150.719 1236.32 153.516 1236.33 158.688ZM1281.61 147.375V170H1277.98L1267.27 154.531H1267.08V170H1263.02V147.375H1266.7L1277.36 162.844H1277.58V147.375H1281.61Z" fill="#8B95A1"/>
<path d="M993.547 243.281V250.844H970.516V268.633H1001.45V276.453H930.469V268.633H961.062V250.844H939.062V213.719H992.945V221.367H948.602V243.281H993.547ZM1035.23 226.609C1035.18 241.047 1042.1 255.227 1054.48 260.641L1048.72 268.289C1039.95 263.992 1033.77 255.742 1030.46 245.559C1027.06 256.301 1020.7 265.238 1011.77 269.75L1005.75 262.016C1018.43 256.086 1025.47 241.133 1025.52 226.609V214.234H1035.23V226.609ZM1045.88 240.789V233.055H1062.21V207.961H1071.66V285.734H1062.21V240.789H1045.88ZM1147.63 207.961V254.109H1138.09V235.117H1124.86V227.297H1138.09V207.961H1147.63ZM1082.32 246.375C1094.82 242.078 1101.4 231.637 1101.4 221.367V220.766H1085.24V213.031H1127.18V220.766H1111.11V221.281C1111.11 230.734 1117.38 240.273 1129.41 244.312L1124.6 251.875C1115.96 248.953 1109.86 243.023 1106.43 235.719C1103.03 243.969 1096.54 250.672 1087.3 253.938L1082.32 246.375ZM1094.95 270.867C1094.87 261.543 1104.96 256.086 1121.34 256.086C1137.79 256.086 1147.85 261.543 1147.89 270.867C1147.85 280.191 1137.79 285.605 1121.34 285.648C1104.96 285.605 1094.87 280.191 1094.95 270.867ZM1104.41 270.867C1104.36 275.68 1110.55 278.301 1121.34 278.258C1132.21 278.301 1138.35 275.68 1138.35 270.867C1138.35 266.012 1132.21 263.391 1121.34 263.391C1110.55 263.391 1104.36 266.012 1104.41 270.867ZM1229.62 268.461V276.281H1158.63V268.461H1189.23V253.336H1166.45V213.117H1175.99V225.836H1212V213.117H1221.54V253.336H1198.68V268.461H1229.62ZM1175.99 245.602H1212V233.484H1175.99V245.602Z" fill="#191F28"/>
<path d="M115.849 3664L100 3680L115.849 3696V3684H143.585C154.575 3684 163.396 3692.91 163.396 3704C163.396 3715.09 154.575 3724 143.585 3724H103.962V3732H143.585C158.857 3732 171.321 3719.42 171.321 3704C171.321 3688.58 158.857 3676 143.585 3676H115.849V3664Z" fill="#191F28"/>
<g filter="url(#filter0_d_2843_14056)">
<rect x="1674" y="3640.06" width="386" height="120" rx="60" fill="white"/>
<g clip-path="url(#clip0_2843_14056)">
<circle cx="1732" cy="3700.06" r="48" fill="#FFEBE7"/>
<g clip-path="url(#clip1_2843_14056)">
<path d="M1712.62 3680.36C1712.62 3680.36 1701.03 3711.95 1721.59 3721.53L1729.11 3718.56L1732.87 3705.63C1732.87 3705.63 1717.29 3682.21 1717.29 3682.34C1717.29 3682.47 1712.62 3680.36 1712.62 3680.36Z" fill="#642718"/>
<path d="M1751.98 3680.36C1751.98 3680.36 1763.57 3711.95 1743.01 3721.53L1735.5 3718.56L1731.73 3705.63C1731.73 3705.63 1747.3 3682.21 1747.3 3682.34C1747.3 3682.47 1751.98 3680.36 1751.98 3680.36Z" fill="#642718"/>
<path d="M1723.42 3706.41V3719.46L1708.17 3724.99L1732.3 3745.28L1755.83 3724.99L1740.58 3719.46V3706.41H1723.42Z" fill="#F5CCC1"/>
<path d="M1723.2 3671.04C1728.77 3667.58 1735.82 3667.58 1741.39 3671.04C1747.47 3674.8 1750.59 3681.92 1749.26 3688.94L1746.74 3699.92C1745.79 3704.07 1743.19 3707.64 1739.54 3709.83L1737.05 3711.31C1734.13 3713.06 1730.47 3713.06 1727.54 3711.31L1725.06 3709.83C1721.41 3707.64 1718.8 3704.07 1717.86 3699.92L1715.34 3688.94C1714 3681.92 1717.13 3674.8 1723.2 3671.04Z" fill="#F5CCC1"/>
<path d="M1726.98 3691.34V3692.51" stroke="#300021" stroke-width="3" stroke-miterlimit="10" stroke-linecap="round"/>
<path d="M1737.62 3691.34V3692.51" stroke="#300021" stroke-width="3" stroke-miterlimit="10" stroke-linecap="round"/>
<path d="M1724.72 3687.87C1725.12 3687.68 1725.8 3687.55 1726.54 3687.53C1727.3 3687.51 1727.97 3687.61 1728.37 3687.78" stroke="#642718" stroke-width="2" stroke-miterlimit="10" stroke-linecap="round" stroke-linejoin="round"/>
<path d="M1739.88 3687.87C1739.48 3687.68 1738.8 3687.55 1738.05 3687.53C1737.3 3687.51 1736.63 3687.61 1736.22 3687.78" stroke="#642718" stroke-width="2" stroke-miterlimit="10" stroke-linecap="round" stroke-linejoin="round"/>
<path d="M1736.16 3700.4C1735.3 3700.99 1733.88 3701.37 1732.29 3701.37C1730.7 3701.37 1729.3 3700.99 1728.43 3700.4" stroke="#C0655E" stroke-width="2" stroke-miterlimit="10" stroke-linecap="round" stroke-linejoin="round"/>
<path d="M1733.78 3696.39C1733.78 3696.86 1733.12 3697.24 1732.3 3697.24C1731.49 3697.24 1730.82 3696.86 1730.82 3696.39C1730.82 3695.92 1731.49 3695.54 1732.3 3695.54C1733.12 3695.54 1733.78 3695.92 1733.78 3696.39Z" fill="#DD7766"/>
<path d="M1715.87 3694.52C1715.87 3694.52 1718.23 3692.66 1718.54 3688.99C1718.86 3685.31 1721.41 3681.07 1721.41 3681.07L1715.03 3681.33C1715.03 3681.34 1712.69 3685.62 1715.87 3694.52Z" fill="#642718"/>
<path d="M1748.73 3694.52C1748.73 3694.52 1746.36 3692.66 1746.05 3688.99C1745.74 3685.31 1742.66 3679.72 1742.66 3679.72L1749.56 3681.33C1749.57 3681.34 1751.9 3685.62 1748.73 3694.52Z" fill="#642718"/>
<path d="M1739.54 3709.83L1737.05 3711.31C1734.13 3713.06 1730.47 3713.06 1727.54 3711.31L1725.06 3709.83" stroke="#C0655E" stroke-width="1.2" stroke-miterlimit="10" stroke-linecap="round" stroke-linejoin="round"/>
<path d="M1723.42 3719.21L1732 3729.87L1740.58 3719.21L1760.75 3724.5C1766.16 3725.7 1770 3730.5 1770 3736.04V3749.32H1694V3736.04C1694 3730.5 1697.84 3725.71 1703.25 3724.5L1723.42 3719.21Z" fill="#FFC238"/>
<path d="M1718.28 3688.18C1718.28 3688.18 1727.97 3687.29 1730.81 3677.11L1732.87 3668.44L1720.21 3678.31L1718.28 3688.18Z" fill="#642718"/>
<path d="M1750.4 3693.26C1748.1 3696.13 1746.8 3688.77 1746.8 3688.77C1746.8 3688.77 1745.88 3684.21 1744.39 3681.81C1744.08 3681.32 1743.61 3680.83 1743.01 3680.36H1743C1740.67 3678.56 1736.4 3677.12 1732.3 3677.12C1731.87 3677.12 1731.45 3677.14 1731.02 3677.17C1726.27 3677.5 1721.59 3679.6 1720.21 3681.81C1718.71 3684.21 1717.8 3688.77 1717.8 3688.77C1717.8 3688.77 1716.5 3696.13 1714.2 3693.26C1711.9 3690.4 1710.9 3682.65 1713.73 3677.64C1716.56 3672.63 1723.53 3665.93 1728.41 3665.14C1730.12 3664.87 1731.38 3665.26 1732.3 3665.89C1733.22 3665.26 1734.47 3664.87 1736.19 3665.14C1741.07 3665.93 1748.04 3672.63 1750.86 3677.64C1753.69 3682.65 1752.69 3690.4 1750.4 3693.26Z" fill="#642718"/>
<path d="M1719.26 3693.62C1719.86 3696.54 1718.93 3699.3 1717.19 3699.8C1715.45 3700.3 1713.56 3698.34 1712.96 3695.42C1712.37 3692.51 1713.3 3689.74 1715.04 3689.24C1716.78 3688.74 1718.67 3690.71 1719.26 3693.62Z" fill="#F5CCC1"/>
<path d="M1716.72 3697.51C1716.68 3697.52 1716.63 3697.53 1716.58 3697.53C1715.92 3697.58 1715 3696.6 1714.66 3694.94C1714.48 3694.07 1714.51 3693.17 1714.74 3692.49C1714.84 3692.19 1715.07 3691.66 1715.5 3691.54C1715.54 3691.53 1715.59 3691.52 1715.64 3691.52" stroke="#C0655E" stroke-width="1.2" stroke-miterlimit="10" stroke-linecap="round" stroke-linejoin="round"/>
<path d="M1751.71 3695.03C1752.17 3692.08 1751.11 3689.47 1749.33 3689.19C1747.55 3688.91 1745.73 3691.07 1745.26 3694.01C1744.8 3696.96 1745.86 3699.58 1747.64 3699.86C1749.42 3700.14 1751.24 3697.98 1751.71 3695.03Z" fill="#F5CCC1"/>
<path d="M1747.88 3697.51C1747.92 3697.52 1747.97 3697.53 1748.01 3697.53C1748.67 3697.58 1749.6 3696.6 1749.94 3694.94C1750.11 3694.07 1750.09 3693.17 1749.86 3692.49C1749.75 3692.19 1749.52 3691.66 1749.1 3691.54C1749.06 3691.53 1749.01 3691.52 1748.96 3691.52" stroke="#C0655E" stroke-width="1.2" stroke-miterlimit="10" stroke-linecap="round" stroke-linejoin="round"/>
<path d="M1743 3680.36H1743C1740.67 3678.56 1736.4 3677.12 1732.3 3677.12C1731.87 3677.12 1731.45 3677.14 1731.02 3677.17L1731.06 3676.75C1731.06 3676.75 1732.03 3673.51 1734.04 3673.13C1736.04 3672.74 1741.36 3676.77 1743 3680.36Z" fill="#300021"/>
<path d="M1719.3 3685.07C1719.3 3685.07 1725.02 3682.39 1726.78 3677.66C1728.52 3672.93 1730.82 3671.99 1730.82 3671.99" stroke="#300021" stroke-width="1.2" stroke-miterlimit="10" stroke-linecap="round"/>
<path d="M1720.01 3680.59C1720.01 3680.59 1723.64 3678.49 1724.53 3675.55C1725.41 3672.62 1726.92 3671.71 1726.92 3671.71" stroke="#300021" stroke-width="1.2" stroke-miterlimit="10" stroke-linecap="round"/>
<path d="M1745.64 3677.93C1746.65 3679.77 1747.27 3681.81 1747.45 3683.88" stroke="#300021" stroke-width="1.2" stroke-miterlimit="10" stroke-linecap="round"/>
<path d="M1748.86 3679.3C1749.37 3681.27 1749.54 3683.34 1749.37 3685.37" stroke="#300021" stroke-width="1.2" stroke-miterlimit="10" stroke-linecap="round"/>
<path d="M1723.42 3715.23C1723.42 3715.23 1718.71 3715.78 1715.03 3721.66L1723.99 3734.07C1724.86 3735.27 1726.58 3735.42 1727.64 3734.38L1731.99 3730.13L1723.42 3719.46V3715.23H1723.42Z" fill="#F7EFEE"/>
<path d="M1740.58 3715.23C1740.58 3715.23 1745.29 3715.78 1748.97 3721.66L1739.77 3734.4C1739.03 3735.42 1737.55 3735.55 1736.64 3734.66L1732 3730.13L1740.58 3719.46V3715.23Z" fill="#F7EFEE"/>
</g>
</g>
<path d="M1838.12 3683.83V3701.9H1833.62V3683.83H1838.12ZM1811.82 3693.01C1811.82 3688.44 1815.58 3685.28 1820.57 3685.28C1825.55 3685.28 1829.31 3688.44 1829.33 3693.01C1829.31 3697.4 1825.55 3700.64 1820.57 3700.64C1815.58 3700.64 1811.82 3697.4 1811.82 3693.01ZM1816.21 3693.01C1816.18 3695.38 1818.01 3696.88 1820.57 3696.88C1823.07 3696.88 1824.88 3695.38 1824.9 3693.01C1824.88 3690.5 1823.07 3689.04 1820.57 3689.04C1818.01 3689.04 1816.18 3690.5 1816.21 3693.01ZM1816.67 3715.44V3703.35H1838.12V3715.44H1816.67ZM1821.1 3711.85H1833.72V3706.9H1821.1V3711.85ZM1854.89 3691.04C1854.87 3696.91 1857.54 3702.8 1862.97 3705.1L1860.34 3708.69C1856.68 3707.04 1854.15 3703.84 1852.69 3699.88C1851.25 3704.21 1848.63 3707.69 1844.73 3709.46L1842.02 3705.74C1847.61 3703.38 1850.33 3697.25 1850.35 3691.04V3686.26H1854.89V3691.04ZM1864.7 3715.86V3683.8H1869.23V3715.86H1864.7ZM1882.48 3685.52C1885.03 3685.5 1887.27 3686.45 1888.79 3688.02H1896.05V3683.8H1900.52V3702.54H1896.05V3698.71H1888.76C1887.23 3700.25 1885.02 3701.18 1882.48 3701.17C1877.63 3701.18 1873.94 3697.88 1873.98 3693.36C1873.94 3688.79 1877.63 3685.5 1882.48 3685.52ZM1878.23 3693.36C1878.21 3695.82 1879.99 3697.39 1882.48 3697.37C1884.89 3697.39 1886.65 3695.82 1886.67 3693.36C1886.65 3690.81 1884.89 3689.34 1882.48 3689.35C1879.99 3689.34 1878.21 3690.81 1878.23 3693.36ZM1878.58 3709.5C1878.58 3705.53 1882.82 3703.19 1889.59 3703.21C1896.35 3703.19 1900.61 3705.53 1900.62 3709.5C1900.61 3713.47 1896.35 3715.81 1889.59 3715.79C1882.82 3715.81 1878.58 3713.47 1878.58 3709.5ZM1882.98 3709.5C1882.98 3711.36 1885.35 3712.31 1889.59 3712.31C1893.91 3712.31 1896.21 3711.36 1896.23 3709.5C1896.21 3707.58 1893.91 3706.63 1889.59 3706.62C1885.35 3706.63 1882.98 3707.58 1882.98 3709.5ZM1890.71 3691.57C1890.85 3692.13 1890.92 3692.75 1890.92 3693.36C1890.92 3693.98 1890.85 3694.56 1890.73 3695.12H1896.05V3691.57H1890.71ZM1939.54 3684.15V3701.9H1936.84V3684.15H1939.54ZM1915.74 3699.51V3686.01H1918.52V3697.16C1923.69 3697.12 1928.31 3696.77 1933.29 3695.72L1933.71 3698.04C1928.42 3699.11 1923.67 3699.48 1918.27 3699.51H1915.74ZM1919.26 3714.98V3703.35H1939.54V3714.98H1919.26ZM1921.96 3712.73H1936.84V3705.56H1921.96V3712.73Z" fill="#191F28"/>
<g clip-path="url(#clip2_2843_14056)">
<path d="M2010.8 3693.13L2017.84 3700.14L2010.8 3707.15" stroke="#6B7684" stroke-width="4" stroke-miterlimit="10" stroke-linecap="round" stroke-linejoin="round"/>
<path d="M2017.84 3700.14H1991.17" stroke="#6B7684" stroke-width="4" stroke-miterlimit="10" stroke-linecap="round" stroke-linejoin="round"/>
<path d="M2003.76 3710.53V3712.73C2003.76 3715.65 2001.34 3718.06 1998.41 3718.06H1981.46C1978.58 3718.06 1976.17 3715.65 1976.17 3712.73V3687.55C1976.17 3684.63 1978.58 3682.22 1981.51 3682.22H1998.47C2001.34 3682.22 2003.76 3684.63 2003.76 3687.55V3689.59" stroke="#6B7684" stroke-width="4" stroke-miterlimit="10" stroke-linecap="round" stroke-linejoin="round"/>
</g>
</g>
<defs>
<filter id="filter0_d_2843_14056" x="1644" y="3610.06" width="466" height="200" filterUnits="userSpaceOnUse" color-interpolation-filters="sRGB">
<feFlood flood-opacity="0" result="BackgroundImageFix"/>
<feColorMatrix in="SourceAlpha" type="matrix" values="0 0 0 0 0 0 0 0 0 0 0 0 0 0 0 0 0 0 127 0" result="hardAlpha"/>
<feOffset dx="10" dy="10"/>
<feGaussianBlur stdDeviation="20"/>
<feComposite in2="hardAlpha" operator="out"/>
<feColorMatrix type="matrix" values="0 0 0 0 0 0 0 0 0 0 0 0 0 0 0 0 0 0 0.1 0"/>
<feBlend mode="normal" in2="BackgroundImageFix" result="effect1_dropShadow_2843_14056"/>
<feBlend mode="normal" in="SourceGraphic" in2="effect1_dropShadow_2843_14056" result="shape"/>
</filter>
<linearGradient id="paint0_linear_2843_14056" x1="97" y1="6.81465e-06" x2="1104.42" y2="2931.61" gradientUnits="userSpaceOnUse">
<stop stop-color="#EDE3DA"/>
<stop offset="1" stop-color="#D9D0C9"/>
</linearGradient>
<clipPath id="clip0_2843_14056">
<rect x="1684" y="3652.06" width="96" height="96" rx="48" fill="white"/>
</clipPath>
<clipPath id="clip1_2843_14056">
<rect width="76" height="84.51" fill="white" transform="translate(1694 3665.06)"/>
</clipPath>
<clipPath id="clip2_2843_14056">
<rect width="46" height="41" fill="white" transform="translate(1974 3679.56)"/>
</clipPath>
</defs>
</svg>
