<svg width="3840" height="2160" viewBox="0 0 3840 2160" fill="none" xmlns="http://www.w3.org/2000/svg">
<g clip-path="url(#clip0_2843_14368)">
<rect width="3840" height="2160" fill="#E4E3E5"/>
<rect width="3840" height="2160" fill="url(#paint0_linear_2843_14368)"/>
<g filter="url(#filter0_f_2843_14368)">
<circle cx="3177.5" cy="2025.5" r="901.5" fill="#E4C19A" fill-opacity="0.6"/>
</g>
<g style="mix-blend-mode:screen" filter="url(#filter1_f_2843_14368)">
<circle cx="1174.43" cy="1104.43" r="826.066" transform="rotate(30 1174.43 1104.43)" fill="url(#paint1_linear_2843_14368)" fill-opacity="0.1"/>
</g>
<path d="M1624.33 113.594C1624.13 111.641 1622.49 110.516 1620.05 110.531C1617.48 110.516 1615.94 111.766 1615.93 113.469C1615.91 115.375 1617.93 116.156 1619.8 116.594L1621.93 117.156C1625.3 117.938 1628.55 119.719 1628.55 123.656C1628.55 127.625 1625.41 130.344 1619.99 130.344C1614.73 130.344 1611.38 127.812 1611.21 123.344H1615.21C1615.4 125.703 1617.38 126.859 1619.96 126.875C1622.63 126.859 1624.48 125.562 1624.49 123.625C1624.48 121.844 1622.85 121.094 1620.4 120.469L1617.83 119.812C1614.12 118.844 1611.8 116.969 1611.8 113.719C1611.8 109.719 1615.35 107.062 1620.12 107.062C1624.91 107.062 1628.18 109.766 1628.24 113.594H1624.33ZM1638.33 107.375H1643.33L1650.05 123.812H1650.33L1657.05 107.375H1662.05V130H1658.14V114.438H1657.92L1651.64 129.938H1648.73L1642.45 114.375H1642.27V130H1638.33V107.375ZM1675.51 130H1671.17L1679.13 107.375H1684.13L1692.13 130H1687.79L1685.9 124.406H1677.38L1675.51 130ZM1678.48 121.125H1684.81L1681.73 112H1681.54L1678.48 121.125ZM1701.22 130V107.375H1709.72C1714.91 107.375 1717.68 110.281 1717.69 114.594C1717.68 117.672 1716.27 119.953 1713.61 121.031L1718.5 130H1713.97L1709.53 121.719H1705.28V130H1701.22ZM1705.28 118.312H1709.1C1712.16 118.328 1713.53 117.016 1713.53 114.594C1713.53 112.188 1712.16 110.781 1709.1 110.781H1705.28V118.312ZM1726.59 110.781V107.375H1744.62V110.781H1737.65V130H1733.59V110.781H1726.59ZM1768.2 130V107.375H1776.7C1781.89 107.375 1784.66 110.281 1784.67 114.594C1784.66 117.672 1783.25 119.953 1780.59 121.031L1785.48 130H1780.95L1776.52 121.719H1772.27V130H1768.2ZM1772.27 118.312H1776.08C1779.14 118.328 1780.52 117.016 1780.52 114.594C1780.52 112.188 1779.14 110.781 1776.08 110.781H1772.27V118.312ZM1794.57 130V107.375H1809.29V110.781H1798.63V116.969H1808.51V120.375H1798.63V126.562H1809.35V130H1794.57ZM1834.85 115C1834.36 112.281 1832.19 110.719 1829.44 110.719C1825.74 110.719 1823.11 113.562 1823.13 118.688C1823.11 123.891 1825.75 126.656 1829.44 126.656C1832.13 126.656 1834.3 125.156 1834.85 122.5H1838.94C1838.32 126.844 1834.74 130.312 1829.38 130.312C1823.41 130.312 1819.02 125.984 1819.03 118.688C1819.02 111.375 1823.46 107.062 1829.38 107.062C1834.38 107.062 1838.24 109.969 1838.94 115H1834.85ZM1869.03 118.688C1869.04 126 1864.58 130.312 1858.65 130.312C1852.7 130.312 1848.26 125.984 1848.28 118.688C1848.26 111.375 1852.7 107.062 1858.65 107.062C1864.58 107.062 1869.04 111.375 1869.03 118.688ZM1852.37 118.688C1852.36 123.859 1854.97 126.656 1858.65 126.656C1862.36 126.656 1864.95 123.859 1864.93 118.688C1864.95 113.516 1862.36 110.719 1858.65 110.719C1854.97 110.719 1852.36 113.516 1852.37 118.688ZM1879.05 107.375H1884.05L1890.77 123.812H1891.05L1897.77 107.375H1902.77V130H1898.87V114.438H1898.65L1892.37 129.938H1889.46L1883.18 114.375H1882.99V130H1879.05V107.375ZM1913.36 107.375H1918.36L1925.08 123.812H1925.36L1932.08 107.375H1937.08V130H1933.17V114.438H1932.95L1926.67 129.938H1923.77L1917.48 114.375H1917.3V130H1913.36V107.375ZM1947.67 130V107.375H1962.38V110.781H1951.73V116.969H1961.6V120.375H1951.73V126.562H1962.45V130H1947.67ZM1991.28 107.375V130H1987.66L1976.94 114.531H1976.75V130H1972.69V107.375H1976.38L1987.03 122.844H1987.25V107.375H1991.28ZM2009.56 130H2001.87V107.375H2009.68C2016.43 107.375 2020.51 111.609 2020.53 118.656C2020.51 125.734 2016.43 130 2009.56 130ZM2005.93 126.469H2009.34C2014.08 126.484 2016.47 123.875 2016.47 118.656C2016.47 113.469 2014.08 110.891 2009.47 110.906H2005.93V126.469ZM2030.52 130V107.375H2045.24V110.781H2034.58V116.969H2044.46V120.375H2034.58V126.562H2045.3V130H2030.52ZM2063.23 130H2055.55V107.375H2063.36C2070.11 107.375 2074.19 111.609 2074.2 118.656C2074.19 125.734 2070.11 130 2063.23 130ZM2059.61 126.469H2063.02C2067.75 126.484 2070.14 123.875 2070.14 118.656C2070.14 113.469 2067.75 110.891 2063.14 110.906H2059.61V126.469ZM2098.19 130V107.375H2106.85C2111.75 107.375 2114.18 109.875 2114.19 113.25C2114.18 116 2112.44 117.531 2110.22 118.062V118.281C2112.63 118.406 2115.07 120.406 2115.07 123.844C2115.07 127.359 2112.52 130 2107.35 130H2098.19ZM2102.25 126.594H2106.72C2109.69 126.594 2110.93 125.328 2110.94 123.531C2110.93 121.5 2109.35 119.953 2106.82 119.938H2102.25V126.594ZM2102.25 117H2106.35C2108.49 117 2110.11 115.766 2110.13 113.75C2110.11 112.016 2108.86 110.75 2106.44 110.75H2102.25V117ZM2144.97 118.688C2144.98 126 2140.51 130.312 2134.59 130.312C2128.64 130.312 2124.2 125.984 2124.22 118.688C2124.2 111.375 2128.64 107.062 2134.59 107.062C2140.51 107.062 2144.98 111.375 2144.97 118.688ZM2128.31 118.688C2128.29 123.859 2130.9 126.656 2134.59 126.656C2138.29 126.656 2140.89 123.859 2140.87 118.688C2140.89 113.516 2138.29 110.719 2134.59 110.719C2130.9 110.719 2128.29 113.516 2128.31 118.688ZM2175.18 118.688C2175.19 126 2170.72 130.312 2164.8 130.312C2158.85 130.312 2154.41 125.984 2154.43 118.688C2154.41 111.375 2158.85 107.062 2164.8 107.062C2170.72 107.062 2175.19 111.375 2175.18 118.688ZM2158.52 118.688C2158.51 123.859 2161.12 126.656 2164.8 126.656C2168.51 126.656 2171.1 123.859 2171.08 118.688C2171.1 113.516 2168.51 110.719 2164.8 110.719C2161.12 110.719 2158.51 113.516 2158.52 118.688ZM2185.2 130V107.375H2189.27V117.781H2189.58L2198.42 107.375H2203.39L2194.64 117.531L2203.48 130H2198.58L2191.8 120.281L2189.27 123.25V130H2185.2ZM2224.57 113.594C2224.37 111.641 2222.73 110.516 2220.29 110.531C2217.71 110.516 2216.18 111.766 2216.17 113.469C2216.15 115.375 2218.17 116.156 2220.04 116.594L2222.17 117.156C2225.54 117.938 2228.79 119.719 2228.79 123.656C2228.79 127.625 2225.65 130.344 2220.23 130.344C2214.96 130.344 2211.62 127.812 2211.45 123.344H2215.45C2215.63 125.703 2217.62 126.859 2220.2 126.875C2222.87 126.859 2224.71 125.562 2224.73 123.625C2224.71 121.844 2223.09 121.094 2220.63 120.469L2218.07 119.812C2214.35 118.844 2212.04 116.969 2212.04 113.719C2212.04 109.719 2215.59 107.062 2220.35 107.062C2225.15 107.062 2228.42 109.766 2228.48 113.594H2224.57Z" fill="#ADB5BD"/>
<path d="M1696.52 178.617C1696.52 190.605 1708.25 202.68 1724.54 205.516L1720.24 213.508C1707.22 210.801 1696.56 202.895 1691.49 192.453C1686.38 202.809 1675.72 210.758 1662.75 213.508L1658.54 205.516C1674.56 202.594 1686.34 190.562 1686.38 178.617V172.859H1696.52V178.617ZM1656.39 235.766V227.859H1727.37V235.766H1656.39ZM1771.97 175.523V226.398H1735.19V175.523H1771.97ZM1744.56 218.75H1762.43V183H1744.56V218.75ZM1783.75 245.648V167.961H1793.29V197.781H1805.23V205.859H1793.29V245.648H1783.75ZM1871.66 208.695V216.258H1817.18V174.062H1870.97V181.797H1826.89V191.164H1869.17V198.641H1826.89V208.695H1871.66ZM1808.5 236.195V228.375H1879.48V236.195H1808.5ZM1947.63 203.281V210.844H1924.6V228.633H1955.54V236.453H1884.55V228.633H1915.14V210.844H1893.14V173.719H1947.03V181.367H1902.68V203.281H1947.63ZM1989.31 186.609C1989.27 201.047 1996.18 215.227 2008.56 220.641L2002.8 228.289C1994.04 223.992 1987.85 215.742 1984.54 205.559C1981.14 216.301 1974.79 225.238 1965.85 229.75L1959.83 222.016C1972.51 216.086 1979.55 201.133 1979.6 186.609V174.234H1989.31V186.609ZM1999.96 200.789V193.055H2016.29V167.961H2025.75V245.734H2016.29V200.789H1999.96ZM2107.47 214.625V222.445H2076.71V245.734H2067.25V222.445H2036.66V214.625H2107.47ZM2040.53 202.336C2056.04 200.445 2066.22 192.496 2067.17 184.719H2043.19V177.156H2067.25V168.047H2076.71V177.156H2100.86V184.719H2076.88C2077.78 192.41 2087.92 200.445 2103.43 202.336L2099.91 209.898C2087.06 208.266 2077.09 202.637 2072.07 195.16C2067 202.723 2056.9 208.266 2043.96 209.898L2040.53 202.336ZM2140.64 186.352C2140.6 195.59 2147.09 204.57 2159.38 208.352L2154.74 215.828C2145.93 213.207 2139.53 207.578 2136 200.445C2132.57 208.137 2126.16 214.195 2117.1 217.117L2112.46 209.641C2124.7 205.816 2131.11 196.32 2131.11 186.352V185.148H2114.86V177.586H2131.11V168.477H2140.73V177.586H2156.89V185.148H2140.64V186.352ZM2126.81 244.102V220.727H2136.35V236.367H2179.75V244.102H2126.81ZM2154.31 198.812V191.164H2168.23V168.047H2177.77V225.711H2168.23V198.812H2154.31Z" fill="#191F28"/>
<path d="M115.849 1984L100 2000L115.849 2016V2004H143.585C154.575 2004 163.396 2012.91 163.396 2024C163.396 2035.09 154.575 2044 143.585 2044H103.962V2052H143.585C158.857 2052 171.321 2039.42 171.321 2024C171.321 2008.58 158.857 1996 143.585 1996H115.849V1984Z" fill="#191F28"/>
<g filter="url(#filter2_d_2843_14368)">
<rect x="3354" y="1960.06" width="386" height="120" rx="60" fill="white"/>
<g clip-path="url(#clip1_2843_14368)">
<circle cx="3412" cy="2020.06" r="48" fill="#FFEBE7"/>
<g clip-path="url(#clip2_2843_14368)">
<path d="M3392.62 2000.36C3392.62 2000.36 3381.03 2031.95 3401.59 2041.53L3409.11 2038.56L3412.87 2025.63C3412.87 2025.63 3397.29 2002.21 3397.29 2002.34C3397.29 2002.47 3392.62 2000.36 3392.62 2000.36Z" fill="#642718"/>
<path d="M3431.98 2000.36C3431.98 2000.36 3443.57 2031.95 3423.01 2041.53L3415.5 2038.56L3411.73 2025.63C3411.73 2025.63 3427.3 2002.21 3427.3 2002.34C3427.3 2002.47 3431.98 2000.36 3431.98 2000.36Z" fill="#642718"/>
<path d="M3403.42 2026.41V2039.46L3388.17 2044.99L3412.3 2065.28L3435.83 2044.99L3420.58 2039.46V2026.41H3403.42Z" fill="#F5CCC1"/>
<path d="M3403.2 1991.04C3408.77 1987.58 3415.82 1987.58 3421.39 1991.04C3427.47 1994.8 3430.59 2001.92 3429.26 2008.94L3426.74 2019.92C3425.79 2024.07 3423.19 2027.64 3419.54 2029.83L3417.05 2031.31C3414.13 2033.06 3410.47 2033.06 3407.54 2031.31L3405.06 2029.83C3401.41 2027.64 3398.8 2024.07 3397.86 2019.92L3395.34 2008.94C3394 2001.92 3397.13 1994.8 3403.2 1991.04Z" fill="#F5CCC1"/>
<path d="M3406.98 2011.34V2012.51" stroke="#300021" stroke-width="3" stroke-miterlimit="10" stroke-linecap="round"/>
<path d="M3417.62 2011.34V2012.51" stroke="#300021" stroke-width="3" stroke-miterlimit="10" stroke-linecap="round"/>
<path d="M3404.72 2007.87C3405.12 2007.68 3405.8 2007.55 3406.54 2007.53C3407.3 2007.51 3407.97 2007.61 3408.37 2007.78" stroke="#642718" stroke-width="2" stroke-miterlimit="10" stroke-linecap="round" stroke-linejoin="round"/>
<path d="M3419.88 2007.87C3419.48 2007.68 3418.8 2007.55 3418.05 2007.53C3417.3 2007.51 3416.63 2007.61 3416.22 2007.78" stroke="#642718" stroke-width="2" stroke-miterlimit="10" stroke-linecap="round" stroke-linejoin="round"/>
<path d="M3416.16 2020.4C3415.3 2020.99 3413.88 2021.37 3412.29 2021.37C3410.7 2021.37 3409.3 2020.99 3408.43 2020.4" stroke="#C0655E" stroke-width="2" stroke-miterlimit="10" stroke-linecap="round" stroke-linejoin="round"/>
<path d="M3413.78 2016.39C3413.78 2016.86 3413.12 2017.24 3412.3 2017.24C3411.49 2017.24 3410.82 2016.86 3410.82 2016.39C3410.82 2015.92 3411.49 2015.54 3412.3 2015.54C3413.12 2015.54 3413.78 2015.92 3413.78 2016.39Z" fill="#DD7766"/>
<path d="M3395.87 2014.52C3395.87 2014.52 3398.23 2012.66 3398.54 2008.99C3398.86 2005.31 3401.41 2001.07 3401.41 2001.07L3395.03 2001.33C3395.03 2001.34 3392.69 2005.62 3395.87 2014.52Z" fill="#642718"/>
<path d="M3428.73 2014.52C3428.73 2014.52 3426.36 2012.66 3426.05 2008.99C3425.74 2005.31 3422.66 1999.72 3422.66 1999.72L3429.56 2001.33C3429.57 2001.34 3431.9 2005.62 3428.73 2014.52Z" fill="#642718"/>
<path d="M3419.54 2029.83L3417.05 2031.31C3414.13 2033.06 3410.47 2033.06 3407.54 2031.31L3405.06 2029.83" stroke="#C0655E" stroke-width="1.2" stroke-miterlimit="10" stroke-linecap="round" stroke-linejoin="round"/>
<path d="M3403.42 2039.21L3412 2049.87L3420.58 2039.21L3440.75 2044.5C3446.16 2045.7 3450 2050.5 3450 2056.04V2069.32H3374V2056.04C3374 2050.5 3377.84 2045.71 3383.25 2044.5L3403.42 2039.21Z" fill="#FFC238"/>
<path d="M3398.28 2008.18C3398.28 2008.18 3407.97 2007.29 3410.81 1997.11L3412.87 1988.44L3400.21 1998.31L3398.28 2008.18Z" fill="#642718"/>
<path d="M3430.4 2013.26C3428.1 2016.13 3426.8 2008.77 3426.8 2008.77C3426.8 2008.77 3425.88 2004.21 3424.39 2001.81C3424.08 2001.32 3423.61 2000.83 3423.01 2000.36H3423C3420.67 1998.56 3416.4 1997.12 3412.3 1997.12C3411.87 1997.12 3411.45 1997.14 3411.02 1997.17C3406.27 1997.5 3401.59 1999.6 3400.21 2001.81C3398.71 2004.21 3397.8 2008.77 3397.8 2008.77C3397.8 2008.77 3396.5 2016.13 3394.2 2013.26C3391.9 2010.4 3390.9 2002.65 3393.73 1997.64C3396.56 1992.63 3403.53 1985.93 3408.41 1985.14C3410.12 1984.87 3411.38 1985.26 3412.3 1985.89C3413.22 1985.26 3414.47 1984.87 3416.19 1985.14C3421.07 1985.93 3428.04 1992.63 3430.86 1997.64C3433.69 2002.65 3432.69 2010.4 3430.4 2013.26Z" fill="#642718"/>
<path d="M3399.26 2013.62C3399.86 2016.54 3398.93 2019.3 3397.19 2019.8C3395.45 2020.3 3393.56 2018.34 3392.96 2015.42C3392.37 2012.51 3393.3 2009.74 3395.04 2009.24C3396.78 2008.74 3398.67 2010.71 3399.26 2013.62Z" fill="#F5CCC1"/>
<path d="M3396.72 2017.51C3396.68 2017.52 3396.63 2017.53 3396.58 2017.53C3395.92 2017.58 3395 2016.6 3394.66 2014.94C3394.48 2014.07 3394.51 2013.17 3394.74 2012.49C3394.84 2012.19 3395.07 2011.66 3395.5 2011.54C3395.54 2011.53 3395.59 2011.52 3395.64 2011.52" stroke="#C0655E" stroke-width="1.2" stroke-miterlimit="10" stroke-linecap="round" stroke-linejoin="round"/>
<path d="M3431.71 2015.03C3432.17 2012.08 3431.11 2009.47 3429.33 2009.19C3427.55 2008.91 3425.73 2011.07 3425.26 2014.01C3424.8 2016.96 3425.86 2019.58 3427.64 2019.86C3429.42 2020.14 3431.24 2017.98 3431.71 2015.03Z" fill="#F5CCC1"/>
<path d="M3427.88 2017.51C3427.92 2017.52 3427.97 2017.53 3428.01 2017.53C3428.67 2017.58 3429.6 2016.6 3429.94 2014.94C3430.11 2014.07 3430.09 2013.17 3429.86 2012.49C3429.75 2012.19 3429.52 2011.66 3429.1 2011.54C3429.06 2011.53 3429.01 2011.52 3428.96 2011.52" stroke="#C0655E" stroke-width="1.2" stroke-miterlimit="10" stroke-linecap="round" stroke-linejoin="round"/>
<path d="M3423 2000.36H3423C3420.67 1998.56 3416.4 1997.12 3412.3 1997.12C3411.87 1997.12 3411.45 1997.14 3411.02 1997.17L3411.06 1996.75C3411.06 1996.75 3412.03 1993.51 3414.04 1993.13C3416.04 1992.74 3421.36 1996.77 3423 2000.36Z" fill="#300021"/>
<path d="M3399.3 2005.07C3399.3 2005.07 3405.02 2002.39 3406.78 1997.66C3408.52 1992.93 3410.82 1991.99 3410.82 1991.99" stroke="#300021" stroke-width="1.2" stroke-miterlimit="10" stroke-linecap="round"/>
<path d="M3400.01 2000.59C3400.01 2000.59 3403.64 1998.49 3404.53 1995.55C3405.41 1992.62 3406.92 1991.71 3406.92 1991.71" stroke="#300021" stroke-width="1.2" stroke-miterlimit="10" stroke-linecap="round"/>
<path d="M3425.64 1997.93C3426.65 1999.77 3427.27 2001.81 3427.45 2003.88" stroke="#300021" stroke-width="1.2" stroke-miterlimit="10" stroke-linecap="round"/>
<path d="M3428.86 1999.3C3429.37 2001.27 3429.54 2003.34 3429.37 2005.37" stroke="#300021" stroke-width="1.2" stroke-miterlimit="10" stroke-linecap="round"/>
<path d="M3403.42 2035.23C3403.42 2035.23 3398.71 2035.78 3395.03 2041.66L3403.99 2054.07C3404.86 2055.27 3406.58 2055.42 3407.64 2054.38L3411.99 2050.13L3403.42 2039.46V2035.23H3403.42Z" fill="#F7EFEE"/>
<path d="M3420.58 2035.23C3420.58 2035.23 3425.29 2035.78 3428.97 2041.66L3419.77 2054.4C3419.03 2055.42 3417.55 2055.55 3416.64 2054.66L3412 2050.13L3420.58 2039.46V2035.23Z" fill="#F7EFEE"/>
</g>
</g>
<path d="M3518.12 2003.83V2021.9H3513.62V2003.83H3518.12ZM3491.82 2013.01C3491.82 2008.44 3495.58 2005.28 3500.57 2005.28C3505.55 2005.28 3509.31 2008.44 3509.33 2013.01C3509.31 2017.4 3505.55 2020.64 3500.57 2020.64C3495.58 2020.64 3491.82 2017.4 3491.82 2013.01ZM3496.21 2013.01C3496.18 2015.38 3498.01 2016.88 3500.57 2016.88C3503.07 2016.88 3504.88 2015.38 3504.9 2013.01C3504.88 2010.5 3503.07 2009.04 3500.57 2009.04C3498.01 2009.04 3496.18 2010.5 3496.21 2013.01ZM3496.67 2035.44V2023.35H3518.12V2035.44H3496.67ZM3501.1 2031.85H3513.72V2026.9H3501.1V2031.85ZM3534.89 2011.04C3534.87 2016.91 3537.54 2022.8 3542.97 2025.1L3540.34 2028.69C3536.68 2027.04 3534.15 2023.84 3532.69 2019.88C3531.25 2024.21 3528.63 2027.69 3524.73 2029.46L3522.02 2025.74C3527.61 2023.38 3530.33 2017.25 3530.35 2011.04V2006.26H3534.89V2011.04ZM3544.7 2035.86V2003.8H3549.23V2035.86H3544.7ZM3562.48 2005.52C3565.03 2005.5 3567.27 2006.45 3568.79 2008.02H3576.05V2003.8H3580.52V2022.54H3576.05V2018.71H3568.76C3567.23 2020.25 3565.02 2021.18 3562.48 2021.17C3557.63 2021.18 3553.94 2017.88 3553.98 2013.36C3553.94 2008.79 3557.63 2005.5 3562.48 2005.52ZM3558.23 2013.36C3558.21 2015.82 3559.99 2017.39 3562.48 2017.37C3564.89 2017.39 3566.65 2015.82 3566.67 2013.36C3566.65 2010.81 3564.89 2009.34 3562.48 2009.35C3559.99 2009.34 3558.21 2010.81 3558.23 2013.36ZM3558.58 2029.5C3558.58 2025.53 3562.82 2023.19 3569.59 2023.21C3576.35 2023.19 3580.61 2025.53 3580.62 2029.5C3580.61 2033.47 3576.35 2035.81 3569.59 2035.79C3562.82 2035.81 3558.58 2033.47 3558.58 2029.5ZM3562.98 2029.5C3562.98 2031.36 3565.35 2032.31 3569.59 2032.31C3573.91 2032.31 3576.21 2031.36 3576.23 2029.5C3576.21 2027.58 3573.91 2026.63 3569.59 2026.62C3565.35 2026.63 3562.98 2027.58 3562.98 2029.5ZM3570.71 2011.57C3570.85 2012.13 3570.92 2012.75 3570.92 2013.36C3570.92 2013.98 3570.85 2014.56 3570.73 2015.12H3576.05V2011.57H3570.71ZM3619.54 2004.15V2021.9H3616.84V2004.15H3619.54ZM3595.74 2019.51V2006.01H3598.52V2017.16C3603.69 2017.12 3608.31 2016.77 3613.29 2015.72L3613.71 2018.04C3608.42 2019.11 3603.67 2019.48 3598.27 2019.51H3595.74ZM3599.26 2034.98V2023.35H3619.54V2034.98H3599.26ZM3601.96 2032.73H3616.84V2025.56H3601.96V2032.73Z" fill="#191F28"/>
<g clip-path="url(#clip3_2843_14368)">
<path d="M3690.8 2013.13L3697.84 2020.14L3690.8 2027.15" stroke="#6B7684" stroke-width="4" stroke-miterlimit="10" stroke-linecap="round" stroke-linejoin="round"/>
<path d="M3697.84 2020.14H3671.17" stroke="#6B7684" stroke-width="4" stroke-miterlimit="10" stroke-linecap="round" stroke-linejoin="round"/>
<path d="M3683.76 2030.53V2032.73C3683.76 2035.65 3681.34 2038.06 3678.41 2038.06H3661.46C3658.58 2038.06 3656.17 2035.65 3656.17 2032.73V2007.55C3656.17 2004.63 3658.58 2002.22 3661.51 2002.22H3678.47C3681.34 2002.22 3683.76 2004.63 3683.76 2007.55V2009.59" stroke="#6B7684" stroke-width="4" stroke-miterlimit="10" stroke-linecap="round" stroke-linejoin="round"/>
</g>
</g>
</g>
<defs>
<filter id="filter0_f_2843_14368" x="976" y="-176" width="4403" height="4403" filterUnits="userSpaceOnUse" color-interpolation-filters="sRGB">
<feFlood flood-opacity="0" result="BackgroundImageFix"/>
<feBlend mode="normal" in="SourceGraphic" in2="BackgroundImageFix" result="shape"/>
<feGaussianBlur stdDeviation="650" result="effect1_foregroundBlur_2843_14368"/>
</filter>
<filter id="filter1_f_2843_14368" x="-651.777" y="-721.777" width="3652.41" height="3652.41" filterUnits="userSpaceOnUse" color-interpolation-filters="sRGB">
<feFlood flood-opacity="0" result="BackgroundImageFix"/>
<feBlend mode="normal" in="SourceGraphic" in2="BackgroundImageFix" result="shape"/>
<feGaussianBlur stdDeviation="500" result="effect1_foregroundBlur_2843_14368"/>
</filter>
<filter id="filter2_d_2843_14368" x="3324" y="1930.06" width="466" height="200" filterUnits="userSpaceOnUse" color-interpolation-filters="sRGB">
<feFlood flood-opacity="0" result="BackgroundImageFix"/>
<feColorMatrix in="SourceAlpha" type="matrix" values="0 0 0 0 0 0 0 0 0 0 0 0 0 0 0 0 0 0 127 0" result="hardAlpha"/>
<feOffset dx="10" dy="10"/>
<feGaussianBlur stdDeviation="20"/>
<feComposite in2="hardAlpha" operator="out"/>
<feColorMatrix type="matrix" values="0 0 0 0 0 0 0 0 0 0 0 0 0 0 0 0 0 0 0.1 0"/>
<feBlend mode="normal" in2="BackgroundImageFix" result="effect1_dropShadow_2843_14368"/>
<feBlend mode="normal" in="SourceGraphic" in2="effect1_dropShadow_2843_14368" result="shape"/>
</filter>
<linearGradient id="paint0_linear_2843_14368" x1="2643.56" y1="-21.9375" x2="2387.66" y2="2274.41" gradientUnits="userSpaceOnUse">
<stop stop-color="#A1E7FA"/>
<stop offset="0.5" stop-color="white" stop-opacity="0.5"/>
<stop offset="1" stop-color="#FDBEE9"/>
</linearGradient>
<linearGradient id="paint1_linear_2843_14368" x1="1431.63" y1="356.53" x2="62.4159" y2="1505.86" gradientUnits="userSpaceOnUse">
<stop stop-color="white"/>
<stop offset="1" stop-color="white" stop-opacity="0"/>
</linearGradient>
<clipPath id="clip0_2843_14368">
<rect width="3840" height="2160" fill="white"/>
</clipPath>
<clipPath id="clip1_2843_14368">
<rect x="3364" y="1972.06" width="96" height="96" rx="48" fill="white"/>
</clipPath>
<clipPath id="clip2_2843_14368">
<rect width="76" height="84.51" fill="white" transform="translate(3374 1985.06)"/>
</clipPath>
<clipPath id="clip3_2843_14368">
<rect width="46" height="41" fill="white" transform="translate(3654 1999.56)"/>
</clipPath>
</defs>
</svg>
