<svg width="439" height="194" viewBox="0 0 439 194" fill="none" xmlns="http://www.w3.org/2000/svg">
<path d="M13.9893 19.1631H12.0752V3.69678H13.9893V19.1631ZM1.6333 10.2764C1.6333 9.18831 1.8042 8.23128 2.146 7.40527C2.48779 6.57926 2.96346 5.94409 3.573 5.49976C4.18823 5.04972 4.88607 4.82471 5.6665 4.82471C6.43555 4.82471 7.12484 5.04972 7.73438 5.49976C8.34961 5.94409 8.83097 6.57926 9.17847 7.40527C9.52596 8.23128 9.69971 9.18831 9.69971 10.2764C9.69971 11.3758 9.52596 12.3385 9.17847 13.1646C8.83097 13.9906 8.34961 14.6286 7.73438 15.0786C7.12484 15.5229 6.43555 15.7451 5.6665 15.7451C4.88607 15.7451 4.18823 15.5229 3.573 15.0786C2.96346 14.6286 2.48779 13.9906 2.146 13.1646C1.8042 12.3385 1.6333 11.3758 1.6333 10.2764ZM3.46191 10.2764C3.46191 11.0568 3.55306 11.729 3.73535 12.293C3.92334 12.8569 4.18254 13.287 4.51294 13.5833C4.84334 13.8795 5.22786 14.0304 5.6665 14.0361C6.09945 14.0304 6.48112 13.8795 6.81152 13.5833C7.14193 13.287 7.39827 12.8569 7.58057 12.293C7.76286 11.729 7.854 11.0568 7.854 10.2764C7.854 9.50163 7.76286 8.83512 7.58057 8.27686C7.39827 7.71289 7.14193 7.2828 6.81152 6.98657C6.48112 6.68465 6.09945 6.53369 5.6665 6.53369C5.22786 6.53369 4.84334 6.68465 4.51294 6.98657C4.18254 7.2828 3.92334 7.71289 3.73535 8.27686C3.55306 8.83512 3.46191 9.50163 3.46191 10.2764ZM29.9067 12.6519H15.8247V11.1309H19.106V9.17407C18.5135 8.92342 18.0606 8.60726 17.7473 8.22559C17.434 7.83822 17.2773 7.39388 17.2773 6.89258C17.2773 6.28304 17.5024 5.75895 17.9524 5.32031C18.4081 4.87598 19.0547 4.53703 19.8921 4.30347C20.7295 4.06991 21.715 3.95312 22.8486 3.95312C23.9823 3.95312 24.9649 4.06991 25.7966 4.30347C26.634 4.53703 27.2806 4.87598 27.7363 5.32031C28.1921 5.75895 28.4199 6.28304 28.4199 6.89258C28.4142 7.39388 28.2519 7.83822 27.9329 8.22559C27.6195 8.61296 27.1667 8.92912 26.5742 9.17407V11.1309H29.9067V12.6519ZM17.4653 16.3433C17.4653 15.7565 17.679 15.2581 18.1062 14.8479C18.5334 14.432 19.1487 14.1187 19.9519 13.908C20.7608 13.6915 21.7264 13.5861 22.8486 13.5918C23.9538 13.5861 24.9051 13.6915 25.7026 13.908C26.5059 14.1187 27.1211 14.432 27.5483 14.8479C27.9813 15.2581 28.1978 15.7565 28.1978 16.3433C28.1978 16.9357 27.9841 17.437 27.5569 17.8472C27.1296 18.263 26.5144 18.5763 25.7112 18.7871C24.9137 19.0036 23.9595 19.1118 22.8486 19.1118C21.7207 19.1118 20.7551 19.0036 19.9519 18.7871C19.1487 18.5763 18.5334 18.263 18.1062 17.8472C17.679 17.437 17.4653 16.9357 17.4653 16.3433ZM19.2598 6.89258C19.2541 7.354 19.556 7.71004 20.1655 7.96069C20.7808 8.20565 21.6552 8.32812 22.7888 8.32812C23.9623 8.32812 24.8652 8.20565 25.4976 7.96069C26.1356 7.71574 26.4546 7.3597 26.4546 6.89258C26.4546 6.42546 26.1413 6.06372 25.5146 5.80737C24.8937 5.55103 24.0221 5.42285 22.8999 5.42285C21.7321 5.42285 20.832 5.55103 20.1997 5.80737C19.5674 6.05802 19.2541 6.41976 19.2598 6.89258ZM19.3965 16.3433C19.3908 16.7762 19.6785 17.1066 20.2595 17.3345C20.8406 17.5623 21.6837 17.6763 22.7888 17.6763C23.9224 17.6763 24.7883 17.5652 25.3865 17.343C25.9903 17.1152 26.2951 16.7819 26.3008 16.3433C26.2951 15.916 25.996 15.5913 25.4036 15.3691C24.8111 15.147 23.9595 15.033 22.8486 15.0273C21.7207 15.033 20.8605 15.147 20.2681 15.3691C19.6813 15.5913 19.3908 15.916 19.3965 16.3433ZM24.6772 11.1309V9.66113C24.1019 9.74089 23.4924 9.78076 22.8486 9.78076C22.2049 9.78076 21.5954 9.74089 21.02 9.66113V11.1309H24.6772ZM36.3564 7.40527C36.3507 8.35661 36.5074 9.28231 36.8264 10.1824C37.1454 11.0824 37.6069 11.8828 38.2107 12.5835C38.8145 13.2842 39.5238 13.8083 40.3384 14.1558L39.2104 15.6768C38.3389 15.2723 37.5784 14.6855 36.929 13.9165C36.2852 13.1418 35.7811 12.2389 35.4165 11.2078C35.0519 12.3186 34.5364 13.2927 33.8699 14.1301C33.2091 14.9675 32.4201 15.6027 31.5029 16.0356L30.3408 14.4463C31.1782 14.0874 31.9045 13.5462 32.5198 12.8228C33.135 12.0936 33.605 11.259 33.9297 10.3191C34.2544 9.37915 34.4196 8.40788 34.4253 7.40527V4.94434H36.3564V7.40527ZM41.4492 3.69678H43.3633V19.1631H41.4492V3.69678ZM57.3838 8.14014H59.5371V9.72949H57.3838V14.8394H55.4526V3.69678H57.3838V8.14014ZM45.1475 11.729C46.3153 11.3929 47.3264 10.96 48.1809 10.4302C49.0354 9.90039 49.7076 9.2994 50.1975 8.6272C50.6931 7.9493 50.995 7.21729 51.1033 6.43115H45.7969V4.87598H53.1797C53.1797 6.23177 52.8949 7.45939 52.3252 8.55884C51.7555 9.65259 50.9295 10.5954 49.8472 11.3872C48.7648 12.1733 47.4603 12.7886 45.9336 13.2329L45.1475 11.729ZM47.4546 13.6943H49.3857V17.3003H57.9648V18.8384H47.4546V13.6943Z" fill="#191F28"/>
<path d="M3.125 30.375L30.7658 30.375" stroke="#191F28" stroke-width="1.97434" stroke-linecap="round"/>
<path d="M0.625 56.625C0.625 52.4829 3.98286 49.125 8.125 49.125H146.458V85.125H0.625V56.625Z" fill="#6B7684"/>
<path d="M70.3405 63.0479C70.3405 63.8267 70.3204 64.516 70.2801 65.1157C70.2443 65.711 70.1525 66.3869 70.0048 67.1433H71.737V68.1907H66.8627V73.2798H65.5736V68.1907H60.7665V67.1433H68.7157C68.8724 66.3869 68.9709 65.7133 69.0111 65.1224C69.0514 64.5316 69.0738 63.8401 69.0783 63.0479V63.0344H62.1093V61.9871H70.3405V63.0479ZM86.3168 68.5532H81.5365V70.7688H80.2743V68.5532H75.3061V67.5327H86.3168V68.5532ZM76.6757 69.7214H77.9379V71.9773H85.0949V73.0112H76.6757V69.7214ZM76.7563 61.6111H78.0185V63.0747H83.591V61.6111H84.8666V66.4719H76.7563V61.6111ZM83.591 65.4514V64.0281H78.0185V65.4514H83.591Z" fill="white"/>
<rect width="145.833" height="36" transform="translate(146.457 49.125)" fill="#6B7684"/>
<path d="M213.339 63.1418H212.184V66.7808C212.735 66.736 213.227 66.6868 213.662 66.6331L213.715 67.5999C212.681 67.761 211.582 67.8684 210.419 67.9221C209.255 67.9758 208.04 68.0027 206.773 68.0027L206.612 66.9419C207.243 66.9419 207.731 66.9397 208.076 66.9352V63.1418H206.948V62.1079H213.339V63.1418ZM208.532 71.0642C208.532 70.5987 208.693 70.2026 209.016 69.8759C209.338 69.5446 209.803 69.294 210.412 69.1239C211.025 68.9493 211.755 68.8621 212.601 68.8621C213.442 68.8621 214.167 68.9493 214.776 69.1239C215.389 69.294 215.857 69.5446 216.179 69.8759C216.506 70.2026 216.669 70.5987 216.669 71.0642C216.669 71.5208 216.506 71.9124 216.179 72.2391C215.853 72.5659 215.385 72.8143 214.776 72.9844C214.167 73.1545 213.442 73.2395 212.601 73.2395C211.755 73.2395 211.025 73.1545 210.412 72.9844C209.803 72.8143 209.338 72.5659 209.016 72.2391C208.693 71.9124 208.532 71.5208 208.532 71.0642ZM209.311 66.915C209.857 66.9016 210.408 66.8815 210.963 66.8546V63.1418H209.311V66.915ZM209.794 71.0642C209.79 71.4402 210.034 71.7334 210.526 71.9437C211.019 72.1496 211.71 72.2548 212.601 72.2593C213.487 72.2548 214.174 72.1496 214.662 71.9437C215.154 71.7334 215.403 71.4402 215.407 71.0642C215.403 70.6793 215.159 70.3816 214.675 70.1713C214.192 69.9609 213.514 69.8557 212.641 69.8557C211.732 69.8557 211.03 69.9609 210.533 70.1713C210.036 70.3772 209.79 70.6748 209.794 71.0642ZM213.514 65.5186H215.353V64.3503H213.514V63.3298H215.353V61.2351H216.629V68.6338H215.353V66.5391H213.514V65.5186ZM224.562 61.6379C225.162 61.6424 225.701 61.761 226.18 61.9938C226.659 62.222 227.035 62.5398 227.308 62.9471C227.581 63.3545 227.718 63.8177 227.718 64.3369C227.718 64.8561 227.581 65.3194 227.308 65.7267C227.035 66.134 226.659 66.4518 226.18 66.6801C225.701 66.9083 225.162 67.0225 224.562 67.0225C223.958 67.0225 223.414 66.9083 222.931 66.6801C222.452 66.4518 222.076 66.134 221.803 65.7267C221.53 65.3194 221.393 64.8561 221.393 64.3369C221.393 63.8177 221.53 63.3545 221.803 62.9471C222.076 62.5398 222.452 62.222 222.931 61.9938C223.414 61.761 223.958 61.6424 224.562 61.6379ZM222.642 64.3369C222.642 64.6637 222.723 64.9524 222.884 65.203C223.049 65.4492 223.278 65.6416 223.569 65.7804C223.864 65.9191 224.195 65.9885 224.562 65.9885C224.929 65.9885 225.258 65.9191 225.549 65.7804C225.84 65.6416 226.068 65.4492 226.234 65.203C226.4 64.9524 226.482 64.6637 226.482 64.3369C226.482 64.0146 226.4 63.7304 226.234 63.4843C226.068 63.2336 225.838 63.0411 225.542 62.9069C225.251 62.7726 224.925 62.7077 224.562 62.7122C224.195 62.7077 223.864 62.7726 223.569 62.9069C223.278 63.0411 223.049 63.2336 222.884 63.4843C222.723 63.7304 222.642 64.0146 222.642 64.3369ZM223.219 67.9087H231.128V70.9434H224.495V72.0981H231.531V73.1187H223.26V69.99H229.866V68.9292H223.219V67.9087ZM229.853 61.2351H231.128V67.3582H229.853V61.2351Z" fill="white"/>
<path d="M292.293 49.125H431.876C435.328 49.125 438.126 51.9232 438.126 55.375V85.125H292.293V49.125Z" fill="#6B7684"/>
<path d="M346.393 68.4189H342.754V70.7688H347.642V71.8162H336.631V70.7688H341.479V68.4189H338.014V62.1616H346.273V63.209H339.304V64.7532H346.017V65.7603H339.304V67.3984H346.393V68.4189ZM353.677 68.2175C353.506 68.2175 353.348 68.175 353.2 68.09C353.057 68.0049 352.94 67.8908 352.851 67.7476C352.766 67.6043 352.723 67.4477 352.723 67.2776C352.723 67.103 352.766 66.9419 352.851 66.7942C352.936 66.6465 353.05 66.5301 353.193 66.4451C353.341 66.3556 353.502 66.3108 353.677 66.3108C353.847 66.3108 354.003 66.3533 354.147 66.4384C354.294 66.5234 354.411 66.6398 354.496 66.7875C354.585 66.9352 354.63 67.0941 354.63 67.2642C354.63 67.4342 354.585 67.5931 354.496 67.7408C354.411 67.8841 354.294 68.0004 354.147 68.09C354.003 68.175 353.847 68.2175 353.677 68.2175ZM363.122 61.6379C363.721 61.6424 364.261 61.761 364.74 61.9938C365.219 62.222 365.595 62.5398 365.868 62.9471C366.141 63.3545 366.277 63.8177 366.277 64.3369C366.277 64.8561 366.141 65.3194 365.868 65.7267C365.595 66.134 365.219 66.4518 364.74 66.6801C364.261 66.9083 363.721 67.0225 363.122 67.0225C362.517 67.0225 361.974 66.9083 361.49 66.6801C361.011 66.4518 360.635 66.134 360.362 65.7267C360.089 65.3194 359.953 64.8561 359.953 64.3369C359.953 63.8177 360.089 63.3545 360.362 62.9471C360.635 62.5398 361.011 62.222 361.49 61.9938C361.974 61.761 362.517 61.6424 363.122 61.6379ZM361.201 64.3369C361.201 64.6637 361.282 64.9524 361.443 65.203C361.609 65.4492 361.837 65.6416 362.128 65.7804C362.423 65.9191 362.755 65.9885 363.122 65.9885C363.489 65.9885 363.818 65.9191 364.109 65.7804C364.4 65.6416 364.628 65.4492 364.793 65.203C364.959 64.9524 365.042 64.6637 365.042 64.3369C365.042 64.0146 364.959 63.7304 364.793 63.4843C364.628 63.2336 364.397 63.0411 364.102 62.9069C363.811 62.7726 363.484 62.7077 363.122 62.7122C362.755 62.7077 362.423 62.7726 362.128 62.9069C361.837 63.0411 361.609 63.2336 361.443 63.4843C361.282 63.7304 361.201 64.0146 361.201 64.3369ZM361.779 67.9087H369.688V70.9434H363.054V72.0981H370.091V73.1187H361.819V69.99H368.426V68.9292H361.779V67.9087ZM368.412 61.2351H369.688V67.3582H368.412V61.2351ZM382.262 71.7625H371.251V70.7017H373.883V67.5596C373.377 67.2821 372.985 66.9307 372.708 66.5055C372.43 66.0803 372.294 65.6036 372.298 65.0754C372.298 64.4533 372.486 63.905 372.862 63.4305C373.238 62.9561 373.762 62.5891 374.433 62.3295C375.109 62.0654 375.874 61.9333 376.729 61.9333C377.584 61.9333 378.35 62.0654 379.025 62.3295C379.701 62.5891 380.227 62.9561 380.603 63.4305C380.984 63.905 381.174 64.4533 381.174 65.0754C381.174 65.5991 381.04 66.0713 380.771 66.4921C380.502 66.9083 380.122 67.2552 379.63 67.5327V70.7017H382.262V71.7625ZM373.533 65.0754C373.533 65.5007 373.668 65.8744 373.936 66.1967C374.205 66.5189 374.581 66.7696 375.064 66.9486C375.548 67.1232 376.103 67.2104 376.729 67.2104C377.351 67.2104 377.904 67.1209 378.388 66.9419C378.875 66.7629 379.256 66.5144 379.529 66.1967C379.802 65.8744 379.939 65.5007 379.939 65.0754C379.939 64.6502 379.802 64.2787 379.529 63.9609C379.256 63.6387 378.875 63.3903 378.388 63.2157C377.904 63.0411 377.351 62.9539 376.729 62.9539C376.103 62.9539 375.548 63.0411 375.064 63.2157C374.581 63.3903 374.205 63.6387 373.936 63.9609C373.668 64.2787 373.533 64.6502 373.533 65.0754ZM378.341 70.7017V68.0295C377.839 68.1459 377.302 68.2041 376.729 68.2041C376.165 68.2041 375.637 68.1459 375.145 68.0295V70.7017H378.341ZM386.201 61.6379C386.801 61.6424 387.34 61.761 387.819 61.9938C388.298 62.222 388.674 62.5398 388.947 62.9471C389.22 63.3545 389.357 63.8177 389.357 64.3369C389.357 64.8561 389.22 65.3194 388.947 65.7267C388.674 66.134 388.298 66.4518 387.819 66.6801C387.34 66.9083 386.801 67.0225 386.201 67.0225C385.597 67.0225 385.053 66.9083 384.57 66.6801C384.091 66.4518 383.715 66.134 383.442 65.7267C383.169 65.3194 383.032 64.8561 383.032 64.3369C383.032 63.8177 383.169 63.3545 383.442 62.9471C383.715 62.5398 384.091 62.222 384.57 61.9938C385.053 61.761 385.597 61.6424 386.201 61.6379ZM384.281 64.3369C384.281 64.6637 384.362 64.9524 384.523 65.203C384.688 65.4492 384.917 65.6416 385.208 65.7804C385.503 65.9191 385.834 65.9885 386.201 65.9885C386.568 65.9885 386.897 65.9191 387.188 65.7804C387.479 65.6416 387.707 65.4492 387.873 65.203C388.039 64.9524 388.121 64.6637 388.121 64.3369C388.121 64.0146 388.039 63.7304 387.873 63.4843C387.707 63.2336 387.477 63.0411 387.181 62.9069C386.891 62.7726 386.564 62.7077 386.201 62.7122C385.834 62.7077 385.503 62.7726 385.208 62.9069C384.917 63.0411 384.688 63.2336 384.523 63.4843C384.362 63.7304 384.281 64.0146 384.281 64.3369ZM384.858 67.9087H392.767V70.9434H386.134V72.0981H393.17V73.1187H384.899V69.99H391.505V68.9292H384.858V67.9087ZM391.492 61.2351H392.767V67.3582H391.492V61.2351Z" fill="white"/>
<mask id="path-9-inside-1_3024_11315" fill="white">
<path d="M0.625 85.125H146.458V121.125H0.625V85.125Z"/>
</mask>
<path d="M0.625 85.125H146.458V121.125H0.625V85.125Z" fill="white"/>
<path d="M146.458 120.5H0.625V121.75H146.458V120.5Z" fill="#E5E8EB" mask="url(#path-9-inside-1_3024_11315)"/>
<path d="M32.8811 105.077H30.0882V109.266H28.7991V105.077H25.9256V109.266H24.6097V105.077H21.8704V104.03H32.8811V105.077ZM23.0655 100.35C23.0655 99.8177 23.2445 99.35 23.6026 98.9471C23.9651 98.5443 24.4687 98.2355 25.1132 98.0206C25.7622 97.8013 26.5074 97.6917 27.3489 97.6917C28.1904 97.6917 28.9356 97.8013 29.5846 98.0206C30.2336 98.2355 30.7372 98.5443 31.0953 98.9471C31.4533 99.35 31.6324 99.8177 31.6324 100.35C31.6324 100.878 31.4533 101.34 31.0953 101.733C30.7372 102.127 30.2336 102.432 29.5846 102.646C28.9356 102.857 28.1904 102.96 27.3489 102.955C26.5074 102.96 25.7622 102.857 25.1132 102.646C24.4687 102.432 23.9651 102.127 23.6026 101.733C23.2445 101.34 23.0655 100.878 23.0655 100.35ZM24.3814 100.35C24.3814 100.677 24.5022 100.961 24.7439 101.203C24.9901 101.44 25.337 101.624 25.7846 101.754C26.2367 101.883 26.7581 101.948 27.3489 101.948C27.9442 101.948 28.4657 101.883 28.9132 101.754C29.3608 101.624 29.7077 101.44 29.9539 101.203C30.2045 100.961 30.3299 100.677 30.3299 100.35C30.3299 100.015 30.2045 99.726 29.9539 99.4843C29.7077 99.2381 29.3608 99.0479 28.9132 98.9136C28.4657 98.7793 27.9442 98.7122 27.3489 98.7122C26.7536 98.7122 26.2322 98.7793 25.7846 98.9136C25.337 99.0479 24.9901 99.2381 24.7439 99.4843C24.5022 99.7304 24.3814 100.019 24.3814 100.35ZM36.6463 98.1348C37.2416 98.1348 37.772 98.3093 38.2375 98.6584C38.7074 99.0031 39.0745 99.4954 39.3385 100.135C39.6026 100.771 39.7347 101.51 39.7347 102.351C39.7347 103.201 39.6026 103.947 39.3385 104.587C39.0745 105.227 38.7097 105.719 38.2442 106.064C37.7787 106.408 37.2461 106.581 36.6463 106.581C36.0465 106.581 35.5139 106.408 35.0484 106.064C34.5829 105.719 34.2203 105.227 33.9607 104.587C33.7011 103.947 33.5713 103.201 33.5713 102.351C33.5713 101.51 33.7011 100.771 33.9607 100.135C34.2203 99.4954 34.5829 99.0031 35.0484 98.6584C35.5139 98.3093 36.0465 98.1348 36.6463 98.1348ZM34.7933 102.351C34.7933 102.978 34.8693 103.524 35.0215 103.989C35.1782 104.455 35.3975 104.813 35.6795 105.063C35.9615 105.314 36.2837 105.439 36.6463 105.439C37.0178 105.439 37.3445 105.316 37.6265 105.07C37.9085 104.82 38.1256 104.461 38.2777 103.996C38.4344 103.526 38.5127 102.978 38.5127 102.351C38.5127 101.729 38.4344 101.187 38.2777 100.726C38.1256 100.261 37.9085 99.9028 37.6265 99.6521C37.3445 99.4014 37.0178 99.2761 36.6463 99.2761C36.2837 99.2761 35.9615 99.4037 35.6795 99.6588C35.3975 99.9095 35.1782 100.268 35.0215 100.733C34.8693 101.194 34.7933 101.733 34.7933 102.351ZM41.5205 97.2351H42.7962V101.948H44.7298V103.022H42.7962V109.266H41.5205V97.2351ZM50.4688 104.218C50.2987 104.218 50.1398 104.175 49.9921 104.09C49.8489 104.005 49.7325 103.891 49.643 103.748C49.5579 103.604 49.5154 103.448 49.5154 103.278C49.5154 103.103 49.5579 102.942 49.643 102.794C49.728 102.646 49.8422 102.53 49.9854 102.445C50.1331 102.356 50.2942 102.311 50.4688 102.311C50.6389 102.311 50.7955 102.353 50.9388 102.438C51.0865 102.523 51.2028 102.64 51.2879 102.787C51.3774 102.935 51.4222 103.094 51.4222 103.264C51.4222 103.434 51.3774 103.593 51.2879 103.741C51.2028 103.884 51.0865 104 50.9388 104.09C50.7955 104.175 50.6389 104.218 50.4688 104.218ZM59.7662 98.1348C60.3077 98.1348 60.7956 98.2825 61.2298 98.5779C61.6639 98.8733 62.0153 99.2918 62.2839 99.8334C62.5569 100.375 62.7247 101.013 62.7874 101.747H65.2715V97.2351H66.5337V109.293H65.2715V102.781H62.8008C62.7561 103.555 62.5994 104.229 62.3308 104.802C62.0623 105.375 61.7065 105.815 61.2633 106.124C60.8202 106.429 60.3212 106.581 59.7662 106.581C59.1709 106.581 58.6405 106.408 58.175 106.064C57.7139 105.719 57.3536 105.227 57.094 104.587C56.8389 103.947 56.7136 103.201 56.7181 102.351C56.7136 101.51 56.8389 100.771 57.094 100.135C57.3536 99.4954 57.7139 99.0031 58.175 98.6584C58.6405 98.3093 59.1709 98.1348 59.7662 98.1348ZM57.9266 102.351C57.9266 102.978 58.0026 103.524 58.1548 103.989C58.3115 104.455 58.5286 104.813 58.8061 105.063C59.0836 105.314 59.4036 105.439 59.7662 105.439C60.1287 105.439 60.4487 105.314 60.7262 105.063C61.0037 104.813 61.2186 104.455 61.3708 103.989C61.5274 103.524 61.6058 102.978 61.6058 102.351C61.6058 101.733 61.5274 101.194 61.3708 100.733C61.2141 100.268 60.997 99.9095 60.7195 99.6588C60.4465 99.4037 60.1287 99.2761 59.7662 99.2761C59.4036 99.2761 59.0836 99.4037 58.8061 99.6588C58.533 99.9095 58.3182 100.268 58.1615 100.733C58.0049 101.194 57.9266 101.733 57.9266 102.351ZM78.0064 106.097H76.7442V97.2485H78.0064V106.097ZM68.6473 98.0811H74.1795V101.666H69.9229V103.398C71.1224 103.389 72.1295 103.358 72.9441 103.304C73.7587 103.251 74.5868 103.148 75.4283 102.996L75.5625 104.043C74.6674 104.2 73.7856 104.305 72.9173 104.359C72.0489 104.412 70.9703 104.441 69.6812 104.446H68.6741V100.699H72.9173V99.1016H68.6473V98.0811ZM70.0572 105.399H71.3328V107.977H78.3421V109.011H70.0572V105.399ZM89.5462 109.293H88.2705V97.2351H89.5462V109.293ZM79.9991 102.351C79.9991 101.51 80.1311 100.771 80.3952 100.135C80.6593 99.4954 81.0263 99.0031 81.4963 98.6584C81.9707 98.3093 82.51 98.1348 83.1143 98.1348C83.7096 98.1348 84.2422 98.3093 84.7122 98.6584C85.1822 99.0031 85.5492 99.4954 85.8133 100.135C86.0818 100.771 86.2161 101.51 86.2161 102.351C86.2161 103.201 86.0818 103.947 85.8133 104.587C85.5492 105.227 85.1822 105.719 84.7122 106.064C84.2422 106.408 83.7096 106.581 83.1143 106.581C82.51 106.581 81.9707 106.408 81.4963 106.064C81.0263 105.719 80.6593 105.227 80.3952 104.587C80.1311 103.947 79.9991 103.201 79.9991 102.351ZM81.2344 102.351C81.2344 102.978 81.3127 103.524 81.4694 103.989C81.6261 104.455 81.8454 104.813 82.1274 105.063C82.4138 105.314 82.7428 105.439 83.1143 105.439C83.4813 105.439 83.8058 105.314 84.0878 105.063C84.3698 104.813 84.5891 104.455 84.7458 103.989C84.9024 103.524 84.9808 102.978 84.9808 102.351C84.9808 101.733 84.9024 101.194 84.7458 100.733C84.5891 100.268 84.3698 99.9095 84.0878 99.6588C83.8058 99.4037 83.4813 99.2761 83.1143 99.2761C82.7428 99.2761 82.4138 99.4037 82.1274 99.6588C81.8454 99.9095 81.6261 100.268 81.4694 100.733C81.3127 101.194 81.2344 101.733 81.2344 102.351ZM95.312 100.78C95.312 101.411 95.4419 102.051 95.7015 102.7C95.9611 103.345 96.3236 103.931 96.7891 104.459C97.2591 104.983 97.7917 105.386 98.387 105.668L97.6619 106.661C96.9995 106.344 96.4086 105.869 95.8894 105.238C95.3702 104.602 94.9719 103.886 94.6944 103.09C94.4169 103.953 94.0073 104.732 93.4657 105.426C92.9286 106.115 92.3221 106.63 91.6463 106.97L90.8943 105.963C91.4896 105.677 92.0267 105.256 92.5057 104.701C92.9891 104.141 93.3673 103.517 93.6403 102.828C93.9133 102.134 94.0498 101.451 94.0498 100.78V99.5044H91.3374V98.4436H97.9305V99.5044H95.312V100.78ZM99.2195 97.2351H100.495V102.002H102.429V103.076H100.495V109.266H99.2195V97.2351ZM113.673 107.83H102.662V106.755H105.67V104.634H104.005V100.807H111.068V99.1284H103.978V98.0811H112.33V101.841H105.267V103.586H112.612V104.634H110.786V106.755H113.673V107.83ZM109.537 106.755V104.634H106.906V106.755H109.537ZM124.166 103.425H122.903V97.2351H124.166V103.425ZM114.242 102.351C114.856 102.145 115.391 101.845 115.847 101.451C116.308 101.058 116.659 100.603 116.901 100.089C117.147 99.5738 117.273 99.0389 117.277 98.4839V97.5574H118.58V98.4839C118.58 99.0165 118.7 99.5268 118.942 100.015C119.184 100.503 119.531 100.932 119.983 101.304C120.435 101.671 120.965 101.948 121.574 102.136L120.943 103.13C120.245 102.902 119.638 102.561 119.123 102.109C118.609 101.657 118.215 101.122 117.942 100.505C117.664 101.172 117.261 101.754 116.733 102.25C116.21 102.747 115.594 103.116 114.887 103.358L114.242 102.351ZM116.27 104.003H124.179V107.01H117.546V108.125H124.582V109.146H116.31V106.044H122.917V105.01H116.27V104.003Z" fill="#191F28"/>
<mask id="path-12-inside-2_3024_11315" fill="white">
<path d="M146.457 85.125H292.29V121.125H146.457V85.125Z"/>
</mask>
<path d="M146.457 85.125H292.29V121.125H146.457V85.125Z" fill="white"/>
<path d="M292.29 120.5H146.457V121.75H292.29V120.5Z" fill="#E5E8EB" mask="url(#path-12-inside-2_3024_11315)"/>
<path d="M180.589 108.259C179.81 108.259 179.141 108.065 178.582 107.675C178.022 107.281 177.595 106.711 177.299 105.963C177.004 105.216 176.856 104.316 176.856 103.264C176.856 102.217 177.004 101.319 177.299 100.572C177.599 99.8199 178.029 99.2493 178.588 98.8599C179.148 98.466 179.815 98.269 180.589 98.269C181.363 98.269 182.03 98.466 182.59 98.8599C183.149 99.2493 183.577 99.8199 183.872 100.572C184.172 101.319 184.322 102.217 184.322 103.264C184.322 104.316 184.172 105.218 183.872 105.97C183.577 106.717 183.149 107.286 182.59 107.675C182.035 108.065 181.368 108.259 180.589 108.259ZM178.615 103.264C178.615 104.414 178.787 105.29 179.132 105.889C179.481 106.489 179.967 106.791 180.589 106.796C180.996 106.791 181.348 106.657 181.643 106.393C181.939 106.129 182.165 105.733 182.321 105.204C182.482 104.676 182.563 104.03 182.563 103.264C182.563 102.503 182.482 101.859 182.321 101.331C182.165 100.798 181.939 100.397 181.643 100.129C181.348 99.8602 180.996 99.7237 180.589 99.7192C180.182 99.7237 179.83 99.8602 179.535 100.129C179.24 100.397 179.011 100.798 178.85 101.331C178.693 101.859 178.615 102.503 178.615 103.264ZM188.866 98.269C189.555 98.269 190.186 98.4212 190.759 98.7256C191.332 99.0255 191.798 99.5268 192.156 100.229C192.514 100.928 192.693 101.841 192.693 102.969C192.693 104.074 192.534 105.023 192.216 105.815C191.898 106.608 191.446 107.214 190.86 107.635C190.274 108.051 189.582 108.259 188.785 108.259C188.172 108.259 187.622 108.141 187.134 107.903C186.65 107.666 186.259 107.337 185.959 106.917C185.659 106.496 185.473 106.017 185.402 105.48H187.134C187.223 105.869 187.411 106.178 187.698 106.406C187.989 106.63 188.351 106.742 188.785 106.742C189.251 106.742 189.649 106.61 189.98 106.346C190.312 106.082 190.562 105.701 190.732 105.204C190.907 104.703 190.996 104.106 191.001 103.412H190.893C190.647 103.833 190.303 104.164 189.86 104.406C189.416 104.643 188.929 104.759 188.396 104.755C187.823 104.755 187.302 104.62 186.832 104.352C186.362 104.083 185.99 103.71 185.717 103.231C185.444 102.747 185.308 102.203 185.308 101.599C185.308 100.972 185.455 100.406 185.751 99.9005C186.051 99.3903 186.469 98.9919 187.006 98.7054C187.548 98.4145 188.168 98.269 188.866 98.269ZM187.013 101.532C187.013 101.881 187.091 102.201 187.248 102.492C187.409 102.779 187.631 103.007 187.913 103.177C188.199 103.342 188.521 103.425 188.879 103.425C189.228 103.425 189.548 103.34 189.839 103.17C190.135 103 190.365 102.772 190.531 102.485C190.701 102.199 190.786 101.89 190.786 101.559C190.786 101.232 190.703 100.925 190.538 100.639C190.377 100.348 190.153 100.115 189.866 99.9408C189.58 99.7662 189.26 99.679 188.906 99.679C188.548 99.679 188.226 99.7618 187.939 99.9274C187.653 100.093 187.427 100.317 187.261 100.599C187.096 100.881 187.013 101.192 187.013 101.532ZM194.873 106.917C194.685 106.917 194.511 106.87 194.35 106.776C194.189 106.682 194.061 106.554 193.967 106.393C193.873 106.232 193.826 106.057 193.826 105.869C193.826 105.686 193.873 105.516 193.967 105.359C194.061 105.198 194.189 105.07 194.35 104.976C194.511 104.882 194.685 104.835 194.873 104.835C195.057 104.835 195.227 104.882 195.384 104.976C195.545 105.07 195.672 105.198 195.766 105.359C195.86 105.516 195.907 105.686 195.907 105.869C195.907 106.057 195.86 106.232 195.766 106.393C195.672 106.554 195.545 106.682 195.384 106.776C195.227 106.87 195.057 106.917 194.873 106.917ZM194.873 101.707C194.685 101.707 194.511 101.66 194.35 101.566C194.189 101.472 194.061 101.344 193.967 101.183C193.873 101.022 193.826 100.847 193.826 100.659C193.826 100.476 193.873 100.306 193.967 100.149C194.061 99.9878 194.189 99.8602 194.35 99.7662C194.511 99.6722 194.685 99.6252 194.873 99.6252C195.057 99.6252 195.227 99.6722 195.384 99.7662C195.545 99.8602 195.672 99.9878 195.766 100.149C195.86 100.306 195.907 100.476 195.907 100.659C195.907 100.847 195.86 101.022 195.766 101.183C195.672 101.344 195.545 101.472 195.384 101.566C195.227 101.66 195.057 101.707 194.873 101.707ZM200.787 108.259C200.008 108.259 199.339 108.065 198.78 107.675C198.22 107.281 197.793 106.711 197.497 105.963C197.202 105.216 197.054 104.316 197.054 103.264C197.054 102.217 197.202 101.319 197.497 100.572C197.797 99.8199 198.227 99.2493 198.786 98.8599C199.346 98.466 200.013 98.269 200.787 98.269C201.561 98.269 202.228 98.466 202.788 98.8599C203.347 99.2493 203.775 99.8199 204.07 100.572C204.37 101.319 204.52 102.217 204.52 103.264C204.52 104.316 204.37 105.218 204.07 105.97C203.775 106.717 203.347 107.286 202.788 107.675C202.233 108.065 201.566 108.259 200.787 108.259ZM198.813 103.264C198.813 104.414 198.985 105.29 199.33 105.889C199.679 106.489 200.165 106.791 200.787 106.796C201.194 106.791 201.546 106.657 201.841 106.393C202.137 106.129 202.363 105.733 202.519 105.204C202.68 104.676 202.761 104.03 202.761 103.264C202.761 102.503 202.68 101.859 202.519 101.331C202.363 100.798 202.137 100.397 201.841 100.129C201.546 99.8602 201.194 99.7237 200.787 99.7192C200.38 99.7237 200.028 99.8602 199.733 100.129C199.438 100.397 199.209 100.798 199.048 101.331C198.891 101.859 198.813 102.503 198.813 103.264ZM209.225 108.259C208.446 108.259 207.777 108.065 207.218 107.675C206.658 107.281 206.231 106.711 205.935 105.963C205.64 105.216 205.492 104.316 205.492 103.264C205.492 102.217 205.64 101.319 205.935 100.572C206.235 99.8199 206.665 99.2493 207.224 98.8599C207.784 98.466 208.451 98.269 209.225 98.269C209.999 98.269 210.666 98.466 211.226 98.8599C211.785 99.2493 212.213 99.8199 212.508 100.572C212.808 101.319 212.958 102.217 212.958 103.264C212.958 104.316 212.808 105.218 212.508 105.97C212.213 106.717 211.785 107.286 211.226 107.675C210.671 108.065 210.004 108.259 209.225 108.259ZM207.251 103.264C207.251 104.414 207.423 105.29 207.768 105.889C208.117 106.489 208.603 106.791 209.225 106.796C209.632 106.791 209.984 106.657 210.279 106.393C210.575 106.129 210.801 105.733 210.957 105.204C211.118 104.676 211.199 104.03 211.199 103.264C211.199 102.503 211.118 101.859 210.957 101.331C210.801 100.798 210.575 100.397 210.279 100.129C209.984 99.8602 209.632 99.7237 209.225 99.7192C208.818 99.7237 208.466 99.8602 208.171 100.129C207.876 100.397 207.647 100.798 207.486 101.331C207.329 101.859 207.251 102.503 207.251 103.264ZM217.48 102.902C217.932 102.409 218.479 102.163 219.119 102.163C219.356 102.163 219.584 102.194 219.803 102.257C220.027 102.32 220.309 102.414 220.649 102.539C220.981 102.664 221.258 102.758 221.482 102.821C221.706 102.884 221.934 102.915 222.167 102.915C222.48 102.915 222.771 102.852 223.039 102.727C223.313 102.597 223.554 102.405 223.765 102.15V103.613C223.313 104.106 222.766 104.352 222.126 104.352C221.889 104.352 221.656 104.32 221.428 104.258C221.2 104.195 220.922 104.101 220.596 103.976C220.264 103.851 219.987 103.757 219.763 103.694C219.539 103.631 219.311 103.6 219.078 103.6C218.438 103.6 217.906 103.855 217.48 104.365V102.902ZM232.382 108.125H230.623V100.109H230.57L228.3 101.559V99.9609L230.704 98.4033H232.382V108.125ZM237.934 108.259C237.222 108.259 236.584 108.143 236.02 107.91C235.461 107.673 235.024 107.346 234.711 106.93C234.398 106.514 234.241 106.044 234.241 105.52C234.241 105.117 234.33 104.741 234.509 104.392C234.693 104.043 234.944 103.754 235.261 103.526C235.584 103.298 235.937 103.152 236.322 103.09V103.036C235.986 102.964 235.689 102.826 235.429 102.62C235.17 102.414 234.966 102.159 234.818 101.854C234.675 101.55 234.603 101.223 234.603 100.874C234.603 100.377 234.747 99.9318 235.033 99.538C235.324 99.1396 235.722 98.8285 236.228 98.6047C236.734 98.3809 237.302 98.269 237.934 98.269C238.56 98.269 239.126 98.3809 239.632 98.6047C240.138 98.8285 240.534 99.1396 240.82 99.538C241.107 99.9363 241.25 100.382 241.25 100.874C241.25 101.223 241.176 101.55 241.029 101.854C240.885 102.159 240.682 102.414 240.418 102.62C240.158 102.826 239.863 102.964 239.531 103.036V103.09C239.916 103.152 240.268 103.298 240.585 103.526C240.903 103.754 241.156 104.043 241.344 104.392C241.532 104.741 241.626 105.117 241.626 105.52C241.626 106.044 241.467 106.514 241.149 106.93C240.832 107.346 240.393 107.673 239.834 107.91C239.274 108.143 238.641 108.259 237.934 108.259ZM236.04 105.359C236.04 105.659 236.116 105.923 236.268 106.151C236.425 106.379 236.647 106.558 236.933 106.688C237.22 106.814 237.553 106.876 237.934 106.876C238.309 106.876 238.638 106.814 238.92 106.688C239.207 106.558 239.428 106.379 239.585 106.151C239.746 105.923 239.827 105.659 239.827 105.359C239.827 105.059 239.744 104.788 239.578 104.547C239.417 104.305 239.191 104.117 238.9 103.983C238.614 103.844 238.292 103.774 237.934 103.774C237.575 103.774 237.251 103.842 236.96 103.976C236.669 104.11 236.443 104.298 236.282 104.54C236.121 104.781 236.04 105.055 236.04 105.359ZM236.309 101.035C236.309 101.317 236.378 101.568 236.517 101.787C236.656 102.002 236.848 102.17 237.094 102.291C237.34 102.411 237.62 102.472 237.934 102.472C238.242 102.472 238.518 102.411 238.759 102.291C239.005 102.17 239.198 102.002 239.337 101.787C239.475 101.568 239.545 101.317 239.545 101.035C239.545 100.762 239.475 100.52 239.337 100.31C239.202 100.1 239.012 99.9363 238.766 99.8199C238.524 99.6991 238.247 99.6387 237.934 99.6387C237.611 99.6387 237.327 99.6991 237.081 99.8199C236.839 99.9363 236.649 100.1 236.51 100.31C236.376 100.52 236.309 100.762 236.309 101.035ZM243.807 106.917C243.619 106.917 243.444 106.87 243.283 106.776C243.122 106.682 242.994 106.554 242.9 106.393C242.806 106.232 242.759 106.057 242.759 105.869C242.759 105.686 242.806 105.516 242.9 105.359C242.994 105.198 243.122 105.07 243.283 104.976C243.444 104.882 243.619 104.835 243.807 104.835C243.99 104.835 244.16 104.882 244.317 104.976C244.478 105.07 244.606 105.198 244.7 105.359C244.794 105.516 244.841 105.686 244.841 105.869C244.841 106.057 244.794 106.232 244.7 106.393C244.606 106.554 244.478 106.682 244.317 106.776C244.16 106.87 243.99 106.917 243.807 106.917ZM243.807 101.707C243.619 101.707 243.444 101.66 243.283 101.566C243.122 101.472 242.994 101.344 242.9 101.183C242.806 101.022 242.759 100.847 242.759 100.659C242.759 100.476 242.806 100.306 242.9 100.149C242.994 99.9878 243.122 99.8602 243.283 99.7662C243.444 99.6722 243.619 99.6252 243.807 99.6252C243.99 99.6252 244.16 99.6722 244.317 99.7662C244.478 99.8602 244.606 99.9878 244.7 100.149C244.794 100.306 244.841 100.476 244.841 100.659C244.841 100.847 244.794 101.022 244.7 101.183C244.606 101.344 244.478 101.472 244.317 101.566C244.16 101.66 243.99 101.707 243.807 101.707ZM249.72 108.259C248.942 108.259 248.272 108.065 247.713 107.675C247.153 107.281 246.726 106.711 246.431 105.963C246.135 105.216 245.987 104.316 245.987 103.264C245.987 102.217 246.135 101.319 246.431 100.572C246.73 99.8199 247.16 99.2493 247.72 98.8599C248.279 98.466 248.946 98.269 249.72 98.269C250.495 98.269 251.162 98.466 251.721 98.8599C252.281 99.2493 252.708 99.8199 253.003 100.572C253.303 101.319 253.453 102.217 253.453 103.264C253.453 104.316 253.303 105.218 253.003 105.97C252.708 106.717 252.281 107.286 251.721 107.675C251.166 108.065 250.499 108.259 249.72 108.259ZM247.747 103.264C247.747 104.414 247.919 105.29 248.263 105.889C248.613 106.489 249.098 106.791 249.72 106.796C250.128 106.791 250.479 106.657 250.774 106.393C251.07 106.129 251.296 105.733 251.453 105.204C251.614 104.676 251.694 104.03 251.694 103.264C251.694 102.503 251.614 101.859 251.453 101.331C251.296 100.798 251.07 100.397 250.774 100.129C250.479 99.8602 250.128 99.7237 249.72 99.7192C249.313 99.7237 248.962 99.8602 248.666 100.129C248.371 100.397 248.143 100.798 247.981 101.331C247.825 101.859 247.747 102.503 247.747 103.264ZM258.158 108.259C257.38 108.259 256.71 108.065 256.151 107.675C255.591 107.281 255.164 106.711 254.869 105.963C254.573 105.216 254.425 104.316 254.425 103.264C254.425 102.217 254.573 101.319 254.869 100.572C255.168 99.8199 255.598 99.2493 256.158 98.8599C256.717 98.466 257.384 98.269 258.158 98.269C258.933 98.269 259.6 98.466 260.159 98.8599C260.719 99.2493 261.146 99.8199 261.441 100.572C261.741 101.319 261.891 102.217 261.891 103.264C261.891 104.316 261.741 105.218 261.441 105.97C261.146 106.717 260.719 107.286 260.159 107.675C259.604 108.065 258.937 108.259 258.158 108.259ZM256.184 103.264C256.184 104.414 256.357 105.29 256.701 105.889C257.051 106.489 257.536 106.791 258.158 106.796C258.566 106.791 258.917 106.657 259.212 106.393C259.508 106.129 259.734 105.733 259.891 105.204C260.052 104.676 260.132 104.03 260.132 103.264C260.132 102.503 260.052 101.859 259.891 101.331C259.734 100.798 259.508 100.397 259.212 100.129C258.917 99.8602 258.566 99.7237 258.158 99.7192C257.751 99.7237 257.4 99.8602 257.104 100.129C256.809 100.397 256.581 100.798 256.419 101.331C256.263 101.859 256.184 102.503 256.184 103.264Z" fill="#191F28"/>
<mask id="path-15-inside-3_3024_11315" fill="white">
<path d="M292.293 85.125H438.126V121.125H292.293V85.125Z"/>
</mask>
<path d="M292.293 85.125H438.126V121.125H292.293V85.125Z" fill="white"/>
<path d="M438.126 120.5H292.293V121.75H438.126V120.5Z" fill="#E5E8EB" mask="url(#path-15-inside-3_3024_11315)"/>
<path d="M327.09 108.259C326.311 108.259 325.642 108.065 325.082 107.675C324.523 107.281 324.095 106.711 323.8 105.963C323.504 105.216 323.357 104.316 323.357 103.264C323.357 102.217 323.504 101.319 323.8 100.572C324.1 99.8199 324.529 99.2493 325.089 98.8599C325.648 98.466 326.315 98.269 327.09 98.269C327.864 98.269 328.531 98.466 329.09 98.8599C329.65 99.2493 330.077 99.8199 330.373 100.572C330.673 101.319 330.823 102.217 330.823 103.264C330.823 104.316 330.673 105.218 330.373 105.97C330.077 106.717 329.65 107.286 329.09 107.675C328.535 108.065 327.868 108.259 327.09 108.259ZM325.116 103.264C325.116 104.414 325.288 105.29 325.633 105.889C325.982 106.489 326.467 106.791 327.09 106.796C327.497 106.791 327.848 106.657 328.144 106.393C328.439 106.129 328.665 105.733 328.822 105.204C328.983 104.676 329.064 104.03 329.064 103.264C329.064 102.503 328.983 101.859 328.822 101.331C328.665 100.798 328.439 100.397 328.144 100.129C327.848 99.8602 327.497 99.7237 327.09 99.7192C326.682 99.7237 326.331 99.8602 326.036 100.129C325.74 100.397 325.512 100.798 325.351 101.331C325.194 101.859 325.116 102.503 325.116 103.264ZM335.367 98.269C336.056 98.269 336.687 98.4212 337.26 98.7256C337.833 99.0255 338.298 99.5268 338.656 100.229C339.014 100.928 339.193 101.841 339.193 102.969C339.193 104.074 339.035 105.023 338.717 105.815C338.399 106.608 337.947 107.214 337.361 107.635C336.774 108.051 336.083 108.259 335.286 108.259C334.673 108.259 334.122 108.141 333.634 107.903C333.151 107.666 332.759 107.337 332.459 106.917C332.16 106.496 331.974 106.017 331.902 105.48H333.634C333.724 105.869 333.912 106.178 334.198 106.406C334.489 106.63 334.852 106.742 335.286 106.742C335.751 106.742 336.15 106.61 336.481 106.346C336.812 106.082 337.063 105.701 337.233 105.204C337.408 104.703 337.497 104.106 337.502 103.412H337.394C337.148 103.833 336.803 104.164 336.36 104.406C335.917 104.643 335.429 104.759 334.897 104.755C334.324 104.755 333.802 104.62 333.332 104.352C332.862 104.083 332.491 103.71 332.218 103.231C331.945 102.747 331.808 102.203 331.808 101.599C331.808 100.972 331.956 100.406 332.251 99.9005C332.551 99.3903 332.97 98.9919 333.507 98.7054C334.048 98.4145 334.668 98.269 335.367 98.269ZM333.513 101.532C333.513 101.881 333.592 102.201 333.748 102.492C333.91 102.779 334.131 103.007 334.413 103.177C334.7 103.342 335.022 103.425 335.38 103.425C335.729 103.425 336.049 103.34 336.34 103.17C336.635 103 336.866 102.772 337.032 102.485C337.202 102.199 337.287 101.89 337.287 101.559C337.287 101.232 337.204 100.925 337.038 100.639C336.877 100.348 336.653 100.115 336.367 99.9408C336.08 99.7662 335.76 99.679 335.407 99.679C335.049 99.679 334.726 99.7618 334.44 99.9274C334.154 100.093 333.927 100.317 333.762 100.599C333.596 100.881 333.513 101.192 333.513 101.532ZM341.374 106.917C341.186 106.917 341.012 106.87 340.85 106.776C340.689 106.682 340.562 106.554 340.468 106.393C340.374 106.232 340.327 106.057 340.327 105.869C340.327 105.686 340.374 105.516 340.468 105.359C340.562 105.198 340.689 105.07 340.85 104.976C341.012 104.882 341.186 104.835 341.374 104.835C341.558 104.835 341.728 104.882 341.884 104.976C342.045 105.07 342.173 105.198 342.267 105.359C342.361 105.516 342.408 105.686 342.408 105.869C342.408 106.057 342.361 106.232 342.267 106.393C342.173 106.554 342.045 106.682 341.884 106.776C341.728 106.87 341.558 106.917 341.374 106.917ZM341.374 101.707C341.186 101.707 341.012 101.66 340.85 101.566C340.689 101.472 340.562 101.344 340.468 101.183C340.374 101.022 340.327 100.847 340.327 100.659C340.327 100.476 340.374 100.306 340.468 100.149C340.562 99.9878 340.689 99.8602 340.85 99.7662C341.012 99.6722 341.186 99.6252 341.374 99.6252C341.558 99.6252 341.728 99.6722 341.884 99.7662C342.045 99.8602 342.173 99.9878 342.267 100.149C342.361 100.306 342.408 100.476 342.408 100.659C342.408 100.847 342.361 101.022 342.267 101.183C342.173 101.344 342.045 101.472 341.884 101.566C341.728 101.66 341.558 101.707 341.374 101.707ZM347.288 108.259C346.509 108.259 345.84 108.065 345.28 107.675C344.721 107.281 344.293 106.711 343.998 105.963C343.702 105.216 343.555 104.316 343.555 103.264C343.555 102.217 343.702 101.319 343.998 100.572C344.298 99.8199 344.727 99.2493 345.287 98.8599C345.846 98.466 346.513 98.269 347.288 98.269C348.062 98.269 348.729 98.466 349.288 98.8599C349.848 99.2493 350.275 99.8199 350.571 100.572C350.871 101.319 351.021 102.217 351.021 103.264C351.021 104.316 350.871 105.218 350.571 105.97C350.275 106.717 349.848 107.286 349.288 107.675C348.733 108.065 348.066 108.259 347.288 108.259ZM345.314 103.264C345.314 104.414 345.486 105.29 345.831 105.889C346.18 106.489 346.665 106.791 347.288 106.796C347.695 106.791 348.046 106.657 348.342 106.393C348.637 106.129 348.863 105.733 349.02 105.204C349.181 104.676 349.262 104.03 349.262 103.264C349.262 102.503 349.181 101.859 349.02 101.331C348.863 100.798 348.637 100.397 348.342 100.129C348.046 99.8602 347.695 99.7237 347.288 99.7192C346.88 99.7237 346.529 99.8602 346.234 100.129C345.938 100.397 345.71 100.798 345.549 101.331C345.392 101.859 345.314 102.503 345.314 103.264ZM355.726 108.259C354.947 108.259 354.278 108.065 353.718 107.675C353.159 107.281 352.731 106.711 352.436 105.963C352.14 105.216 351.993 104.316 351.993 103.264C351.993 102.217 352.14 101.319 352.436 100.572C352.736 99.8199 353.165 99.2493 353.725 98.8599C354.284 98.466 354.951 98.269 355.726 98.269C356.5 98.269 357.167 98.466 357.726 98.8599C358.286 99.2493 358.713 99.8199 359.009 100.572C359.309 101.319 359.459 102.217 359.459 103.264C359.459 104.316 359.309 105.218 359.009 105.97C358.713 106.717 358.286 107.286 357.726 107.675C357.171 108.065 356.504 108.259 355.726 108.259ZM353.752 103.264C353.752 104.414 353.924 105.29 354.269 105.889C354.618 106.489 355.103 106.791 355.726 106.796C356.133 106.791 356.484 106.657 356.78 106.393C357.075 106.129 357.301 105.733 357.458 105.204C357.619 104.676 357.7 104.03 357.7 103.264C357.7 102.503 357.619 101.859 357.458 101.331C357.301 100.798 357.075 100.397 356.78 100.129C356.484 99.8602 356.133 99.7237 355.726 99.7192C355.318 99.7237 354.967 99.8602 354.672 100.129C354.376 100.397 354.148 100.798 353.987 101.331C353.83 101.859 353.752 102.503 353.752 103.264ZM363.981 102.902C364.433 102.409 364.979 102.163 365.619 102.163C365.856 102.163 366.085 102.194 366.304 102.257C366.528 102.32 366.81 102.414 367.15 102.539C367.481 102.664 367.759 102.758 367.982 102.821C368.206 102.884 368.435 102.915 368.667 102.915C368.981 102.915 369.272 102.852 369.54 102.727C369.813 102.597 370.055 102.405 370.265 102.15V103.613C369.813 104.106 369.267 104.352 368.627 104.352C368.39 104.352 368.157 104.32 367.929 104.258C367.7 104.195 367.423 104.101 367.096 103.976C366.765 103.851 366.488 103.757 366.264 103.694C366.04 103.631 365.812 103.6 365.579 103.6C364.939 103.6 364.406 103.855 363.981 104.365V102.902ZM378.883 108.125H377.124V100.109H377.07L374.801 101.559V99.9609L377.205 98.4033H378.883V108.125ZM385.481 99.9341V99.8669H380.594V98.4033H387.294V99.8938L383.078 108.125H381.265L385.481 99.9341ZM388.978 106.917C388.79 106.917 388.616 106.87 388.454 106.776C388.293 106.682 388.166 106.554 388.072 106.393C387.978 106.232 387.931 106.057 387.931 105.869C387.931 105.686 387.978 105.516 388.072 105.359C388.166 105.198 388.293 105.07 388.454 104.976C388.616 104.882 388.79 104.835 388.978 104.835C389.162 104.835 389.332 104.882 389.488 104.976C389.649 105.07 389.777 105.198 389.871 105.359C389.965 105.516 390.012 105.686 390.012 105.869C390.012 106.057 389.965 106.232 389.871 106.393C389.777 106.554 389.649 106.682 389.488 106.776C389.332 106.87 389.162 106.917 388.978 106.917ZM388.978 101.707C388.79 101.707 388.616 101.66 388.454 101.566C388.293 101.472 388.166 101.344 388.072 101.183C387.978 101.022 387.931 100.847 387.931 100.659C387.931 100.476 387.978 100.306 388.072 100.149C388.166 99.9878 388.293 99.8602 388.454 99.7662C388.616 99.6722 388.79 99.6252 388.978 99.6252C389.162 99.6252 389.332 99.6722 389.488 99.7662C389.649 99.8602 389.777 99.9878 389.871 100.149C389.965 100.306 390.012 100.476 390.012 100.659C390.012 100.847 389.965 101.022 389.871 101.183C389.777 101.344 389.649 101.472 389.488 101.566C389.332 101.66 389.162 101.707 388.978 101.707ZM394.892 108.259C394.113 108.259 393.444 108.065 392.884 107.675C392.325 107.281 391.897 106.711 391.602 105.963C391.306 105.216 391.159 104.316 391.159 103.264C391.159 102.217 391.306 101.319 391.602 100.572C391.902 99.8199 392.331 99.2493 392.891 98.8599C393.45 98.466 394.117 98.269 394.892 98.269C395.666 98.269 396.333 98.466 396.892 98.8599C397.452 99.2493 397.879 99.8199 398.175 100.572C398.475 101.319 398.625 102.217 398.625 103.264C398.625 104.316 398.475 105.218 398.175 105.97C397.879 106.717 397.452 107.286 396.892 107.675C396.337 108.065 395.67 108.259 394.892 108.259ZM392.918 103.264C392.918 104.414 393.09 105.29 393.435 105.889C393.784 106.489 394.269 106.791 394.892 106.796C395.299 106.791 395.65 106.657 395.946 106.393C396.241 106.129 396.467 105.733 396.624 105.204C396.785 104.676 396.866 104.03 396.866 103.264C396.866 102.503 396.785 101.859 396.624 101.331C396.467 100.798 396.241 100.397 395.946 100.129C395.65 99.8602 395.299 99.7237 394.892 99.7192C394.484 99.7237 394.133 99.8602 393.838 100.129C393.542 100.397 393.314 100.798 393.153 101.331C392.996 101.859 392.918 102.503 392.918 103.264ZM403.33 108.259C402.551 108.259 401.882 108.065 401.322 107.675C400.763 107.281 400.335 106.711 400.04 105.963C399.744 105.216 399.597 104.316 399.597 103.264C399.597 102.217 399.744 101.319 400.04 100.572C400.34 99.8199 400.769 99.2493 401.329 98.8599C401.888 98.466 402.555 98.269 403.33 98.269C404.104 98.269 404.771 98.466 405.33 98.8599C405.89 99.2493 406.317 99.8199 406.613 100.572C406.913 101.319 407.063 102.217 407.063 103.264C407.063 104.316 406.913 105.218 406.613 105.97C406.317 106.717 405.89 107.286 405.33 107.675C404.775 108.065 404.108 108.259 403.33 108.259ZM401.356 103.264C401.356 104.414 401.528 105.29 401.873 105.889C402.222 106.489 402.707 106.791 403.33 106.796C403.737 106.791 404.088 106.657 404.384 106.393C404.679 106.129 404.905 105.733 405.062 105.204C405.223 104.676 405.304 104.03 405.304 103.264C405.304 102.503 405.223 101.859 405.062 101.331C404.905 100.798 404.679 100.397 404.384 100.129C404.088 99.8602 403.737 99.7237 403.33 99.7192C402.922 99.7237 402.571 99.8602 402.276 100.129C401.98 100.397 401.752 100.798 401.591 101.331C401.434 101.859 401.356 102.503 401.356 103.264Z" fill="#191F28"/>
<mask id="path-18-inside-4_3024_11315" fill="white">
<path d="M0.625 121.125H438.125V157.125H0.625V121.125Z"/>
</mask>
<path d="M438.125 156.5H0.625V157.75H438.125V156.5Z" fill="#E5E8EB" mask="url(#path-18-inside-4_3024_11315)"/>
<mask id="path-20-inside-5_3024_11315" fill="white">
<path d="M0.625 121.125H146.458V157.125H0.625V121.125Z"/>
</mask>
<path d="M0.625 121.125H146.458V157.125H0.625V121.125Z" fill="white"/>
<path d="M146.458 156.5H0.625V157.75H146.458V156.5Z" fill="#E5E8EB" mask="url(#path-20-inside-5_3024_11315)"/>
<path d="M51.073 139.143H55.9339V140.191H44.9634V139.143H49.8108V137.519H51.073V139.143ZM45.5274 137.143C46.248 137.071 46.906 136.923 47.5013 136.699C48.0966 136.476 48.5777 136.2 48.9447 135.874C49.3118 135.542 49.5244 135.187 49.5826 134.806H45.9705V133.786H54.9537V134.806H51.3013C51.3595 135.187 51.5721 135.542 51.9391 135.874C52.3106 136.2 52.794 136.476 53.3893 136.699C53.9891 136.923 54.6493 137.071 55.3699 137.143L54.9134 138.15C54.2151 138.069 53.5661 137.924 52.9663 137.713C52.3711 137.498 51.8541 137.228 51.4154 136.901C50.9813 136.57 50.6568 136.196 50.4419 135.78C50.1152 136.406 49.5557 136.928 48.7635 137.344C47.9712 137.76 47.0447 138.029 45.9839 138.15L45.5274 137.143ZM46.2659 143.158C46.2659 142.711 46.4315 142.33 46.7627 142.017C47.094 141.704 47.5706 141.466 48.1928 141.305C48.8194 141.144 49.5691 141.063 50.4419 141.063C51.3058 141.063 52.0465 141.144 52.6642 141.305C53.2864 141.466 53.7631 141.704 54.0943 142.017C54.4255 142.33 54.5911 142.711 54.5911 143.158C54.5911 143.601 54.4255 143.98 54.0943 144.293C53.7631 144.606 53.2864 144.841 52.6642 144.998C52.0465 145.159 51.3058 145.24 50.4419 145.24C49.5691 145.24 48.8194 145.159 48.1928 144.998C47.5706 144.841 47.094 144.606 46.7627 144.293C46.4315 143.98 46.2659 143.601 46.2659 143.158ZM47.555 143.158C47.5505 143.516 47.7967 143.792 48.2935 143.984C48.7948 144.176 49.5109 144.273 50.4419 144.273C51.3595 144.273 52.0667 144.176 52.5635 143.984C53.0648 143.792 53.3155 143.516 53.3155 143.158C53.3155 142.8 53.0671 142.527 52.5702 142.339C52.0734 142.147 51.364 142.048 50.4419 142.044C49.5109 142.048 48.7948 142.147 48.2935 142.339C47.7967 142.527 47.5505 142.8 47.555 143.158ZM65.9563 136.256H67.7019V137.331H65.9563V140.244H64.6807V133.235H65.9563V136.256ZM56.5166 134.417H59.4707V133.128H60.7464V134.417H63.687V135.437H56.5166V134.417ZM57.1746 138.042C57.1746 137.622 57.2954 137.252 57.5371 136.934C57.7788 136.612 58.1213 136.366 58.5644 136.196C59.012 136.021 59.5245 135.934 60.1018 135.934C60.6748 135.934 61.1805 136.021 61.6192 136.196C62.0623 136.366 62.4047 136.612 62.6464 136.934C62.8926 137.252 63.0157 137.622 63.0157 138.042C63.0157 138.463 62.8926 138.834 62.6464 139.157C62.4047 139.475 62.0623 139.721 61.6192 139.895C61.1805 140.07 60.6748 140.155 60.1018 140.15C59.5245 140.155 59.012 140.072 58.5644 139.902C58.1213 139.727 57.7788 139.479 57.5371 139.157C57.2954 138.834 57.1746 138.463 57.1746 138.042ZM58.2622 140.741H59.5245V141.909H64.6807V140.741H65.9563V145.119H58.2622V140.741ZM58.41 138.042C58.4055 138.279 58.4726 138.485 58.6114 138.66C58.7501 138.834 58.9471 138.971 59.2022 139.069C59.4618 139.163 59.7617 139.21 60.1018 139.21C60.6166 139.206 61.0306 139.101 61.3439 138.895C61.6572 138.685 61.8161 138.4 61.8206 138.042C61.8161 137.814 61.7423 137.613 61.599 137.438C61.4558 137.263 61.2566 137.129 61.0015 137.035C60.7464 136.937 60.4532 136.887 60.122 136.887C59.7818 136.887 59.4819 136.934 59.2223 137.028C58.9627 137.122 58.7613 137.257 58.6181 137.431C58.4749 137.606 58.4055 137.809 58.41 138.042ZM64.6807 144.098V142.903H59.5245V144.098H64.6807ZM72.2325 136.78C72.2325 137.411 72.3623 138.051 72.6219 138.7C72.8815 139.345 73.244 139.931 73.7095 140.459C74.1795 140.983 74.7121 141.386 75.3074 141.668L74.5823 142.661C73.9199 142.344 73.3291 141.869 72.8099 141.238C72.2906 140.602 71.8923 139.886 71.6148 139.09C71.3373 139.953 70.9277 140.732 70.3861 141.426C69.849 142.115 69.2426 142.63 68.5667 142.97L67.8147 141.963C68.41 141.677 68.9471 141.256 69.4261 140.701C69.9095 140.141 70.2877 139.517 70.5607 138.828C70.8337 138.134 70.9703 137.451 70.9703 136.78V135.504H68.2579V134.444H74.8509V135.504H72.2325V136.78ZM76.1399 133.235H77.4156V138.002H79.3492V139.076H77.4156V145.266H76.1399V133.235ZM90.5935 143.83H79.5828V142.755H82.5906V140.634H80.9256V136.807H87.9886V135.128H80.8987V134.081H89.2508V137.841H82.1878V139.586H89.5328V140.634H87.7066V142.755H90.5935V143.83ZM86.4578 142.755V140.634H83.826V142.755H86.4578ZM101.086 139.425H99.8238V133.235H101.086V139.425ZM91.1629 138.351C91.7761 138.145 92.311 137.845 92.7675 137.451C93.2285 137.058 93.5799 136.603 93.8216 136.089C94.0677 135.574 94.1931 135.039 94.1975 134.484V133.557H95.5V134.484C95.5 135.017 95.6209 135.527 95.8626 136.015C96.1043 136.503 96.4512 136.932 96.9032 137.304C97.3553 137.671 97.8857 137.948 98.4944 138.136L97.8633 139.13C97.1651 138.902 96.5586 138.561 96.0439 138.109C95.5291 137.657 95.1353 137.122 94.8622 136.505C94.5847 137.172 94.1819 137.754 93.6537 138.25C93.13 138.747 92.5146 139.116 91.8074 139.358L91.1629 138.351ZM93.1905 140.003H101.099V143.01H94.4661V144.125H101.502V145.146H93.2308V142.044H99.8372V141.01H93.1905V140.003Z" fill="#191F28"/>
<mask id="path-23-inside-6_3024_11315" fill="white">
<path d="M146.457 121.125H292.29V157.125H146.457V121.125Z"/>
</mask>
<path d="M146.457 121.125H292.29V157.125H146.457V121.125Z" fill="white"/>
<path d="M292.29 156.5H146.457V157.75H292.29V156.5Z" fill="#E5E8EB" mask="url(#path-23-inside-6_3024_11315)"/>
<path d="M179.548 144.259C178.77 144.259 178.1 144.065 177.541 143.675C176.981 143.281 176.554 142.711 176.259 141.963C175.963 141.216 175.815 140.316 175.815 139.264C175.815 138.217 175.963 137.319 176.259 136.572C176.558 135.82 176.988 135.249 177.548 134.86C178.107 134.466 178.774 134.269 179.548 134.269C180.323 134.269 180.99 134.466 181.549 134.86C182.109 135.249 182.536 135.82 182.831 136.572C183.131 137.319 183.281 138.217 183.281 139.264C183.281 140.316 183.131 141.218 182.831 141.97C182.536 142.717 182.109 143.286 181.549 143.675C180.994 144.065 180.327 144.259 179.548 144.259ZM177.575 139.264C177.575 140.414 177.747 141.29 178.091 141.889C178.441 142.489 178.926 142.791 179.548 142.796C179.956 142.791 180.307 142.657 180.602 142.393C180.898 142.129 181.124 141.733 181.281 141.204C181.442 140.676 181.522 140.03 181.522 139.264C181.522 138.503 181.442 137.859 181.281 137.331C181.124 136.798 180.898 136.397 180.602 136.129C180.307 135.86 179.956 135.724 179.548 135.719C179.141 135.724 178.79 135.86 178.494 136.129C178.199 136.397 177.971 136.798 177.809 137.331C177.653 137.859 177.575 138.503 177.575 139.264ZM187.825 134.269C188.515 134.269 189.146 134.421 189.719 134.726C190.291 135.025 190.757 135.527 191.115 136.229C191.473 136.928 191.652 137.841 191.652 138.969C191.652 140.074 191.493 141.023 191.175 141.815C190.858 142.608 190.406 143.214 189.819 143.635C189.233 144.051 188.541 144.259 187.745 144.259C187.131 144.259 186.581 144.141 186.093 143.903C185.61 143.666 185.218 143.337 184.918 142.917C184.618 142.496 184.433 142.017 184.361 141.48H186.093C186.183 141.869 186.371 142.178 186.657 142.406C186.948 142.63 187.311 142.742 187.745 142.742C188.21 142.742 188.609 142.61 188.94 142.346C189.271 142.082 189.522 141.701 189.692 141.204C189.866 140.703 189.956 140.106 189.96 139.412H189.853C189.607 139.833 189.262 140.164 188.819 140.406C188.376 140.643 187.888 140.759 187.355 140.755C186.782 140.755 186.261 140.62 185.791 140.352C185.321 140.083 184.949 139.71 184.676 139.231C184.403 138.747 184.267 138.203 184.267 137.599C184.267 136.972 184.415 136.406 184.71 135.901C185.01 135.39 185.428 134.992 185.965 134.705C186.507 134.415 187.127 134.269 187.825 134.269ZM185.972 137.532C185.972 137.881 186.051 138.201 186.207 138.492C186.368 138.779 186.59 139.007 186.872 139.177C187.158 139.342 187.481 139.425 187.839 139.425C188.188 139.425 188.508 139.34 188.799 139.17C189.094 139 189.325 138.772 189.49 138.485C189.66 138.199 189.745 137.89 189.745 137.559C189.745 137.232 189.663 136.925 189.497 136.639C189.336 136.348 189.112 136.115 188.826 135.941C188.539 135.766 188.219 135.679 187.866 135.679C187.507 135.679 187.185 135.762 186.899 135.927C186.612 136.093 186.386 136.317 186.221 136.599C186.055 136.881 185.972 137.192 185.972 137.532ZM193.833 142.917C193.645 142.917 193.47 142.87 193.309 142.776C193.148 142.682 193.02 142.554 192.926 142.393C192.832 142.232 192.785 142.057 192.785 141.869C192.785 141.686 192.832 141.516 192.926 141.359C193.02 141.198 193.148 141.07 193.309 140.976C193.47 140.882 193.645 140.835 193.833 140.835C194.016 140.835 194.186 140.882 194.343 140.976C194.504 141.07 194.632 141.198 194.726 141.359C194.82 141.516 194.867 141.686 194.867 141.869C194.867 142.057 194.82 142.232 194.726 142.393C194.632 142.554 194.504 142.682 194.343 142.776C194.186 142.87 194.016 142.917 193.833 142.917ZM193.833 137.707C193.645 137.707 193.47 137.66 193.309 137.566C193.148 137.472 193.02 137.344 192.926 137.183C192.832 137.022 192.785 136.847 192.785 136.659C192.785 136.476 192.832 136.306 192.926 136.149C193.02 135.988 193.148 135.86 193.309 135.766C193.47 135.672 193.645 135.625 193.833 135.625C194.016 135.625 194.186 135.672 194.343 135.766C194.504 135.86 194.632 135.988 194.726 136.149C194.82 136.306 194.867 136.476 194.867 136.659C194.867 136.847 194.82 137.022 194.726 137.183C194.632 137.344 194.504 137.472 194.343 137.566C194.186 137.66 194.016 137.707 193.833 137.707ZM199.746 144.259C198.968 144.259 198.298 144.065 197.739 143.675C197.179 143.281 196.752 142.711 196.457 141.963C196.161 141.216 196.013 140.316 196.013 139.264C196.013 138.217 196.161 137.319 196.457 136.572C196.756 135.82 197.186 135.249 197.746 134.86C198.305 134.466 198.972 134.269 199.746 134.269C200.521 134.269 201.188 134.466 201.747 134.86C202.307 135.249 202.734 135.82 203.029 136.572C203.329 137.319 203.479 138.217 203.479 139.264C203.479 140.316 203.329 141.218 203.029 141.97C202.734 142.717 202.307 143.286 201.747 143.675C201.192 144.065 200.525 144.259 199.746 144.259ZM197.773 139.264C197.773 140.414 197.945 141.29 198.289 141.889C198.639 142.489 199.124 142.791 199.746 142.796C200.154 142.791 200.505 142.657 200.8 142.393C201.096 142.129 201.322 141.733 201.479 141.204C201.64 140.676 201.72 140.03 201.72 139.264C201.72 138.503 201.64 137.859 201.479 137.331C201.322 136.798 201.096 136.397 200.8 136.129C200.505 135.86 200.154 135.724 199.746 135.719C199.339 135.724 198.988 135.86 198.692 136.129C198.397 136.397 198.169 136.798 198.007 137.331C197.851 137.859 197.773 138.503 197.773 139.264ZM208.184 144.259C207.406 144.259 206.736 144.065 206.177 143.675C205.617 143.281 205.19 142.711 204.895 141.963C204.599 141.216 204.451 140.316 204.451 139.264C204.451 138.217 204.599 137.319 204.895 136.572C205.194 135.82 205.624 135.249 206.184 134.86C206.743 134.466 207.41 134.269 208.184 134.269C208.959 134.269 209.626 134.466 210.185 134.86C210.745 135.249 211.172 135.82 211.467 136.572C211.767 137.319 211.917 138.217 211.917 139.264C211.917 140.316 211.767 141.218 211.467 141.97C211.172 142.717 210.745 143.286 210.185 143.675C209.63 144.065 208.963 144.259 208.184 144.259ZM206.21 139.264C206.21 140.414 206.383 141.29 206.727 141.889C207.077 142.489 207.562 142.791 208.184 142.796C208.592 142.791 208.943 142.657 209.238 142.393C209.534 142.129 209.76 141.733 209.917 141.204C210.078 140.676 210.158 140.03 210.158 139.264C210.158 138.503 210.078 137.859 209.917 137.331C209.76 136.798 209.534 136.397 209.238 136.129C208.943 135.86 208.592 135.724 208.184 135.719C207.777 135.724 207.426 135.86 207.13 136.129C206.835 136.397 206.607 136.798 206.445 137.331C206.289 137.859 206.21 138.503 206.21 139.264ZM216.44 138.902C216.892 138.409 217.438 138.163 218.078 138.163C218.315 138.163 218.543 138.194 218.763 138.257C218.987 138.32 219.269 138.414 219.609 138.539C219.94 138.664 220.217 138.758 220.441 138.821C220.665 138.884 220.893 138.915 221.126 138.915C221.439 138.915 221.73 138.852 221.999 138.727C222.272 138.597 222.514 138.405 222.724 138.15V139.613C222.272 140.106 221.726 140.352 221.086 140.352C220.849 140.352 220.616 140.32 220.387 140.258C220.159 140.195 219.882 140.101 219.555 139.976C219.224 139.851 218.946 139.757 218.722 139.694C218.499 139.631 218.27 139.6 218.038 139.6C217.398 139.6 216.865 139.855 216.44 140.365V138.902ZM227.394 142.863L230.832 139.546C231.203 139.175 231.49 138.87 231.691 138.633C231.897 138.391 232.054 138.154 232.161 137.921C232.268 137.684 232.322 137.434 232.322 137.169C232.322 136.874 232.248 136.614 232.101 136.391C231.957 136.167 231.758 135.995 231.503 135.874C231.252 135.753 230.97 135.692 230.657 135.692C230.326 135.692 230.035 135.76 229.784 135.894C229.538 136.024 229.348 136.209 229.214 136.451C229.084 136.693 229.019 136.977 229.019 137.304H227.354C227.354 136.699 227.493 136.169 227.77 135.713C228.052 135.252 228.444 134.896 228.945 134.645C229.451 134.394 230.026 134.269 230.67 134.269C231.324 134.269 231.901 134.39 232.403 134.632C232.908 134.873 233.3 135.209 233.578 135.639C233.86 136.064 234.001 136.547 234.001 137.089C233.996 137.465 233.922 137.827 233.779 138.177C233.636 138.521 233.39 138.906 233.04 139.331C232.691 139.757 232.197 140.271 231.557 140.875L229.825 142.594V142.661H234.148V144.125H227.394V142.863ZM238.92 144.259C238.142 144.259 237.472 144.065 236.913 143.675C236.354 143.281 235.926 142.711 235.631 141.963C235.335 141.216 235.188 140.316 235.188 139.264C235.188 138.217 235.335 137.319 235.631 136.572C235.931 135.82 236.36 135.249 236.92 134.86C237.479 134.466 238.146 134.269 238.92 134.269C239.695 134.269 240.362 134.466 240.921 134.86C241.481 135.249 241.908 135.82 242.204 136.572C242.503 137.319 242.653 138.217 242.653 139.264C242.653 140.316 242.503 141.218 242.204 141.97C241.908 142.717 241.481 143.286 240.921 143.675C240.366 144.065 239.699 144.259 238.92 144.259ZM236.947 139.264C236.947 140.414 237.119 141.29 237.464 141.889C237.813 142.489 238.298 142.791 238.92 142.796C239.328 142.791 239.679 142.657 239.975 142.393C240.27 142.129 240.496 141.733 240.653 141.204C240.814 140.676 240.894 140.03 240.894 139.264C240.894 138.503 240.814 137.859 240.653 137.331C240.496 136.798 240.27 136.397 239.975 136.129C239.679 135.86 239.328 135.724 238.92 135.719C238.513 135.724 238.162 135.86 237.866 136.129C237.571 136.397 237.343 136.798 237.182 137.331C237.025 137.859 236.947 138.503 236.947 139.264ZM244.847 142.917C244.659 142.917 244.485 142.87 244.324 142.776C244.163 142.682 244.035 142.554 243.941 142.393C243.847 142.232 243.8 142.057 243.8 141.869C243.8 141.686 243.847 141.516 243.941 141.359C244.035 141.198 244.163 141.07 244.324 140.976C244.485 140.882 244.659 140.835 244.847 140.835C245.031 140.835 245.201 140.882 245.358 140.976C245.519 141.07 245.646 141.198 245.74 141.359C245.834 141.516 245.881 141.686 245.881 141.869C245.881 142.057 245.834 142.232 245.74 142.393C245.646 142.554 245.519 142.682 245.358 142.776C245.201 142.87 245.031 142.917 244.847 142.917ZM244.847 137.707C244.659 137.707 244.485 137.66 244.324 137.566C244.163 137.472 244.035 137.344 243.941 137.183C243.847 137.022 243.8 136.847 243.8 136.659C243.8 136.476 243.847 136.306 243.941 136.149C244.035 135.988 244.163 135.86 244.324 135.766C244.485 135.672 244.659 135.625 244.847 135.625C245.031 135.625 245.201 135.672 245.358 135.766C245.519 135.86 245.646 135.988 245.74 136.149C245.834 136.306 245.881 136.476 245.881 136.659C245.881 136.847 245.834 137.022 245.74 137.183C245.646 137.344 245.519 137.472 245.358 137.566C245.201 137.66 245.031 137.707 244.847 137.707ZM250.761 144.259C249.982 144.259 249.313 144.065 248.754 143.675C248.194 143.281 247.767 142.711 247.471 141.963C247.176 141.216 247.028 140.316 247.028 139.264C247.028 138.217 247.176 137.319 247.471 136.572C247.771 135.82 248.201 135.249 248.76 134.86C249.32 134.466 249.987 134.269 250.761 134.269C251.535 134.269 252.202 134.466 252.762 134.86C253.321 135.249 253.749 135.82 254.044 136.572C254.344 137.319 254.494 138.217 254.494 139.264C254.494 140.316 254.344 141.218 254.044 141.97C253.749 142.717 253.321 143.286 252.762 143.675C252.207 144.065 251.54 144.259 250.761 144.259ZM248.787 139.264C248.787 140.414 248.959 141.29 249.304 141.889C249.653 142.489 250.139 142.791 250.761 142.796C251.168 142.791 251.52 142.657 251.815 142.393C252.111 142.129 252.337 141.733 252.493 141.204C252.654 140.676 252.735 140.03 252.735 139.264C252.735 138.503 252.654 137.859 252.493 137.331C252.337 136.798 252.111 136.397 251.815 136.129C251.52 135.86 251.168 135.724 250.761 135.719C250.354 135.724 250.002 135.86 249.707 136.129C249.412 136.397 249.183 136.798 249.022 137.331C248.865 137.859 248.787 138.503 248.787 139.264ZM259.199 144.259C258.42 144.259 257.751 144.065 257.192 143.675C256.632 143.281 256.205 142.711 255.909 141.963C255.614 141.216 255.466 140.316 255.466 139.264C255.466 138.217 255.614 137.319 255.909 136.572C256.209 135.82 256.639 135.249 257.198 134.86C257.758 134.466 258.425 134.269 259.199 134.269C259.973 134.269 260.64 134.466 261.2 134.86C261.759 135.249 262.187 135.82 262.482 136.572C262.782 137.319 262.932 138.217 262.932 139.264C262.932 140.316 262.782 141.218 262.482 141.97C262.187 142.717 261.759 143.286 261.2 143.675C260.645 144.065 259.978 144.259 259.199 144.259ZM257.225 139.264C257.225 140.414 257.397 141.29 257.742 141.889C258.091 142.489 258.577 142.791 259.199 142.796C259.606 142.791 259.958 142.657 260.253 142.393C260.549 142.129 260.775 141.733 260.931 141.204C261.092 140.676 261.173 140.03 261.173 139.264C261.173 138.503 261.092 137.859 260.931 137.331C260.775 136.798 260.549 136.397 260.253 136.129C259.958 135.86 259.606 135.724 259.199 135.719C258.792 135.724 258.44 135.86 258.145 136.129C257.85 136.397 257.621 136.798 257.46 137.331C257.303 137.859 257.225 138.503 257.225 139.264Z" fill="#191F28"/>
<mask id="path-26-inside-7_3024_11315" fill="white">
<path d="M292.293 121.125H438.126V157.125H292.293V121.125Z"/>
</mask>
<path d="M292.293 121.125H438.126V157.125H292.293V121.125Z" fill="white"/>
<path d="M438.126 156.5H292.293V157.75H438.126V156.5Z" fill="#E5E8EB" mask="url(#path-26-inside-7_3024_11315)"/>
<path d="M327.09 144.259C326.311 144.259 325.642 144.065 325.082 143.675C324.523 143.281 324.095 142.711 323.8 141.963C323.504 141.216 323.357 140.316 323.357 139.264C323.357 138.217 323.504 137.319 323.8 136.572C324.1 135.82 324.529 135.249 325.089 134.86C325.648 134.466 326.315 134.269 327.09 134.269C327.864 134.269 328.531 134.466 329.09 134.86C329.65 135.249 330.077 135.82 330.373 136.572C330.673 137.319 330.823 138.217 330.823 139.264C330.823 140.316 330.673 141.218 330.373 141.97C330.077 142.717 329.65 143.286 329.09 143.675C328.535 144.065 327.868 144.259 327.09 144.259ZM325.116 139.264C325.116 140.414 325.288 141.29 325.633 141.889C325.982 142.489 326.467 142.791 327.09 142.796C327.497 142.791 327.848 142.657 328.144 142.393C328.439 142.129 328.665 141.733 328.822 141.204C328.983 140.676 329.064 140.03 329.064 139.264C329.064 138.503 328.983 137.859 328.822 137.331C328.665 136.798 328.439 136.397 328.144 136.129C327.848 135.86 327.497 135.724 327.09 135.719C326.682 135.724 326.331 135.86 326.036 136.129C325.74 136.397 325.512 136.798 325.351 137.331C325.194 137.859 325.116 138.503 325.116 139.264ZM335.367 134.269C336.056 134.269 336.687 134.421 337.26 134.726C337.833 135.025 338.298 135.527 338.656 136.229C339.014 136.928 339.193 137.841 339.193 138.969C339.193 140.074 339.035 141.023 338.717 141.815C338.399 142.608 337.947 143.214 337.361 143.635C336.774 144.051 336.083 144.259 335.286 144.259C334.673 144.259 334.122 144.141 333.634 143.903C333.151 143.666 332.759 143.337 332.459 142.917C332.16 142.496 331.974 142.017 331.902 141.48H333.634C333.724 141.869 333.912 142.178 334.198 142.406C334.489 142.63 334.852 142.742 335.286 142.742C335.751 142.742 336.15 142.61 336.481 142.346C336.812 142.082 337.063 141.701 337.233 141.204C337.408 140.703 337.497 140.106 337.502 139.412H337.394C337.148 139.833 336.803 140.164 336.36 140.406C335.917 140.643 335.429 140.759 334.897 140.755C334.324 140.755 333.802 140.62 333.332 140.352C332.862 140.083 332.491 139.71 332.218 139.231C331.945 138.747 331.808 138.203 331.808 137.599C331.808 136.972 331.956 136.406 332.251 135.901C332.551 135.39 332.97 134.992 333.507 134.705C334.048 134.415 334.668 134.269 335.367 134.269ZM333.513 137.532C333.513 137.881 333.592 138.201 333.748 138.492C333.91 138.779 334.131 139.007 334.413 139.177C334.7 139.342 335.022 139.425 335.38 139.425C335.729 139.425 336.049 139.34 336.34 139.17C336.635 139 336.866 138.772 337.032 138.485C337.202 138.199 337.287 137.89 337.287 137.559C337.287 137.232 337.204 136.925 337.038 136.639C336.877 136.348 336.653 136.115 336.367 135.941C336.08 135.766 335.76 135.679 335.407 135.679C335.049 135.679 334.726 135.762 334.44 135.927C334.154 136.093 333.927 136.317 333.762 136.599C333.596 136.881 333.513 137.192 333.513 137.532ZM341.374 142.917C341.186 142.917 341.012 142.87 340.85 142.776C340.689 142.682 340.562 142.554 340.468 142.393C340.374 142.232 340.327 142.057 340.327 141.869C340.327 141.686 340.374 141.516 340.468 141.359C340.562 141.198 340.689 141.07 340.85 140.976C341.012 140.882 341.186 140.835 341.374 140.835C341.558 140.835 341.728 140.882 341.884 140.976C342.045 141.07 342.173 141.198 342.267 141.359C342.361 141.516 342.408 141.686 342.408 141.869C342.408 142.057 342.361 142.232 342.267 142.393C342.173 142.554 342.045 142.682 341.884 142.776C341.728 142.87 341.558 142.917 341.374 142.917ZM341.374 137.707C341.186 137.707 341.012 137.66 340.85 137.566C340.689 137.472 340.562 137.344 340.468 137.183C340.374 137.022 340.327 136.847 340.327 136.659C340.327 136.476 340.374 136.306 340.468 136.149C340.562 135.988 340.689 135.86 340.85 135.766C341.012 135.672 341.186 135.625 341.374 135.625C341.558 135.625 341.728 135.672 341.884 135.766C342.045 135.86 342.173 135.988 342.267 136.149C342.361 136.306 342.408 136.476 342.408 136.659C342.408 136.847 342.361 137.022 342.267 137.183C342.173 137.344 342.045 137.472 341.884 137.566C341.728 137.66 341.558 137.707 341.374 137.707ZM347.288 144.259C346.509 144.259 345.84 144.065 345.28 143.675C344.721 143.281 344.293 142.711 343.998 141.963C343.702 141.216 343.555 140.316 343.555 139.264C343.555 138.217 343.702 137.319 343.998 136.572C344.298 135.82 344.727 135.249 345.287 134.86C345.846 134.466 346.513 134.269 347.288 134.269C348.062 134.269 348.729 134.466 349.288 134.86C349.848 135.249 350.275 135.82 350.571 136.572C350.871 137.319 351.021 138.217 351.021 139.264C351.021 140.316 350.871 141.218 350.571 141.97C350.275 142.717 349.848 143.286 349.288 143.675C348.733 144.065 348.066 144.259 347.288 144.259ZM345.314 139.264C345.314 140.414 345.486 141.29 345.831 141.889C346.18 142.489 346.665 142.791 347.288 142.796C347.695 142.791 348.046 142.657 348.342 142.393C348.637 142.129 348.863 141.733 349.02 141.204C349.181 140.676 349.262 140.03 349.262 139.264C349.262 138.503 349.181 137.859 349.02 137.331C348.863 136.798 348.637 136.397 348.342 136.129C348.046 135.86 347.695 135.724 347.288 135.719C346.88 135.724 346.529 135.86 346.234 136.129C345.938 136.397 345.71 136.798 345.549 137.331C345.392 137.859 345.314 138.503 345.314 139.264ZM355.726 144.259C354.947 144.259 354.278 144.065 353.718 143.675C353.159 143.281 352.731 142.711 352.436 141.963C352.14 141.216 351.993 140.316 351.993 139.264C351.993 138.217 352.14 137.319 352.436 136.572C352.736 135.82 353.165 135.249 353.725 134.86C354.284 134.466 354.951 134.269 355.726 134.269C356.5 134.269 357.167 134.466 357.726 134.86C358.286 135.249 358.713 135.82 359.009 136.572C359.309 137.319 359.459 138.217 359.459 139.264C359.459 140.316 359.309 141.218 359.009 141.97C358.713 142.717 358.286 143.286 357.726 143.675C357.171 144.065 356.504 144.259 355.726 144.259ZM353.752 139.264C353.752 140.414 353.924 141.29 354.269 141.889C354.618 142.489 355.103 142.791 355.726 142.796C356.133 142.791 356.484 142.657 356.78 142.393C357.075 142.129 357.301 141.733 357.458 141.204C357.619 140.676 357.7 140.03 357.7 139.264C357.7 138.503 357.619 137.859 357.458 137.331C357.301 136.798 357.075 136.397 356.78 136.129C356.484 135.86 356.133 135.724 355.726 135.719C355.318 135.724 354.967 135.86 354.672 136.129C354.376 136.397 354.148 136.798 353.987 137.331C353.83 137.859 353.752 138.503 353.752 139.264ZM363.981 138.902C364.433 138.409 364.979 138.163 365.619 138.163C365.856 138.163 366.085 138.194 366.304 138.257C366.528 138.32 366.81 138.414 367.15 138.539C367.481 138.664 367.759 138.758 367.982 138.821C368.206 138.884 368.435 138.915 368.667 138.915C368.981 138.915 369.272 138.852 369.54 138.727C369.813 138.597 370.055 138.405 370.265 138.15V139.613C369.813 140.106 369.267 140.352 368.627 140.352C368.39 140.352 368.157 140.32 367.929 140.258C367.7 140.195 367.423 140.101 367.096 139.976C366.765 139.851 366.488 139.757 366.264 139.694C366.04 139.631 365.812 139.6 365.579 139.6C364.939 139.6 364.406 139.855 363.981 140.365V138.902ZM378.883 144.125H377.124V136.109H377.07L374.801 137.559V135.961L377.205 134.403H378.883V144.125ZM385.481 135.934V135.867H380.594V134.403H387.294V135.894L383.078 144.125H381.265L385.481 135.934ZM388.978 142.917C388.79 142.917 388.616 142.87 388.454 142.776C388.293 142.682 388.166 142.554 388.072 142.393C387.978 142.232 387.931 142.057 387.931 141.869C387.931 141.686 387.978 141.516 388.072 141.359C388.166 141.198 388.293 141.07 388.454 140.976C388.616 140.882 388.79 140.835 388.978 140.835C389.162 140.835 389.332 140.882 389.488 140.976C389.649 141.07 389.777 141.198 389.871 141.359C389.965 141.516 390.012 141.686 390.012 141.869C390.012 142.057 389.965 142.232 389.871 142.393C389.777 142.554 389.649 142.682 389.488 142.776C389.332 142.87 389.162 142.917 388.978 142.917ZM388.978 137.707C388.79 137.707 388.616 137.66 388.454 137.566C388.293 137.472 388.166 137.344 388.072 137.183C387.978 137.022 387.931 136.847 387.931 136.659C387.931 136.476 387.978 136.306 388.072 136.149C388.166 135.988 388.293 135.86 388.454 135.766C388.616 135.672 388.79 135.625 388.978 135.625C389.162 135.625 389.332 135.672 389.488 135.766C389.649 135.86 389.777 135.988 389.871 136.149C389.965 136.306 390.012 136.476 390.012 136.659C390.012 136.847 389.965 137.022 389.871 137.183C389.777 137.344 389.649 137.472 389.488 137.566C389.332 137.66 389.162 137.707 388.978 137.707ZM394.892 144.259C394.113 144.259 393.444 144.065 392.884 143.675C392.325 143.281 391.897 142.711 391.602 141.963C391.306 141.216 391.159 140.316 391.159 139.264C391.159 138.217 391.306 137.319 391.602 136.572C391.902 135.82 392.331 135.249 392.891 134.86C393.45 134.466 394.117 134.269 394.892 134.269C395.666 134.269 396.333 134.466 396.892 134.86C397.452 135.249 397.879 135.82 398.175 136.572C398.475 137.319 398.625 138.217 398.625 139.264C398.625 140.316 398.475 141.218 398.175 141.97C397.879 142.717 397.452 143.286 396.892 143.675C396.337 144.065 395.67 144.259 394.892 144.259ZM392.918 139.264C392.918 140.414 393.09 141.29 393.435 141.889C393.784 142.489 394.269 142.791 394.892 142.796C395.299 142.791 395.65 142.657 395.946 142.393C396.241 142.129 396.467 141.733 396.624 141.204C396.785 140.676 396.866 140.03 396.866 139.264C396.866 138.503 396.785 137.859 396.624 137.331C396.467 136.798 396.241 136.397 395.946 136.129C395.65 135.86 395.299 135.724 394.892 135.719C394.484 135.724 394.133 135.86 393.838 136.129C393.542 136.397 393.314 136.798 393.153 137.331C392.996 137.859 392.918 138.503 392.918 139.264ZM403.33 144.259C402.551 144.259 401.882 144.065 401.322 143.675C400.763 143.281 400.335 142.711 400.04 141.963C399.744 141.216 399.597 140.316 399.597 139.264C399.597 138.217 399.744 137.319 400.04 136.572C400.34 135.82 400.769 135.249 401.329 134.86C401.888 134.466 402.555 134.269 403.33 134.269C404.104 134.269 404.771 134.466 405.33 134.86C405.89 135.249 406.317 135.82 406.613 136.572C406.913 137.319 407.063 138.217 407.063 139.264C407.063 140.316 406.913 141.218 406.613 141.97C406.317 142.717 405.89 143.286 405.33 143.675C404.775 144.065 404.108 144.259 403.33 144.259ZM401.356 139.264C401.356 140.414 401.528 141.29 401.873 141.889C402.222 142.489 402.707 142.791 403.33 142.796C403.737 142.791 404.088 142.657 404.384 142.393C404.679 142.129 404.905 141.733 405.062 141.204C405.223 140.676 405.304 140.03 405.304 139.264C405.304 138.503 405.223 137.859 405.062 137.331C404.905 136.798 404.679 136.397 404.384 136.129C404.088 135.86 403.737 135.724 403.33 135.719C402.922 135.724 402.571 135.86 402.276 136.129C401.98 136.397 401.752 136.798 401.591 137.331C401.434 137.859 401.356 138.503 401.356 139.264Z" fill="#191F28"/>
<path d="M0.625 157.125H146.458V193.125H6.875C3.42322 193.125 0.625 190.327 0.625 186.875V157.125Z" fill="white"/>
<path d="M54.9402 177.99H53.6646V169.249H54.9402V177.99ZM45.2051 173.035C45.2051 172.467 45.3461 171.956 45.6281 171.504C45.9101 171.052 46.295 170.699 46.7829 170.444C47.2707 170.184 47.8146 170.054 48.4143 170.054C49.0141 170.054 49.5557 170.184 50.0391 170.444C50.527 170.699 50.9097 171.052 51.1872 171.504C51.4692 171.956 51.6101 172.467 51.6101 173.035C51.6101 173.613 51.4692 174.13 51.1872 174.586C50.9097 175.038 50.527 175.392 50.0391 175.647C49.5557 175.902 49.0141 176.03 48.4143 176.03C47.8146 176.03 47.2707 175.902 46.7829 175.647C46.295 175.392 45.9101 175.038 45.6281 174.586C45.3461 174.13 45.2051 173.613 45.2051 173.035ZM46.4539 173.035C46.4539 173.407 46.5367 173.736 46.7023 174.022C46.8724 174.304 47.1074 174.523 47.4073 174.68C47.7072 174.837 48.0428 174.915 48.4143 174.915C48.7814 174.915 49.1126 174.837 49.408 174.68C49.7034 174.523 49.9362 174.304 50.1062 174.022C50.2763 173.736 50.3614 173.407 50.3614 173.035C50.3614 172.673 50.2763 172.35 50.1062 172.068C49.9362 171.782 49.7034 171.56 49.408 171.404C49.1126 171.247 48.7814 171.169 48.4143 171.169C48.0428 171.169 47.7072 171.247 47.4073 171.404C47.1074 171.56 46.8724 171.782 46.7023 172.068C46.5367 172.35 46.4539 172.673 46.4539 173.035ZM47.0716 177.104H48.3606V179.977H55.3028V181.011H47.0716V177.104ZM67.5005 176.352H62.7203V178.688H61.458V176.352H56.4898V175.318H67.5005V176.352ZM57.8594 177.547H59.135V179.977H66.2786V181.011H57.8594V177.547ZM57.8997 169.799H66.0772V174.069H57.8997V169.799ZM64.815 173.062V170.806H59.1485V173.062H64.815ZM72.2325 172.78C72.2325 173.411 72.3623 174.051 72.6219 174.7C72.8815 175.345 73.244 175.931 73.7095 176.459C74.1795 176.983 74.7121 177.386 75.3074 177.668L74.5823 178.661C73.9199 178.344 73.3291 177.869 72.8099 177.238C72.2906 176.602 71.8923 175.886 71.6148 175.09C71.3373 175.953 70.9277 176.732 70.3861 177.426C69.849 178.115 69.2426 178.63 68.5667 178.97L67.8147 177.963C68.41 177.677 68.9471 177.256 69.4261 176.701C69.9095 176.141 70.2877 175.517 70.5607 174.828C70.8337 174.134 70.9703 173.451 70.9703 172.78V171.504H68.2579V170.444H74.8509V171.504H72.2325V172.78ZM76.1399 169.235H77.4156V174.002H79.3492V175.076H77.4156V181.266H76.1399V169.235ZM90.5935 179.83H79.5828V178.755H82.5906V176.634H80.9256V172.807H87.9886V171.128H80.8987V170.081H89.2508V173.841H82.1878V175.586H89.5328V176.634H87.7066V178.755H90.5935V179.83ZM86.4578 178.755V176.634H83.826V178.755H86.4578ZM101.086 175.425H99.8238V169.235H101.086V175.425ZM91.1629 174.351C91.7761 174.145 92.311 173.845 92.7675 173.451C93.2285 173.058 93.5799 172.603 93.8216 172.089C94.0677 171.574 94.1931 171.039 94.1975 170.484V169.557H95.5V170.484C95.5 171.017 95.6209 171.527 95.8626 172.015C96.1043 172.503 96.4512 172.932 96.9032 173.304C97.3553 173.671 97.8857 173.948 98.4944 174.136L97.8633 175.13C97.1651 174.902 96.5586 174.561 96.0439 174.109C95.5291 173.657 95.1353 173.122 94.8622 172.505C94.5847 173.172 94.1819 173.754 93.6537 174.25C93.13 174.747 92.5146 175.116 91.8074 175.358L91.1629 174.351ZM93.1905 176.003H101.099V179.01H94.4661V180.125H101.502V181.146H93.2308V178.044H99.8372V177.01H93.1905V176.003Z" fill="#191F28"/>
<rect width="145.833" height="36" transform="translate(146.457 157.125)" fill="white"/>
<path d="M179.797 180.259C179.018 180.259 178.349 180.065 177.789 179.675C177.23 179.281 176.802 178.711 176.507 177.963C176.212 177.216 176.064 176.316 176.064 175.264C176.064 174.217 176.212 173.319 176.507 172.572C176.807 171.82 177.237 171.249 177.796 170.86C178.356 170.466 179.022 170.269 179.797 170.269C180.571 170.269 181.238 170.466 181.798 170.86C182.357 171.249 182.784 171.82 183.08 172.572C183.38 173.319 183.53 174.217 183.53 175.264C183.53 176.316 183.38 177.218 183.08 177.97C182.784 178.717 182.357 179.286 181.798 179.675C181.243 180.065 180.576 180.259 179.797 180.259ZM177.823 175.264C177.823 176.414 177.995 177.29 178.34 177.889C178.689 178.489 179.175 178.791 179.797 178.796C180.204 178.791 180.555 178.657 180.851 178.393C181.146 178.129 181.372 177.733 181.529 177.204C181.69 176.676 181.771 176.03 181.771 175.264C181.771 174.503 181.69 173.859 181.529 173.331C181.372 172.798 181.146 172.397 180.851 172.129C180.555 171.86 180.204 171.724 179.797 171.719C179.389 171.724 179.038 171.86 178.743 172.129C178.447 172.397 178.219 172.798 178.058 173.331C177.901 173.859 177.823 174.503 177.823 175.264ZM188.074 170.269C188.763 170.269 189.394 170.421 189.967 170.726C190.54 171.025 191.005 171.527 191.363 172.229C191.722 172.928 191.901 173.841 191.901 174.969C191.901 176.074 191.742 177.023 191.424 177.815C191.106 178.608 190.654 179.214 190.068 179.635C189.481 180.051 188.79 180.259 187.993 180.259C187.38 180.259 186.829 180.141 186.341 179.903C185.858 179.666 185.466 179.337 185.167 178.917C184.867 178.496 184.681 178.017 184.609 177.48H186.341C186.431 177.869 186.619 178.178 186.905 178.406C187.196 178.63 187.559 178.742 187.993 178.742C188.459 178.742 188.857 178.61 189.188 178.346C189.519 178.082 189.77 177.701 189.94 177.204C190.115 176.703 190.204 176.106 190.209 175.412H190.101C189.855 175.833 189.51 176.164 189.067 176.406C188.624 176.643 188.136 176.759 187.604 176.755C187.031 176.755 186.509 176.62 186.039 176.352C185.569 176.083 185.198 175.71 184.925 175.231C184.652 174.747 184.515 174.203 184.515 173.599C184.515 172.972 184.663 172.406 184.958 171.901C185.258 171.39 185.677 170.992 186.214 170.705C186.755 170.415 187.375 170.269 188.074 170.269ZM186.221 173.532C186.221 173.881 186.299 174.201 186.456 174.492C186.617 174.779 186.838 175.007 187.12 175.177C187.407 175.342 187.729 175.425 188.087 175.425C188.436 175.425 188.756 175.34 189.047 175.17C189.343 175 189.573 174.772 189.739 174.485C189.909 174.199 189.994 173.89 189.994 173.559C189.994 173.232 189.911 172.925 189.745 172.639C189.584 172.348 189.36 172.115 189.074 171.941C188.788 171.766 188.468 171.679 188.114 171.679C187.756 171.679 187.434 171.762 187.147 171.927C186.861 172.093 186.635 172.317 186.469 172.599C186.303 172.881 186.221 173.192 186.221 173.532ZM194.081 178.917C193.893 178.917 193.719 178.87 193.558 178.776C193.396 178.682 193.269 178.554 193.175 178.393C193.081 178.232 193.034 178.057 193.034 177.869C193.034 177.686 193.081 177.516 193.175 177.359C193.269 177.198 193.396 177.07 193.558 176.976C193.719 176.882 193.893 176.835 194.081 176.835C194.265 176.835 194.435 176.882 194.591 176.976C194.753 177.07 194.88 177.198 194.974 177.359C195.068 177.516 195.115 177.686 195.115 177.869C195.115 178.057 195.068 178.232 194.974 178.393C194.88 178.554 194.753 178.682 194.591 178.776C194.435 178.87 194.265 178.917 194.081 178.917ZM194.081 173.707C193.893 173.707 193.719 173.66 193.558 173.566C193.396 173.472 193.269 173.344 193.175 173.183C193.081 173.022 193.034 172.847 193.034 172.659C193.034 172.476 193.081 172.306 193.175 172.149C193.269 171.988 193.396 171.86 193.558 171.766C193.719 171.672 193.893 171.625 194.081 171.625C194.265 171.625 194.435 171.672 194.591 171.766C194.753 171.86 194.88 171.988 194.974 172.149C195.068 172.306 195.115 172.476 195.115 172.659C195.115 172.847 195.068 173.022 194.974 173.183C194.88 173.344 194.753 173.472 194.591 173.566C194.435 173.66 194.265 173.707 194.081 173.707ZM199.995 180.259C199.216 180.259 198.547 180.065 197.987 179.675C197.428 179.281 197 178.711 196.705 177.963C196.41 177.216 196.262 176.316 196.262 175.264C196.262 174.217 196.41 173.319 196.705 172.572C197.005 171.82 197.435 171.249 197.994 170.86C198.554 170.466 199.22 170.269 199.995 170.269C200.769 170.269 201.436 170.466 201.996 170.86C202.555 171.249 202.982 171.82 203.278 172.572C203.578 173.319 203.728 174.217 203.728 175.264C203.728 176.316 203.578 177.218 203.278 177.97C202.982 178.717 202.555 179.286 201.996 179.675C201.441 180.065 200.774 180.259 199.995 180.259ZM198.021 175.264C198.021 176.414 198.193 177.29 198.538 177.889C198.887 178.489 199.373 178.791 199.995 178.796C200.402 178.791 200.753 178.657 201.049 178.393C201.344 178.129 201.57 177.733 201.727 177.204C201.888 176.676 201.969 176.03 201.969 175.264C201.969 174.503 201.888 173.859 201.727 173.331C201.57 172.798 201.344 172.397 201.049 172.129C200.753 171.86 200.402 171.724 199.995 171.719C199.587 171.724 199.236 171.86 198.941 172.129C198.645 172.397 198.417 172.798 198.256 173.331C198.099 173.859 198.021 174.503 198.021 175.264ZM208.433 180.259C207.654 180.259 206.985 180.065 206.425 179.675C205.866 179.281 205.438 178.711 205.143 177.963C204.848 177.216 204.7 176.316 204.7 175.264C204.7 174.217 204.848 173.319 205.143 172.572C205.443 171.82 205.873 171.249 206.432 170.86C206.992 170.466 207.658 170.269 208.433 170.269C209.207 170.269 209.874 170.466 210.434 170.86C210.993 171.249 211.42 171.82 211.716 172.572C212.016 173.319 212.166 174.217 212.166 175.264C212.166 176.316 212.016 177.218 211.716 177.97C211.42 178.717 210.993 179.286 210.434 179.675C209.879 180.065 209.212 180.259 208.433 180.259ZM206.459 175.264C206.459 176.414 206.631 177.29 206.976 177.889C207.325 178.489 207.811 178.791 208.433 178.796C208.84 178.791 209.191 178.657 209.487 178.393C209.782 178.129 210.008 177.733 210.165 177.204C210.326 176.676 210.407 176.03 210.407 175.264C210.407 174.503 210.326 173.859 210.165 173.331C210.008 172.798 209.782 172.397 209.487 172.129C209.191 171.86 208.84 171.724 208.433 171.719C208.025 171.724 207.674 171.86 207.379 172.129C207.083 172.397 206.855 172.798 206.694 173.331C206.537 173.859 206.459 174.503 206.459 175.264ZM216.688 174.902C217.14 174.409 217.686 174.163 218.326 174.163C218.564 174.163 218.792 174.194 219.011 174.257C219.235 174.32 219.517 174.414 219.857 174.539C220.188 174.664 220.466 174.758 220.69 174.821C220.913 174.884 221.142 174.915 221.374 174.915C221.688 174.915 221.979 174.852 222.247 174.727C222.52 174.597 222.762 174.405 222.972 174.15V175.613C222.52 176.106 221.974 176.352 221.334 176.352C221.097 176.352 220.864 176.32 220.636 176.258C220.408 176.195 220.13 176.101 219.803 175.976C219.472 175.851 219.195 175.757 218.971 175.694C218.747 175.631 218.519 175.6 218.286 175.6C217.646 175.6 217.113 175.855 216.688 176.365V174.902ZM227.643 178.863L231.08 175.546C231.452 175.175 231.738 174.87 231.939 174.633C232.145 174.391 232.302 174.154 232.409 173.921C232.517 173.684 232.57 173.434 232.57 173.169C232.57 172.874 232.497 172.614 232.349 172.391C232.206 172.167 232.007 171.995 231.751 171.874C231.501 171.753 231.219 171.692 230.905 171.692C230.574 171.692 230.283 171.76 230.033 171.894C229.786 172.024 229.596 172.209 229.462 172.451C229.332 172.693 229.267 172.977 229.267 173.304H227.602C227.602 172.699 227.741 172.169 228.018 171.713C228.3 171.252 228.692 170.896 229.193 170.645C229.699 170.394 230.274 170.269 230.919 170.269C231.572 170.269 232.15 170.39 232.651 170.632C233.157 170.873 233.548 171.209 233.826 171.639C234.108 172.064 234.249 172.547 234.249 173.089C234.244 173.465 234.171 173.827 234.027 174.177C233.884 174.521 233.638 174.906 233.289 175.331C232.94 175.757 232.445 176.271 231.805 176.875L230.073 178.594V178.661H234.397V180.125H227.643V178.863ZM235.584 178.863L239.021 175.546C239.393 175.175 239.679 174.87 239.881 174.633C240.086 174.391 240.243 174.154 240.351 173.921C240.458 173.684 240.512 173.434 240.512 173.169C240.512 172.874 240.438 172.614 240.29 172.391C240.147 172.167 239.948 171.995 239.693 171.874C239.442 171.753 239.16 171.692 238.847 171.692C238.515 171.692 238.224 171.76 237.974 171.894C237.728 172.024 237.537 172.209 237.403 172.451C237.273 172.693 237.208 172.977 237.208 173.304H235.543C235.543 172.699 235.682 172.169 235.96 171.713C236.242 171.252 236.633 170.896 237.135 170.645C237.64 170.394 238.215 170.269 238.86 170.269C239.514 170.269 240.091 170.39 240.592 170.632C241.098 170.873 241.49 171.209 241.767 171.639C242.049 172.064 242.19 172.547 242.19 173.089C242.186 173.465 242.112 173.827 241.969 174.177C241.825 174.521 241.579 174.906 241.23 175.331C240.881 175.757 240.386 176.271 239.746 176.875L238.014 178.594V178.661H242.338V180.125H235.584V178.863ZM244.599 178.917C244.411 178.917 244.236 178.87 244.075 178.776C243.914 178.682 243.787 178.554 243.693 178.393C243.599 178.232 243.552 178.057 243.552 177.869C243.552 177.686 243.599 177.516 243.693 177.359C243.787 177.198 243.914 177.07 244.075 176.976C244.236 176.882 244.411 176.835 244.599 176.835C244.783 176.835 244.953 176.882 245.109 176.976C245.27 177.07 245.398 177.198 245.492 177.359C245.586 177.516 245.633 177.686 245.633 177.869C245.633 178.057 245.586 178.232 245.492 178.393C245.398 178.554 245.27 178.682 245.109 178.776C244.953 178.87 244.783 178.917 244.599 178.917ZM244.599 173.707C244.411 173.707 244.236 173.66 244.075 173.566C243.914 173.472 243.787 173.344 243.693 173.183C243.599 173.022 243.552 172.847 243.552 172.659C243.552 172.476 243.599 172.306 243.693 172.149C243.787 171.988 243.914 171.86 244.075 171.766C244.236 171.672 244.411 171.625 244.599 171.625C244.783 171.625 244.953 171.672 245.109 171.766C245.27 171.86 245.398 171.988 245.492 172.149C245.586 172.306 245.633 172.476 245.633 172.659C245.633 172.847 245.586 173.022 245.492 173.183C245.398 173.344 245.27 173.472 245.109 173.566C244.953 173.66 244.783 173.707 244.599 173.707ZM250.513 180.259C249.734 180.259 249.065 180.065 248.505 179.675C247.946 179.281 247.518 178.711 247.223 177.963C246.927 177.216 246.78 176.316 246.78 175.264C246.78 174.217 246.927 173.319 247.223 172.572C247.523 171.82 247.952 171.249 248.512 170.86C249.071 170.466 249.738 170.269 250.513 170.269C251.287 170.269 251.954 170.466 252.513 170.86C253.073 171.249 253.5 171.82 253.796 172.572C254.096 173.319 254.246 174.217 254.246 175.264C254.246 176.316 254.096 177.218 253.796 177.97C253.5 178.717 253.073 179.286 252.513 179.675C251.958 180.065 251.291 180.259 250.513 180.259ZM248.539 175.264C248.539 176.414 248.711 177.29 249.056 177.889C249.405 178.489 249.89 178.791 250.513 178.796C250.92 178.791 251.271 178.657 251.567 178.393C251.862 178.129 252.088 177.733 252.245 177.204C252.406 176.676 252.486 176.03 252.486 175.264C252.486 174.503 252.406 173.859 252.245 173.331C252.088 172.798 251.862 172.397 251.567 172.129C251.271 171.86 250.92 171.724 250.513 171.719C250.105 171.724 249.754 171.86 249.459 172.129C249.163 172.397 248.935 172.798 248.774 173.331C248.617 173.859 248.539 174.503 248.539 175.264ZM258.951 180.259C258.172 180.259 257.503 180.065 256.943 179.675C256.384 179.281 255.956 178.711 255.661 177.963C255.365 177.216 255.218 176.316 255.218 175.264C255.218 174.217 255.365 173.319 255.661 172.572C255.961 171.82 256.39 171.249 256.95 170.86C257.509 170.466 258.176 170.269 258.951 170.269C259.725 170.269 260.392 170.466 260.951 170.86C261.511 171.249 261.938 171.82 262.234 172.572C262.534 173.319 262.684 174.217 262.684 175.264C262.684 176.316 262.534 177.218 262.234 177.97C261.938 178.717 261.511 179.286 260.951 179.675C260.396 180.065 259.729 180.259 258.951 180.259ZM256.977 175.264C256.977 176.414 257.149 177.29 257.494 177.889C257.843 178.489 258.328 178.791 258.951 178.796C259.358 178.791 259.709 178.657 260.005 178.393C260.3 178.129 260.526 177.733 260.683 177.204C260.844 176.676 260.924 176.03 260.924 175.264C260.924 174.503 260.844 173.859 260.683 173.331C260.526 172.798 260.3 172.397 260.005 172.129C259.709 171.86 259.358 171.724 258.951 171.719C258.543 171.724 258.192 171.86 257.897 172.129C257.601 172.397 257.373 172.798 257.212 173.331C257.055 173.859 256.977 174.503 256.977 175.264Z" fill="#191F28"/>
<path d="M292.293 157.125H438.126V186.875C438.126 190.327 435.328 193.125 431.876 193.125H292.293V157.125Z" fill="white"/>
<path d="M327.09 180.259C326.311 180.259 325.642 180.065 325.082 179.675C324.523 179.281 324.095 178.711 323.8 177.963C323.504 177.216 323.357 176.316 323.357 175.264C323.357 174.217 323.504 173.319 323.8 172.572C324.1 171.82 324.529 171.249 325.089 170.86C325.648 170.466 326.315 170.269 327.09 170.269C327.864 170.269 328.531 170.466 329.09 170.86C329.65 171.249 330.077 171.82 330.373 172.572C330.673 173.319 330.823 174.217 330.823 175.264C330.823 176.316 330.673 177.218 330.373 177.97C330.077 178.717 329.65 179.286 329.09 179.675C328.535 180.065 327.868 180.259 327.09 180.259ZM325.116 175.264C325.116 176.414 325.288 177.29 325.633 177.889C325.982 178.489 326.467 178.791 327.09 178.796C327.497 178.791 327.848 178.657 328.144 178.393C328.439 178.129 328.665 177.733 328.822 177.204C328.983 176.676 329.064 176.03 329.064 175.264C329.064 174.503 328.983 173.859 328.822 173.331C328.665 172.798 328.439 172.397 328.144 172.129C327.848 171.86 327.497 171.724 327.09 171.719C326.682 171.724 326.331 171.86 326.036 172.129C325.74 172.397 325.512 172.798 325.351 173.331C325.194 173.859 325.116 174.503 325.116 175.264ZM335.367 170.269C336.056 170.269 336.687 170.421 337.26 170.726C337.833 171.025 338.298 171.527 338.656 172.229C339.014 172.928 339.193 173.841 339.193 174.969C339.193 176.074 339.035 177.023 338.717 177.815C338.399 178.608 337.947 179.214 337.361 179.635C336.774 180.051 336.083 180.259 335.286 180.259C334.673 180.259 334.122 180.141 333.634 179.903C333.151 179.666 332.759 179.337 332.459 178.917C332.16 178.496 331.974 178.017 331.902 177.48H333.634C333.724 177.869 333.912 178.178 334.198 178.406C334.489 178.63 334.852 178.742 335.286 178.742C335.751 178.742 336.15 178.61 336.481 178.346C336.812 178.082 337.063 177.701 337.233 177.204C337.408 176.703 337.497 176.106 337.502 175.412H337.394C337.148 175.833 336.803 176.164 336.36 176.406C335.917 176.643 335.429 176.759 334.897 176.755C334.324 176.755 333.802 176.62 333.332 176.352C332.862 176.083 332.491 175.71 332.218 175.231C331.945 174.747 331.808 174.203 331.808 173.599C331.808 172.972 331.956 172.406 332.251 171.901C332.551 171.39 332.97 170.992 333.507 170.705C334.048 170.415 334.668 170.269 335.367 170.269ZM333.513 173.532C333.513 173.881 333.592 174.201 333.748 174.492C333.91 174.779 334.131 175.007 334.413 175.177C334.7 175.342 335.022 175.425 335.38 175.425C335.729 175.425 336.049 175.34 336.34 175.17C336.635 175 336.866 174.772 337.032 174.485C337.202 174.199 337.287 173.89 337.287 173.559C337.287 173.232 337.204 172.925 337.038 172.639C336.877 172.348 336.653 172.115 336.367 171.941C336.08 171.766 335.76 171.679 335.407 171.679C335.049 171.679 334.726 171.762 334.44 171.927C334.154 172.093 333.927 172.317 333.762 172.599C333.596 172.881 333.513 173.192 333.513 173.532ZM341.374 178.917C341.186 178.917 341.012 178.87 340.85 178.776C340.689 178.682 340.562 178.554 340.468 178.393C340.374 178.232 340.327 178.057 340.327 177.869C340.327 177.686 340.374 177.516 340.468 177.359C340.562 177.198 340.689 177.07 340.85 176.976C341.012 176.882 341.186 176.835 341.374 176.835C341.558 176.835 341.728 176.882 341.884 176.976C342.045 177.07 342.173 177.198 342.267 177.359C342.361 177.516 342.408 177.686 342.408 177.869C342.408 178.057 342.361 178.232 342.267 178.393C342.173 178.554 342.045 178.682 341.884 178.776C341.728 178.87 341.558 178.917 341.374 178.917ZM341.374 173.707C341.186 173.707 341.012 173.66 340.85 173.566C340.689 173.472 340.562 173.344 340.468 173.183C340.374 173.022 340.327 172.847 340.327 172.659C340.327 172.476 340.374 172.306 340.468 172.149C340.562 171.988 340.689 171.86 340.85 171.766C341.012 171.672 341.186 171.625 341.374 171.625C341.558 171.625 341.728 171.672 341.884 171.766C342.045 171.86 342.173 171.988 342.267 172.149C342.361 172.306 342.408 172.476 342.408 172.659C342.408 172.847 342.361 173.022 342.267 173.183C342.173 173.344 342.045 173.472 341.884 173.566C341.728 173.66 341.558 173.707 341.374 173.707ZM347.288 180.259C346.509 180.259 345.84 180.065 345.28 179.675C344.721 179.281 344.293 178.711 343.998 177.963C343.702 177.216 343.555 176.316 343.555 175.264C343.555 174.217 343.702 173.319 343.998 172.572C344.298 171.82 344.727 171.249 345.287 170.86C345.846 170.466 346.513 170.269 347.288 170.269C348.062 170.269 348.729 170.466 349.288 170.86C349.848 171.249 350.275 171.82 350.571 172.572C350.871 173.319 351.021 174.217 351.021 175.264C351.021 176.316 350.871 177.218 350.571 177.97C350.275 178.717 349.848 179.286 349.288 179.675C348.733 180.065 348.066 180.259 347.288 180.259ZM345.314 175.264C345.314 176.414 345.486 177.29 345.831 177.889C346.18 178.489 346.665 178.791 347.288 178.796C347.695 178.791 348.046 178.657 348.342 178.393C348.637 178.129 348.863 177.733 349.02 177.204C349.181 176.676 349.262 176.03 349.262 175.264C349.262 174.503 349.181 173.859 349.02 173.331C348.863 172.798 348.637 172.397 348.342 172.129C348.046 171.86 347.695 171.724 347.288 171.719C346.88 171.724 346.529 171.86 346.234 172.129C345.938 172.397 345.71 172.798 345.549 173.331C345.392 173.859 345.314 174.503 345.314 175.264ZM355.726 180.259C354.947 180.259 354.278 180.065 353.718 179.675C353.159 179.281 352.731 178.711 352.436 177.963C352.14 177.216 351.993 176.316 351.993 175.264C351.993 174.217 352.14 173.319 352.436 172.572C352.736 171.82 353.165 171.249 353.725 170.86C354.284 170.466 354.951 170.269 355.726 170.269C356.5 170.269 357.167 170.466 357.726 170.86C358.286 171.249 358.713 171.82 359.009 172.572C359.309 173.319 359.459 174.217 359.459 175.264C359.459 176.316 359.309 177.218 359.009 177.97C358.713 178.717 358.286 179.286 357.726 179.675C357.171 180.065 356.504 180.259 355.726 180.259ZM353.752 175.264C353.752 176.414 353.924 177.29 354.269 177.889C354.618 178.489 355.103 178.791 355.726 178.796C356.133 178.791 356.484 178.657 356.78 178.393C357.075 178.129 357.301 177.733 357.458 177.204C357.619 176.676 357.7 176.03 357.7 175.264C357.7 174.503 357.619 173.859 357.458 173.331C357.301 172.798 357.075 172.397 356.78 172.129C356.484 171.86 356.133 171.724 355.726 171.719C355.318 171.724 354.967 171.86 354.672 172.129C354.376 172.397 354.148 172.798 353.987 173.331C353.83 173.859 353.752 174.503 353.752 175.264ZM363.981 174.902C364.433 174.409 364.979 174.163 365.619 174.163C365.856 174.163 366.085 174.194 366.304 174.257C366.528 174.32 366.81 174.414 367.15 174.539C367.481 174.664 367.759 174.758 367.982 174.821C368.206 174.884 368.435 174.915 368.667 174.915C368.981 174.915 369.272 174.852 369.54 174.727C369.813 174.597 370.055 174.405 370.265 174.15V175.613C369.813 176.106 369.267 176.352 368.627 176.352C368.39 176.352 368.157 176.32 367.929 176.258C367.7 176.195 367.423 176.101 367.096 175.976C366.765 175.851 366.488 175.757 366.264 175.694C366.04 175.631 365.812 175.6 365.579 175.6C364.939 175.6 364.406 175.855 363.981 176.365V174.902ZM378.883 180.125H377.124V172.109H377.07L374.801 173.559V171.961L377.205 170.403H378.883V180.125ZM385.481 171.934V171.867H380.594V170.403H387.294V171.894L383.078 180.125H381.265L385.481 171.934ZM388.978 178.917C388.79 178.917 388.616 178.87 388.454 178.776C388.293 178.682 388.166 178.554 388.072 178.393C387.978 178.232 387.931 178.057 387.931 177.869C387.931 177.686 387.978 177.516 388.072 177.359C388.166 177.198 388.293 177.07 388.454 176.976C388.616 176.882 388.79 176.835 388.978 176.835C389.162 176.835 389.332 176.882 389.488 176.976C389.649 177.07 389.777 177.198 389.871 177.359C389.965 177.516 390.012 177.686 390.012 177.869C390.012 178.057 389.965 178.232 389.871 178.393C389.777 178.554 389.649 178.682 389.488 178.776C389.332 178.87 389.162 178.917 388.978 178.917ZM388.978 173.707C388.79 173.707 388.616 173.66 388.454 173.566C388.293 173.472 388.166 173.344 388.072 173.183C387.978 173.022 387.931 172.847 387.931 172.659C387.931 172.476 387.978 172.306 388.072 172.149C388.166 171.988 388.293 171.86 388.454 171.766C388.616 171.672 388.79 171.625 388.978 171.625C389.162 171.625 389.332 171.672 389.488 171.766C389.649 171.86 389.777 171.988 389.871 172.149C389.965 172.306 390.012 172.476 390.012 172.659C390.012 172.847 389.965 173.022 389.871 173.183C389.777 173.344 389.649 173.472 389.488 173.566C389.332 173.66 389.162 173.707 388.978 173.707ZM394.892 180.259C394.113 180.259 393.444 180.065 392.884 179.675C392.325 179.281 391.897 178.711 391.602 177.963C391.306 177.216 391.159 176.316 391.159 175.264C391.159 174.217 391.306 173.319 391.602 172.572C391.902 171.82 392.331 171.249 392.891 170.86C393.45 170.466 394.117 170.269 394.892 170.269C395.666 170.269 396.333 170.466 396.892 170.86C397.452 171.249 397.879 171.82 398.175 172.572C398.475 173.319 398.625 174.217 398.625 175.264C398.625 176.316 398.475 177.218 398.175 177.97C397.879 178.717 397.452 179.286 396.892 179.675C396.337 180.065 395.67 180.259 394.892 180.259ZM392.918 175.264C392.918 176.414 393.09 177.29 393.435 177.889C393.784 178.489 394.269 178.791 394.892 178.796C395.299 178.791 395.65 178.657 395.946 178.393C396.241 178.129 396.467 177.733 396.624 177.204C396.785 176.676 396.866 176.03 396.866 175.264C396.866 174.503 396.785 173.859 396.624 173.331C396.467 172.798 396.241 172.397 395.946 172.129C395.65 171.86 395.299 171.724 394.892 171.719C394.484 171.724 394.133 171.86 393.838 172.129C393.542 172.397 393.314 172.798 393.153 173.331C392.996 173.859 392.918 174.503 392.918 175.264ZM403.33 180.259C402.551 180.259 401.882 180.065 401.322 179.675C400.763 179.281 400.335 178.711 400.04 177.963C399.744 177.216 399.597 176.316 399.597 175.264C399.597 174.217 399.744 173.319 400.04 172.572C400.34 171.82 400.769 171.249 401.329 170.86C401.888 170.466 402.555 170.269 403.33 170.269C404.104 170.269 404.771 170.466 405.33 170.86C405.89 171.249 406.317 171.82 406.613 172.572C406.913 173.319 407.063 174.217 407.063 175.264C407.063 176.316 406.913 177.218 406.613 177.97C406.317 178.717 405.89 179.286 405.33 179.675C404.775 180.065 404.108 180.259 403.33 180.259ZM401.356 175.264C401.356 176.414 401.528 177.29 401.873 177.889C402.222 178.489 402.707 178.791 403.33 178.796C403.737 178.791 404.088 178.657 404.384 178.393C404.679 178.129 404.905 177.733 405.062 177.204C405.223 176.676 405.304 176.03 405.304 175.264C405.304 174.503 405.223 173.859 405.062 173.331C404.905 172.798 404.679 172.397 404.384 172.129C404.088 171.86 403.737 171.724 403.33 171.719C402.922 171.724 402.571 171.86 402.276 172.129C401.98 172.397 401.752 172.798 401.591 173.331C401.434 173.859 401.356 174.503 401.356 175.264Z" fill="#191F28"/>
</svg>
