<svg width="439" height="167" viewBox="0 0 439 167" fill="none" xmlns="http://www.w3.org/2000/svg">
<path d="M14.4507 6.99463H1.83838V5.49072H7.22168V3.8501H9.10156V5.49072H14.4507V6.99463ZM1.1377 13.7622H15.2539V15.3003H11.8359V19.3506H9.92188V15.3003H6.45264V19.3506H4.55566V15.3003H1.1377V13.7622ZM2.93213 10.3101C2.93213 9.75749 3.14006 9.28752 3.55591 8.90015C3.97176 8.50708 4.56991 8.21086 5.35034 8.01147C6.13647 7.8064 7.07357 7.70101 8.16162 7.69531C9.24967 7.70101 10.1839 7.8064 10.9644 8.01147C11.7505 8.21086 12.3515 8.50708 12.7673 8.90015C13.1832 9.28752 13.3911 9.75749 13.3911 10.3101C13.3911 10.8626 13.1832 11.3354 12.7673 11.7285C12.3515 12.1216 11.7505 12.4207 10.9644 12.6257C10.1839 12.8251 9.24967 12.9248 8.16162 12.9248C7.07357 12.9248 6.13647 12.8251 5.35034 12.6257C4.56991 12.4207 3.97176 12.1216 3.55591 11.7285C3.14006 11.3354 2.93213 10.8626 2.93213 10.3101ZM4.91455 10.3101C4.90885 10.6917 5.17375 10.9823 5.70923 11.1816C6.25041 11.3753 7.04508 11.4722 8.09326 11.4722C9.18701 11.4722 10.013 11.3753 10.5713 11.1816C11.1353 10.988 11.4201 10.6974 11.4258 10.3101C11.4201 9.53532 10.332 9.14225 8.16162 9.13086C5.99121 9.14225 4.90885 9.53532 4.91455 10.3101ZM24.4551 5.95215V6.15723C24.4437 6.92057 24.4152 7.6355 24.3696 8.302C24.3241 8.96281 24.2272 9.69482 24.0791 10.498L22.1992 10.3271C22.3359 9.60938 22.4299 8.95426 22.4812 8.36182C22.5382 7.76937 22.5723 7.18262 22.5837 6.60156H16.5767V5.0293H24.4551V5.95215ZM15.97 11.7285C17.2118 11.7171 18.1147 11.7057 18.6787 11.6943V8.5498H20.5586V11.6345C22.3872 11.5548 23.9652 11.4209 25.2925 11.2329L25.395 12.6001C23.9652 12.8564 22.4641 13.0273 20.8918 13.1128C19.3196 13.1982 17.6305 13.2438 15.8247 13.2495L15.6538 11.7285H15.97ZM17.9609 14.4287H19.875V17.4878H28.6421V19.0259H17.9609V14.4287ZM26.1982 3.88428H28.1465V8.70361H30.146V10.293H28.1465V15.4541H26.1982V3.88428ZM34.8867 4.37988C35.6615 4.37988 36.3593 4.53084 36.9802 4.83276C37.6012 5.12899 38.0882 5.54199 38.4414 6.07178C38.8003 6.60156 38.9826 7.19971 38.9883 7.86621C38.9826 8.53841 38.8003 9.1394 38.4414 9.66919C38.0882 10.1933 37.6012 10.6063 36.9802 10.9082C36.3593 11.2044 35.6615 11.3525 34.8867 11.3525C34.1063 11.3525 33.4028 11.2044 32.7761 10.9082C32.1552 10.6063 31.6681 10.1933 31.3149 9.66919C30.9618 9.1394 30.7852 8.53841 30.7852 7.86621C30.7852 7.19971 30.9618 6.60156 31.3149 6.07178C31.6681 5.54199 32.1552 5.12899 32.7761 4.83276C33.4028 4.53084 34.1063 4.37988 34.8867 4.37988ZM32.6309 7.86621C32.6309 8.25928 32.7277 8.60392 32.9214 8.90015C33.1151 9.19067 33.3828 9.41569 33.7246 9.5752C34.0664 9.7347 34.4538 9.81445 34.8867 9.81445C35.3197 9.81445 35.7042 9.7347 36.0403 9.5752C36.3821 9.41569 36.6498 9.19067 36.8435 8.90015C37.0429 8.60392 37.1426 8.25928 37.1426 7.86621C37.1426 7.48454 37.0429 7.14844 36.8435 6.85791C36.6498 6.56738 36.3821 6.34521 36.0403 6.19141C35.7042 6.0319 35.3197 5.95215 34.8867 5.95215C34.4538 5.95215 34.0664 6.0319 33.7246 6.19141C33.3828 6.34521 33.1151 6.56738 32.9214 6.85791C32.7277 7.14844 32.6309 7.48454 32.6309 7.86621ZM33.1265 12.3608H43.3804V16.394H35.0234V17.6416H43.8418V19.1455H33.1606V14.9927H41.4834V13.8477H33.1265V12.3608ZM41.4663 3.88428H43.3804V11.6943H41.4663V3.88428Z" fill="#191F28"/>
<path d="M3.125 30.5625L30.7658 30.5625" stroke="#191F28" stroke-width="1.97434" stroke-linecap="round"/>
<g clip-path="url(#clip0_3024_11294)">
<path d="M9.7625 64.35L7.45156 62.0391C7.25677 61.8443 7.01771 61.7469 6.73438 61.7469C6.45104 61.7469 6.20312 61.8531 5.99063 62.0656C5.79583 62.2604 5.69844 62.5083 5.69844 62.8094C5.69844 63.1104 5.79583 63.3583 5.99063 63.5531L9.01875 66.5812C9.21354 66.776 9.46146 66.8734 9.7625 66.8734C10.0635 66.8734 10.3115 66.776 10.5063 66.5812L16.5359 60.5516C16.7307 60.3568 16.8281 60.1177 16.8281 59.8344C16.8281 59.551 16.7219 59.3031 16.5094 59.0906C16.3146 58.8958 16.0667 58.7984 15.7656 58.7984C15.4646 58.7984 15.2167 58.8958 15.0219 59.0906L9.7625 64.35ZM11.25 73.0625C9.78021 73.0625 8.39896 72.7834 7.10625 72.2253C5.81354 71.6678 4.68906 70.9109 3.73281 69.9547C2.77656 68.9984 2.01971 67.874 1.46225 66.5812C0.904083 65.2885 0.625 63.9073 0.625 62.4375C0.625 60.9677 0.904083 59.5865 1.46225 58.2938C2.01971 57.001 2.77656 55.8766 3.73281 54.9203C4.68906 53.9641 5.81354 53.2069 7.10625 52.6487C8.39896 52.0912 9.78021 51.8125 11.25 51.8125C12.7198 51.8125 14.101 52.0912 15.3937 52.6487C16.6865 53.2069 17.8109 53.9641 18.7672 54.9203C19.7234 55.8766 20.4803 57.001 21.0378 58.2938C21.5959 59.5865 21.875 60.9677 21.875 62.4375C21.875 63.9073 21.5959 65.2885 21.0378 66.5812C20.4803 67.874 19.7234 68.9984 18.7672 69.9547C17.8109 70.9109 16.6865 71.6678 15.3937 72.2253C14.101 72.7834 12.7198 73.0625 11.25 73.0625Z" fill="#ADB5BD"/>
<g clip-path="url(#clip1_3024_11294)">
<path d="M46.0291 64.2222H44.5825V59.9558H41.3049V58.7656H44.5825V54.5176H46.0291V64.2222ZM32.6074 62.9221C33.407 62.6353 34.118 62.2141 34.7406 61.6587C35.3693 61.1033 35.8606 60.4655 36.2146 59.7452C36.5686 59.025 36.7456 58.2834 36.7456 57.5205V56.9163H33.0652V55.7078H41.8359V56.9163H38.1921V57.5022C38.1921 58.2041 38.36 58.8846 38.6957 59.5438C39.0314 60.203 39.5044 60.7889 40.1147 61.3016C40.7251 61.8082 41.4209 62.1958 42.2021 62.4644L41.4514 63.6179C40.5481 63.2883 39.7516 62.8 39.0619 62.1531C38.3783 61.5061 37.8595 60.7584 37.5055 59.91C37.1576 60.8622 36.6205 61.7014 35.8942 62.4277C35.174 63.1541 34.3286 63.7034 33.3582 64.0757L32.6074 62.9221ZM35.1709 67.7561C35.1709 67.1213 35.3876 66.5781 35.8209 66.1265C36.2604 65.6748 36.889 65.33 37.7069 65.0919C38.5309 64.8539 39.5044 64.7349 40.6274 64.7349C41.7505 64.7349 42.7209 64.8539 43.5388 65.0919C44.3567 65.33 44.9854 65.6748 45.4248 66.1265C45.8643 66.5781 46.084 67.1213 46.084 67.7561C46.084 68.3909 45.8643 68.9341 45.4248 69.3857C44.9854 69.8374 44.3567 70.1823 43.5388 70.4203C42.7209 70.6644 41.7505 70.7896 40.6274 70.7957C39.4983 70.7896 38.5248 70.6644 37.7069 70.4203C36.889 70.1823 36.2604 69.8374 35.8209 69.3857C35.3876 68.9341 35.1709 68.3909 35.1709 67.7561ZM36.5991 67.7561C36.5991 68.1406 36.7578 68.4763 37.0752 68.7632C37.3926 69.0439 37.8503 69.2606 38.4485 69.4132C39.0527 69.5658 39.7638 69.6421 40.5817 69.6421C41.4178 69.6421 42.1411 69.5658 42.7515 69.4132C43.3618 69.2667 43.8318 69.0531 44.1614 68.7723C44.491 68.4855 44.6558 68.1467 44.6558 67.7561C44.6558 67.3655 44.494 67.0267 44.1705 66.7399C43.847 66.453 43.3801 66.2333 42.7698 66.0807C42.1655 65.9281 41.4514 65.8518 40.6274 65.8518C39.7974 65.8518 39.0802 65.9281 38.476 66.0807C37.8717 66.2333 37.4078 66.453 37.0844 66.7399C36.7609 67.0267 36.5991 67.3655 36.5991 67.7561ZM61.7285 70.7957H60.282V54.5176H61.7285V70.7957ZM48.4717 66.5659C50.6445 65.5344 52.3077 64.2527 53.4613 62.7207C54.621 61.1887 55.2832 59.437 55.448 57.4656H49.2224V56.2937H56.9128C56.9006 58.7473 56.2781 60.9537 55.0452 62.913C53.8123 64.8722 51.8835 66.4805 49.259 67.7378L48.4717 66.5659ZM77.9773 57.5022H64.7754V56.3303H70.708V54.426H72.1179V56.3303H77.9773V57.5022ZM64.0063 64.918H78.9111V66.1082H74.9744V70.8323H73.5461V66.1082H69.3347V70.8323H67.8882V66.1082H64.0063V64.918ZM66.1121 61.1277C66.106 60.554 66.3135 60.0657 66.7346 59.6628C67.1558 59.26 67.7631 58.9548 68.5565 58.7473C69.3561 58.5398 70.3113 58.436 71.4221 58.436C72.5208 58.436 73.4668 58.5398 74.2603 58.7473C75.0598 58.9548 75.6702 59.26 76.0913 59.6628C76.5186 60.0657 76.7322 60.554 76.7322 61.1277C76.7322 61.6953 76.5186 62.1805 76.0913 62.5834C75.6702 62.9862 75.0598 63.2944 74.2603 63.5081C73.4668 63.7156 72.5208 63.8193 71.4221 63.8193C70.3113 63.8193 69.3561 63.7156 68.5565 63.5081C67.7631 63.2944 67.1558 62.9862 66.7346 62.5834C66.3135 62.1805 66.106 61.6953 66.1121 61.1277ZM67.5952 61.1277C67.583 61.6221 67.9095 62.0096 68.5748 62.2904C69.2401 62.5651 70.1709 62.7024 71.3672 62.7024C72.5879 62.7024 73.537 62.5651 74.2145 62.2904C74.8981 62.0157 75.2429 61.6282 75.249 61.1277C75.2429 60.6272 74.9042 60.2396 74.2328 59.965C73.5614 59.6903 72.6245 59.5469 71.4221 59.5347C70.2014 59.5469 69.2554 59.6903 68.584 59.965C67.9187 60.2396 67.5891 60.6272 67.5952 61.1277ZM88.7695 56.6416C88.7634 57.49 88.736 58.2743 88.6871 58.9945C88.6383 59.7147 88.5254 60.5356 88.3484 61.4573L86.9019 61.3474C87.0728 60.4929 87.1857 59.733 87.2406 59.0677C87.3016 58.4025 87.3383 57.7097 87.3505 56.9895H80.658V55.781H88.7695V56.6416ZM79.6509 62.9771C80.9387 62.9771 82.1045 62.9618 83.1482 62.9313V59.3882H84.5764V62.8855C86.676 62.8 88.4644 62.6536 89.9414 62.446L90.033 63.5081C88.5132 63.7705 86.908 63.9445 85.2173 64.0299C83.5266 64.1154 81.72 64.1611 79.7974 64.1672L79.6509 62.9771ZM82.1594 65.6687H83.606V69.2393H93.0359V70.4478H82.1594V65.6687ZM91.04 54.5176H92.5049V59.8276H94.8853V61.0544H92.5049V66.7673H91.04V54.5176ZM100.093 55.1218C100.898 55.1218 101.619 55.2775 102.253 55.5887C102.894 55.8939 103.395 56.3212 103.755 56.8705C104.121 57.4137 104.304 58.0332 104.304 58.729C104.304 59.4248 104.121 60.0474 103.755 60.5967C103.395 61.1399 102.894 61.5641 102.253 61.8693C101.619 62.1683 100.898 62.3179 100.093 62.3179C99.281 62.3179 98.5516 62.1683 97.9047 61.8693C97.2638 61.5641 96.7633 61.1399 96.4032 60.5967C96.0431 60.0474 95.863 59.4248 95.863 58.729C95.863 58.0332 96.0431 57.4137 96.4032 56.8705C96.7633 56.3212 97.2638 55.8939 97.9047 55.5887C98.5516 55.2775 99.281 55.1218 100.093 55.1218ZM97.2729 58.729C97.2668 59.199 97.3828 59.6171 97.6208 59.9833C97.865 60.3495 98.2007 60.6364 98.6279 60.8439C99.0613 61.0453 99.5496 61.146 100.093 61.146C100.624 61.146 101.103 61.0453 101.53 60.8439C101.964 60.6364 102.302 60.3495 102.546 59.9833C102.791 59.6171 102.913 59.199 102.913 58.729C102.913 58.2651 102.791 57.8501 102.546 57.4839C102.302 57.1177 101.964 56.8339 101.53 56.6324C101.103 56.431 100.624 56.3303 100.093 56.3303C99.5496 56.3303 99.0613 56.431 98.6279 56.6324C98.2007 56.8339 97.865 57.1177 97.6208 57.4839C97.3828 57.8501 97.2668 58.2651 97.2729 58.729ZM98.335 63.6729H108.918V67.5913H99.7815V69.4224H109.504V70.5759H98.3716V66.511H107.49V64.8264H98.335V63.6729ZM107.49 54.5176H108.918V62.8855H107.49V54.5176ZM117.173 69.4224C116.959 69.4224 116.761 69.3674 116.578 69.2576C116.401 69.1477 116.257 69.0043 116.147 68.8273C116.044 68.6442 115.995 68.4458 116.001 68.2322C115.995 68.0247 116.044 67.8324 116.147 67.6554C116.257 67.4723 116.401 67.3289 116.578 67.2251C116.761 67.1152 116.959 67.0603 117.173 67.0603C117.38 67.0603 117.573 67.1122 117.75 67.2159C117.933 67.3197 118.076 67.4601 118.18 67.6371C118.29 67.8141 118.345 68.0063 118.345 68.2139C118.345 68.5435 118.232 68.8273 118.006 69.0653C117.78 69.2972 117.502 69.4163 117.173 69.4224ZM117.173 62.0615C116.959 62.0615 116.761 62.0066 116.578 61.8967C116.401 61.7869 116.257 61.6434 116.147 61.4664C116.044 61.2833 115.995 61.085 116.001 60.8713C115.995 60.6638 116.044 60.4716 116.147 60.2946C116.257 60.1115 116.401 59.968 116.578 59.8643C116.761 59.7544 116.959 59.6995 117.173 59.6995C117.38 59.6995 117.573 59.7513 117.75 59.8551C117.933 59.9589 118.076 60.0992 118.18 60.2762C118.29 60.4532 118.345 60.6455 118.345 60.853C118.345 61.1826 118.232 61.4664 118.006 61.7045C117.78 61.9364 117.502 62.0554 117.173 62.0615ZM137.933 70.7957H136.542V62.1714H134.271V69.9717H132.898V54.8655H134.271V60.9812H136.542V54.5176H137.933V70.7957ZM124.585 56.4219H130.811V66.4194H124.585V56.4219ZM129.456 65.2659V57.5754H125.94V65.2659H129.456ZM147.938 56.8247C147.938 57.5205 148.21 58.1858 148.753 58.8206C149.302 59.4492 150.02 59.9802 150.905 60.4136C151.79 60.8469 152.711 61.1338 153.669 61.2742L153.138 62.4094C152.278 62.2629 151.451 62.0188 150.657 61.677C149.864 61.3291 149.156 60.8988 148.533 60.3861C147.917 59.8734 147.45 59.2997 147.133 58.6649C146.815 59.2997 146.348 59.8734 145.732 60.3861C145.115 60.8988 144.41 61.3291 143.617 61.677C142.83 62.0188 142.012 62.2629 141.163 62.4094L140.596 61.2742C141.554 61.1338 142.473 60.8469 143.351 60.4136C144.23 59.9802 144.944 59.4492 145.494 58.8206C146.049 58.1858 146.327 57.5205 146.327 56.8247V56.7148H141.108V55.543H153.138V56.7148H147.938V56.8247ZM139.717 63.801H154.548V64.9912H147.81V70.7957H146.4V64.9912H139.717V63.801ZM173.112 64.1306H171.665V63.2334H168.369V62.2812H171.665V54.5359H173.112V64.1306ZM160.853 60.6699C164.728 60.6699 167.887 60.5356 170.328 60.2671L170.42 61.2009C168.937 61.4146 167.313 61.561 165.549 61.6404V64.1855H164.139V61.6953C163.114 61.7319 161.667 61.7502 159.8 61.7502L159.635 60.6699H160.853ZM160.898 57.3008C160.898 56.8003 161.063 56.3669 161.393 56.0007C161.729 55.6284 162.202 55.3446 162.812 55.1493C163.422 54.9479 164.133 54.8472 164.945 54.8472C165.751 54.8472 166.456 54.9479 167.06 55.1493C167.67 55.3446 168.143 55.6284 168.479 56.0007C168.815 56.3669 168.986 56.8003 168.992 57.3008C168.986 57.8013 168.815 58.2346 168.479 58.6008C168.143 58.967 167.67 59.2478 167.06 59.4431C166.456 59.6384 165.751 59.7361 164.945 59.7361C164.127 59.7361 163.413 59.6384 162.803 59.4431C162.198 59.2478 161.729 58.967 161.393 58.6008C161.063 58.2346 160.898 57.8013 160.898 57.3008ZM162.125 64.7166H173.112V68.0857H163.608V69.5505H173.643V70.6125H162.198V67.0786H171.683V65.7603H162.125V64.7166ZM162.253 57.3008C162.253 57.5876 162.363 57.8409 162.583 58.0607C162.803 58.2743 163.117 58.4421 163.526 58.5642C163.935 58.6863 164.408 58.7473 164.945 58.7473C165.476 58.7473 165.943 58.6863 166.346 58.5642C166.755 58.4421 167.072 58.2743 167.298 58.0607C167.524 57.8409 167.637 57.5876 167.637 57.3008C167.637 57.0139 167.524 56.7637 167.298 56.55C167.078 56.3303 166.767 56.1594 166.364 56.0374C165.967 55.9153 165.507 55.8542 164.982 55.8542C164.432 55.8542 163.95 55.9153 163.535 56.0374C163.126 56.1533 162.809 56.3212 162.583 56.5409C162.363 56.7545 162.253 57.0078 162.253 57.3008ZM190.331 68.7083H175.426V67.4998H179.125V63.1144C178.417 62.7482 177.867 62.2751 177.477 61.6953C177.086 61.1155 176.891 60.4624 176.891 59.7361C176.891 58.9121 177.144 58.1827 177.651 57.548C178.157 56.9132 178.859 56.4219 179.756 56.074C180.66 55.7261 181.688 55.5491 182.842 55.543C183.995 55.5491 185.021 55.7261 185.918 56.074C186.821 56.4219 187.526 56.9132 188.033 57.548C188.539 58.1827 188.793 58.9121 188.793 59.7361C188.793 60.4502 188.604 61.0941 188.225 61.6678C187.847 62.2355 187.316 62.7024 186.632 63.0686V67.4998H190.331V68.7083ZM178.282 59.7361C178.282 60.3342 178.475 60.8652 178.859 61.3291C179.244 61.7869 179.781 62.1439 180.471 62.4003C181.166 62.6505 181.957 62.7756 182.842 62.7756C183.721 62.7756 184.505 62.6505 185.195 62.4003C185.884 62.1439 186.425 61.7869 186.815 61.3291C187.206 60.8652 187.401 60.3342 187.401 59.7361C187.401 59.1379 187.206 58.61 186.815 58.1522C186.425 57.6945 185.884 57.3435 185.195 57.0994C184.505 56.8491 183.721 56.7271 182.842 56.7332C181.957 56.7271 181.166 56.8491 180.471 57.0994C179.781 57.3435 179.244 57.6945 178.859 58.1522C178.475 58.61 178.282 59.1379 178.282 59.7361ZM185.186 67.4998V63.6271C184.459 63.8163 183.678 63.9109 182.842 63.9109C182 63.9109 181.23 63.8193 180.535 63.6362V67.4998H185.186ZM195.776 55.1218C196.582 55.1218 197.302 55.2775 197.937 55.5887C198.578 55.8939 199.078 56.3212 199.438 56.8705C199.805 57.4137 199.988 58.0332 199.988 58.729C199.988 59.4248 199.805 60.0474 199.438 60.5967C199.078 61.1399 198.578 61.5641 197.937 61.8693C197.302 62.1683 196.582 62.3179 195.776 62.3179C194.965 62.3179 194.235 62.1683 193.588 61.8693C192.947 61.5641 192.447 61.1399 192.087 60.5967C191.727 60.0474 191.547 59.4248 191.547 58.729C191.547 58.0332 191.727 57.4137 192.087 56.8705C192.447 56.3212 192.947 55.8939 193.588 55.5887C194.235 55.2775 194.965 55.1218 195.776 55.1218ZM192.957 58.729C192.95 59.199 193.066 59.6171 193.304 59.9833C193.549 60.3495 193.884 60.6364 194.312 60.8439C194.745 61.0453 195.233 61.146 195.776 61.146C196.307 61.146 196.786 61.0453 197.214 60.8439C197.647 60.6364 197.986 60.3495 198.23 59.9833C198.474 59.6171 198.596 59.199 198.596 58.729C198.596 58.2651 198.474 57.8501 198.23 57.4839C197.986 57.1177 197.647 56.8339 197.214 56.6324C196.786 56.431 196.307 56.3303 195.776 56.3303C195.233 56.3303 194.745 56.431 194.312 56.6324C193.884 56.8339 193.549 57.1177 193.304 57.4839C193.066 57.8501 192.95 58.2651 192.957 58.729ZM194.019 63.6729H204.602V67.5913H195.465V69.4224H205.188V70.5759H194.055V66.511H203.174V64.8264H194.019V63.6729ZM203.174 54.5176H204.602V62.8855H203.174V54.5176ZM207.905 64.2588C207.924 60.9385 208.802 58.0149 210.542 55.488H211.934C211.519 56.0984 211.128 56.8888 210.762 57.8593C210.396 58.8236 210.099 59.8704 209.874 60.9995C209.648 62.1226 209.535 63.209 209.535 64.2588C209.535 65.3086 209.648 66.3981 209.874 67.5272C210.099 68.6503 210.396 69.697 210.762 70.6675C211.128 71.6379 211.519 72.4314 211.934 73.0479H210.542C209.681 71.7966 209.028 70.4447 208.583 68.9921C208.137 67.5394 207.911 65.9617 207.905 64.2588ZM218.331 59.5164C218.325 60.3708 218.508 61.2375 218.881 62.1165C219.259 62.9954 219.772 63.7919 220.419 64.506C221.066 65.214 221.78 65.7542 222.561 66.1265L221.737 67.2617C220.828 66.8162 220.007 66.1448 219.274 65.2476C218.542 64.3503 217.993 63.3463 217.626 62.2355C217.376 63.0228 217.037 63.7736 216.61 64.4877C216.183 65.2018 215.695 65.8335 215.145 66.3828C214.602 66.926 214.028 67.3533 213.424 67.6646L212.545 66.5293C213.32 66.1509 214.041 65.5833 214.706 64.8264C215.377 64.0696 215.911 63.2212 216.308 62.2812C216.711 61.3413 216.915 60.4197 216.921 59.5164V57.3923H213.131V56.2021H221.993V57.3923H218.331V59.5164ZM223.989 54.5176H225.417V61.1094H228.146V62.3362H225.417V70.7957H223.989V54.5176ZM235.972 54.719C237.174 54.719 238.206 54.8289 239.066 55.0486C239.927 55.2683 240.583 55.5887 241.035 56.0099C241.492 56.431 241.721 56.9407 241.721 57.5388C241.721 58.1431 241.492 58.6588 241.035 59.0861C240.583 59.5072 239.927 59.8276 239.066 60.0474C238.212 60.261 237.18 60.3708 235.972 60.377C234.757 60.3708 233.719 60.261 232.859 60.0474C231.998 59.8276 231.339 59.5072 230.881 59.0861C230.43 58.6588 230.204 58.1431 230.204 57.5388C230.204 56.9407 230.43 56.431 230.881 56.0099C231.339 55.5887 231.998 55.2683 232.859 55.0486C233.726 54.8289 234.763 54.719 235.972 54.719ZM228.556 61.3657H243.387V62.5376H239.249V64.1489H241.483V67.7927H231.815V69.4773H241.978V70.6125H230.387V66.7307H240.073V65.2476H230.35V64.1489H232.603V62.5376H228.556V61.3657ZM231.705 57.5388C231.699 58.0942 232.068 58.5215 232.813 58.8206C233.558 59.1135 234.611 59.2661 235.972 59.2783C237.333 59.2661 238.386 59.1135 239.13 58.8206C239.875 58.5215 240.25 58.0942 240.256 57.5388C240.25 57.0017 239.872 56.5836 239.121 56.2845C238.37 55.9855 237.321 55.8298 235.972 55.8176C235.074 55.8237 234.305 55.897 233.665 56.0374C233.024 56.1716 232.535 56.3669 232.2 56.6233C231.864 56.8796 231.699 57.1848 231.705 57.5388ZM237.821 64.1489V62.5376H234.012V64.1489H237.821ZM254.033 57.4473H244.329V56.2754H248.467V54.4443H249.895V56.2754H254.033V57.4473ZM245.262 61.2375C245.262 60.6455 245.424 60.1298 245.748 59.6903C246.071 59.2448 246.529 58.903 247.121 58.6649C247.713 58.4208 248.4 58.2957 249.181 58.2896C249.956 58.2957 250.637 58.4208 251.223 58.6649C251.815 58.903 252.272 59.2448 252.596 59.6903C252.925 60.1298 253.093 60.6455 253.099 61.2375C253.093 61.8174 252.925 62.3301 252.596 62.7756C252.272 63.2151 251.815 63.5569 251.223 63.801C250.63 64.0452 249.95 64.1672 249.181 64.1672C248.406 64.1672 247.719 64.0452 247.121 63.801C246.529 63.5569 246.071 63.2151 245.748 62.7756C245.424 62.3301 245.262 61.8174 245.262 61.2375ZM246.361 65.5955H257.018V70.7957H255.59V66.7673H246.361V65.5955ZM246.636 61.2375C246.636 61.5916 246.74 61.9028 246.947 62.1714C247.155 62.4399 247.448 62.6475 247.826 62.7939C248.21 62.9404 248.653 63.0137 249.153 63.0137C249.66 63.0137 250.109 62.9435 250.499 62.8031C250.89 62.6566 251.192 62.4491 251.406 62.1805C251.625 61.912 251.738 61.5977 251.744 61.2375C251.738 60.8713 251.628 60.5509 251.415 60.2762C251.201 60.0016 250.899 59.788 250.508 59.6354C250.124 59.4828 249.681 59.4065 249.181 59.4065C248.674 59.4065 248.226 59.4828 247.835 59.6354C247.451 59.788 247.155 60.0016 246.947 60.2762C246.74 60.5509 246.636 60.8713 246.636 61.2375ZM255.59 54.5176H257.018V59.0403H259.471V60.2488H257.018V64.6982H255.59V54.5176ZM263.342 66.1997H271.472V64.2954H272.919V70.5759H261.914V64.2954H263.342V66.1997ZM260.028 61.9517H274.86V63.1418H260.028V61.9517ZM260.87 59.6445C261.853 59.5103 262.793 59.2417 263.69 58.8389C264.587 58.436 265.314 57.9417 265.869 57.3557C266.431 56.7637 266.711 56.135 266.711 55.4697V54.7007H268.195V55.4697C268.195 56.1106 268.472 56.7301 269.028 57.3282C269.589 57.9264 270.319 58.433 271.216 58.848C272.119 59.257 273.053 59.5225 274.017 59.6445L273.486 60.7981C272.638 60.6699 271.814 60.4471 271.014 60.1298C270.221 59.8124 269.513 59.4126 268.89 58.9304C268.268 58.4482 267.789 57.9111 267.453 57.3191C267.117 57.9111 266.635 58.4482 266.006 58.9304C265.384 59.4126 264.676 59.8124 263.882 60.1298C263.089 60.4471 262.268 60.6699 261.42 60.7981L260.87 59.6445ZM271.472 69.4224V67.335H263.342V69.4224H271.472ZM289.186 62.9587H287.776V54.5176H289.186V62.9587ZM275.874 61.6587C276.686 61.3779 277.409 60.9629 278.044 60.4136C278.679 59.8643 279.173 59.2295 279.527 58.5093C279.887 57.783 280.067 57.0261 280.067 56.2388V54.9937H281.532V56.2388C281.526 56.9895 281.7 57.7097 282.054 58.3994C282.408 59.083 282.899 59.6842 283.528 60.203C284.163 60.7157 284.883 61.1033 285.688 61.3657L284.974 62.4827C284.016 62.1592 283.174 61.6709 282.448 61.0178C281.727 60.3586 281.184 59.5896 280.818 58.7107C280.452 59.6567 279.902 60.4868 279.17 61.2009C278.438 61.915 277.589 62.446 276.625 62.7939L275.874 61.6587ZM278.621 63.7827H289.204V67.6829H280.067V69.4407H289.79V70.6125H278.657V66.5659H287.776V64.9363H278.621V63.7827ZM301.194 58.8938C301.194 59.8276 301.38 60.7615 301.752 61.6953C302.131 62.623 302.64 63.4531 303.281 64.1855C303.928 64.918 304.636 65.4734 305.405 65.8518L304.526 67.0054C303.629 66.5415 302.823 65.8549 302.109 64.9454C301.401 64.036 300.867 63.0137 300.507 61.8784C300.147 63.0808 299.604 64.1672 298.878 65.1377C298.151 66.1021 297.33 66.8284 296.415 67.3167L295.499 66.1631C296.287 65.7786 297.004 65.2018 297.651 64.4327C298.304 63.6637 298.82 62.7939 299.198 61.8235C299.583 60.8469 299.778 59.8704 299.784 58.8938V55.9275H301.194V58.8938ZM306.907 54.5176H308.335V61.1277H311.063V62.3728H308.335V70.7957H306.907V54.5176ZM326.305 63.7644H311.473V62.5742H315.154V60.2762C314.495 60.0199 313.991 59.6873 313.643 59.2783C313.295 58.8694 313.121 58.3933 313.121 57.8501C313.121 57.2214 313.353 56.6813 313.817 56.2296C314.281 55.7719 314.943 55.424 315.804 55.1859C316.671 54.9479 317.699 54.8289 318.889 54.8289C320.067 54.8289 321.086 54.9479 321.947 55.1859C322.814 55.424 323.479 55.7719 323.943 56.2296C324.407 56.6813 324.639 57.2214 324.639 57.8501C324.633 58.3872 324.456 58.8633 324.108 59.2783C323.766 59.6873 323.271 60.0199 322.625 60.2762V62.5742H326.305V63.7644ZM313.268 67.8843C313.268 67.2678 313.488 66.746 313.927 66.3187C314.373 65.8854 315.016 65.5588 315.859 65.3391C316.701 65.1194 317.711 65.0095 318.889 65.0095C320.049 65.0095 321.047 65.1194 321.883 65.3391C322.725 65.5588 323.369 65.8854 323.815 66.3187C324.26 66.746 324.486 67.2678 324.492 67.8843C324.486 68.5007 324.26 69.0226 323.815 69.4498C323.369 69.8771 322.728 70.2006 321.892 70.4203C321.056 70.6461 320.055 70.759 318.889 70.759C317.711 70.759 316.701 70.6461 315.859 70.4203C315.016 70.2006 314.373 69.8771 313.927 69.4498C313.488 69.0226 313.268 68.5007 313.268 67.8843ZM314.604 57.8501C314.604 58.2407 314.775 58.5795 315.117 58.8663C315.459 59.1471 315.95 59.3638 316.591 59.5164C317.238 59.6628 318.004 59.7361 318.889 59.7361C319.768 59.7361 320.528 59.6628 321.169 59.5164C321.81 59.3638 322.304 59.1471 322.652 58.8663C323 58.5795 323.174 58.2407 323.174 57.8501C323.174 57.4656 323 57.1329 322.652 56.8522C322.304 56.5653 321.807 56.3456 321.16 56.193C320.519 56.0404 319.762 55.9641 318.889 55.9641C318.004 55.9641 317.238 56.0404 316.591 56.193C315.95 56.3456 315.459 56.5623 315.117 56.843C314.775 57.1238 314.604 57.4595 314.604 57.8501ZM314.733 67.8843C314.727 68.2505 314.885 68.5648 315.209 68.8273C315.538 69.0897 316.011 69.2911 316.628 69.4315C317.244 69.5719 317.98 69.6421 318.834 69.6421C319.701 69.6421 320.449 69.5719 321.077 69.4315C321.712 69.2972 322.197 69.0989 322.533 68.8364C322.875 68.5679 323.046 68.2505 323.046 67.8843C323.046 67.5181 322.878 67.2037 322.542 66.9413C322.206 66.6727 321.727 66.4683 321.105 66.3279C320.488 66.1875 319.75 66.1143 318.889 66.1082C318.022 66.1143 317.275 66.1875 316.646 66.3279C316.024 66.4683 315.547 66.6727 315.218 66.9413C314.888 67.2037 314.727 67.5181 314.733 67.8843ZM321.196 62.5742V60.6608C320.513 60.7889 319.744 60.853 318.889 60.853C318.053 60.853 317.284 60.792 316.582 60.6699V62.5742H321.196ZM339.807 61.146H342.444V62.3545H339.807V70.7957H338.379V54.5176H339.807V61.146ZM327.319 66.5659C329.407 65.5283 331.024 64.2405 332.172 62.7024C333.319 61.1643 333.975 59.4248 334.14 57.4839H328.07V56.2754H335.596C335.59 58.6924 334.979 60.8866 333.765 62.858C332.55 64.8295 330.67 66.4438 328.125 67.7012L327.319 66.5659ZM356.093 60.2671H344.978V54.8472H346.406V59.0769H356.093V60.2671ZM342.946 62.1714H357.795V63.3616H342.946V62.1714ZM344.74 67.7744C344.74 67.1458 344.963 66.6117 345.408 66.1722C345.854 65.7267 346.498 65.391 347.34 65.1652C348.182 64.9393 349.189 64.8264 350.361 64.8264C351.521 64.8264 352.519 64.9393 353.355 65.1652C354.191 65.391 354.832 65.7267 355.278 66.1722C355.729 66.6117 355.958 67.1458 355.964 67.7744C355.958 68.397 355.729 68.928 355.278 69.3674C354.832 69.813 354.191 70.1487 353.355 70.3745C352.519 70.6064 351.521 70.7224 350.361 70.7224C349.189 70.7224 348.182 70.6064 347.34 70.3745C346.498 70.1487 345.854 69.813 345.408 69.3674C344.963 68.928 344.74 68.397 344.74 67.7744ZM346.205 67.7744C346.199 68.1528 346.36 68.4794 346.69 68.754C347.02 69.0226 347.496 69.2301 348.118 69.3766C348.747 69.5292 349.495 69.6055 350.361 69.6055C351.216 69.6055 351.954 69.5292 352.577 69.3766C353.199 69.2301 353.679 69.0226 354.014 68.754C354.35 68.4794 354.518 68.1528 354.518 67.7744C354.512 67.2007 354.142 66.7582 353.41 66.4469C352.678 66.1295 351.661 65.9678 350.361 65.9617C349.049 65.9678 348.027 66.1295 347.294 66.4469C346.562 66.7582 346.199 67.2007 346.205 67.7744ZM362.747 64.2588C362.74 65.9617 362.515 67.5394 362.069 68.9921C361.624 70.4447 360.97 71.7966 360.11 73.0479H358.718C359.133 72.4314 359.524 71.6379 359.89 70.6675C360.256 69.697 360.552 68.6503 360.778 67.5272C361.004 66.3981 361.117 65.3086 361.117 64.2588C361.117 63.209 361.004 62.1226 360.778 60.9995C360.552 59.8704 360.256 58.8236 359.89 57.8593C359.524 56.8888 359.133 56.0984 358.718 55.488H360.11C361.849 58.0149 362.728 60.9385 362.747 64.2588Z" fill="#191F28"/>
</g>
</g>
<g clip-path="url(#clip2_3024_11294)">
<path d="M9.7625 96.85L7.45156 94.5391C7.25677 94.3443 7.01771 94.2469 6.73438 94.2469C6.45104 94.2469 6.20312 94.3531 5.99063 94.5656C5.79583 94.7604 5.69844 95.0083 5.69844 95.3094C5.69844 95.6104 5.79583 95.8583 5.99063 96.0531L9.01875 99.0812C9.21354 99.276 9.46146 99.3734 9.7625 99.3734C10.0635 99.3734 10.3115 99.276 10.5063 99.0812L16.5359 93.0516C16.7307 92.8568 16.8281 92.6177 16.8281 92.3344C16.8281 92.051 16.7219 91.8031 16.5094 91.5906C16.3146 91.3958 16.0667 91.2984 15.7656 91.2984C15.4646 91.2984 15.2167 91.3958 15.0219 91.5906L9.7625 96.85ZM11.25 105.562C9.78021 105.562 8.39896 105.283 7.10625 104.725C5.81354 104.168 4.68906 103.411 3.73281 102.455C2.77656 101.498 2.01971 100.374 1.46225 99.0812C0.904083 97.7885 0.625 96.4073 0.625 94.9375C0.625 93.4677 0.904083 92.0865 1.46225 90.7938C2.01971 89.501 2.77656 88.3766 3.73281 87.4203C4.68906 86.4641 5.81354 85.7069 7.10625 85.1487C8.39896 84.5912 9.78021 84.3125 11.25 84.3125C12.7198 84.3125 14.101 84.5912 15.3937 85.1487C16.6865 85.7069 17.8109 86.4641 18.7672 87.4203C19.7234 88.3766 20.4803 89.501 21.0378 90.7938C21.5959 92.0865 21.875 93.4677 21.875 94.9375C21.875 96.4073 21.5959 97.7885 21.0378 99.0812C20.4803 100.374 19.7234 101.498 18.7672 102.455C17.8109 103.411 16.6865 104.168 15.3937 104.725C14.101 105.283 12.7198 105.562 11.25 105.562Z" fill="#ADB5BD"/>
<g clip-path="url(#clip3_3024_11294)">
<path d="M37.1484 87.6218C37.9541 87.6218 38.6743 87.7775 39.3091 88.0887C39.95 88.3939 40.4504 88.8212 40.8105 89.3705C41.1768 89.9137 41.3599 90.5332 41.3599 91.229C41.3599 91.9248 41.1768 92.5474 40.8105 93.0967C40.4504 93.6399 39.95 94.0641 39.3091 94.3693C38.6743 94.6683 37.9541 94.8179 37.1484 94.8179C36.3367 94.8179 35.6073 94.6683 34.9603 94.3693C34.3195 94.0641 33.819 93.6399 33.4589 93.0967C33.0988 92.5474 32.9187 91.9248 32.9187 91.229C32.9187 90.5332 33.0988 89.9137 33.4589 89.3705C33.819 88.8212 34.3195 88.3939 34.9603 88.0887C35.6073 87.7775 36.3367 87.6218 37.1484 87.6218ZM34.3286 91.229C34.3225 91.699 34.4385 92.1171 34.6765 92.4833C34.9207 92.8495 35.2563 93.1364 35.6836 93.3439C36.1169 93.5453 36.6052 93.646 37.1484 93.646C37.6794 93.646 38.1586 93.5453 38.5858 93.3439C39.0192 93.1364 39.3579 92.8495 39.6021 92.4833C39.8462 92.1171 39.9683 91.699 39.9683 91.229C39.9683 90.7651 39.8462 90.3501 39.6021 89.9839C39.3579 89.6177 39.0192 89.3339 38.5858 89.1324C38.1586 88.931 37.6794 88.8303 37.1484 88.8303C36.6052 88.8303 36.1169 88.931 35.6836 89.1324C35.2563 89.3339 34.9207 89.6177 34.6765 89.9839C34.4385 90.3501 34.3225 90.7651 34.3286 91.229ZM35.3906 96.1729H45.9741V100.091H36.8372V101.922H46.5601V103.076H35.4272V99.011H44.5459V97.3264H35.3906V96.1729ZM44.5459 87.0176H45.9741V95.3855H44.5459V87.0176ZM63.175 101.208H48.2703V99.9998H51.969V95.6144C51.261 95.2482 50.7117 94.7751 50.321 94.1953C49.9304 93.6155 49.7351 92.9624 49.7351 92.2361C49.7351 91.4121 49.9884 90.6827 50.495 90.048C51.0016 89.4132 51.7035 88.9219 52.6007 88.574C53.504 88.2261 54.5325 88.0491 55.686 88.043C56.8396 88.0491 57.865 88.2261 58.7622 88.574C59.6655 88.9219 60.3705 89.4132 60.8771 90.048C61.3837 90.6827 61.637 91.4121 61.637 92.2361C61.637 92.9502 61.4478 93.5941 61.0693 94.1678C60.6909 94.7355 60.1599 95.2024 59.4763 95.5686V99.9998H63.175V101.208ZM51.1267 92.2361C51.1267 92.8342 51.319 93.3652 51.7035 93.8291C52.088 94.2869 52.6251 94.6439 53.3148 94.9003C54.0106 95.1505 54.801 95.2756 55.686 95.2756C56.5649 95.2756 57.3492 95.1505 58.0389 94.9003C58.7286 94.6439 59.2688 94.2869 59.6594 93.8291C60.05 93.3652 60.2454 92.8342 60.2454 92.2361C60.2454 91.6379 60.05 91.11 59.6594 90.6522C59.2688 90.1945 58.7286 89.8435 58.0389 89.5994C57.3492 89.3491 56.5649 89.2271 55.686 89.2332C54.801 89.2271 54.0106 89.3491 53.3148 89.5994C52.6251 89.8435 52.088 90.1945 51.7035 90.6522C51.319 91.11 51.1267 91.6379 51.1267 92.2361ZM58.0298 99.9998V96.1271C57.3035 96.3163 56.5222 96.4109 55.686 96.4109C54.8438 96.4109 54.0747 96.3193 53.3789 96.1362V99.9998H58.0298ZM68.6206 87.6218C69.4263 87.6218 70.1465 87.7775 70.7812 88.0887C71.4221 88.3939 71.9226 88.8212 72.2827 89.3705C72.6489 89.9137 72.832 90.5332 72.832 91.229C72.832 91.9248 72.6489 92.5474 72.2827 93.0967C71.9226 93.6399 71.4221 94.0641 70.7812 94.3693C70.1465 94.6683 69.4263 94.8179 68.6206 94.8179C67.8088 94.8179 67.0795 94.6683 66.4325 94.3693C65.7916 94.0641 65.2911 93.6399 64.931 93.0967C64.5709 92.5474 64.3909 91.9248 64.3909 91.229C64.3909 90.5332 64.5709 89.9137 64.931 89.3705C65.2911 88.8212 65.7916 88.3939 66.4325 88.0887C67.0795 87.7775 67.8088 87.6218 68.6206 87.6218ZM65.8008 91.229C65.7947 91.699 65.9106 92.1171 66.1487 92.4833C66.3928 92.8495 66.7285 93.1364 67.1558 93.3439C67.5891 93.5453 68.0774 93.646 68.6206 93.646C69.1516 93.646 69.6307 93.5453 70.058 93.3439C70.4913 93.1364 70.8301 92.8495 71.0742 92.4833C71.3184 92.1171 71.4404 91.699 71.4404 91.229C71.4404 90.7651 71.3184 90.3501 71.0742 89.9839C70.8301 89.6177 70.4913 89.3339 70.058 89.1324C69.6307 88.931 69.1516 88.8303 68.6206 88.8303C68.0774 88.8303 67.5891 88.931 67.1558 89.1324C66.7285 89.3339 66.3928 89.6177 66.1487 89.9839C65.9106 90.3501 65.7947 90.7651 65.8008 91.229ZM66.8628 96.1729H77.4463V100.091H68.3093V101.922H78.0322V103.076H66.8994V99.011H76.0181V97.3264H66.8628V96.1729ZM76.0181 87.0176H77.4463V95.3855H76.0181V87.0176ZM87.1582 87.3105C88.3606 87.3105 89.3921 87.4204 90.2527 87.6401C91.1133 87.8538 91.7694 88.1711 92.2211 88.5923C92.6788 89.0073 92.9077 89.5139 92.9077 90.1121C92.9077 90.7224 92.6788 91.2412 92.2211 91.6685C91.7694 92.0957 91.1133 92.4192 90.2527 92.6389C89.3982 92.8525 88.3667 92.9624 87.1582 92.9685C85.9436 92.9624 84.906 92.8525 84.0454 92.6389C83.1848 92.4192 82.5256 92.0957 82.0679 91.6685C81.6162 91.2412 81.3904 90.7224 81.3904 90.1121C81.3904 89.5139 81.6162 89.0073 82.0679 88.5923C82.5256 88.1711 83.1848 87.8538 84.0454 87.6401C84.9121 87.4204 85.9497 87.3105 87.1582 87.3105ZM79.7424 94.0671H94.574V95.239H79.7424V94.0671ZM81.5369 96.6489H92.6697V100.293H83.0017V101.977H93.1641V103.113H81.5735V99.2307H91.2598V97.7476H81.5369V96.6489ZM82.8918 90.1121C82.8857 90.6736 83.255 91.1069 83.9996 91.4121C84.7443 91.7173 85.7971 91.8699 87.1582 91.8699C88.5132 91.8699 89.563 91.7203 90.3076 91.4213C91.0583 91.1161 91.4368 90.6797 91.4429 90.1121C91.4429 89.7581 91.272 89.4529 90.9302 89.1965C90.5945 88.9402 90.1031 88.7418 89.4562 88.6014C88.8153 88.4611 88.0493 88.3909 87.1582 88.3909C86.261 88.3909 85.4919 88.4611 84.8511 88.6014C84.2102 88.7418 83.7219 88.9402 83.3862 89.1965C83.0505 89.4529 82.8857 89.7581 82.8918 90.1121ZM113.632 103.296H112.258V87.0176H113.632V103.296ZM99.5142 98.9561C100.253 98.5166 100.894 97.9154 101.437 97.1525C101.98 96.3834 102.395 95.5259 102.682 94.5798C102.969 93.6277 103.109 92.6572 103.103 91.6685V90.1304H99.9719V88.9402H107.479V90.1304H104.495V91.6685C104.495 92.6145 104.632 93.5361 104.907 94.4333C105.187 95.3306 105.59 96.1423 106.115 96.8687C106.646 97.595 107.278 98.1687 108.01 98.5898L107.131 99.6519C106.344 99.1819 105.67 98.5319 105.108 97.7018C104.547 96.8656 104.119 95.9196 103.826 94.8636C103.527 96.0111 103.085 97.0365 102.499 97.9398C101.919 98.837 101.229 99.5359 100.43 100.036L99.5142 98.9561ZM106.234 92.8953H108.981V87.4204H110.336V102.453H108.981V94.0671H106.234V92.8953ZM120.78 88.0796C121.622 88.0857 122.373 88.2505 123.032 88.574C123.698 88.8914 124.216 89.34 124.589 89.9198C124.967 90.4996 125.156 91.1619 125.156 91.9065C125.156 92.5779 125.001 93.1852 124.689 93.7284C124.384 94.2655 123.954 94.7019 123.398 95.0376C122.849 95.3733 122.214 95.5839 121.494 95.6693V98.4434C123.325 98.3518 124.924 98.1992 126.292 97.9856L126.401 99.0476C125.254 99.2612 124.064 99.4199 122.831 99.5237C121.598 99.6274 120.457 99.6915 119.407 99.7159C118.357 99.7404 117.136 99.7556 115.745 99.7617L115.543 98.5532C117.46 98.5532 118.961 98.5349 120.048 98.4983V95.6693C119.321 95.5839 118.68 95.3733 118.125 95.0376C117.576 94.6958 117.148 94.2563 116.843 93.7192C116.538 93.1821 116.385 92.5779 116.385 91.9065C116.385 91.1619 116.572 90.5027 116.944 89.929C117.316 89.3491 117.835 88.8975 118.5 88.574C119.172 88.2505 119.932 88.0857 120.78 88.0796ZM117.795 91.9065C117.795 92.4009 117.921 92.8434 118.171 93.234C118.427 93.6246 118.781 93.9298 119.233 94.1495C119.691 94.3632 120.206 94.47 120.78 94.47C121.348 94.47 121.857 94.3632 122.309 94.1495C122.761 93.9298 123.112 93.6246 123.362 93.234C123.618 92.8434 123.746 92.4009 123.746 91.9065C123.746 91.406 123.618 90.9604 123.362 90.5698C123.112 90.1792 122.761 89.8771 122.309 89.6635C121.857 89.4498 121.348 89.343 120.78 89.343C120.206 89.343 119.691 89.4498 119.233 89.6635C118.781 89.8771 118.427 90.1792 118.171 90.5698C117.921 90.9604 117.795 91.406 117.795 91.9065ZM127.372 87.0176H128.8V103.332H127.372V87.0176ZM143.914 92.4009H146.367V93.6094H143.914V99.2307H142.485V87.0359H143.914V92.4009ZM131.224 89.0317H135.363V87.0359H136.791V89.0317H140.929V90.2036H131.224V89.0317ZM132.158 94.1404C132.158 93.53 132.32 92.996 132.643 92.5382C132.967 92.0804 133.425 91.7264 134.017 91.4762C134.609 91.226 135.295 91.1008 136.077 91.1008C136.846 91.1008 137.523 91.226 138.109 91.4762C138.701 91.7264 139.162 92.0804 139.492 92.5382C139.821 92.996 139.989 93.53 139.995 94.1404C139.989 94.7446 139.821 95.2756 139.492 95.7334C139.162 96.1851 138.701 96.533 138.109 96.7771C137.523 97.0212 136.846 97.1433 136.077 97.1433C135.295 97.1433 134.609 97.0212 134.017 96.7771C133.425 96.533 132.967 96.1851 132.643 95.7334C132.32 95.2756 132.158 94.7446 132.158 94.1404ZM133.531 94.1404C133.531 94.5188 133.635 94.8514 133.843 95.1383C134.05 95.4191 134.346 95.6357 134.731 95.7883C135.121 95.9409 135.57 96.0142 136.077 96.0081C136.577 96.0142 137.02 95.9409 137.404 95.7883C137.795 95.6357 138.097 95.4191 138.311 95.1383C138.524 94.8514 138.634 94.5188 138.64 94.1404C138.634 93.762 138.524 93.4293 138.311 93.1425C138.097 92.8495 137.798 92.6267 137.413 92.4741C137.035 92.3154 136.599 92.2361 136.104 92.2361C135.591 92.2361 135.14 92.3154 134.749 92.4741C134.359 92.6267 134.056 92.8464 133.843 93.1333C133.635 93.4202 133.531 93.7559 133.531 94.1404ZM133.733 98.2603H135.143V101.739H144.664V102.948H133.733V98.2603ZM153.413 90.3867H157.954V87.8599H159.364V91.0276H163.209V87.0176H164.656V95.9165H163.209V92.2361H159.364V95.3123H151.985V87.8599H153.413V90.3867ZM157.954 94.1404V91.522H153.413V94.1404H157.954ZM154.164 96.7039H155.61V98.6997H163.209V96.7039H164.637V103.076H154.164V96.7039ZM163.209 101.886V99.8533H155.61V101.886H163.209ZM180.392 96.7222H178.945V92.4558H175.668V91.2656H178.945V87.0176H180.392V96.7222ZM166.97 95.4221C167.77 95.1353 168.481 94.7141 169.103 94.1587C169.732 93.6033 170.223 92.9655 170.577 92.2452C170.931 91.525 171.108 90.7834 171.108 90.0205V89.4163H167.428V88.2078H176.199V89.4163H172.555V90.0022C172.555 90.7041 172.723 91.3846 173.058 92.0438C173.394 92.703 173.867 93.2889 174.478 93.8016C175.088 94.3082 175.784 94.6958 176.565 94.9644L175.814 96.1179C174.911 95.7883 174.114 95.3 173.425 94.6531C172.741 94.0061 172.222 93.2584 171.868 92.41C171.52 93.3622 170.983 94.2014 170.257 94.9277C169.537 95.6541 168.691 96.2034 167.721 96.5757L166.97 95.4221ZM169.534 100.256C169.534 99.6213 169.75 99.0781 170.184 98.6265C170.623 98.1748 171.252 97.83 172.07 97.5919C172.894 97.3539 173.867 97.2349 174.99 97.2349C176.113 97.2349 177.084 97.3539 177.902 97.5919C178.719 97.83 179.348 98.1748 179.788 98.6265C180.227 99.0781 180.447 99.6213 180.447 100.256C180.447 100.891 180.227 101.434 179.788 101.886C179.348 102.337 178.719 102.682 177.902 102.92C177.084 103.164 176.113 103.29 174.99 103.296C173.861 103.29 172.888 103.164 172.07 102.92C171.252 102.682 170.623 102.337 170.184 101.886C169.75 101.434 169.534 100.891 169.534 100.256ZM170.962 100.256C170.962 100.641 171.121 100.976 171.438 101.263C171.755 101.544 172.213 101.761 172.811 101.913C173.416 102.066 174.127 102.142 174.944 102.142C175.781 102.142 176.504 102.066 177.114 101.913C177.725 101.767 178.195 101.553 178.524 101.272C178.854 100.985 179.019 100.647 179.019 100.256C179.019 99.8655 178.857 99.5267 178.533 99.2399C178.21 98.953 177.743 98.7333 177.133 98.5807C176.528 98.4281 175.814 98.3518 174.99 98.3518C174.16 98.3518 173.443 98.4281 172.839 98.5807C172.234 98.7333 171.771 98.953 171.447 99.2399C171.124 99.5267 170.962 99.8655 170.962 100.256ZM189.994 97.3081C191.154 97.3081 192.161 97.4271 193.015 97.6652C193.876 97.8971 194.538 98.2389 195.002 98.6906C195.472 99.1361 195.707 99.6702 195.707 100.293C195.707 100.909 195.472 101.44 195.002 101.886C194.538 102.331 193.876 102.67 193.015 102.902C192.161 103.14 191.154 103.259 189.994 103.259C188.834 103.259 187.824 103.14 186.964 102.902C186.109 102.67 185.45 102.331 184.986 101.886C184.528 101.44 184.299 100.909 184.299 100.293C184.299 99.6702 184.528 99.1361 184.986 98.6906C185.45 98.2389 186.109 97.8971 186.964 97.6652C187.824 97.4271 188.834 97.3081 189.994 97.3081ZM182.651 94.6165H188.785V91.467H190.195V94.6165H197.465V95.7883H182.651V94.6165ZM184.409 87.8599H195.579V89.2332C195.573 90.1304 195.545 90.8903 195.496 91.5128C195.447 92.1293 195.322 92.8098 195.121 93.5544L193.711 93.3896C193.906 92.645 194.028 91.9767 194.077 91.3846C194.126 90.7865 194.15 90.0693 194.15 89.2332V89.0317H184.409V87.8599ZM185.728 100.293C185.728 100.665 185.901 100.992 186.249 101.272C186.597 101.547 187.092 101.758 187.733 101.904C188.38 102.051 189.133 102.124 189.994 102.124C190.854 102.124 191.605 102.051 192.246 101.904C192.893 101.758 193.391 101.547 193.738 101.272C194.092 100.992 194.272 100.665 194.279 100.293C194.272 99.9082 194.092 99.5756 193.738 99.2948C193.391 99.014 192.893 98.7974 192.246 98.6448C191.605 98.4861 190.854 98.4067 189.994 98.4067C189.133 98.4067 188.38 98.4861 187.733 98.6448C187.092 98.7974 186.597 99.014 186.249 99.2948C185.901 99.5756 185.728 99.9082 185.728 100.293ZM212.34 90.0022H199.138V88.8303H205.071V86.926H206.481V88.8303H212.34V90.0022ZM198.369 97.418H213.274V98.6082H209.337V103.332H207.909V98.6082H203.698V103.332H202.251V98.6082H198.369V97.418ZM200.475 93.6277C200.469 93.054 200.676 92.5657 201.097 92.1628C201.519 91.76 202.126 91.4548 202.919 91.2473C203.719 91.0398 204.674 90.936 205.785 90.936C206.884 90.936 207.83 91.0398 208.623 91.2473C209.423 91.4548 210.033 91.76 210.454 92.1628C210.881 92.5657 211.095 93.054 211.095 93.6277C211.095 94.1953 210.881 94.6805 210.454 95.0834C210.033 95.4862 209.423 95.7944 208.623 96.0081C207.83 96.2156 206.884 96.3193 205.785 96.3193C204.674 96.3193 203.719 96.2156 202.919 96.0081C202.126 95.7944 201.519 95.4862 201.097 95.0834C200.676 94.6805 200.469 94.1953 200.475 93.6277ZM201.958 93.6277C201.946 94.1221 202.272 94.5096 202.938 94.7904C203.603 95.0651 204.534 95.2024 205.73 95.2024C206.951 95.2024 207.9 95.0651 208.577 94.7904C209.261 94.5157 209.606 94.1282 209.612 93.6277C209.606 93.1272 209.267 92.7396 208.596 92.465C207.924 92.1903 206.987 92.0469 205.785 92.0347C204.564 92.0469 203.618 92.1903 202.947 92.465C202.281 92.7396 201.952 93.1272 201.958 93.6277ZM218.719 87.6218C219.525 87.6218 220.245 87.7775 220.88 88.0887C221.521 88.3939 222.021 88.8212 222.382 89.3705C222.748 89.9137 222.931 90.5332 222.931 91.229C222.931 91.9248 222.748 92.5474 222.382 93.0967C222.021 93.6399 221.521 94.0641 220.88 94.3693C220.245 94.6683 219.525 94.8179 218.719 94.8179C217.908 94.8179 217.178 94.6683 216.531 94.3693C215.891 94.0641 215.39 93.6399 215.03 93.0967C214.67 92.5474 214.49 91.9248 214.49 91.229C214.49 90.5332 214.67 89.9137 215.03 89.3705C215.39 88.8212 215.891 88.3939 216.531 88.0887C217.178 87.7775 217.908 87.6218 218.719 87.6218ZM215.9 91.229C215.894 91.699 216.01 92.1171 216.248 92.4833C216.492 92.8495 216.827 93.1364 217.255 93.3439C217.688 93.5453 218.176 93.646 218.719 93.646C219.25 93.646 219.73 93.5453 220.157 93.3439C220.59 93.1364 220.929 92.8495 221.173 92.4833C221.417 92.1171 221.539 91.699 221.539 91.229C221.539 90.7651 221.417 90.3501 221.173 89.9839C220.929 89.6177 220.59 89.3339 220.157 89.1324C219.73 88.931 219.25 88.8303 218.719 88.8303C218.176 88.8303 217.688 88.931 217.255 89.1324C216.827 89.3339 216.492 89.6177 216.248 89.9839C216.01 90.3501 215.894 90.7651 215.9 91.229ZM216.962 96.1729H227.545V100.091H218.408V101.922H228.131V103.076H216.998V99.011H226.117V97.3264H216.962V96.1729ZM226.117 87.0176H227.545V95.3855H226.117V87.0176ZM33.5413 122.759C33.5596 119.438 34.4385 116.515 36.178 113.988H37.5696C37.1545 114.598 36.7639 115.389 36.3977 116.359C36.0315 117.324 35.7355 118.37 35.5096 119.5C35.2838 120.623 35.1709 121.709 35.1709 122.759C35.1709 123.809 35.2838 124.898 35.5096 126.027C35.7355 127.15 36.0315 128.197 36.3977 129.167C36.7639 130.138 37.1545 130.931 37.5696 131.548H36.178C35.3174 130.297 34.6643 128.945 34.2188 127.492C33.7732 126.039 33.5474 124.462 33.5413 122.759ZM51.1816 117.87H53.6536V119.078H51.1816V124.81H49.7534V113.018H51.1816V117.87ZM39.2249 114.427H46.4758V115.636H40.6531V120.708H41.0376C42.6062 120.708 43.8971 120.671 44.9103 120.598C45.9296 120.525 46.9458 120.385 47.959 120.177L48.1421 121.367C47.0312 121.581 45.9204 121.727 44.8096 121.807C43.6987 121.88 42.2583 121.917 40.4883 121.917H39.2249V114.427ZM41.001 123.619H42.4109V127.739H51.9324V128.948H41.001V123.619ZM55.437 131.566H54.082L55.0891 126.586H56.8652L55.437 131.566ZM67.3718 113.622C68.1775 113.622 68.8977 113.777 69.5325 114.089C70.1733 114.394 70.6738 114.821 71.0339 115.37C71.4001 115.914 71.5833 116.533 71.5833 117.229C71.5833 117.925 71.4001 118.547 71.0339 119.097C70.6738 119.64 70.1733 120.064 69.5325 120.369C68.8977 120.668 68.1775 120.818 67.3718 120.818C66.5601 120.818 65.8307 120.668 65.1837 120.369C64.5428 120.064 64.0424 119.64 63.6823 119.097C63.3221 118.547 63.1421 117.925 63.1421 117.229C63.1421 116.533 63.3221 115.914 63.6823 115.37C64.0424 114.821 64.5428 114.394 65.1837 114.089C65.8307 113.777 66.5601 113.622 67.3718 113.622ZM64.552 117.229C64.5459 117.699 64.6619 118.117 64.8999 118.483C65.144 118.849 65.4797 119.136 65.907 119.344C66.3403 119.545 66.8286 119.646 67.3718 119.646C67.9028 119.646 68.382 119.545 68.8092 119.344C69.2426 119.136 69.5813 118.849 69.8254 118.483C70.0696 118.117 70.1917 117.699 70.1917 117.229C70.1917 116.765 70.0696 116.35 69.8254 115.984C69.5813 115.618 69.2426 115.334 68.8092 115.132C68.382 114.931 67.9028 114.83 67.3718 114.83C66.8286 114.83 66.3403 114.931 65.907 115.132C65.4797 115.334 65.144 115.618 64.8999 115.984C64.6619 116.35 64.5459 116.765 64.552 117.229ZM65.614 122.173H76.1975V126.091H67.0605V127.922H76.7834V129.076H65.6506V125.011H74.7693V123.326H65.614V122.173ZM74.7693 113.018H76.1975V121.385H74.7693V113.018ZM93.3984 127.208H78.4937V126H82.1924V121.614C81.4844 121.248 80.9351 120.775 80.5444 120.195C80.1538 119.615 79.9585 118.962 79.9585 118.236C79.9585 117.412 80.2118 116.683 80.7184 116.048C81.225 115.413 81.9269 114.922 82.8241 114.574C83.7274 114.226 84.7559 114.049 85.9094 114.043C87.063 114.049 88.0884 114.226 88.9856 114.574C89.8889 114.922 90.5939 115.413 91.1005 116.048C91.6071 116.683 91.8604 117.412 91.8604 118.236C91.8604 118.95 91.6711 119.594 91.2927 120.168C90.9143 120.735 90.3833 121.202 89.6997 121.569V126H93.3984V127.208ZM81.3501 118.236C81.3501 118.834 81.5424 119.365 81.9269 119.829C82.3114 120.287 82.8485 120.644 83.5382 120.9C84.234 121.151 85.0244 121.276 85.9094 121.276C86.7883 121.276 87.5726 121.151 88.2623 120.9C88.952 120.644 89.4922 120.287 89.8828 119.829C90.2734 119.365 90.4688 118.834 90.4688 118.236C90.4688 117.638 90.2734 117.11 89.8828 116.652C89.4922 116.194 88.952 115.844 88.2623 115.599C87.5726 115.349 86.7883 115.227 85.9094 115.233C85.0244 115.227 84.234 115.349 83.5382 115.599C82.8485 115.844 82.3114 116.194 81.9269 116.652C81.5424 117.11 81.3501 117.638 81.3501 118.236ZM88.2532 126V122.127C87.5269 122.316 86.7456 122.411 85.9094 122.411C85.0671 122.411 84.2981 122.319 83.6023 122.136V126H88.2532ZM98.844 113.622C99.6497 113.622 100.37 113.777 101.005 114.089C101.646 114.394 102.146 114.821 102.506 115.37C102.872 115.914 103.055 116.533 103.055 117.229C103.055 117.925 102.872 118.547 102.506 119.097C102.146 119.64 101.646 120.064 101.005 120.369C100.37 120.668 99.6497 120.818 98.844 120.818C98.0322 120.818 97.3029 120.668 96.6559 120.369C96.015 120.064 95.5145 119.64 95.1544 119.097C94.7943 118.547 94.6143 117.925 94.6143 117.229C94.6143 116.533 94.7943 115.914 95.1544 115.37C95.5145 114.821 96.015 114.394 96.6559 114.089C97.3029 113.777 98.0322 113.622 98.844 113.622ZM96.0242 117.229C96.0181 117.699 96.134 118.117 96.3721 118.483C96.6162 118.849 96.9519 119.136 97.3792 119.344C97.8125 119.545 98.3008 119.646 98.844 119.646C99.375 119.646 99.8541 119.545 100.281 119.344C100.715 119.136 101.053 118.849 101.298 118.483C101.542 118.117 101.664 117.699 101.664 117.229C101.664 116.765 101.542 116.35 101.298 115.984C101.053 115.618 100.715 115.334 100.281 115.132C99.8541 114.931 99.375 114.83 98.844 114.83C98.3008 114.83 97.8125 114.931 97.3792 115.132C96.9519 115.334 96.6162 115.618 96.3721 115.984C96.134 116.35 96.0181 116.765 96.0242 117.229ZM97.0862 122.173H107.67V126.091H98.5327V127.922H108.256V129.076H97.1228V125.011H106.241V123.326H97.0862V122.173ZM106.241 113.018H107.67V121.385H106.241V113.018ZM123.387 129.332H121.941V113.018H123.387V129.332ZM110.57 119.957C110.57 118.822 110.747 117.827 111.101 116.973C111.455 116.112 111.946 115.45 112.575 114.986C113.204 114.516 113.921 114.281 114.727 114.281C115.532 114.281 116.249 114.516 116.878 114.986C117.507 115.45 117.998 116.112 118.352 116.973C118.706 117.827 118.883 118.822 118.883 119.957C118.883 121.093 118.706 122.09 118.352 122.951C117.998 123.806 117.507 124.465 116.878 124.929C116.249 125.386 115.532 125.615 114.727 125.615C113.921 125.615 113.204 125.386 112.575 124.929C111.946 124.465 111.455 123.806 111.101 122.951C110.747 122.09 110.57 121.093 110.57 119.957ZM111.962 119.957C111.962 120.83 112.078 121.599 112.31 122.264C112.542 122.924 112.868 123.433 113.289 123.793C113.71 124.153 114.189 124.333 114.727 124.333C115.27 124.333 115.749 124.153 116.164 123.793C116.585 123.433 116.912 122.924 117.144 122.264C117.375 121.599 117.491 120.83 117.491 119.957C117.491 119.084 117.375 118.318 117.144 117.659C116.912 116.994 116.585 116.478 116.164 116.112C115.749 115.746 115.27 115.563 114.727 115.563C114.189 115.563 113.71 115.746 113.289 116.112C112.868 116.478 112.542 116.994 112.31 117.659C112.078 118.325 111.962 119.091 111.962 119.957ZM142.885 114.995C142.885 115.844 142.86 116.613 142.811 117.302C142.769 117.986 142.659 118.761 142.482 119.628H144.844V120.8H138.069V123.802H142.994V129.296H141.548V124.993H131.477V123.802H136.641V120.8H129.939V119.628H141.035C141.206 118.846 141.319 118.129 141.374 117.476C141.429 116.823 141.456 116.155 141.456 115.471V114.995H131.825V113.823H142.885V114.995ZM159.17 122.814H157.723V120.616H153.402V119.426H157.723V117.229H153.567C153.036 118.523 152.166 119.64 150.958 120.58C149.749 121.52 148.263 122.252 146.499 122.777L145.895 121.642C147.207 121.251 148.345 120.754 149.31 120.15C150.274 119.539 151.034 118.837 151.589 118.044C152.151 117.25 152.477 116.387 152.569 115.453H146.719V114.244H154.135C154.135 114.873 154.064 115.483 153.924 116.075H157.723V113.036H159.17V122.814ZM148.403 126.091C148.403 125.45 148.623 124.898 149.062 124.434C149.502 123.964 150.131 123.604 150.948 123.354C151.772 123.104 152.737 122.979 153.842 122.979C154.934 122.979 155.889 123.104 156.707 123.354C157.525 123.604 158.154 123.964 158.593 124.434C159.039 124.898 159.261 125.45 159.261 126.091C159.261 126.732 159.039 127.291 158.593 127.767C158.154 128.237 157.525 128.597 156.707 128.847C155.889 129.097 154.934 129.222 153.842 129.222C152.737 129.222 151.772 129.097 150.948 128.847C150.131 128.597 149.502 128.237 149.062 127.767C148.623 127.291 148.403 126.732 148.403 126.091ZM149.813 126.091C149.813 126.494 149.975 126.842 150.298 127.135C150.628 127.428 151.092 127.654 151.69 127.812C152.288 127.971 152.99 128.051 153.796 128.051C154.608 128.051 155.316 127.971 155.92 127.812C156.53 127.66 157 127.437 157.33 127.144C157.665 126.851 157.833 126.5 157.833 126.091C157.833 125.688 157.668 125.341 157.339 125.048C157.015 124.755 156.558 124.529 155.966 124.37C155.374 124.211 154.681 124.132 153.887 124.132C153.063 124.132 152.346 124.211 151.736 124.37C151.125 124.523 150.652 124.745 150.317 125.038C149.981 125.331 149.813 125.682 149.813 126.091ZM166.025 113.622C166.831 113.622 167.551 113.777 168.186 114.089C168.827 114.394 169.327 114.821 169.688 115.37C170.054 115.914 170.237 116.533 170.237 117.229C170.237 117.925 170.054 118.547 169.688 119.097C169.327 119.64 168.827 120.064 168.186 120.369C167.551 120.668 166.831 120.818 166.025 120.818C165.214 120.818 164.484 120.668 163.837 120.369C163.196 120.064 162.696 119.64 162.336 119.097C161.976 118.547 161.796 117.925 161.796 117.229C161.796 116.533 161.976 115.914 162.336 115.37C162.696 114.821 163.196 114.394 163.837 114.089C164.484 113.777 165.214 113.622 166.025 113.622ZM163.206 117.229C163.199 117.699 163.315 118.117 163.553 118.483C163.798 118.849 164.133 119.136 164.561 119.344C164.994 119.545 165.482 119.646 166.025 119.646C166.556 119.646 167.036 119.545 167.463 119.344C167.896 119.136 168.235 118.849 168.479 118.483C168.723 118.117 168.845 117.699 168.845 117.229C168.845 116.765 168.723 116.35 168.479 115.984C168.235 115.618 167.896 115.334 167.463 115.132C167.036 114.931 166.556 114.83 166.025 114.83C165.482 114.83 164.994 114.931 164.561 115.132C164.133 115.334 163.798 115.618 163.553 115.984C163.315 116.35 163.199 116.765 163.206 117.229ZM164.268 122.173H174.851V126.091H165.714V127.922H175.437V129.076H164.304V125.011H173.423V123.326H164.268V122.173ZM173.423 113.018H174.851V121.385H173.423V113.018ZM190.569 129.332H189.122V113.018H190.569V129.332ZM177.751 119.957C177.751 118.822 177.928 117.827 178.282 116.973C178.636 116.112 179.128 115.45 179.756 114.986C180.385 114.516 181.102 114.281 181.908 114.281C182.714 114.281 183.431 114.516 184.059 114.986C184.688 115.45 185.179 116.112 185.533 116.973C185.887 117.827 186.064 118.822 186.064 119.957C186.064 121.093 185.887 122.09 185.533 122.951C185.179 123.806 184.688 124.465 184.059 124.929C183.431 125.386 182.714 125.615 181.908 125.615C181.102 125.615 180.385 125.386 179.756 124.929C179.128 124.465 178.636 123.806 178.282 122.951C177.928 122.09 177.751 121.093 177.751 119.957ZM179.143 119.957C179.143 120.83 179.259 121.599 179.491 122.264C179.723 122.924 180.049 123.433 180.471 123.793C180.892 124.153 181.371 124.333 181.908 124.333C182.451 124.333 182.93 124.153 183.345 123.793C183.766 123.433 184.093 122.924 184.325 122.264C184.557 121.599 184.673 120.83 184.673 119.957C184.673 119.084 184.557 118.318 184.325 117.659C184.093 116.994 183.766 116.478 183.345 116.112C182.93 115.746 182.451 115.563 181.908 115.563C181.371 115.563 180.892 115.746 180.471 116.112C180.049 116.478 179.723 116.994 179.491 117.659C179.259 118.325 179.143 119.091 179.143 119.957ZM208.118 120.726H205.481V129.296H204.053V113.018H205.481V119.518H208.118V120.726ZM193.561 114.629H194.989V123.949C196.259 123.949 197.504 123.891 198.724 123.775C199.951 123.659 201.202 123.467 202.478 123.198L202.661 124.425C201.337 124.694 200.04 124.883 198.77 124.993C197.501 125.103 196.198 125.157 194.861 125.157H193.561V114.629ZM220.217 123.308C221.377 123.308 222.384 123.427 223.239 123.665C224.099 123.897 224.761 124.239 225.225 124.691C225.695 125.136 225.93 125.67 225.93 126.293C225.93 126.909 225.695 127.44 225.225 127.886C224.761 128.331 224.099 128.67 223.239 128.902C222.384 129.14 221.377 129.259 220.217 129.259C219.058 129.259 218.047 129.14 217.187 128.902C216.332 128.67 215.673 128.331 215.209 127.886C214.752 127.44 214.523 126.909 214.523 126.293C214.523 125.67 214.752 125.136 215.209 124.691C215.673 124.239 216.332 123.897 217.187 123.665C218.047 123.427 219.058 123.308 220.217 123.308ZM212.875 120.616H219.009V117.467H220.419V120.616H227.688V121.788H212.875V120.616ZM214.633 113.86H225.802V115.233C225.796 116.13 225.768 116.89 225.72 117.513C225.671 118.129 225.546 118.81 225.344 119.554L223.934 119.39C224.13 118.645 224.252 117.977 224.301 117.385C224.349 116.786 224.374 116.069 224.374 115.233V115.032H214.633V113.86ZM215.951 126.293C215.951 126.665 216.125 126.992 216.473 127.272C216.821 127.547 217.315 127.758 217.956 127.904C218.603 128.051 219.357 128.124 220.217 128.124C221.078 128.124 221.829 128.051 222.469 127.904C223.116 127.758 223.614 127.547 223.962 127.272C224.316 126.992 224.496 126.665 224.502 126.293C224.496 125.908 224.316 125.576 223.962 125.295C223.614 125.014 223.116 124.797 222.469 124.645C221.829 124.486 221.078 124.407 220.217 124.407C219.357 124.407 218.603 124.486 217.956 124.645C217.315 124.797 216.821 125.014 216.473 125.295C216.125 125.576 215.951 125.908 215.951 126.293ZM242.563 116.002H229.362V114.83H235.294V112.926H236.704V114.83H242.563V116.002ZM228.593 123.418H243.497V124.608H239.561V129.332H238.132V124.608H233.921V129.332H232.474V124.608H228.593V123.418ZM230.698 119.628C230.692 119.054 230.9 118.566 231.321 118.163C231.742 117.76 232.349 117.455 233.143 117.247C233.942 117.04 234.897 116.936 236.008 116.936C237.107 116.936 238.053 117.04 238.846 117.247C239.646 117.455 240.256 117.76 240.677 118.163C241.105 118.566 241.318 119.054 241.318 119.628C241.318 120.195 241.105 120.681 240.677 121.083C240.256 121.486 239.646 121.794 238.846 122.008C238.053 122.216 237.107 122.319 236.008 122.319C234.897 122.319 233.942 122.216 233.143 122.008C232.349 121.794 231.742 121.486 231.321 121.083C230.9 120.681 230.692 120.195 230.698 119.628ZM232.181 119.628C232.169 120.122 232.496 120.51 233.161 120.79C233.826 121.065 234.757 121.202 235.953 121.202C237.174 121.202 238.123 121.065 238.801 120.79C239.484 120.516 239.829 120.128 239.835 119.628C239.829 119.127 239.49 118.74 238.819 118.465C238.148 118.19 237.211 118.047 236.008 118.035C234.788 118.047 233.842 118.19 233.17 118.465C232.505 118.74 232.175 119.127 232.181 119.628ZM248.943 113.622C249.749 113.622 250.469 113.777 251.104 114.089C251.744 114.394 252.245 114.821 252.605 115.37C252.971 115.914 253.154 116.533 253.154 117.229C253.154 117.925 252.971 118.547 252.605 119.097C252.245 119.64 251.744 120.064 251.104 120.369C250.469 120.668 249.749 120.818 248.943 120.818C248.131 120.818 247.402 120.668 246.755 120.369C246.114 120.064 245.613 119.64 245.253 119.097C244.893 118.547 244.713 117.925 244.713 117.229C244.713 116.533 244.893 115.914 245.253 115.37C245.613 114.821 246.114 114.394 246.755 114.089C247.402 113.777 248.131 113.622 248.943 113.622ZM246.123 117.229C246.117 117.699 246.233 118.117 246.471 118.483C246.715 118.849 247.051 119.136 247.478 119.344C247.911 119.545 248.4 119.646 248.943 119.646C249.474 119.646 249.953 119.545 250.38 119.344C250.814 119.136 251.152 118.849 251.396 118.483C251.641 118.117 251.763 117.699 251.763 117.229C251.763 116.765 251.641 116.35 251.396 115.984C251.152 115.618 250.814 115.334 250.38 115.132C249.953 114.931 249.474 114.83 248.943 114.83C248.4 114.83 247.911 114.931 247.478 115.132C247.051 115.334 246.715 115.618 246.471 115.984C246.233 116.35 246.117 116.765 246.123 117.229ZM247.185 122.173H257.769V126.091H248.632V127.922H258.354V129.076H247.222V125.011H256.34V123.326H247.185V122.173ZM256.34 113.018H257.769V121.385H256.34V113.018ZM269.092 115.673C269.086 116.729 269.055 117.742 269 118.712C268.945 119.683 268.817 120.824 268.616 122.136L267.169 122.008C267.487 120.067 267.645 118.169 267.645 116.313V116.002H260.815V114.83H269.092V115.673ZM259.9 124.517C261.456 124.504 262.628 124.489 263.416 124.471V119.481H264.825V124.425C266.833 124.352 268.616 124.224 270.172 124.041L270.245 125.121C267.725 125.511 264.594 125.707 260.852 125.707H260.083L259.9 124.517ZM271.198 113.018H272.626V119.829H275.262V121.074H272.626V129.296H271.198V113.018ZM288.497 114.025C288.497 114.556 288.445 115.081 288.342 115.599H292.086V113.018H293.514V121.77H292.086V120.122H287.783V118.895H292.086V116.771H287.994C287.487 118.065 286.62 119.167 285.394 120.076C284.173 120.98 282.644 121.666 280.807 122.136L280.258 120.983C282.278 120.476 283.862 119.728 285.009 118.74C286.157 117.745 286.797 116.576 286.932 115.233H281.082V114.025H288.497ZM282.931 122.594H284.377V124.645H292.086V122.594H293.514V129.076H282.931V122.594ZM292.086 127.922V125.798H284.377V127.922H292.086ZM309.196 129.296H307.749V113.018H309.196V129.296ZM296.104 125.029C296.903 124.663 297.626 124.135 298.273 123.445C298.926 122.75 299.439 121.956 299.811 121.065C300.184 120.174 300.37 119.261 300.37 118.328V117.028H296.543V115.856H300.352V113.329H301.78V115.856H305.57V117.028H301.78V118.328C301.78 119.219 301.969 120.092 302.347 120.946C302.732 121.801 303.257 122.56 303.922 123.226C304.587 123.885 305.326 124.388 306.138 124.736L305.332 125.853C304.386 125.438 303.538 124.813 302.787 123.976C302.042 123.14 301.481 122.185 301.102 121.111C300.736 122.246 300.181 123.259 299.436 124.15C298.698 125.035 297.855 125.701 296.909 126.146L296.104 125.029ZM324.675 119.115H313.524V113.622H314.952V117.961H324.675V119.115ZM311.492 121.331H326.396V122.502H311.492V121.331ZM313.433 124.169H314.861V127.703H324.767V128.893H313.433V124.169ZM344.978 122.814H343.531V120.616H339.21V119.426H343.531V117.229H339.375C338.844 118.523 337.974 119.64 336.766 120.58C335.557 121.52 334.071 122.252 332.307 122.777L331.703 121.642C333.015 121.251 334.153 120.754 335.118 120.15C336.082 119.539 336.842 118.837 337.397 118.044C337.959 117.25 338.286 116.387 338.377 115.453H332.527V114.244H339.943C339.943 114.873 339.872 115.483 339.732 116.075H343.531V113.036H344.978V122.814ZM334.211 126.091C334.211 125.45 334.431 124.898 334.871 124.434C335.31 123.964 335.939 123.604 336.757 123.354C337.581 123.104 338.545 122.979 339.65 122.979C340.742 122.979 341.697 123.104 342.515 123.354C343.333 123.604 343.962 123.964 344.401 124.434C344.847 124.898 345.07 125.45 345.07 126.091C345.07 126.732 344.847 127.291 344.401 127.767C343.962 128.237 343.333 128.597 342.515 128.847C341.697 129.097 340.742 129.222 339.65 129.222C338.545 129.222 337.581 129.097 336.757 128.847C335.939 128.597 335.31 128.237 334.871 127.767C334.431 127.291 334.211 126.732 334.211 126.091ZM335.621 126.091C335.621 126.494 335.783 126.842 336.107 127.135C336.436 127.428 336.9 127.654 337.498 127.812C338.096 127.971 338.798 128.051 339.604 128.051C340.416 128.051 341.124 127.971 341.728 127.812C342.338 127.66 342.808 127.437 343.138 127.144C343.474 126.851 343.641 126.5 343.641 126.091C343.641 125.688 343.477 125.341 343.147 125.048C342.823 124.755 342.366 124.529 341.774 124.37C341.182 124.211 340.489 124.132 339.695 124.132C338.871 124.132 338.154 124.211 337.544 124.37C336.934 124.523 336.461 124.745 336.125 125.038C335.789 125.331 335.621 125.682 335.621 126.091ZM362.106 123.564H355.312V129.296H353.903V123.564H347.201V122.356H362.106V123.564ZM348.885 117.266C348.885 116.539 349.124 115.908 349.6 115.37C350.082 114.827 350.753 114.409 351.614 114.116C352.48 113.823 353.481 113.677 354.617 113.677C355.752 113.677 356.75 113.823 357.61 114.116C358.477 114.409 359.149 114.827 359.625 115.37C360.107 115.908 360.348 116.539 360.348 117.266C360.348 117.98 360.107 118.605 359.625 119.142C359.149 119.673 358.477 120.082 357.61 120.369C356.744 120.656 355.746 120.8 354.617 120.8C353.481 120.8 352.48 120.656 351.614 120.369C350.753 120.082 350.082 119.673 349.6 119.142C349.124 118.605 348.885 117.98 348.885 117.266ZM350.369 117.266C350.363 117.742 350.536 118.16 350.891 118.52C351.245 118.88 351.742 119.158 352.383 119.353C353.03 119.548 353.774 119.646 354.617 119.646C355.459 119.646 356.201 119.548 356.841 119.353C357.482 119.158 357.983 118.88 358.343 118.52C358.703 118.16 358.883 117.742 358.883 117.266C358.883 116.783 358.703 116.359 358.343 115.993C357.989 115.627 357.488 115.346 356.841 115.151C356.201 114.949 355.459 114.849 354.617 114.849C353.774 114.849 353.03 114.949 352.383 115.151C351.742 115.346 351.245 115.627 350.891 115.993C350.536 116.359 350.363 116.783 350.369 117.266ZM381.163 116.002H367.961V114.83H373.894V112.926H375.304V114.83H381.163V116.002ZM367.192 123.418H382.097V124.608H378.16V129.332H376.732V124.608H372.521V129.332H371.074V124.608H367.192V123.418ZM369.298 119.628C369.292 119.054 369.5 118.566 369.921 118.163C370.342 117.76 370.949 117.455 371.743 117.247C372.542 117.04 373.497 116.936 374.608 116.936C375.707 116.936 376.653 117.04 377.446 117.247C378.246 117.455 378.856 117.76 379.277 118.163C379.705 118.566 379.918 119.054 379.918 119.628C379.918 120.195 379.705 120.681 379.277 121.083C378.856 121.486 378.246 121.794 377.446 122.008C376.653 122.216 375.707 122.319 374.608 122.319C373.497 122.319 372.542 122.216 371.743 122.008C370.949 121.794 370.342 121.486 369.921 121.083C369.5 120.681 369.292 120.195 369.298 119.628ZM370.781 119.628C370.769 120.122 371.096 120.51 371.761 120.79C372.426 121.065 373.357 121.202 374.553 121.202C375.774 121.202 376.723 121.065 377.401 120.79C378.084 120.516 378.429 120.128 378.435 119.628C378.429 119.127 378.09 118.74 377.419 118.465C376.747 118.19 375.811 118.047 374.608 118.035C373.387 118.047 372.441 118.19 371.77 118.465C371.105 118.74 370.775 119.127 370.781 119.628ZM391.956 115.142C391.949 115.99 391.922 116.774 391.873 117.495C391.824 118.215 391.711 119.036 391.534 119.957L390.088 119.847C390.259 118.993 390.372 118.233 390.427 117.568C390.488 116.902 390.524 116.21 390.536 115.49H383.844V114.281H391.956V115.142ZM382.837 121.477C384.125 121.477 385.291 121.462 386.334 121.431V117.888H387.762V121.385C389.862 121.3 391.65 121.154 393.127 120.946L393.219 122.008C391.699 122.271 390.094 122.444 388.403 122.53C386.713 122.615 384.906 122.661 382.983 122.667L382.837 121.477ZM385.345 124.169H386.792V127.739H396.222V128.948H385.345V124.169ZM394.226 113.018H395.691V118.328H398.071V119.554H395.691V125.267H394.226V113.018ZM402.729 122.759C402.723 124.462 402.498 126.039 402.052 127.492C401.606 128.945 400.953 130.297 400.093 131.548H398.701C399.116 130.931 399.507 130.138 399.873 129.167C400.239 128.197 400.535 127.15 400.761 126.027C400.987 124.898 401.1 123.809 401.1 122.759C401.1 121.709 400.987 120.623 400.761 119.5C400.535 118.37 400.239 117.324 399.873 116.359C399.507 115.389 399.116 114.598 398.701 113.988H400.093C401.832 116.515 402.711 119.438 402.729 122.759Z" fill="#191F28"/>
</g>
</g>
<g clip-path="url(#clip4_3024_11294)">
<path d="M9.7625 155.1L7.45156 152.789C7.25677 152.594 7.01771 152.497 6.73438 152.497C6.45104 152.497 6.20312 152.603 5.99063 152.816C5.79583 153.01 5.69844 153.258 5.69844 153.559C5.69844 153.86 5.79583 154.108 5.99063 154.303L9.01875 157.331C9.21354 157.526 9.46146 157.623 9.7625 157.623C10.0635 157.623 10.3115 157.526 10.5063 157.331L16.5359 151.302C16.7307 151.107 16.8281 150.868 16.8281 150.584C16.8281 150.301 16.7219 150.053 16.5094 149.841C16.3146 149.646 16.0667 149.548 15.7656 149.548C15.4646 149.548 15.2167 149.646 15.0219 149.841L9.7625 155.1ZM11.25 163.812C9.78021 163.812 8.39896 163.533 7.10625 162.975C5.81354 162.418 4.68906 161.661 3.73281 160.705C2.77656 159.748 2.01971 158.624 1.46225 157.331C0.904083 156.039 0.625 154.657 0.625 153.188C0.625 151.718 0.904083 150.336 1.46225 149.044C2.01971 147.751 2.77656 146.627 3.73281 145.67C4.68906 144.714 5.81354 143.957 7.10625 143.399C8.39896 142.841 9.78021 142.562 11.25 142.562C12.7198 142.562 14.101 142.841 15.3937 143.399C16.6865 143.957 17.8109 144.714 18.7672 145.67C19.7234 146.627 20.4803 147.751 21.0378 149.044C21.5959 150.336 21.875 151.718 21.875 153.188C21.875 154.657 21.5959 156.039 21.0378 157.331C20.4803 158.624 19.7234 159.748 18.7672 160.705C17.8109 161.661 16.6865 162.418 15.3937 162.975C14.101 163.533 12.7198 163.812 11.25 163.812Z" fill="#ADB5BD"/>
<g clip-path="url(#clip5_3024_11294)">
<path d="M45.9741 154.588H44.5459V145.286H45.9741V154.588ZM32.9187 149.955C32.9187 149.21 33.0988 148.551 33.4589 147.978C33.8251 147.398 34.3317 146.949 34.9786 146.632C35.6317 146.308 36.3672 146.146 37.1851 146.146C38.0029 146.146 38.7354 146.308 39.3823 146.632C40.0293 146.949 40.5359 147.398 40.9021 147.978C41.2683 148.551 41.4514 149.21 41.4514 149.955C41.4514 150.688 41.2683 151.344 40.9021 151.923C40.5359 152.497 40.0293 152.946 39.3823 153.269C38.7354 153.587 38.0029 153.745 37.1851 153.745C36.3672 153.745 35.6348 153.587 34.9878 153.269C34.3408 152.946 33.8342 152.497 33.468 151.923C33.1018 151.344 32.9187 150.688 32.9187 149.955ZM34.3286 149.955C34.3225 150.449 34.4415 150.892 34.6857 151.283C34.9298 151.673 35.2686 151.978 35.7019 152.198C36.1414 152.412 36.6357 152.519 37.1851 152.519C37.7283 152.519 38.2166 152.412 38.6499 152.198C39.0894 151.978 39.4312 151.673 39.6753 151.283C39.9194 150.892 40.0415 150.449 40.0415 149.955C40.0415 149.455 39.9194 149.009 39.6753 148.618C39.4312 148.222 39.0894 147.917 38.6499 147.703C38.2166 147.483 37.7283 147.373 37.1851 147.373C36.6357 147.373 36.1414 147.483 35.7019 147.703C35.2686 147.917 34.9298 148.222 34.6857 148.618C34.4415 149.009 34.3225 149.455 34.3286 149.955ZM35.3906 155.467H45.9741V161.326H35.3906V155.467ZM44.5642 160.154V156.638H36.8005V160.154H44.5642ZM54.0564 149.644C54.0564 150.608 54.2548 151.566 54.6515 152.519C55.0482 153.465 55.5823 154.307 56.2537 155.045C56.9312 155.784 57.6697 156.333 58.4692 156.693L57.5903 157.829C56.6565 157.377 55.8142 156.696 55.0635 155.787C54.3127 154.871 53.7421 153.837 53.3514 152.683C52.9791 153.91 52.4146 155.009 51.6577 155.979C50.9009 156.95 50.0464 157.676 49.0942 158.158L48.1787 156.95C48.9844 156.583 49.726 156.019 50.4034 155.256C51.0809 154.493 51.618 153.62 52.0148 152.638C52.4176 151.649 52.6221 150.651 52.6282 149.644V146.677H54.0564V149.644ZM60.2454 145.268H61.6919V161.582H60.2454V145.268ZM77.9773 148.252H64.7754V147.08H70.708V145.176H72.1179V147.08H77.9773V148.252ZM64.0063 155.668H78.9111V156.858H74.9744V161.582H73.5461V156.858H69.3347V161.582H67.8882V156.858H64.0063V155.668ZM66.1121 151.878C66.106 151.304 66.3135 150.816 66.7346 150.413C67.1558 150.01 67.7631 149.705 68.5565 149.497C69.3561 149.29 70.3113 149.186 71.4221 149.186C72.5208 149.186 73.4668 149.29 74.2603 149.497C75.0598 149.705 75.6702 150.01 76.0913 150.413C76.5186 150.816 76.7322 151.304 76.7322 151.878C76.7322 152.445 76.5186 152.931 76.0913 153.333C75.6702 153.736 75.0598 154.044 74.2603 154.258C73.4668 154.466 72.5208 154.569 71.4221 154.569C70.3113 154.569 69.3561 154.466 68.5565 154.258C67.7631 154.044 67.1558 153.736 66.7346 153.333C66.3135 152.931 66.106 152.445 66.1121 151.878ZM67.5952 151.878C67.583 152.372 67.9095 152.76 68.5748 153.04C69.2401 153.315 70.1709 153.452 71.3672 153.452C72.5879 153.452 73.537 153.315 74.2145 153.04C74.8981 152.766 75.2429 152.378 75.249 151.878C75.2429 151.377 74.9042 150.99 74.2328 150.715C73.5614 150.44 72.6245 150.297 71.4221 150.285C70.2014 150.297 69.2554 150.44 68.584 150.715C67.9187 150.99 67.5891 151.377 67.5952 151.878ZM88.7695 147.392C88.7634 148.24 88.736 149.024 88.6871 149.745C88.6383 150.465 88.5254 151.286 88.3484 152.207L86.9019 152.097C87.0728 151.243 87.1857 150.483 87.2406 149.818C87.3016 149.152 87.3383 148.46 87.3505 147.74H80.658V146.531H88.7695V147.392ZM79.6509 153.727C80.9387 153.727 82.1045 153.712 83.1482 153.681V150.138H84.5764V153.635C86.676 153.55 88.4644 153.404 89.9414 153.196L90.033 154.258C88.5132 154.521 86.908 154.694 85.2173 154.78C83.5266 154.865 81.72 154.911 79.7974 154.917L79.6509 153.727ZM82.1594 156.419H83.606V159.989H93.0359V161.198H82.1594V156.419ZM91.04 145.268H92.5049V150.578H94.8853V151.804H92.5049V157.517H91.04V145.268ZM100.093 145.872C100.898 145.872 101.619 146.027 102.253 146.339C102.894 146.644 103.395 147.071 103.755 147.62C104.121 148.164 104.304 148.783 104.304 149.479C104.304 150.175 104.121 150.797 103.755 151.347C103.395 151.89 102.894 152.314 102.253 152.619C101.619 152.918 100.898 153.068 100.093 153.068C99.281 153.068 98.5516 152.918 97.9047 152.619C97.2638 152.314 96.7633 151.89 96.4032 151.347C96.0431 150.797 95.863 150.175 95.863 149.479C95.863 148.783 96.0431 148.164 96.4032 147.62C96.7633 147.071 97.2638 146.644 97.9047 146.339C98.5516 146.027 99.281 145.872 100.093 145.872ZM97.2729 149.479C97.2668 149.949 97.3828 150.367 97.6208 150.733C97.865 151.099 98.2007 151.386 98.6279 151.594C99.0613 151.795 99.5496 151.896 100.093 151.896C100.624 151.896 101.103 151.795 101.53 151.594C101.964 151.386 102.302 151.099 102.546 150.733C102.791 150.367 102.913 149.949 102.913 149.479C102.913 149.015 102.791 148.6 102.546 148.234C102.302 147.868 101.964 147.584 101.53 147.382C101.103 147.181 100.624 147.08 100.093 147.08C99.5496 147.08 99.0613 147.181 98.6279 147.382C98.2007 147.584 97.865 147.868 97.6208 148.234C97.3828 148.6 97.2668 149.015 97.2729 149.479ZM98.335 154.423H108.918V158.341H99.7815V160.172H109.504V161.326H98.3716V157.261H107.49V155.576H98.335V154.423ZM107.49 145.268H108.918V153.635H107.49V145.268ZM117.173 160.172C116.959 160.172 116.761 160.117 116.578 160.008C116.401 159.898 116.257 159.754 116.147 159.577C116.044 159.394 115.995 159.196 116.001 158.982C115.995 158.775 116.044 158.582 116.147 158.405C116.257 158.222 116.401 158.079 116.578 157.975C116.761 157.865 116.959 157.81 117.173 157.81C117.38 157.81 117.573 157.862 117.75 157.966C117.933 158.07 118.076 158.21 118.18 158.387C118.29 158.564 118.345 158.756 118.345 158.964C118.345 159.293 118.232 159.577 118.006 159.815C117.78 160.047 117.502 160.166 117.173 160.172ZM117.173 152.812C116.959 152.812 116.761 152.757 116.578 152.647C116.401 152.537 116.257 152.393 116.147 152.216C116.044 152.033 115.995 151.835 116.001 151.621C115.995 151.414 116.044 151.222 116.147 151.045C116.257 150.861 116.401 150.718 116.578 150.614C116.761 150.504 116.959 150.449 117.173 150.449C117.38 150.449 117.573 150.501 117.75 150.605C117.933 150.709 118.076 150.849 118.18 151.026C118.29 151.203 118.345 151.396 118.345 151.603C118.345 151.933 118.232 152.216 118.006 152.454C117.78 152.686 117.502 152.805 117.173 152.812ZM137.439 161.546H135.992V145.268H137.439V161.546ZM124.182 157.316C126.355 156.284 128.018 155.003 129.172 153.471C130.331 151.939 130.994 150.187 131.158 148.216H124.933V147.044H132.623C132.611 149.497 131.989 151.704 130.756 153.663C129.523 155.622 127.594 157.23 124.969 158.488L124.182 157.316ZM148.066 147.959H141.877V151.328H147.7V152.5H141.877V156.437C143.422 156.437 144.752 156.4 145.869 156.327C146.992 156.248 148.14 156.107 149.312 155.906L149.476 157.096C148.268 157.298 147.087 157.435 145.933 157.508C144.78 157.581 143.373 157.621 141.713 157.627H140.431V146.751H148.066V147.959ZM150.886 145.268H152.314V151.823H155.043V153.05H152.314V161.546H150.886V145.268ZM168.717 147.392C168.711 148.24 168.683 149.024 168.635 149.745C168.586 150.465 168.473 151.286 168.296 152.207L166.849 152.097C167.02 151.243 167.133 150.483 167.188 149.818C167.249 149.152 167.286 148.46 167.298 147.74H160.605V146.531H168.717V147.392ZM159.598 153.727C160.886 153.727 162.052 153.712 163.096 153.681V150.138H164.524V153.635C166.624 153.55 168.412 153.404 169.889 153.196L169.98 154.258C168.461 154.521 166.855 154.694 165.165 154.78C163.474 154.865 161.667 154.911 159.745 154.917L159.598 153.727ZM162.107 156.419H163.553V159.989H172.983V161.198H162.107V156.419ZM170.988 145.268H172.452V150.578H174.833V151.804H172.452V157.517H170.988V145.268ZM180.938 148.362C180.938 149.064 181.102 149.735 181.432 150.376C181.768 151.017 182.238 151.582 182.842 152.07C183.446 152.552 184.142 152.921 184.929 153.178L184.252 154.313C183.318 154.002 182.506 153.538 181.816 152.921C181.127 152.305 180.605 151.585 180.251 150.761C179.903 151.695 179.369 152.512 178.649 153.214C177.928 153.91 177.08 154.435 176.104 154.789L175.371 153.635C176.177 153.361 176.894 152.958 177.523 152.427C178.151 151.896 178.64 151.28 178.987 150.578C179.341 149.876 179.521 149.137 179.528 148.362V147.666H175.811V146.476H184.6V147.666H180.938V148.362ZM177.532 158.506C177.532 157.884 177.748 157.353 178.182 156.913C178.615 156.468 179.238 156.129 180.049 155.897C180.861 155.659 181.823 155.54 182.933 155.54C184.044 155.54 185.002 155.659 185.808 155.897C186.614 156.129 187.23 156.468 187.657 156.913C188.085 157.353 188.298 157.884 188.298 158.506C188.298 159.135 188.085 159.675 187.657 160.127C187.23 160.578 186.614 160.92 185.808 161.152C185.002 161.39 184.044 161.509 182.933 161.509C181.823 161.509 180.861 161.39 180.049 161.152C179.238 160.92 178.615 160.578 178.182 160.127C177.748 159.675 177.532 159.135 177.532 158.506ZM178.978 158.506C178.972 158.891 179.125 159.223 179.436 159.504C179.753 159.779 180.205 159.989 180.791 160.136C181.383 160.282 182.082 160.355 182.888 160.355C183.718 160.355 184.432 160.282 185.03 160.136C185.634 159.995 186.098 159.788 186.422 159.513C186.745 159.232 186.907 158.897 186.907 158.506C186.907 158.128 186.745 157.804 186.422 157.536C186.104 157.261 185.646 157.053 185.048 156.913C184.456 156.767 183.751 156.693 182.933 156.693C182.122 156.693 181.417 156.767 180.818 156.913C180.22 157.053 179.763 157.261 179.445 157.536C179.128 157.81 178.972 158.134 178.978 158.506ZM186.724 145.268H188.152V149.424H190.605V150.633H188.152V155.1H186.724V145.268ZM204.584 161.582H203.137V145.268H204.584V161.582ZM191.766 152.207C191.766 151.072 191.943 150.077 192.297 149.223C192.651 148.362 193.143 147.7 193.771 147.236C194.4 146.766 195.117 146.531 195.923 146.531C196.729 146.531 197.446 146.766 198.074 147.236C198.703 147.7 199.194 148.362 199.548 149.223C199.902 150.077 200.079 151.072 200.079 152.207C200.079 153.343 199.902 154.34 199.548 155.201C199.194 156.056 198.703 156.715 198.074 157.179C197.446 157.636 196.729 157.865 195.923 157.865C195.117 157.865 194.4 157.636 193.771 157.179C193.143 156.715 192.651 156.056 192.297 155.201C191.943 154.34 191.766 153.343 191.766 152.207ZM193.158 152.207C193.158 153.08 193.274 153.849 193.506 154.514C193.738 155.174 194.064 155.683 194.485 156.043C194.907 156.403 195.386 156.583 195.923 156.583C196.466 156.583 196.945 156.403 197.36 156.043C197.781 155.683 198.108 155.174 198.34 154.514C198.572 153.849 198.688 153.08 198.688 152.207C198.688 151.334 198.572 150.568 198.34 149.909C198.108 149.244 197.781 148.728 197.36 148.362C196.945 147.996 196.466 147.813 195.923 147.813C195.386 147.813 194.907 147.996 194.485 148.362C194.064 148.728 193.738 149.244 193.506 149.909C193.274 150.575 193.158 151.341 193.158 152.207ZM218.496 155.558C219.656 155.558 220.663 155.677 221.517 155.915C222.378 156.147 223.04 156.489 223.504 156.941C223.974 157.386 224.209 157.92 224.209 158.543C224.209 159.159 223.974 159.69 223.504 160.136C223.04 160.581 222.378 160.92 221.517 161.152C220.663 161.39 219.656 161.509 218.496 161.509C217.336 161.509 216.326 161.39 215.466 161.152C214.611 160.92 213.952 160.581 213.488 160.136C213.03 159.69 212.802 159.159 212.802 158.543C212.802 157.92 213.03 157.386 213.488 156.941C213.952 156.489 214.611 156.147 215.466 155.915C216.326 155.677 217.336 155.558 218.496 155.558ZM211.154 152.866H217.288V149.717H218.698V152.866H225.967V154.038H211.154V152.866ZM212.911 146.11H224.081V147.483C224.075 148.38 224.047 149.14 223.998 149.763C223.95 150.379 223.824 151.06 223.623 151.804L222.213 151.64C222.408 150.895 222.531 150.227 222.579 149.635C222.628 149.036 222.653 148.319 222.653 147.483V147.282H212.911V146.11ZM214.23 158.543C214.23 158.915 214.404 159.242 214.752 159.522C215.099 159.797 215.594 160.008 216.235 160.154C216.882 160.301 217.635 160.374 218.496 160.374C219.357 160.374 220.107 160.301 220.748 160.154C221.395 160.008 221.893 159.797 222.241 159.522C222.595 159.242 222.775 158.915 222.781 158.543C222.775 158.158 222.595 157.826 222.241 157.545C221.893 157.264 221.395 157.047 220.748 156.895C220.107 156.736 219.357 156.657 218.496 156.657C217.635 156.657 216.882 156.736 216.235 156.895C215.594 157.047 215.099 157.264 214.752 157.545C214.404 157.826 214.23 158.158 214.23 158.543ZM239.927 148.545V148.747C239.915 150.095 239.872 151.301 239.799 152.363C239.731 153.425 239.573 154.655 239.323 156.052L237.858 155.888C238.047 154.923 238.184 154.017 238.27 153.169C238.361 152.314 238.416 151.56 238.434 150.907C238.459 150.254 238.474 149.467 238.48 148.545V148.106H228.446V146.916H239.927V148.545ZM226.871 158.048H232.694V152.226H234.104V158.048H241.703V159.239H226.871V158.048ZM255.333 150.651H257.787V151.859H255.333V157.481H253.905V145.286H255.333V150.651ZM242.644 147.282H246.782V145.286H248.21V147.282H252.349V148.454H242.644V147.282ZM243.578 152.39C243.578 151.78 243.74 151.246 244.063 150.788C244.387 150.33 244.844 149.976 245.436 149.726C246.028 149.476 246.715 149.351 247.496 149.351C248.265 149.351 248.943 149.476 249.529 149.726C250.121 149.976 250.582 150.33 250.911 150.788C251.241 151.246 251.409 151.78 251.415 152.39C251.409 152.995 251.241 153.526 250.911 153.983C250.582 154.435 250.121 154.783 249.529 155.027C248.943 155.271 248.265 155.393 247.496 155.393C246.715 155.393 246.028 155.271 245.436 155.027C244.844 154.783 244.387 154.435 244.063 153.983C243.74 153.526 243.578 152.995 243.578 152.39ZM244.951 152.39C244.951 152.769 245.055 153.101 245.262 153.388C245.47 153.669 245.766 153.886 246.151 154.038C246.541 154.191 246.99 154.264 247.496 154.258C247.997 154.264 248.439 154.191 248.824 154.038C249.214 153.886 249.517 153.669 249.73 153.388C249.944 153.101 250.054 152.769 250.06 152.39C250.054 152.012 249.944 151.679 249.73 151.392C249.517 151.099 249.218 150.877 248.833 150.724C248.455 150.565 248.018 150.486 247.524 150.486C247.011 150.486 246.559 150.565 246.169 150.724C245.778 150.877 245.476 151.096 245.262 151.383C245.055 151.67 244.951 152.006 244.951 152.39ZM245.153 156.51H246.562V159.989H256.084V161.198H245.153V156.51ZM275.306 148.673H277.76V149.882H275.306V153.489H273.878V145.268H275.306V148.673ZM263.368 146H264.814V151.457C266.053 151.463 267.271 151.414 268.467 151.31C269.67 151.2 270.9 151.017 272.157 150.761L272.34 151.969C271.034 152.238 269.761 152.427 268.522 152.537C267.289 152.641 266.005 152.696 264.668 152.702H263.368V146ZM264.924 154.276H275.306V158.25H266.389V160.154H275.911V161.326H264.961V157.115H273.878V155.43H264.924V154.276Z" fill="#191F28"/>
</g>
</g>
<defs>
<clipPath id="clip0_3024_11294">
<rect width="437.5" height="26.25" fill="white" transform="translate(0.625 49.3125)"/>
</clipPath>
<clipPath id="clip1_3024_11294">
<rect width="406.25" height="26" fill="white" transform="translate(31.875 49.3125)"/>
</clipPath>
<clipPath id="clip2_3024_11294">
<rect width="437.5" height="52" fill="white" transform="translate(0.625 81.8125)"/>
</clipPath>
<clipPath id="clip3_3024_11294">
<rect width="406.25" height="52" fill="white" transform="translate(31.875 81.8125)"/>
</clipPath>
<clipPath id="clip4_3024_11294">
<rect width="437.5" height="26.25" fill="white" transform="translate(0.625 140.062)"/>
</clipPath>
<clipPath id="clip5_3024_11294">
<rect width="406.25" height="26" fill="white" transform="translate(31.875 140.062)"/>
</clipPath>
</defs>
</svg>
